#VRML V2.0 utf8
# Datasheet-derived review envelope, not manufacturer CAD
Transform { translation 0.0 0.0 0.11811023622047244 children [ Shape { appearance Appearance { material Material { diffuseColor 0.20 0.20 0.17 } } geometry Box { size 0.6496062992125984 0.2677165354330709 0.23622047244094488 } } ] }
Transform { translation 0.0 -0.2263779527559055 0.11811023622047244 children [ Shape { appearance Appearance { material Material { diffuseColor 0.22 0.7 0.16 } } geometry Box { size 0.47244094488188976 0.18503937007874013 0.22834645669291337 } } ] }
Transform { translation -0.25984251968503935 0.0 0.00984251968503937 children [ Shape { appearance Appearance { material Material { diffuseColor 0.78 0.78 0.72 } } geometry Box { size 0.12992125984251968 0.2677165354330709 0.01968503937007874 } } ] }
Transform { translation 0.25984251968503935 0.0 0.00984251968503937 children [ Shape { appearance Appearance { material Material { diffuseColor 0.78 0.78 0.72 } } geometry Box { size 0.12992125984251968 0.2677165354330709 0.01968503937007874 } } ] }
