ISO-10303-21;
HEADER;
FILE_DESCRIPTION(('FreeCAD Model'),'2;1');
FILE_NAME('Open CASCADE Shape Model','2026-10-03T19:11:30',('Author'),(
    ''),'Open CASCADE STEP processor 7.8','FreeCAD','Unknown');
FILE_SCHEMA(('AUTOMOTIVE_DESIGN { 1 0 10303 214 1 1 1 1 }'));
ENDSEC;
DATA;
#1 = APPLICATION_PROTOCOL_DEFINITION('international standard',
  'automotive_design',2000,#2);
#2 = APPLICATION_CONTEXT(
  'core data for automotive mechanical design processes');
#3 = SHAPE_DEFINITION_REPRESENTATION(#4,#10);
#4 = PRODUCT_DEFINITION_SHAPE('','',#5);
#5 = PRODUCT_DEFINITION('design','',#6,#9);
#6 = PRODUCT_DEFINITION_FORMATION('','',#7);
#7 = PRODUCT('Passive10','Passive10','',(#8));
#8 = PRODUCT_CONTEXT('',#2,'mechanical');
#9 = PRODUCT_DEFINITION_CONTEXT('part definition',#2,'design');
#10 = SHAPE_REPRESENTATION('',(#11,#15,#19,#23,#27),#31);
#11 = AXIS2_PLACEMENT_3D('',#12,#13,#14);
#12 = CARTESIAN_POINT('',(0.,0.,0.));
#13 = DIRECTION('',(0.,0.,1.));
#14 = DIRECTION('',(1.,0.,-0.));
#15 = AXIS2_PLACEMENT_3D('',#16,#17,#18);
#16 = CARTESIAN_POINT('',(0.,0.,0.));
#17 = DIRECTION('',(0.,0.,1.));
#18 = DIRECTION('',(1.,0.,0.));
#19 = AXIS2_PLACEMENT_3D('',#20,#21,#22);
#20 = CARTESIAN_POINT('',(0.,0.,0.));
#21 = DIRECTION('',(0.,0.,1.));
#22 = DIRECTION('',(1.,0.,0.));
#23 = AXIS2_PLACEMENT_3D('',#24,#25,#26);
#24 = CARTESIAN_POINT('',(0.,0.,0.));
#25 = DIRECTION('',(0.,0.,1.));
#26 = DIRECTION('',(1.,0.,0.));
#27 = AXIS2_PLACEMENT_3D('',#28,#29,#30);
#28 = CARTESIAN_POINT('',(0.,0.,0.));
#29 = DIRECTION('',(0.,0.,1.));
#30 = DIRECTION('',(1.,0.,0.));
#31 = ( GEOMETRIC_REPRESENTATION_CONTEXT(3) 
GLOBAL_UNCERTAINTY_ASSIGNED_CONTEXT((#35)) GLOBAL_UNIT_ASSIGNED_CONTEXT(
(#32,#33,#34)) REPRESENTATION_CONTEXT('Context #1',
  '3D Context with UNIT and UNCERTAINTY') );
#32 = ( LENGTH_UNIT() NAMED_UNIT(*) SI_UNIT(.MILLI.,.METRE.) );
#33 = ( NAMED_UNIT(*) PLANE_ANGLE_UNIT() SI_UNIT($,.RADIAN.) );
#34 = ( NAMED_UNIT(*) SI_UNIT($,.STERADIAN.) SOLID_ANGLE_UNIT() );
#35 = UNCERTAINTY_MEASURE_WITH_UNIT(LENGTH_MEASURE(1.E-07),#32,
  'distance_accuracy_value','confusion accuracy');
#36 = PRODUCT_RELATED_PRODUCT_CATEGORY('part',$,(#7));
#37 = SHAPE_DEFINITION_REPRESENTATION(#38,#44);
#38 = PRODUCT_DEFINITION_SHAPE('','',#39);
#39 = PRODUCT_DEFINITION('design','',#40,#43);
#40 = PRODUCT_DEFINITION_FORMATION('','',#41);
#41 = PRODUCT('Alumina_substrate','Alumina_substrate','',(#42));
#42 = PRODUCT_CONTEXT('',#2,'mechanical');
#43 = PRODUCT_DEFINITION_CONTEXT('part definition',#2,'design');
#44 = ADVANCED_BREP_SHAPE_REPRESENTATION('',(#11,#45),#195);
#45 = MANIFOLD_SOLID_BREP('',#46);
#46 = CLOSED_SHELL('',(#47,#87,#127,#149,#171,#183));
#47 = ADVANCED_FACE('',(#48),#82,.F.);
#48 = FACE_BOUND('',#49,.F.);
#49 = EDGE_LOOP('',(#50,#60,#68,#76));
#50 = ORIENTED_EDGE('',*,*,#51,.F.);
#51 = EDGE_CURVE('',#52,#54,#56,.T.);
#52 = VERTEX_POINT('',#53);
#53 = CARTESIAN_POINT('',(-0.782,-0.4,2.5E-02));
#54 = VERTEX_POINT('',#55);
#55 = CARTESIAN_POINT('',(-0.782,-0.4,0.425));
#56 = LINE('',#57,#58);
#57 = CARTESIAN_POINT('',(-0.782,-0.4,2.5E-02));
#58 = VECTOR('',#59,1.);
#59 = DIRECTION('',(0.,0.,1.));
#60 = ORIENTED_EDGE('',*,*,#61,.T.);
#61 = EDGE_CURVE('',#52,#62,#64,.T.);
#62 = VERTEX_POINT('',#63);
#63 = CARTESIAN_POINT('',(-0.782,0.4,2.5E-02));
#64 = LINE('',#65,#66);
#65 = CARTESIAN_POINT('',(-0.782,-0.4,2.5E-02));
#66 = VECTOR('',#67,1.);
#67 = DIRECTION('',(-0.,1.,0.));
#68 = ORIENTED_EDGE('',*,*,#69,.T.);
#69 = EDGE_CURVE('',#62,#70,#72,.T.);
#70 = VERTEX_POINT('',#71);
#71 = CARTESIAN_POINT('',(-0.782,0.4,0.425));
#72 = LINE('',#73,#74);
#73 = CARTESIAN_POINT('',(-0.782,0.4,2.5E-02));
#74 = VECTOR('',#75,1.);
#75 = DIRECTION('',(0.,0.,1.));
#76 = ORIENTED_EDGE('',*,*,#77,.F.);
#77 = EDGE_CURVE('',#54,#70,#78,.T.);
#78 = LINE('',#79,#80);
#79 = CARTESIAN_POINT('',(-0.782,-0.4,0.425));
#80 = VECTOR('',#81,1.);
#81 = DIRECTION('',(-0.,1.,0.));
#82 = PLANE('',#83);
#83 = AXIS2_PLACEMENT_3D('',#84,#85,#86);
#84 = CARTESIAN_POINT('',(-0.782,-0.4,2.5E-02));
#85 = DIRECTION('',(1.,0.,-0.));
#86 = DIRECTION('',(0.,0.,1.));
#87 = ADVANCED_FACE('',(#88),#122,.T.);
#88 = FACE_BOUND('',#89,.T.);
#89 = EDGE_LOOP('',(#90,#100,#108,#116));
#90 = ORIENTED_EDGE('',*,*,#91,.F.);
#91 = EDGE_CURVE('',#92,#94,#96,.T.);
#92 = VERTEX_POINT('',#93);
#93 = CARTESIAN_POINT('',(0.782,-0.4,2.5E-02));
#94 = VERTEX_POINT('',#95);
#95 = CARTESIAN_POINT('',(0.782,-0.4,0.425));
#96 = LINE('',#97,#98);
#97 = CARTESIAN_POINT('',(0.782,-0.4,2.5E-02));
#98 = VECTOR('',#99,1.);
#99 = DIRECTION('',(0.,0.,1.));
#100 = ORIENTED_EDGE('',*,*,#101,.T.);
#101 = EDGE_CURVE('',#92,#102,#104,.T.);
#102 = VERTEX_POINT('',#103);
#103 = CARTESIAN_POINT('',(0.782,0.4,2.5E-02));
#104 = LINE('',#105,#106);
#105 = CARTESIAN_POINT('',(0.782,-0.4,2.5E-02));
#106 = VECTOR('',#107,1.);
#107 = DIRECTION('',(-0.,1.,0.));
#108 = ORIENTED_EDGE('',*,*,#109,.T.);
#109 = EDGE_CURVE('',#102,#110,#112,.T.);
#110 = VERTEX_POINT('',#111);
#111 = CARTESIAN_POINT('',(0.782,0.4,0.425));
#112 = LINE('',#113,#114);
#113 = CARTESIAN_POINT('',(0.782,0.4,2.5E-02));
#114 = VECTOR('',#115,1.);
#115 = DIRECTION('',(0.,0.,1.));
#116 = ORIENTED_EDGE('',*,*,#117,.F.);
#117 = EDGE_CURVE('',#94,#110,#118,.T.);
#118 = LINE('',#119,#120);
#119 = CARTESIAN_POINT('',(0.782,-0.4,0.425));
#120 = VECTOR('',#121,1.);
#121 = DIRECTION('',(-0.,1.,0.));
#122 = PLANE('',#123);
#123 = AXIS2_PLACEMENT_3D('',#124,#125,#126);
#124 = CARTESIAN_POINT('',(0.782,-0.4,2.5E-02));
#125 = DIRECTION('',(1.,0.,-0.));
#126 = DIRECTION('',(0.,0.,1.));
#127 = ADVANCED_FACE('',(#128),#144,.F.);
#128 = FACE_BOUND('',#129,.F.);
#129 = EDGE_LOOP('',(#130,#136,#137,#143));
#130 = ORIENTED_EDGE('',*,*,#131,.F.);
#131 = EDGE_CURVE('',#52,#92,#132,.T.);
#132 = LINE('',#133,#134);
#133 = CARTESIAN_POINT('',(-0.782,-0.4,2.5E-02));
#134 = VECTOR('',#135,1.);
#135 = DIRECTION('',(1.,0.,-0.));
#136 = ORIENTED_EDGE('',*,*,#51,.T.);
#137 = ORIENTED_EDGE('',*,*,#138,.T.);
#138 = EDGE_CURVE('',#54,#94,#139,.T.);
#139 = LINE('',#140,#141);
#140 = CARTESIAN_POINT('',(-0.782,-0.4,0.425));
#141 = VECTOR('',#142,1.);
#142 = DIRECTION('',(1.,0.,-0.));
#143 = ORIENTED_EDGE('',*,*,#91,.F.);
#144 = PLANE('',#145);
#145 = AXIS2_PLACEMENT_3D('',#146,#147,#148);
#146 = CARTESIAN_POINT('',(-0.782,-0.4,2.5E-02));
#147 = DIRECTION('',(-0.,1.,0.));
#148 = DIRECTION('',(0.,0.,1.));
#149 = ADVANCED_FACE('',(#150),#166,.T.);
#150 = FACE_BOUND('',#151,.T.);
#151 = EDGE_LOOP('',(#152,#158,#159,#165));
#152 = ORIENTED_EDGE('',*,*,#153,.F.);
#153 = EDGE_CURVE('',#62,#102,#154,.T.);
#154 = LINE('',#155,#156);
#155 = CARTESIAN_POINT('',(-0.782,0.4,2.5E-02));
#156 = VECTOR('',#157,1.);
#157 = DIRECTION('',(1.,0.,-0.));
#158 = ORIENTED_EDGE('',*,*,#69,.T.);
#159 = ORIENTED_EDGE('',*,*,#160,.T.);
#160 = EDGE_CURVE('',#70,#110,#161,.T.);
#161 = LINE('',#162,#163);
#162 = CARTESIAN_POINT('',(-0.782,0.4,0.425));
#163 = VECTOR('',#164,1.);
#164 = DIRECTION('',(1.,0.,-0.));
#165 = ORIENTED_EDGE('',*,*,#109,.F.);
#166 = PLANE('',#167);
#167 = AXIS2_PLACEMENT_3D('',#168,#169,#170);
#168 = CARTESIAN_POINT('',(-0.782,0.4,2.5E-02));
#169 = DIRECTION('',(-0.,1.,0.));
#170 = DIRECTION('',(0.,0.,1.));
#171 = ADVANCED_FACE('',(#172),#178,.F.);
#172 = FACE_BOUND('',#173,.F.);
#173 = EDGE_LOOP('',(#174,#175,#176,#177));
#174 = ORIENTED_EDGE('',*,*,#61,.F.);
#175 = ORIENTED_EDGE('',*,*,#131,.T.);
#176 = ORIENTED_EDGE('',*,*,#101,.T.);
#177 = ORIENTED_EDGE('',*,*,#153,.F.);
#178 = PLANE('',#179);
#179 = AXIS2_PLACEMENT_3D('',#180,#181,#182);
#180 = CARTESIAN_POINT('',(-0.782,-0.4,2.5E-02));
#181 = DIRECTION('',(0.,0.,1.));
#182 = DIRECTION('',(1.,0.,-0.));
#183 = ADVANCED_FACE('',(#184),#190,.T.);
#184 = FACE_BOUND('',#185,.T.);
#185 = EDGE_LOOP('',(#186,#187,#188,#189));
#186 = ORIENTED_EDGE('',*,*,#77,.F.);
#187 = ORIENTED_EDGE('',*,*,#138,.T.);
#188 = ORIENTED_EDGE('',*,*,#117,.T.);
#189 = ORIENTED_EDGE('',*,*,#160,.F.);
#190 = PLANE('',#191);
#191 = AXIS2_PLACEMENT_3D('',#192,#193,#194);
#192 = CARTESIAN_POINT('',(-0.782,-0.4,0.425));
#193 = DIRECTION('',(0.,0.,1.));
#194 = DIRECTION('',(1.,0.,-0.));
#195 = ( GEOMETRIC_REPRESENTATION_CONTEXT(3) 
GLOBAL_UNCERTAINTY_ASSIGNED_CONTEXT((#199)) GLOBAL_UNIT_ASSIGNED_CONTEXT
((#196,#197,#198)) REPRESENTATION_CONTEXT('Context #1',
  '3D Context with UNIT and UNCERTAINTY') );
#196 = ( LENGTH_UNIT() NAMED_UNIT(*) SI_UNIT(.MILLI.,.METRE.) );
#197 = ( NAMED_UNIT(*) PLANE_ANGLE_UNIT() SI_UNIT($,.RADIAN.) );
#198 = ( NAMED_UNIT(*) SI_UNIT($,.STERADIAN.) SOLID_ANGLE_UNIT() );
#199 = UNCERTAINTY_MEASURE_WITH_UNIT(LENGTH_MEASURE(1.E-07),#196,
  'distance_accuracy_value','confusion accuracy');
#200 = CONTEXT_DEPENDENT_SHAPE_REPRESENTATION(#201,#203);
#201 = ( REPRESENTATION_RELATIONSHIP('','',#44,#10) 
REPRESENTATION_RELATIONSHIP_WITH_TRANSFORMATION(#202) 
SHAPE_REPRESENTATION_RELATIONSHIP() );
#202 = ITEM_DEFINED_TRANSFORMATION('','',#11,#15);
#203 = PRODUCT_DEFINITION_SHAPE('Placement','Placement of an item',#204
  );
#204 = NEXT_ASSEMBLY_USAGE_OCCURRENCE('40','Alumina_substrate','',#5,#39
  ,$);
#205 = PRODUCT_RELATED_PRODUCT_CATEGORY('part',$,(#41));
#206 = SHAPE_DEFINITION_REPRESENTATION(#207,#213);
#207 = PRODUCT_DEFINITION_SHAPE('','',#208);
#208 = PRODUCT_DEFINITION('design','',#209,#212);
#209 = PRODUCT_DEFINITION_FORMATION('','',#210);
#210 = PRODUCT('Resistive_overcoat_no_text','Resistive_overcoat_no_text'
  ,'',(#211));
#211 = PRODUCT_CONTEXT('',#2,'mechanical');
#212 = PRODUCT_DEFINITION_CONTEXT('part definition',#2,'design');
#213 = ADVANCED_BREP_SHAPE_REPRESENTATION('',(#11,#214),#832);
#214 = MANIFOLD_SOLID_BREP('',#215);
#215 = CLOSED_SHELL('',(#216,#256,#289,#322,#355,#388,#405,#422,#453,
    #484,#501,#532,#549,#580,#598,#616,#649,#667,#698,#716,#747,#776,
    #787,#798,#810,#821));
#216 = ADVANCED_FACE('',(#217),#251,.F.);
#217 = FACE_BOUND('',#218,.F.);
#218 = EDGE_LOOP('',(#219,#229,#237,#245));
#219 = ORIENTED_EDGE('',*,*,#220,.F.);
#220 = EDGE_CURVE('',#221,#223,#225,.T.);
#221 = VERTEX_POINT('',#222);
#222 = CARTESIAN_POINT('',(-0.5,-0.391,0.434));
#223 = VERTEX_POINT('',#224);
#224 = CARTESIAN_POINT('',(-0.5,-0.391,0.441));
#225 = LINE('',#226,#227);
#226 = CARTESIAN_POINT('',(-0.5,-0.391,0.425));
#227 = VECTOR('',#228,1.);
#228 = DIRECTION('',(0.,0.,1.));
#229 = ORIENTED_EDGE('',*,*,#230,.T.);
#230 = EDGE_CURVE('',#221,#231,#233,.T.);
#231 = VERTEX_POINT('',#232);
#232 = CARTESIAN_POINT('',(-0.5,0.391,0.434));
#233 = LINE('',#234,#235);
#234 = CARTESIAN_POINT('',(-0.5,-0.4,0.434));
#235 = VECTOR('',#236,1.);
#236 = DIRECTION('',(-0.,1.,0.));
#237 = ORIENTED_EDGE('',*,*,#238,.T.);
#238 = EDGE_CURVE('',#231,#239,#241,.T.);
#239 = VERTEX_POINT('',#240);
#240 = CARTESIAN_POINT('',(-0.5,0.391,0.441));
#241 = LINE('',#242,#243);
#242 = CARTESIAN_POINT('',(-0.5,0.391,0.425));
#243 = VECTOR('',#244,1.);
#244 = DIRECTION('',(0.,0.,1.));
#245 = ORIENTED_EDGE('',*,*,#246,.F.);
#246 = EDGE_CURVE('',#223,#239,#247,.T.);
#247 = LINE('',#248,#249);
#248 = CARTESIAN_POINT('',(-0.5,-0.4,0.441));
#249 = VECTOR('',#250,1.);
#250 = DIRECTION('',(-0.,1.,0.));
#251 = PLANE('',#252);
#252 = AXIS2_PLACEMENT_3D('',#253,#254,#255);
#253 = CARTESIAN_POINT('',(-0.5,-0.4,0.425));
#254 = DIRECTION('',(1.,0.,-0.));
#255 = DIRECTION('',(0.,0.,1.));
#256 = ADVANCED_FACE('',(#257),#284,.T.);
#257 = FACE_BOUND('',#258,.T.);
#258 = EDGE_LOOP('',(#259,#260,#269,#277));
#259 = ORIENTED_EDGE('',*,*,#220,.F.);
#260 = ORIENTED_EDGE('',*,*,#261,.T.);
#261 = EDGE_CURVE('',#221,#262,#264,.T.);
#262 = VERTEX_POINT('',#263);
#263 = CARTESIAN_POINT('',(-0.491,-0.4,0.434));
#264 = CIRCLE('',#265,9.E-03);
#265 = AXIS2_PLACEMENT_3D('',#266,#267,#268);
#266 = CARTESIAN_POINT('',(-0.491,-0.391,0.434));
#267 = DIRECTION('',(0.,0.,1.));
#268 = DIRECTION('',(-1.,0.,0.));
#269 = ORIENTED_EDGE('',*,*,#270,.T.);
#270 = EDGE_CURVE('',#262,#271,#273,.T.);
#271 = VERTEX_POINT('',#272);
#272 = CARTESIAN_POINT('',(-0.491,-0.4,0.441));
#273 = LINE('',#274,#275);
#274 = CARTESIAN_POINT('',(-0.491,-0.4,0.425));
#275 = VECTOR('',#276,1.);
#276 = DIRECTION('',(0.,0.,1.));
#277 = ORIENTED_EDGE('',*,*,#278,.F.);
#278 = EDGE_CURVE('',#223,#271,#279,.T.);
#279 = CIRCLE('',#280,9.E-03);
#280 = AXIS2_PLACEMENT_3D('',#281,#282,#283);
#281 = CARTESIAN_POINT('',(-0.491,-0.391,0.441));
#282 = DIRECTION('',(0.,0.,1.));
#283 = DIRECTION('',(-1.,0.,0.));
#284 = CYLINDRICAL_SURFACE('',#285,9.E-03);
#285 = AXIS2_PLACEMENT_3D('',#286,#287,#288);
#286 = CARTESIAN_POINT('',(-0.491,-0.391,0.425));
#287 = DIRECTION('',(0.,0.,1.));
#288 = DIRECTION('',(-1.,-0.,0.));
#289 = ADVANCED_FACE('',(#290),#317,.T.);
#290 = FACE_BOUND('',#291,.F.);
#291 = EDGE_LOOP('',(#292,#301,#309,#316));
#292 = ORIENTED_EDGE('',*,*,#293,.F.);
#293 = EDGE_CURVE('',#294,#221,#296,.T.);
#294 = VERTEX_POINT('',#295);
#295 = CARTESIAN_POINT('',(-0.491,-0.391,0.425));
#296 = CIRCLE('',#297,9.E-03);
#297 = AXIS2_PLACEMENT_3D('',#298,#299,#300);
#298 = CARTESIAN_POINT('',(-0.491,-0.391,0.434));
#299 = DIRECTION('',(0.,1.,-0.));
#300 = DIRECTION('',(-1.,0.,0.));
#301 = ORIENTED_EDGE('',*,*,#302,.T.);
#302 = EDGE_CURVE('',#294,#303,#305,.T.);
#303 = VERTEX_POINT('',#304);
#304 = CARTESIAN_POINT('',(-0.491,0.391,0.425));
#305 = LINE('',#306,#307);
#306 = CARTESIAN_POINT('',(-0.491,-0.4,0.425));
#307 = VECTOR('',#308,1.);
#308 = DIRECTION('',(-0.,1.,0.));
#309 = ORIENTED_EDGE('',*,*,#310,.T.);
#310 = EDGE_CURVE('',#303,#231,#311,.T.);
#311 = CIRCLE('',#312,9.E-03);
#312 = AXIS2_PLACEMENT_3D('',#313,#314,#315);
#313 = CARTESIAN_POINT('',(-0.491,0.391,0.434));
#314 = DIRECTION('',(0.,1.,-0.));
#315 = DIRECTION('',(-1.,0.,0.));
#316 = ORIENTED_EDGE('',*,*,#230,.F.);
#317 = CYLINDRICAL_SURFACE('',#318,9.E-03);
#318 = AXIS2_PLACEMENT_3D('',#319,#320,#321);
#319 = CARTESIAN_POINT('',(-0.491,-0.4,0.434));
#320 = DIRECTION('',(-0.,1.,0.));
#321 = DIRECTION('',(-1.,-0.,0.));
#322 = ADVANCED_FACE('',(#323),#350,.T.);
#323 = FACE_BOUND('',#324,.T.);
#324 = EDGE_LOOP('',(#325,#334,#342,#349));
#325 = ORIENTED_EDGE('',*,*,#326,.F.);
#326 = EDGE_CURVE('',#327,#223,#329,.T.);
#327 = VERTEX_POINT('',#328);
#328 = CARTESIAN_POINT('',(-0.491,-0.391,0.45));
#329 = CIRCLE('',#330,9.E-03);
#330 = AXIS2_PLACEMENT_3D('',#331,#332,#333);
#331 = CARTESIAN_POINT('',(-0.491,-0.391,0.441));
#332 = DIRECTION('',(0.,-1.,0.));
#333 = DIRECTION('',(-1.,0.,0.));
#334 = ORIENTED_EDGE('',*,*,#335,.T.);
#335 = EDGE_CURVE('',#327,#336,#338,.T.);
#336 = VERTEX_POINT('',#337);
#337 = CARTESIAN_POINT('',(-0.491,0.391,0.45));
#338 = LINE('',#339,#340);
#339 = CARTESIAN_POINT('',(-0.491,-0.4,0.45));
#340 = VECTOR('',#341,1.);
#341 = DIRECTION('',(-0.,1.,0.));
#342 = ORIENTED_EDGE('',*,*,#343,.F.);
#343 = EDGE_CURVE('',#239,#336,#344,.T.);
#344 = CIRCLE('',#345,9.E-03);
#345 = AXIS2_PLACEMENT_3D('',#346,#347,#348);
#346 = CARTESIAN_POINT('',(-0.491,0.391,0.441));
#347 = DIRECTION('',(-0.,1.,0.));
#348 = DIRECTION('',(-1.,-0.,0.));
#349 = ORIENTED_EDGE('',*,*,#246,.F.);
#350 = CYLINDRICAL_SURFACE('',#351,9.E-03);
#351 = AXIS2_PLACEMENT_3D('',#352,#353,#354);
#352 = CARTESIAN_POINT('',(-0.491,-0.4,0.441));
#353 = DIRECTION('',(-0.,1.,0.));
#354 = DIRECTION('',(-1.,-0.,0.));
#355 = ADVANCED_FACE('',(#356),#383,.T.);
#356 = FACE_BOUND('',#357,.F.);
#357 = EDGE_LOOP('',(#358,#359,#368,#376));
#358 = ORIENTED_EDGE('',*,*,#238,.F.);
#359 = ORIENTED_EDGE('',*,*,#360,.T.);
#360 = EDGE_CURVE('',#231,#361,#363,.T.);
#361 = VERTEX_POINT('',#362);
#362 = CARTESIAN_POINT('',(-0.491,0.4,0.434));
#363 = CIRCLE('',#364,9.E-03);
#364 = AXIS2_PLACEMENT_3D('',#365,#366,#367);
#365 = CARTESIAN_POINT('',(-0.491,0.391,0.434));
#366 = DIRECTION('',(-0.,0.,-1.));
#367 = DIRECTION('',(-1.,0.,0.));
#368 = ORIENTED_EDGE('',*,*,#369,.T.);
#369 = EDGE_CURVE('',#361,#370,#372,.T.);
#370 = VERTEX_POINT('',#371);
#371 = CARTESIAN_POINT('',(-0.491,0.4,0.441));
#372 = LINE('',#373,#374);
#373 = CARTESIAN_POINT('',(-0.491,0.4,0.425));
#374 = VECTOR('',#375,1.);
#375 = DIRECTION('',(0.,0.,1.));
#376 = ORIENTED_EDGE('',*,*,#377,.T.);
#377 = EDGE_CURVE('',#370,#239,#378,.T.);
#378 = CIRCLE('',#379,9.E-03);
#379 = AXIS2_PLACEMENT_3D('',#380,#381,#382);
#380 = CARTESIAN_POINT('',(-0.491,0.391,0.441));
#381 = DIRECTION('',(0.,0.,1.));
#382 = DIRECTION('',(-1.,-0.,0.));
#383 = CYLINDRICAL_SURFACE('',#384,9.E-03);
#384 = AXIS2_PLACEMENT_3D('',#385,#386,#387);
#385 = CARTESIAN_POINT('',(-0.491,0.391,0.425));
#386 = DIRECTION('',(0.,0.,1.));
#387 = DIRECTION('',(-1.,-0.,0.));
#388 = ADVANCED_FACE('',(#389),#400,.T.);
#389 = FACE_BOUND('',#390,.T.);
#390 = EDGE_LOOP('',(#391,#392,#399));
#391 = ORIENTED_EDGE('',*,*,#293,.F.);
#392 = ORIENTED_EDGE('',*,*,#393,.T.);
#393 = EDGE_CURVE('',#294,#262,#394,.T.);
#394 = CIRCLE('',#395,9.E-03);
#395 = AXIS2_PLACEMENT_3D('',#396,#397,#398);
#396 = CARTESIAN_POINT('',(-0.491,-0.391,0.434));
#397 = DIRECTION('',(-1.,6.123233995737E-17,0.));
#398 = DIRECTION('',(-6.123233995737E-17,-1.,0.));
#399 = ORIENTED_EDGE('',*,*,#261,.F.);
#400 = SPHERICAL_SURFACE('',#401,9.E-03);
#401 = AXIS2_PLACEMENT_3D('',#402,#403,#404);
#402 = CARTESIAN_POINT('',(-0.491,-0.391,0.434));
#403 = DIRECTION('',(0.,0.,1.));
#404 = DIRECTION('',(-1.,0.,0.));
#405 = ADVANCED_FACE('',(#406),#417,.T.);
#406 = FACE_BOUND('',#407,.F.);
#407 = EDGE_LOOP('',(#408,#409,#416));
#408 = ORIENTED_EDGE('',*,*,#326,.F.);
#409 = ORIENTED_EDGE('',*,*,#410,.T.);
#410 = EDGE_CURVE('',#327,#271,#411,.T.);
#411 = CIRCLE('',#412,9.E-03);
#412 = AXIS2_PLACEMENT_3D('',#413,#414,#415);
#413 = CARTESIAN_POINT('',(-0.491,-0.391,0.441));
#414 = DIRECTION('',(1.,-6.123233995737E-17,0.));
#415 = DIRECTION('',(-6.123233995737E-17,-1.,0.));
#416 = ORIENTED_EDGE('',*,*,#278,.F.);
#417 = SPHERICAL_SURFACE('',#418,9.E-03);
#418 = AXIS2_PLACEMENT_3D('',#419,#420,#421);
#419 = CARTESIAN_POINT('',(-0.491,-0.391,0.441));
#420 = DIRECTION('',(-0.,-0.,-1.));
#421 = DIRECTION('',(-1.,0.,0.));
#422 = ADVANCED_FACE('',(#423),#448,.F.);
#423 = FACE_BOUND('',#424,.F.);
#424 = EDGE_LOOP('',(#425,#426,#434,#442));
#425 = ORIENTED_EDGE('',*,*,#270,.T.);
#426 = ORIENTED_EDGE('',*,*,#427,.T.);
#427 = EDGE_CURVE('',#271,#428,#430,.T.);
#428 = VERTEX_POINT('',#429);
#429 = CARTESIAN_POINT('',(0.491,-0.4,0.441));
#430 = LINE('',#431,#432);
#431 = CARTESIAN_POINT('',(-0.5,-0.4,0.441));
#432 = VECTOR('',#433,1.);
#433 = DIRECTION('',(1.,0.,-0.));
#434 = ORIENTED_EDGE('',*,*,#435,.F.);
#435 = EDGE_CURVE('',#436,#428,#438,.T.);
#436 = VERTEX_POINT('',#437);
#437 = CARTESIAN_POINT('',(0.491,-0.4,0.434));
#438 = LINE('',#439,#440);
#439 = CARTESIAN_POINT('',(0.491,-0.4,0.425));
#440 = VECTOR('',#441,1.);
#441 = DIRECTION('',(0.,0.,1.));
#442 = ORIENTED_EDGE('',*,*,#443,.F.);
#443 = EDGE_CURVE('',#262,#436,#444,.T.);
#444 = LINE('',#445,#446);
#445 = CARTESIAN_POINT('',(-0.5,-0.4,0.434));
#446 = VECTOR('',#447,1.);
#447 = DIRECTION('',(1.,0.,-0.));
#448 = PLANE('',#449);
#449 = AXIS2_PLACEMENT_3D('',#450,#451,#452);
#450 = CARTESIAN_POINT('',(-0.5,-0.4,0.425));
#451 = DIRECTION('',(-0.,1.,0.));
#452 = DIRECTION('',(0.,0.,1.));
#453 = ADVANCED_FACE('',(#454),#479,.F.);
#454 = FACE_BOUND('',#455,.F.);
#455 = EDGE_LOOP('',(#456,#457,#465,#473));
#456 = ORIENTED_EDGE('',*,*,#302,.F.);
#457 = ORIENTED_EDGE('',*,*,#458,.T.);
#458 = EDGE_CURVE('',#294,#459,#461,.T.);
#459 = VERTEX_POINT('',#460);
#460 = CARTESIAN_POINT('',(0.491,-0.391,0.425));
#461 = LINE('',#462,#463);
#462 = CARTESIAN_POINT('',(-0.5,-0.391,0.425));
#463 = VECTOR('',#464,1.);
#464 = DIRECTION('',(1.,0.,-0.));
#465 = ORIENTED_EDGE('',*,*,#466,.T.);
#466 = EDGE_CURVE('',#459,#467,#469,.T.);
#467 = VERTEX_POINT('',#468);
#468 = CARTESIAN_POINT('',(0.491,0.391,0.425));
#469 = LINE('',#470,#471);
#470 = CARTESIAN_POINT('',(0.491,-0.4,0.425));
#471 = VECTOR('',#472,1.);
#472 = DIRECTION('',(-0.,1.,0.));
#473 = ORIENTED_EDGE('',*,*,#474,.F.);
#474 = EDGE_CURVE('',#303,#467,#475,.T.);
#475 = LINE('',#476,#477);
#476 = CARTESIAN_POINT('',(-0.5,0.391,0.425));
#477 = VECTOR('',#478,1.);
#478 = DIRECTION('',(1.,0.,-0.));
#479 = PLANE('',#480);
#480 = AXIS2_PLACEMENT_3D('',#481,#482,#483);
#481 = CARTESIAN_POINT('',(-0.5,-0.4,0.425));
#482 = DIRECTION('',(0.,0.,1.));
#483 = DIRECTION('',(1.,0.,-0.));
#484 = ADVANCED_FACE('',(#485),#496,.T.);
#485 = FACE_BOUND('',#486,.F.);
#486 = EDGE_LOOP('',(#487,#488,#495));
#487 = ORIENTED_EDGE('',*,*,#310,.F.);
#488 = ORIENTED_EDGE('',*,*,#489,.T.);
#489 = EDGE_CURVE('',#303,#361,#490,.T.);
#490 = CIRCLE('',#491,9.E-03);
#491 = AXIS2_PLACEMENT_3D('',#492,#493,#494);
#492 = CARTESIAN_POINT('',(-0.491,0.391,0.434));
#493 = DIRECTION('',(1.,6.123233995737E-17,-0.));
#494 = DIRECTION('',(-6.123233995737E-17,1.,0.));
#495 = ORIENTED_EDGE('',*,*,#360,.F.);
#496 = SPHERICAL_SURFACE('',#497,9.E-03);
#497 = AXIS2_PLACEMENT_3D('',#498,#499,#500);
#498 = CARTESIAN_POINT('',(-0.491,0.391,0.434));
#499 = DIRECTION('',(0.,0.,1.));
#500 = DIRECTION('',(-1.,0.,0.));
#501 = ADVANCED_FACE('',(#502),#527,.T.);
#502 = FACE_BOUND('',#503,.T.);
#503 = EDGE_LOOP('',(#504,#505,#513,#521));
#504 = ORIENTED_EDGE('',*,*,#335,.F.);
#505 = ORIENTED_EDGE('',*,*,#506,.T.);
#506 = EDGE_CURVE('',#327,#507,#509,.T.);
#507 = VERTEX_POINT('',#508);
#508 = CARTESIAN_POINT('',(0.491,-0.391,0.45));
#509 = LINE('',#510,#511);
#510 = CARTESIAN_POINT('',(-0.5,-0.391,0.45));
#511 = VECTOR('',#512,1.);
#512 = DIRECTION('',(1.,0.,-0.));
#513 = ORIENTED_EDGE('',*,*,#514,.T.);
#514 = EDGE_CURVE('',#507,#515,#517,.T.);
#515 = VERTEX_POINT('',#516);
#516 = CARTESIAN_POINT('',(0.491,0.391,0.45));
#517 = LINE('',#518,#519);
#518 = CARTESIAN_POINT('',(0.491,-0.4,0.45));
#519 = VECTOR('',#520,1.);
#520 = DIRECTION('',(-0.,1.,0.));
#521 = ORIENTED_EDGE('',*,*,#522,.F.);
#522 = EDGE_CURVE('',#336,#515,#523,.T.);
#523 = LINE('',#524,#525);
#524 = CARTESIAN_POINT('',(-0.5,0.391,0.45));
#525 = VECTOR('',#526,1.);
#526 = DIRECTION('',(1.,0.,-0.));
#527 = PLANE('',#528);
#528 = AXIS2_PLACEMENT_3D('',#529,#530,#531);
#529 = CARTESIAN_POINT('',(-0.5,-0.4,0.45));
#530 = DIRECTION('',(0.,0.,1.));
#531 = DIRECTION('',(1.,0.,-0.));
#532 = ADVANCED_FACE('',(#533),#544,.T.);
#533 = FACE_BOUND('',#534,.F.);
#534 = EDGE_LOOP('',(#535,#536,#543));
#535 = ORIENTED_EDGE('',*,*,#377,.F.);
#536 = ORIENTED_EDGE('',*,*,#537,.T.);
#537 = EDGE_CURVE('',#370,#336,#538,.T.);
#538 = CIRCLE('',#539,9.E-03);
#539 = AXIS2_PLACEMENT_3D('',#540,#541,#542);
#540 = CARTESIAN_POINT('',(-0.491,0.391,0.441));
#541 = DIRECTION('',(1.,0.,6.123233995737E-17));
#542 = DIRECTION('',(-6.123233995737E-17,-0.,1.));
#543 = ORIENTED_EDGE('',*,*,#343,.F.);
#544 = SPHERICAL_SURFACE('',#545,9.E-03);
#545 = AXIS2_PLACEMENT_3D('',#546,#547,#548);
#546 = CARTESIAN_POINT('',(-0.491,0.391,0.441));
#547 = DIRECTION('',(0.,-1.,-0.));
#548 = DIRECTION('',(-1.,-0.,0.));
#549 = ADVANCED_FACE('',(#550),#575,.T.);
#550 = FACE_BOUND('',#551,.T.);
#551 = EDGE_LOOP('',(#552,#553,#561,#569));
#552 = ORIENTED_EDGE('',*,*,#369,.T.);
#553 = ORIENTED_EDGE('',*,*,#554,.T.);
#554 = EDGE_CURVE('',#370,#555,#557,.T.);
#555 = VERTEX_POINT('',#556);
#556 = CARTESIAN_POINT('',(0.491,0.4,0.441));
#557 = LINE('',#558,#559);
#558 = CARTESIAN_POINT('',(-0.5,0.4,0.441));
#559 = VECTOR('',#560,1.);
#560 = DIRECTION('',(1.,0.,-0.));
#561 = ORIENTED_EDGE('',*,*,#562,.F.);
#562 = EDGE_CURVE('',#563,#555,#565,.T.);
#563 = VERTEX_POINT('',#564);
#564 = CARTESIAN_POINT('',(0.491,0.4,0.434));
#565 = LINE('',#566,#567);
#566 = CARTESIAN_POINT('',(0.491,0.4,0.425));
#567 = VECTOR('',#568,1.);
#568 = DIRECTION('',(0.,0.,1.));
#569 = ORIENTED_EDGE('',*,*,#570,.F.);
#570 = EDGE_CURVE('',#361,#563,#571,.T.);
#571 = LINE('',#572,#573);
#572 = CARTESIAN_POINT('',(-0.5,0.4,0.434));
#573 = VECTOR('',#574,1.);
#574 = DIRECTION('',(1.,0.,-0.));
#575 = PLANE('',#576);
#576 = AXIS2_PLACEMENT_3D('',#577,#578,#579);
#577 = CARTESIAN_POINT('',(-0.5,0.4,0.425));
#578 = DIRECTION('',(-0.,1.,0.));
#579 = DIRECTION('',(0.,0.,1.));
#580 = ADVANCED_FACE('',(#581),#593,.T.);
#581 = FACE_BOUND('',#582,.T.);
#582 = EDGE_LOOP('',(#583,#584,#585,#592));
#583 = ORIENTED_EDGE('',*,*,#393,.F.);
#584 = ORIENTED_EDGE('',*,*,#458,.T.);
#585 = ORIENTED_EDGE('',*,*,#586,.T.);
#586 = EDGE_CURVE('',#459,#436,#587,.T.);
#587 = CIRCLE('',#588,9.E-03);
#588 = AXIS2_PLACEMENT_3D('',#589,#590,#591);
#589 = CARTESIAN_POINT('',(0.491,-0.391,0.434));
#590 = DIRECTION('',(-1.,-6.123233995737E-17,0.));
#591 = DIRECTION('',(6.123233995737E-17,-1.,-0.));
#592 = ORIENTED_EDGE('',*,*,#443,.F.);
#593 = CYLINDRICAL_SURFACE('',#594,9.E-03);
#594 = AXIS2_PLACEMENT_3D('',#595,#596,#597);
#595 = CARTESIAN_POINT('',(-0.5,-0.391,0.434));
#596 = DIRECTION('',(1.,0.,-0.));
#597 = DIRECTION('',(0.,-1.,0.));
#598 = ADVANCED_FACE('',(#599),#611,.T.);
#599 = FACE_BOUND('',#600,.F.);
#600 = EDGE_LOOP('',(#601,#602,#603,#610));
#601 = ORIENTED_EDGE('',*,*,#410,.F.);
#602 = ORIENTED_EDGE('',*,*,#506,.T.);
#603 = ORIENTED_EDGE('',*,*,#604,.T.);
#604 = EDGE_CURVE('',#507,#428,#605,.T.);
#605 = CIRCLE('',#606,9.E-03);
#606 = AXIS2_PLACEMENT_3D('',#607,#608,#609);
#607 = CARTESIAN_POINT('',(0.491,-0.391,0.441));
#608 = DIRECTION('',(1.,6.123233995737E-17,0.));
#609 = DIRECTION('',(6.123233995737E-17,-1.,0.));
#610 = ORIENTED_EDGE('',*,*,#427,.F.);
#611 = CYLINDRICAL_SURFACE('',#612,9.E-03);
#612 = AXIS2_PLACEMENT_3D('',#613,#614,#615);
#613 = CARTESIAN_POINT('',(-0.5,-0.391,0.441));
#614 = DIRECTION('',(1.,0.,-0.));
#615 = DIRECTION('',(0.,-1.,0.));
#616 = ADVANCED_FACE('',(#617),#644,.T.);
#617 = FACE_BOUND('',#618,.F.);
#618 = EDGE_LOOP('',(#619,#629,#636,#637));
#619 = ORIENTED_EDGE('',*,*,#620,.F.);
#620 = EDGE_CURVE('',#621,#623,#625,.T.);
#621 = VERTEX_POINT('',#622);
#622 = CARTESIAN_POINT('',(0.5,-0.391,0.434));
#623 = VERTEX_POINT('',#624);
#624 = CARTESIAN_POINT('',(0.5,-0.391,0.441));
#625 = LINE('',#626,#627);
#626 = CARTESIAN_POINT('',(0.5,-0.391,0.425));
#627 = VECTOR('',#628,1.);
#628 = DIRECTION('',(0.,0.,1.));
#629 = ORIENTED_EDGE('',*,*,#630,.T.);
#630 = EDGE_CURVE('',#621,#436,#631,.T.);
#631 = CIRCLE('',#632,9.E-03);
#632 = AXIS2_PLACEMENT_3D('',#633,#634,#635);
#633 = CARTESIAN_POINT('',(0.491,-0.391,0.434));
#634 = DIRECTION('',(0.,-0.,-1.));
#635 = DIRECTION('',(1.,0.,-0.));
#636 = ORIENTED_EDGE('',*,*,#435,.T.);
#637 = ORIENTED_EDGE('',*,*,#638,.F.);
#638 = EDGE_CURVE('',#623,#428,#639,.T.);
#639 = CIRCLE('',#640,9.E-03);
#640 = AXIS2_PLACEMENT_3D('',#641,#642,#643);
#641 = CARTESIAN_POINT('',(0.491,-0.391,0.441));
#642 = DIRECTION('',(0.,0.,-1.));
#643 = DIRECTION('',(1.,0.,0.));
#644 = CYLINDRICAL_SURFACE('',#645,9.E-03);
#645 = AXIS2_PLACEMENT_3D('',#646,#647,#648);
#646 = CARTESIAN_POINT('',(0.491,-0.391,0.425));
#647 = DIRECTION('',(0.,0.,1.));
#648 = DIRECTION('',(1.,0.,-0.));
#649 = ADVANCED_FACE('',(#650),#662,.T.);
#650 = FACE_BOUND('',#651,.F.);
#651 = EDGE_LOOP('',(#652,#653,#654,#661));
#652 = ORIENTED_EDGE('',*,*,#489,.F.);
#653 = ORIENTED_EDGE('',*,*,#474,.T.);
#654 = ORIENTED_EDGE('',*,*,#655,.T.);
#655 = EDGE_CURVE('',#467,#563,#656,.T.);
#656 = CIRCLE('',#657,9.E-03);
#657 = AXIS2_PLACEMENT_3D('',#658,#659,#660);
#658 = CARTESIAN_POINT('',(0.491,0.391,0.434));
#659 = DIRECTION('',(1.,-6.123233995737E-17,0.));
#660 = DIRECTION('',(6.123233995737E-17,1.,0.));
#661 = ORIENTED_EDGE('',*,*,#570,.F.);
#662 = CYLINDRICAL_SURFACE('',#663,9.E-03);
#663 = AXIS2_PLACEMENT_3D('',#664,#665,#666);
#664 = CARTESIAN_POINT('',(-0.5,0.391,0.434));
#665 = DIRECTION('',(1.,0.,-0.));
#666 = DIRECTION('',(0.,1.,0.));
#667 = ADVANCED_FACE('',(#668),#693,.T.);
#668 = FACE_BOUND('',#669,.T.);
#669 = EDGE_LOOP('',(#670,#677,#678,#687));
#670 = ORIENTED_EDGE('',*,*,#671,.F.);
#671 = EDGE_CURVE('',#459,#621,#672,.T.);
#672 = CIRCLE('',#673,9.E-03);
#673 = AXIS2_PLACEMENT_3D('',#674,#675,#676);
#674 = CARTESIAN_POINT('',(0.491,-0.391,0.434));
#675 = DIRECTION('',(0.,-1.,0.));
#676 = DIRECTION('',(1.,0.,0.));
#677 = ORIENTED_EDGE('',*,*,#466,.T.);
#678 = ORIENTED_EDGE('',*,*,#679,.T.);
#679 = EDGE_CURVE('',#467,#680,#682,.T.);
#680 = VERTEX_POINT('',#681);
#681 = CARTESIAN_POINT('',(0.5,0.391,0.434));
#682 = CIRCLE('',#683,9.E-03);
#683 = AXIS2_PLACEMENT_3D('',#684,#685,#686);
#684 = CARTESIAN_POINT('',(0.491,0.391,0.434));
#685 = DIRECTION('',(0.,-1.,0.));
#686 = DIRECTION('',(1.,0.,0.));
#687 = ORIENTED_EDGE('',*,*,#688,.F.);
#688 = EDGE_CURVE('',#621,#680,#689,.T.);
#689 = LINE('',#690,#691);
#690 = CARTESIAN_POINT('',(0.5,-0.4,0.434));
#691 = VECTOR('',#692,1.);
#692 = DIRECTION('',(-0.,1.,0.));
#693 = CYLINDRICAL_SURFACE('',#694,9.E-03);
#694 = AXIS2_PLACEMENT_3D('',#695,#696,#697);
#695 = CARTESIAN_POINT('',(0.491,-0.4,0.434));
#696 = DIRECTION('',(-0.,1.,0.));
#697 = DIRECTION('',(1.,0.,-0.));
#698 = ADVANCED_FACE('',(#699),#711,.T.);
#699 = FACE_BOUND('',#700,.T.);
#700 = EDGE_LOOP('',(#701,#702,#703,#710));
#701 = ORIENTED_EDGE('',*,*,#537,.T.);
#702 = ORIENTED_EDGE('',*,*,#522,.T.);
#703 = ORIENTED_EDGE('',*,*,#704,.F.);
#704 = EDGE_CURVE('',#555,#515,#705,.T.);
#705 = CIRCLE('',#706,9.E-03);
#706 = AXIS2_PLACEMENT_3D('',#707,#708,#709);
#707 = CARTESIAN_POINT('',(0.491,0.391,0.441));
#708 = DIRECTION('',(1.,0.,-6.123233995737E-17));
#709 = DIRECTION('',(6.123233995737E-17,0.,1.));
#710 = ORIENTED_EDGE('',*,*,#554,.F.);
#711 = CYLINDRICAL_SURFACE('',#712,9.E-03);
#712 = AXIS2_PLACEMENT_3D('',#713,#714,#715);
#713 = CARTESIAN_POINT('',(-0.5,0.391,0.441));
#714 = DIRECTION('',(1.,0.,-0.));
#715 = DIRECTION('',(0.,1.,0.));
#716 = ADVANCED_FACE('',(#717),#742,.T.);
#717 = FACE_BOUND('',#718,.F.);
#718 = EDGE_LOOP('',(#719,#726,#727,#736));
#719 = ORIENTED_EDGE('',*,*,#720,.F.);
#720 = EDGE_CURVE('',#507,#623,#721,.T.);
#721 = CIRCLE('',#722,9.E-03);
#722 = AXIS2_PLACEMENT_3D('',#723,#724,#725);
#723 = CARTESIAN_POINT('',(0.491,-0.391,0.441));
#724 = DIRECTION('',(-0.,1.,0.));
#725 = DIRECTION('',(1.,0.,0.));
#726 = ORIENTED_EDGE('',*,*,#514,.T.);
#727 = ORIENTED_EDGE('',*,*,#728,.F.);
#728 = EDGE_CURVE('',#729,#515,#731,.T.);
#729 = VERTEX_POINT('',#730);
#730 = CARTESIAN_POINT('',(0.5,0.391,0.441));
#731 = CIRCLE('',#732,9.E-03);
#732 = AXIS2_PLACEMENT_3D('',#733,#734,#735);
#733 = CARTESIAN_POINT('',(0.491,0.391,0.441));
#734 = DIRECTION('',(0.,-1.,-0.));
#735 = DIRECTION('',(1.,0.,0.));
#736 = ORIENTED_EDGE('',*,*,#737,.F.);
#737 = EDGE_CURVE('',#623,#729,#738,.T.);
#738 = LINE('',#739,#740);
#739 = CARTESIAN_POINT('',(0.5,-0.4,0.441));
#740 = VECTOR('',#741,1.);
#741 = DIRECTION('',(-0.,1.,0.));
#742 = CYLINDRICAL_SURFACE('',#743,9.E-03);
#743 = AXIS2_PLACEMENT_3D('',#744,#745,#746);
#744 = CARTESIAN_POINT('',(0.491,-0.4,0.441));
#745 = DIRECTION('',(-0.,1.,0.));
#746 = DIRECTION('',(1.,0.,-0.));
#747 = ADVANCED_FACE('',(#748),#771,.T.);
#748 = FACE_BOUND('',#749,.T.);
#749 = EDGE_LOOP('',(#750,#756,#763,#764));
#750 = ORIENTED_EDGE('',*,*,#751,.F.);
#751 = EDGE_CURVE('',#680,#729,#752,.T.);
#752 = LINE('',#753,#754);
#753 = CARTESIAN_POINT('',(0.5,0.391,0.425));
#754 = VECTOR('',#755,1.);
#755 = DIRECTION('',(0.,0.,1.));
#756 = ORIENTED_EDGE('',*,*,#757,.T.);
#757 = EDGE_CURVE('',#680,#563,#758,.T.);
#758 = CIRCLE('',#759,9.E-03);
#759 = AXIS2_PLACEMENT_3D('',#760,#761,#762);
#760 = CARTESIAN_POINT('',(0.491,0.391,0.434));
#761 = DIRECTION('',(0.,0.,1.));
#762 = DIRECTION('',(1.,0.,-0.));
#763 = ORIENTED_EDGE('',*,*,#562,.T.);
#764 = ORIENTED_EDGE('',*,*,#765,.T.);
#765 = EDGE_CURVE('',#555,#729,#766,.T.);
#766 = CIRCLE('',#767,9.E-03);
#767 = AXIS2_PLACEMENT_3D('',#768,#769,#770);
#768 = CARTESIAN_POINT('',(0.491,0.391,0.441));
#769 = DIRECTION('',(0.,0.,-1.));
#770 = DIRECTION('',(1.,0.,0.));
#771 = CYLINDRICAL_SURFACE('',#772,9.E-03);
#772 = AXIS2_PLACEMENT_3D('',#773,#774,#775);
#773 = CARTESIAN_POINT('',(0.491,0.391,0.425));
#774 = DIRECTION('',(0.,0.,1.));
#775 = DIRECTION('',(1.,0.,-0.));
#776 = ADVANCED_FACE('',(#777),#782,.T.);
#777 = FACE_BOUND('',#778,.F.);
#778 = EDGE_LOOP('',(#779,#780,#781));
#779 = ORIENTED_EDGE('',*,*,#671,.F.);
#780 = ORIENTED_EDGE('',*,*,#586,.T.);
#781 = ORIENTED_EDGE('',*,*,#630,.F.);
#782 = SPHERICAL_SURFACE('',#783,9.E-03);
#783 = AXIS2_PLACEMENT_3D('',#784,#785,#786);
#784 = CARTESIAN_POINT('',(0.491,-0.391,0.434));
#785 = DIRECTION('',(0.,0.,1.));
#786 = DIRECTION('',(1.,0.,-0.));
#787 = ADVANCED_FACE('',(#788),#793,.T.);
#788 = FACE_BOUND('',#789,.T.);
#789 = EDGE_LOOP('',(#790,#791,#792));
#790 = ORIENTED_EDGE('',*,*,#720,.F.);
#791 = ORIENTED_EDGE('',*,*,#604,.T.);
#792 = ORIENTED_EDGE('',*,*,#638,.F.);
#793 = SPHERICAL_SURFACE('',#794,9.E-03);
#794 = AXIS2_PLACEMENT_3D('',#795,#796,#797);
#795 = CARTESIAN_POINT('',(0.491,-0.391,0.441));
#796 = DIRECTION('',(-0.,-0.,-1.));
#797 = DIRECTION('',(1.,0.,0.));
#798 = ADVANCED_FACE('',(#799),#805,.T.);
#799 = FACE_BOUND('',#800,.T.);
#800 = EDGE_LOOP('',(#801,#802,#803,#804));
#801 = ORIENTED_EDGE('',*,*,#620,.F.);
#802 = ORIENTED_EDGE('',*,*,#688,.T.);
#803 = ORIENTED_EDGE('',*,*,#751,.T.);
#804 = ORIENTED_EDGE('',*,*,#737,.F.);
#805 = PLANE('',#806);
#806 = AXIS2_PLACEMENT_3D('',#807,#808,#809);
#807 = CARTESIAN_POINT('',(0.5,-0.4,0.425));
#808 = DIRECTION('',(1.,0.,-0.));
#809 = DIRECTION('',(0.,0.,1.));
#810 = ADVANCED_FACE('',(#811),#816,.T.);
#811 = FACE_BOUND('',#812,.T.);
#812 = EDGE_LOOP('',(#813,#814,#815));
#813 = ORIENTED_EDGE('',*,*,#679,.F.);
#814 = ORIENTED_EDGE('',*,*,#655,.T.);
#815 = ORIENTED_EDGE('',*,*,#757,.F.);
#816 = SPHERICAL_SURFACE('',#817,9.E-03);
#817 = AXIS2_PLACEMENT_3D('',#818,#819,#820);
#818 = CARTESIAN_POINT('',(0.491,0.391,0.434));
#819 = DIRECTION('',(0.,0.,1.));
#820 = DIRECTION('',(1.,0.,-0.));
#821 = ADVANCED_FACE('',(#822),#827,.T.);
#822 = FACE_BOUND('',#823,.T.);
#823 = EDGE_LOOP('',(#824,#825,#826));
#824 = ORIENTED_EDGE('',*,*,#765,.F.);
#825 = ORIENTED_EDGE('',*,*,#704,.T.);
#826 = ORIENTED_EDGE('',*,*,#728,.F.);
#827 = SPHERICAL_SURFACE('',#828,9.E-03);
#828 = AXIS2_PLACEMENT_3D('',#829,#830,#831);
#829 = CARTESIAN_POINT('',(0.491,0.391,0.441));
#830 = DIRECTION('',(0.,-1.,-0.));
#831 = DIRECTION('',(1.,0.,0.));
#832 = ( GEOMETRIC_REPRESENTATION_CONTEXT(3) 
GLOBAL_UNCERTAINTY_ASSIGNED_CONTEXT((#836)) GLOBAL_UNIT_ASSIGNED_CONTEXT
((#833,#834,#835)) REPRESENTATION_CONTEXT('Context #1',
  '3D Context with UNIT and UNCERTAINTY') );
#833 = ( LENGTH_UNIT() NAMED_UNIT(*) SI_UNIT(.MILLI.,.METRE.) );
#834 = ( NAMED_UNIT(*) PLANE_ANGLE_UNIT() SI_UNIT($,.RADIAN.) );
#835 = ( NAMED_UNIT(*) SI_UNIT($,.STERADIAN.) SOLID_ANGLE_UNIT() );
#836 = UNCERTAINTY_MEASURE_WITH_UNIT(LENGTH_MEASURE(1.E-07),#833,
  'distance_accuracy_value','confusion accuracy');
#837 = CONTEXT_DEPENDENT_SHAPE_REPRESENTATION(#838,#840);
#838 = ( REPRESENTATION_RELATIONSHIP('','',#213,#10) 
REPRESENTATION_RELATIONSHIP_WITH_TRANSFORMATION(#839) 
SHAPE_REPRESENTATION_RELATIONSHIP() );
#839 = ITEM_DEFINED_TRANSFORMATION('','',#11,#19);
#840 = PRODUCT_DEFINITION_SHAPE('Placement','Placement of an item',#841
  );
#841 = NEXT_ASSEMBLY_USAGE_OCCURRENCE('41','Resistive_overcoat_no_text',
  '',#5,#208,$);
#842 = PRODUCT_RELATED_PRODUCT_CATEGORY('part',$,(#210));
#843 = SHAPE_DEFINITION_REPRESENTATION(#844,#850);
#844 = PRODUCT_DEFINITION_SHAPE('','',#845);
#845 = PRODUCT_DEFINITION('design','',#846,#849);
#846 = PRODUCT_DEFINITION_FORMATION('','',#847);
#847 = PRODUCT('Termination_1','Termination_1','',(#848));
#848 = PRODUCT_CONTEXT('',#2,'mechanical');
#849 = PRODUCT_DEFINITION_CONTEXT('part definition',#2,'design');
#850 = ADVANCED_BREP_SHAPE_REPRESENTATION('',(#11,#851),#1133);
#851 = MANIFOLD_SOLID_BREP('',#852);
#852 = CLOSED_SHELL('',(#853,#893,#956,#987,#1011,#1035,#1059,#1083,
    #1109,#1121));
#853 = ADVANCED_FACE('',(#854),#888,.F.);
#854 = FACE_BOUND('',#855,.T.);
#855 = EDGE_LOOP('',(#856,#866,#874,#882));
#856 = ORIENTED_EDGE('',*,*,#857,.T.);
#857 = EDGE_CURVE('',#858,#860,#862,.T.);
#858 = VERTEX_POINT('',#859);
#859 = CARTESIAN_POINT('',(-0.8,-0.4,0.));
#860 = VERTEX_POINT('',#861);
#861 = CARTESIAN_POINT('',(-0.8,-0.4,0.45));
#862 = LINE('',#863,#864);
#863 = CARTESIAN_POINT('',(-0.8,-0.4,0.));
#864 = VECTOR('',#865,1.);
#865 = DIRECTION('',(0.,0.,1.));
#866 = ORIENTED_EDGE('',*,*,#867,.T.);
#867 = EDGE_CURVE('',#860,#868,#870,.T.);
#868 = VERTEX_POINT('',#869);
#869 = CARTESIAN_POINT('',(-0.8,0.4,0.45));
#870 = LINE('',#871,#872);
#871 = CARTESIAN_POINT('',(-0.8,-0.4,0.45));
#872 = VECTOR('',#873,1.);
#873 = DIRECTION('',(-0.,1.,0.));
#874 = ORIENTED_EDGE('',*,*,#875,.F.);
#875 = EDGE_CURVE('',#876,#868,#878,.T.);
#876 = VERTEX_POINT('',#877);
#877 = CARTESIAN_POINT('',(-0.8,0.4,0.));
#878 = LINE('',#879,#880);
#879 = CARTESIAN_POINT('',(-0.8,0.4,0.));
#880 = VECTOR('',#881,1.);
#881 = DIRECTION('',(0.,0.,1.));
#882 = ORIENTED_EDGE('',*,*,#883,.F.);
#883 = EDGE_CURVE('',#858,#876,#884,.T.);
#884 = LINE('',#885,#886);
#885 = CARTESIAN_POINT('',(-0.8,-0.4,0.));
#886 = VECTOR('',#887,1.);
#887 = DIRECTION('',(-0.,1.,0.));
#888 = PLANE('',#889);
#889 = AXIS2_PLACEMENT_3D('',#890,#891,#892);
#890 = CARTESIAN_POINT('',(-0.8,-0.4,0.));
#891 = DIRECTION('',(1.,0.,-0.));
#892 = DIRECTION('',(0.,0.,1.));
#893 = ADVANCED_FACE('',(#894),#951,.T.);
#894 = FACE_BOUND('',#895,.T.);
#895 = EDGE_LOOP('',(#896,#904,#912,#920,#928,#936,#944,#950));
#896 = ORIENTED_EDGE('',*,*,#897,.T.);
#897 = EDGE_CURVE('',#858,#898,#900,.T.);
#898 = VERTEX_POINT('',#899);
#899 = CARTESIAN_POINT('',(-0.5,-0.4,0.));
#900 = LINE('',#901,#902);
#901 = CARTESIAN_POINT('',(-0.8,-0.4,0.));
#902 = VECTOR('',#903,1.);
#903 = DIRECTION('',(1.,0.,-0.));
#904 = ORIENTED_EDGE('',*,*,#905,.T.);
#905 = EDGE_CURVE('',#898,#906,#908,.T.);
#906 = VERTEX_POINT('',#907);
#907 = CARTESIAN_POINT('',(-0.5,-0.4,2.5E-02));
#908 = LINE('',#909,#910);
#909 = CARTESIAN_POINT('',(-0.5,-0.4,0.));
#910 = VECTOR('',#911,1.);
#911 = DIRECTION('',(0.,0.,1.));
#912 = ORIENTED_EDGE('',*,*,#913,.F.);
#913 = EDGE_CURVE('',#914,#906,#916,.T.);
#914 = VERTEX_POINT('',#915);
#915 = CARTESIAN_POINT('',(-0.782,-0.4,2.5E-02));
#916 = LINE('',#917,#918);
#917 = CARTESIAN_POINT('',(-0.8,-0.4,2.5E-02));
#918 = VECTOR('',#919,1.);
#919 = DIRECTION('',(1.,0.,-0.));
#920 = ORIENTED_EDGE('',*,*,#921,.T.);
#921 = EDGE_CURVE('',#914,#922,#924,.T.);
#922 = VERTEX_POINT('',#923);
#923 = CARTESIAN_POINT('',(-0.782,-0.4,0.425));
#924 = LINE('',#925,#926);
#925 = CARTESIAN_POINT('',(-0.782,-0.4,0.));
#926 = VECTOR('',#927,1.);
#927 = DIRECTION('',(0.,0.,1.));
#928 = ORIENTED_EDGE('',*,*,#929,.T.);
#929 = EDGE_CURVE('',#922,#930,#932,.T.);
#930 = VERTEX_POINT('',#931);
#931 = CARTESIAN_POINT('',(-0.5,-0.4,0.425));
#932 = LINE('',#933,#934);
#933 = CARTESIAN_POINT('',(-0.8,-0.4,0.425));
#934 = VECTOR('',#935,1.);
#935 = DIRECTION('',(1.,0.,-0.));
#936 = ORIENTED_EDGE('',*,*,#937,.T.);
#937 = EDGE_CURVE('',#930,#938,#940,.T.);
#938 = VERTEX_POINT('',#939);
#939 = CARTESIAN_POINT('',(-0.5,-0.4,0.45));
#940 = LINE('',#941,#942);
#941 = CARTESIAN_POINT('',(-0.5,-0.4,0.425));
#942 = VECTOR('',#943,1.);
#943 = DIRECTION('',(0.,0.,1.));
#944 = ORIENTED_EDGE('',*,*,#945,.F.);
#945 = EDGE_CURVE('',#860,#938,#946,.T.);
#946 = LINE('',#947,#948);
#947 = CARTESIAN_POINT('',(-0.8,-0.4,0.45));
#948 = VECTOR('',#949,1.);
#949 = DIRECTION('',(1.,0.,-0.));
#950 = ORIENTED_EDGE('',*,*,#857,.F.);
#951 = PLANE('',#952);
#952 = AXIS2_PLACEMENT_3D('',#953,#954,#955);
#953 = CARTESIAN_POINT('',(-0.702191860465,-0.4,0.225));
#954 = DIRECTION('',(-0.,-1.,-0.));
#955 = DIRECTION('',(0.,0.,-1.));
#956 = ADVANCED_FACE('',(#957),#982,.T.);
#957 = FACE_BOUND('',#958,.T.);
#958 = EDGE_LOOP('',(#959,#960,#968,#976));
#959 = ORIENTED_EDGE('',*,*,#905,.F.);
#960 = ORIENTED_EDGE('',*,*,#961,.T.);
#961 = EDGE_CURVE('',#898,#962,#964,.T.);
#962 = VERTEX_POINT('',#963);
#963 = CARTESIAN_POINT('',(-0.5,0.4,0.));
#964 = LINE('',#965,#966);
#965 = CARTESIAN_POINT('',(-0.5,-0.4,0.));
#966 = VECTOR('',#967,1.);
#967 = DIRECTION('',(-0.,1.,0.));
#968 = ORIENTED_EDGE('',*,*,#969,.T.);
#969 = EDGE_CURVE('',#962,#970,#972,.T.);
#970 = VERTEX_POINT('',#971);
#971 = CARTESIAN_POINT('',(-0.5,0.4,2.5E-02));
#972 = LINE('',#973,#974);
#973 = CARTESIAN_POINT('',(-0.5,0.4,0.));
#974 = VECTOR('',#975,1.);
#975 = DIRECTION('',(0.,0.,1.));
#976 = ORIENTED_EDGE('',*,*,#977,.F.);
#977 = EDGE_CURVE('',#906,#970,#978,.T.);
#978 = LINE('',#979,#980);
#979 = CARTESIAN_POINT('',(-0.5,-0.4,2.5E-02));
#980 = VECTOR('',#981,1.);
#981 = DIRECTION('',(-0.,1.,0.));
#982 = PLANE('',#983);
#983 = AXIS2_PLACEMENT_3D('',#984,#985,#986);
#984 = CARTESIAN_POINT('',(-0.5,-0.4,0.));
#985 = DIRECTION('',(1.,0.,-0.));
#986 = DIRECTION('',(0.,0.,1.));
#987 = ADVANCED_FACE('',(#988),#1006,.T.);
#988 = FACE_BOUND('',#989,.T.);
#989 = EDGE_LOOP('',(#990,#998,#999,#1000));
#990 = ORIENTED_EDGE('',*,*,#991,.T.);
#991 = EDGE_CURVE('',#992,#914,#994,.T.);
#992 = VERTEX_POINT('',#993);
#993 = CARTESIAN_POINT('',(-0.782,0.4,2.5E-02));
#994 = LINE('',#995,#996);
#995 = CARTESIAN_POINT('',(-0.782,-0.4,2.5E-02));
#996 = VECTOR('',#997,1.);
#997 = DIRECTION('',(0.,-1.,0.));
#998 = ORIENTED_EDGE('',*,*,#913,.T.);
#999 = ORIENTED_EDGE('',*,*,#977,.T.);
#1000 = ORIENTED_EDGE('',*,*,#1001,.F.);
#1001 = EDGE_CURVE('',#992,#970,#1002,.T.);
#1002 = LINE('',#1003,#1004);
#1003 = CARTESIAN_POINT('',(-0.8,0.4,2.5E-02));
#1004 = VECTOR('',#1005,1.);
#1005 = DIRECTION('',(1.,0.,-0.));
#1006 = PLANE('',#1007);
#1007 = AXIS2_PLACEMENT_3D('',#1008,#1009,#1010);
#1008 = CARTESIAN_POINT('',(-0.8,-0.4,2.5E-02));
#1009 = DIRECTION('',(0.,0.,1.));
#1010 = DIRECTION('',(1.,0.,-0.));
#1011 = ADVANCED_FACE('',(#1012),#1030,.T.);
#1012 = FACE_BOUND('',#1013,.T.);
#1013 = EDGE_LOOP('',(#1014,#1015,#1016,#1024));
#1014 = ORIENTED_EDGE('',*,*,#921,.F.);
#1015 = ORIENTED_EDGE('',*,*,#991,.F.);
#1016 = ORIENTED_EDGE('',*,*,#1017,.T.);
#1017 = EDGE_CURVE('',#992,#1018,#1020,.T.);
#1018 = VERTEX_POINT('',#1019);
#1019 = CARTESIAN_POINT('',(-0.782,0.4,0.425));
#1020 = LINE('',#1021,#1022);
#1021 = CARTESIAN_POINT('',(-0.782,0.4,0.));
#1022 = VECTOR('',#1023,1.);
#1023 = DIRECTION('',(0.,0.,1.));
#1024 = ORIENTED_EDGE('',*,*,#1025,.T.);
#1025 = EDGE_CURVE('',#1018,#922,#1026,.T.);
#1026 = LINE('',#1027,#1028);
#1027 = CARTESIAN_POINT('',(-0.782,-0.4,0.425));
#1028 = VECTOR('',#1029,1.);
#1029 = DIRECTION('',(0.,-1.,0.));
#1030 = PLANE('',#1031);
#1031 = AXIS2_PLACEMENT_3D('',#1032,#1033,#1034);
#1032 = CARTESIAN_POINT('',(-0.782,-0.4,0.));
#1033 = DIRECTION('',(1.,0.,-0.));
#1034 = DIRECTION('',(0.,0.,1.));
#1035 = ADVANCED_FACE('',(#1036),#1054,.F.);
#1036 = FACE_BOUND('',#1037,.F.);
#1037 = EDGE_LOOP('',(#1038,#1039,#1040,#1048));
#1038 = ORIENTED_EDGE('',*,*,#1025,.T.);
#1039 = ORIENTED_EDGE('',*,*,#929,.T.);
#1040 = ORIENTED_EDGE('',*,*,#1041,.T.);
#1041 = EDGE_CURVE('',#930,#1042,#1044,.T.);
#1042 = VERTEX_POINT('',#1043);
#1043 = CARTESIAN_POINT('',(-0.5,0.4,0.425));
#1044 = LINE('',#1045,#1046);
#1045 = CARTESIAN_POINT('',(-0.5,-0.4,0.425));
#1046 = VECTOR('',#1047,1.);
#1047 = DIRECTION('',(-0.,1.,0.));
#1048 = ORIENTED_EDGE('',*,*,#1049,.F.);
#1049 = EDGE_CURVE('',#1018,#1042,#1050,.T.);
#1050 = LINE('',#1051,#1052);
#1051 = CARTESIAN_POINT('',(-0.8,0.4,0.425));
#1052 = VECTOR('',#1053,1.);
#1053 = DIRECTION('',(1.,0.,-0.));
#1054 = PLANE('',#1055);
#1055 = AXIS2_PLACEMENT_3D('',#1056,#1057,#1058);
#1056 = CARTESIAN_POINT('',(-0.8,-0.4,0.425));
#1057 = DIRECTION('',(0.,0.,1.));
#1058 = DIRECTION('',(1.,0.,-0.));
#1059 = ADVANCED_FACE('',(#1060),#1078,.T.);
#1060 = FACE_BOUND('',#1061,.T.);
#1061 = EDGE_LOOP('',(#1062,#1063,#1064,#1072));
#1062 = ORIENTED_EDGE('',*,*,#937,.F.);
#1063 = ORIENTED_EDGE('',*,*,#1041,.T.);
#1064 = ORIENTED_EDGE('',*,*,#1065,.T.);
#1065 = EDGE_CURVE('',#1042,#1066,#1068,.T.);
#1066 = VERTEX_POINT('',#1067);
#1067 = CARTESIAN_POINT('',(-0.5,0.4,0.45));
#1068 = LINE('',#1069,#1070);
#1069 = CARTESIAN_POINT('',(-0.5,0.4,0.425));
#1070 = VECTOR('',#1071,1.);
#1071 = DIRECTION('',(0.,0.,1.));
#1072 = ORIENTED_EDGE('',*,*,#1073,.F.);
#1073 = EDGE_CURVE('',#938,#1066,#1074,.T.);
#1074 = LINE('',#1075,#1076);
#1075 = CARTESIAN_POINT('',(-0.5,-0.4,0.45));
#1076 = VECTOR('',#1077,1.);
#1077 = DIRECTION('',(-0.,1.,0.));
#1078 = PLANE('',#1079);
#1079 = AXIS2_PLACEMENT_3D('',#1080,#1081,#1082);
#1080 = CARTESIAN_POINT('',(-0.5,-0.4,0.425));
#1081 = DIRECTION('',(1.,0.,-0.));
#1082 = DIRECTION('',(0.,0.,1.));
#1083 = ADVANCED_FACE('',(#1084),#1104,.T.);
#1084 = FACE_BOUND('',#1085,.T.);
#1085 = EDGE_LOOP('',(#1086,#1087,#1093,#1094,#1095,#1096,#1097,#1098));
#1086 = ORIENTED_EDGE('',*,*,#875,.T.);
#1087 = ORIENTED_EDGE('',*,*,#1088,.T.);
#1088 = EDGE_CURVE('',#868,#1066,#1089,.T.);
#1089 = LINE('',#1090,#1091);
#1090 = CARTESIAN_POINT('',(-0.8,0.4,0.45));
#1091 = VECTOR('',#1092,1.);
#1092 = DIRECTION('',(1.,0.,-0.));
#1093 = ORIENTED_EDGE('',*,*,#1065,.F.);
#1094 = ORIENTED_EDGE('',*,*,#1049,.F.);
#1095 = ORIENTED_EDGE('',*,*,#1017,.F.);
#1096 = ORIENTED_EDGE('',*,*,#1001,.T.);
#1097 = ORIENTED_EDGE('',*,*,#969,.F.);
#1098 = ORIENTED_EDGE('',*,*,#1099,.F.);
#1099 = EDGE_CURVE('',#876,#962,#1100,.T.);
#1100 = LINE('',#1101,#1102);
#1101 = CARTESIAN_POINT('',(-0.8,0.4,0.));
#1102 = VECTOR('',#1103,1.);
#1103 = DIRECTION('',(1.,0.,-0.));
#1104 = PLANE('',#1105);
#1105 = AXIS2_PLACEMENT_3D('',#1106,#1107,#1108);
#1106 = CARTESIAN_POINT('',(-0.702191860465,0.4,0.225));
#1107 = DIRECTION('',(0.,1.,0.));
#1108 = DIRECTION('',(0.,-0.,1.));
#1109 = ADVANCED_FACE('',(#1110),#1116,.T.);
#1110 = FACE_BOUND('',#1111,.T.);
#1111 = EDGE_LOOP('',(#1112,#1113,#1114,#1115));
#1112 = ORIENTED_EDGE('',*,*,#883,.T.);
#1113 = ORIENTED_EDGE('',*,*,#1099,.T.);
#1114 = ORIENTED_EDGE('',*,*,#961,.F.);
#1115 = ORIENTED_EDGE('',*,*,#897,.F.);
#1116 = PLANE('',#1117);
#1117 = AXIS2_PLACEMENT_3D('',#1118,#1119,#1120);
#1118 = CARTESIAN_POINT('',(-0.65,2.365532012696E-18,0.));
#1119 = DIRECTION('',(-0.,-0.,-1.));
#1120 = DIRECTION('',(-1.,0.,0.));
#1121 = ADVANCED_FACE('',(#1122),#1128,.T.);
#1122 = FACE_BOUND('',#1123,.T.);
#1123 = EDGE_LOOP('',(#1124,#1125,#1126,#1127));
#1124 = ORIENTED_EDGE('',*,*,#867,.F.);
#1125 = ORIENTED_EDGE('',*,*,#945,.T.);
#1126 = ORIENTED_EDGE('',*,*,#1073,.T.);
#1127 = ORIENTED_EDGE('',*,*,#1088,.F.);
#1128 = PLANE('',#1129);
#1129 = AXIS2_PLACEMENT_3D('',#1130,#1131,#1132);
#1130 = CARTESIAN_POINT('',(-0.65,1.025063872168E-17,0.45));
#1131 = DIRECTION('',(0.,0.,1.));
#1132 = DIRECTION('',(1.,0.,-0.));
#1133 = ( GEOMETRIC_REPRESENTATION_CONTEXT(3) 
GLOBAL_UNCERTAINTY_ASSIGNED_CONTEXT((#1137)) 
GLOBAL_UNIT_ASSIGNED_CONTEXT((#1134,#1135,#1136)) REPRESENTATION_CONTEXT
('Context #1','3D Context with UNIT and UNCERTAINTY') );
#1134 = ( LENGTH_UNIT() NAMED_UNIT(*) SI_UNIT(.MILLI.,.METRE.) );
#1135 = ( NAMED_UNIT(*) PLANE_ANGLE_UNIT() SI_UNIT($,.RADIAN.) );
#1136 = ( NAMED_UNIT(*) SI_UNIT($,.STERADIAN.) SOLID_ANGLE_UNIT() );
#1137 = UNCERTAINTY_MEASURE_WITH_UNIT(LENGTH_MEASURE(1.E-07),#1134,
  'distance_accuracy_value','confusion accuracy');
#1138 = CONTEXT_DEPENDENT_SHAPE_REPRESENTATION(#1139,#1141);
#1139 = ( REPRESENTATION_RELATIONSHIP('','',#850,#10) 
REPRESENTATION_RELATIONSHIP_WITH_TRANSFORMATION(#1140) 
SHAPE_REPRESENTATION_RELATIONSHIP() );
#1140 = ITEM_DEFINED_TRANSFORMATION('','',#11,#23);
#1141 = PRODUCT_DEFINITION_SHAPE('Placement','Placement of an item',
  #1142);
#1142 = NEXT_ASSEMBLY_USAGE_OCCURRENCE('42','Termination_1','',#5,#845,$
  );
#1143 = PRODUCT_RELATED_PRODUCT_CATEGORY('part',$,(#847));
#1144 = SHAPE_DEFINITION_REPRESENTATION(#1145,#1151);
#1145 = PRODUCT_DEFINITION_SHAPE('','',#1146);
#1146 = PRODUCT_DEFINITION('design','',#1147,#1150);
#1147 = PRODUCT_DEFINITION_FORMATION('','',#1148);
#1148 = PRODUCT('Termination_2','Termination_2','',(#1149));
#1149 = PRODUCT_CONTEXT('',#2,'mechanical');
#1150 = PRODUCT_DEFINITION_CONTEXT('part definition',#2,'design');
#1151 = ADVANCED_BREP_SHAPE_REPRESENTATION('',(#11,#1152),#1434);
#1152 = MANIFOLD_SOLID_BREP('',#1153);
#1153 = CLOSED_SHELL('',(#1154,#1194,#1225,#1256,#1287,#1318,#1353,#1384
    ,#1401,#1422));
#1154 = ADVANCED_FACE('',(#1155),#1189,.F.);
#1155 = FACE_BOUND('',#1156,.F.);
#1156 = EDGE_LOOP('',(#1157,#1167,#1175,#1183));
#1157 = ORIENTED_EDGE('',*,*,#1158,.F.);
#1158 = EDGE_CURVE('',#1159,#1161,#1163,.T.);
#1159 = VERTEX_POINT('',#1160);
#1160 = CARTESIAN_POINT('',(0.782,-0.4,2.5E-02));
#1161 = VERTEX_POINT('',#1162);
#1162 = CARTESIAN_POINT('',(0.782,-0.4,0.425));
#1163 = LINE('',#1164,#1165);
#1164 = CARTESIAN_POINT('',(0.782,-0.4,0.));
#1165 = VECTOR('',#1166,1.);
#1166 = DIRECTION('',(0.,0.,1.));
#1167 = ORIENTED_EDGE('',*,*,#1168,.F.);
#1168 = EDGE_CURVE('',#1169,#1159,#1171,.T.);
#1169 = VERTEX_POINT('',#1170);
#1170 = CARTESIAN_POINT('',(0.782,0.4,2.5E-02));
#1171 = LINE('',#1172,#1173);
#1172 = CARTESIAN_POINT('',(0.782,-0.4,2.5E-02));
#1173 = VECTOR('',#1174,1.);
#1174 = DIRECTION('',(0.,-1.,0.));
#1175 = ORIENTED_EDGE('',*,*,#1176,.T.);
#1176 = EDGE_CURVE('',#1169,#1177,#1179,.T.);
#1177 = VERTEX_POINT('',#1178);
#1178 = CARTESIAN_POINT('',(0.782,0.4,0.425));
#1179 = LINE('',#1180,#1181);
#1180 = CARTESIAN_POINT('',(0.782,0.4,0.));
#1181 = VECTOR('',#1182,1.);
#1182 = DIRECTION('',(0.,0.,1.));
#1183 = ORIENTED_EDGE('',*,*,#1184,.T.);
#1184 = EDGE_CURVE('',#1177,#1161,#1185,.T.);
#1185 = LINE('',#1186,#1187);
#1186 = CARTESIAN_POINT('',(0.782,-0.4,0.425));
#1187 = VECTOR('',#1188,1.);
#1188 = DIRECTION('',(0.,-1.,0.));
#1189 = PLANE('',#1190);
#1190 = AXIS2_PLACEMENT_3D('',#1191,#1192,#1193);
#1191 = CARTESIAN_POINT('',(0.782,-0.4,0.));
#1192 = DIRECTION('',(1.,0.,-0.));
#1193 = DIRECTION('',(0.,0.,1.));
#1194 = ADVANCED_FACE('',(#1195),#1220,.T.);
#1195 = FACE_BOUND('',#1196,.T.);
#1196 = EDGE_LOOP('',(#1197,#1205,#1213,#1219));
#1197 = ORIENTED_EDGE('',*,*,#1198,.F.);
#1198 = EDGE_CURVE('',#1199,#1169,#1201,.T.);
#1199 = VERTEX_POINT('',#1200);
#1200 = CARTESIAN_POINT('',(0.5,0.4,2.5E-02));
#1201 = LINE('',#1202,#1203);
#1202 = CARTESIAN_POINT('',(0.5,0.4,2.5E-02));
#1203 = VECTOR('',#1204,1.);
#1204 = DIRECTION('',(1.,0.,-0.));
#1205 = ORIENTED_EDGE('',*,*,#1206,.F.);
#1206 = EDGE_CURVE('',#1207,#1199,#1209,.T.);
#1207 = VERTEX_POINT('',#1208);
#1208 = CARTESIAN_POINT('',(0.5,-0.4,2.5E-02));
#1209 = LINE('',#1210,#1211);
#1210 = CARTESIAN_POINT('',(0.5,-0.4,2.5E-02));
#1211 = VECTOR('',#1212,1.);
#1212 = DIRECTION('',(-0.,1.,0.));
#1213 = ORIENTED_EDGE('',*,*,#1214,.T.);
#1214 = EDGE_CURVE('',#1207,#1159,#1215,.T.);
#1215 = LINE('',#1216,#1217);
#1216 = CARTESIAN_POINT('',(0.5,-0.4,2.5E-02));
#1217 = VECTOR('',#1218,1.);
#1218 = DIRECTION('',(1.,0.,-0.));
#1219 = ORIENTED_EDGE('',*,*,#1168,.F.);
#1220 = PLANE('',#1221);
#1221 = AXIS2_PLACEMENT_3D('',#1222,#1223,#1224);
#1222 = CARTESIAN_POINT('',(0.5,-0.4,2.5E-02));
#1223 = DIRECTION('',(0.,0.,1.));
#1224 = DIRECTION('',(1.,0.,-0.));
#1225 = ADVANCED_FACE('',(#1226),#1251,.F.);
#1226 = FACE_BOUND('',#1227,.F.);
#1227 = EDGE_LOOP('',(#1228,#1236,#1244,#1250));
#1228 = ORIENTED_EDGE('',*,*,#1229,.F.);
#1229 = EDGE_CURVE('',#1230,#1207,#1232,.T.);
#1230 = VERTEX_POINT('',#1231);
#1231 = CARTESIAN_POINT('',(0.5,-0.4,0.));
#1232 = LINE('',#1233,#1234);
#1233 = CARTESIAN_POINT('',(0.5,-0.4,0.));
#1234 = VECTOR('',#1235,1.);
#1235 = DIRECTION('',(0.,0.,1.));
#1236 = ORIENTED_EDGE('',*,*,#1237,.T.);
#1237 = EDGE_CURVE('',#1230,#1238,#1240,.T.);
#1238 = VERTEX_POINT('',#1239);
#1239 = CARTESIAN_POINT('',(0.5,0.4,0.));
#1240 = LINE('',#1241,#1242);
#1241 = CARTESIAN_POINT('',(0.5,-0.4,0.));
#1242 = VECTOR('',#1243,1.);
#1243 = DIRECTION('',(-0.,1.,0.));
#1244 = ORIENTED_EDGE('',*,*,#1245,.T.);
#1245 = EDGE_CURVE('',#1238,#1199,#1246,.T.);
#1246 = LINE('',#1247,#1248);
#1247 = CARTESIAN_POINT('',(0.5,0.4,0.));
#1248 = VECTOR('',#1249,1.);
#1249 = DIRECTION('',(0.,0.,1.));
#1250 = ORIENTED_EDGE('',*,*,#1206,.F.);
#1251 = PLANE('',#1252);
#1252 = AXIS2_PLACEMENT_3D('',#1253,#1254,#1255);
#1253 = CARTESIAN_POINT('',(0.5,-0.4,0.));
#1254 = DIRECTION('',(1.,0.,-0.));
#1255 = DIRECTION('',(0.,0.,1.));
#1256 = ADVANCED_FACE('',(#1257),#1282,.F.);
#1257 = FACE_BOUND('',#1258,.F.);
#1258 = EDGE_LOOP('',(#1259,#1267,#1275,#1281));
#1259 = ORIENTED_EDGE('',*,*,#1260,.F.);
#1260 = EDGE_CURVE('',#1261,#1177,#1263,.T.);
#1261 = VERTEX_POINT('',#1262);
#1262 = CARTESIAN_POINT('',(0.5,0.4,0.425));
#1263 = LINE('',#1264,#1265);
#1264 = CARTESIAN_POINT('',(0.5,0.4,0.425));
#1265 = VECTOR('',#1266,1.);
#1266 = DIRECTION('',(1.,0.,-0.));
#1267 = ORIENTED_EDGE('',*,*,#1268,.F.);
#1268 = EDGE_CURVE('',#1269,#1261,#1271,.T.);
#1269 = VERTEX_POINT('',#1270);
#1270 = CARTESIAN_POINT('',(0.5,-0.4,0.425));
#1271 = LINE('',#1272,#1273);
#1272 = CARTESIAN_POINT('',(0.5,-0.4,0.425));
#1273 = VECTOR('',#1274,1.);
#1274 = DIRECTION('',(-0.,1.,0.));
#1275 = ORIENTED_EDGE('',*,*,#1276,.T.);
#1276 = EDGE_CURVE('',#1269,#1161,#1277,.T.);
#1277 = LINE('',#1278,#1279);
#1278 = CARTESIAN_POINT('',(0.5,-0.4,0.425));
#1279 = VECTOR('',#1280,1.);
#1280 = DIRECTION('',(1.,0.,-0.));
#1281 = ORIENTED_EDGE('',*,*,#1184,.F.);
#1282 = PLANE('',#1283);
#1283 = AXIS2_PLACEMENT_3D('',#1284,#1285,#1286);
#1284 = CARTESIAN_POINT('',(0.5,-0.4,0.425));
#1285 = DIRECTION('',(0.,0.,1.));
#1286 = DIRECTION('',(1.,0.,-0.));
#1287 = ADVANCED_FACE('',(#1288),#1313,.F.);
#1288 = FACE_BOUND('',#1289,.F.);
#1289 = EDGE_LOOP('',(#1290,#1298,#1299,#1307));
#1290 = ORIENTED_EDGE('',*,*,#1291,.F.);
#1291 = EDGE_CURVE('',#1269,#1292,#1294,.T.);
#1292 = VERTEX_POINT('',#1293);
#1293 = CARTESIAN_POINT('',(0.5,-0.4,0.45));
#1294 = LINE('',#1295,#1296);
#1295 = CARTESIAN_POINT('',(0.5,-0.4,0.425));
#1296 = VECTOR('',#1297,1.);
#1297 = DIRECTION('',(0.,0.,1.));
#1298 = ORIENTED_EDGE('',*,*,#1268,.T.);
#1299 = ORIENTED_EDGE('',*,*,#1300,.T.);
#1300 = EDGE_CURVE('',#1261,#1301,#1303,.T.);
#1301 = VERTEX_POINT('',#1302);
#1302 = CARTESIAN_POINT('',(0.5,0.4,0.45));
#1303 = LINE('',#1304,#1305);
#1304 = CARTESIAN_POINT('',(0.5,0.4,0.425));
#1305 = VECTOR('',#1306,1.);
#1306 = DIRECTION('',(0.,0.,1.));
#1307 = ORIENTED_EDGE('',*,*,#1308,.F.);
#1308 = EDGE_CURVE('',#1292,#1301,#1309,.T.);
#1309 = LINE('',#1310,#1311);
#1310 = CARTESIAN_POINT('',(0.5,-0.4,0.45));
#1311 = VECTOR('',#1312,1.);
#1312 = DIRECTION('',(-0.,1.,0.));
#1313 = PLANE('',#1314);
#1314 = AXIS2_PLACEMENT_3D('',#1315,#1316,#1317);
#1315 = CARTESIAN_POINT('',(0.5,-0.4,0.425));
#1316 = DIRECTION('',(1.,0.,-0.));
#1317 = DIRECTION('',(0.,0.,1.));
#1318 = ADVANCED_FACE('',(#1319),#1348,.T.);
#1319 = FACE_BOUND('',#1320,.T.);
#1320 = EDGE_LOOP('',(#1321,#1331,#1337,#1338,#1339,#1340,#1341,#1342));
#1321 = ORIENTED_EDGE('',*,*,#1322,.T.);
#1322 = EDGE_CURVE('',#1323,#1325,#1327,.T.);
#1323 = VERTEX_POINT('',#1324);
#1324 = CARTESIAN_POINT('',(0.8,-0.4,0.));
#1325 = VERTEX_POINT('',#1326);
#1326 = CARTESIAN_POINT('',(0.8,-0.4,0.45));
#1327 = LINE('',#1328,#1329);
#1328 = CARTESIAN_POINT('',(0.8,-0.4,0.));
#1329 = VECTOR('',#1330,1.);
#1330 = DIRECTION('',(0.,0.,1.));
#1331 = ORIENTED_EDGE('',*,*,#1332,.F.);
#1332 = EDGE_CURVE('',#1292,#1325,#1333,.T.);
#1333 = LINE('',#1334,#1335);
#1334 = CARTESIAN_POINT('',(0.782,-0.4,0.45));
#1335 = VECTOR('',#1336,1.);
#1336 = DIRECTION('',(1.,0.,-0.));
#1337 = ORIENTED_EDGE('',*,*,#1291,.F.);
#1338 = ORIENTED_EDGE('',*,*,#1276,.T.);
#1339 = ORIENTED_EDGE('',*,*,#1158,.F.);
#1340 = ORIENTED_EDGE('',*,*,#1214,.F.);
#1341 = ORIENTED_EDGE('',*,*,#1229,.F.);
#1342 = ORIENTED_EDGE('',*,*,#1343,.T.);
#1343 = EDGE_CURVE('',#1230,#1323,#1344,.T.);
#1344 = LINE('',#1345,#1346);
#1345 = CARTESIAN_POINT('',(0.5,-0.4,0.));
#1346 = VECTOR('',#1347,1.);
#1347 = DIRECTION('',(1.,0.,-0.));
#1348 = PLANE('',#1349);
#1349 = AXIS2_PLACEMENT_3D('',#1350,#1351,#1352);
#1350 = CARTESIAN_POINT('',(0.702191860465,-0.4,0.225));
#1351 = DIRECTION('',(-0.,-1.,-0.));
#1352 = DIRECTION('',(0.,0.,-1.));
#1353 = ADVANCED_FACE('',(#1354),#1379,.T.);
#1354 = FACE_BOUND('',#1355,.T.);
#1355 = EDGE_LOOP('',(#1356,#1357,#1365,#1373));
#1356 = ORIENTED_EDGE('',*,*,#1322,.F.);
#1357 = ORIENTED_EDGE('',*,*,#1358,.T.);
#1358 = EDGE_CURVE('',#1323,#1359,#1361,.T.);
#1359 = VERTEX_POINT('',#1360);
#1360 = CARTESIAN_POINT('',(0.8,0.4,0.));
#1361 = LINE('',#1362,#1363);
#1362 = CARTESIAN_POINT('',(0.8,-0.4,0.));
#1363 = VECTOR('',#1364,1.);
#1364 = DIRECTION('',(-0.,1.,0.));
#1365 = ORIENTED_EDGE('',*,*,#1366,.T.);
#1366 = EDGE_CURVE('',#1359,#1367,#1369,.T.);
#1367 = VERTEX_POINT('',#1368);
#1368 = CARTESIAN_POINT('',(0.8,0.4,0.45));
#1369 = LINE('',#1370,#1371);
#1370 = CARTESIAN_POINT('',(0.8,0.4,0.));
#1371 = VECTOR('',#1372,1.);
#1372 = DIRECTION('',(0.,0.,1.));
#1373 = ORIENTED_EDGE('',*,*,#1374,.F.);
#1374 = EDGE_CURVE('',#1325,#1367,#1375,.T.);
#1375 = LINE('',#1376,#1377);
#1376 = CARTESIAN_POINT('',(0.8,-0.4,0.45));
#1377 = VECTOR('',#1378,1.);
#1378 = DIRECTION('',(-0.,1.,0.));
#1379 = PLANE('',#1380);
#1380 = AXIS2_PLACEMENT_3D('',#1381,#1382,#1383);
#1381 = CARTESIAN_POINT('',(0.8,-0.4,0.));
#1382 = DIRECTION('',(1.,0.,-0.));
#1383 = DIRECTION('',(0.,0.,1.));
#1384 = ADVANCED_FACE('',(#1385),#1396,.T.);
#1385 = FACE_BOUND('',#1386,.T.);
#1386 = EDGE_LOOP('',(#1387,#1388,#1389,#1390));
#1387 = ORIENTED_EDGE('',*,*,#1358,.F.);
#1388 = ORIENTED_EDGE('',*,*,#1343,.F.);
#1389 = ORIENTED_EDGE('',*,*,#1237,.T.);
#1390 = ORIENTED_EDGE('',*,*,#1391,.T.);
#1391 = EDGE_CURVE('',#1238,#1359,#1392,.T.);
#1392 = LINE('',#1393,#1394);
#1393 = CARTESIAN_POINT('',(0.5,0.4,0.));
#1394 = VECTOR('',#1395,1.);
#1395 = DIRECTION('',(1.,0.,-0.));
#1396 = PLANE('',#1397);
#1397 = AXIS2_PLACEMENT_3D('',#1398,#1399,#1400);
#1398 = CARTESIAN_POINT('',(0.65,0.,0.));
#1399 = DIRECTION('',(-0.,-0.,-1.));
#1400 = DIRECTION('',(-1.,0.,0.));
#1401 = ADVANCED_FACE('',(#1402),#1417,.T.);
#1402 = FACE_BOUND('',#1403,.T.);
#1403 = EDGE_LOOP('',(#1404,#1405,#1406,#1407,#1408,#1409,#1410,#1411));
#1404 = ORIENTED_EDGE('',*,*,#1366,.F.);
#1405 = ORIENTED_EDGE('',*,*,#1391,.F.);
#1406 = ORIENTED_EDGE('',*,*,#1245,.T.);
#1407 = ORIENTED_EDGE('',*,*,#1198,.T.);
#1408 = ORIENTED_EDGE('',*,*,#1176,.T.);
#1409 = ORIENTED_EDGE('',*,*,#1260,.F.);
#1410 = ORIENTED_EDGE('',*,*,#1300,.T.);
#1411 = ORIENTED_EDGE('',*,*,#1412,.T.);
#1412 = EDGE_CURVE('',#1301,#1367,#1413,.T.);
#1413 = LINE('',#1414,#1415);
#1414 = CARTESIAN_POINT('',(0.5,0.4,0.45));
#1415 = VECTOR('',#1416,1.);
#1416 = DIRECTION('',(1.,0.,-0.));
#1417 = PLANE('',#1418);
#1418 = AXIS2_PLACEMENT_3D('',#1419,#1420,#1421);
#1419 = CARTESIAN_POINT('',(0.702191860465,0.4,0.225));
#1420 = DIRECTION('',(0.,1.,0.));
#1421 = DIRECTION('',(0.,-0.,1.));
#1422 = ADVANCED_FACE('',(#1423),#1429,.T.);
#1423 = FACE_BOUND('',#1424,.T.);
#1424 = EDGE_LOOP('',(#1425,#1426,#1427,#1428));
#1425 = ORIENTED_EDGE('',*,*,#1412,.F.);
#1426 = ORIENTED_EDGE('',*,*,#1308,.F.);
#1427 = ORIENTED_EDGE('',*,*,#1332,.T.);
#1428 = ORIENTED_EDGE('',*,*,#1374,.T.);
#1429 = PLANE('',#1430);
#1430 = AXIS2_PLACEMENT_3D('',#1431,#1432,#1433);
#1431 = CARTESIAN_POINT('',(0.65,0.,0.45));
#1432 = DIRECTION('',(0.,0.,1.));
#1433 = DIRECTION('',(1.,0.,-0.));
#1434 = ( GEOMETRIC_REPRESENTATION_CONTEXT(3) 
GLOBAL_UNCERTAINTY_ASSIGNED_CONTEXT((#1438)) 
GLOBAL_UNIT_ASSIGNED_CONTEXT((#1435,#1436,#1437)) REPRESENTATION_CONTEXT
('Context #1','3D Context with UNIT and UNCERTAINTY') );
#1435 = ( LENGTH_UNIT() NAMED_UNIT(*) SI_UNIT(.MILLI.,.METRE.) );
#1436 = ( NAMED_UNIT(*) PLANE_ANGLE_UNIT() SI_UNIT($,.RADIAN.) );
#1437 = ( NAMED_UNIT(*) SI_UNIT($,.STERADIAN.) SOLID_ANGLE_UNIT() );
#1438 = UNCERTAINTY_MEASURE_WITH_UNIT(LENGTH_MEASURE(1.E-07),#1435,
  'distance_accuracy_value','confusion accuracy');
#1439 = CONTEXT_DEPENDENT_SHAPE_REPRESENTATION(#1440,#1442);
#1440 = ( REPRESENTATION_RELATIONSHIP('','',#1151,#10) 
REPRESENTATION_RELATIONSHIP_WITH_TRANSFORMATION(#1441) 
SHAPE_REPRESENTATION_RELATIONSHIP() );
#1441 = ITEM_DEFINED_TRANSFORMATION('','',#11,#27);
#1442 = PRODUCT_DEFINITION_SHAPE('Placement','Placement of an item',
  #1443);
#1443 = NEXT_ASSEMBLY_USAGE_OCCURRENCE('43','Termination_2','',#5,#1146,
  $);
#1444 = PRODUCT_RELATED_PRODUCT_CATEGORY('part',$,(#1148));
#1445 = MECHANICAL_DESIGN_GEOMETRIC_PRESENTATION_REPRESENTATION('',(
    #1446),#195);
#1446 = STYLED_ITEM('color',(#1447),#45);
#1447 = PRESENTATION_STYLE_ASSIGNMENT((#1448,#1454));
#1448 = SURFACE_STYLE_USAGE(.BOTH.,#1449);
#1449 = SURFACE_SIDE_STYLE('',(#1450));
#1450 = SURFACE_STYLE_FILL_AREA(#1451);
#1451 = FILL_AREA_STYLE('',(#1452));
#1452 = FILL_AREA_STYLE_COLOUR('',#1453);
#1453 = COLOUR_RGB('',0.800000010877,0.790000031657,0.750000000934);
#1454 = CURVE_STYLE('',#1455,POSITIVE_LENGTH_MEASURE(0.1),#1453);
#1455 = DRAUGHTING_PRE_DEFINED_CURVE_FONT('continuous');
#1456 = MECHANICAL_DESIGN_GEOMETRIC_PRESENTATION_REPRESENTATION('',(
    #1457),#1133);
#1457 = STYLED_ITEM('color',(#1458),#851);
#1458 = PRESENTATION_STYLE_ASSIGNMENT((#1459,#1465));
#1459 = SURFACE_STYLE_USAGE(.BOTH.,#1460);
#1460 = SURFACE_SIDE_STYLE('',(#1461));
#1461 = SURFACE_STYLE_FILL_AREA(#1462);
#1462 = FILL_AREA_STYLE('',(#1463));
#1463 = FILL_AREA_STYLE_COLOUR('',#1464);
#1464 = COLOUR_RGB('',0.699999984889,0.720000023499,0.750000000934);
#1465 = CURVE_STYLE('',#1466,POSITIVE_LENGTH_MEASURE(0.1),#1464);
#1466 = DRAUGHTING_PRE_DEFINED_CURVE_FONT('continuous');
#1467 = MECHANICAL_DESIGN_GEOMETRIC_PRESENTATION_REPRESENTATION('',(
    #1468),#832);
#1468 = STYLED_ITEM('color',(#1469),#214);
#1469 = PRESENTATION_STYLE_ASSIGNMENT((#1470,#1476));
#1470 = SURFACE_STYLE_USAGE(.BOTH.,#1471);
#1471 = SURFACE_SIDE_STYLE('',(#1472));
#1472 = SURFACE_STYLE_FILL_AREA(#1473);
#1473 = FILL_AREA_STYLE('',(#1474));
#1474 = FILL_AREA_STYLE_COLOUR('',#1475);
#1475 = COLOUR_RGB('',5.500000063064E-02,6.000000074816E-02,
  6.499999653404E-02);
#1476 = CURVE_STYLE('',#1477,POSITIVE_LENGTH_MEASURE(0.1),#1475);
#1477 = DRAUGHTING_PRE_DEFINED_CURVE_FONT('continuous');
#1478 = MECHANICAL_DESIGN_GEOMETRIC_PRESENTATION_REPRESENTATION('',(
    #1479),#1434);
#1479 = STYLED_ITEM('color',(#1480),#1152);
#1480 = PRESENTATION_STYLE_ASSIGNMENT((#1481,#1486));
#1481 = SURFACE_STYLE_USAGE(.BOTH.,#1482);
#1482 = SURFACE_SIDE_STYLE('',(#1483));
#1483 = SURFACE_STYLE_FILL_AREA(#1484);
#1484 = FILL_AREA_STYLE('',(#1485));
#1485 = FILL_AREA_STYLE_COLOUR('',#1464);
#1486 = CURVE_STYLE('',#1487,POSITIVE_LENGTH_MEASURE(0.1),#1464);
#1487 = DRAUGHTING_PRE_DEFINED_CURVE_FONT('continuous');
ENDSEC;
END-ISO-10303-21;
