ISO-10303-21;
HEADER;
FILE_DESCRIPTION(('FreeCAD Model'),'2;1');
FILE_NAME('Open CASCADE Shape Model','2026-10-03T19:15:17',('Author'),(
    ''),'Open CASCADE STEP processor 7.8','FreeCAD','Unknown');
FILE_SCHEMA(('AUTOMOTIVE_DESIGN { 1 0 10303 214 1 1 1 1 }'));
ENDSEC;
DATA;
#1 = APPLICATION_PROTOCOL_DEFINITION('international standard',
  'automotive_design',2000,#2);
#2 = APPLICATION_CONTEXT(
  'core data for automotive mechanical design processes');
#3 = SHAPE_DEFINITION_REPRESENTATION(#4,#10);
#4 = PRODUCT_DEFINITION_SHAPE('','',#5);
#5 = PRODUCT_DEFINITION('design','',#6,#9);
#6 = PRODUCT_DEFINITION_FORMATION('','',#7);
#7 = PRODUCT('AOD409_TO252_nominal','AOD409_TO252_nominal','',(#8));
#8 = PRODUCT_CONTEXT('',#2,'mechanical');
#9 = PRODUCT_DEFINITION_CONTEXT('part definition',#2,'design');
#10 = SHAPE_REPRESENTATION('',(#11,#15,#19,#23,#27,#31),#35);
#11 = AXIS2_PLACEMENT_3D('',#12,#13,#14);
#12 = CARTESIAN_POINT('',(0.,0.,0.));
#13 = DIRECTION('',(0.,0.,1.));
#14 = DIRECTION('',(1.,0.,-0.));
#15 = AXIS2_PLACEMENT_3D('',#16,#17,#18);
#16 = CARTESIAN_POINT('',(0.,0.,0.));
#17 = DIRECTION('',(0.,0.,1.));
#18 = DIRECTION('',(1.,0.,0.));
#19 = AXIS2_PLACEMENT_3D('',#20,#21,#22);
#20 = CARTESIAN_POINT('',(0.,0.,0.));
#21 = DIRECTION('',(0.,0.,1.));
#22 = DIRECTION('',(1.,0.,0.));
#23 = AXIS2_PLACEMENT_3D('',#24,#25,#26);
#24 = CARTESIAN_POINT('',(0.,0.,0.));
#25 = DIRECTION('',(0.,0.,1.));
#26 = DIRECTION('',(1.,0.,0.));
#27 = AXIS2_PLACEMENT_3D('',#28,#29,#30);
#28 = CARTESIAN_POINT('',(0.,0.,0.));
#29 = DIRECTION('',(0.,0.,1.));
#30 = DIRECTION('',(1.,0.,0.));
#31 = AXIS2_PLACEMENT_3D('',#32,#33,#34);
#32 = CARTESIAN_POINT('',(0.,0.,0.));
#33 = DIRECTION('',(0.,0.,1.));
#34 = DIRECTION('',(1.,0.,0.));
#35 = ( GEOMETRIC_REPRESENTATION_CONTEXT(3) 
GLOBAL_UNCERTAINTY_ASSIGNED_CONTEXT((#39)) GLOBAL_UNIT_ASSIGNED_CONTEXT(
(#36,#37,#38)) REPRESENTATION_CONTEXT('Context #1',
  '3D Context with UNIT and UNCERTAINTY') );
#36 = ( LENGTH_UNIT() NAMED_UNIT(*) SI_UNIT(.MILLI.,.METRE.) );
#37 = ( NAMED_UNIT(*) PLANE_ANGLE_UNIT() SI_UNIT($,.RADIAN.) );
#38 = ( NAMED_UNIT(*) SI_UNIT($,.STERADIAN.) SOLID_ANGLE_UNIT() );
#39 = UNCERTAINTY_MEASURE_WITH_UNIT(LENGTH_MEASURE(1.E-07),#36,
  'distance_accuracy_value','confusion accuracy');
#40 = PRODUCT_RELATED_PRODUCT_CATEGORY('part',$,(#7));
#41 = SHAPE_DEFINITION_REPRESENTATION(#42,#48);
#42 = PRODUCT_DEFINITION_SHAPE('','',#43);
#43 = PRODUCT_DEFINITION('design','',#44,#47);
#44 = PRODUCT_DEFINITION_FORMATION('','',#45);
#45 = PRODUCT('Molded_body','Molded_body','',(#46));
#46 = PRODUCT_CONTEXT('',#2,'mechanical');
#47 = PRODUCT_DEFINITION_CONTEXT('part definition',#2,'design');
#48 = ADVANCED_BREP_SHAPE_REPRESENTATION('',(#11,#49),#287);
#49 = MANIFOLD_SOLID_BREP('',#50);
#50 = CLOSED_SHELL('',(#51,#89,#119,#149,#171,#200,#223,#246,#263,#275)
  );
#51 = ADVANCED_FACE('',(#52),#84,.T.);
#52 = FACE_BOUND('',#53,.T.);
#53 = EDGE_LOOP('',(#54,#64,#71,#79));
#54 = ORIENTED_EDGE('',*,*,#55,.T.);
#55 = EDGE_CURVE('',#56,#58,#60,.T.);
#56 = VERTEX_POINT('',#57);
#57 = CARTESIAN_POINT('',(-2.958,-3.212,0.1));
#58 = VERTEX_POINT('',#59);
#59 = CARTESIAN_POINT('',(2.958,-3.212,0.1));
#60 = LINE('',#61,#62);
#61 = CARTESIAN_POINT('',(-2.958,-3.212,0.1));
#62 = VECTOR('',#63,1.);
#63 = DIRECTION('',(1.,0.,0.));
#64 = ORIENTED_EDGE('',*,*,#65,.T.);
#65 = EDGE_CURVE('',#58,#66,#68,.T.);
#66 = VERTEX_POINT('',#67);
#67 = CARTESIAN_POINT('',(3.048,-3.302,0.8651));
#68 = B_SPLINE_CURVE_WITH_KNOTS('',1,(#69,#70),.UNSPECIFIED.,.F.,.F.,(2,
    2),(0.,1.),.PIECEWISE_BEZIER_KNOTS.);
#69 = CARTESIAN_POINT('',(2.958,-3.212,0.1));
#70 = CARTESIAN_POINT('',(3.048,-3.302,0.8651));
#71 = ORIENTED_EDGE('',*,*,#72,.F.);
#72 = EDGE_CURVE('',#73,#66,#75,.T.);
#73 = VERTEX_POINT('',#74);
#74 = CARTESIAN_POINT('',(-3.048,-3.302,0.8651));
#75 = LINE('',#76,#77);
#76 = CARTESIAN_POINT('',(-3.048,-3.302,0.8651));
#77 = VECTOR('',#78,1.);
#78 = DIRECTION('',(1.,0.,0.));
#79 = ORIENTED_EDGE('',*,*,#80,.F.);
#80 = EDGE_CURVE('',#56,#73,#81,.T.);
#81 = B_SPLINE_CURVE_WITH_KNOTS('',1,(#82,#83),.UNSPECIFIED.,.F.,.F.,(2,
    2),(0.,1.),.PIECEWISE_BEZIER_KNOTS.);
#82 = CARTESIAN_POINT('',(-2.958,-3.212,0.1));
#83 = CARTESIAN_POINT('',(-3.048,-3.302,0.8651));
#84 = B_SPLINE_SURFACE_WITH_KNOTS('',1,1,(
    (#85,#86)
    ,(#87,#88
  )),.UNSPECIFIED.,.F.,.F.,.F.,(2,2),(2,2),(0.,6.096),(0.,1.),
  .PIECEWISE_BEZIER_KNOTS.);
#85 = CARTESIAN_POINT('',(-2.958,-3.212,0.1));
#86 = CARTESIAN_POINT('',(-3.048,-3.302,0.8651));
#87 = CARTESIAN_POINT('',(2.958,-3.212,0.1));
#88 = CARTESIAN_POINT('',(3.048,-3.302,0.8651));
#89 = ADVANCED_FACE('',(#90),#114,.T.);
#90 = FACE_BOUND('',#91,.T.);
#91 = EDGE_LOOP('',(#92,#100,#107,#113));
#92 = ORIENTED_EDGE('',*,*,#93,.T.);
#93 = EDGE_CURVE('',#58,#94,#96,.T.);
#94 = VERTEX_POINT('',#95);
#95 = CARTESIAN_POINT('',(2.958,3.212,0.1));
#96 = LINE('',#97,#98);
#97 = CARTESIAN_POINT('',(2.958,-3.212,0.1));
#98 = VECTOR('',#99,1.);
#99 = DIRECTION('',(0.,1.,0.));
#100 = ORIENTED_EDGE('',*,*,#101,.T.);
#101 = EDGE_CURVE('',#94,#102,#104,.T.);
#102 = VERTEX_POINT('',#103);
#103 = CARTESIAN_POINT('',(3.048,3.302,0.8651));
#104 = B_SPLINE_CURVE_WITH_KNOTS('',1,(#105,#106),.UNSPECIFIED.,.F.,.F.,
  (2,2),(0.,1.),.PIECEWISE_BEZIER_KNOTS.);
#105 = CARTESIAN_POINT('',(2.958,3.212,0.1));
#106 = CARTESIAN_POINT('',(3.048,3.302,0.8651));
#107 = ORIENTED_EDGE('',*,*,#108,.F.);
#108 = EDGE_CURVE('',#66,#102,#109,.T.);
#109 = LINE('',#110,#111);
#110 = CARTESIAN_POINT('',(3.048,-3.302,0.8651));
#111 = VECTOR('',#112,1.);
#112 = DIRECTION('',(0.,1.,0.));
#113 = ORIENTED_EDGE('',*,*,#65,.F.);
#114 = B_SPLINE_SURFACE_WITH_KNOTS('',1,1,(
    (#115,#116)
    ,(#117,#118
    )),.UNSPECIFIED.,.F.,.F.,.F.,(2,2),(2,2),(0.,6.604),(0.,1.),
  .PIECEWISE_BEZIER_KNOTS.);
#115 = CARTESIAN_POINT('',(2.958,-3.212,0.1));
#116 = CARTESIAN_POINT('',(3.048,-3.302,0.8651));
#117 = CARTESIAN_POINT('',(2.958,3.212,0.1));
#118 = CARTESIAN_POINT('',(3.048,3.302,0.8651));
#119 = ADVANCED_FACE('',(#120),#144,.T.);
#120 = FACE_BOUND('',#121,.T.);
#121 = EDGE_LOOP('',(#122,#130,#137,#143));
#122 = ORIENTED_EDGE('',*,*,#123,.T.);
#123 = EDGE_CURVE('',#94,#124,#126,.T.);
#124 = VERTEX_POINT('',#125);
#125 = CARTESIAN_POINT('',(-2.958,3.212,0.1));
#126 = LINE('',#127,#128);
#127 = CARTESIAN_POINT('',(2.958,3.212,0.1));
#128 = VECTOR('',#129,1.);
#129 = DIRECTION('',(-1.,0.,0.));
#130 = ORIENTED_EDGE('',*,*,#131,.T.);
#131 = EDGE_CURVE('',#124,#132,#134,.T.);
#132 = VERTEX_POINT('',#133);
#133 = CARTESIAN_POINT('',(-3.048,3.302,0.8651));
#134 = B_SPLINE_CURVE_WITH_KNOTS('',1,(#135,#136),.UNSPECIFIED.,.F.,.F.,
  (2,2),(0.,1.),.PIECEWISE_BEZIER_KNOTS.);
#135 = CARTESIAN_POINT('',(-2.958,3.212,0.1));
#136 = CARTESIAN_POINT('',(-3.048,3.302,0.8651));
#137 = ORIENTED_EDGE('',*,*,#138,.F.);
#138 = EDGE_CURVE('',#102,#132,#139,.T.);
#139 = LINE('',#140,#141);
#140 = CARTESIAN_POINT('',(3.048,3.302,0.8651));
#141 = VECTOR('',#142,1.);
#142 = DIRECTION('',(-1.,0.,0.));
#143 = ORIENTED_EDGE('',*,*,#101,.F.);
#144 = B_SPLINE_SURFACE_WITH_KNOTS('',1,1,(
    (#145,#146)
    ,(#147,#148
    )),.UNSPECIFIED.,.F.,.F.,.F.,(2,2),(2,2),(0.,6.096),(0.,1.),
  .PIECEWISE_BEZIER_KNOTS.);
#145 = CARTESIAN_POINT('',(2.958,3.212,0.1));
#146 = CARTESIAN_POINT('',(3.048,3.302,0.8651));
#147 = CARTESIAN_POINT('',(-2.958,3.212,0.1));
#148 = CARTESIAN_POINT('',(-3.048,3.302,0.8651));
#149 = ADVANCED_FACE('',(#150),#166,.T.);
#150 = FACE_BOUND('',#151,.T.);
#151 = EDGE_LOOP('',(#152,#158,#159,#165));
#152 = ORIENTED_EDGE('',*,*,#153,.T.);
#153 = EDGE_CURVE('',#124,#56,#154,.T.);
#154 = LINE('',#155,#156);
#155 = CARTESIAN_POINT('',(-2.958,3.212,0.1));
#156 = VECTOR('',#157,1.);
#157 = DIRECTION('',(0.,-1.,0.));
#158 = ORIENTED_EDGE('',*,*,#80,.T.);
#159 = ORIENTED_EDGE('',*,*,#160,.F.);
#160 = EDGE_CURVE('',#132,#73,#161,.T.);
#161 = LINE('',#162,#163);
#162 = CARTESIAN_POINT('',(-3.048,3.302,0.8651));
#163 = VECTOR('',#164,1.);
#164 = DIRECTION('',(0.,-1.,0.));
#165 = ORIENTED_EDGE('',*,*,#131,.F.);
#166 = B_SPLINE_SURFACE_WITH_KNOTS('',1,1,(
    (#167,#168)
    ,(#169,#170
    )),.UNSPECIFIED.,.F.,.F.,.F.,(2,2),(2,2),(0.,6.604),(0.,1.),
  .PIECEWISE_BEZIER_KNOTS.);
#167 = CARTESIAN_POINT('',(-2.958,3.212,0.1));
#168 = CARTESIAN_POINT('',(-3.048,3.302,0.8651));
#169 = CARTESIAN_POINT('',(-2.958,-3.212,0.1));
#170 = CARTESIAN_POINT('',(-3.048,-3.302,0.8651));
#171 = ADVANCED_FACE('',(#172),#195,.T.);
#172 = FACE_BOUND('',#173,.T.);
#173 = EDGE_LOOP('',(#174,#175,#182,#190));
#174 = ORIENTED_EDGE('',*,*,#72,.T.);
#175 = ORIENTED_EDGE('',*,*,#176,.T.);
#176 = EDGE_CURVE('',#66,#177,#179,.T.);
#177 = VERTEX_POINT('',#178);
#178 = CARTESIAN_POINT('',(2.958,-3.212,2.286));
#179 = B_SPLINE_CURVE_WITH_KNOTS('',1,(#180,#181),.UNSPECIFIED.,.F.,.F.,
  (2,2),(0.,1.),.PIECEWISE_BEZIER_KNOTS.);
#180 = CARTESIAN_POINT('',(3.048,-3.302,0.8651));
#181 = CARTESIAN_POINT('',(2.958,-3.212,2.286));
#182 = ORIENTED_EDGE('',*,*,#183,.F.);
#183 = EDGE_CURVE('',#184,#177,#186,.T.);
#184 = VERTEX_POINT('',#185);
#185 = CARTESIAN_POINT('',(-2.958,-3.212,2.286));
#186 = LINE('',#187,#188);
#187 = CARTESIAN_POINT('',(-2.958,-3.212,2.286));
#188 = VECTOR('',#189,1.);
#189 = DIRECTION('',(1.,0.,0.));
#190 = ORIENTED_EDGE('',*,*,#191,.F.);
#191 = EDGE_CURVE('',#73,#184,#192,.T.);
#192 = B_SPLINE_CURVE_WITH_KNOTS('',1,(#193,#194),.UNSPECIFIED.,.F.,.F.,
  (2,2),(0.,1.),.PIECEWISE_BEZIER_KNOTS.);
#193 = CARTESIAN_POINT('',(-3.048,-3.302,0.8651));
#194 = CARTESIAN_POINT('',(-2.958,-3.212,2.286));
#195 = B_SPLINE_SURFACE_WITH_KNOTS('',1,1,(
    (#196,#197)
    ,(#198,#199
    )),.UNSPECIFIED.,.F.,.F.,.F.,(2,2),(2,2),(0.,6.096),(0.,1.),
  .PIECEWISE_BEZIER_KNOTS.);
#196 = CARTESIAN_POINT('',(-3.048,-3.302,0.8651));
#197 = CARTESIAN_POINT('',(-2.958,-3.212,2.286));
#198 = CARTESIAN_POINT('',(3.048,-3.302,0.8651));
#199 = CARTESIAN_POINT('',(2.958,-3.212,2.286));
#200 = ADVANCED_FACE('',(#201),#218,.T.);
#201 = FACE_BOUND('',#202,.T.);
#202 = EDGE_LOOP('',(#203,#204,#211,#217));
#203 = ORIENTED_EDGE('',*,*,#108,.T.);
#204 = ORIENTED_EDGE('',*,*,#205,.T.);
#205 = EDGE_CURVE('',#102,#206,#208,.T.);
#206 = VERTEX_POINT('',#207);
#207 = CARTESIAN_POINT('',(2.958,3.212,2.286));
#208 = B_SPLINE_CURVE_WITH_KNOTS('',1,(#209,#210),.UNSPECIFIED.,.F.,.F.,
  (2,2),(0.,1.),.PIECEWISE_BEZIER_KNOTS.);
#209 = CARTESIAN_POINT('',(3.048,3.302,0.8651));
#210 = CARTESIAN_POINT('',(2.958,3.212,2.286));
#211 = ORIENTED_EDGE('',*,*,#212,.F.);
#212 = EDGE_CURVE('',#177,#206,#213,.T.);
#213 = LINE('',#214,#215);
#214 = CARTESIAN_POINT('',(2.958,-3.212,2.286));
#215 = VECTOR('',#216,1.);
#216 = DIRECTION('',(0.,1.,0.));
#217 = ORIENTED_EDGE('',*,*,#176,.F.);
#218 = B_SPLINE_SURFACE_WITH_KNOTS('',1,1,(
    (#219,#220)
    ,(#221,#222
    )),.UNSPECIFIED.,.F.,.F.,.F.,(2,2),(2,2),(0.,6.604),(0.,1.),
  .PIECEWISE_BEZIER_KNOTS.);
#219 = CARTESIAN_POINT('',(3.048,-3.302,0.8651));
#220 = CARTESIAN_POINT('',(2.958,-3.212,2.286));
#221 = CARTESIAN_POINT('',(3.048,3.302,0.8651));
#222 = CARTESIAN_POINT('',(2.958,3.212,2.286));
#223 = ADVANCED_FACE('',(#224),#241,.T.);
#224 = FACE_BOUND('',#225,.T.);
#225 = EDGE_LOOP('',(#226,#227,#234,#240));
#226 = ORIENTED_EDGE('',*,*,#138,.T.);
#227 = ORIENTED_EDGE('',*,*,#228,.T.);
#228 = EDGE_CURVE('',#132,#229,#231,.T.);
#229 = VERTEX_POINT('',#230);
#230 = CARTESIAN_POINT('',(-2.958,3.212,2.286));
#231 = B_SPLINE_CURVE_WITH_KNOTS('',1,(#232,#233),.UNSPECIFIED.,.F.,.F.,
  (2,2),(0.,1.),.PIECEWISE_BEZIER_KNOTS.);
#232 = CARTESIAN_POINT('',(-3.048,3.302,0.8651));
#233 = CARTESIAN_POINT('',(-2.958,3.212,2.286));
#234 = ORIENTED_EDGE('',*,*,#235,.F.);
#235 = EDGE_CURVE('',#206,#229,#236,.T.);
#236 = LINE('',#237,#238);
#237 = CARTESIAN_POINT('',(2.958,3.212,2.286));
#238 = VECTOR('',#239,1.);
#239 = DIRECTION('',(-1.,0.,0.));
#240 = ORIENTED_EDGE('',*,*,#205,.F.);
#241 = B_SPLINE_SURFACE_WITH_KNOTS('',1,1,(
    (#242,#243)
    ,(#244,#245
    )),.UNSPECIFIED.,.F.,.F.,.F.,(2,2),(2,2),(0.,6.096),(0.,1.),
  .PIECEWISE_BEZIER_KNOTS.);
#242 = CARTESIAN_POINT('',(3.048,3.302,0.8651));
#243 = CARTESIAN_POINT('',(2.958,3.212,2.286));
#244 = CARTESIAN_POINT('',(-3.048,3.302,0.8651));
#245 = CARTESIAN_POINT('',(-2.958,3.212,2.286));
#246 = ADVANCED_FACE('',(#247),#258,.T.);
#247 = FACE_BOUND('',#248,.T.);
#248 = EDGE_LOOP('',(#249,#250,#251,#257));
#249 = ORIENTED_EDGE('',*,*,#160,.T.);
#250 = ORIENTED_EDGE('',*,*,#191,.T.);
#251 = ORIENTED_EDGE('',*,*,#252,.F.);
#252 = EDGE_CURVE('',#229,#184,#253,.T.);
#253 = LINE('',#254,#255);
#254 = CARTESIAN_POINT('',(-2.958,3.212,2.286));
#255 = VECTOR('',#256,1.);
#256 = DIRECTION('',(0.,-1.,0.));
#257 = ORIENTED_EDGE('',*,*,#228,.F.);
#258 = B_SPLINE_SURFACE_WITH_KNOTS('',1,1,(
    (#259,#260)
    ,(#261,#262
    )),.UNSPECIFIED.,.F.,.F.,.F.,(2,2),(2,2),(0.,6.604),(0.,1.),
  .PIECEWISE_BEZIER_KNOTS.);
#259 = CARTESIAN_POINT('',(-3.048,3.302,0.8651));
#260 = CARTESIAN_POINT('',(-2.958,3.212,2.286));
#261 = CARTESIAN_POINT('',(-3.048,-3.302,0.8651));
#262 = CARTESIAN_POINT('',(-2.958,-3.212,2.286));
#263 = ADVANCED_FACE('',(#264),#270,.T.);
#264 = FACE_BOUND('',#265,.F.);
#265 = EDGE_LOOP('',(#266,#267,#268,#269));
#266 = ORIENTED_EDGE('',*,*,#55,.T.);
#267 = ORIENTED_EDGE('',*,*,#93,.T.);
#268 = ORIENTED_EDGE('',*,*,#123,.T.);
#269 = ORIENTED_EDGE('',*,*,#153,.T.);
#270 = PLANE('',#271);
#271 = AXIS2_PLACEMENT_3D('',#272,#273,#274);
#272 = CARTESIAN_POINT('',(-2.958,-3.212,0.1));
#273 = DIRECTION('',(0.,0.,-1.));
#274 = DIRECTION('',(0.677423583491,0.735593154217,0.));
#275 = ADVANCED_FACE('',(#276),#282,.F.);
#276 = FACE_BOUND('',#277,.T.);
#277 = EDGE_LOOP('',(#278,#279,#280,#281));
#278 = ORIENTED_EDGE('',*,*,#183,.T.);
#279 = ORIENTED_EDGE('',*,*,#212,.T.);
#280 = ORIENTED_EDGE('',*,*,#235,.T.);
#281 = ORIENTED_EDGE('',*,*,#252,.T.);
#282 = PLANE('',#283);
#283 = AXIS2_PLACEMENT_3D('',#284,#285,#286);
#284 = CARTESIAN_POINT('',(-2.958,-3.212,2.286));
#285 = DIRECTION('',(0.,0.,-1.));
#286 = DIRECTION('',(0.677423583491,0.735593154217,0.));
#287 = ( GEOMETRIC_REPRESENTATION_CONTEXT(3) 
GLOBAL_UNCERTAINTY_ASSIGNED_CONTEXT((#291)) GLOBAL_UNIT_ASSIGNED_CONTEXT
((#288,#289,#290)) REPRESENTATION_CONTEXT('Context #1',
  '3D Context with UNIT and UNCERTAINTY') );
#288 = ( LENGTH_UNIT() NAMED_UNIT(*) SI_UNIT(.MILLI.,.METRE.) );
#289 = ( NAMED_UNIT(*) PLANE_ANGLE_UNIT() SI_UNIT($,.RADIAN.) );
#290 = ( NAMED_UNIT(*) SI_UNIT($,.STERADIAN.) SOLID_ANGLE_UNIT() );
#291 = UNCERTAINTY_MEASURE_WITH_UNIT(LENGTH_MEASURE(1.E-07),#288,
  'distance_accuracy_value','confusion accuracy');
#292 = CONTEXT_DEPENDENT_SHAPE_REPRESENTATION(#293,#295);
#293 = ( REPRESENTATION_RELATIONSHIP('','',#48,#10) 
REPRESENTATION_RELATIONSHIP_WITH_TRANSFORMATION(#294) 
SHAPE_REPRESENTATION_RELATIONSHIP() );
#294 = ITEM_DEFINED_TRANSFORMATION('','',#11,#15);
#295 = PRODUCT_DEFINITION_SHAPE('Placement','Placement of an item',#296
  );
#296 = NEXT_ASSEMBLY_USAGE_OCCURRENCE('95','Molded_body','',#5,#43,$);
#297 = PRODUCT_RELATED_PRODUCT_CATEGORY('part',$,(#45));
#298 = SHAPE_DEFINITION_REPRESENTATION(#299,#305);
#299 = PRODUCT_DEFINITION_SHAPE('','',#300);
#300 = PRODUCT_DEFINITION('design','',#301,#304);
#301 = PRODUCT_DEFINITION_FORMATION('','',#302);
#302 = PRODUCT('Drain_tab_2','Drain_tab_2','',(#303));
#303 = PRODUCT_CONTEXT('',#2,'mechanical');
#304 = PRODUCT_DEFINITION_CONTEXT('part definition',#2,'design');
#305 = ADVANCED_BREP_SHAPE_REPRESENTATION('',(#11,#306),#744);
#306 = MANIFOLD_SOLID_BREP('',#307);
#307 = CLOSED_SHELL('',(#308,#348,#379,#403,#427,#444,#475,#506,#537,
    #568,#592,#616,#633,#657,#679,#703,#720,#732));
#308 = ADVANCED_FACE('',(#309),#343,.F.);
#309 = FACE_BOUND('',#310,.F.);
#310 = EDGE_LOOP('',(#311,#321,#329,#337));
#311 = ORIENTED_EDGE('',*,*,#312,.F.);
#312 = EDGE_CURVE('',#313,#315,#317,.T.);
#313 = VERTEX_POINT('',#314);
#314 = CARTESIAN_POINT('',(-1.185,-2.413,0.));
#315 = VERTEX_POINT('',#316);
#316 = CARTESIAN_POINT('',(-1.185,-2.413,0.508));
#317 = LINE('',#318,#319);
#318 = CARTESIAN_POINT('',(-1.185,-2.413,0.));
#319 = VECTOR('',#320,1.);
#320 = DIRECTION('',(0.,0.,1.));
#321 = ORIENTED_EDGE('',*,*,#322,.T.);
#322 = EDGE_CURVE('',#313,#323,#325,.T.);
#323 = VERTEX_POINT('',#324);
#324 = CARTESIAN_POINT('',(-1.185,2.413,0.));
#325 = LINE('',#326,#327);
#326 = CARTESIAN_POINT('',(-1.185,-2.413,0.));
#327 = VECTOR('',#328,1.);
#328 = DIRECTION('',(-0.,1.,0.));
#329 = ORIENTED_EDGE('',*,*,#330,.T.);
#330 = EDGE_CURVE('',#323,#331,#333,.T.);
#331 = VERTEX_POINT('',#332);
#332 = CARTESIAN_POINT('',(-1.185,2.413,0.508));
#333 = LINE('',#334,#335);
#334 = CARTESIAN_POINT('',(-1.185,2.413,0.));
#335 = VECTOR('',#336,1.);
#336 = DIRECTION('',(0.,0.,1.));
#337 = ORIENTED_EDGE('',*,*,#338,.F.);
#338 = EDGE_CURVE('',#315,#331,#339,.T.);
#339 = LINE('',#340,#341);
#340 = CARTESIAN_POINT('',(-1.185,-2.413,0.508));
#341 = VECTOR('',#342,1.);
#342 = DIRECTION('',(-0.,1.,0.));
#343 = PLANE('',#344);
#344 = AXIS2_PLACEMENT_3D('',#345,#346,#347);
#345 = CARTESIAN_POINT('',(-1.185,-2.413,0.));
#346 = DIRECTION('',(1.,0.,-0.));
#347 = DIRECTION('',(0.,0.,1.));
#348 = ADVANCED_FACE('',(#349),#374,.F.);
#349 = FACE_BOUND('',#350,.F.);
#350 = EDGE_LOOP('',(#351,#359,#360,#368));
#351 = ORIENTED_EDGE('',*,*,#352,.F.);
#352 = EDGE_CURVE('',#313,#353,#355,.T.);
#353 = VERTEX_POINT('',#354);
#354 = CARTESIAN_POINT('',(3.048,-2.413,0.));
#355 = LINE('',#356,#357);
#356 = CARTESIAN_POINT('',(-1.185,-2.413,0.));
#357 = VECTOR('',#358,1.);
#358 = DIRECTION('',(1.,0.,-0.));
#359 = ORIENTED_EDGE('',*,*,#312,.T.);
#360 = ORIENTED_EDGE('',*,*,#361,.T.);
#361 = EDGE_CURVE('',#315,#362,#364,.T.);
#362 = VERTEX_POINT('',#363);
#363 = CARTESIAN_POINT('',(3.048,-2.413,0.508));
#364 = LINE('',#365,#366);
#365 = CARTESIAN_POINT('',(-1.185,-2.413,0.508));
#366 = VECTOR('',#367,1.);
#367 = DIRECTION('',(1.,0.,-0.));
#368 = ORIENTED_EDGE('',*,*,#369,.T.);
#369 = EDGE_CURVE('',#362,#353,#370,.T.);
#370 = LINE('',#371,#372);
#371 = CARTESIAN_POINT('',(3.048,-2.413,0.));
#372 = VECTOR('',#373,1.);
#373 = DIRECTION('',(-0.,0.,-1.));
#374 = PLANE('',#375);
#375 = AXIS2_PLACEMENT_3D('',#376,#377,#378);
#376 = CARTESIAN_POINT('',(-1.185,-2.413,0.));
#377 = DIRECTION('',(-0.,1.,0.));
#378 = DIRECTION('',(0.,0.,1.));
#379 = ADVANCED_FACE('',(#380),#398,.T.);
#380 = FACE_BOUND('',#381,.T.);
#381 = EDGE_LOOP('',(#382,#390,#391,#392));
#382 = ORIENTED_EDGE('',*,*,#383,.F.);
#383 = EDGE_CURVE('',#331,#384,#386,.T.);
#384 = VERTEX_POINT('',#385);
#385 = CARTESIAN_POINT('',(3.048,2.413,0.508));
#386 = LINE('',#387,#388);
#387 = CARTESIAN_POINT('',(-1.185,2.413,0.508));
#388 = VECTOR('',#389,1.);
#389 = DIRECTION('',(1.,0.,-0.));
#390 = ORIENTED_EDGE('',*,*,#338,.F.);
#391 = ORIENTED_EDGE('',*,*,#361,.T.);
#392 = ORIENTED_EDGE('',*,*,#393,.T.);
#393 = EDGE_CURVE('',#362,#384,#394,.T.);
#394 = LINE('',#395,#396);
#395 = CARTESIAN_POINT('',(3.048,-2.67,0.508));
#396 = VECTOR('',#397,1.);
#397 = DIRECTION('',(-0.,1.,0.));
#398 = PLANE('',#399);
#399 = AXIS2_PLACEMENT_3D('',#400,#401,#402);
#400 = CARTESIAN_POINT('',(-1.185,-2.413,0.508));
#401 = DIRECTION('',(0.,0.,1.));
#402 = DIRECTION('',(1.,0.,-0.));
#403 = ADVANCED_FACE('',(#404),#422,.T.);
#404 = FACE_BOUND('',#405,.T.);
#405 = EDGE_LOOP('',(#406,#414,#415,#416));
#406 = ORIENTED_EDGE('',*,*,#407,.F.);
#407 = EDGE_CURVE('',#323,#408,#410,.T.);
#408 = VERTEX_POINT('',#409);
#409 = CARTESIAN_POINT('',(3.048,2.413,0.));
#410 = LINE('',#411,#412);
#411 = CARTESIAN_POINT('',(-1.185,2.413,0.));
#412 = VECTOR('',#413,1.);
#413 = DIRECTION('',(1.,0.,-0.));
#414 = ORIENTED_EDGE('',*,*,#330,.T.);
#415 = ORIENTED_EDGE('',*,*,#383,.T.);
#416 = ORIENTED_EDGE('',*,*,#417,.T.);
#417 = EDGE_CURVE('',#384,#408,#418,.T.);
#418 = LINE('',#419,#420);
#419 = CARTESIAN_POINT('',(3.048,2.413,0.));
#420 = VECTOR('',#421,1.);
#421 = DIRECTION('',(-0.,0.,-1.));
#422 = PLANE('',#423);
#423 = AXIS2_PLACEMENT_3D('',#424,#425,#426);
#424 = CARTESIAN_POINT('',(-1.185,2.413,0.));
#425 = DIRECTION('',(-0.,1.,0.));
#426 = DIRECTION('',(0.,0.,1.));
#427 = ADVANCED_FACE('',(#428),#439,.F.);
#428 = FACE_BOUND('',#429,.F.);
#429 = EDGE_LOOP('',(#430,#431,#432,#433));
#430 = ORIENTED_EDGE('',*,*,#407,.F.);
#431 = ORIENTED_EDGE('',*,*,#322,.F.);
#432 = ORIENTED_EDGE('',*,*,#352,.T.);
#433 = ORIENTED_EDGE('',*,*,#434,.T.);
#434 = EDGE_CURVE('',#353,#408,#435,.T.);
#435 = LINE('',#436,#437);
#436 = CARTESIAN_POINT('',(3.048,-2.67,0.));
#437 = VECTOR('',#438,1.);
#438 = DIRECTION('',(-0.,1.,0.));
#439 = PLANE('',#440);
#440 = AXIS2_PLACEMENT_3D('',#441,#442,#443);
#441 = CARTESIAN_POINT('',(-1.185,-2.413,0.));
#442 = DIRECTION('',(0.,0.,1.));
#443 = DIRECTION('',(1.,0.,-0.));
#444 = ADVANCED_FACE('',(#445),#470,.F.);
#445 = FACE_BOUND('',#446,.F.);
#446 = EDGE_LOOP('',(#447,#455,#463,#469));
#447 = ORIENTED_EDGE('',*,*,#448,.F.);
#448 = EDGE_CURVE('',#449,#362,#451,.T.);
#449 = VERTEX_POINT('',#450);
#450 = CARTESIAN_POINT('',(3.048,-2.67,0.508));
#451 = LINE('',#452,#453);
#452 = CARTESIAN_POINT('',(3.048,-2.67,0.508));
#453 = VECTOR('',#454,1.);
#454 = DIRECTION('',(-0.,1.,0.));
#455 = ORIENTED_EDGE('',*,*,#456,.F.);
#456 = EDGE_CURVE('',#457,#449,#459,.T.);
#457 = VERTEX_POINT('',#458);
#458 = CARTESIAN_POINT('',(3.048,-2.67,0.));
#459 = LINE('',#460,#461);
#460 = CARTESIAN_POINT('',(3.048,-2.67,0.));
#461 = VECTOR('',#462,1.);
#462 = DIRECTION('',(0.,0.,1.));
#463 = ORIENTED_EDGE('',*,*,#464,.T.);
#464 = EDGE_CURVE('',#457,#353,#465,.T.);
#465 = LINE('',#466,#467);
#466 = CARTESIAN_POINT('',(3.048,-2.67,0.));
#467 = VECTOR('',#468,1.);
#468 = DIRECTION('',(-0.,1.,0.));
#469 = ORIENTED_EDGE('',*,*,#369,.F.);
#470 = PLANE('',#471);
#471 = AXIS2_PLACEMENT_3D('',#472,#473,#474);
#472 = CARTESIAN_POINT('',(3.048,-2.67,0.));
#473 = DIRECTION('',(1.,0.,-0.));
#474 = DIRECTION('',(0.,0.,1.));
#475 = ADVANCED_FACE('',(#476),#501,.T.);
#476 = FACE_BOUND('',#477,.T.);
#477 = EDGE_LOOP('',(#478,#486,#487,#495));
#478 = ORIENTED_EDGE('',*,*,#479,.F.);
#479 = EDGE_CURVE('',#384,#480,#482,.T.);
#480 = VERTEX_POINT('',#481);
#481 = CARTESIAN_POINT('',(4.064,2.413,0.508));
#482 = LINE('',#483,#484);
#483 = CARTESIAN_POINT('',(-1.185,2.413,0.508));
#484 = VECTOR('',#485,1.);
#485 = DIRECTION('',(1.,0.,-0.));
#486 = ORIENTED_EDGE('',*,*,#393,.F.);
#487 = ORIENTED_EDGE('',*,*,#488,.T.);
#488 = EDGE_CURVE('',#362,#489,#491,.T.);
#489 = VERTEX_POINT('',#490);
#490 = CARTESIAN_POINT('',(4.064,-2.413,0.508));
#491 = LINE('',#492,#493);
#492 = CARTESIAN_POINT('',(-1.185,-2.413,0.508));
#493 = VECTOR('',#494,1.);
#494 = DIRECTION('',(1.,0.,-0.));
#495 = ORIENTED_EDGE('',*,*,#496,.T.);
#496 = EDGE_CURVE('',#489,#480,#497,.T.);
#497 = LINE('',#498,#499);
#498 = CARTESIAN_POINT('',(4.064,-2.413,0.508));
#499 = VECTOR('',#500,1.);
#500 = DIRECTION('',(-0.,1.,0.));
#501 = PLANE('',#502);
#502 = AXIS2_PLACEMENT_3D('',#503,#504,#505);
#503 = CARTESIAN_POINT('',(-1.185,-2.413,0.508));
#504 = DIRECTION('',(0.,0.,1.));
#505 = DIRECTION('',(1.,0.,-0.));
#506 = ADVANCED_FACE('',(#507),#532,.F.);
#507 = FACE_BOUND('',#508,.F.);
#508 = EDGE_LOOP('',(#509,#517,#518,#526));
#509 = ORIENTED_EDGE('',*,*,#510,.F.);
#510 = EDGE_CURVE('',#384,#511,#513,.T.);
#511 = VERTEX_POINT('',#512);
#512 = CARTESIAN_POINT('',(3.048,2.67,0.508));
#513 = LINE('',#514,#515);
#514 = CARTESIAN_POINT('',(3.048,-2.67,0.508));
#515 = VECTOR('',#516,1.);
#516 = DIRECTION('',(-0.,1.,0.));
#517 = ORIENTED_EDGE('',*,*,#417,.T.);
#518 = ORIENTED_EDGE('',*,*,#519,.T.);
#519 = EDGE_CURVE('',#408,#520,#522,.T.);
#520 = VERTEX_POINT('',#521);
#521 = CARTESIAN_POINT('',(3.048,2.67,0.));
#522 = LINE('',#523,#524);
#523 = CARTESIAN_POINT('',(3.048,-2.67,0.));
#524 = VECTOR('',#525,1.);
#525 = DIRECTION('',(-0.,1.,0.));
#526 = ORIENTED_EDGE('',*,*,#527,.T.);
#527 = EDGE_CURVE('',#520,#511,#528,.T.);
#528 = LINE('',#529,#530);
#529 = CARTESIAN_POINT('',(3.048,2.67,0.));
#530 = VECTOR('',#531,1.);
#531 = DIRECTION('',(0.,0.,1.));
#532 = PLANE('',#533);
#533 = AXIS2_PLACEMENT_3D('',#534,#535,#536);
#534 = CARTESIAN_POINT('',(3.048,-2.67,0.));
#535 = DIRECTION('',(1.,0.,-0.));
#536 = DIRECTION('',(0.,0.,1.));
#537 = ADVANCED_FACE('',(#538),#563,.F.);
#538 = FACE_BOUND('',#539,.F.);
#539 = EDGE_LOOP('',(#540,#548,#549,#557));
#540 = ORIENTED_EDGE('',*,*,#541,.F.);
#541 = EDGE_CURVE('',#408,#542,#544,.T.);
#542 = VERTEX_POINT('',#543);
#543 = CARTESIAN_POINT('',(4.064,2.413,0.));
#544 = LINE('',#545,#546);
#545 = CARTESIAN_POINT('',(-1.185,2.413,0.));
#546 = VECTOR('',#547,1.);
#547 = DIRECTION('',(1.,0.,-0.));
#548 = ORIENTED_EDGE('',*,*,#434,.F.);
#549 = ORIENTED_EDGE('',*,*,#550,.T.);
#550 = EDGE_CURVE('',#353,#551,#553,.T.);
#551 = VERTEX_POINT('',#552);
#552 = CARTESIAN_POINT('',(4.064,-2.413,0.));
#553 = LINE('',#554,#555);
#554 = CARTESIAN_POINT('',(-1.185,-2.413,0.));
#555 = VECTOR('',#556,1.);
#556 = DIRECTION('',(1.,0.,-0.));
#557 = ORIENTED_EDGE('',*,*,#558,.T.);
#558 = EDGE_CURVE('',#551,#542,#559,.T.);
#559 = LINE('',#560,#561);
#560 = CARTESIAN_POINT('',(4.064,-2.413,0.));
#561 = VECTOR('',#562,1.);
#562 = DIRECTION('',(-0.,1.,0.));
#563 = PLANE('',#564);
#564 = AXIS2_PLACEMENT_3D('',#565,#566,#567);
#565 = CARTESIAN_POINT('',(-1.185,-2.413,0.));
#566 = DIRECTION('',(0.,0.,1.));
#567 = DIRECTION('',(1.,0.,-0.));
#568 = ADVANCED_FACE('',(#569),#587,.T.);
#569 = FACE_BOUND('',#570,.T.);
#570 = EDGE_LOOP('',(#571,#572,#580,#586));
#571 = ORIENTED_EDGE('',*,*,#448,.F.);
#572 = ORIENTED_EDGE('',*,*,#573,.T.);
#573 = EDGE_CURVE('',#449,#574,#576,.T.);
#574 = VERTEX_POINT('',#575);
#575 = CARTESIAN_POINT('',(4.064,-2.67,0.508));
#576 = LINE('',#577,#578);
#577 = CARTESIAN_POINT('',(3.048,-2.67,0.508));
#578 = VECTOR('',#579,1.);
#579 = DIRECTION('',(1.,0.,-0.));
#580 = ORIENTED_EDGE('',*,*,#581,.T.);
#581 = EDGE_CURVE('',#574,#489,#582,.T.);
#582 = LINE('',#583,#584);
#583 = CARTESIAN_POINT('',(4.064,-2.67,0.508));
#584 = VECTOR('',#585,1.);
#585 = DIRECTION('',(-0.,1.,0.));
#586 = ORIENTED_EDGE('',*,*,#488,.F.);
#587 = PLANE('',#588);
#588 = AXIS2_PLACEMENT_3D('',#589,#590,#591);
#589 = CARTESIAN_POINT('',(3.048,-2.67,0.508));
#590 = DIRECTION('',(0.,0.,1.));
#591 = DIRECTION('',(1.,0.,-0.));
#592 = ADVANCED_FACE('',(#593),#611,.F.);
#593 = FACE_BOUND('',#594,.F.);
#594 = EDGE_LOOP('',(#595,#596,#604,#610));
#595 = ORIENTED_EDGE('',*,*,#464,.F.);
#596 = ORIENTED_EDGE('',*,*,#597,.T.);
#597 = EDGE_CURVE('',#457,#598,#600,.T.);
#598 = VERTEX_POINT('',#599);
#599 = CARTESIAN_POINT('',(4.064,-2.67,0.));
#600 = LINE('',#601,#602);
#601 = CARTESIAN_POINT('',(3.048,-2.67,0.));
#602 = VECTOR('',#603,1.);
#603 = DIRECTION('',(1.,0.,-0.));
#604 = ORIENTED_EDGE('',*,*,#605,.T.);
#605 = EDGE_CURVE('',#598,#551,#606,.T.);
#606 = LINE('',#607,#608);
#607 = CARTESIAN_POINT('',(4.064,-2.67,0.));
#608 = VECTOR('',#609,1.);
#609 = DIRECTION('',(-0.,1.,0.));
#610 = ORIENTED_EDGE('',*,*,#550,.F.);
#611 = PLANE('',#612);
#612 = AXIS2_PLACEMENT_3D('',#613,#614,#615);
#613 = CARTESIAN_POINT('',(3.048,-2.67,0.));
#614 = DIRECTION('',(0.,0.,1.));
#615 = DIRECTION('',(1.,0.,-0.));
#616 = ADVANCED_FACE('',(#617),#628,.F.);
#617 = FACE_BOUND('',#618,.F.);
#618 = EDGE_LOOP('',(#619,#620,#621,#622));
#619 = ORIENTED_EDGE('',*,*,#597,.F.);
#620 = ORIENTED_EDGE('',*,*,#456,.T.);
#621 = ORIENTED_EDGE('',*,*,#573,.T.);
#622 = ORIENTED_EDGE('',*,*,#623,.F.);
#623 = EDGE_CURVE('',#598,#574,#624,.T.);
#624 = LINE('',#625,#626);
#625 = CARTESIAN_POINT('',(4.064,-2.67,0.));
#626 = VECTOR('',#627,1.);
#627 = DIRECTION('',(0.,0.,1.));
#628 = PLANE('',#629);
#629 = AXIS2_PLACEMENT_3D('',#630,#631,#632);
#630 = CARTESIAN_POINT('',(3.048,-2.67,0.));
#631 = DIRECTION('',(-0.,1.,0.));
#632 = DIRECTION('',(0.,0.,1.));
#633 = ADVANCED_FACE('',(#634),#652,.T.);
#634 = FACE_BOUND('',#635,.T.);
#635 = EDGE_LOOP('',(#636,#637,#638,#646));
#636 = ORIENTED_EDGE('',*,*,#510,.F.);
#637 = ORIENTED_EDGE('',*,*,#479,.T.);
#638 = ORIENTED_EDGE('',*,*,#639,.T.);
#639 = EDGE_CURVE('',#480,#640,#642,.T.);
#640 = VERTEX_POINT('',#641);
#641 = CARTESIAN_POINT('',(4.064,2.67,0.508));
#642 = LINE('',#643,#644);
#643 = CARTESIAN_POINT('',(4.064,-2.67,0.508));
#644 = VECTOR('',#645,1.);
#645 = DIRECTION('',(-0.,1.,0.));
#646 = ORIENTED_EDGE('',*,*,#647,.F.);
#647 = EDGE_CURVE('',#511,#640,#648,.T.);
#648 = LINE('',#649,#650);
#649 = CARTESIAN_POINT('',(3.048,2.67,0.508));
#650 = VECTOR('',#651,1.);
#651 = DIRECTION('',(1.,0.,-0.));
#652 = PLANE('',#653);
#653 = AXIS2_PLACEMENT_3D('',#654,#655,#656);
#654 = CARTESIAN_POINT('',(3.048,-2.67,0.508));
#655 = DIRECTION('',(0.,0.,1.));
#656 = DIRECTION('',(1.,0.,-0.));
#657 = ADVANCED_FACE('',(#658),#674,.T.);
#658 = FACE_BOUND('',#659,.T.);
#659 = EDGE_LOOP('',(#660,#666,#667,#673));
#660 = ORIENTED_EDGE('',*,*,#661,.F.);
#661 = EDGE_CURVE('',#551,#489,#662,.T.);
#662 = LINE('',#663,#664);
#663 = CARTESIAN_POINT('',(4.064,-2.413,0.));
#664 = VECTOR('',#665,1.);
#665 = DIRECTION('',(0.,0.,1.));
#666 = ORIENTED_EDGE('',*,*,#558,.T.);
#667 = ORIENTED_EDGE('',*,*,#668,.T.);
#668 = EDGE_CURVE('',#542,#480,#669,.T.);
#669 = LINE('',#670,#671);
#670 = CARTESIAN_POINT('',(4.064,2.413,0.));
#671 = VECTOR('',#672,1.);
#672 = DIRECTION('',(0.,0.,1.));
#673 = ORIENTED_EDGE('',*,*,#496,.F.);
#674 = PLANE('',#675);
#675 = AXIS2_PLACEMENT_3D('',#676,#677,#678);
#676 = CARTESIAN_POINT('',(4.064,-2.413,0.));
#677 = DIRECTION('',(1.,0.,-0.));
#678 = DIRECTION('',(0.,0.,1.));
#679 = ADVANCED_FACE('',(#680),#698,.T.);
#680 = FACE_BOUND('',#681,.T.);
#681 = EDGE_LOOP('',(#682,#690,#691,#692));
#682 = ORIENTED_EDGE('',*,*,#683,.F.);
#683 = EDGE_CURVE('',#520,#684,#686,.T.);
#684 = VERTEX_POINT('',#685);
#685 = CARTESIAN_POINT('',(4.064,2.67,0.));
#686 = LINE('',#687,#688);
#687 = CARTESIAN_POINT('',(3.048,2.67,0.));
#688 = VECTOR('',#689,1.);
#689 = DIRECTION('',(1.,0.,-0.));
#690 = ORIENTED_EDGE('',*,*,#527,.T.);
#691 = ORIENTED_EDGE('',*,*,#647,.T.);
#692 = ORIENTED_EDGE('',*,*,#693,.F.);
#693 = EDGE_CURVE('',#684,#640,#694,.T.);
#694 = LINE('',#695,#696);
#695 = CARTESIAN_POINT('',(4.064,2.67,0.));
#696 = VECTOR('',#697,1.);
#697 = DIRECTION('',(0.,0.,1.));
#698 = PLANE('',#699);
#699 = AXIS2_PLACEMENT_3D('',#700,#701,#702);
#700 = CARTESIAN_POINT('',(3.048,2.67,0.));
#701 = DIRECTION('',(-0.,1.,0.));
#702 = DIRECTION('',(0.,0.,1.));
#703 = ADVANCED_FACE('',(#704),#715,.F.);
#704 = FACE_BOUND('',#705,.F.);
#705 = EDGE_LOOP('',(#706,#707,#708,#714));
#706 = ORIENTED_EDGE('',*,*,#519,.F.);
#707 = ORIENTED_EDGE('',*,*,#541,.T.);
#708 = ORIENTED_EDGE('',*,*,#709,.T.);
#709 = EDGE_CURVE('',#542,#684,#710,.T.);
#710 = LINE('',#711,#712);
#711 = CARTESIAN_POINT('',(4.064,-2.67,0.));
#712 = VECTOR('',#713,1.);
#713 = DIRECTION('',(-0.,1.,0.));
#714 = ORIENTED_EDGE('',*,*,#683,.F.);
#715 = PLANE('',#716);
#716 = AXIS2_PLACEMENT_3D('',#717,#718,#719);
#717 = CARTESIAN_POINT('',(3.048,-2.67,0.));
#718 = DIRECTION('',(0.,0.,1.));
#719 = DIRECTION('',(1.,0.,-0.));
#720 = ADVANCED_FACE('',(#721),#727,.T.);
#721 = FACE_BOUND('',#722,.T.);
#722 = EDGE_LOOP('',(#723,#724,#725,#726));
#723 = ORIENTED_EDGE('',*,*,#581,.F.);
#724 = ORIENTED_EDGE('',*,*,#623,.F.);
#725 = ORIENTED_EDGE('',*,*,#605,.T.);
#726 = ORIENTED_EDGE('',*,*,#661,.T.);
#727 = PLANE('',#728);
#728 = AXIS2_PLACEMENT_3D('',#729,#730,#731);
#729 = CARTESIAN_POINT('',(4.064,-2.67,0.));
#730 = DIRECTION('',(1.,0.,-0.));
#731 = DIRECTION('',(0.,0.,1.));
#732 = ADVANCED_FACE('',(#733),#739,.T.);
#733 = FACE_BOUND('',#734,.T.);
#734 = EDGE_LOOP('',(#735,#736,#737,#738));
#735 = ORIENTED_EDGE('',*,*,#639,.F.);
#736 = ORIENTED_EDGE('',*,*,#668,.F.);
#737 = ORIENTED_EDGE('',*,*,#709,.T.);
#738 = ORIENTED_EDGE('',*,*,#693,.T.);
#739 = PLANE('',#740);
#740 = AXIS2_PLACEMENT_3D('',#741,#742,#743);
#741 = CARTESIAN_POINT('',(4.064,-2.67,0.));
#742 = DIRECTION('',(1.,0.,-0.));
#743 = DIRECTION('',(0.,0.,1.));
#744 = ( GEOMETRIC_REPRESENTATION_CONTEXT(3) 
GLOBAL_UNCERTAINTY_ASSIGNED_CONTEXT((#748)) GLOBAL_UNIT_ASSIGNED_CONTEXT
((#745,#746,#747)) REPRESENTATION_CONTEXT('Context #1',
  '3D Context with UNIT and UNCERTAINTY') );
#745 = ( LENGTH_UNIT() NAMED_UNIT(*) SI_UNIT(.MILLI.,.METRE.) );
#746 = ( NAMED_UNIT(*) PLANE_ANGLE_UNIT() SI_UNIT($,.RADIAN.) );
#747 = ( NAMED_UNIT(*) SI_UNIT($,.STERADIAN.) SOLID_ANGLE_UNIT() );
#748 = UNCERTAINTY_MEASURE_WITH_UNIT(LENGTH_MEASURE(1.E-07),#745,
  'distance_accuracy_value','confusion accuracy');
#749 = CONTEXT_DEPENDENT_SHAPE_REPRESENTATION(#750,#752);
#750 = ( REPRESENTATION_RELATIONSHIP('','',#305,#10) 
REPRESENTATION_RELATIONSHIP_WITH_TRANSFORMATION(#751) 
SHAPE_REPRESENTATION_RELATIONSHIP() );
#751 = ITEM_DEFINED_TRANSFORMATION('','',#11,#19);
#752 = PRODUCT_DEFINITION_SHAPE('Placement','Placement of an item',#753
  );
#753 = NEXT_ASSEMBLY_USAGE_OCCURRENCE('96','Drain_tab_2','',#5,#300,$);
#754 = PRODUCT_RELATED_PRODUCT_CATEGORY('part',$,(#302));
#755 = SHAPE_DEFINITION_REPRESENTATION(#756,#762);
#756 = PRODUCT_DEFINITION_SHAPE('','',#757);
#757 = PRODUCT_DEFINITION('design','',#758,#761);
#758 = PRODUCT_DEFINITION_FORMATION('','',#759);
#759 = PRODUCT('Gate_1','Gate_1','',(#760));
#760 = PRODUCT_CONTEXT('',#2,'mechanical');
#761 = PRODUCT_DEFINITION_CONTEXT('part definition',#2,'design');
#762 = ADVANCED_BREP_SHAPE_REPRESENTATION('',(#11,#763),#1045);
#763 = MANIFOLD_SOLID_BREP('',#764);
#764 = CLOSED_SHELL('',(#765,#805,#836,#867,#898,#929,#960,#991,#1013,
    #1029));
#765 = ADVANCED_FACE('',(#766),#800,.T.);
#766 = FACE_BOUND('',#767,.T.);
#767 = EDGE_LOOP('',(#768,#778,#786,#794));
#768 = ORIENTED_EDGE('',*,*,#769,.T.);
#769 = EDGE_CURVE('',#770,#772,#774,.T.);
#770 = VERTEX_POINT('',#771);
#771 = CARTESIAN_POINT('',(-2.99,1.905,1.1));
#772 = VERTEX_POINT('',#773);
#773 = CARTESIAN_POINT('',(-2.99,2.667,1.1));
#774 = LINE('',#775,#776);
#775 = CARTESIAN_POINT('',(-2.99,1.905,1.1));
#776 = VECTOR('',#777,1.);
#777 = DIRECTION('',(0.,1.,0.));
#778 = ORIENTED_EDGE('',*,*,#779,.T.);
#779 = EDGE_CURVE('',#772,#780,#782,.T.);
#780 = VERTEX_POINT('',#781);
#781 = CARTESIAN_POINT('',(-3.25,2.667,1.1));
#782 = LINE('',#783,#784);
#783 = CARTESIAN_POINT('',(-2.99,2.667,1.1));
#784 = VECTOR('',#785,1.);
#785 = DIRECTION('',(-1.,0.,0.));
#786 = ORIENTED_EDGE('',*,*,#787,.F.);
#787 = EDGE_CURVE('',#788,#780,#790,.T.);
#788 = VERTEX_POINT('',#789);
#789 = CARTESIAN_POINT('',(-3.25,1.905,1.1));
#790 = LINE('',#791,#792);
#791 = CARTESIAN_POINT('',(-3.25,1.905,1.1));
#792 = VECTOR('',#793,1.);
#793 = DIRECTION('',(0.,1.,0.));
#794 = ORIENTED_EDGE('',*,*,#795,.F.);
#795 = EDGE_CURVE('',#770,#788,#796,.T.);
#796 = LINE('',#797,#798);
#797 = CARTESIAN_POINT('',(-2.99,1.905,1.1));
#798 = VECTOR('',#799,1.);
#799 = DIRECTION('',(-1.,0.,0.));
#800 = PLANE('',#801);
#801 = AXIS2_PLACEMENT_3D('',#802,#803,#804);
#802 = CARTESIAN_POINT('',(-2.99,1.905,1.1));
#803 = DIRECTION('',(0.,-0.,1.));
#804 = DIRECTION('',(-1.,0.,0.));
#805 = ADVANCED_FACE('',(#806),#831,.T.);
#806 = FACE_BOUND('',#807,.T.);
#807 = EDGE_LOOP('',(#808,#809,#817,#825));
#808 = ORIENTED_EDGE('',*,*,#787,.T.);
#809 = ORIENTED_EDGE('',*,*,#810,.T.);
#810 = EDGE_CURVE('',#780,#811,#813,.T.);
#811 = VERTEX_POINT('',#812);
#812 = CARTESIAN_POINT('',(-4.449,2.667,0.508));
#813 = LINE('',#814,#815);
#814 = CARTESIAN_POINT('',(-3.25,2.667,1.1));
#815 = VECTOR('',#816,1.);
#816 = DIRECTION('',(-0.896659454197,0.,-0.442720931513));
#817 = ORIENTED_EDGE('',*,*,#818,.F.);
#818 = EDGE_CURVE('',#819,#811,#821,.T.);
#819 = VERTEX_POINT('',#820);
#820 = CARTESIAN_POINT('',(-4.449,1.905,0.508));
#821 = LINE('',#822,#823);
#822 = CARTESIAN_POINT('',(-4.449,1.905,0.508));
#823 = VECTOR('',#824,1.);
#824 = DIRECTION('',(0.,1.,0.));
#825 = ORIENTED_EDGE('',*,*,#826,.F.);
#826 = EDGE_CURVE('',#788,#819,#827,.T.);
#827 = LINE('',#828,#829);
#828 = CARTESIAN_POINT('',(-3.25,1.905,1.1));
#829 = VECTOR('',#830,1.);
#830 = DIRECTION('',(-0.896659454197,0.,-0.442720931513));
#831 = PLANE('',#832);
#832 = AXIS2_PLACEMENT_3D('',#833,#834,#835);
#833 = CARTESIAN_POINT('',(-3.25,1.905,1.1));
#834 = DIRECTION('',(-0.442720931513,0.,0.896659454197));
#835 = DIRECTION('',(-0.896659454197,0.,-0.442720931513));
#836 = ADVANCED_FACE('',(#837),#862,.T.);
#837 = FACE_BOUND('',#838,.T.);
#838 = EDGE_LOOP('',(#839,#840,#848,#856));
#839 = ORIENTED_EDGE('',*,*,#818,.T.);
#840 = ORIENTED_EDGE('',*,*,#841,.T.);
#841 = EDGE_CURVE('',#811,#842,#844,.T.);
#842 = VERTEX_POINT('',#843);
#843 = CARTESIAN_POINT('',(-5.969,2.667,0.508));
#844 = LINE('',#845,#846);
#845 = CARTESIAN_POINT('',(-4.449,2.667,0.508));
#846 = VECTOR('',#847,1.);
#847 = DIRECTION('',(-1.,0.,0.));
#848 = ORIENTED_EDGE('',*,*,#849,.F.);
#849 = EDGE_CURVE('',#850,#842,#852,.T.);
#850 = VERTEX_POINT('',#851);
#851 = CARTESIAN_POINT('',(-5.969,1.905,0.508));
#852 = LINE('',#853,#854);
#853 = CARTESIAN_POINT('',(-5.969,1.905,0.508));
#854 = VECTOR('',#855,1.);
#855 = DIRECTION('',(0.,1.,0.));
#856 = ORIENTED_EDGE('',*,*,#857,.F.);
#857 = EDGE_CURVE('',#819,#850,#858,.T.);
#858 = LINE('',#859,#860);
#859 = CARTESIAN_POINT('',(-4.449,1.905,0.508));
#860 = VECTOR('',#861,1.);
#861 = DIRECTION('',(-1.,0.,0.));
#862 = PLANE('',#863);
#863 = AXIS2_PLACEMENT_3D('',#864,#865,#866);
#864 = CARTESIAN_POINT('',(-4.449,1.905,0.508));
#865 = DIRECTION('',(0.,-0.,1.));
#866 = DIRECTION('',(-1.,0.,0.));
#867 = ADVANCED_FACE('',(#868),#893,.T.);
#868 = FACE_BOUND('',#869,.T.);
#869 = EDGE_LOOP('',(#870,#871,#879,#887));
#870 = ORIENTED_EDGE('',*,*,#849,.T.);
#871 = ORIENTED_EDGE('',*,*,#872,.T.);
#872 = EDGE_CURVE('',#842,#873,#875,.T.);
#873 = VERTEX_POINT('',#874);
#874 = CARTESIAN_POINT('',(-5.969,2.667,0.));
#875 = LINE('',#876,#877);
#876 = CARTESIAN_POINT('',(-5.969,2.667,0.508));
#877 = VECTOR('',#878,1.);
#878 = DIRECTION('',(0.,0.,-1.));
#879 = ORIENTED_EDGE('',*,*,#880,.F.);
#880 = EDGE_CURVE('',#881,#873,#883,.T.);
#881 = VERTEX_POINT('',#882);
#882 = CARTESIAN_POINT('',(-5.969,1.905,0.));
#883 = LINE('',#884,#885);
#884 = CARTESIAN_POINT('',(-5.969,1.905,0.));
#885 = VECTOR('',#886,1.);
#886 = DIRECTION('',(0.,1.,0.));
#887 = ORIENTED_EDGE('',*,*,#888,.F.);
#888 = EDGE_CURVE('',#850,#881,#889,.T.);
#889 = LINE('',#890,#891);
#890 = CARTESIAN_POINT('',(-5.969,1.905,0.508));
#891 = VECTOR('',#892,1.);
#892 = DIRECTION('',(0.,0.,-1.));
#893 = PLANE('',#894);
#894 = AXIS2_PLACEMENT_3D('',#895,#896,#897);
#895 = CARTESIAN_POINT('',(-5.969,1.905,0.508));
#896 = DIRECTION('',(-1.,0.,0.));
#897 = DIRECTION('',(0.,0.,-1.));
#898 = ADVANCED_FACE('',(#899),#924,.T.);
#899 = FACE_BOUND('',#900,.T.);
#900 = EDGE_LOOP('',(#901,#902,#910,#918));
#901 = ORIENTED_EDGE('',*,*,#880,.T.);
#902 = ORIENTED_EDGE('',*,*,#903,.T.);
#903 = EDGE_CURVE('',#873,#904,#906,.T.);
#904 = VERTEX_POINT('',#905);
#905 = CARTESIAN_POINT('',(-4.449,2.667,0.));
#906 = LINE('',#907,#908);
#907 = CARTESIAN_POINT('',(-5.969,2.667,0.));
#908 = VECTOR('',#909,1.);
#909 = DIRECTION('',(1.,0.,0.));
#910 = ORIENTED_EDGE('',*,*,#911,.F.);
#911 = EDGE_CURVE('',#912,#904,#914,.T.);
#912 = VERTEX_POINT('',#913);
#913 = CARTESIAN_POINT('',(-4.449,1.905,0.));
#914 = LINE('',#915,#916);
#915 = CARTESIAN_POINT('',(-4.449,1.905,0.));
#916 = VECTOR('',#917,1.);
#917 = DIRECTION('',(0.,1.,0.));
#918 = ORIENTED_EDGE('',*,*,#919,.F.);
#919 = EDGE_CURVE('',#881,#912,#920,.T.);
#920 = LINE('',#921,#922);
#921 = CARTESIAN_POINT('',(-5.969,1.905,0.));
#922 = VECTOR('',#923,1.);
#923 = DIRECTION('',(1.,0.,0.));
#924 = PLANE('',#925);
#925 = AXIS2_PLACEMENT_3D('',#926,#927,#928);
#926 = CARTESIAN_POINT('',(-5.969,1.905,0.));
#927 = DIRECTION('',(0.,0.,-1.));
#928 = DIRECTION('',(1.,0.,0.));
#929 = ADVANCED_FACE('',(#930),#955,.T.);
#930 = FACE_BOUND('',#931,.T.);
#931 = EDGE_LOOP('',(#932,#933,#941,#949));
#932 = ORIENTED_EDGE('',*,*,#911,.T.);
#933 = ORIENTED_EDGE('',*,*,#934,.T.);
#934 = EDGE_CURVE('',#904,#935,#937,.T.);
#935 = VERTEX_POINT('',#936);
#936 = CARTESIAN_POINT('',(-3.05,2.667,0.592));
#937 = LINE('',#938,#939);
#938 = CARTESIAN_POINT('',(-4.449,2.667,0.));
#939 = VECTOR('',#940,1.);
#940 = DIRECTION('',(0.920939992369,0.,0.389704414212));
#941 = ORIENTED_EDGE('',*,*,#942,.F.);
#942 = EDGE_CURVE('',#943,#935,#945,.T.);
#943 = VERTEX_POINT('',#944);
#944 = CARTESIAN_POINT('',(-3.05,1.905,0.592));
#945 = LINE('',#946,#947);
#946 = CARTESIAN_POINT('',(-3.05,1.905,0.592));
#947 = VECTOR('',#948,1.);
#948 = DIRECTION('',(0.,1.,0.));
#949 = ORIENTED_EDGE('',*,*,#950,.F.);
#950 = EDGE_CURVE('',#912,#943,#951,.T.);
#951 = LINE('',#952,#953);
#952 = CARTESIAN_POINT('',(-4.449,1.905,0.));
#953 = VECTOR('',#954,1.);
#954 = DIRECTION('',(0.920939992369,0.,0.389704414212));
#955 = PLANE('',#956);
#956 = AXIS2_PLACEMENT_3D('',#957,#958,#959);
#957 = CARTESIAN_POINT('',(-4.449,1.905,0.));
#958 = DIRECTION('',(0.389704414212,0.,-0.920939992369));
#959 = DIRECTION('',(0.920939992369,0.,0.389704414212));
#960 = ADVANCED_FACE('',(#961),#986,.T.);
#961 = FACE_BOUND('',#962,.T.);
#962 = EDGE_LOOP('',(#963,#964,#972,#980));
#963 = ORIENTED_EDGE('',*,*,#942,.T.);
#964 = ORIENTED_EDGE('',*,*,#965,.T.);
#965 = EDGE_CURVE('',#935,#966,#968,.T.);
#966 = VERTEX_POINT('',#967);
#967 = CARTESIAN_POINT('',(-2.99,2.667,0.592));
#968 = LINE('',#969,#970);
#969 = CARTESIAN_POINT('',(-3.05,2.667,0.592));
#970 = VECTOR('',#971,1.);
#971 = DIRECTION('',(1.,0.,0.));
#972 = ORIENTED_EDGE('',*,*,#973,.F.);
#973 = EDGE_CURVE('',#974,#966,#976,.T.);
#974 = VERTEX_POINT('',#975);
#975 = CARTESIAN_POINT('',(-2.99,1.905,0.592));
#976 = LINE('',#977,#978);
#977 = CARTESIAN_POINT('',(-2.99,1.905,0.592));
#978 = VECTOR('',#979,1.);
#979 = DIRECTION('',(0.,1.,0.));
#980 = ORIENTED_EDGE('',*,*,#981,.F.);
#981 = EDGE_CURVE('',#943,#974,#982,.T.);
#982 = LINE('',#983,#984);
#983 = CARTESIAN_POINT('',(-3.05,1.905,0.592));
#984 = VECTOR('',#985,1.);
#985 = DIRECTION('',(1.,0.,0.));
#986 = PLANE('',#987);
#987 = AXIS2_PLACEMENT_3D('',#988,#989,#990);
#988 = CARTESIAN_POINT('',(-3.05,1.905,0.592));
#989 = DIRECTION('',(0.,0.,-1.));
#990 = DIRECTION('',(1.,0.,0.));
#991 = ADVANCED_FACE('',(#992),#1008,.T.);
#992 = FACE_BOUND('',#993,.T.);
#993 = EDGE_LOOP('',(#994,#995,#1001,#1002));
#994 = ORIENTED_EDGE('',*,*,#973,.T.);
#995 = ORIENTED_EDGE('',*,*,#996,.T.);
#996 = EDGE_CURVE('',#966,#772,#997,.T.);
#997 = LINE('',#998,#999);
#998 = CARTESIAN_POINT('',(-2.99,2.667,0.592));
#999 = VECTOR('',#1000,1.);
#1000 = DIRECTION('',(0.,0.,1.));
#1001 = ORIENTED_EDGE('',*,*,#769,.F.);
#1002 = ORIENTED_EDGE('',*,*,#1003,.F.);
#1003 = EDGE_CURVE('',#974,#770,#1004,.T.);
#1004 = LINE('',#1005,#1006);
#1005 = CARTESIAN_POINT('',(-2.99,1.905,0.592));
#1006 = VECTOR('',#1007,1.);
#1007 = DIRECTION('',(0.,0.,1.));
#1008 = PLANE('',#1009);
#1009 = AXIS2_PLACEMENT_3D('',#1010,#1011,#1012);
#1010 = CARTESIAN_POINT('',(-2.99,1.905,0.592));
#1011 = DIRECTION('',(1.,0.,0.));
#1012 = DIRECTION('',(0.,0.,1.));
#1013 = ADVANCED_FACE('',(#1014),#1024,.T.);
#1014 = FACE_BOUND('',#1015,.T.);
#1015 = EDGE_LOOP('',(#1016,#1017,#1018,#1019,#1020,#1021,#1022,#1023));
#1016 = ORIENTED_EDGE('',*,*,#795,.T.);
#1017 = ORIENTED_EDGE('',*,*,#826,.T.);
#1018 = ORIENTED_EDGE('',*,*,#857,.T.);
#1019 = ORIENTED_EDGE('',*,*,#888,.T.);
#1020 = ORIENTED_EDGE('',*,*,#919,.T.);
#1021 = ORIENTED_EDGE('',*,*,#950,.T.);
#1022 = ORIENTED_EDGE('',*,*,#981,.T.);
#1023 = ORIENTED_EDGE('',*,*,#1003,.T.);
#1024 = PLANE('',#1025);
#1025 = AXIS2_PLACEMENT_3D('',#1026,#1027,#1028);
#1026 = CARTESIAN_POINT('',(-4.455340293469,1.905,0.439312126805));
#1027 = DIRECTION('',(-0.,-1.,-0.));
#1028 = DIRECTION('',(0.,0.,-1.));
#1029 = ADVANCED_FACE('',(#1030),#1040,.F.);
#1030 = FACE_BOUND('',#1031,.F.);
#1031 = EDGE_LOOP('',(#1032,#1033,#1034,#1035,#1036,#1037,#1038,#1039));
#1032 = ORIENTED_EDGE('',*,*,#779,.T.);
#1033 = ORIENTED_EDGE('',*,*,#810,.T.);
#1034 = ORIENTED_EDGE('',*,*,#841,.T.);
#1035 = ORIENTED_EDGE('',*,*,#872,.T.);
#1036 = ORIENTED_EDGE('',*,*,#903,.T.);
#1037 = ORIENTED_EDGE('',*,*,#934,.T.);
#1038 = ORIENTED_EDGE('',*,*,#965,.T.);
#1039 = ORIENTED_EDGE('',*,*,#996,.T.);
#1040 = PLANE('',#1041);
#1041 = AXIS2_PLACEMENT_3D('',#1042,#1043,#1044);
#1042 = CARTESIAN_POINT('',(-4.455340293469,2.667,0.439312126805));
#1043 = DIRECTION('',(-0.,-1.,-0.));
#1044 = DIRECTION('',(0.,0.,-1.));
#1045 = ( GEOMETRIC_REPRESENTATION_CONTEXT(3) 
GLOBAL_UNCERTAINTY_ASSIGNED_CONTEXT((#1049)) 
GLOBAL_UNIT_ASSIGNED_CONTEXT((#1046,#1047,#1048)) REPRESENTATION_CONTEXT
('Context #1','3D Context with UNIT and UNCERTAINTY') );
#1046 = ( LENGTH_UNIT() NAMED_UNIT(*) SI_UNIT(.MILLI.,.METRE.) );
#1047 = ( NAMED_UNIT(*) PLANE_ANGLE_UNIT() SI_UNIT($,.RADIAN.) );
#1048 = ( NAMED_UNIT(*) SI_UNIT($,.STERADIAN.) SOLID_ANGLE_UNIT() );
#1049 = UNCERTAINTY_MEASURE_WITH_UNIT(LENGTH_MEASURE(1.E-07),#1046,
  'distance_accuracy_value','confusion accuracy');
#1050 = CONTEXT_DEPENDENT_SHAPE_REPRESENTATION(#1051,#1053);
#1051 = ( REPRESENTATION_RELATIONSHIP('','',#762,#10) 
REPRESENTATION_RELATIONSHIP_WITH_TRANSFORMATION(#1052) 
SHAPE_REPRESENTATION_RELATIONSHIP() );
#1052 = ITEM_DEFINED_TRANSFORMATION('','',#11,#23);
#1053 = PRODUCT_DEFINITION_SHAPE('Placement','Placement of an item',
  #1054);
#1054 = NEXT_ASSEMBLY_USAGE_OCCURRENCE('97','Gate_1','',#5,#757,$);
#1055 = PRODUCT_RELATED_PRODUCT_CATEGORY('part',$,(#759));
#1056 = SHAPE_DEFINITION_REPRESENTATION(#1057,#1063);
#1057 = PRODUCT_DEFINITION_SHAPE('','',#1058);
#1058 = PRODUCT_DEFINITION('design','',#1059,#1062);
#1059 = PRODUCT_DEFINITION_FORMATION('','',#1060);
#1060 = PRODUCT('Source_3','Source_3','',(#1061));
#1061 = PRODUCT_CONTEXT('',#2,'mechanical');
#1062 = PRODUCT_DEFINITION_CONTEXT('part definition',#2,'design');
#1063 = ADVANCED_BREP_SHAPE_REPRESENTATION('',(#11,#1064),#1346);
#1064 = MANIFOLD_SOLID_BREP('',#1065);
#1065 = CLOSED_SHELL('',(#1066,#1106,#1137,#1168,#1199,#1230,#1261,#1292
    ,#1314,#1330));
#1066 = ADVANCED_FACE('',(#1067),#1101,.T.);
#1067 = FACE_BOUND('',#1068,.T.);
#1068 = EDGE_LOOP('',(#1069,#1079,#1087,#1095));
#1069 = ORIENTED_EDGE('',*,*,#1070,.T.);
#1070 = EDGE_CURVE('',#1071,#1073,#1075,.T.);
#1071 = VERTEX_POINT('',#1072);
#1072 = CARTESIAN_POINT('',(-2.99,-2.667,1.1));
#1073 = VERTEX_POINT('',#1074);
#1074 = CARTESIAN_POINT('',(-2.99,-1.905,1.1));
#1075 = LINE('',#1076,#1077);
#1076 = CARTESIAN_POINT('',(-2.99,-2.667,1.1));
#1077 = VECTOR('',#1078,1.);
#1078 = DIRECTION('',(0.,1.,0.));
#1079 = ORIENTED_EDGE('',*,*,#1080,.T.);
#1080 = EDGE_CURVE('',#1073,#1081,#1083,.T.);
#1081 = VERTEX_POINT('',#1082);
#1082 = CARTESIAN_POINT('',(-3.25,-1.905,1.1));
#1083 = LINE('',#1084,#1085);
#1084 = CARTESIAN_POINT('',(-2.99,-1.905,1.1));
#1085 = VECTOR('',#1086,1.);
#1086 = DIRECTION('',(-1.,0.,0.));
#1087 = ORIENTED_EDGE('',*,*,#1088,.F.);
#1088 = EDGE_CURVE('',#1089,#1081,#1091,.T.);
#1089 = VERTEX_POINT('',#1090);
#1090 = CARTESIAN_POINT('',(-3.25,-2.667,1.1));
#1091 = LINE('',#1092,#1093);
#1092 = CARTESIAN_POINT('',(-3.25,-2.667,1.1));
#1093 = VECTOR('',#1094,1.);
#1094 = DIRECTION('',(0.,1.,0.));
#1095 = ORIENTED_EDGE('',*,*,#1096,.F.);
#1096 = EDGE_CURVE('',#1071,#1089,#1097,.T.);
#1097 = LINE('',#1098,#1099);
#1098 = CARTESIAN_POINT('',(-2.99,-2.667,1.1));
#1099 = VECTOR('',#1100,1.);
#1100 = DIRECTION('',(-1.,0.,0.));
#1101 = PLANE('',#1102);
#1102 = AXIS2_PLACEMENT_3D('',#1103,#1104,#1105);
#1103 = CARTESIAN_POINT('',(-2.99,-2.667,1.1));
#1104 = DIRECTION('',(0.,-0.,1.));
#1105 = DIRECTION('',(-1.,0.,0.));
#1106 = ADVANCED_FACE('',(#1107),#1132,.T.);
#1107 = FACE_BOUND('',#1108,.T.);
#1108 = EDGE_LOOP('',(#1109,#1110,#1118,#1126));
#1109 = ORIENTED_EDGE('',*,*,#1088,.T.);
#1110 = ORIENTED_EDGE('',*,*,#1111,.T.);
#1111 = EDGE_CURVE('',#1081,#1112,#1114,.T.);
#1112 = VERTEX_POINT('',#1113);
#1113 = CARTESIAN_POINT('',(-4.449,-1.905,0.508));
#1114 = LINE('',#1115,#1116);
#1115 = CARTESIAN_POINT('',(-3.25,-1.905,1.1));
#1116 = VECTOR('',#1117,1.);
#1117 = DIRECTION('',(-0.896659454197,0.,-0.442720931513));
#1118 = ORIENTED_EDGE('',*,*,#1119,.F.);
#1119 = EDGE_CURVE('',#1120,#1112,#1122,.T.);
#1120 = VERTEX_POINT('',#1121);
#1121 = CARTESIAN_POINT('',(-4.449,-2.667,0.508));
#1122 = LINE('',#1123,#1124);
#1123 = CARTESIAN_POINT('',(-4.449,-2.667,0.508));
#1124 = VECTOR('',#1125,1.);
#1125 = DIRECTION('',(0.,1.,0.));
#1126 = ORIENTED_EDGE('',*,*,#1127,.F.);
#1127 = EDGE_CURVE('',#1089,#1120,#1128,.T.);
#1128 = LINE('',#1129,#1130);
#1129 = CARTESIAN_POINT('',(-3.25,-2.667,1.1));
#1130 = VECTOR('',#1131,1.);
#1131 = DIRECTION('',(-0.896659454197,0.,-0.442720931513));
#1132 = PLANE('',#1133);
#1133 = AXIS2_PLACEMENT_3D('',#1134,#1135,#1136);
#1134 = CARTESIAN_POINT('',(-3.25,-2.667,1.1));
#1135 = DIRECTION('',(-0.442720931513,0.,0.896659454197));
#1136 = DIRECTION('',(-0.896659454197,0.,-0.442720931513));
#1137 = ADVANCED_FACE('',(#1138),#1163,.T.);
#1138 = FACE_BOUND('',#1139,.T.);
#1139 = EDGE_LOOP('',(#1140,#1141,#1149,#1157));
#1140 = ORIENTED_EDGE('',*,*,#1119,.T.);
#1141 = ORIENTED_EDGE('',*,*,#1142,.T.);
#1142 = EDGE_CURVE('',#1112,#1143,#1145,.T.);
#1143 = VERTEX_POINT('',#1144);
#1144 = CARTESIAN_POINT('',(-5.969,-1.905,0.508));
#1145 = LINE('',#1146,#1147);
#1146 = CARTESIAN_POINT('',(-4.449,-1.905,0.508));
#1147 = VECTOR('',#1148,1.);
#1148 = DIRECTION('',(-1.,0.,0.));
#1149 = ORIENTED_EDGE('',*,*,#1150,.F.);
#1150 = EDGE_CURVE('',#1151,#1143,#1153,.T.);
#1151 = VERTEX_POINT('',#1152);
#1152 = CARTESIAN_POINT('',(-5.969,-2.667,0.508));
#1153 = LINE('',#1154,#1155);
#1154 = CARTESIAN_POINT('',(-5.969,-2.667,0.508));
#1155 = VECTOR('',#1156,1.);
#1156 = DIRECTION('',(0.,1.,0.));
#1157 = ORIENTED_EDGE('',*,*,#1158,.F.);
#1158 = EDGE_CURVE('',#1120,#1151,#1159,.T.);
#1159 = LINE('',#1160,#1161);
#1160 = CARTESIAN_POINT('',(-4.449,-2.667,0.508));
#1161 = VECTOR('',#1162,1.);
#1162 = DIRECTION('',(-1.,0.,0.));
#1163 = PLANE('',#1164);
#1164 = AXIS2_PLACEMENT_3D('',#1165,#1166,#1167);
#1165 = CARTESIAN_POINT('',(-4.449,-2.667,0.508));
#1166 = DIRECTION('',(0.,-0.,1.));
#1167 = DIRECTION('',(-1.,0.,0.));
#1168 = ADVANCED_FACE('',(#1169),#1194,.T.);
#1169 = FACE_BOUND('',#1170,.T.);
#1170 = EDGE_LOOP('',(#1171,#1172,#1180,#1188));
#1171 = ORIENTED_EDGE('',*,*,#1150,.T.);
#1172 = ORIENTED_EDGE('',*,*,#1173,.T.);
#1173 = EDGE_CURVE('',#1143,#1174,#1176,.T.);
#1174 = VERTEX_POINT('',#1175);
#1175 = CARTESIAN_POINT('',(-5.969,-1.905,0.));
#1176 = LINE('',#1177,#1178);
#1177 = CARTESIAN_POINT('',(-5.969,-1.905,0.508));
#1178 = VECTOR('',#1179,1.);
#1179 = DIRECTION('',(0.,0.,-1.));
#1180 = ORIENTED_EDGE('',*,*,#1181,.F.);
#1181 = EDGE_CURVE('',#1182,#1174,#1184,.T.);
#1182 = VERTEX_POINT('',#1183);
#1183 = CARTESIAN_POINT('',(-5.969,-2.667,0.));
#1184 = LINE('',#1185,#1186);
#1185 = CARTESIAN_POINT('',(-5.969,-2.667,0.));
#1186 = VECTOR('',#1187,1.);
#1187 = DIRECTION('',(0.,1.,0.));
#1188 = ORIENTED_EDGE('',*,*,#1189,.F.);
#1189 = EDGE_CURVE('',#1151,#1182,#1190,.T.);
#1190 = LINE('',#1191,#1192);
#1191 = CARTESIAN_POINT('',(-5.969,-2.667,0.508));
#1192 = VECTOR('',#1193,1.);
#1193 = DIRECTION('',(0.,0.,-1.));
#1194 = PLANE('',#1195);
#1195 = AXIS2_PLACEMENT_3D('',#1196,#1197,#1198);
#1196 = CARTESIAN_POINT('',(-5.969,-2.667,0.508));
#1197 = DIRECTION('',(-1.,0.,0.));
#1198 = DIRECTION('',(0.,0.,-1.));
#1199 = ADVANCED_FACE('',(#1200),#1225,.T.);
#1200 = FACE_BOUND('',#1201,.T.);
#1201 = EDGE_LOOP('',(#1202,#1203,#1211,#1219));
#1202 = ORIENTED_EDGE('',*,*,#1181,.T.);
#1203 = ORIENTED_EDGE('',*,*,#1204,.T.);
#1204 = EDGE_CURVE('',#1174,#1205,#1207,.T.);
#1205 = VERTEX_POINT('',#1206);
#1206 = CARTESIAN_POINT('',(-4.449,-1.905,0.));
#1207 = LINE('',#1208,#1209);
#1208 = CARTESIAN_POINT('',(-5.969,-1.905,0.));
#1209 = VECTOR('',#1210,1.);
#1210 = DIRECTION('',(1.,0.,0.));
#1211 = ORIENTED_EDGE('',*,*,#1212,.F.);
#1212 = EDGE_CURVE('',#1213,#1205,#1215,.T.);
#1213 = VERTEX_POINT('',#1214);
#1214 = CARTESIAN_POINT('',(-4.449,-2.667,0.));
#1215 = LINE('',#1216,#1217);
#1216 = CARTESIAN_POINT('',(-4.449,-2.667,0.));
#1217 = VECTOR('',#1218,1.);
#1218 = DIRECTION('',(0.,1.,0.));
#1219 = ORIENTED_EDGE('',*,*,#1220,.F.);
#1220 = EDGE_CURVE('',#1182,#1213,#1221,.T.);
#1221 = LINE('',#1222,#1223);
#1222 = CARTESIAN_POINT('',(-5.969,-2.667,0.));
#1223 = VECTOR('',#1224,1.);
#1224 = DIRECTION('',(1.,0.,0.));
#1225 = PLANE('',#1226);
#1226 = AXIS2_PLACEMENT_3D('',#1227,#1228,#1229);
#1227 = CARTESIAN_POINT('',(-5.969,-2.667,0.));
#1228 = DIRECTION('',(0.,0.,-1.));
#1229 = DIRECTION('',(1.,0.,0.));
#1230 = ADVANCED_FACE('',(#1231),#1256,.T.);
#1231 = FACE_BOUND('',#1232,.T.);
#1232 = EDGE_LOOP('',(#1233,#1234,#1242,#1250));
#1233 = ORIENTED_EDGE('',*,*,#1212,.T.);
#1234 = ORIENTED_EDGE('',*,*,#1235,.T.);
#1235 = EDGE_CURVE('',#1205,#1236,#1238,.T.);
#1236 = VERTEX_POINT('',#1237);
#1237 = CARTESIAN_POINT('',(-3.05,-1.905,0.592));
#1238 = LINE('',#1239,#1240);
#1239 = CARTESIAN_POINT('',(-4.449,-1.905,0.));
#1240 = VECTOR('',#1241,1.);
#1241 = DIRECTION('',(0.920939992369,0.,0.389704414212));
#1242 = ORIENTED_EDGE('',*,*,#1243,.F.);
#1243 = EDGE_CURVE('',#1244,#1236,#1246,.T.);
#1244 = VERTEX_POINT('',#1245);
#1245 = CARTESIAN_POINT('',(-3.05,-2.667,0.592));
#1246 = LINE('',#1247,#1248);
#1247 = CARTESIAN_POINT('',(-3.05,-2.667,0.592));
#1248 = VECTOR('',#1249,1.);
#1249 = DIRECTION('',(0.,1.,0.));
#1250 = ORIENTED_EDGE('',*,*,#1251,.F.);
#1251 = EDGE_CURVE('',#1213,#1244,#1252,.T.);
#1252 = LINE('',#1253,#1254);
#1253 = CARTESIAN_POINT('',(-4.449,-2.667,0.));
#1254 = VECTOR('',#1255,1.);
#1255 = DIRECTION('',(0.920939992369,0.,0.389704414212));
#1256 = PLANE('',#1257);
#1257 = AXIS2_PLACEMENT_3D('',#1258,#1259,#1260);
#1258 = CARTESIAN_POINT('',(-4.449,-2.667,0.));
#1259 = DIRECTION('',(0.389704414212,0.,-0.920939992369));
#1260 = DIRECTION('',(0.920939992369,0.,0.389704414212));
#1261 = ADVANCED_FACE('',(#1262),#1287,.T.);
#1262 = FACE_BOUND('',#1263,.T.);
#1263 = EDGE_LOOP('',(#1264,#1265,#1273,#1281));
#1264 = ORIENTED_EDGE('',*,*,#1243,.T.);
#1265 = ORIENTED_EDGE('',*,*,#1266,.T.);
#1266 = EDGE_CURVE('',#1236,#1267,#1269,.T.);
#1267 = VERTEX_POINT('',#1268);
#1268 = CARTESIAN_POINT('',(-2.99,-1.905,0.592));
#1269 = LINE('',#1270,#1271);
#1270 = CARTESIAN_POINT('',(-3.05,-1.905,0.592));
#1271 = VECTOR('',#1272,1.);
#1272 = DIRECTION('',(1.,0.,0.));
#1273 = ORIENTED_EDGE('',*,*,#1274,.F.);
#1274 = EDGE_CURVE('',#1275,#1267,#1277,.T.);
#1275 = VERTEX_POINT('',#1276);
#1276 = CARTESIAN_POINT('',(-2.99,-2.667,0.592));
#1277 = LINE('',#1278,#1279);
#1278 = CARTESIAN_POINT('',(-2.99,-2.667,0.592));
#1279 = VECTOR('',#1280,1.);
#1280 = DIRECTION('',(0.,1.,0.));
#1281 = ORIENTED_EDGE('',*,*,#1282,.F.);
#1282 = EDGE_CURVE('',#1244,#1275,#1283,.T.);
#1283 = LINE('',#1284,#1285);
#1284 = CARTESIAN_POINT('',(-3.05,-2.667,0.592));
#1285 = VECTOR('',#1286,1.);
#1286 = DIRECTION('',(1.,0.,0.));
#1287 = PLANE('',#1288);
#1288 = AXIS2_PLACEMENT_3D('',#1289,#1290,#1291);
#1289 = CARTESIAN_POINT('',(-3.05,-2.667,0.592));
#1290 = DIRECTION('',(0.,0.,-1.));
#1291 = DIRECTION('',(1.,0.,0.));
#1292 = ADVANCED_FACE('',(#1293),#1309,.T.);
#1293 = FACE_BOUND('',#1294,.T.);
#1294 = EDGE_LOOP('',(#1295,#1296,#1302,#1303));
#1295 = ORIENTED_EDGE('',*,*,#1274,.T.);
#1296 = ORIENTED_EDGE('',*,*,#1297,.T.);
#1297 = EDGE_CURVE('',#1267,#1073,#1298,.T.);
#1298 = LINE('',#1299,#1300);
#1299 = CARTESIAN_POINT('',(-2.99,-1.905,0.592));
#1300 = VECTOR('',#1301,1.);
#1301 = DIRECTION('',(0.,0.,1.));
#1302 = ORIENTED_EDGE('',*,*,#1070,.F.);
#1303 = ORIENTED_EDGE('',*,*,#1304,.F.);
#1304 = EDGE_CURVE('',#1275,#1071,#1305,.T.);
#1305 = LINE('',#1306,#1307);
#1306 = CARTESIAN_POINT('',(-2.99,-2.667,0.592));
#1307 = VECTOR('',#1308,1.);
#1308 = DIRECTION('',(0.,0.,1.));
#1309 = PLANE('',#1310);
#1310 = AXIS2_PLACEMENT_3D('',#1311,#1312,#1313);
#1311 = CARTESIAN_POINT('',(-2.99,-2.667,0.592));
#1312 = DIRECTION('',(1.,0.,0.));
#1313 = DIRECTION('',(0.,0.,1.));
#1314 = ADVANCED_FACE('',(#1315),#1325,.T.);
#1315 = FACE_BOUND('',#1316,.T.);
#1316 = EDGE_LOOP('',(#1317,#1318,#1319,#1320,#1321,#1322,#1323,#1324));
#1317 = ORIENTED_EDGE('',*,*,#1096,.T.);
#1318 = ORIENTED_EDGE('',*,*,#1127,.T.);
#1319 = ORIENTED_EDGE('',*,*,#1158,.T.);
#1320 = ORIENTED_EDGE('',*,*,#1189,.T.);
#1321 = ORIENTED_EDGE('',*,*,#1220,.T.);
#1322 = ORIENTED_EDGE('',*,*,#1251,.T.);
#1323 = ORIENTED_EDGE('',*,*,#1282,.T.);
#1324 = ORIENTED_EDGE('',*,*,#1304,.T.);
#1325 = PLANE('',#1326);
#1326 = AXIS2_PLACEMENT_3D('',#1327,#1328,#1329);
#1327 = CARTESIAN_POINT('',(-4.455340293469,-2.667,0.439312126805));
#1328 = DIRECTION('',(-0.,-1.,-0.));
#1329 = DIRECTION('',(0.,0.,-1.));
#1330 = ADVANCED_FACE('',(#1331),#1341,.F.);
#1331 = FACE_BOUND('',#1332,.F.);
#1332 = EDGE_LOOP('',(#1333,#1334,#1335,#1336,#1337,#1338,#1339,#1340));
#1333 = ORIENTED_EDGE('',*,*,#1080,.T.);
#1334 = ORIENTED_EDGE('',*,*,#1111,.T.);
#1335 = ORIENTED_EDGE('',*,*,#1142,.T.);
#1336 = ORIENTED_EDGE('',*,*,#1173,.T.);
#1337 = ORIENTED_EDGE('',*,*,#1204,.T.);
#1338 = ORIENTED_EDGE('',*,*,#1235,.T.);
#1339 = ORIENTED_EDGE('',*,*,#1266,.T.);
#1340 = ORIENTED_EDGE('',*,*,#1297,.T.);
#1341 = PLANE('',#1342);
#1342 = AXIS2_PLACEMENT_3D('',#1343,#1344,#1345);
#1343 = CARTESIAN_POINT('',(-4.455340293469,-1.905,0.439312126805));
#1344 = DIRECTION('',(-0.,-1.,-0.));
#1345 = DIRECTION('',(0.,0.,-1.));
#1346 = ( GEOMETRIC_REPRESENTATION_CONTEXT(3) 
GLOBAL_UNCERTAINTY_ASSIGNED_CONTEXT((#1350)) 
GLOBAL_UNIT_ASSIGNED_CONTEXT((#1347,#1348,#1349)) REPRESENTATION_CONTEXT
('Context #1','3D Context with UNIT and UNCERTAINTY') );
#1347 = ( LENGTH_UNIT() NAMED_UNIT(*) SI_UNIT(.MILLI.,.METRE.) );
#1348 = ( NAMED_UNIT(*) PLANE_ANGLE_UNIT() SI_UNIT($,.RADIAN.) );
#1349 = ( NAMED_UNIT(*) SI_UNIT($,.STERADIAN.) SOLID_ANGLE_UNIT() );
#1350 = UNCERTAINTY_MEASURE_WITH_UNIT(LENGTH_MEASURE(1.E-07),#1347,
  'distance_accuracy_value','confusion accuracy');
#1351 = CONTEXT_DEPENDENT_SHAPE_REPRESENTATION(#1352,#1354);
#1352 = ( REPRESENTATION_RELATIONSHIP('','',#1063,#10) 
REPRESENTATION_RELATIONSHIP_WITH_TRANSFORMATION(#1353) 
SHAPE_REPRESENTATION_RELATIONSHIP() );
#1353 = ITEM_DEFINED_TRANSFORMATION('','',#11,#27);
#1354 = PRODUCT_DEFINITION_SHAPE('Placement','Placement of an item',
  #1355);
#1355 = NEXT_ASSEMBLY_USAGE_OCCURRENCE('98','Source_3','',#5,#1058,$);
#1356 = PRODUCT_RELATED_PRODUCT_CATEGORY('part',$,(#1060));
#1357 = SHAPE_DEFINITION_REPRESENTATION(#1358,#1364);
#1358 = PRODUCT_DEFINITION_SHAPE('','',#1359);
#1359 = PRODUCT_DEFINITION('design','',#1360,#1363);
#1360 = PRODUCT_DEFINITION_FORMATION('','',#1361);
#1361 = PRODUCT('Trimmed_drain_lead_2','Trimmed_drain_lead_2','',(#1362)
  );
#1362 = PRODUCT_CONTEXT('',#2,'mechanical');
#1363 = PRODUCT_DEFINITION_CONTEXT('part definition',#2,'design');
#1364 = ADVANCED_BREP_SHAPE_REPRESENTATION('',(#11,#1365),#1515);
#1365 = MANIFOLD_SOLID_BREP('',#1366);
#1366 = CLOSED_SHELL('',(#1367,#1407,#1447,#1469,#1491,#1503));
#1367 = ADVANCED_FACE('',(#1368),#1402,.F.);
#1368 = FACE_BOUND('',#1369,.F.);
#1369 = EDGE_LOOP('',(#1370,#1380,#1388,#1396));
#1370 = ORIENTED_EDGE('',*,*,#1371,.F.);
#1371 = EDGE_CURVE('',#1372,#1374,#1376,.T.);
#1372 = VERTEX_POINT('',#1373);
#1373 = CARTESIAN_POINT('',(-3.556,-0.42,0.6));
#1374 = VERTEX_POINT('',#1375);
#1375 = CARTESIAN_POINT('',(-3.556,-0.42,1.108));
#1376 = LINE('',#1377,#1378);
#1377 = CARTESIAN_POINT('',(-3.556,-0.42,0.6));
#1378 = VECTOR('',#1379,1.);
#1379 = DIRECTION('',(0.,0.,1.));
#1380 = ORIENTED_EDGE('',*,*,#1381,.T.);
#1381 = EDGE_CURVE('',#1372,#1382,#1384,.T.);
#1382 = VERTEX_POINT('',#1383);
#1383 = CARTESIAN_POINT('',(-3.556,0.42,0.6));
#1384 = LINE('',#1385,#1386);
#1385 = CARTESIAN_POINT('',(-3.556,-0.42,0.6));
#1386 = VECTOR('',#1387,1.);
#1387 = DIRECTION('',(-0.,1.,0.));
#1388 = ORIENTED_EDGE('',*,*,#1389,.T.);
#1389 = EDGE_CURVE('',#1382,#1390,#1392,.T.);
#1390 = VERTEX_POINT('',#1391);
#1391 = CARTESIAN_POINT('',(-3.556,0.42,1.108));
#1392 = LINE('',#1393,#1394);
#1393 = CARTESIAN_POINT('',(-3.556,0.42,0.6));
#1394 = VECTOR('',#1395,1.);
#1395 = DIRECTION('',(0.,0.,1.));
#1396 = ORIENTED_EDGE('',*,*,#1397,.F.);
#1397 = EDGE_CURVE('',#1374,#1390,#1398,.T.);
#1398 = LINE('',#1399,#1400);
#1399 = CARTESIAN_POINT('',(-3.556,-0.42,1.108));
#1400 = VECTOR('',#1401,1.);
#1401 = DIRECTION('',(-0.,1.,0.));
#1402 = PLANE('',#1403);
#1403 = AXIS2_PLACEMENT_3D('',#1404,#1405,#1406);
#1404 = CARTESIAN_POINT('',(-3.556,-0.42,0.6));
#1405 = DIRECTION('',(1.,0.,-0.));
#1406 = DIRECTION('',(0.,0.,1.));
#1407 = ADVANCED_FACE('',(#1408),#1442,.T.);
#1408 = FACE_BOUND('',#1409,.T.);
#1409 = EDGE_LOOP('',(#1410,#1420,#1428,#1436));
#1410 = ORIENTED_EDGE('',*,*,#1411,.F.);
#1411 = EDGE_CURVE('',#1412,#1414,#1416,.T.);
#1412 = VERTEX_POINT('',#1413);
#1413 = CARTESIAN_POINT('',(-2.988,-0.42,0.6));
#1414 = VERTEX_POINT('',#1415);
#1415 = CARTESIAN_POINT('',(-2.988,-0.42,1.108));
#1416 = LINE('',#1417,#1418);
#1417 = CARTESIAN_POINT('',(-2.988,-0.42,0.6));
#1418 = VECTOR('',#1419,1.);
#1419 = DIRECTION('',(0.,0.,1.));
#1420 = ORIENTED_EDGE('',*,*,#1421,.T.);
#1421 = EDGE_CURVE('',#1412,#1422,#1424,.T.);
#1422 = VERTEX_POINT('',#1423);
#1423 = CARTESIAN_POINT('',(-2.988,0.42,0.6));
#1424 = LINE('',#1425,#1426);
#1425 = CARTESIAN_POINT('',(-2.988,-0.42,0.6));
#1426 = VECTOR('',#1427,1.);
#1427 = DIRECTION('',(-0.,1.,0.));
#1428 = ORIENTED_EDGE('',*,*,#1429,.T.);
#1429 = EDGE_CURVE('',#1422,#1430,#1432,.T.);
#1430 = VERTEX_POINT('',#1431);
#1431 = CARTESIAN_POINT('',(-2.988,0.42,1.108));
#1432 = LINE('',#1433,#1434);
#1433 = CARTESIAN_POINT('',(-2.988,0.42,0.6));
#1434 = VECTOR('',#1435,1.);
#1435 = DIRECTION('',(0.,0.,1.));
#1436 = ORIENTED_EDGE('',*,*,#1437,.F.);
#1437 = EDGE_CURVE('',#1414,#1430,#1438,.T.);
#1438 = LINE('',#1439,#1440);
#1439 = CARTESIAN_POINT('',(-2.988,-0.42,1.108));
#1440 = VECTOR('',#1441,1.);
#1441 = DIRECTION('',(-0.,1.,0.));
#1442 = PLANE('',#1443);
#1443 = AXIS2_PLACEMENT_3D('',#1444,#1445,#1446);
#1444 = CARTESIAN_POINT('',(-2.988,-0.42,0.6));
#1445 = DIRECTION('',(1.,0.,-0.));
#1446 = DIRECTION('',(0.,0.,1.));
#1447 = ADVANCED_FACE('',(#1448),#1464,.F.);
#1448 = FACE_BOUND('',#1449,.F.);
#1449 = EDGE_LOOP('',(#1450,#1456,#1457,#1463));
#1450 = ORIENTED_EDGE('',*,*,#1451,.F.);
#1451 = EDGE_CURVE('',#1372,#1412,#1452,.T.);
#1452 = LINE('',#1453,#1454);
#1453 = CARTESIAN_POINT('',(-3.556,-0.42,0.6));
#1454 = VECTOR('',#1455,1.);
#1455 = DIRECTION('',(1.,0.,-0.));
#1456 = ORIENTED_EDGE('',*,*,#1371,.T.);
#1457 = ORIENTED_EDGE('',*,*,#1458,.T.);
#1458 = EDGE_CURVE('',#1374,#1414,#1459,.T.);
#1459 = LINE('',#1460,#1461);
#1460 = CARTESIAN_POINT('',(-3.556,-0.42,1.108));
#1461 = VECTOR('',#1462,1.);
#1462 = DIRECTION('',(1.,0.,-0.));
#1463 = ORIENTED_EDGE('',*,*,#1411,.F.);
#1464 = PLANE('',#1465);
#1465 = AXIS2_PLACEMENT_3D('',#1466,#1467,#1468);
#1466 = CARTESIAN_POINT('',(-3.556,-0.42,0.6));
#1467 = DIRECTION('',(-0.,1.,0.));
#1468 = DIRECTION('',(0.,0.,1.));
#1469 = ADVANCED_FACE('',(#1470),#1486,.T.);
#1470 = FACE_BOUND('',#1471,.T.);
#1471 = EDGE_LOOP('',(#1472,#1478,#1479,#1485));
#1472 = ORIENTED_EDGE('',*,*,#1473,.F.);
#1473 = EDGE_CURVE('',#1382,#1422,#1474,.T.);
#1474 = LINE('',#1475,#1476);
#1475 = CARTESIAN_POINT('',(-3.556,0.42,0.6));
#1476 = VECTOR('',#1477,1.);
#1477 = DIRECTION('',(1.,0.,-0.));
#1478 = ORIENTED_EDGE('',*,*,#1389,.T.);
#1479 = ORIENTED_EDGE('',*,*,#1480,.T.);
#1480 = EDGE_CURVE('',#1390,#1430,#1481,.T.);
#1481 = LINE('',#1482,#1483);
#1482 = CARTESIAN_POINT('',(-3.556,0.42,1.108));
#1483 = VECTOR('',#1484,1.);
#1484 = DIRECTION('',(1.,0.,-0.));
#1485 = ORIENTED_EDGE('',*,*,#1429,.F.);
#1486 = PLANE('',#1487);
#1487 = AXIS2_PLACEMENT_3D('',#1488,#1489,#1490);
#1488 = CARTESIAN_POINT('',(-3.556,0.42,0.6));
#1489 = DIRECTION('',(-0.,1.,0.));
#1490 = DIRECTION('',(0.,0.,1.));
#1491 = ADVANCED_FACE('',(#1492),#1498,.F.);
#1492 = FACE_BOUND('',#1493,.F.);
#1493 = EDGE_LOOP('',(#1494,#1495,#1496,#1497));
#1494 = ORIENTED_EDGE('',*,*,#1381,.F.);
#1495 = ORIENTED_EDGE('',*,*,#1451,.T.);
#1496 = ORIENTED_EDGE('',*,*,#1421,.T.);
#1497 = ORIENTED_EDGE('',*,*,#1473,.F.);
#1498 = PLANE('',#1499);
#1499 = AXIS2_PLACEMENT_3D('',#1500,#1501,#1502);
#1500 = CARTESIAN_POINT('',(-3.556,-0.42,0.6));
#1501 = DIRECTION('',(0.,0.,1.));
#1502 = DIRECTION('',(1.,0.,-0.));
#1503 = ADVANCED_FACE('',(#1504),#1510,.T.);
#1504 = FACE_BOUND('',#1505,.T.);
#1505 = EDGE_LOOP('',(#1506,#1507,#1508,#1509));
#1506 = ORIENTED_EDGE('',*,*,#1397,.F.);
#1507 = ORIENTED_EDGE('',*,*,#1458,.T.);
#1508 = ORIENTED_EDGE('',*,*,#1437,.T.);
#1509 = ORIENTED_EDGE('',*,*,#1480,.F.);
#1510 = PLANE('',#1511);
#1511 = AXIS2_PLACEMENT_3D('',#1512,#1513,#1514);
#1512 = CARTESIAN_POINT('',(-3.556,-0.42,1.108));
#1513 = DIRECTION('',(0.,0.,1.));
#1514 = DIRECTION('',(1.,0.,-0.));
#1515 = ( GEOMETRIC_REPRESENTATION_CONTEXT(3) 
GLOBAL_UNCERTAINTY_ASSIGNED_CONTEXT((#1519)) 
GLOBAL_UNIT_ASSIGNED_CONTEXT((#1516,#1517,#1518)) REPRESENTATION_CONTEXT
('Context #1','3D Context with UNIT and UNCERTAINTY') );
#1516 = ( LENGTH_UNIT() NAMED_UNIT(*) SI_UNIT(.MILLI.,.METRE.) );
#1517 = ( NAMED_UNIT(*) PLANE_ANGLE_UNIT() SI_UNIT($,.RADIAN.) );
#1518 = ( NAMED_UNIT(*) SI_UNIT($,.STERADIAN.) SOLID_ANGLE_UNIT() );
#1519 = UNCERTAINTY_MEASURE_WITH_UNIT(LENGTH_MEASURE(1.E-07),#1516,
  'distance_accuracy_value','confusion accuracy');
#1520 = CONTEXT_DEPENDENT_SHAPE_REPRESENTATION(#1521,#1523);
#1521 = ( REPRESENTATION_RELATIONSHIP('','',#1364,#10) 
REPRESENTATION_RELATIONSHIP_WITH_TRANSFORMATION(#1522) 
SHAPE_REPRESENTATION_RELATIONSHIP() );
#1522 = ITEM_DEFINED_TRANSFORMATION('','',#11,#31);
#1523 = PRODUCT_DEFINITION_SHAPE('Placement','Placement of an item',
  #1524);
#1524 = NEXT_ASSEMBLY_USAGE_OCCURRENCE('99','Trimmed_drain_lead_2','',#5
  ,#1359,$);
#1525 = PRODUCT_RELATED_PRODUCT_CATEGORY('part',$,(#1361));
#1526 = MECHANICAL_DESIGN_GEOMETRIC_PRESENTATION_REPRESENTATION('',(
    #1527),#287);
#1527 = STYLED_ITEM('color',(#1528),#49);
#1528 = PRESENTATION_STYLE_ASSIGNMENT((#1529,#1535));
#1529 = SURFACE_STYLE_USAGE(.BOTH.,#1530);
#1530 = SURFACE_SIDE_STYLE('',(#1531));
#1531 = SURFACE_STYLE_FILL_AREA(#1532);
#1532 = FILL_AREA_STYLE('',(#1533));
#1533 = FILL_AREA_STYLE_COLOUR('',#1534);
#1534 = COLOUR_RGB('',0.104999995596,0.115000003281,0.125000001743);
#1535 = CURVE_STYLE('',#1536,POSITIVE_LENGTH_MEASURE(0.1),#1534);
#1536 = DRAUGHTING_PRE_DEFINED_CURVE_FONT('continuous');
#1537 = MECHANICAL_DESIGN_GEOMETRIC_PRESENTATION_REPRESENTATION('',(
    #1538),#1045);
#1538 = STYLED_ITEM('color',(#1539),#763);
#1539 = PRESENTATION_STYLE_ASSIGNMENT((#1540,#1546));
#1540 = SURFACE_STYLE_USAGE(.BOTH.,#1541);
#1541 = SURFACE_SIDE_STYLE('',(#1542));
#1542 = SURFACE_STYLE_FILL_AREA(#1543);
#1543 = FILL_AREA_STYLE('',(#1544));
#1544 = FILL_AREA_STYLE_COLOUR('',#1545);
#1545 = COLOUR_RGB('',0.759999975995,0.779999965419,0.800000010877);
#1546 = CURVE_STYLE('',#1547,POSITIVE_LENGTH_MEASURE(0.1),#1545);
#1547 = DRAUGHTING_PRE_DEFINED_CURVE_FONT('continuous');
#1548 = MECHANICAL_DESIGN_GEOMETRIC_PRESENTATION_REPRESENTATION('',(
    #1549),#744);
#1549 = STYLED_ITEM('color',(#1550),#306);
#1550 = PRESENTATION_STYLE_ASSIGNMENT((#1551,#1556));
#1551 = SURFACE_STYLE_USAGE(.BOTH.,#1552);
#1552 = SURFACE_SIDE_STYLE('',(#1553));
#1553 = SURFACE_STYLE_FILL_AREA(#1554);
#1554 = FILL_AREA_STYLE('',(#1555));
#1555 = FILL_AREA_STYLE_COLOUR('',#1545);
#1556 = CURVE_STYLE('',#1557,POSITIVE_LENGTH_MEASURE(0.1),#1545);
#1557 = DRAUGHTING_PRE_DEFINED_CURVE_FONT('continuous');
#1558 = MECHANICAL_DESIGN_GEOMETRIC_PRESENTATION_REPRESENTATION('',(
    #1559),#1346);
#1559 = STYLED_ITEM('color',(#1560),#1064);
#1560 = PRESENTATION_STYLE_ASSIGNMENT((#1561,#1566));
#1561 = SURFACE_STYLE_USAGE(.BOTH.,#1562);
#1562 = SURFACE_SIDE_STYLE('',(#1563));
#1563 = SURFACE_STYLE_FILL_AREA(#1564);
#1564 = FILL_AREA_STYLE('',(#1565));
#1565 = FILL_AREA_STYLE_COLOUR('',#1545);
#1566 = CURVE_STYLE('',#1567,POSITIVE_LENGTH_MEASURE(0.1),#1545);
#1567 = DRAUGHTING_PRE_DEFINED_CURVE_FONT('continuous');
#1568 = MECHANICAL_DESIGN_GEOMETRIC_PRESENTATION_REPRESENTATION('',(
    #1569),#1515);
#1569 = STYLED_ITEM('color',(#1570),#1365);
#1570 = PRESENTATION_STYLE_ASSIGNMENT((#1571,#1576));
#1571 = SURFACE_STYLE_USAGE(.BOTH.,#1572);
#1572 = SURFACE_SIDE_STYLE('',(#1573));
#1573 = SURFACE_STYLE_FILL_AREA(#1574);
#1574 = FILL_AREA_STYLE('',(#1575));
#1575 = FILL_AREA_STYLE_COLOUR('',#1545);
#1576 = CURVE_STYLE('',#1577,POSITIVE_LENGTH_MEASURE(0.1),#1545);
#1577 = DRAUGHTING_PRE_DEFINED_CURVE_FONT('continuous');
ENDSEC;
END-ISO-10303-21;
