ISO-10303-21;
HEADER;
FILE_DESCRIPTION(('FreeCAD Model'),'2;1');
FILE_NAME('Open CASCADE Shape Model','2026-10-03T19:15:17',('Author'),(
    ''),'Open CASCADE STEP processor 7.8','FreeCAD','Unknown');
FILE_SCHEMA(('AUTOMOTIVE_DESIGN { 1 0 10303 214 1 1 1 1 }'));
ENDSEC;
DATA;
#1 = APPLICATION_PROTOCOL_DEFINITION('international standard',
  'automotive_design',2000,#2);
#2 = APPLICATION_CONTEXT(
  'core data for automotive mechanical design processes');
#3 = SHAPE_DEFINITION_REPRESENTATION(#4,#10);
#4 = PRODUCT_DEFINITION_SHAPE('','',#5);
#5 = PRODUCT_DEFINITION('design','',#6,#9);
#6 = PRODUCT_DEFINITION_FORMATION('','',#7);
#7 = PRODUCT('AP2112K_nominal','AP2112K_nominal','',(#8));
#8 = PRODUCT_CONTEXT('',#2,'mechanical');
#9 = PRODUCT_DEFINITION_CONTEXT('part definition',#2,'design');
#10 = SHAPE_REPRESENTATION('',(#11,#15,#19,#23,#27,#31,#35,#39),#43);
#11 = AXIS2_PLACEMENT_3D('',#12,#13,#14);
#12 = CARTESIAN_POINT('',(0.,0.,0.));
#13 = DIRECTION('',(0.,0.,1.));
#14 = DIRECTION('',(1.,0.,-0.));
#15 = AXIS2_PLACEMENT_3D('',#16,#17,#18);
#16 = CARTESIAN_POINT('',(0.,0.,0.));
#17 = DIRECTION('',(0.,0.,1.));
#18 = DIRECTION('',(1.,0.,0.));
#19 = AXIS2_PLACEMENT_3D('',#20,#21,#22);
#20 = CARTESIAN_POINT('',(0.,0.,0.));
#21 = DIRECTION('',(0.,0.,1.));
#22 = DIRECTION('',(1.,0.,0.));
#23 = AXIS2_PLACEMENT_3D('',#24,#25,#26);
#24 = CARTESIAN_POINT('',(0.,0.,0.));
#25 = DIRECTION('',(0.,0.,1.));
#26 = DIRECTION('',(1.,0.,0.));
#27 = AXIS2_PLACEMENT_3D('',#28,#29,#30);
#28 = CARTESIAN_POINT('',(0.,0.,0.));
#29 = DIRECTION('',(0.,0.,1.));
#30 = DIRECTION('',(1.,0.,0.));
#31 = AXIS2_PLACEMENT_3D('',#32,#33,#34);
#32 = CARTESIAN_POINT('',(0.,0.,0.));
#33 = DIRECTION('',(0.,0.,1.));
#34 = DIRECTION('',(1.,0.,0.));
#35 = AXIS2_PLACEMENT_3D('',#36,#37,#38);
#36 = CARTESIAN_POINT('',(0.,0.,0.));
#37 = DIRECTION('',(0.,0.,1.));
#38 = DIRECTION('',(1.,0.,0.));
#39 = AXIS2_PLACEMENT_3D('',#40,#41,#42);
#40 = CARTESIAN_POINT('',(0.,0.,0.));
#41 = DIRECTION('',(0.,0.,1.));
#42 = DIRECTION('',(1.,0.,0.));
#43 = ( GEOMETRIC_REPRESENTATION_CONTEXT(3) 
GLOBAL_UNCERTAINTY_ASSIGNED_CONTEXT((#47)) GLOBAL_UNIT_ASSIGNED_CONTEXT(
(#44,#45,#46)) REPRESENTATION_CONTEXT('Context #1',
  '3D Context with UNIT and UNCERTAINTY') );
#44 = ( LENGTH_UNIT() NAMED_UNIT(*) SI_UNIT(.MILLI.,.METRE.) );
#45 = ( NAMED_UNIT(*) PLANE_ANGLE_UNIT() SI_UNIT($,.RADIAN.) );
#46 = ( NAMED_UNIT(*) SI_UNIT($,.STERADIAN.) SOLID_ANGLE_UNIT() );
#47 = UNCERTAINTY_MEASURE_WITH_UNIT(LENGTH_MEASURE(1.E-07),#44,
  'distance_accuracy_value','confusion accuracy');
#48 = PRODUCT_RELATED_PRODUCT_CATEGORY('part',$,(#7));
#49 = SHAPE_DEFINITION_REPRESENTATION(#50,#56);
#50 = PRODUCT_DEFINITION_SHAPE('','',#51);
#51 = PRODUCT_DEFINITION('design','',#52,#55);
#52 = PRODUCT_DEFINITION_FORMATION('','',#53);
#53 = PRODUCT('Pin1_orientation_dot_schematic',
  'Pin1_orientation_dot_schematic','',(#54));
#54 = PRODUCT_CONTEXT('',#2,'mechanical');
#55 = PRODUCT_DEFINITION_CONTEXT('part definition',#2,'design');
#56 = ADVANCED_BREP_SHAPE_REPRESENTATION('',(#11,#57),#110);
#57 = MANIFOLD_SOLID_BREP('',#58);
#58 = CLOSED_SHELL('',(#59,#92,#101));
#59 = ADVANCED_FACE('',(#60),#87,.T.);
#60 = FACE_BOUND('',#61,.T.);
#61 = EDGE_LOOP('',(#62,#71,#79,#86));
#62 = ORIENTED_EDGE('',*,*,#63,.F.);
#63 = EDGE_CURVE('',#64,#64,#66,.T.);
#64 = VERTEX_POINT('',#65);
#65 = CARTESIAN_POINT('',(-0.432,1.16,1.15));
#66 = CIRCLE('',#67,8.8E-02);
#67 = AXIS2_PLACEMENT_3D('',#68,#69,#70);
#68 = CARTESIAN_POINT('',(-0.52,1.16,1.15));
#69 = DIRECTION('',(0.,0.,1.));
#70 = DIRECTION('',(1.,0.,-0.));
#71 = ORIENTED_EDGE('',*,*,#72,.F.);
#72 = EDGE_CURVE('',#73,#64,#75,.T.);
#73 = VERTEX_POINT('',#74);
#74 = CARTESIAN_POINT('',(-0.432,1.16,1.136));
#75 = LINE('',#76,#77);
#76 = CARTESIAN_POINT('',(-0.432,1.16,1.136));
#77 = VECTOR('',#78,1.);
#78 = DIRECTION('',(0.,0.,1.));
#79 = ORIENTED_EDGE('',*,*,#80,.T.);
#80 = EDGE_CURVE('',#73,#73,#81,.T.);
#81 = CIRCLE('',#82,8.8E-02);
#82 = AXIS2_PLACEMENT_3D('',#83,#84,#85);
#83 = CARTESIAN_POINT('',(-0.52,1.16,1.136));
#84 = DIRECTION('',(0.,0.,1.));
#85 = DIRECTION('',(1.,0.,-0.));
#86 = ORIENTED_EDGE('',*,*,#72,.T.);
#87 = CYLINDRICAL_SURFACE('',#88,8.8E-02);
#88 = AXIS2_PLACEMENT_3D('',#89,#90,#91);
#89 = CARTESIAN_POINT('',(-0.52,1.16,1.136));
#90 = DIRECTION('',(0.,0.,1.));
#91 = DIRECTION('',(1.,0.,-0.));
#92 = ADVANCED_FACE('',(#93),#96,.T.);
#93 = FACE_BOUND('',#94,.T.);
#94 = EDGE_LOOP('',(#95));
#95 = ORIENTED_EDGE('',*,*,#63,.T.);
#96 = PLANE('',#97);
#97 = AXIS2_PLACEMENT_3D('',#98,#99,#100);
#98 = CARTESIAN_POINT('',(-0.52,1.16,1.15));
#99 = DIRECTION('',(0.,0.,1.));
#100 = DIRECTION('',(1.,0.,-0.));
#101 = ADVANCED_FACE('',(#102),#105,.F.);
#102 = FACE_BOUND('',#103,.T.);
#103 = EDGE_LOOP('',(#104));
#104 = ORIENTED_EDGE('',*,*,#80,.F.);
#105 = PLANE('',#106);
#106 = AXIS2_PLACEMENT_3D('',#107,#108,#109);
#107 = CARTESIAN_POINT('',(-0.52,1.16,1.136));
#108 = DIRECTION('',(0.,0.,1.));
#109 = DIRECTION('',(1.,0.,-0.));
#110 = ( GEOMETRIC_REPRESENTATION_CONTEXT(3) 
GLOBAL_UNCERTAINTY_ASSIGNED_CONTEXT((#114)) GLOBAL_UNIT_ASSIGNED_CONTEXT
((#111,#112,#113)) REPRESENTATION_CONTEXT('Context #1',
  '3D Context with UNIT and UNCERTAINTY') );
#111 = ( LENGTH_UNIT() NAMED_UNIT(*) SI_UNIT(.MILLI.,.METRE.) );
#112 = ( NAMED_UNIT(*) PLANE_ANGLE_UNIT() SI_UNIT($,.RADIAN.) );
#113 = ( NAMED_UNIT(*) SI_UNIT($,.STERADIAN.) SOLID_ANGLE_UNIT() );
#114 = UNCERTAINTY_MEASURE_WITH_UNIT(LENGTH_MEASURE(1.E-07),#111,
  'distance_accuracy_value','confusion accuracy');
#115 = CONTEXT_DEPENDENT_SHAPE_REPRESENTATION(#116,#118);
#116 = ( REPRESENTATION_RELATIONSHIP('','',#56,#10) 
REPRESENTATION_RELATIONSHIP_WITH_TRANSFORMATION(#117) 
SHAPE_REPRESENTATION_RELATIONSHIP() );
#117 = ITEM_DEFINED_TRANSFORMATION('','',#11,#15);
#118 = PRODUCT_DEFINITION_SHAPE('Placement','Placement of an item',#119
  );
#119 = NEXT_ASSEMBLY_USAGE_OCCURRENCE('11',
  'Pin1_orientation_dot_schematic','',#5,#51,$);
#120 = PRODUCT_RELATED_PRODUCT_CATEGORY('part',$,(#53));
#121 = SHAPE_DEFINITION_REPRESENTATION(#122,#128);
#122 = PRODUCT_DEFINITION_SHAPE('','',#123);
#123 = PRODUCT_DEFINITION('design','',#124,#127);
#124 = PRODUCT_DEFINITION_FORMATION('','',#125);
#125 = PRODUCT('Molded_body','Molded_body','',(#126));
#126 = PRODUCT_CONTEXT('',#2,'mechanical');
#127 = PRODUCT_DEFINITION_CONTEXT('part definition',#2,'design');
#128 = ADVANCED_BREP_SHAPE_REPRESENTATION('',(#11,#129),#412);
#129 = MANIFOLD_SOLID_BREP('',#130);
#130 = CLOSED_SHELL('',(#131,#169,#200,#223,#252,#275,#292,#315,#350,
    #366,#378,#403));
#131 = ADVANCED_FACE('',(#132),#164,.T.);
#132 = FACE_BOUND('',#133,.T.);
#133 = EDGE_LOOP('',(#134,#144,#151,#159));
#134 = ORIENTED_EDGE('',*,*,#135,.T.);
#135 = EDGE_CURVE('',#136,#138,#140,.T.);
#136 = VERTEX_POINT('',#137);
#137 = CARTESIAN_POINT('',(-0.744,-1.444,5.E-02));
#138 = VERTEX_POINT('',#139);
#139 = CARTESIAN_POINT('',(0.744,-1.444,5.E-02));
#140 = LINE('',#141,#142);
#141 = CARTESIAN_POINT('',(-0.744,-1.444,5.E-02));
#142 = VECTOR('',#143,1.);
#143 = DIRECTION('',(1.,0.,0.));
#144 = ORIENTED_EDGE('',*,*,#145,.T.);
#145 = EDGE_CURVE('',#138,#146,#148,.T.);
#146 = VERTEX_POINT('',#147);
#147 = CARTESIAN_POINT('',(0.8,-1.5,0.435));
#148 = B_SPLINE_CURVE_WITH_KNOTS('',1,(#149,#150),.UNSPECIFIED.,.F.,.F.,
  (2,2),(0.,1.),.PIECEWISE_BEZIER_KNOTS.);
#149 = CARTESIAN_POINT('',(0.744,-1.444,5.E-02));
#150 = CARTESIAN_POINT('',(0.8,-1.5,0.435));
#151 = ORIENTED_EDGE('',*,*,#152,.F.);
#152 = EDGE_CURVE('',#153,#146,#155,.T.);
#153 = VERTEX_POINT('',#154);
#154 = CARTESIAN_POINT('',(-0.8,-1.5,0.435));
#155 = LINE('',#156,#157);
#156 = CARTESIAN_POINT('',(-0.8,-1.5,0.435));
#157 = VECTOR('',#158,1.);
#158 = DIRECTION('',(1.,0.,0.));
#159 = ORIENTED_EDGE('',*,*,#160,.F.);
#160 = EDGE_CURVE('',#136,#153,#161,.T.);
#161 = B_SPLINE_CURVE_WITH_KNOTS('',1,(#162,#163),.UNSPECIFIED.,.F.,.F.,
  (2,2),(0.,1.),.PIECEWISE_BEZIER_KNOTS.);
#162 = CARTESIAN_POINT('',(-0.744,-1.444,5.E-02));
#163 = CARTESIAN_POINT('',(-0.8,-1.5,0.435));
#164 = B_SPLINE_SURFACE_WITH_KNOTS('',1,1,(
    (#165,#166)
    ,(#167,#168
  )),.UNSPECIFIED.,.F.,.F.,.F.,(2,2),(2,2),(0.,1.6),(0.,1.),
  .PIECEWISE_BEZIER_KNOTS.);
#165 = CARTESIAN_POINT('',(-0.744,-1.444,5.E-02));
#166 = CARTESIAN_POINT('',(-0.8,-1.5,0.435));
#167 = CARTESIAN_POINT('',(0.744,-1.444,5.E-02));
#168 = CARTESIAN_POINT('',(0.8,-1.5,0.435));
#169 = ADVANCED_FACE('',(#170),#195,.T.);
#170 = FACE_BOUND('',#171,.F.);
#171 = EDGE_LOOP('',(#172,#173,#181,#189));
#172 = ORIENTED_EDGE('',*,*,#135,.T.);
#173 = ORIENTED_EDGE('',*,*,#174,.T.);
#174 = EDGE_CURVE('',#138,#175,#177,.T.);
#175 = VERTEX_POINT('',#176);
#176 = CARTESIAN_POINT('',(0.744,1.444,5.E-02));
#177 = LINE('',#178,#179);
#178 = CARTESIAN_POINT('',(0.744,-1.444,5.E-02));
#179 = VECTOR('',#180,1.);
#180 = DIRECTION('',(0.,1.,0.));
#181 = ORIENTED_EDGE('',*,*,#182,.T.);
#182 = EDGE_CURVE('',#175,#183,#185,.T.);
#183 = VERTEX_POINT('',#184);
#184 = CARTESIAN_POINT('',(-0.744,1.444,5.E-02));
#185 = LINE('',#186,#187);
#186 = CARTESIAN_POINT('',(0.744,1.444,5.E-02));
#187 = VECTOR('',#188,1.);
#188 = DIRECTION('',(-1.,0.,0.));
#189 = ORIENTED_EDGE('',*,*,#190,.T.);
#190 = EDGE_CURVE('',#183,#136,#191,.T.);
#191 = LINE('',#192,#193);
#192 = CARTESIAN_POINT('',(-0.744,1.444,5.E-02));
#193 = VECTOR('',#194,1.);
#194 = DIRECTION('',(0.,-1.,0.));
#195 = PLANE('',#196);
#196 = AXIS2_PLACEMENT_3D('',#197,#198,#199);
#197 = CARTESIAN_POINT('',(-0.744,-1.444,5.E-02));
#198 = DIRECTION('',(0.,0.,-1.));
#199 = DIRECTION('',(0.458015558786,0.888944175924,0.));
#200 = ADVANCED_FACE('',(#201),#218,.T.);
#201 = FACE_BOUND('',#202,.T.);
#202 = EDGE_LOOP('',(#203,#204,#211,#217));
#203 = ORIENTED_EDGE('',*,*,#174,.T.);
#204 = ORIENTED_EDGE('',*,*,#205,.T.);
#205 = EDGE_CURVE('',#175,#206,#208,.T.);
#206 = VERTEX_POINT('',#207);
#207 = CARTESIAN_POINT('',(0.8,1.5,0.435));
#208 = B_SPLINE_CURVE_WITH_KNOTS('',1,(#209,#210),.UNSPECIFIED.,.F.,.F.,
  (2,2),(0.,1.),.PIECEWISE_BEZIER_KNOTS.);
#209 = CARTESIAN_POINT('',(0.744,1.444,5.E-02));
#210 = CARTESIAN_POINT('',(0.8,1.5,0.435));
#211 = ORIENTED_EDGE('',*,*,#212,.F.);
#212 = EDGE_CURVE('',#146,#206,#213,.T.);
#213 = LINE('',#214,#215);
#214 = CARTESIAN_POINT('',(0.8,-1.5,0.435));
#215 = VECTOR('',#216,1.);
#216 = DIRECTION('',(0.,1.,0.));
#217 = ORIENTED_EDGE('',*,*,#145,.F.);
#218 = B_SPLINE_SURFACE_WITH_KNOTS('',1,1,(
    (#219,#220)
    ,(#221,#222)),.UNSPECIFIED.,.F.,.F.,.F.,(2,2),(2,2),(0.,3.),(0.,1.),
  .PIECEWISE_BEZIER_KNOTS.);
#219 = CARTESIAN_POINT('',(0.744,-1.444,5.E-02));
#220 = CARTESIAN_POINT('',(0.8,-1.5,0.435));
#221 = CARTESIAN_POINT('',(0.744,1.444,5.E-02));
#222 = CARTESIAN_POINT('',(0.8,1.5,0.435));
#223 = ADVANCED_FACE('',(#224),#247,.T.);
#224 = FACE_BOUND('',#225,.T.);
#225 = EDGE_LOOP('',(#226,#227,#234,#242));
#226 = ORIENTED_EDGE('',*,*,#152,.T.);
#227 = ORIENTED_EDGE('',*,*,#228,.T.);
#228 = EDGE_CURVE('',#146,#229,#231,.T.);
#229 = VERTEX_POINT('',#230);
#230 = CARTESIAN_POINT('',(0.744,-1.444,1.15));
#231 = B_SPLINE_CURVE_WITH_KNOTS('',1,(#232,#233),.UNSPECIFIED.,.F.,.F.,
  (2,2),(0.,1.),.PIECEWISE_BEZIER_KNOTS.);
#232 = CARTESIAN_POINT('',(0.8,-1.5,0.435));
#233 = CARTESIAN_POINT('',(0.744,-1.444,1.15));
#234 = ORIENTED_EDGE('',*,*,#235,.F.);
#235 = EDGE_CURVE('',#236,#229,#238,.T.);
#236 = VERTEX_POINT('',#237);
#237 = CARTESIAN_POINT('',(-0.744,-1.444,1.15));
#238 = LINE('',#239,#240);
#239 = CARTESIAN_POINT('',(-0.744,-1.444,1.15));
#240 = VECTOR('',#241,1.);
#241 = DIRECTION('',(1.,0.,0.));
#242 = ORIENTED_EDGE('',*,*,#243,.F.);
#243 = EDGE_CURVE('',#153,#236,#244,.T.);
#244 = B_SPLINE_CURVE_WITH_KNOTS('',1,(#245,#246),.UNSPECIFIED.,.F.,.F.,
  (2,2),(0.,1.),.PIECEWISE_BEZIER_KNOTS.);
#245 = CARTESIAN_POINT('',(-0.8,-1.5,0.435));
#246 = CARTESIAN_POINT('',(-0.744,-1.444,1.15));
#247 = B_SPLINE_SURFACE_WITH_KNOTS('',1,1,(
    (#248,#249)
    ,(#250,#251
  )),.UNSPECIFIED.,.F.,.F.,.F.,(2,2),(2,2),(0.,1.6),(0.,1.),
  .PIECEWISE_BEZIER_KNOTS.);
#248 = CARTESIAN_POINT('',(-0.8,-1.5,0.435));
#249 = CARTESIAN_POINT('',(-0.744,-1.444,1.15));
#250 = CARTESIAN_POINT('',(0.8,-1.5,0.435));
#251 = CARTESIAN_POINT('',(0.744,-1.444,1.15));
#252 = ADVANCED_FACE('',(#253),#270,.T.);
#253 = FACE_BOUND('',#254,.T.);
#254 = EDGE_LOOP('',(#255,#256,#257,#265));
#255 = ORIENTED_EDGE('',*,*,#190,.T.);
#256 = ORIENTED_EDGE('',*,*,#160,.T.);
#257 = ORIENTED_EDGE('',*,*,#258,.F.);
#258 = EDGE_CURVE('',#259,#153,#261,.T.);
#259 = VERTEX_POINT('',#260);
#260 = CARTESIAN_POINT('',(-0.8,1.5,0.435));
#261 = LINE('',#262,#263);
#262 = CARTESIAN_POINT('',(-0.8,1.5,0.435));
#263 = VECTOR('',#264,1.);
#264 = DIRECTION('',(0.,-1.,0.));
#265 = ORIENTED_EDGE('',*,*,#266,.F.);
#266 = EDGE_CURVE('',#183,#259,#267,.T.);
#267 = B_SPLINE_CURVE_WITH_KNOTS('',1,(#268,#269),.UNSPECIFIED.,.F.,.F.,
  (2,2),(0.,1.),.PIECEWISE_BEZIER_KNOTS.);
#268 = CARTESIAN_POINT('',(-0.744,1.444,5.E-02));
#269 = CARTESIAN_POINT('',(-0.8,1.5,0.435));
#270 = B_SPLINE_SURFACE_WITH_KNOTS('',1,1,(
    (#271,#272)
    ,(#273,#274)),.UNSPECIFIED.,.F.,.F.,.F.,(2,2),(2,2),(0.,3.),(0.,1.),
  .PIECEWISE_BEZIER_KNOTS.);
#271 = CARTESIAN_POINT('',(-0.744,1.444,5.E-02));
#272 = CARTESIAN_POINT('',(-0.8,1.5,0.435));
#273 = CARTESIAN_POINT('',(-0.744,-1.444,5.E-02));
#274 = CARTESIAN_POINT('',(-0.8,-1.5,0.435));
#275 = ADVANCED_FACE('',(#276),#287,.T.);
#276 = FACE_BOUND('',#277,.T.);
#277 = EDGE_LOOP('',(#278,#279,#280,#286));
#278 = ORIENTED_EDGE('',*,*,#182,.T.);
#279 = ORIENTED_EDGE('',*,*,#266,.T.);
#280 = ORIENTED_EDGE('',*,*,#281,.F.);
#281 = EDGE_CURVE('',#206,#259,#282,.T.);
#282 = LINE('',#283,#284);
#283 = CARTESIAN_POINT('',(0.8,1.5,0.435));
#284 = VECTOR('',#285,1.);
#285 = DIRECTION('',(-1.,0.,0.));
#286 = ORIENTED_EDGE('',*,*,#205,.F.);
#287 = B_SPLINE_SURFACE_WITH_KNOTS('',1,1,(
    (#288,#289)
    ,(#290,#291
  )),.UNSPECIFIED.,.F.,.F.,.F.,(2,2),(2,2),(0.,1.6),(0.,1.),
  .PIECEWISE_BEZIER_KNOTS.);
#288 = CARTESIAN_POINT('',(0.744,1.444,5.E-02));
#289 = CARTESIAN_POINT('',(0.8,1.5,0.435));
#290 = CARTESIAN_POINT('',(-0.744,1.444,5.E-02));
#291 = CARTESIAN_POINT('',(-0.8,1.5,0.435));
#292 = ADVANCED_FACE('',(#293),#310,.T.);
#293 = FACE_BOUND('',#294,.T.);
#294 = EDGE_LOOP('',(#295,#296,#303,#309));
#295 = ORIENTED_EDGE('',*,*,#212,.T.);
#296 = ORIENTED_EDGE('',*,*,#297,.T.);
#297 = EDGE_CURVE('',#206,#298,#300,.T.);
#298 = VERTEX_POINT('',#299);
#299 = CARTESIAN_POINT('',(0.744,1.444,1.15));
#300 = B_SPLINE_CURVE_WITH_KNOTS('',1,(#301,#302),.UNSPECIFIED.,.F.,.F.,
  (2,2),(0.,1.),.PIECEWISE_BEZIER_KNOTS.);
#301 = CARTESIAN_POINT('',(0.8,1.5,0.435));
#302 = CARTESIAN_POINT('',(0.744,1.444,1.15));
#303 = ORIENTED_EDGE('',*,*,#304,.F.);
#304 = EDGE_CURVE('',#229,#298,#305,.T.);
#305 = LINE('',#306,#307);
#306 = CARTESIAN_POINT('',(0.744,-1.444,1.15));
#307 = VECTOR('',#308,1.);
#308 = DIRECTION('',(0.,1.,0.));
#309 = ORIENTED_EDGE('',*,*,#228,.F.);
#310 = B_SPLINE_SURFACE_WITH_KNOTS('',1,1,(
    (#311,#312)
    ,(#313,#314)),.UNSPECIFIED.,.F.,.F.,.F.,(2,2),(2,2),(0.,3.),(0.,1.),
  .PIECEWISE_BEZIER_KNOTS.);
#311 = CARTESIAN_POINT('',(0.8,-1.5,0.435));
#312 = CARTESIAN_POINT('',(0.744,-1.444,1.15));
#313 = CARTESIAN_POINT('',(0.8,1.5,0.435));
#314 = CARTESIAN_POINT('',(0.744,1.444,1.15));
#315 = ADVANCED_FACE('',(#316,#334),#345,.F.);
#316 = FACE_BOUND('',#317,.F.);
#317 = EDGE_LOOP('',(#318,#319,#327,#333));
#318 = ORIENTED_EDGE('',*,*,#235,.F.);
#319 = ORIENTED_EDGE('',*,*,#320,.F.);
#320 = EDGE_CURVE('',#321,#236,#323,.T.);
#321 = VERTEX_POINT('',#322);
#322 = CARTESIAN_POINT('',(-0.744,1.444,1.15));
#323 = LINE('',#324,#325);
#324 = CARTESIAN_POINT('',(-0.744,1.444,1.15));
#325 = VECTOR('',#326,1.);
#326 = DIRECTION('',(0.,-1.,0.));
#327 = ORIENTED_EDGE('',*,*,#328,.F.);
#328 = EDGE_CURVE('',#298,#321,#329,.T.);
#329 = LINE('',#330,#331);
#330 = CARTESIAN_POINT('',(0.744,1.444,1.15));
#331 = VECTOR('',#332,1.);
#332 = DIRECTION('',(-1.,0.,0.));
#333 = ORIENTED_EDGE('',*,*,#304,.F.);
#334 = FACE_BOUND('',#335,.F.);
#335 = EDGE_LOOP('',(#336));
#336 = ORIENTED_EDGE('',*,*,#337,.T.);
#337 = EDGE_CURVE('',#338,#338,#340,.T.);
#338 = VERTEX_POINT('',#339);
#339 = CARTESIAN_POINT('',(-0.42,1.16,1.15));
#340 = CIRCLE('',#341,0.1);
#341 = AXIS2_PLACEMENT_3D('',#342,#343,#344);
#342 = CARTESIAN_POINT('',(-0.52,1.16,1.15));
#343 = DIRECTION('',(0.,0.,1.));
#344 = DIRECTION('',(1.,0.,-0.));
#345 = PLANE('',#346);
#346 = AXIS2_PLACEMENT_3D('',#347,#348,#349);
#347 = CARTESIAN_POINT('',(-0.744,-1.444,1.15));
#348 = DIRECTION('',(0.,0.,-1.));
#349 = DIRECTION('',(0.458015558786,0.888944175924,0.));
#350 = ADVANCED_FACE('',(#351),#361,.T.);
#351 = FACE_BOUND('',#352,.T.);
#352 = EDGE_LOOP('',(#353,#354,#355,#356));
#353 = ORIENTED_EDGE('',*,*,#258,.T.);
#354 = ORIENTED_EDGE('',*,*,#243,.T.);
#355 = ORIENTED_EDGE('',*,*,#320,.F.);
#356 = ORIENTED_EDGE('',*,*,#357,.F.);
#357 = EDGE_CURVE('',#259,#321,#358,.T.);
#358 = B_SPLINE_CURVE_WITH_KNOTS('',1,(#359,#360),.UNSPECIFIED.,.F.,.F.,
  (2,2),(0.,1.),.PIECEWISE_BEZIER_KNOTS.);
#359 = CARTESIAN_POINT('',(-0.8,1.5,0.435));
#360 = CARTESIAN_POINT('',(-0.744,1.444,1.15));
#361 = B_SPLINE_SURFACE_WITH_KNOTS('',1,1,(
    (#362,#363)
    ,(#364,#365)),.UNSPECIFIED.,.F.,.F.,.F.,(2,2),(2,2),(0.,3.),(0.,1.),
  .PIECEWISE_BEZIER_KNOTS.);
#362 = CARTESIAN_POINT('',(-0.8,1.5,0.435));
#363 = CARTESIAN_POINT('',(-0.744,1.444,1.15));
#364 = CARTESIAN_POINT('',(-0.8,-1.5,0.435));
#365 = CARTESIAN_POINT('',(-0.744,-1.444,1.15));
#366 = ADVANCED_FACE('',(#367),#373,.T.);
#367 = FACE_BOUND('',#368,.T.);
#368 = EDGE_LOOP('',(#369,#370,#371,#372));
#369 = ORIENTED_EDGE('',*,*,#281,.T.);
#370 = ORIENTED_EDGE('',*,*,#357,.T.);
#371 = ORIENTED_EDGE('',*,*,#328,.F.);
#372 = ORIENTED_EDGE('',*,*,#297,.F.);
#373 = B_SPLINE_SURFACE_WITH_KNOTS('',1,1,(
    (#374,#375)
    ,(#376,#377
  )),.UNSPECIFIED.,.F.,.F.,.F.,(2,2),(2,2),(0.,1.6),(0.,1.),
  .PIECEWISE_BEZIER_KNOTS.);
#374 = CARTESIAN_POINT('',(0.8,1.5,0.435));
#375 = CARTESIAN_POINT('',(0.744,1.444,1.15));
#376 = CARTESIAN_POINT('',(-0.8,1.5,0.435));
#377 = CARTESIAN_POINT('',(-0.744,1.444,1.15));
#378 = ADVANCED_FACE('',(#379),#398,.F.);
#379 = FACE_BOUND('',#380,.F.);
#380 = EDGE_LOOP('',(#381,#382,#390,#397));
#381 = ORIENTED_EDGE('',*,*,#337,.F.);
#382 = ORIENTED_EDGE('',*,*,#383,.F.);
#383 = EDGE_CURVE('',#384,#338,#386,.T.);
#384 = VERTEX_POINT('',#385);
#385 = CARTESIAN_POINT('',(-0.42,1.16,1.125));
#386 = LINE('',#387,#388);
#387 = CARTESIAN_POINT('',(-0.42,1.16,1.125));
#388 = VECTOR('',#389,1.);
#389 = DIRECTION('',(0.,0.,1.));
#390 = ORIENTED_EDGE('',*,*,#391,.T.);
#391 = EDGE_CURVE('',#384,#384,#392,.T.);
#392 = CIRCLE('',#393,0.1);
#393 = AXIS2_PLACEMENT_3D('',#394,#395,#396);
#394 = CARTESIAN_POINT('',(-0.52,1.16,1.125));
#395 = DIRECTION('',(0.,0.,1.));
#396 = DIRECTION('',(1.,0.,-0.));
#397 = ORIENTED_EDGE('',*,*,#383,.T.);
#398 = CYLINDRICAL_SURFACE('',#399,0.1);
#399 = AXIS2_PLACEMENT_3D('',#400,#401,#402);
#400 = CARTESIAN_POINT('',(-0.52,1.16,1.125));
#401 = DIRECTION('',(0.,0.,1.));
#402 = DIRECTION('',(1.,0.,-0.));
#403 = ADVANCED_FACE('',(#404),#407,.T.);
#404 = FACE_BOUND('',#405,.F.);
#405 = EDGE_LOOP('',(#406));
#406 = ORIENTED_EDGE('',*,*,#391,.F.);
#407 = PLANE('',#408);
#408 = AXIS2_PLACEMENT_3D('',#409,#410,#411);
#409 = CARTESIAN_POINT('',(-0.52,1.16,1.125));
#410 = DIRECTION('',(0.,0.,1.));
#411 = DIRECTION('',(1.,0.,-0.));
#412 = ( GEOMETRIC_REPRESENTATION_CONTEXT(3) 
GLOBAL_UNCERTAINTY_ASSIGNED_CONTEXT((#416)) GLOBAL_UNIT_ASSIGNED_CONTEXT
((#413,#414,#415)) REPRESENTATION_CONTEXT('Context #1',
  '3D Context with UNIT and UNCERTAINTY') );
#413 = ( LENGTH_UNIT() NAMED_UNIT(*) SI_UNIT(.MILLI.,.METRE.) );
#414 = ( NAMED_UNIT(*) PLANE_ANGLE_UNIT() SI_UNIT($,.RADIAN.) );
#415 = ( NAMED_UNIT(*) SI_UNIT($,.STERADIAN.) SOLID_ANGLE_UNIT() );
#416 = UNCERTAINTY_MEASURE_WITH_UNIT(LENGTH_MEASURE(1.E-07),#413,
  'distance_accuracy_value','confusion accuracy');
#417 = CONTEXT_DEPENDENT_SHAPE_REPRESENTATION(#418,#420);
#418 = ( REPRESENTATION_RELATIONSHIP('','',#128,#10) 
REPRESENTATION_RELATIONSHIP_WITH_TRANSFORMATION(#419) 
SHAPE_REPRESENTATION_RELATIONSHIP() );
#419 = ITEM_DEFINED_TRANSFORMATION('','',#11,#19);
#420 = PRODUCT_DEFINITION_SHAPE('Placement','Placement of an item',#421
  );
#421 = NEXT_ASSEMBLY_USAGE_OCCURRENCE('12','Molded_body','',#5,#123,$);
#422 = PRODUCT_RELATED_PRODUCT_CATEGORY('part',$,(#125));
#423 = SHAPE_DEFINITION_REPRESENTATION(#424,#430);
#424 = PRODUCT_DEFINITION_SHAPE('','',#425);
#425 = PRODUCT_DEFINITION('design','',#426,#429);
#426 = PRODUCT_DEFINITION_FORMATION('','',#427);
#427 = PRODUCT('Lead_1','Lead_1','',(#428));
#428 = PRODUCT_CONTEXT('',#2,'mechanical');
#429 = PRODUCT_DEFINITION_CONTEXT('part definition',#2,'design');
#430 = ADVANCED_BREP_SHAPE_REPRESENTATION('',(#11,#431),#713);
#431 = MANIFOLD_SOLID_BREP('',#432);
#432 = CLOSED_SHELL('',(#433,#473,#504,#535,#566,#597,#628,#659,#681,
    #697));
#433 = ADVANCED_FACE('',(#434),#468,.T.);
#434 = FACE_BOUND('',#435,.T.);
#435 = EDGE_LOOP('',(#436,#446,#454,#462));
#436 = ORIENTED_EDGE('',*,*,#437,.T.);
#437 = EDGE_CURVE('',#438,#440,#442,.T.);
#438 = VERTEX_POINT('',#439);
#439 = CARTESIAN_POINT('',(-0.74,0.76,0.65));
#440 = VERTEX_POINT('',#441);
#441 = CARTESIAN_POINT('',(-0.74,1.14,0.65));
#442 = LINE('',#443,#444);
#443 = CARTESIAN_POINT('',(-0.74,0.76,0.65));
#444 = VECTOR('',#445,1.);
#445 = DIRECTION('',(0.,1.,0.));
#446 = ORIENTED_EDGE('',*,*,#447,.T.);
#447 = EDGE_CURVE('',#440,#448,#450,.T.);
#448 = VERTEX_POINT('',#449);
#449 = CARTESIAN_POINT('',(-0.82,1.14,0.65));
#450 = LINE('',#451,#452);
#451 = CARTESIAN_POINT('',(-0.74,1.14,0.65));
#452 = VECTOR('',#453,1.);
#453 = DIRECTION('',(-1.,0.,0.));
#454 = ORIENTED_EDGE('',*,*,#455,.F.);
#455 = EDGE_CURVE('',#456,#448,#458,.T.);
#456 = VERTEX_POINT('',#457);
#457 = CARTESIAN_POINT('',(-0.82,0.76,0.65));
#458 = LINE('',#459,#460);
#459 = CARTESIAN_POINT('',(-0.82,0.76,0.65));
#460 = VECTOR('',#461,1.);
#461 = DIRECTION('',(0.,1.,0.));
#462 = ORIENTED_EDGE('',*,*,#463,.F.);
#463 = EDGE_CURVE('',#438,#456,#464,.T.);
#464 = LINE('',#465,#466);
#465 = CARTESIAN_POINT('',(-0.74,0.76,0.65));
#466 = VECTOR('',#467,1.);
#467 = DIRECTION('',(-1.,0.,0.));
#468 = PLANE('',#469);
#469 = AXIS2_PLACEMENT_3D('',#470,#471,#472);
#470 = CARTESIAN_POINT('',(-0.74,0.76,0.65));
#471 = DIRECTION('',(0.,-0.,1.));
#472 = DIRECTION('',(-1.,0.,0.));
#473 = ADVANCED_FACE('',(#474),#499,.T.);
#474 = FACE_BOUND('',#475,.T.);
#475 = EDGE_LOOP('',(#476,#477,#485,#493));
#476 = ORIENTED_EDGE('',*,*,#455,.T.);
#477 = ORIENTED_EDGE('',*,*,#478,.T.);
#478 = EDGE_CURVE('',#448,#479,#481,.T.);
#479 = VERTEX_POINT('',#480);
#480 = CARTESIAN_POINT('',(-1.,1.14,0.15));
#481 = LINE('',#482,#483);
#482 = CARTESIAN_POINT('',(-0.82,1.14,0.65));
#483 = VECTOR('',#484,1.);
#484 = DIRECTION('',(-0.338719468273,0.,-0.940887411869));
#485 = ORIENTED_EDGE('',*,*,#486,.F.);
#486 = EDGE_CURVE('',#487,#479,#489,.T.);
#487 = VERTEX_POINT('',#488);
#488 = CARTESIAN_POINT('',(-1.,0.76,0.15));
#489 = LINE('',#490,#491);
#490 = CARTESIAN_POINT('',(-1.,0.76,0.15));
#491 = VECTOR('',#492,1.);
#492 = DIRECTION('',(0.,1.,0.));
#493 = ORIENTED_EDGE('',*,*,#494,.F.);
#494 = EDGE_CURVE('',#456,#487,#495,.T.);
#495 = LINE('',#496,#497);
#496 = CARTESIAN_POINT('',(-0.82,0.76,0.65));
#497 = VECTOR('',#498,1.);
#498 = DIRECTION('',(-0.338719468273,0.,-0.940887411869));
#499 = PLANE('',#500);
#500 = AXIS2_PLACEMENT_3D('',#501,#502,#503);
#501 = CARTESIAN_POINT('',(-0.82,0.76,0.65));
#502 = DIRECTION('',(-0.940887411869,0.,0.338719468273));
#503 = DIRECTION('',(-0.338719468273,0.,-0.940887411869));
#504 = ADVANCED_FACE('',(#505),#530,.T.);
#505 = FACE_BOUND('',#506,.T.);
#506 = EDGE_LOOP('',(#507,#508,#516,#524));
#507 = ORIENTED_EDGE('',*,*,#486,.T.);
#508 = ORIENTED_EDGE('',*,*,#509,.T.);
#509 = EDGE_CURVE('',#479,#510,#512,.T.);
#510 = VERTEX_POINT('',#511);
#511 = CARTESIAN_POINT('',(-1.4,1.14,0.15));
#512 = LINE('',#513,#514);
#513 = CARTESIAN_POINT('',(-1.,1.14,0.15));
#514 = VECTOR('',#515,1.);
#515 = DIRECTION('',(-1.,0.,0.));
#516 = ORIENTED_EDGE('',*,*,#517,.F.);
#517 = EDGE_CURVE('',#518,#510,#520,.T.);
#518 = VERTEX_POINT('',#519);
#519 = CARTESIAN_POINT('',(-1.4,0.76,0.15));
#520 = LINE('',#521,#522);
#521 = CARTESIAN_POINT('',(-1.4,0.76,0.15));
#522 = VECTOR('',#523,1.);
#523 = DIRECTION('',(0.,1.,0.));
#524 = ORIENTED_EDGE('',*,*,#525,.F.);
#525 = EDGE_CURVE('',#487,#518,#526,.T.);
#526 = LINE('',#527,#528);
#527 = CARTESIAN_POINT('',(-1.,0.76,0.15));
#528 = VECTOR('',#529,1.);
#529 = DIRECTION('',(-1.,0.,0.));
#530 = PLANE('',#531);
#531 = AXIS2_PLACEMENT_3D('',#532,#533,#534);
#532 = CARTESIAN_POINT('',(-1.,0.76,0.15));
#533 = DIRECTION('',(0.,-0.,1.));
#534 = DIRECTION('',(-1.,0.,0.));
#535 = ADVANCED_FACE('',(#536),#561,.T.);
#536 = FACE_BOUND('',#537,.T.);
#537 = EDGE_LOOP('',(#538,#539,#547,#555));
#538 = ORIENTED_EDGE('',*,*,#517,.T.);
#539 = ORIENTED_EDGE('',*,*,#540,.T.);
#540 = EDGE_CURVE('',#510,#541,#543,.T.);
#541 = VERTEX_POINT('',#542);
#542 = CARTESIAN_POINT('',(-1.4,1.14,0.));
#543 = LINE('',#544,#545);
#544 = CARTESIAN_POINT('',(-1.4,1.14,0.15));
#545 = VECTOR('',#546,1.);
#546 = DIRECTION('',(0.,0.,-1.));
#547 = ORIENTED_EDGE('',*,*,#548,.F.);
#548 = EDGE_CURVE('',#549,#541,#551,.T.);
#549 = VERTEX_POINT('',#550);
#550 = CARTESIAN_POINT('',(-1.4,0.76,0.));
#551 = LINE('',#552,#553);
#552 = CARTESIAN_POINT('',(-1.4,0.76,0.));
#553 = VECTOR('',#554,1.);
#554 = DIRECTION('',(0.,1.,0.));
#555 = ORIENTED_EDGE('',*,*,#556,.F.);
#556 = EDGE_CURVE('',#518,#549,#557,.T.);
#557 = LINE('',#558,#559);
#558 = CARTESIAN_POINT('',(-1.4,0.76,0.15));
#559 = VECTOR('',#560,1.);
#560 = DIRECTION('',(0.,0.,-1.));
#561 = PLANE('',#562);
#562 = AXIS2_PLACEMENT_3D('',#563,#564,#565);
#563 = CARTESIAN_POINT('',(-1.4,0.76,0.15));
#564 = DIRECTION('',(-1.,0.,0.));
#565 = DIRECTION('',(0.,0.,-1.));
#566 = ADVANCED_FACE('',(#567),#592,.T.);
#567 = FACE_BOUND('',#568,.T.);
#568 = EDGE_LOOP('',(#569,#570,#578,#586));
#569 = ORIENTED_EDGE('',*,*,#548,.T.);
#570 = ORIENTED_EDGE('',*,*,#571,.T.);
#571 = EDGE_CURVE('',#541,#572,#574,.T.);
#572 = VERTEX_POINT('',#573);
#573 = CARTESIAN_POINT('',(-0.92,1.14,0.));
#574 = LINE('',#575,#576);
#575 = CARTESIAN_POINT('',(-1.4,1.14,0.));
#576 = VECTOR('',#577,1.);
#577 = DIRECTION('',(1.,0.,0.));
#578 = ORIENTED_EDGE('',*,*,#579,.F.);
#579 = EDGE_CURVE('',#580,#572,#582,.T.);
#580 = VERTEX_POINT('',#581);
#581 = CARTESIAN_POINT('',(-0.92,0.76,0.));
#582 = LINE('',#583,#584);
#583 = CARTESIAN_POINT('',(-0.92,0.76,0.));
#584 = VECTOR('',#585,1.);
#585 = DIRECTION('',(0.,1.,0.));
#586 = ORIENTED_EDGE('',*,*,#587,.F.);
#587 = EDGE_CURVE('',#549,#580,#588,.T.);
#588 = LINE('',#589,#590);
#589 = CARTESIAN_POINT('',(-1.4,0.76,0.));
#590 = VECTOR('',#591,1.);
#591 = DIRECTION('',(1.,0.,0.));
#592 = PLANE('',#593);
#593 = AXIS2_PLACEMENT_3D('',#594,#595,#596);
#594 = CARTESIAN_POINT('',(-1.4,0.76,0.));
#595 = DIRECTION('',(0.,0.,-1.));
#596 = DIRECTION('',(1.,0.,0.));
#597 = ADVANCED_FACE('',(#598),#623,.T.);
#598 = FACE_BOUND('',#599,.T.);
#599 = EDGE_LOOP('',(#600,#601,#609,#617));
#600 = ORIENTED_EDGE('',*,*,#579,.T.);
#601 = ORIENTED_EDGE('',*,*,#602,.T.);
#602 = EDGE_CURVE('',#572,#603,#605,.T.);
#603 = VERTEX_POINT('',#604);
#604 = CARTESIAN_POINT('',(-0.77,1.14,0.5));
#605 = LINE('',#606,#607);
#606 = CARTESIAN_POINT('',(-0.92,1.14,0.));
#607 = VECTOR('',#608,1.);
#608 = DIRECTION('',(0.287347885566,0.,0.957826285221));
#609 = ORIENTED_EDGE('',*,*,#610,.F.);
#610 = EDGE_CURVE('',#611,#603,#613,.T.);
#611 = VERTEX_POINT('',#612);
#612 = CARTESIAN_POINT('',(-0.77,0.76,0.5));
#613 = LINE('',#614,#615);
#614 = CARTESIAN_POINT('',(-0.77,0.76,0.5));
#615 = VECTOR('',#616,1.);
#616 = DIRECTION('',(0.,1.,0.));
#617 = ORIENTED_EDGE('',*,*,#618,.F.);
#618 = EDGE_CURVE('',#580,#611,#619,.T.);
#619 = LINE('',#620,#621);
#620 = CARTESIAN_POINT('',(-0.92,0.76,0.));
#621 = VECTOR('',#622,1.);
#622 = DIRECTION('',(0.287347885566,0.,0.957826285221));
#623 = PLANE('',#624);
#624 = AXIS2_PLACEMENT_3D('',#625,#626,#627);
#625 = CARTESIAN_POINT('',(-0.92,0.76,0.));
#626 = DIRECTION('',(0.957826285221,0.,-0.287347885566));
#627 = DIRECTION('',(0.287347885566,0.,0.957826285221));
#628 = ADVANCED_FACE('',(#629),#654,.T.);
#629 = FACE_BOUND('',#630,.T.);
#630 = EDGE_LOOP('',(#631,#632,#640,#648));
#631 = ORIENTED_EDGE('',*,*,#610,.T.);
#632 = ORIENTED_EDGE('',*,*,#633,.T.);
#633 = EDGE_CURVE('',#603,#634,#636,.T.);
#634 = VERTEX_POINT('',#635);
#635 = CARTESIAN_POINT('',(-0.74,1.14,0.5));
#636 = LINE('',#637,#638);
#637 = CARTESIAN_POINT('',(-0.77,1.14,0.5));
#638 = VECTOR('',#639,1.);
#639 = DIRECTION('',(1.,0.,0.));
#640 = ORIENTED_EDGE('',*,*,#641,.F.);
#641 = EDGE_CURVE('',#642,#634,#644,.T.);
#642 = VERTEX_POINT('',#643);
#643 = CARTESIAN_POINT('',(-0.74,0.76,0.5));
#644 = LINE('',#645,#646);
#645 = CARTESIAN_POINT('',(-0.74,0.76,0.5));
#646 = VECTOR('',#647,1.);
#647 = DIRECTION('',(0.,1.,0.));
#648 = ORIENTED_EDGE('',*,*,#649,.F.);
#649 = EDGE_CURVE('',#611,#642,#650,.T.);
#650 = LINE('',#651,#652);
#651 = CARTESIAN_POINT('',(-0.77,0.76,0.5));
#652 = VECTOR('',#653,1.);
#653 = DIRECTION('',(1.,0.,0.));
#654 = PLANE('',#655);
#655 = AXIS2_PLACEMENT_3D('',#656,#657,#658);
#656 = CARTESIAN_POINT('',(-0.77,0.76,0.5));
#657 = DIRECTION('',(0.,0.,-1.));
#658 = DIRECTION('',(1.,0.,0.));
#659 = ADVANCED_FACE('',(#660),#676,.T.);
#660 = FACE_BOUND('',#661,.T.);
#661 = EDGE_LOOP('',(#662,#663,#669,#670));
#662 = ORIENTED_EDGE('',*,*,#641,.T.);
#663 = ORIENTED_EDGE('',*,*,#664,.T.);
#664 = EDGE_CURVE('',#634,#440,#665,.T.);
#665 = LINE('',#666,#667);
#666 = CARTESIAN_POINT('',(-0.74,1.14,0.5));
#667 = VECTOR('',#668,1.);
#668 = DIRECTION('',(0.,0.,1.));
#669 = ORIENTED_EDGE('',*,*,#437,.F.);
#670 = ORIENTED_EDGE('',*,*,#671,.F.);
#671 = EDGE_CURVE('',#642,#438,#672,.T.);
#672 = LINE('',#673,#674);
#673 = CARTESIAN_POINT('',(-0.74,0.76,0.5));
#674 = VECTOR('',#675,1.);
#675 = DIRECTION('',(0.,0.,1.));
#676 = PLANE('',#677);
#677 = AXIS2_PLACEMENT_3D('',#678,#679,#680);
#678 = CARTESIAN_POINT('',(-0.74,0.76,0.5));
#679 = DIRECTION('',(1.,0.,0.));
#680 = DIRECTION('',(0.,0.,1.));
#681 = ADVANCED_FACE('',(#682),#692,.T.);
#682 = FACE_BOUND('',#683,.T.);
#683 = EDGE_LOOP('',(#684,#685,#686,#687,#688,#689,#690,#691));
#684 = ORIENTED_EDGE('',*,*,#463,.T.);
#685 = ORIENTED_EDGE('',*,*,#494,.T.);
#686 = ORIENTED_EDGE('',*,*,#525,.T.);
#687 = ORIENTED_EDGE('',*,*,#556,.T.);
#688 = ORIENTED_EDGE('',*,*,#587,.T.);
#689 = ORIENTED_EDGE('',*,*,#618,.T.);
#690 = ORIENTED_EDGE('',*,*,#649,.T.);
#691 = ORIENTED_EDGE('',*,*,#671,.T.);
#692 = PLANE('',#693);
#693 = AXIS2_PLACEMENT_3D('',#694,#695,#696);
#694 = CARTESIAN_POINT('',(-1.01028853036,0.76,0.242196041745));
#695 = DIRECTION('',(-0.,-1.,-0.));
#696 = DIRECTION('',(0.,0.,-1.));
#697 = ADVANCED_FACE('',(#698),#708,.F.);
#698 = FACE_BOUND('',#699,.F.);
#699 = EDGE_LOOP('',(#700,#701,#702,#703,#704,#705,#706,#707));
#700 = ORIENTED_EDGE('',*,*,#447,.T.);
#701 = ORIENTED_EDGE('',*,*,#478,.T.);
#702 = ORIENTED_EDGE('',*,*,#509,.T.);
#703 = ORIENTED_EDGE('',*,*,#540,.T.);
#704 = ORIENTED_EDGE('',*,*,#571,.T.);
#705 = ORIENTED_EDGE('',*,*,#602,.T.);
#706 = ORIENTED_EDGE('',*,*,#633,.T.);
#707 = ORIENTED_EDGE('',*,*,#664,.T.);
#708 = PLANE('',#709);
#709 = AXIS2_PLACEMENT_3D('',#710,#711,#712);
#710 = CARTESIAN_POINT('',(-1.01028853036,1.14,0.242196041745));
#711 = DIRECTION('',(-0.,-1.,-0.));
#712 = DIRECTION('',(0.,0.,-1.));
#713 = ( GEOMETRIC_REPRESENTATION_CONTEXT(3) 
GLOBAL_UNCERTAINTY_ASSIGNED_CONTEXT((#717)) GLOBAL_UNIT_ASSIGNED_CONTEXT
((#714,#715,#716)) REPRESENTATION_CONTEXT('Context #1',
  '3D Context with UNIT and UNCERTAINTY') );
#714 = ( LENGTH_UNIT() NAMED_UNIT(*) SI_UNIT(.MILLI.,.METRE.) );
#715 = ( NAMED_UNIT(*) PLANE_ANGLE_UNIT() SI_UNIT($,.RADIAN.) );
#716 = ( NAMED_UNIT(*) SI_UNIT($,.STERADIAN.) SOLID_ANGLE_UNIT() );
#717 = UNCERTAINTY_MEASURE_WITH_UNIT(LENGTH_MEASURE(1.E-07),#714,
  'distance_accuracy_value','confusion accuracy');
#718 = CONTEXT_DEPENDENT_SHAPE_REPRESENTATION(#719,#721);
#719 = ( REPRESENTATION_RELATIONSHIP('','',#430,#10) 
REPRESENTATION_RELATIONSHIP_WITH_TRANSFORMATION(#720) 
SHAPE_REPRESENTATION_RELATIONSHIP() );
#720 = ITEM_DEFINED_TRANSFORMATION('','',#11,#23);
#721 = PRODUCT_DEFINITION_SHAPE('Placement','Placement of an item',#722
  );
#722 = NEXT_ASSEMBLY_USAGE_OCCURRENCE('13','Lead_1','',#5,#425,$);
#723 = PRODUCT_RELATED_PRODUCT_CATEGORY('part',$,(#427));
#724 = SHAPE_DEFINITION_REPRESENTATION(#725,#731);
#725 = PRODUCT_DEFINITION_SHAPE('','',#726);
#726 = PRODUCT_DEFINITION('design','',#727,#730);
#727 = PRODUCT_DEFINITION_FORMATION('','',#728);
#728 = PRODUCT('Lead_2','Lead_2','',(#729));
#729 = PRODUCT_CONTEXT('',#2,'mechanical');
#730 = PRODUCT_DEFINITION_CONTEXT('part definition',#2,'design');
#731 = ADVANCED_BREP_SHAPE_REPRESENTATION('',(#11,#732),#1014);
#732 = MANIFOLD_SOLID_BREP('',#733);
#733 = CLOSED_SHELL('',(#734,#774,#805,#836,#867,#898,#929,#960,#982,
    #998));
#734 = ADVANCED_FACE('',(#735),#769,.T.);
#735 = FACE_BOUND('',#736,.T.);
#736 = EDGE_LOOP('',(#737,#747,#755,#763));
#737 = ORIENTED_EDGE('',*,*,#738,.T.);
#738 = EDGE_CURVE('',#739,#741,#743,.T.);
#739 = VERTEX_POINT('',#740);
#740 = CARTESIAN_POINT('',(-0.74,-0.19,0.65));
#741 = VERTEX_POINT('',#742);
#742 = CARTESIAN_POINT('',(-0.74,0.19,0.65));
#743 = LINE('',#744,#745);
#744 = CARTESIAN_POINT('',(-0.74,-0.19,0.65));
#745 = VECTOR('',#746,1.);
#746 = DIRECTION('',(0.,1.,0.));
#747 = ORIENTED_EDGE('',*,*,#748,.T.);
#748 = EDGE_CURVE('',#741,#749,#751,.T.);
#749 = VERTEX_POINT('',#750);
#750 = CARTESIAN_POINT('',(-0.82,0.19,0.65));
#751 = LINE('',#752,#753);
#752 = CARTESIAN_POINT('',(-0.74,0.19,0.65));
#753 = VECTOR('',#754,1.);
#754 = DIRECTION('',(-1.,0.,0.));
#755 = ORIENTED_EDGE('',*,*,#756,.F.);
#756 = EDGE_CURVE('',#757,#749,#759,.T.);
#757 = VERTEX_POINT('',#758);
#758 = CARTESIAN_POINT('',(-0.82,-0.19,0.65));
#759 = LINE('',#760,#761);
#760 = CARTESIAN_POINT('',(-0.82,-0.19,0.65));
#761 = VECTOR('',#762,1.);
#762 = DIRECTION('',(0.,1.,0.));
#763 = ORIENTED_EDGE('',*,*,#764,.F.);
#764 = EDGE_CURVE('',#739,#757,#765,.T.);
#765 = LINE('',#766,#767);
#766 = CARTESIAN_POINT('',(-0.74,-0.19,0.65));
#767 = VECTOR('',#768,1.);
#768 = DIRECTION('',(-1.,0.,0.));
#769 = PLANE('',#770);
#770 = AXIS2_PLACEMENT_3D('',#771,#772,#773);
#771 = CARTESIAN_POINT('',(-0.74,-0.19,0.65));
#772 = DIRECTION('',(0.,-0.,1.));
#773 = DIRECTION('',(-1.,0.,0.));
#774 = ADVANCED_FACE('',(#775),#800,.T.);
#775 = FACE_BOUND('',#776,.T.);
#776 = EDGE_LOOP('',(#777,#778,#786,#794));
#777 = ORIENTED_EDGE('',*,*,#756,.T.);
#778 = ORIENTED_EDGE('',*,*,#779,.T.);
#779 = EDGE_CURVE('',#749,#780,#782,.T.);
#780 = VERTEX_POINT('',#781);
#781 = CARTESIAN_POINT('',(-1.,0.19,0.15));
#782 = LINE('',#783,#784);
#783 = CARTESIAN_POINT('',(-0.82,0.19,0.65));
#784 = VECTOR('',#785,1.);
#785 = DIRECTION('',(-0.338719468273,0.,-0.940887411869));
#786 = ORIENTED_EDGE('',*,*,#787,.F.);
#787 = EDGE_CURVE('',#788,#780,#790,.T.);
#788 = VERTEX_POINT('',#789);
#789 = CARTESIAN_POINT('',(-1.,-0.19,0.15));
#790 = LINE('',#791,#792);
#791 = CARTESIAN_POINT('',(-1.,-0.19,0.15));
#792 = VECTOR('',#793,1.);
#793 = DIRECTION('',(0.,1.,0.));
#794 = ORIENTED_EDGE('',*,*,#795,.F.);
#795 = EDGE_CURVE('',#757,#788,#796,.T.);
#796 = LINE('',#797,#798);
#797 = CARTESIAN_POINT('',(-0.82,-0.19,0.65));
#798 = VECTOR('',#799,1.);
#799 = DIRECTION('',(-0.338719468273,0.,-0.940887411869));
#800 = PLANE('',#801);
#801 = AXIS2_PLACEMENT_3D('',#802,#803,#804);
#802 = CARTESIAN_POINT('',(-0.82,-0.19,0.65));
#803 = DIRECTION('',(-0.940887411869,0.,0.338719468273));
#804 = DIRECTION('',(-0.338719468273,0.,-0.940887411869));
#805 = ADVANCED_FACE('',(#806),#831,.T.);
#806 = FACE_BOUND('',#807,.T.);
#807 = EDGE_LOOP('',(#808,#809,#817,#825));
#808 = ORIENTED_EDGE('',*,*,#787,.T.);
#809 = ORIENTED_EDGE('',*,*,#810,.T.);
#810 = EDGE_CURVE('',#780,#811,#813,.T.);
#811 = VERTEX_POINT('',#812);
#812 = CARTESIAN_POINT('',(-1.4,0.19,0.15));
#813 = LINE('',#814,#815);
#814 = CARTESIAN_POINT('',(-1.,0.19,0.15));
#815 = VECTOR('',#816,1.);
#816 = DIRECTION('',(-1.,0.,0.));
#817 = ORIENTED_EDGE('',*,*,#818,.F.);
#818 = EDGE_CURVE('',#819,#811,#821,.T.);
#819 = VERTEX_POINT('',#820);
#820 = CARTESIAN_POINT('',(-1.4,-0.19,0.15));
#821 = LINE('',#822,#823);
#822 = CARTESIAN_POINT('',(-1.4,-0.19,0.15));
#823 = VECTOR('',#824,1.);
#824 = DIRECTION('',(0.,1.,0.));
#825 = ORIENTED_EDGE('',*,*,#826,.F.);
#826 = EDGE_CURVE('',#788,#819,#827,.T.);
#827 = LINE('',#828,#829);
#828 = CARTESIAN_POINT('',(-1.,-0.19,0.15));
#829 = VECTOR('',#830,1.);
#830 = DIRECTION('',(-1.,0.,0.));
#831 = PLANE('',#832);
#832 = AXIS2_PLACEMENT_3D('',#833,#834,#835);
#833 = CARTESIAN_POINT('',(-1.,-0.19,0.15));
#834 = DIRECTION('',(0.,-0.,1.));
#835 = DIRECTION('',(-1.,0.,0.));
#836 = ADVANCED_FACE('',(#837),#862,.T.);
#837 = FACE_BOUND('',#838,.T.);
#838 = EDGE_LOOP('',(#839,#840,#848,#856));
#839 = ORIENTED_EDGE('',*,*,#818,.T.);
#840 = ORIENTED_EDGE('',*,*,#841,.T.);
#841 = EDGE_CURVE('',#811,#842,#844,.T.);
#842 = VERTEX_POINT('',#843);
#843 = CARTESIAN_POINT('',(-1.4,0.19,0.));
#844 = LINE('',#845,#846);
#845 = CARTESIAN_POINT('',(-1.4,0.19,0.15));
#846 = VECTOR('',#847,1.);
#847 = DIRECTION('',(0.,0.,-1.));
#848 = ORIENTED_EDGE('',*,*,#849,.F.);
#849 = EDGE_CURVE('',#850,#842,#852,.T.);
#850 = VERTEX_POINT('',#851);
#851 = CARTESIAN_POINT('',(-1.4,-0.19,0.));
#852 = LINE('',#853,#854);
#853 = CARTESIAN_POINT('',(-1.4,-0.19,0.));
#854 = VECTOR('',#855,1.);
#855 = DIRECTION('',(0.,1.,0.));
#856 = ORIENTED_EDGE('',*,*,#857,.F.);
#857 = EDGE_CURVE('',#819,#850,#858,.T.);
#858 = LINE('',#859,#860);
#859 = CARTESIAN_POINT('',(-1.4,-0.19,0.15));
#860 = VECTOR('',#861,1.);
#861 = DIRECTION('',(0.,0.,-1.));
#862 = PLANE('',#863);
#863 = AXIS2_PLACEMENT_3D('',#864,#865,#866);
#864 = CARTESIAN_POINT('',(-1.4,-0.19,0.15));
#865 = DIRECTION('',(-1.,0.,0.));
#866 = DIRECTION('',(0.,0.,-1.));
#867 = ADVANCED_FACE('',(#868),#893,.T.);
#868 = FACE_BOUND('',#869,.T.);
#869 = EDGE_LOOP('',(#870,#871,#879,#887));
#870 = ORIENTED_EDGE('',*,*,#849,.T.);
#871 = ORIENTED_EDGE('',*,*,#872,.T.);
#872 = EDGE_CURVE('',#842,#873,#875,.T.);
#873 = VERTEX_POINT('',#874);
#874 = CARTESIAN_POINT('',(-0.92,0.19,0.));
#875 = LINE('',#876,#877);
#876 = CARTESIAN_POINT('',(-1.4,0.19,0.));
#877 = VECTOR('',#878,1.);
#878 = DIRECTION('',(1.,0.,0.));
#879 = ORIENTED_EDGE('',*,*,#880,.F.);
#880 = EDGE_CURVE('',#881,#873,#883,.T.);
#881 = VERTEX_POINT('',#882);
#882 = CARTESIAN_POINT('',(-0.92,-0.19,0.));
#883 = LINE('',#884,#885);
#884 = CARTESIAN_POINT('',(-0.92,-0.19,0.));
#885 = VECTOR('',#886,1.);
#886 = DIRECTION('',(0.,1.,0.));
#887 = ORIENTED_EDGE('',*,*,#888,.F.);
#888 = EDGE_CURVE('',#850,#881,#889,.T.);
#889 = LINE('',#890,#891);
#890 = CARTESIAN_POINT('',(-1.4,-0.19,0.));
#891 = VECTOR('',#892,1.);
#892 = DIRECTION('',(1.,0.,0.));
#893 = PLANE('',#894);
#894 = AXIS2_PLACEMENT_3D('',#895,#896,#897);
#895 = CARTESIAN_POINT('',(-1.4,-0.19,0.));
#896 = DIRECTION('',(0.,0.,-1.));
#897 = DIRECTION('',(1.,0.,0.));
#898 = ADVANCED_FACE('',(#899),#924,.T.);
#899 = FACE_BOUND('',#900,.T.);
#900 = EDGE_LOOP('',(#901,#902,#910,#918));
#901 = ORIENTED_EDGE('',*,*,#880,.T.);
#902 = ORIENTED_EDGE('',*,*,#903,.T.);
#903 = EDGE_CURVE('',#873,#904,#906,.T.);
#904 = VERTEX_POINT('',#905);
#905 = CARTESIAN_POINT('',(-0.77,0.19,0.5));
#906 = LINE('',#907,#908);
#907 = CARTESIAN_POINT('',(-0.92,0.19,0.));
#908 = VECTOR('',#909,1.);
#909 = DIRECTION('',(0.287347885566,0.,0.957826285221));
#910 = ORIENTED_EDGE('',*,*,#911,.F.);
#911 = EDGE_CURVE('',#912,#904,#914,.T.);
#912 = VERTEX_POINT('',#913);
#913 = CARTESIAN_POINT('',(-0.77,-0.19,0.5));
#914 = LINE('',#915,#916);
#915 = CARTESIAN_POINT('',(-0.77,-0.19,0.5));
#916 = VECTOR('',#917,1.);
#917 = DIRECTION('',(0.,1.,0.));
#918 = ORIENTED_EDGE('',*,*,#919,.F.);
#919 = EDGE_CURVE('',#881,#912,#920,.T.);
#920 = LINE('',#921,#922);
#921 = CARTESIAN_POINT('',(-0.92,-0.19,0.));
#922 = VECTOR('',#923,1.);
#923 = DIRECTION('',(0.287347885566,0.,0.957826285221));
#924 = PLANE('',#925);
#925 = AXIS2_PLACEMENT_3D('',#926,#927,#928);
#926 = CARTESIAN_POINT('',(-0.92,-0.19,0.));
#927 = DIRECTION('',(0.957826285221,0.,-0.287347885566));
#928 = DIRECTION('',(0.287347885566,0.,0.957826285221));
#929 = ADVANCED_FACE('',(#930),#955,.T.);
#930 = FACE_BOUND('',#931,.T.);
#931 = EDGE_LOOP('',(#932,#933,#941,#949));
#932 = ORIENTED_EDGE('',*,*,#911,.T.);
#933 = ORIENTED_EDGE('',*,*,#934,.T.);
#934 = EDGE_CURVE('',#904,#935,#937,.T.);
#935 = VERTEX_POINT('',#936);
#936 = CARTESIAN_POINT('',(-0.74,0.19,0.5));
#937 = LINE('',#938,#939);
#938 = CARTESIAN_POINT('',(-0.77,0.19,0.5));
#939 = VECTOR('',#940,1.);
#940 = DIRECTION('',(1.,0.,0.));
#941 = ORIENTED_EDGE('',*,*,#942,.F.);
#942 = EDGE_CURVE('',#943,#935,#945,.T.);
#943 = VERTEX_POINT('',#944);
#944 = CARTESIAN_POINT('',(-0.74,-0.19,0.5));
#945 = LINE('',#946,#947);
#946 = CARTESIAN_POINT('',(-0.74,-0.19,0.5));
#947 = VECTOR('',#948,1.);
#948 = DIRECTION('',(0.,1.,0.));
#949 = ORIENTED_EDGE('',*,*,#950,.F.);
#950 = EDGE_CURVE('',#912,#943,#951,.T.);
#951 = LINE('',#952,#953);
#952 = CARTESIAN_POINT('',(-0.77,-0.19,0.5));
#953 = VECTOR('',#954,1.);
#954 = DIRECTION('',(1.,0.,0.));
#955 = PLANE('',#956);
#956 = AXIS2_PLACEMENT_3D('',#957,#958,#959);
#957 = CARTESIAN_POINT('',(-0.77,-0.19,0.5));
#958 = DIRECTION('',(0.,0.,-1.));
#959 = DIRECTION('',(1.,0.,0.));
#960 = ADVANCED_FACE('',(#961),#977,.T.);
#961 = FACE_BOUND('',#962,.T.);
#962 = EDGE_LOOP('',(#963,#964,#970,#971));
#963 = ORIENTED_EDGE('',*,*,#942,.T.);
#964 = ORIENTED_EDGE('',*,*,#965,.T.);
#965 = EDGE_CURVE('',#935,#741,#966,.T.);
#966 = LINE('',#967,#968);
#967 = CARTESIAN_POINT('',(-0.74,0.19,0.5));
#968 = VECTOR('',#969,1.);
#969 = DIRECTION('',(0.,0.,1.));
#970 = ORIENTED_EDGE('',*,*,#738,.F.);
#971 = ORIENTED_EDGE('',*,*,#972,.F.);
#972 = EDGE_CURVE('',#943,#739,#973,.T.);
#973 = LINE('',#974,#975);
#974 = CARTESIAN_POINT('',(-0.74,-0.19,0.5));
#975 = VECTOR('',#976,1.);
#976 = DIRECTION('',(0.,0.,1.));
#977 = PLANE('',#978);
#978 = AXIS2_PLACEMENT_3D('',#979,#980,#981);
#979 = CARTESIAN_POINT('',(-0.74,-0.19,0.5));
#980 = DIRECTION('',(1.,0.,0.));
#981 = DIRECTION('',(0.,0.,1.));
#982 = ADVANCED_FACE('',(#983),#993,.T.);
#983 = FACE_BOUND('',#984,.T.);
#984 = EDGE_LOOP('',(#985,#986,#987,#988,#989,#990,#991,#992));
#985 = ORIENTED_EDGE('',*,*,#764,.T.);
#986 = ORIENTED_EDGE('',*,*,#795,.T.);
#987 = ORIENTED_EDGE('',*,*,#826,.T.);
#988 = ORIENTED_EDGE('',*,*,#857,.T.);
#989 = ORIENTED_EDGE('',*,*,#888,.T.);
#990 = ORIENTED_EDGE('',*,*,#919,.T.);
#991 = ORIENTED_EDGE('',*,*,#950,.T.);
#992 = ORIENTED_EDGE('',*,*,#972,.T.);
#993 = PLANE('',#994);
#994 = AXIS2_PLACEMENT_3D('',#995,#996,#997);
#995 = CARTESIAN_POINT('',(-1.01028853036,-0.19,0.242196041745));
#996 = DIRECTION('',(-0.,-1.,-0.));
#997 = DIRECTION('',(0.,0.,-1.));
#998 = ADVANCED_FACE('',(#999),#1009,.F.);
#999 = FACE_BOUND('',#1000,.F.);
#1000 = EDGE_LOOP('',(#1001,#1002,#1003,#1004,#1005,#1006,#1007,#1008));
#1001 = ORIENTED_EDGE('',*,*,#748,.T.);
#1002 = ORIENTED_EDGE('',*,*,#779,.T.);
#1003 = ORIENTED_EDGE('',*,*,#810,.T.);
#1004 = ORIENTED_EDGE('',*,*,#841,.T.);
#1005 = ORIENTED_EDGE('',*,*,#872,.T.);
#1006 = ORIENTED_EDGE('',*,*,#903,.T.);
#1007 = ORIENTED_EDGE('',*,*,#934,.T.);
#1008 = ORIENTED_EDGE('',*,*,#965,.T.);
#1009 = PLANE('',#1010);
#1010 = AXIS2_PLACEMENT_3D('',#1011,#1012,#1013);
#1011 = CARTESIAN_POINT('',(-1.01028853036,0.19,0.242196041745));
#1012 = DIRECTION('',(-0.,-1.,-0.));
#1013 = DIRECTION('',(0.,0.,-1.));
#1014 = ( GEOMETRIC_REPRESENTATION_CONTEXT(3) 
GLOBAL_UNCERTAINTY_ASSIGNED_CONTEXT((#1018)) 
GLOBAL_UNIT_ASSIGNED_CONTEXT((#1015,#1016,#1017)) REPRESENTATION_CONTEXT
('Context #1','3D Context with UNIT and UNCERTAINTY') );
#1015 = ( LENGTH_UNIT() NAMED_UNIT(*) SI_UNIT(.MILLI.,.METRE.) );
#1016 = ( NAMED_UNIT(*) PLANE_ANGLE_UNIT() SI_UNIT($,.RADIAN.) );
#1017 = ( NAMED_UNIT(*) SI_UNIT($,.STERADIAN.) SOLID_ANGLE_UNIT() );
#1018 = UNCERTAINTY_MEASURE_WITH_UNIT(LENGTH_MEASURE(1.E-07),#1015,
  'distance_accuracy_value','confusion accuracy');
#1019 = CONTEXT_DEPENDENT_SHAPE_REPRESENTATION(#1020,#1022);
#1020 = ( REPRESENTATION_RELATIONSHIP('','',#731,#10) 
REPRESENTATION_RELATIONSHIP_WITH_TRANSFORMATION(#1021) 
SHAPE_REPRESENTATION_RELATIONSHIP() );
#1021 = ITEM_DEFINED_TRANSFORMATION('','',#11,#27);
#1022 = PRODUCT_DEFINITION_SHAPE('Placement','Placement of an item',
  #1023);
#1023 = NEXT_ASSEMBLY_USAGE_OCCURRENCE('14','Lead_2','',#5,#726,$);
#1024 = PRODUCT_RELATED_PRODUCT_CATEGORY('part',$,(#728));
#1025 = SHAPE_DEFINITION_REPRESENTATION(#1026,#1032);
#1026 = PRODUCT_DEFINITION_SHAPE('','',#1027);
#1027 = PRODUCT_DEFINITION('design','',#1028,#1031);
#1028 = PRODUCT_DEFINITION_FORMATION('','',#1029);
#1029 = PRODUCT('Lead_3','Lead_3','',(#1030));
#1030 = PRODUCT_CONTEXT('',#2,'mechanical');
#1031 = PRODUCT_DEFINITION_CONTEXT('part definition',#2,'design');
#1032 = ADVANCED_BREP_SHAPE_REPRESENTATION('',(#11,#1033),#1315);
#1033 = MANIFOLD_SOLID_BREP('',#1034);
#1034 = CLOSED_SHELL('',(#1035,#1075,#1106,#1137,#1168,#1199,#1230,#1261
    ,#1283,#1299));
#1035 = ADVANCED_FACE('',(#1036),#1070,.T.);
#1036 = FACE_BOUND('',#1037,.T.);
#1037 = EDGE_LOOP('',(#1038,#1048,#1056,#1064));
#1038 = ORIENTED_EDGE('',*,*,#1039,.T.);
#1039 = EDGE_CURVE('',#1040,#1042,#1044,.T.);
#1040 = VERTEX_POINT('',#1041);
#1041 = CARTESIAN_POINT('',(-0.74,-1.14,0.65));
#1042 = VERTEX_POINT('',#1043);
#1043 = CARTESIAN_POINT('',(-0.74,-0.76,0.65));
#1044 = LINE('',#1045,#1046);
#1045 = CARTESIAN_POINT('',(-0.74,-1.14,0.65));
#1046 = VECTOR('',#1047,1.);
#1047 = DIRECTION('',(0.,1.,0.));
#1048 = ORIENTED_EDGE('',*,*,#1049,.T.);
#1049 = EDGE_CURVE('',#1042,#1050,#1052,.T.);
#1050 = VERTEX_POINT('',#1051);
#1051 = CARTESIAN_POINT('',(-0.82,-0.76,0.65));
#1052 = LINE('',#1053,#1054);
#1053 = CARTESIAN_POINT('',(-0.74,-0.76,0.65));
#1054 = VECTOR('',#1055,1.);
#1055 = DIRECTION('',(-1.,0.,0.));
#1056 = ORIENTED_EDGE('',*,*,#1057,.F.);
#1057 = EDGE_CURVE('',#1058,#1050,#1060,.T.);
#1058 = VERTEX_POINT('',#1059);
#1059 = CARTESIAN_POINT('',(-0.82,-1.14,0.65));
#1060 = LINE('',#1061,#1062);
#1061 = CARTESIAN_POINT('',(-0.82,-1.14,0.65));
#1062 = VECTOR('',#1063,1.);
#1063 = DIRECTION('',(0.,1.,0.));
#1064 = ORIENTED_EDGE('',*,*,#1065,.F.);
#1065 = EDGE_CURVE('',#1040,#1058,#1066,.T.);
#1066 = LINE('',#1067,#1068);
#1067 = CARTESIAN_POINT('',(-0.74,-1.14,0.65));
#1068 = VECTOR('',#1069,1.);
#1069 = DIRECTION('',(-1.,0.,0.));
#1070 = PLANE('',#1071);
#1071 = AXIS2_PLACEMENT_3D('',#1072,#1073,#1074);
#1072 = CARTESIAN_POINT('',(-0.74,-1.14,0.65));
#1073 = DIRECTION('',(0.,-0.,1.));
#1074 = DIRECTION('',(-1.,0.,0.));
#1075 = ADVANCED_FACE('',(#1076),#1101,.T.);
#1076 = FACE_BOUND('',#1077,.T.);
#1077 = EDGE_LOOP('',(#1078,#1079,#1087,#1095));
#1078 = ORIENTED_EDGE('',*,*,#1057,.T.);
#1079 = ORIENTED_EDGE('',*,*,#1080,.T.);
#1080 = EDGE_CURVE('',#1050,#1081,#1083,.T.);
#1081 = VERTEX_POINT('',#1082);
#1082 = CARTESIAN_POINT('',(-1.,-0.76,0.15));
#1083 = LINE('',#1084,#1085);
#1084 = CARTESIAN_POINT('',(-0.82,-0.76,0.65));
#1085 = VECTOR('',#1086,1.);
#1086 = DIRECTION('',(-0.338719468273,0.,-0.940887411869));
#1087 = ORIENTED_EDGE('',*,*,#1088,.F.);
#1088 = EDGE_CURVE('',#1089,#1081,#1091,.T.);
#1089 = VERTEX_POINT('',#1090);
#1090 = CARTESIAN_POINT('',(-1.,-1.14,0.15));
#1091 = LINE('',#1092,#1093);
#1092 = CARTESIAN_POINT('',(-1.,-1.14,0.15));
#1093 = VECTOR('',#1094,1.);
#1094 = DIRECTION('',(0.,1.,0.));
#1095 = ORIENTED_EDGE('',*,*,#1096,.F.);
#1096 = EDGE_CURVE('',#1058,#1089,#1097,.T.);
#1097 = LINE('',#1098,#1099);
#1098 = CARTESIAN_POINT('',(-0.82,-1.14,0.65));
#1099 = VECTOR('',#1100,1.);
#1100 = DIRECTION('',(-0.338719468273,0.,-0.940887411869));
#1101 = PLANE('',#1102);
#1102 = AXIS2_PLACEMENT_3D('',#1103,#1104,#1105);
#1103 = CARTESIAN_POINT('',(-0.82,-1.14,0.65));
#1104 = DIRECTION('',(-0.940887411869,0.,0.338719468273));
#1105 = DIRECTION('',(-0.338719468273,0.,-0.940887411869));
#1106 = ADVANCED_FACE('',(#1107),#1132,.T.);
#1107 = FACE_BOUND('',#1108,.T.);
#1108 = EDGE_LOOP('',(#1109,#1110,#1118,#1126));
#1109 = ORIENTED_EDGE('',*,*,#1088,.T.);
#1110 = ORIENTED_EDGE('',*,*,#1111,.T.);
#1111 = EDGE_CURVE('',#1081,#1112,#1114,.T.);
#1112 = VERTEX_POINT('',#1113);
#1113 = CARTESIAN_POINT('',(-1.4,-0.76,0.15));
#1114 = LINE('',#1115,#1116);
#1115 = CARTESIAN_POINT('',(-1.,-0.76,0.15));
#1116 = VECTOR('',#1117,1.);
#1117 = DIRECTION('',(-1.,0.,0.));
#1118 = ORIENTED_EDGE('',*,*,#1119,.F.);
#1119 = EDGE_CURVE('',#1120,#1112,#1122,.T.);
#1120 = VERTEX_POINT('',#1121);
#1121 = CARTESIAN_POINT('',(-1.4,-1.14,0.15));
#1122 = LINE('',#1123,#1124);
#1123 = CARTESIAN_POINT('',(-1.4,-1.14,0.15));
#1124 = VECTOR('',#1125,1.);
#1125 = DIRECTION('',(0.,1.,0.));
#1126 = ORIENTED_EDGE('',*,*,#1127,.F.);
#1127 = EDGE_CURVE('',#1089,#1120,#1128,.T.);
#1128 = LINE('',#1129,#1130);
#1129 = CARTESIAN_POINT('',(-1.,-1.14,0.15));
#1130 = VECTOR('',#1131,1.);
#1131 = DIRECTION('',(-1.,0.,0.));
#1132 = PLANE('',#1133);
#1133 = AXIS2_PLACEMENT_3D('',#1134,#1135,#1136);
#1134 = CARTESIAN_POINT('',(-1.,-1.14,0.15));
#1135 = DIRECTION('',(0.,-0.,1.));
#1136 = DIRECTION('',(-1.,0.,0.));
#1137 = ADVANCED_FACE('',(#1138),#1163,.T.);
#1138 = FACE_BOUND('',#1139,.T.);
#1139 = EDGE_LOOP('',(#1140,#1141,#1149,#1157));
#1140 = ORIENTED_EDGE('',*,*,#1119,.T.);
#1141 = ORIENTED_EDGE('',*,*,#1142,.T.);
#1142 = EDGE_CURVE('',#1112,#1143,#1145,.T.);
#1143 = VERTEX_POINT('',#1144);
#1144 = CARTESIAN_POINT('',(-1.4,-0.76,0.));
#1145 = LINE('',#1146,#1147);
#1146 = CARTESIAN_POINT('',(-1.4,-0.76,0.15));
#1147 = VECTOR('',#1148,1.);
#1148 = DIRECTION('',(0.,0.,-1.));
#1149 = ORIENTED_EDGE('',*,*,#1150,.F.);
#1150 = EDGE_CURVE('',#1151,#1143,#1153,.T.);
#1151 = VERTEX_POINT('',#1152);
#1152 = CARTESIAN_POINT('',(-1.4,-1.14,0.));
#1153 = LINE('',#1154,#1155);
#1154 = CARTESIAN_POINT('',(-1.4,-1.14,0.));
#1155 = VECTOR('',#1156,1.);
#1156 = DIRECTION('',(0.,1.,0.));
#1157 = ORIENTED_EDGE('',*,*,#1158,.F.);
#1158 = EDGE_CURVE('',#1120,#1151,#1159,.T.);
#1159 = LINE('',#1160,#1161);
#1160 = CARTESIAN_POINT('',(-1.4,-1.14,0.15));
#1161 = VECTOR('',#1162,1.);
#1162 = DIRECTION('',(0.,0.,-1.));
#1163 = PLANE('',#1164);
#1164 = AXIS2_PLACEMENT_3D('',#1165,#1166,#1167);
#1165 = CARTESIAN_POINT('',(-1.4,-1.14,0.15));
#1166 = DIRECTION('',(-1.,0.,0.));
#1167 = DIRECTION('',(0.,0.,-1.));
#1168 = ADVANCED_FACE('',(#1169),#1194,.T.);
#1169 = FACE_BOUND('',#1170,.T.);
#1170 = EDGE_LOOP('',(#1171,#1172,#1180,#1188));
#1171 = ORIENTED_EDGE('',*,*,#1150,.T.);
#1172 = ORIENTED_EDGE('',*,*,#1173,.T.);
#1173 = EDGE_CURVE('',#1143,#1174,#1176,.T.);
#1174 = VERTEX_POINT('',#1175);
#1175 = CARTESIAN_POINT('',(-0.92,-0.76,0.));
#1176 = LINE('',#1177,#1178);
#1177 = CARTESIAN_POINT('',(-1.4,-0.76,0.));
#1178 = VECTOR('',#1179,1.);
#1179 = DIRECTION('',(1.,0.,0.));
#1180 = ORIENTED_EDGE('',*,*,#1181,.F.);
#1181 = EDGE_CURVE('',#1182,#1174,#1184,.T.);
#1182 = VERTEX_POINT('',#1183);
#1183 = CARTESIAN_POINT('',(-0.92,-1.14,0.));
#1184 = LINE('',#1185,#1186);
#1185 = CARTESIAN_POINT('',(-0.92,-1.14,0.));
#1186 = VECTOR('',#1187,1.);
#1187 = DIRECTION('',(0.,1.,0.));
#1188 = ORIENTED_EDGE('',*,*,#1189,.F.);
#1189 = EDGE_CURVE('',#1151,#1182,#1190,.T.);
#1190 = LINE('',#1191,#1192);
#1191 = CARTESIAN_POINT('',(-1.4,-1.14,0.));
#1192 = VECTOR('',#1193,1.);
#1193 = DIRECTION('',(1.,0.,0.));
#1194 = PLANE('',#1195);
#1195 = AXIS2_PLACEMENT_3D('',#1196,#1197,#1198);
#1196 = CARTESIAN_POINT('',(-1.4,-1.14,0.));
#1197 = DIRECTION('',(0.,0.,-1.));
#1198 = DIRECTION('',(1.,0.,0.));
#1199 = ADVANCED_FACE('',(#1200),#1225,.T.);
#1200 = FACE_BOUND('',#1201,.T.);
#1201 = EDGE_LOOP('',(#1202,#1203,#1211,#1219));
#1202 = ORIENTED_EDGE('',*,*,#1181,.T.);
#1203 = ORIENTED_EDGE('',*,*,#1204,.T.);
#1204 = EDGE_CURVE('',#1174,#1205,#1207,.T.);
#1205 = VERTEX_POINT('',#1206);
#1206 = CARTESIAN_POINT('',(-0.77,-0.76,0.5));
#1207 = LINE('',#1208,#1209);
#1208 = CARTESIAN_POINT('',(-0.92,-0.76,0.));
#1209 = VECTOR('',#1210,1.);
#1210 = DIRECTION('',(0.287347885566,0.,0.957826285221));
#1211 = ORIENTED_EDGE('',*,*,#1212,.F.);
#1212 = EDGE_CURVE('',#1213,#1205,#1215,.T.);
#1213 = VERTEX_POINT('',#1214);
#1214 = CARTESIAN_POINT('',(-0.77,-1.14,0.5));
#1215 = LINE('',#1216,#1217);
#1216 = CARTESIAN_POINT('',(-0.77,-1.14,0.5));
#1217 = VECTOR('',#1218,1.);
#1218 = DIRECTION('',(0.,1.,0.));
#1219 = ORIENTED_EDGE('',*,*,#1220,.F.);
#1220 = EDGE_CURVE('',#1182,#1213,#1221,.T.);
#1221 = LINE('',#1222,#1223);
#1222 = CARTESIAN_POINT('',(-0.92,-1.14,0.));
#1223 = VECTOR('',#1224,1.);
#1224 = DIRECTION('',(0.287347885566,0.,0.957826285221));
#1225 = PLANE('',#1226);
#1226 = AXIS2_PLACEMENT_3D('',#1227,#1228,#1229);
#1227 = CARTESIAN_POINT('',(-0.92,-1.14,0.));
#1228 = DIRECTION('',(0.957826285221,0.,-0.287347885566));
#1229 = DIRECTION('',(0.287347885566,0.,0.957826285221));
#1230 = ADVANCED_FACE('',(#1231),#1256,.T.);
#1231 = FACE_BOUND('',#1232,.T.);
#1232 = EDGE_LOOP('',(#1233,#1234,#1242,#1250));
#1233 = ORIENTED_EDGE('',*,*,#1212,.T.);
#1234 = ORIENTED_EDGE('',*,*,#1235,.T.);
#1235 = EDGE_CURVE('',#1205,#1236,#1238,.T.);
#1236 = VERTEX_POINT('',#1237);
#1237 = CARTESIAN_POINT('',(-0.74,-0.76,0.5));
#1238 = LINE('',#1239,#1240);
#1239 = CARTESIAN_POINT('',(-0.77,-0.76,0.5));
#1240 = VECTOR('',#1241,1.);
#1241 = DIRECTION('',(1.,0.,0.));
#1242 = ORIENTED_EDGE('',*,*,#1243,.F.);
#1243 = EDGE_CURVE('',#1244,#1236,#1246,.T.);
#1244 = VERTEX_POINT('',#1245);
#1245 = CARTESIAN_POINT('',(-0.74,-1.14,0.5));
#1246 = LINE('',#1247,#1248);
#1247 = CARTESIAN_POINT('',(-0.74,-1.14,0.5));
#1248 = VECTOR('',#1249,1.);
#1249 = DIRECTION('',(0.,1.,0.));
#1250 = ORIENTED_EDGE('',*,*,#1251,.F.);
#1251 = EDGE_CURVE('',#1213,#1244,#1252,.T.);
#1252 = LINE('',#1253,#1254);
#1253 = CARTESIAN_POINT('',(-0.77,-1.14,0.5));
#1254 = VECTOR('',#1255,1.);
#1255 = DIRECTION('',(1.,0.,0.));
#1256 = PLANE('',#1257);
#1257 = AXIS2_PLACEMENT_3D('',#1258,#1259,#1260);
#1258 = CARTESIAN_POINT('',(-0.77,-1.14,0.5));
#1259 = DIRECTION('',(0.,0.,-1.));
#1260 = DIRECTION('',(1.,0.,0.));
#1261 = ADVANCED_FACE('',(#1262),#1278,.T.);
#1262 = FACE_BOUND('',#1263,.T.);
#1263 = EDGE_LOOP('',(#1264,#1265,#1271,#1272));
#1264 = ORIENTED_EDGE('',*,*,#1243,.T.);
#1265 = ORIENTED_EDGE('',*,*,#1266,.T.);
#1266 = EDGE_CURVE('',#1236,#1042,#1267,.T.);
#1267 = LINE('',#1268,#1269);
#1268 = CARTESIAN_POINT('',(-0.74,-0.76,0.5));
#1269 = VECTOR('',#1270,1.);
#1270 = DIRECTION('',(0.,0.,1.));
#1271 = ORIENTED_EDGE('',*,*,#1039,.F.);
#1272 = ORIENTED_EDGE('',*,*,#1273,.F.);
#1273 = EDGE_CURVE('',#1244,#1040,#1274,.T.);
#1274 = LINE('',#1275,#1276);
#1275 = CARTESIAN_POINT('',(-0.74,-1.14,0.5));
#1276 = VECTOR('',#1277,1.);
#1277 = DIRECTION('',(0.,0.,1.));
#1278 = PLANE('',#1279);
#1279 = AXIS2_PLACEMENT_3D('',#1280,#1281,#1282);
#1280 = CARTESIAN_POINT('',(-0.74,-1.14,0.5));
#1281 = DIRECTION('',(1.,0.,0.));
#1282 = DIRECTION('',(0.,0.,1.));
#1283 = ADVANCED_FACE('',(#1284),#1294,.T.);
#1284 = FACE_BOUND('',#1285,.T.);
#1285 = EDGE_LOOP('',(#1286,#1287,#1288,#1289,#1290,#1291,#1292,#1293));
#1286 = ORIENTED_EDGE('',*,*,#1065,.T.);
#1287 = ORIENTED_EDGE('',*,*,#1096,.T.);
#1288 = ORIENTED_EDGE('',*,*,#1127,.T.);
#1289 = ORIENTED_EDGE('',*,*,#1158,.T.);
#1290 = ORIENTED_EDGE('',*,*,#1189,.T.);
#1291 = ORIENTED_EDGE('',*,*,#1220,.T.);
#1292 = ORIENTED_EDGE('',*,*,#1251,.T.);
#1293 = ORIENTED_EDGE('',*,*,#1273,.T.);
#1294 = PLANE('',#1295);
#1295 = AXIS2_PLACEMENT_3D('',#1296,#1297,#1298);
#1296 = CARTESIAN_POINT('',(-1.01028853036,-1.14,0.242196041745));
#1297 = DIRECTION('',(-0.,-1.,-0.));
#1298 = DIRECTION('',(0.,0.,-1.));
#1299 = ADVANCED_FACE('',(#1300),#1310,.F.);
#1300 = FACE_BOUND('',#1301,.F.);
#1301 = EDGE_LOOP('',(#1302,#1303,#1304,#1305,#1306,#1307,#1308,#1309));
#1302 = ORIENTED_EDGE('',*,*,#1049,.T.);
#1303 = ORIENTED_EDGE('',*,*,#1080,.T.);
#1304 = ORIENTED_EDGE('',*,*,#1111,.T.);
#1305 = ORIENTED_EDGE('',*,*,#1142,.T.);
#1306 = ORIENTED_EDGE('',*,*,#1173,.T.);
#1307 = ORIENTED_EDGE('',*,*,#1204,.T.);
#1308 = ORIENTED_EDGE('',*,*,#1235,.T.);
#1309 = ORIENTED_EDGE('',*,*,#1266,.T.);
#1310 = PLANE('',#1311);
#1311 = AXIS2_PLACEMENT_3D('',#1312,#1313,#1314);
#1312 = CARTESIAN_POINT('',(-1.01028853036,-0.76,0.242196041745));
#1313 = DIRECTION('',(-0.,-1.,-0.));
#1314 = DIRECTION('',(0.,0.,-1.));
#1315 = ( GEOMETRIC_REPRESENTATION_CONTEXT(3) 
GLOBAL_UNCERTAINTY_ASSIGNED_CONTEXT((#1319)) 
GLOBAL_UNIT_ASSIGNED_CONTEXT((#1316,#1317,#1318)) REPRESENTATION_CONTEXT
('Context #1','3D Context with UNIT and UNCERTAINTY') );
#1316 = ( LENGTH_UNIT() NAMED_UNIT(*) SI_UNIT(.MILLI.,.METRE.) );
#1317 = ( NAMED_UNIT(*) PLANE_ANGLE_UNIT() SI_UNIT($,.RADIAN.) );
#1318 = ( NAMED_UNIT(*) SI_UNIT($,.STERADIAN.) SOLID_ANGLE_UNIT() );
#1319 = UNCERTAINTY_MEASURE_WITH_UNIT(LENGTH_MEASURE(1.E-07),#1316,
  'distance_accuracy_value','confusion accuracy');
#1320 = CONTEXT_DEPENDENT_SHAPE_REPRESENTATION(#1321,#1323);
#1321 = ( REPRESENTATION_RELATIONSHIP('','',#1032,#10) 
REPRESENTATION_RELATIONSHIP_WITH_TRANSFORMATION(#1322) 
SHAPE_REPRESENTATION_RELATIONSHIP() );
#1322 = ITEM_DEFINED_TRANSFORMATION('','',#11,#31);
#1323 = PRODUCT_DEFINITION_SHAPE('Placement','Placement of an item',
  #1324);
#1324 = NEXT_ASSEMBLY_USAGE_OCCURRENCE('15','Lead_3','',#5,#1027,$);
#1325 = PRODUCT_RELATED_PRODUCT_CATEGORY('part',$,(#1029));
#1326 = SHAPE_DEFINITION_REPRESENTATION(#1327,#1333);
#1327 = PRODUCT_DEFINITION_SHAPE('','',#1328);
#1328 = PRODUCT_DEFINITION('design','',#1329,#1332);
#1329 = PRODUCT_DEFINITION_FORMATION('','',#1330);
#1330 = PRODUCT('Lead_4','Lead_4','',(#1331));
#1331 = PRODUCT_CONTEXT('',#2,'mechanical');
#1332 = PRODUCT_DEFINITION_CONTEXT('part definition',#2,'design');
#1333 = ADVANCED_BREP_SHAPE_REPRESENTATION('',(#11,#1334),#1616);
#1334 = MANIFOLD_SOLID_BREP('',#1335);
#1335 = CLOSED_SHELL('',(#1336,#1376,#1407,#1438,#1469,#1500,#1531,#1562
    ,#1584,#1600));
#1336 = ADVANCED_FACE('',(#1337),#1371,.F.);
#1337 = FACE_BOUND('',#1338,.F.);
#1338 = EDGE_LOOP('',(#1339,#1349,#1357,#1365));
#1339 = ORIENTED_EDGE('',*,*,#1340,.T.);
#1340 = EDGE_CURVE('',#1341,#1343,#1345,.T.);
#1341 = VERTEX_POINT('',#1342);
#1342 = CARTESIAN_POINT('',(0.74,-1.14,0.65));
#1343 = VERTEX_POINT('',#1344);
#1344 = CARTESIAN_POINT('',(0.74,-0.76,0.65));
#1345 = LINE('',#1346,#1347);
#1346 = CARTESIAN_POINT('',(0.74,-1.14,0.65));
#1347 = VECTOR('',#1348,1.);
#1348 = DIRECTION('',(0.,1.,0.));
#1349 = ORIENTED_EDGE('',*,*,#1350,.T.);
#1350 = EDGE_CURVE('',#1343,#1351,#1353,.T.);
#1351 = VERTEX_POINT('',#1352);
#1352 = CARTESIAN_POINT('',(0.82,-0.76,0.65));
#1353 = LINE('',#1354,#1355);
#1354 = CARTESIAN_POINT('',(0.74,-0.76,0.65));
#1355 = VECTOR('',#1356,1.);
#1356 = DIRECTION('',(1.,0.,0.));
#1357 = ORIENTED_EDGE('',*,*,#1358,.F.);
#1358 = EDGE_CURVE('',#1359,#1351,#1361,.T.);
#1359 = VERTEX_POINT('',#1360);
#1360 = CARTESIAN_POINT('',(0.82,-1.14,0.65));
#1361 = LINE('',#1362,#1363);
#1362 = CARTESIAN_POINT('',(0.82,-1.14,0.65));
#1363 = VECTOR('',#1364,1.);
#1364 = DIRECTION('',(0.,1.,0.));
#1365 = ORIENTED_EDGE('',*,*,#1366,.F.);
#1366 = EDGE_CURVE('',#1341,#1359,#1367,.T.);
#1367 = LINE('',#1368,#1369);
#1368 = CARTESIAN_POINT('',(0.74,-1.14,0.65));
#1369 = VECTOR('',#1370,1.);
#1370 = DIRECTION('',(1.,0.,0.));
#1371 = PLANE('',#1372);
#1372 = AXIS2_PLACEMENT_3D('',#1373,#1374,#1375);
#1373 = CARTESIAN_POINT('',(0.74,-1.14,0.65));
#1374 = DIRECTION('',(0.,0.,-1.));
#1375 = DIRECTION('',(1.,0.,0.));
#1376 = ADVANCED_FACE('',(#1377),#1402,.F.);
#1377 = FACE_BOUND('',#1378,.F.);
#1378 = EDGE_LOOP('',(#1379,#1380,#1388,#1396));
#1379 = ORIENTED_EDGE('',*,*,#1358,.T.);
#1380 = ORIENTED_EDGE('',*,*,#1381,.T.);
#1381 = EDGE_CURVE('',#1351,#1382,#1384,.T.);
#1382 = VERTEX_POINT('',#1383);
#1383 = CARTESIAN_POINT('',(1.,-0.76,0.15));
#1384 = LINE('',#1385,#1386);
#1385 = CARTESIAN_POINT('',(0.82,-0.76,0.65));
#1386 = VECTOR('',#1387,1.);
#1387 = DIRECTION('',(0.338719468273,0.,-0.940887411869));
#1388 = ORIENTED_EDGE('',*,*,#1389,.F.);
#1389 = EDGE_CURVE('',#1390,#1382,#1392,.T.);
#1390 = VERTEX_POINT('',#1391);
#1391 = CARTESIAN_POINT('',(1.,-1.14,0.15));
#1392 = LINE('',#1393,#1394);
#1393 = CARTESIAN_POINT('',(1.,-1.14,0.15));
#1394 = VECTOR('',#1395,1.);
#1395 = DIRECTION('',(0.,1.,0.));
#1396 = ORIENTED_EDGE('',*,*,#1397,.F.);
#1397 = EDGE_CURVE('',#1359,#1390,#1398,.T.);
#1398 = LINE('',#1399,#1400);
#1399 = CARTESIAN_POINT('',(0.82,-1.14,0.65));
#1400 = VECTOR('',#1401,1.);
#1401 = DIRECTION('',(0.338719468273,0.,-0.940887411869));
#1402 = PLANE('',#1403);
#1403 = AXIS2_PLACEMENT_3D('',#1404,#1405,#1406);
#1404 = CARTESIAN_POINT('',(0.82,-1.14,0.65));
#1405 = DIRECTION('',(-0.940887411869,0.,-0.338719468273));
#1406 = DIRECTION('',(0.338719468273,0.,-0.940887411869));
#1407 = ADVANCED_FACE('',(#1408),#1433,.F.);
#1408 = FACE_BOUND('',#1409,.F.);
#1409 = EDGE_LOOP('',(#1410,#1411,#1419,#1427));
#1410 = ORIENTED_EDGE('',*,*,#1389,.T.);
#1411 = ORIENTED_EDGE('',*,*,#1412,.T.);
#1412 = EDGE_CURVE('',#1382,#1413,#1415,.T.);
#1413 = VERTEX_POINT('',#1414);
#1414 = CARTESIAN_POINT('',(1.4,-0.76,0.15));
#1415 = LINE('',#1416,#1417);
#1416 = CARTESIAN_POINT('',(1.,-0.76,0.15));
#1417 = VECTOR('',#1418,1.);
#1418 = DIRECTION('',(1.,0.,0.));
#1419 = ORIENTED_EDGE('',*,*,#1420,.F.);
#1420 = EDGE_CURVE('',#1421,#1413,#1423,.T.);
#1421 = VERTEX_POINT('',#1422);
#1422 = CARTESIAN_POINT('',(1.4,-1.14,0.15));
#1423 = LINE('',#1424,#1425);
#1424 = CARTESIAN_POINT('',(1.4,-1.14,0.15));
#1425 = VECTOR('',#1426,1.);
#1426 = DIRECTION('',(0.,1.,0.));
#1427 = ORIENTED_EDGE('',*,*,#1428,.F.);
#1428 = EDGE_CURVE('',#1390,#1421,#1429,.T.);
#1429 = LINE('',#1430,#1431);
#1430 = CARTESIAN_POINT('',(1.,-1.14,0.15));
#1431 = VECTOR('',#1432,1.);
#1432 = DIRECTION('',(1.,0.,0.));
#1433 = PLANE('',#1434);
#1434 = AXIS2_PLACEMENT_3D('',#1435,#1436,#1437);
#1435 = CARTESIAN_POINT('',(1.,-1.14,0.15));
#1436 = DIRECTION('',(0.,0.,-1.));
#1437 = DIRECTION('',(1.,0.,0.));
#1438 = ADVANCED_FACE('',(#1439),#1464,.F.);
#1439 = FACE_BOUND('',#1440,.F.);
#1440 = EDGE_LOOP('',(#1441,#1442,#1450,#1458));
#1441 = ORIENTED_EDGE('',*,*,#1420,.T.);
#1442 = ORIENTED_EDGE('',*,*,#1443,.T.);
#1443 = EDGE_CURVE('',#1413,#1444,#1446,.T.);
#1444 = VERTEX_POINT('',#1445);
#1445 = CARTESIAN_POINT('',(1.4,-0.76,0.));
#1446 = LINE('',#1447,#1448);
#1447 = CARTESIAN_POINT('',(1.4,-0.76,0.15));
#1448 = VECTOR('',#1449,1.);
#1449 = DIRECTION('',(0.,0.,-1.));
#1450 = ORIENTED_EDGE('',*,*,#1451,.F.);
#1451 = EDGE_CURVE('',#1452,#1444,#1454,.T.);
#1452 = VERTEX_POINT('',#1453);
#1453 = CARTESIAN_POINT('',(1.4,-1.14,0.));
#1454 = LINE('',#1455,#1456);
#1455 = CARTESIAN_POINT('',(1.4,-1.14,0.));
#1456 = VECTOR('',#1457,1.);
#1457 = DIRECTION('',(0.,1.,0.));
#1458 = ORIENTED_EDGE('',*,*,#1459,.F.);
#1459 = EDGE_CURVE('',#1421,#1452,#1460,.T.);
#1460 = LINE('',#1461,#1462);
#1461 = CARTESIAN_POINT('',(1.4,-1.14,0.15));
#1462 = VECTOR('',#1463,1.);
#1463 = DIRECTION('',(0.,0.,-1.));
#1464 = PLANE('',#1465);
#1465 = AXIS2_PLACEMENT_3D('',#1466,#1467,#1468);
#1466 = CARTESIAN_POINT('',(1.4,-1.14,0.15));
#1467 = DIRECTION('',(-1.,0.,0.));
#1468 = DIRECTION('',(0.,0.,-1.));
#1469 = ADVANCED_FACE('',(#1470),#1495,.F.);
#1470 = FACE_BOUND('',#1471,.F.);
#1471 = EDGE_LOOP('',(#1472,#1473,#1481,#1489));
#1472 = ORIENTED_EDGE('',*,*,#1451,.T.);
#1473 = ORIENTED_EDGE('',*,*,#1474,.T.);
#1474 = EDGE_CURVE('',#1444,#1475,#1477,.T.);
#1475 = VERTEX_POINT('',#1476);
#1476 = CARTESIAN_POINT('',(0.92,-0.76,0.));
#1477 = LINE('',#1478,#1479);
#1478 = CARTESIAN_POINT('',(1.4,-0.76,0.));
#1479 = VECTOR('',#1480,1.);
#1480 = DIRECTION('',(-1.,0.,0.));
#1481 = ORIENTED_EDGE('',*,*,#1482,.F.);
#1482 = EDGE_CURVE('',#1483,#1475,#1485,.T.);
#1483 = VERTEX_POINT('',#1484);
#1484 = CARTESIAN_POINT('',(0.92,-1.14,0.));
#1485 = LINE('',#1486,#1487);
#1486 = CARTESIAN_POINT('',(0.92,-1.14,0.));
#1487 = VECTOR('',#1488,1.);
#1488 = DIRECTION('',(0.,1.,0.));
#1489 = ORIENTED_EDGE('',*,*,#1490,.F.);
#1490 = EDGE_CURVE('',#1452,#1483,#1491,.T.);
#1491 = LINE('',#1492,#1493);
#1492 = CARTESIAN_POINT('',(1.4,-1.14,0.));
#1493 = VECTOR('',#1494,1.);
#1494 = DIRECTION('',(-1.,0.,0.));
#1495 = PLANE('',#1496);
#1496 = AXIS2_PLACEMENT_3D('',#1497,#1498,#1499);
#1497 = CARTESIAN_POINT('',(1.4,-1.14,0.));
#1498 = DIRECTION('',(0.,-0.,1.));
#1499 = DIRECTION('',(-1.,0.,0.));
#1500 = ADVANCED_FACE('',(#1501),#1526,.F.);
#1501 = FACE_BOUND('',#1502,.F.);
#1502 = EDGE_LOOP('',(#1503,#1504,#1512,#1520));
#1503 = ORIENTED_EDGE('',*,*,#1482,.T.);
#1504 = ORIENTED_EDGE('',*,*,#1505,.T.);
#1505 = EDGE_CURVE('',#1475,#1506,#1508,.T.);
#1506 = VERTEX_POINT('',#1507);
#1507 = CARTESIAN_POINT('',(0.77,-0.76,0.5));
#1508 = LINE('',#1509,#1510);
#1509 = CARTESIAN_POINT('',(0.92,-0.76,0.));
#1510 = VECTOR('',#1511,1.);
#1511 = DIRECTION('',(-0.287347885566,0.,0.957826285221));
#1512 = ORIENTED_EDGE('',*,*,#1513,.F.);
#1513 = EDGE_CURVE('',#1514,#1506,#1516,.T.);
#1514 = VERTEX_POINT('',#1515);
#1515 = CARTESIAN_POINT('',(0.77,-1.14,0.5));
#1516 = LINE('',#1517,#1518);
#1517 = CARTESIAN_POINT('',(0.77,-1.14,0.5));
#1518 = VECTOR('',#1519,1.);
#1519 = DIRECTION('',(0.,1.,0.));
#1520 = ORIENTED_EDGE('',*,*,#1521,.F.);
#1521 = EDGE_CURVE('',#1483,#1514,#1522,.T.);
#1522 = LINE('',#1523,#1524);
#1523 = CARTESIAN_POINT('',(0.92,-1.14,0.));
#1524 = VECTOR('',#1525,1.);
#1525 = DIRECTION('',(-0.287347885566,0.,0.957826285221));
#1526 = PLANE('',#1527);
#1527 = AXIS2_PLACEMENT_3D('',#1528,#1529,#1530);
#1528 = CARTESIAN_POINT('',(0.92,-1.14,0.));
#1529 = DIRECTION('',(0.957826285221,-0.,0.287347885566));
#1530 = DIRECTION('',(-0.287347885566,0.,0.957826285221));
#1531 = ADVANCED_FACE('',(#1532),#1557,.F.);
#1532 = FACE_BOUND('',#1533,.F.);
#1533 = EDGE_LOOP('',(#1534,#1535,#1543,#1551));
#1534 = ORIENTED_EDGE('',*,*,#1513,.T.);
#1535 = ORIENTED_EDGE('',*,*,#1536,.T.);
#1536 = EDGE_CURVE('',#1506,#1537,#1539,.T.);
#1537 = VERTEX_POINT('',#1538);
#1538 = CARTESIAN_POINT('',(0.74,-0.76,0.5));
#1539 = LINE('',#1540,#1541);
#1540 = CARTESIAN_POINT('',(0.77,-0.76,0.5));
#1541 = VECTOR('',#1542,1.);
#1542 = DIRECTION('',(-1.,0.,0.));
#1543 = ORIENTED_EDGE('',*,*,#1544,.F.);
#1544 = EDGE_CURVE('',#1545,#1537,#1547,.T.);
#1545 = VERTEX_POINT('',#1546);
#1546 = CARTESIAN_POINT('',(0.74,-1.14,0.5));
#1547 = LINE('',#1548,#1549);
#1548 = CARTESIAN_POINT('',(0.74,-1.14,0.5));
#1549 = VECTOR('',#1550,1.);
#1550 = DIRECTION('',(0.,1.,0.));
#1551 = ORIENTED_EDGE('',*,*,#1552,.F.);
#1552 = EDGE_CURVE('',#1514,#1545,#1553,.T.);
#1553 = LINE('',#1554,#1555);
#1554 = CARTESIAN_POINT('',(0.77,-1.14,0.5));
#1555 = VECTOR('',#1556,1.);
#1556 = DIRECTION('',(-1.,0.,0.));
#1557 = PLANE('',#1558);
#1558 = AXIS2_PLACEMENT_3D('',#1559,#1560,#1561);
#1559 = CARTESIAN_POINT('',(0.77,-1.14,0.5));
#1560 = DIRECTION('',(0.,-0.,1.));
#1561 = DIRECTION('',(-1.,0.,0.));
#1562 = ADVANCED_FACE('',(#1563),#1579,.F.);
#1563 = FACE_BOUND('',#1564,.F.);
#1564 = EDGE_LOOP('',(#1565,#1566,#1572,#1573));
#1565 = ORIENTED_EDGE('',*,*,#1544,.T.);
#1566 = ORIENTED_EDGE('',*,*,#1567,.T.);
#1567 = EDGE_CURVE('',#1537,#1343,#1568,.T.);
#1568 = LINE('',#1569,#1570);
#1569 = CARTESIAN_POINT('',(0.74,-0.76,0.5));
#1570 = VECTOR('',#1571,1.);
#1571 = DIRECTION('',(0.,0.,1.));
#1572 = ORIENTED_EDGE('',*,*,#1340,.F.);
#1573 = ORIENTED_EDGE('',*,*,#1574,.F.);
#1574 = EDGE_CURVE('',#1545,#1341,#1575,.T.);
#1575 = LINE('',#1576,#1577);
#1576 = CARTESIAN_POINT('',(0.74,-1.14,0.5));
#1577 = VECTOR('',#1578,1.);
#1578 = DIRECTION('',(0.,0.,1.));
#1579 = PLANE('',#1580);
#1580 = AXIS2_PLACEMENT_3D('',#1581,#1582,#1583);
#1581 = CARTESIAN_POINT('',(0.74,-1.14,0.5));
#1582 = DIRECTION('',(1.,0.,0.));
#1583 = DIRECTION('',(0.,0.,1.));
#1584 = ADVANCED_FACE('',(#1585),#1595,.F.);
#1585 = FACE_BOUND('',#1586,.F.);
#1586 = EDGE_LOOP('',(#1587,#1588,#1589,#1590,#1591,#1592,#1593,#1594));
#1587 = ORIENTED_EDGE('',*,*,#1366,.T.);
#1588 = ORIENTED_EDGE('',*,*,#1397,.T.);
#1589 = ORIENTED_EDGE('',*,*,#1428,.T.);
#1590 = ORIENTED_EDGE('',*,*,#1459,.T.);
#1591 = ORIENTED_EDGE('',*,*,#1490,.T.);
#1592 = ORIENTED_EDGE('',*,*,#1521,.T.);
#1593 = ORIENTED_EDGE('',*,*,#1552,.T.);
#1594 = ORIENTED_EDGE('',*,*,#1574,.T.);
#1595 = PLANE('',#1596);
#1596 = AXIS2_PLACEMENT_3D('',#1597,#1598,#1599);
#1597 = CARTESIAN_POINT('',(1.01028853036,-1.14,0.242196041745));
#1598 = DIRECTION('',(0.,1.,0.));
#1599 = DIRECTION('',(0.,-0.,1.));
#1600 = ADVANCED_FACE('',(#1601),#1611,.T.);
#1601 = FACE_BOUND('',#1602,.T.);
#1602 = EDGE_LOOP('',(#1603,#1604,#1605,#1606,#1607,#1608,#1609,#1610));
#1603 = ORIENTED_EDGE('',*,*,#1350,.T.);
#1604 = ORIENTED_EDGE('',*,*,#1381,.T.);
#1605 = ORIENTED_EDGE('',*,*,#1412,.T.);
#1606 = ORIENTED_EDGE('',*,*,#1443,.T.);
#1607 = ORIENTED_EDGE('',*,*,#1474,.T.);
#1608 = ORIENTED_EDGE('',*,*,#1505,.T.);
#1609 = ORIENTED_EDGE('',*,*,#1536,.T.);
#1610 = ORIENTED_EDGE('',*,*,#1567,.T.);
#1611 = PLANE('',#1612);
#1612 = AXIS2_PLACEMENT_3D('',#1613,#1614,#1615);
#1613 = CARTESIAN_POINT('',(1.01028853036,-0.76,0.242196041745));
#1614 = DIRECTION('',(0.,1.,0.));
#1615 = DIRECTION('',(0.,-0.,1.));
#1616 = ( GEOMETRIC_REPRESENTATION_CONTEXT(3) 
GLOBAL_UNCERTAINTY_ASSIGNED_CONTEXT((#1620)) 
GLOBAL_UNIT_ASSIGNED_CONTEXT((#1617,#1618,#1619)) REPRESENTATION_CONTEXT
('Context #1','3D Context with UNIT and UNCERTAINTY') );
#1617 = ( LENGTH_UNIT() NAMED_UNIT(*) SI_UNIT(.MILLI.,.METRE.) );
#1618 = ( NAMED_UNIT(*) PLANE_ANGLE_UNIT() SI_UNIT($,.RADIAN.) );
#1619 = ( NAMED_UNIT(*) SI_UNIT($,.STERADIAN.) SOLID_ANGLE_UNIT() );
#1620 = UNCERTAINTY_MEASURE_WITH_UNIT(LENGTH_MEASURE(1.E-07),#1617,
  'distance_accuracy_value','confusion accuracy');
#1621 = CONTEXT_DEPENDENT_SHAPE_REPRESENTATION(#1622,#1624);
#1622 = ( REPRESENTATION_RELATIONSHIP('','',#1333,#10) 
REPRESENTATION_RELATIONSHIP_WITH_TRANSFORMATION(#1623) 
SHAPE_REPRESENTATION_RELATIONSHIP() );
#1623 = ITEM_DEFINED_TRANSFORMATION('','',#11,#35);
#1624 = PRODUCT_DEFINITION_SHAPE('Placement','Placement of an item',
  #1625);
#1625 = NEXT_ASSEMBLY_USAGE_OCCURRENCE('16','Lead_4','',#5,#1328,$);
#1626 = PRODUCT_RELATED_PRODUCT_CATEGORY('part',$,(#1330));
#1627 = SHAPE_DEFINITION_REPRESENTATION(#1628,#1634);
#1628 = PRODUCT_DEFINITION_SHAPE('','',#1629);
#1629 = PRODUCT_DEFINITION('design','',#1630,#1633);
#1630 = PRODUCT_DEFINITION_FORMATION('','',#1631);
#1631 = PRODUCT('Lead_5','Lead_5','',(#1632));
#1632 = PRODUCT_CONTEXT('',#2,'mechanical');
#1633 = PRODUCT_DEFINITION_CONTEXT('part definition',#2,'design');
#1634 = ADVANCED_BREP_SHAPE_REPRESENTATION('',(#11,#1635),#1917);
#1635 = MANIFOLD_SOLID_BREP('',#1636);
#1636 = CLOSED_SHELL('',(#1637,#1677,#1708,#1739,#1770,#1801,#1832,#1863
    ,#1885,#1901));
#1637 = ADVANCED_FACE('',(#1638),#1672,.F.);
#1638 = FACE_BOUND('',#1639,.F.);
#1639 = EDGE_LOOP('',(#1640,#1650,#1658,#1666));
#1640 = ORIENTED_EDGE('',*,*,#1641,.T.);
#1641 = EDGE_CURVE('',#1642,#1644,#1646,.T.);
#1642 = VERTEX_POINT('',#1643);
#1643 = CARTESIAN_POINT('',(0.74,0.76,0.65));
#1644 = VERTEX_POINT('',#1645);
#1645 = CARTESIAN_POINT('',(0.74,1.14,0.65));
#1646 = LINE('',#1647,#1648);
#1647 = CARTESIAN_POINT('',(0.74,0.76,0.65));
#1648 = VECTOR('',#1649,1.);
#1649 = DIRECTION('',(0.,1.,0.));
#1650 = ORIENTED_EDGE('',*,*,#1651,.T.);
#1651 = EDGE_CURVE('',#1644,#1652,#1654,.T.);
#1652 = VERTEX_POINT('',#1653);
#1653 = CARTESIAN_POINT('',(0.82,1.14,0.65));
#1654 = LINE('',#1655,#1656);
#1655 = CARTESIAN_POINT('',(0.74,1.14,0.65));
#1656 = VECTOR('',#1657,1.);
#1657 = DIRECTION('',(1.,0.,0.));
#1658 = ORIENTED_EDGE('',*,*,#1659,.F.);
#1659 = EDGE_CURVE('',#1660,#1652,#1662,.T.);
#1660 = VERTEX_POINT('',#1661);
#1661 = CARTESIAN_POINT('',(0.82,0.76,0.65));
#1662 = LINE('',#1663,#1664);
#1663 = CARTESIAN_POINT('',(0.82,0.76,0.65));
#1664 = VECTOR('',#1665,1.);
#1665 = DIRECTION('',(0.,1.,0.));
#1666 = ORIENTED_EDGE('',*,*,#1667,.F.);
#1667 = EDGE_CURVE('',#1642,#1660,#1668,.T.);
#1668 = LINE('',#1669,#1670);
#1669 = CARTESIAN_POINT('',(0.74,0.76,0.65));
#1670 = VECTOR('',#1671,1.);
#1671 = DIRECTION('',(1.,0.,0.));
#1672 = PLANE('',#1673);
#1673 = AXIS2_PLACEMENT_3D('',#1674,#1675,#1676);
#1674 = CARTESIAN_POINT('',(0.74,0.76,0.65));
#1675 = DIRECTION('',(0.,0.,-1.));
#1676 = DIRECTION('',(1.,0.,0.));
#1677 = ADVANCED_FACE('',(#1678),#1703,.F.);
#1678 = FACE_BOUND('',#1679,.F.);
#1679 = EDGE_LOOP('',(#1680,#1681,#1689,#1697));
#1680 = ORIENTED_EDGE('',*,*,#1659,.T.);
#1681 = ORIENTED_EDGE('',*,*,#1682,.T.);
#1682 = EDGE_CURVE('',#1652,#1683,#1685,.T.);
#1683 = VERTEX_POINT('',#1684);
#1684 = CARTESIAN_POINT('',(1.,1.14,0.15));
#1685 = LINE('',#1686,#1687);
#1686 = CARTESIAN_POINT('',(0.82,1.14,0.65));
#1687 = VECTOR('',#1688,1.);
#1688 = DIRECTION('',(0.338719468273,0.,-0.940887411869));
#1689 = ORIENTED_EDGE('',*,*,#1690,.F.);
#1690 = EDGE_CURVE('',#1691,#1683,#1693,.T.);
#1691 = VERTEX_POINT('',#1692);
#1692 = CARTESIAN_POINT('',(1.,0.76,0.15));
#1693 = LINE('',#1694,#1695);
#1694 = CARTESIAN_POINT('',(1.,0.76,0.15));
#1695 = VECTOR('',#1696,1.);
#1696 = DIRECTION('',(0.,1.,0.));
#1697 = ORIENTED_EDGE('',*,*,#1698,.F.);
#1698 = EDGE_CURVE('',#1660,#1691,#1699,.T.);
#1699 = LINE('',#1700,#1701);
#1700 = CARTESIAN_POINT('',(0.82,0.76,0.65));
#1701 = VECTOR('',#1702,1.);
#1702 = DIRECTION('',(0.338719468273,0.,-0.940887411869));
#1703 = PLANE('',#1704);
#1704 = AXIS2_PLACEMENT_3D('',#1705,#1706,#1707);
#1705 = CARTESIAN_POINT('',(0.82,0.76,0.65));
#1706 = DIRECTION('',(-0.940887411869,0.,-0.338719468273));
#1707 = DIRECTION('',(0.338719468273,0.,-0.940887411869));
#1708 = ADVANCED_FACE('',(#1709),#1734,.F.);
#1709 = FACE_BOUND('',#1710,.F.);
#1710 = EDGE_LOOP('',(#1711,#1712,#1720,#1728));
#1711 = ORIENTED_EDGE('',*,*,#1690,.T.);
#1712 = ORIENTED_EDGE('',*,*,#1713,.T.);
#1713 = EDGE_CURVE('',#1683,#1714,#1716,.T.);
#1714 = VERTEX_POINT('',#1715);
#1715 = CARTESIAN_POINT('',(1.4,1.14,0.15));
#1716 = LINE('',#1717,#1718);
#1717 = CARTESIAN_POINT('',(1.,1.14,0.15));
#1718 = VECTOR('',#1719,1.);
#1719 = DIRECTION('',(1.,0.,0.));
#1720 = ORIENTED_EDGE('',*,*,#1721,.F.);
#1721 = EDGE_CURVE('',#1722,#1714,#1724,.T.);
#1722 = VERTEX_POINT('',#1723);
#1723 = CARTESIAN_POINT('',(1.4,0.76,0.15));
#1724 = LINE('',#1725,#1726);
#1725 = CARTESIAN_POINT('',(1.4,0.76,0.15));
#1726 = VECTOR('',#1727,1.);
#1727 = DIRECTION('',(0.,1.,0.));
#1728 = ORIENTED_EDGE('',*,*,#1729,.F.);
#1729 = EDGE_CURVE('',#1691,#1722,#1730,.T.);
#1730 = LINE('',#1731,#1732);
#1731 = CARTESIAN_POINT('',(1.,0.76,0.15));
#1732 = VECTOR('',#1733,1.);
#1733 = DIRECTION('',(1.,0.,0.));
#1734 = PLANE('',#1735);
#1735 = AXIS2_PLACEMENT_3D('',#1736,#1737,#1738);
#1736 = CARTESIAN_POINT('',(1.,0.76,0.15));
#1737 = DIRECTION('',(0.,0.,-1.));
#1738 = DIRECTION('',(1.,0.,0.));
#1739 = ADVANCED_FACE('',(#1740),#1765,.F.);
#1740 = FACE_BOUND('',#1741,.F.);
#1741 = EDGE_LOOP('',(#1742,#1743,#1751,#1759));
#1742 = ORIENTED_EDGE('',*,*,#1721,.T.);
#1743 = ORIENTED_EDGE('',*,*,#1744,.T.);
#1744 = EDGE_CURVE('',#1714,#1745,#1747,.T.);
#1745 = VERTEX_POINT('',#1746);
#1746 = CARTESIAN_POINT('',(1.4,1.14,0.));
#1747 = LINE('',#1748,#1749);
#1748 = CARTESIAN_POINT('',(1.4,1.14,0.15));
#1749 = VECTOR('',#1750,1.);
#1750 = DIRECTION('',(0.,0.,-1.));
#1751 = ORIENTED_EDGE('',*,*,#1752,.F.);
#1752 = EDGE_CURVE('',#1753,#1745,#1755,.T.);
#1753 = VERTEX_POINT('',#1754);
#1754 = CARTESIAN_POINT('',(1.4,0.76,0.));
#1755 = LINE('',#1756,#1757);
#1756 = CARTESIAN_POINT('',(1.4,0.76,0.));
#1757 = VECTOR('',#1758,1.);
#1758 = DIRECTION('',(0.,1.,0.));
#1759 = ORIENTED_EDGE('',*,*,#1760,.F.);
#1760 = EDGE_CURVE('',#1722,#1753,#1761,.T.);
#1761 = LINE('',#1762,#1763);
#1762 = CARTESIAN_POINT('',(1.4,0.76,0.15));
#1763 = VECTOR('',#1764,1.);
#1764 = DIRECTION('',(0.,0.,-1.));
#1765 = PLANE('',#1766);
#1766 = AXIS2_PLACEMENT_3D('',#1767,#1768,#1769);
#1767 = CARTESIAN_POINT('',(1.4,0.76,0.15));
#1768 = DIRECTION('',(-1.,0.,0.));
#1769 = DIRECTION('',(0.,0.,-1.));
#1770 = ADVANCED_FACE('',(#1771),#1796,.F.);
#1771 = FACE_BOUND('',#1772,.F.);
#1772 = EDGE_LOOP('',(#1773,#1774,#1782,#1790));
#1773 = ORIENTED_EDGE('',*,*,#1752,.T.);
#1774 = ORIENTED_EDGE('',*,*,#1775,.T.);
#1775 = EDGE_CURVE('',#1745,#1776,#1778,.T.);
#1776 = VERTEX_POINT('',#1777);
#1777 = CARTESIAN_POINT('',(0.92,1.14,0.));
#1778 = LINE('',#1779,#1780);
#1779 = CARTESIAN_POINT('',(1.4,1.14,0.));
#1780 = VECTOR('',#1781,1.);
#1781 = DIRECTION('',(-1.,0.,0.));
#1782 = ORIENTED_EDGE('',*,*,#1783,.F.);
#1783 = EDGE_CURVE('',#1784,#1776,#1786,.T.);
#1784 = VERTEX_POINT('',#1785);
#1785 = CARTESIAN_POINT('',(0.92,0.76,0.));
#1786 = LINE('',#1787,#1788);
#1787 = CARTESIAN_POINT('',(0.92,0.76,0.));
#1788 = VECTOR('',#1789,1.);
#1789 = DIRECTION('',(0.,1.,0.));
#1790 = ORIENTED_EDGE('',*,*,#1791,.F.);
#1791 = EDGE_CURVE('',#1753,#1784,#1792,.T.);
#1792 = LINE('',#1793,#1794);
#1793 = CARTESIAN_POINT('',(1.4,0.76,0.));
#1794 = VECTOR('',#1795,1.);
#1795 = DIRECTION('',(-1.,0.,0.));
#1796 = PLANE('',#1797);
#1797 = AXIS2_PLACEMENT_3D('',#1798,#1799,#1800);
#1798 = CARTESIAN_POINT('',(1.4,0.76,0.));
#1799 = DIRECTION('',(0.,-0.,1.));
#1800 = DIRECTION('',(-1.,0.,0.));
#1801 = ADVANCED_FACE('',(#1802),#1827,.F.);
#1802 = FACE_BOUND('',#1803,.F.);
#1803 = EDGE_LOOP('',(#1804,#1805,#1813,#1821));
#1804 = ORIENTED_EDGE('',*,*,#1783,.T.);
#1805 = ORIENTED_EDGE('',*,*,#1806,.T.);
#1806 = EDGE_CURVE('',#1776,#1807,#1809,.T.);
#1807 = VERTEX_POINT('',#1808);
#1808 = CARTESIAN_POINT('',(0.77,1.14,0.5));
#1809 = LINE('',#1810,#1811);
#1810 = CARTESIAN_POINT('',(0.92,1.14,0.));
#1811 = VECTOR('',#1812,1.);
#1812 = DIRECTION('',(-0.287347885566,0.,0.957826285221));
#1813 = ORIENTED_EDGE('',*,*,#1814,.F.);
#1814 = EDGE_CURVE('',#1815,#1807,#1817,.T.);
#1815 = VERTEX_POINT('',#1816);
#1816 = CARTESIAN_POINT('',(0.77,0.76,0.5));
#1817 = LINE('',#1818,#1819);
#1818 = CARTESIAN_POINT('',(0.77,0.76,0.5));
#1819 = VECTOR('',#1820,1.);
#1820 = DIRECTION('',(0.,1.,0.));
#1821 = ORIENTED_EDGE('',*,*,#1822,.F.);
#1822 = EDGE_CURVE('',#1784,#1815,#1823,.T.);
#1823 = LINE('',#1824,#1825);
#1824 = CARTESIAN_POINT('',(0.92,0.76,0.));
#1825 = VECTOR('',#1826,1.);
#1826 = DIRECTION('',(-0.287347885566,0.,0.957826285221));
#1827 = PLANE('',#1828);
#1828 = AXIS2_PLACEMENT_3D('',#1829,#1830,#1831);
#1829 = CARTESIAN_POINT('',(0.92,0.76,0.));
#1830 = DIRECTION('',(0.957826285221,-0.,0.287347885566));
#1831 = DIRECTION('',(-0.287347885566,0.,0.957826285221));
#1832 = ADVANCED_FACE('',(#1833),#1858,.F.);
#1833 = FACE_BOUND('',#1834,.F.);
#1834 = EDGE_LOOP('',(#1835,#1836,#1844,#1852));
#1835 = ORIENTED_EDGE('',*,*,#1814,.T.);
#1836 = ORIENTED_EDGE('',*,*,#1837,.T.);
#1837 = EDGE_CURVE('',#1807,#1838,#1840,.T.);
#1838 = VERTEX_POINT('',#1839);
#1839 = CARTESIAN_POINT('',(0.74,1.14,0.5));
#1840 = LINE('',#1841,#1842);
#1841 = CARTESIAN_POINT('',(0.77,1.14,0.5));
#1842 = VECTOR('',#1843,1.);
#1843 = DIRECTION('',(-1.,0.,0.));
#1844 = ORIENTED_EDGE('',*,*,#1845,.F.);
#1845 = EDGE_CURVE('',#1846,#1838,#1848,.T.);
#1846 = VERTEX_POINT('',#1847);
#1847 = CARTESIAN_POINT('',(0.74,0.76,0.5));
#1848 = LINE('',#1849,#1850);
#1849 = CARTESIAN_POINT('',(0.74,0.76,0.5));
#1850 = VECTOR('',#1851,1.);
#1851 = DIRECTION('',(0.,1.,0.));
#1852 = ORIENTED_EDGE('',*,*,#1853,.F.);
#1853 = EDGE_CURVE('',#1815,#1846,#1854,.T.);
#1854 = LINE('',#1855,#1856);
#1855 = CARTESIAN_POINT('',(0.77,0.76,0.5));
#1856 = VECTOR('',#1857,1.);
#1857 = DIRECTION('',(-1.,0.,0.));
#1858 = PLANE('',#1859);
#1859 = AXIS2_PLACEMENT_3D('',#1860,#1861,#1862);
#1860 = CARTESIAN_POINT('',(0.77,0.76,0.5));
#1861 = DIRECTION('',(0.,-0.,1.));
#1862 = DIRECTION('',(-1.,0.,0.));
#1863 = ADVANCED_FACE('',(#1864),#1880,.F.);
#1864 = FACE_BOUND('',#1865,.F.);
#1865 = EDGE_LOOP('',(#1866,#1867,#1873,#1874));
#1866 = ORIENTED_EDGE('',*,*,#1845,.T.);
#1867 = ORIENTED_EDGE('',*,*,#1868,.T.);
#1868 = EDGE_CURVE('',#1838,#1644,#1869,.T.);
#1869 = LINE('',#1870,#1871);
#1870 = CARTESIAN_POINT('',(0.74,1.14,0.5));
#1871 = VECTOR('',#1872,1.);
#1872 = DIRECTION('',(0.,0.,1.));
#1873 = ORIENTED_EDGE('',*,*,#1641,.F.);
#1874 = ORIENTED_EDGE('',*,*,#1875,.F.);
#1875 = EDGE_CURVE('',#1846,#1642,#1876,.T.);
#1876 = LINE('',#1877,#1878);
#1877 = CARTESIAN_POINT('',(0.74,0.76,0.5));
#1878 = VECTOR('',#1879,1.);
#1879 = DIRECTION('',(0.,0.,1.));
#1880 = PLANE('',#1881);
#1881 = AXIS2_PLACEMENT_3D('',#1882,#1883,#1884);
#1882 = CARTESIAN_POINT('',(0.74,0.76,0.5));
#1883 = DIRECTION('',(1.,0.,0.));
#1884 = DIRECTION('',(0.,0.,1.));
#1885 = ADVANCED_FACE('',(#1886),#1896,.F.);
#1886 = FACE_BOUND('',#1887,.F.);
#1887 = EDGE_LOOP('',(#1888,#1889,#1890,#1891,#1892,#1893,#1894,#1895));
#1888 = ORIENTED_EDGE('',*,*,#1667,.T.);
#1889 = ORIENTED_EDGE('',*,*,#1698,.T.);
#1890 = ORIENTED_EDGE('',*,*,#1729,.T.);
#1891 = ORIENTED_EDGE('',*,*,#1760,.T.);
#1892 = ORIENTED_EDGE('',*,*,#1791,.T.);
#1893 = ORIENTED_EDGE('',*,*,#1822,.T.);
#1894 = ORIENTED_EDGE('',*,*,#1853,.T.);
#1895 = ORIENTED_EDGE('',*,*,#1875,.T.);
#1896 = PLANE('',#1897);
#1897 = AXIS2_PLACEMENT_3D('',#1898,#1899,#1900);
#1898 = CARTESIAN_POINT('',(1.01028853036,0.76,0.242196041745));
#1899 = DIRECTION('',(0.,1.,0.));
#1900 = DIRECTION('',(0.,-0.,1.));
#1901 = ADVANCED_FACE('',(#1902),#1912,.T.);
#1902 = FACE_BOUND('',#1903,.T.);
#1903 = EDGE_LOOP('',(#1904,#1905,#1906,#1907,#1908,#1909,#1910,#1911));
#1904 = ORIENTED_EDGE('',*,*,#1651,.T.);
#1905 = ORIENTED_EDGE('',*,*,#1682,.T.);
#1906 = ORIENTED_EDGE('',*,*,#1713,.T.);
#1907 = ORIENTED_EDGE('',*,*,#1744,.T.);
#1908 = ORIENTED_EDGE('',*,*,#1775,.T.);
#1909 = ORIENTED_EDGE('',*,*,#1806,.T.);
#1910 = ORIENTED_EDGE('',*,*,#1837,.T.);
#1911 = ORIENTED_EDGE('',*,*,#1868,.T.);
#1912 = PLANE('',#1913);
#1913 = AXIS2_PLACEMENT_3D('',#1914,#1915,#1916);
#1914 = CARTESIAN_POINT('',(1.01028853036,1.14,0.242196041745));
#1915 = DIRECTION('',(0.,1.,0.));
#1916 = DIRECTION('',(0.,-0.,1.));
#1917 = ( GEOMETRIC_REPRESENTATION_CONTEXT(3) 
GLOBAL_UNCERTAINTY_ASSIGNED_CONTEXT((#1921)) 
GLOBAL_UNIT_ASSIGNED_CONTEXT((#1918,#1919,#1920)) REPRESENTATION_CONTEXT
('Context #1','3D Context with UNIT and UNCERTAINTY') );
#1918 = ( LENGTH_UNIT() NAMED_UNIT(*) SI_UNIT(.MILLI.,.METRE.) );
#1919 = ( NAMED_UNIT(*) PLANE_ANGLE_UNIT() SI_UNIT($,.RADIAN.) );
#1920 = ( NAMED_UNIT(*) SI_UNIT($,.STERADIAN.) SOLID_ANGLE_UNIT() );
#1921 = UNCERTAINTY_MEASURE_WITH_UNIT(LENGTH_MEASURE(1.E-07),#1918,
  'distance_accuracy_value','confusion accuracy');
#1922 = CONTEXT_DEPENDENT_SHAPE_REPRESENTATION(#1923,#1925);
#1923 = ( REPRESENTATION_RELATIONSHIP('','',#1634,#10) 
REPRESENTATION_RELATIONSHIP_WITH_TRANSFORMATION(#1924) 
SHAPE_REPRESENTATION_RELATIONSHIP() );
#1924 = ITEM_DEFINED_TRANSFORMATION('','',#11,#39);
#1925 = PRODUCT_DEFINITION_SHAPE('Placement','Placement of an item',
  #1926);
#1926 = NEXT_ASSEMBLY_USAGE_OCCURRENCE('17','Lead_5','',#5,#1629,$);
#1927 = PRODUCT_RELATED_PRODUCT_CATEGORY('part',$,(#1631));
#1928 = MECHANICAL_DESIGN_GEOMETRIC_PRESENTATION_REPRESENTATION('',(
    #1929),#1014);
#1929 = STYLED_ITEM('color',(#1930),#732);
#1930 = PRESENTATION_STYLE_ASSIGNMENT((#1931,#1937));
#1931 = SURFACE_STYLE_USAGE(.BOTH.,#1932);
#1932 = SURFACE_SIDE_STYLE('',(#1933));
#1933 = SURFACE_STYLE_FILL_AREA(#1934);
#1934 = FILL_AREA_STYLE('',(#1935));
#1935 = FILL_AREA_STYLE_COLOUR('',#1936);
#1936 = COLOUR_RGB('',0.759999975995,0.779999965419,0.800000010877);
#1937 = CURVE_STYLE('',#1938,POSITIVE_LENGTH_MEASURE(0.1),#1936);
#1938 = DRAUGHTING_PRE_DEFINED_CURVE_FONT('continuous');
#1939 = MECHANICAL_DESIGN_GEOMETRIC_PRESENTATION_REPRESENTATION('',(
    #1940),#1315);
#1940 = STYLED_ITEM('color',(#1941),#1033);
#1941 = PRESENTATION_STYLE_ASSIGNMENT((#1942,#1947));
#1942 = SURFACE_STYLE_USAGE(.BOTH.,#1943);
#1943 = SURFACE_SIDE_STYLE('',(#1944));
#1944 = SURFACE_STYLE_FILL_AREA(#1945);
#1945 = FILL_AREA_STYLE('',(#1946));
#1946 = FILL_AREA_STYLE_COLOUR('',#1936);
#1947 = CURVE_STYLE('',#1948,POSITIVE_LENGTH_MEASURE(0.1),#1936);
#1948 = DRAUGHTING_PRE_DEFINED_CURVE_FONT('continuous');
#1949 = MECHANICAL_DESIGN_GEOMETRIC_PRESENTATION_REPRESENTATION('',(
    #1950),#713);
#1950 = STYLED_ITEM('color',(#1951),#431);
#1951 = PRESENTATION_STYLE_ASSIGNMENT((#1952,#1957));
#1952 = SURFACE_STYLE_USAGE(.BOTH.,#1953);
#1953 = SURFACE_SIDE_STYLE('',(#1954));
#1954 = SURFACE_STYLE_FILL_AREA(#1955);
#1955 = FILL_AREA_STYLE('',(#1956));
#1956 = FILL_AREA_STYLE_COLOUR('',#1936);
#1957 = CURVE_STYLE('',#1958,POSITIVE_LENGTH_MEASURE(0.1),#1936);
#1958 = DRAUGHTING_PRE_DEFINED_CURVE_FONT('continuous');
#1959 = MECHANICAL_DESIGN_GEOMETRIC_PRESENTATION_REPRESENTATION('',(
    #1960),#1616);
#1960 = STYLED_ITEM('color',(#1961),#1334);
#1961 = PRESENTATION_STYLE_ASSIGNMENT((#1962,#1967));
#1962 = SURFACE_STYLE_USAGE(.BOTH.,#1963);
#1963 = SURFACE_SIDE_STYLE('',(#1964));
#1964 = SURFACE_STYLE_FILL_AREA(#1965);
#1965 = FILL_AREA_STYLE('',(#1966));
#1966 = FILL_AREA_STYLE_COLOUR('',#1936);
#1967 = CURVE_STYLE('',#1968,POSITIVE_LENGTH_MEASURE(0.1),#1936);
#1968 = DRAUGHTING_PRE_DEFINED_CURVE_FONT('continuous');
#1969 = MECHANICAL_DESIGN_GEOMETRIC_PRESENTATION_REPRESENTATION('',(
    #1970),#412);
#1970 = STYLED_ITEM('color',(#1971),#129);
#1971 = PRESENTATION_STYLE_ASSIGNMENT((#1972,#1978));
#1972 = SURFACE_STYLE_USAGE(.BOTH.,#1973);
#1973 = SURFACE_SIDE_STYLE('',(#1974));
#1974 = SURFACE_STYLE_FILL_AREA(#1975);
#1975 = FILL_AREA_STYLE('',(#1976));
#1976 = FILL_AREA_STYLE_COLOUR('',#1977);
#1977 = COLOUR_RGB('',0.104999995596,0.115000003281,0.125000001743);
#1978 = CURVE_STYLE('',#1979,POSITIVE_LENGTH_MEASURE(0.1),#1977);
#1979 = DRAUGHTING_PRE_DEFINED_CURVE_FONT('continuous');
#1980 = MECHANICAL_DESIGN_GEOMETRIC_PRESENTATION_REPRESENTATION('',(
    #1981),#110);
#1981 = STYLED_ITEM('color',(#1982),#57);
#1982 = PRESENTATION_STYLE_ASSIGNMENT((#1983,#1989));
#1983 = SURFACE_STYLE_USAGE(.BOTH.,#1984);
#1984 = SURFACE_SIDE_STYLE('',(#1985));
#1985 = SURFACE_STYLE_FILL_AREA(#1986);
#1986 = FILL_AREA_STYLE('',(#1987));
#1987 = FILL_AREA_STYLE_COLOUR('',#1988);
#1988 = COLOUR_RGB('',0.479999987737,0.490000003723,0.460000000054);
#1989 = CURVE_STYLE('',#1990,POSITIVE_LENGTH_MEASURE(0.1),#1988);
#1990 = DRAUGHTING_PRE_DEFINED_CURVE_FONT('continuous');
#1991 = MECHANICAL_DESIGN_GEOMETRIC_PRESENTATION_REPRESENTATION('',(
    #1992),#1917);
#1992 = STYLED_ITEM('color',(#1993),#1635);
#1993 = PRESENTATION_STYLE_ASSIGNMENT((#1994,#1999));
#1994 = SURFACE_STYLE_USAGE(.BOTH.,#1995);
#1995 = SURFACE_SIDE_STYLE('',(#1996));
#1996 = SURFACE_STYLE_FILL_AREA(#1997);
#1997 = FILL_AREA_STYLE('',(#1998));
#1998 = FILL_AREA_STYLE_COLOUR('',#1936);
#1999 = CURVE_STYLE('',#2000,POSITIVE_LENGTH_MEASURE(0.1),#1936);
#2000 = DRAUGHTING_PRE_DEFINED_CURVE_FONT('continuous');
ENDSEC;
END-ISO-10303-21;
