ISO-10303-21;
HEADER;
FILE_DESCRIPTION(('FreeCAD Model'),'2;1');
FILE_NAME('Open CASCADE Shape Model','2026-10-03T19:11:29',('Author'),(
    ''),'Open CASCADE STEP processor 7.8','FreeCAD','Unknown');
FILE_SCHEMA(('AUTOMOTIVE_DESIGN { 1 0 10303 214 1 1 1 1 }'));
ENDSEC;
DATA;
#1 = APPLICATION_PROTOCOL_DEFINITION('international standard',
  'automotive_design',2000,#2);
#2 = APPLICATION_CONTEXT(
  'core data for automotive mechanical design processes');
#3 = SHAPE_DEFINITION_REPRESENTATION(#4,#10);
#4 = PRODUCT_DEFINITION_SHAPE('','',#5);
#5 = PRODUCT_DEFINITION('design','',#6,#9);
#6 = PRODUCT_DEFINITION_FORMATION('','',#7);
#7 = PRODUCT('Passive2','Passive2','',(#8));
#8 = PRODUCT_CONTEXT('',#2,'mechanical');
#9 = PRODUCT_DEFINITION_CONTEXT('part definition',#2,'design');
#10 = SHAPE_REPRESENTATION('',(#11,#15,#19,#23),#27);
#11 = AXIS2_PLACEMENT_3D('',#12,#13,#14);
#12 = CARTESIAN_POINT('',(0.,0.,0.));
#13 = DIRECTION('',(0.,0.,1.));
#14 = DIRECTION('',(1.,0.,-0.));
#15 = AXIS2_PLACEMENT_3D('',#16,#17,#18);
#16 = CARTESIAN_POINT('',(0.,0.,0.));
#17 = DIRECTION('',(0.,0.,1.));
#18 = DIRECTION('',(1.,0.,0.));
#19 = AXIS2_PLACEMENT_3D('',#20,#21,#22);
#20 = CARTESIAN_POINT('',(0.,0.,0.));
#21 = DIRECTION('',(0.,0.,1.));
#22 = DIRECTION('',(1.,0.,0.));
#23 = AXIS2_PLACEMENT_3D('',#24,#25,#26);
#24 = CARTESIAN_POINT('',(0.,0.,0.));
#25 = DIRECTION('',(0.,0.,1.));
#26 = DIRECTION('',(1.,0.,0.));
#27 = ( GEOMETRIC_REPRESENTATION_CONTEXT(3) 
GLOBAL_UNCERTAINTY_ASSIGNED_CONTEXT((#31)) GLOBAL_UNIT_ASSIGNED_CONTEXT(
(#28,#29,#30)) REPRESENTATION_CONTEXT('Context #1',
  '3D Context with UNIT and UNCERTAINTY') );
#28 = ( LENGTH_UNIT() NAMED_UNIT(*) SI_UNIT(.MILLI.,.METRE.) );
#29 = ( NAMED_UNIT(*) PLANE_ANGLE_UNIT() SI_UNIT($,.RADIAN.) );
#30 = ( NAMED_UNIT(*) SI_UNIT($,.STERADIAN.) SOLID_ANGLE_UNIT() );
#31 = UNCERTAINTY_MEASURE_WITH_UNIT(LENGTH_MEASURE(1.E-07),#28,
  'distance_accuracy_value','confusion accuracy');
#32 = PRODUCT_RELATED_PRODUCT_CATEGORY('part',$,(#7));
#33 = SHAPE_DEFINITION_REPRESENTATION(#34,#40);
#34 = PRODUCT_DEFINITION_SHAPE('','',#35);
#35 = PRODUCT_DEFINITION('design','',#36,#39);
#36 = PRODUCT_DEFINITION_FORMATION('','',#37);
#37 = PRODUCT('Ceramic_nominal','Ceramic_nominal','',(#38));
#38 = PRODUCT_CONTEXT('',#2,'mechanical');
#39 = PRODUCT_DEFINITION_CONTEXT('part definition',#2,'design');
#40 = ADVANCED_BREP_SHAPE_REPRESENTATION('',(#11,#41),#659);
#41 = MANIFOLD_SOLID_BREP('',#42);
#42 = CLOSED_SHELL('',(#43,#83,#116,#149,#182,#215,#232,#249,#280,#311,
    #328,#359,#376,#407,#425,#443,#476,#494,#525,#543,#574,#603,#614,
    #625,#637,#648));
#43 = ADVANCED_FACE('',(#44),#78,.F.);
#44 = FACE_BOUND('',#45,.F.);
#45 = EDGE_LOOP('',(#46,#56,#64,#72));
#46 = ORIENTED_EDGE('',*,*,#47,.F.);
#47 = EDGE_CURVE('',#48,#50,#52,.T.);
#48 = VERTEX_POINT('',#49);
#49 = CARTESIAN_POINT('',(-0.5,-0.3325,6.75E-02));
#50 = VERTEX_POINT('',#51);
#51 = CARTESIAN_POINT('',(-0.5,-0.3325,0.7325));
#52 = LINE('',#53,#54);
#53 = CARTESIAN_POINT('',(-0.5,-0.3325,1.75E-02));
#54 = VECTOR('',#55,1.);
#55 = DIRECTION('',(0.,0.,1.));
#56 = ORIENTED_EDGE('',*,*,#57,.T.);
#57 = EDGE_CURVE('',#48,#58,#60,.T.);
#58 = VERTEX_POINT('',#59);
#59 = CARTESIAN_POINT('',(-0.5,0.3325,6.75E-02));
#60 = LINE('',#61,#62);
#61 = CARTESIAN_POINT('',(-0.5,-0.3825,6.75E-02));
#62 = VECTOR('',#63,1.);
#63 = DIRECTION('',(-0.,1.,0.));
#64 = ORIENTED_EDGE('',*,*,#65,.T.);
#65 = EDGE_CURVE('',#58,#66,#68,.T.);
#66 = VERTEX_POINT('',#67);
#67 = CARTESIAN_POINT('',(-0.5,0.3325,0.7325));
#68 = LINE('',#69,#70);
#69 = CARTESIAN_POINT('',(-0.5,0.3325,1.75E-02));
#70 = VECTOR('',#71,1.);
#71 = DIRECTION('',(0.,0.,1.));
#72 = ORIENTED_EDGE('',*,*,#73,.F.);
#73 = EDGE_CURVE('',#50,#66,#74,.T.);
#74 = LINE('',#75,#76);
#75 = CARTESIAN_POINT('',(-0.5,-0.3825,0.7325));
#76 = VECTOR('',#77,1.);
#77 = DIRECTION('',(-0.,1.,0.));
#78 = PLANE('',#79);
#79 = AXIS2_PLACEMENT_3D('',#80,#81,#82);
#80 = CARTESIAN_POINT('',(-0.5,-0.3825,1.75E-02));
#81 = DIRECTION('',(1.,0.,-0.));
#82 = DIRECTION('',(0.,0.,1.));
#83 = ADVANCED_FACE('',(#84),#111,.T.);
#84 = FACE_BOUND('',#85,.T.);
#85 = EDGE_LOOP('',(#86,#87,#96,#104));
#86 = ORIENTED_EDGE('',*,*,#47,.F.);
#87 = ORIENTED_EDGE('',*,*,#88,.T.);
#88 = EDGE_CURVE('',#48,#89,#91,.T.);
#89 = VERTEX_POINT('',#90);
#90 = CARTESIAN_POINT('',(-0.45,-0.3825,6.75E-02));
#91 = CIRCLE('',#92,5.E-02);
#92 = AXIS2_PLACEMENT_3D('',#93,#94,#95);
#93 = CARTESIAN_POINT('',(-0.45,-0.3325,6.75E-02));
#94 = DIRECTION('',(0.,0.,1.));
#95 = DIRECTION('',(-1.,0.,0.));
#96 = ORIENTED_EDGE('',*,*,#97,.T.);
#97 = EDGE_CURVE('',#89,#98,#100,.T.);
#98 = VERTEX_POINT('',#99);
#99 = CARTESIAN_POINT('',(-0.45,-0.3825,0.7325));
#100 = LINE('',#101,#102);
#101 = CARTESIAN_POINT('',(-0.45,-0.3825,1.75E-02));
#102 = VECTOR('',#103,1.);
#103 = DIRECTION('',(0.,0.,1.));
#104 = ORIENTED_EDGE('',*,*,#105,.F.);
#105 = EDGE_CURVE('',#50,#98,#106,.T.);
#106 = CIRCLE('',#107,5.E-02);
#107 = AXIS2_PLACEMENT_3D('',#108,#109,#110);
#108 = CARTESIAN_POINT('',(-0.45,-0.3325,0.7325));
#109 = DIRECTION('',(0.,0.,1.));
#110 = DIRECTION('',(-1.,0.,0.));
#111 = CYLINDRICAL_SURFACE('',#112,5.E-02);
#112 = AXIS2_PLACEMENT_3D('',#113,#114,#115);
#113 = CARTESIAN_POINT('',(-0.45,-0.3325,1.75E-02));
#114 = DIRECTION('',(0.,0.,1.));
#115 = DIRECTION('',(-1.,-0.,0.));
#116 = ADVANCED_FACE('',(#117),#144,.T.);
#117 = FACE_BOUND('',#118,.F.);
#118 = EDGE_LOOP('',(#119,#128,#136,#143));
#119 = ORIENTED_EDGE('',*,*,#120,.F.);
#120 = EDGE_CURVE('',#121,#48,#123,.T.);
#121 = VERTEX_POINT('',#122);
#122 = CARTESIAN_POINT('',(-0.45,-0.3325,1.75E-02));
#123 = CIRCLE('',#124,5.E-02);
#124 = AXIS2_PLACEMENT_3D('',#125,#126,#127);
#125 = CARTESIAN_POINT('',(-0.45,-0.3325,6.75E-02));
#126 = DIRECTION('',(0.,1.,-0.));
#127 = DIRECTION('',(-1.,0.,0.));
#128 = ORIENTED_EDGE('',*,*,#129,.T.);
#129 = EDGE_CURVE('',#121,#130,#132,.T.);
#130 = VERTEX_POINT('',#131);
#131 = CARTESIAN_POINT('',(-0.45,0.3325,1.75E-02));
#132 = LINE('',#133,#134);
#133 = CARTESIAN_POINT('',(-0.45,-0.3825,1.75E-02));
#134 = VECTOR('',#135,1.);
#135 = DIRECTION('',(-0.,1.,0.));
#136 = ORIENTED_EDGE('',*,*,#137,.T.);
#137 = EDGE_CURVE('',#130,#58,#138,.T.);
#138 = CIRCLE('',#139,5.E-02);
#139 = AXIS2_PLACEMENT_3D('',#140,#141,#142);
#140 = CARTESIAN_POINT('',(-0.45,0.3325,6.75E-02));
#141 = DIRECTION('',(-1.110223024625E-15,1.,0.));
#142 = DIRECTION('',(-1.,-1.110223024625E-15,0.));
#143 = ORIENTED_EDGE('',*,*,#57,.F.);
#144 = CYLINDRICAL_SURFACE('',#145,5.E-02);
#145 = AXIS2_PLACEMENT_3D('',#146,#147,#148);
#146 = CARTESIAN_POINT('',(-0.45,-0.3825,6.75E-02));
#147 = DIRECTION('',(-0.,1.,0.));
#148 = DIRECTION('',(-1.,-0.,0.));
#149 = ADVANCED_FACE('',(#150),#177,.T.);
#150 = FACE_BOUND('',#151,.T.);
#151 = EDGE_LOOP('',(#152,#161,#169,#176));
#152 = ORIENTED_EDGE('',*,*,#153,.F.);
#153 = EDGE_CURVE('',#154,#50,#156,.T.);
#154 = VERTEX_POINT('',#155);
#155 = CARTESIAN_POINT('',(-0.45,-0.3325,0.7825));
#156 = CIRCLE('',#157,5.E-02);
#157 = AXIS2_PLACEMENT_3D('',#158,#159,#160);
#158 = CARTESIAN_POINT('',(-0.45,-0.3325,0.7325));
#159 = DIRECTION('',(0.,-1.,0.));
#160 = DIRECTION('',(-1.,0.,0.));
#161 = ORIENTED_EDGE('',*,*,#162,.T.);
#162 = EDGE_CURVE('',#154,#163,#165,.T.);
#163 = VERTEX_POINT('',#164);
#164 = CARTESIAN_POINT('',(-0.45,0.3325,0.7825));
#165 = LINE('',#166,#167);
#166 = CARTESIAN_POINT('',(-0.45,-0.3825,0.7825));
#167 = VECTOR('',#168,1.);
#168 = DIRECTION('',(-0.,1.,0.));
#169 = ORIENTED_EDGE('',*,*,#170,.F.);
#170 = EDGE_CURVE('',#66,#163,#171,.T.);
#171 = CIRCLE('',#172,5.E-02);
#172 = AXIS2_PLACEMENT_3D('',#173,#174,#175);
#173 = CARTESIAN_POINT('',(-0.45,0.3325,0.7325));
#174 = DIRECTION('',(-0.,1.,0.));
#175 = DIRECTION('',(-1.,-0.,0.));
#176 = ORIENTED_EDGE('',*,*,#73,.F.);
#177 = CYLINDRICAL_SURFACE('',#178,5.E-02);
#178 = AXIS2_PLACEMENT_3D('',#179,#180,#181);
#179 = CARTESIAN_POINT('',(-0.45,-0.3825,0.7325));
#180 = DIRECTION('',(-0.,1.,0.));
#181 = DIRECTION('',(-1.,-0.,0.));
#182 = ADVANCED_FACE('',(#183),#210,.T.);
#183 = FACE_BOUND('',#184,.F.);
#184 = EDGE_LOOP('',(#185,#186,#195,#203));
#185 = ORIENTED_EDGE('',*,*,#65,.F.);
#186 = ORIENTED_EDGE('',*,*,#187,.T.);
#187 = EDGE_CURVE('',#58,#188,#190,.T.);
#188 = VERTEX_POINT('',#189);
#189 = CARTESIAN_POINT('',(-0.45,0.3825,6.75E-02));
#190 = CIRCLE('',#191,5.E-02);
#191 = AXIS2_PLACEMENT_3D('',#192,#193,#194);
#192 = CARTESIAN_POINT('',(-0.45,0.3325,6.75E-02));
#193 = DIRECTION('',(-0.,0.,-1.));
#194 = DIRECTION('',(-1.,-1.110223024625E-15,0.));
#195 = ORIENTED_EDGE('',*,*,#196,.T.);
#196 = EDGE_CURVE('',#188,#197,#199,.T.);
#197 = VERTEX_POINT('',#198);
#198 = CARTESIAN_POINT('',(-0.45,0.3825,0.7325));
#199 = LINE('',#200,#201);
#200 = CARTESIAN_POINT('',(-0.45,0.3825,1.75E-02));
#201 = VECTOR('',#202,1.);
#202 = DIRECTION('',(0.,0.,1.));
#203 = ORIENTED_EDGE('',*,*,#204,.T.);
#204 = EDGE_CURVE('',#197,#66,#205,.T.);
#205 = CIRCLE('',#206,5.E-02);
#206 = AXIS2_PLACEMENT_3D('',#207,#208,#209);
#207 = CARTESIAN_POINT('',(-0.45,0.3325,0.7325));
#208 = DIRECTION('',(0.,0.,1.));
#209 = DIRECTION('',(-1.,-0.,0.));
#210 = CYLINDRICAL_SURFACE('',#211,5.E-02);
#211 = AXIS2_PLACEMENT_3D('',#212,#213,#214);
#212 = CARTESIAN_POINT('',(-0.45,0.3325,1.75E-02));
#213 = DIRECTION('',(0.,0.,1.));
#214 = DIRECTION('',(-1.,-0.,0.));
#215 = ADVANCED_FACE('',(#216),#227,.T.);
#216 = FACE_BOUND('',#217,.T.);
#217 = EDGE_LOOP('',(#218,#219,#226));
#218 = ORIENTED_EDGE('',*,*,#120,.F.);
#219 = ORIENTED_EDGE('',*,*,#220,.T.);
#220 = EDGE_CURVE('',#121,#89,#221,.T.);
#221 = CIRCLE('',#222,5.E-02);
#222 = AXIS2_PLACEMENT_3D('',#223,#224,#225);
#223 = CARTESIAN_POINT('',(-0.45,-0.3325,6.75E-02));
#224 = DIRECTION('',(-1.,6.123233995737E-17,0.));
#225 = DIRECTION('',(-6.123233995737E-17,-1.,0.));
#226 = ORIENTED_EDGE('',*,*,#88,.F.);
#227 = SPHERICAL_SURFACE('',#228,5.E-02);
#228 = AXIS2_PLACEMENT_3D('',#229,#230,#231);
#229 = CARTESIAN_POINT('',(-0.45,-0.3325,6.75E-02));
#230 = DIRECTION('',(0.,0.,1.));
#231 = DIRECTION('',(-1.,0.,0.));
#232 = ADVANCED_FACE('',(#233),#244,.T.);
#233 = FACE_BOUND('',#234,.F.);
#234 = EDGE_LOOP('',(#235,#236,#243));
#235 = ORIENTED_EDGE('',*,*,#153,.F.);
#236 = ORIENTED_EDGE('',*,*,#237,.T.);
#237 = EDGE_CURVE('',#154,#98,#238,.T.);
#238 = CIRCLE('',#239,5.E-02);
#239 = AXIS2_PLACEMENT_3D('',#240,#241,#242);
#240 = CARTESIAN_POINT('',(-0.45,-0.3325,0.7325));
#241 = DIRECTION('',(1.,-6.123233995737E-17,0.));
#242 = DIRECTION('',(-6.123233995737E-17,-1.,0.));
#243 = ORIENTED_EDGE('',*,*,#105,.F.);
#244 = SPHERICAL_SURFACE('',#245,5.E-02);
#245 = AXIS2_PLACEMENT_3D('',#246,#247,#248);
#246 = CARTESIAN_POINT('',(-0.45,-0.3325,0.7325));
#247 = DIRECTION('',(-0.,-0.,-1.));
#248 = DIRECTION('',(-1.,0.,0.));
#249 = ADVANCED_FACE('',(#250),#275,.F.);
#250 = FACE_BOUND('',#251,.F.);
#251 = EDGE_LOOP('',(#252,#253,#261,#269));
#252 = ORIENTED_EDGE('',*,*,#97,.T.);
#253 = ORIENTED_EDGE('',*,*,#254,.T.);
#254 = EDGE_CURVE('',#98,#255,#257,.T.);
#255 = VERTEX_POINT('',#256);
#256 = CARTESIAN_POINT('',(0.45,-0.3825,0.7325));
#257 = LINE('',#258,#259);
#258 = CARTESIAN_POINT('',(-0.5,-0.3825,0.7325));
#259 = VECTOR('',#260,1.);
#260 = DIRECTION('',(1.,0.,-0.));
#261 = ORIENTED_EDGE('',*,*,#262,.F.);
#262 = EDGE_CURVE('',#263,#255,#265,.T.);
#263 = VERTEX_POINT('',#264);
#264 = CARTESIAN_POINT('',(0.45,-0.3825,6.75E-02));
#265 = LINE('',#266,#267);
#266 = CARTESIAN_POINT('',(0.45,-0.3825,1.75E-02));
#267 = VECTOR('',#268,1.);
#268 = DIRECTION('',(0.,0.,1.));
#269 = ORIENTED_EDGE('',*,*,#270,.F.);
#270 = EDGE_CURVE('',#89,#263,#271,.T.);
#271 = LINE('',#272,#273);
#272 = CARTESIAN_POINT('',(-0.5,-0.3825,6.75E-02));
#273 = VECTOR('',#274,1.);
#274 = DIRECTION('',(1.,0.,-0.));
#275 = PLANE('',#276);
#276 = AXIS2_PLACEMENT_3D('',#277,#278,#279);
#277 = CARTESIAN_POINT('',(-0.5,-0.3825,1.75E-02));
#278 = DIRECTION('',(-0.,1.,0.));
#279 = DIRECTION('',(0.,0.,1.));
#280 = ADVANCED_FACE('',(#281),#306,.F.);
#281 = FACE_BOUND('',#282,.F.);
#282 = EDGE_LOOP('',(#283,#284,#292,#300));
#283 = ORIENTED_EDGE('',*,*,#129,.F.);
#284 = ORIENTED_EDGE('',*,*,#285,.T.);
#285 = EDGE_CURVE('',#121,#286,#288,.T.);
#286 = VERTEX_POINT('',#287);
#287 = CARTESIAN_POINT('',(0.45,-0.3325,1.75E-02));
#288 = LINE('',#289,#290);
#289 = CARTESIAN_POINT('',(-0.5,-0.3325,1.75E-02));
#290 = VECTOR('',#291,1.);
#291 = DIRECTION('',(1.,0.,-0.));
#292 = ORIENTED_EDGE('',*,*,#293,.T.);
#293 = EDGE_CURVE('',#286,#294,#296,.T.);
#294 = VERTEX_POINT('',#295);
#295 = CARTESIAN_POINT('',(0.45,0.3325,1.75E-02));
#296 = LINE('',#297,#298);
#297 = CARTESIAN_POINT('',(0.45,-0.3825,1.75E-02));
#298 = VECTOR('',#299,1.);
#299 = DIRECTION('',(-0.,1.,0.));
#300 = ORIENTED_EDGE('',*,*,#301,.F.);
#301 = EDGE_CURVE('',#130,#294,#302,.T.);
#302 = LINE('',#303,#304);
#303 = CARTESIAN_POINT('',(-0.5,0.3325,1.75E-02));
#304 = VECTOR('',#305,1.);
#305 = DIRECTION('',(1.,0.,-0.));
#306 = PLANE('',#307);
#307 = AXIS2_PLACEMENT_3D('',#308,#309,#310);
#308 = CARTESIAN_POINT('',(-0.5,-0.3825,1.75E-02));
#309 = DIRECTION('',(0.,0.,1.));
#310 = DIRECTION('',(1.,0.,-0.));
#311 = ADVANCED_FACE('',(#312),#323,.T.);
#312 = FACE_BOUND('',#313,.F.);
#313 = EDGE_LOOP('',(#314,#315,#322));
#314 = ORIENTED_EDGE('',*,*,#137,.F.);
#315 = ORIENTED_EDGE('',*,*,#316,.T.);
#316 = EDGE_CURVE('',#130,#188,#317,.T.);
#317 = CIRCLE('',#318,5.E-02);
#318 = AXIS2_PLACEMENT_3D('',#319,#320,#321);
#319 = CARTESIAN_POINT('',(-0.45,0.3325,6.75E-02));
#320 = DIRECTION('',(1.,6.123233995737E-17,-0.));
#321 = DIRECTION('',(-6.123233995737E-17,1.,-0.));
#322 = ORIENTED_EDGE('',*,*,#187,.F.);
#323 = SPHERICAL_SURFACE('',#324,5.E-02);
#324 = AXIS2_PLACEMENT_3D('',#325,#326,#327);
#325 = CARTESIAN_POINT('',(-0.45,0.3325,6.75E-02));
#326 = DIRECTION('',(0.,0.,1.));
#327 = DIRECTION('',(-1.,-1.110223024625E-15,0.));
#328 = ADVANCED_FACE('',(#329),#354,.T.);
#329 = FACE_BOUND('',#330,.T.);
#330 = EDGE_LOOP('',(#331,#332,#340,#348));
#331 = ORIENTED_EDGE('',*,*,#162,.F.);
#332 = ORIENTED_EDGE('',*,*,#333,.T.);
#333 = EDGE_CURVE('',#154,#334,#336,.T.);
#334 = VERTEX_POINT('',#335);
#335 = CARTESIAN_POINT('',(0.45,-0.3325,0.7825));
#336 = LINE('',#337,#338);
#337 = CARTESIAN_POINT('',(-0.5,-0.3325,0.7825));
#338 = VECTOR('',#339,1.);
#339 = DIRECTION('',(1.,0.,-0.));
#340 = ORIENTED_EDGE('',*,*,#341,.T.);
#341 = EDGE_CURVE('',#334,#342,#344,.T.);
#342 = VERTEX_POINT('',#343);
#343 = CARTESIAN_POINT('',(0.45,0.3325,0.7825));
#344 = LINE('',#345,#346);
#345 = CARTESIAN_POINT('',(0.45,-0.3825,0.7825));
#346 = VECTOR('',#347,1.);
#347 = DIRECTION('',(-0.,1.,0.));
#348 = ORIENTED_EDGE('',*,*,#349,.F.);
#349 = EDGE_CURVE('',#163,#342,#350,.T.);
#350 = LINE('',#351,#352);
#351 = CARTESIAN_POINT('',(-0.5,0.3325,0.7825));
#352 = VECTOR('',#353,1.);
#353 = DIRECTION('',(1.,0.,-0.));
#354 = PLANE('',#355);
#355 = AXIS2_PLACEMENT_3D('',#356,#357,#358);
#356 = CARTESIAN_POINT('',(-0.5,-0.3825,0.7825));
#357 = DIRECTION('',(0.,0.,1.));
#358 = DIRECTION('',(1.,0.,-0.));
#359 = ADVANCED_FACE('',(#360),#371,.T.);
#360 = FACE_BOUND('',#361,.F.);
#361 = EDGE_LOOP('',(#362,#363,#370));
#362 = ORIENTED_EDGE('',*,*,#204,.F.);
#363 = ORIENTED_EDGE('',*,*,#364,.T.);
#364 = EDGE_CURVE('',#197,#163,#365,.T.);
#365 = CIRCLE('',#366,5.E-02);
#366 = AXIS2_PLACEMENT_3D('',#367,#368,#369);
#367 = CARTESIAN_POINT('',(-0.45,0.3325,0.7325));
#368 = DIRECTION('',(1.,0.,6.123233995737E-17));
#369 = DIRECTION('',(-6.123233995737E-17,-0.,1.));
#370 = ORIENTED_EDGE('',*,*,#170,.F.);
#371 = SPHERICAL_SURFACE('',#372,5.E-02);
#372 = AXIS2_PLACEMENT_3D('',#373,#374,#375);
#373 = CARTESIAN_POINT('',(-0.45,0.3325,0.7325));
#374 = DIRECTION('',(0.,-1.,-0.));
#375 = DIRECTION('',(-1.,-0.,0.));
#376 = ADVANCED_FACE('',(#377),#402,.T.);
#377 = FACE_BOUND('',#378,.T.);
#378 = EDGE_LOOP('',(#379,#380,#388,#396));
#379 = ORIENTED_EDGE('',*,*,#196,.T.);
#380 = ORIENTED_EDGE('',*,*,#381,.T.);
#381 = EDGE_CURVE('',#197,#382,#384,.T.);
#382 = VERTEX_POINT('',#383);
#383 = CARTESIAN_POINT('',(0.45,0.3825,0.7325));
#384 = LINE('',#385,#386);
#385 = CARTESIAN_POINT('',(-0.5,0.3825,0.7325));
#386 = VECTOR('',#387,1.);
#387 = DIRECTION('',(1.,0.,-0.));
#388 = ORIENTED_EDGE('',*,*,#389,.F.);
#389 = EDGE_CURVE('',#390,#382,#392,.T.);
#390 = VERTEX_POINT('',#391);
#391 = CARTESIAN_POINT('',(0.45,0.3825,6.75E-02));
#392 = LINE('',#393,#394);
#393 = CARTESIAN_POINT('',(0.45,0.3825,1.75E-02));
#394 = VECTOR('',#395,1.);
#395 = DIRECTION('',(0.,0.,1.));
#396 = ORIENTED_EDGE('',*,*,#397,.F.);
#397 = EDGE_CURVE('',#188,#390,#398,.T.);
#398 = LINE('',#399,#400);
#399 = CARTESIAN_POINT('',(-0.5,0.3825,6.75E-02));
#400 = VECTOR('',#401,1.);
#401 = DIRECTION('',(1.,0.,-0.));
#402 = PLANE('',#403);
#403 = AXIS2_PLACEMENT_3D('',#404,#405,#406);
#404 = CARTESIAN_POINT('',(-0.5,0.3825,1.75E-02));
#405 = DIRECTION('',(-0.,1.,0.));
#406 = DIRECTION('',(0.,0.,1.));
#407 = ADVANCED_FACE('',(#408),#420,.T.);
#408 = FACE_BOUND('',#409,.T.);
#409 = EDGE_LOOP('',(#410,#411,#412,#419));
#410 = ORIENTED_EDGE('',*,*,#220,.F.);
#411 = ORIENTED_EDGE('',*,*,#285,.T.);
#412 = ORIENTED_EDGE('',*,*,#413,.T.);
#413 = EDGE_CURVE('',#286,#263,#414,.T.);
#414 = CIRCLE('',#415,5.E-02);
#415 = AXIS2_PLACEMENT_3D('',#416,#417,#418);
#416 = CARTESIAN_POINT('',(0.45,-0.3325,6.75E-02));
#417 = DIRECTION('',(-1.,-6.123233995737E-17,0.));
#418 = DIRECTION('',(6.123233995737E-17,-1.,-0.));
#419 = ORIENTED_EDGE('',*,*,#270,.F.);
#420 = CYLINDRICAL_SURFACE('',#421,5.E-02);
#421 = AXIS2_PLACEMENT_3D('',#422,#423,#424);
#422 = CARTESIAN_POINT('',(-0.5,-0.3325,6.75E-02));
#423 = DIRECTION('',(1.,0.,-0.));
#424 = DIRECTION('',(0.,-1.,0.));
#425 = ADVANCED_FACE('',(#426),#438,.T.);
#426 = FACE_BOUND('',#427,.F.);
#427 = EDGE_LOOP('',(#428,#429,#430,#437));
#428 = ORIENTED_EDGE('',*,*,#237,.F.);
#429 = ORIENTED_EDGE('',*,*,#333,.T.);
#430 = ORIENTED_EDGE('',*,*,#431,.T.);
#431 = EDGE_CURVE('',#334,#255,#432,.T.);
#432 = CIRCLE('',#433,5.E-02);
#433 = AXIS2_PLACEMENT_3D('',#434,#435,#436);
#434 = CARTESIAN_POINT('',(0.45,-0.3325,0.7325));
#435 = DIRECTION('',(1.,6.123233995737E-17,0.));
#436 = DIRECTION('',(6.123233995737E-17,-1.,0.));
#437 = ORIENTED_EDGE('',*,*,#254,.F.);
#438 = CYLINDRICAL_SURFACE('',#439,5.E-02);
#439 = AXIS2_PLACEMENT_3D('',#440,#441,#442);
#440 = CARTESIAN_POINT('',(-0.5,-0.3325,0.7325));
#441 = DIRECTION('',(1.,0.,-0.));
#442 = DIRECTION('',(0.,-1.,0.));
#443 = ADVANCED_FACE('',(#444),#471,.T.);
#444 = FACE_BOUND('',#445,.F.);
#445 = EDGE_LOOP('',(#446,#456,#463,#464));
#446 = ORIENTED_EDGE('',*,*,#447,.F.);
#447 = EDGE_CURVE('',#448,#450,#452,.T.);
#448 = VERTEX_POINT('',#449);
#449 = CARTESIAN_POINT('',(0.5,-0.3325,6.75E-02));
#450 = VERTEX_POINT('',#451);
#451 = CARTESIAN_POINT('',(0.5,-0.3325,0.7325));
#452 = LINE('',#453,#454);
#453 = CARTESIAN_POINT('',(0.5,-0.3325,1.75E-02));
#454 = VECTOR('',#455,1.);
#455 = DIRECTION('',(0.,0.,1.));
#456 = ORIENTED_EDGE('',*,*,#457,.T.);
#457 = EDGE_CURVE('',#448,#263,#458,.T.);
#458 = CIRCLE('',#459,5.E-02);
#459 = AXIS2_PLACEMENT_3D('',#460,#461,#462);
#460 = CARTESIAN_POINT('',(0.45,-0.3325,6.75E-02));
#461 = DIRECTION('',(0.,-0.,-1.));
#462 = DIRECTION('',(1.,0.,-0.));
#463 = ORIENTED_EDGE('',*,*,#262,.T.);
#464 = ORIENTED_EDGE('',*,*,#465,.F.);
#465 = EDGE_CURVE('',#450,#255,#466,.T.);
#466 = CIRCLE('',#467,5.E-02);
#467 = AXIS2_PLACEMENT_3D('',#468,#469,#470);
#468 = CARTESIAN_POINT('',(0.45,-0.3325,0.7325));
#469 = DIRECTION('',(0.,0.,-1.));
#470 = DIRECTION('',(1.,0.,0.));
#471 = CYLINDRICAL_SURFACE('',#472,5.E-02);
#472 = AXIS2_PLACEMENT_3D('',#473,#474,#475);
#473 = CARTESIAN_POINT('',(0.45,-0.3325,1.75E-02));
#474 = DIRECTION('',(0.,0.,1.));
#475 = DIRECTION('',(1.,0.,-0.));
#476 = ADVANCED_FACE('',(#477),#489,.T.);
#477 = FACE_BOUND('',#478,.F.);
#478 = EDGE_LOOP('',(#479,#480,#481,#488));
#479 = ORIENTED_EDGE('',*,*,#316,.F.);
#480 = ORIENTED_EDGE('',*,*,#301,.T.);
#481 = ORIENTED_EDGE('',*,*,#482,.T.);
#482 = EDGE_CURVE('',#294,#390,#483,.T.);
#483 = CIRCLE('',#484,5.E-02);
#484 = AXIS2_PLACEMENT_3D('',#485,#486,#487);
#485 = CARTESIAN_POINT('',(0.45,0.3325,6.75E-02));
#486 = DIRECTION('',(1.,-6.123233995737E-17,0.));
#487 = DIRECTION('',(6.123233995737E-17,1.,0.));
#488 = ORIENTED_EDGE('',*,*,#397,.F.);
#489 = CYLINDRICAL_SURFACE('',#490,5.E-02);
#490 = AXIS2_PLACEMENT_3D('',#491,#492,#493);
#491 = CARTESIAN_POINT('',(-0.5,0.3325,6.75E-02));
#492 = DIRECTION('',(1.,0.,-0.));
#493 = DIRECTION('',(0.,1.,0.));
#494 = ADVANCED_FACE('',(#495),#520,.T.);
#495 = FACE_BOUND('',#496,.T.);
#496 = EDGE_LOOP('',(#497,#504,#505,#514));
#497 = ORIENTED_EDGE('',*,*,#498,.F.);
#498 = EDGE_CURVE('',#286,#448,#499,.T.);
#499 = CIRCLE('',#500,5.E-02);
#500 = AXIS2_PLACEMENT_3D('',#501,#502,#503);
#501 = CARTESIAN_POINT('',(0.45,-0.3325,6.75E-02));
#502 = DIRECTION('',(0.,-1.,0.));
#503 = DIRECTION('',(1.,0.,0.));
#504 = ORIENTED_EDGE('',*,*,#293,.T.);
#505 = ORIENTED_EDGE('',*,*,#506,.T.);
#506 = EDGE_CURVE('',#294,#507,#509,.T.);
#507 = VERTEX_POINT('',#508);
#508 = CARTESIAN_POINT('',(0.5,0.3325,6.75E-02));
#509 = CIRCLE('',#510,5.E-02);
#510 = AXIS2_PLACEMENT_3D('',#511,#512,#513);
#511 = CARTESIAN_POINT('',(0.45,0.3325,6.75E-02));
#512 = DIRECTION('',(-1.110223024625E-15,-1.,0.));
#513 = DIRECTION('',(1.,-1.110223024625E-15,0.));
#514 = ORIENTED_EDGE('',*,*,#515,.F.);
#515 = EDGE_CURVE('',#448,#507,#516,.T.);
#516 = LINE('',#517,#518);
#517 = CARTESIAN_POINT('',(0.5,-0.3825,6.75E-02));
#518 = VECTOR('',#519,1.);
#519 = DIRECTION('',(-0.,1.,0.));
#520 = CYLINDRICAL_SURFACE('',#521,5.E-02);
#521 = AXIS2_PLACEMENT_3D('',#522,#523,#524);
#522 = CARTESIAN_POINT('',(0.45,-0.3825,6.75E-02));
#523 = DIRECTION('',(-0.,1.,0.));
#524 = DIRECTION('',(1.,0.,-0.));
#525 = ADVANCED_FACE('',(#526),#538,.T.);
#526 = FACE_BOUND('',#527,.T.);
#527 = EDGE_LOOP('',(#528,#529,#530,#537));
#528 = ORIENTED_EDGE('',*,*,#364,.T.);
#529 = ORIENTED_EDGE('',*,*,#349,.T.);
#530 = ORIENTED_EDGE('',*,*,#531,.F.);
#531 = EDGE_CURVE('',#382,#342,#532,.T.);
#532 = CIRCLE('',#533,5.E-02);
#533 = AXIS2_PLACEMENT_3D('',#534,#535,#536);
#534 = CARTESIAN_POINT('',(0.45,0.3325,0.7325));
#535 = DIRECTION('',(1.,0.,-6.123233995737E-17));
#536 = DIRECTION('',(6.123233995737E-17,0.,1.));
#537 = ORIENTED_EDGE('',*,*,#381,.F.);
#538 = CYLINDRICAL_SURFACE('',#539,5.E-02);
#539 = AXIS2_PLACEMENT_3D('',#540,#541,#542);
#540 = CARTESIAN_POINT('',(-0.5,0.3325,0.7325));
#541 = DIRECTION('',(1.,0.,-0.));
#542 = DIRECTION('',(0.,1.,0.));
#543 = ADVANCED_FACE('',(#544),#569,.T.);
#544 = FACE_BOUND('',#545,.F.);
#545 = EDGE_LOOP('',(#546,#553,#554,#563));
#546 = ORIENTED_EDGE('',*,*,#547,.F.);
#547 = EDGE_CURVE('',#334,#450,#548,.T.);
#548 = CIRCLE('',#549,5.E-02);
#549 = AXIS2_PLACEMENT_3D('',#550,#551,#552);
#550 = CARTESIAN_POINT('',(0.45,-0.3325,0.7325));
#551 = DIRECTION('',(-0.,1.,0.));
#552 = DIRECTION('',(1.,0.,0.));
#553 = ORIENTED_EDGE('',*,*,#341,.T.);
#554 = ORIENTED_EDGE('',*,*,#555,.F.);
#555 = EDGE_CURVE('',#556,#342,#558,.T.);
#556 = VERTEX_POINT('',#557);
#557 = CARTESIAN_POINT('',(0.5,0.3325,0.7325));
#558 = CIRCLE('',#559,5.E-02);
#559 = AXIS2_PLACEMENT_3D('',#560,#561,#562);
#560 = CARTESIAN_POINT('',(0.45,0.3325,0.7325));
#561 = DIRECTION('',(0.,-1.,-0.));
#562 = DIRECTION('',(1.,0.,0.));
#563 = ORIENTED_EDGE('',*,*,#564,.F.);
#564 = EDGE_CURVE('',#450,#556,#565,.T.);
#565 = LINE('',#566,#567);
#566 = CARTESIAN_POINT('',(0.5,-0.3825,0.7325));
#567 = VECTOR('',#568,1.);
#568 = DIRECTION('',(-0.,1.,0.));
#569 = CYLINDRICAL_SURFACE('',#570,5.E-02);
#570 = AXIS2_PLACEMENT_3D('',#571,#572,#573);
#571 = CARTESIAN_POINT('',(0.45,-0.3825,0.7325));
#572 = DIRECTION('',(-0.,1.,0.));
#573 = DIRECTION('',(1.,0.,-0.));
#574 = ADVANCED_FACE('',(#575),#598,.T.);
#575 = FACE_BOUND('',#576,.T.);
#576 = EDGE_LOOP('',(#577,#583,#590,#591));
#577 = ORIENTED_EDGE('',*,*,#578,.F.);
#578 = EDGE_CURVE('',#507,#556,#579,.T.);
#579 = LINE('',#580,#581);
#580 = CARTESIAN_POINT('',(0.5,0.3325,1.75E-02));
#581 = VECTOR('',#582,1.);
#582 = DIRECTION('',(0.,0.,1.));
#583 = ORIENTED_EDGE('',*,*,#584,.T.);
#584 = EDGE_CURVE('',#507,#390,#585,.T.);
#585 = CIRCLE('',#586,5.E-02);
#586 = AXIS2_PLACEMENT_3D('',#587,#588,#589);
#587 = CARTESIAN_POINT('',(0.45,0.3325,6.75E-02));
#588 = DIRECTION('',(0.,0.,1.));
#589 = DIRECTION('',(1.,-1.110223024625E-15,0.));
#590 = ORIENTED_EDGE('',*,*,#389,.T.);
#591 = ORIENTED_EDGE('',*,*,#592,.T.);
#592 = EDGE_CURVE('',#382,#556,#593,.T.);
#593 = CIRCLE('',#594,5.E-02);
#594 = AXIS2_PLACEMENT_3D('',#595,#596,#597);
#595 = CARTESIAN_POINT('',(0.45,0.3325,0.7325));
#596 = DIRECTION('',(0.,0.,-1.));
#597 = DIRECTION('',(1.,0.,0.));
#598 = CYLINDRICAL_SURFACE('',#599,5.E-02);
#599 = AXIS2_PLACEMENT_3D('',#600,#601,#602);
#600 = CARTESIAN_POINT('',(0.45,0.3325,1.75E-02));
#601 = DIRECTION('',(0.,0.,1.));
#602 = DIRECTION('',(1.,0.,-0.));
#603 = ADVANCED_FACE('',(#604),#609,.T.);
#604 = FACE_BOUND('',#605,.F.);
#605 = EDGE_LOOP('',(#606,#607,#608));
#606 = ORIENTED_EDGE('',*,*,#498,.F.);
#607 = ORIENTED_EDGE('',*,*,#413,.T.);
#608 = ORIENTED_EDGE('',*,*,#457,.F.);
#609 = SPHERICAL_SURFACE('',#610,5.E-02);
#610 = AXIS2_PLACEMENT_3D('',#611,#612,#613);
#611 = CARTESIAN_POINT('',(0.45,-0.3325,6.75E-02));
#612 = DIRECTION('',(0.,0.,1.));
#613 = DIRECTION('',(1.,0.,-0.));
#614 = ADVANCED_FACE('',(#615),#620,.T.);
#615 = FACE_BOUND('',#616,.T.);
#616 = EDGE_LOOP('',(#617,#618,#619));
#617 = ORIENTED_EDGE('',*,*,#547,.F.);
#618 = ORIENTED_EDGE('',*,*,#431,.T.);
#619 = ORIENTED_EDGE('',*,*,#465,.F.);
#620 = SPHERICAL_SURFACE('',#621,5.E-02);
#621 = AXIS2_PLACEMENT_3D('',#622,#623,#624);
#622 = CARTESIAN_POINT('',(0.45,-0.3325,0.7325));
#623 = DIRECTION('',(-0.,-0.,-1.));
#624 = DIRECTION('',(1.,0.,0.));
#625 = ADVANCED_FACE('',(#626),#632,.T.);
#626 = FACE_BOUND('',#627,.T.);
#627 = EDGE_LOOP('',(#628,#629,#630,#631));
#628 = ORIENTED_EDGE('',*,*,#447,.F.);
#629 = ORIENTED_EDGE('',*,*,#515,.T.);
#630 = ORIENTED_EDGE('',*,*,#578,.T.);
#631 = ORIENTED_EDGE('',*,*,#564,.F.);
#632 = PLANE('',#633);
#633 = AXIS2_PLACEMENT_3D('',#634,#635,#636);
#634 = CARTESIAN_POINT('',(0.5,-0.3825,1.75E-02));
#635 = DIRECTION('',(1.,0.,-0.));
#636 = DIRECTION('',(0.,0.,1.));
#637 = ADVANCED_FACE('',(#638),#643,.T.);
#638 = FACE_BOUND('',#639,.T.);
#639 = EDGE_LOOP('',(#640,#641,#642));
#640 = ORIENTED_EDGE('',*,*,#506,.F.);
#641 = ORIENTED_EDGE('',*,*,#482,.T.);
#642 = ORIENTED_EDGE('',*,*,#584,.F.);
#643 = SPHERICAL_SURFACE('',#644,5.E-02);
#644 = AXIS2_PLACEMENT_3D('',#645,#646,#647);
#645 = CARTESIAN_POINT('',(0.45,0.3325,6.75E-02));
#646 = DIRECTION('',(0.,0.,1.));
#647 = DIRECTION('',(1.,-1.110223024625E-15,0.));
#648 = ADVANCED_FACE('',(#649),#654,.T.);
#649 = FACE_BOUND('',#650,.T.);
#650 = EDGE_LOOP('',(#651,#652,#653));
#651 = ORIENTED_EDGE('',*,*,#592,.F.);
#652 = ORIENTED_EDGE('',*,*,#531,.T.);
#653 = ORIENTED_EDGE('',*,*,#555,.F.);
#654 = SPHERICAL_SURFACE('',#655,5.E-02);
#655 = AXIS2_PLACEMENT_3D('',#656,#657,#658);
#656 = CARTESIAN_POINT('',(0.45,0.3325,0.7325));
#657 = DIRECTION('',(0.,-1.,-0.));
#658 = DIRECTION('',(1.,0.,0.));
#659 = ( GEOMETRIC_REPRESENTATION_CONTEXT(3) 
GLOBAL_UNCERTAINTY_ASSIGNED_CONTEXT((#663)) GLOBAL_UNIT_ASSIGNED_CONTEXT
((#660,#661,#662)) REPRESENTATION_CONTEXT('Context #1',
  '3D Context with UNIT and UNCERTAINTY') );
#660 = ( LENGTH_UNIT() NAMED_UNIT(*) SI_UNIT(.MILLI.,.METRE.) );
#661 = ( NAMED_UNIT(*) PLANE_ANGLE_UNIT() SI_UNIT($,.RADIAN.) );
#662 = ( NAMED_UNIT(*) SI_UNIT($,.STERADIAN.) SOLID_ANGLE_UNIT() );
#663 = UNCERTAINTY_MEASURE_WITH_UNIT(LENGTH_MEASURE(1.E-07),#660,
  'distance_accuracy_value','confusion accuracy');
#664 = CONTEXT_DEPENDENT_SHAPE_REPRESENTATION(#665,#667);
#665 = ( REPRESENTATION_RELATIONSHIP('','',#40,#10) 
REPRESENTATION_RELATIONSHIP_WITH_TRANSFORMATION(#666) 
SHAPE_REPRESENTATION_RELATIONSHIP() );
#666 = ITEM_DEFINED_TRANSFORMATION('','',#11,#15);
#667 = PRODUCT_DEFINITION_SHAPE('Placement','Placement of an item',#668
  );
#668 = NEXT_ASSEMBLY_USAGE_OCCURRENCE('7','Ceramic_nominal','',#5,#35,$
  );
#669 = PRODUCT_RELATED_PRODUCT_CATEGORY('part',$,(#37));
#670 = SHAPE_DEFINITION_REPRESENTATION(#671,#677);
#671 = PRODUCT_DEFINITION_SHAPE('','',#672);
#672 = PRODUCT_DEFINITION('design','',#673,#676);
#673 = PRODUCT_DEFINITION_FORMATION('','',#674);
#674 = PRODUCT('Termination_1','Termination_1','',(#675));
#675 = PRODUCT_CONTEXT('',#2,'mechanical');
#676 = PRODUCT_DEFINITION_CONTEXT('part definition',#2,'design');
#677 = ADVANCED_BREP_SHAPE_REPRESENTATION('',(#11,#678),#1296);
#678 = MANIFOLD_SOLID_BREP('',#679);
#679 = CLOSED_SHELL('',(#680,#720,#753,#786,#819,#852,#869,#886,#917,
    #948,#965,#996,#1013,#1044,#1062,#1080,#1113,#1131,#1162,#1180,#1211
    ,#1240,#1251,#1262,#1274,#1285));
#680 = ADVANCED_FACE('',(#681),#715,.F.);
#681 = FACE_BOUND('',#682,.F.);
#682 = EDGE_LOOP('',(#683,#693,#701,#709));
#683 = ORIENTED_EDGE('',*,*,#684,.F.);
#684 = EDGE_CURVE('',#685,#687,#689,.T.);
#685 = VERTEX_POINT('',#686);
#686 = CARTESIAN_POINT('',(-0.8,-0.376,2.4E-02));
#687 = VERTEX_POINT('',#688);
#688 = CARTESIAN_POINT('',(-0.8,-0.376,0.776));
#689 = LINE('',#690,#691);
#690 = CARTESIAN_POINT('',(-0.8,-0.376,0.));
#691 = VECTOR('',#692,1.);
#692 = DIRECTION('',(0.,0.,1.));
#693 = ORIENTED_EDGE('',*,*,#694,.T.);
#694 = EDGE_CURVE('',#685,#695,#697,.T.);
#695 = VERTEX_POINT('',#696);
#696 = CARTESIAN_POINT('',(-0.8,0.376,2.4E-02));
#697 = LINE('',#698,#699);
#698 = CARTESIAN_POINT('',(-0.8,-0.4,2.4E-02));
#699 = VECTOR('',#700,1.);
#700 = DIRECTION('',(-0.,1.,0.));
#701 = ORIENTED_EDGE('',*,*,#702,.T.);
#702 = EDGE_CURVE('',#695,#703,#705,.T.);
#703 = VERTEX_POINT('',#704);
#704 = CARTESIAN_POINT('',(-0.8,0.376,0.776));
#705 = LINE('',#706,#707);
#706 = CARTESIAN_POINT('',(-0.8,0.376,0.));
#707 = VECTOR('',#708,1.);
#708 = DIRECTION('',(0.,0.,1.));
#709 = ORIENTED_EDGE('',*,*,#710,.F.);
#710 = EDGE_CURVE('',#687,#703,#711,.T.);
#711 = LINE('',#712,#713);
#712 = CARTESIAN_POINT('',(-0.8,-0.4,0.776));
#713 = VECTOR('',#714,1.);
#714 = DIRECTION('',(-0.,1.,0.));
#715 = PLANE('',#716);
#716 = AXIS2_PLACEMENT_3D('',#717,#718,#719);
#717 = CARTESIAN_POINT('',(-0.8,-0.4,0.));
#718 = DIRECTION('',(1.,0.,-0.));
#719 = DIRECTION('',(0.,0.,1.));
#720 = ADVANCED_FACE('',(#721),#748,.T.);
#721 = FACE_BOUND('',#722,.T.);
#722 = EDGE_LOOP('',(#723,#724,#733,#741));
#723 = ORIENTED_EDGE('',*,*,#684,.F.);
#724 = ORIENTED_EDGE('',*,*,#725,.T.);
#725 = EDGE_CURVE('',#685,#726,#728,.T.);
#726 = VERTEX_POINT('',#727);
#727 = CARTESIAN_POINT('',(-0.776,-0.4,2.4E-02));
#728 = CIRCLE('',#729,2.4E-02);
#729 = AXIS2_PLACEMENT_3D('',#730,#731,#732);
#730 = CARTESIAN_POINT('',(-0.776,-0.376,2.4E-02));
#731 = DIRECTION('',(0.,0.,1.));
#732 = DIRECTION('',(-1.,0.,0.));
#733 = ORIENTED_EDGE('',*,*,#734,.T.);
#734 = EDGE_CURVE('',#726,#735,#737,.T.);
#735 = VERTEX_POINT('',#736);
#736 = CARTESIAN_POINT('',(-0.776,-0.4,0.776));
#737 = LINE('',#738,#739);
#738 = CARTESIAN_POINT('',(-0.776,-0.4,0.));
#739 = VECTOR('',#740,1.);
#740 = DIRECTION('',(0.,0.,1.));
#741 = ORIENTED_EDGE('',*,*,#742,.F.);
#742 = EDGE_CURVE('',#687,#735,#743,.T.);
#743 = CIRCLE('',#744,2.4E-02);
#744 = AXIS2_PLACEMENT_3D('',#745,#746,#747);
#745 = CARTESIAN_POINT('',(-0.776,-0.376,0.776));
#746 = DIRECTION('',(0.,0.,1.));
#747 = DIRECTION('',(-1.,0.,0.));
#748 = CYLINDRICAL_SURFACE('',#749,2.4E-02);
#749 = AXIS2_PLACEMENT_3D('',#750,#751,#752);
#750 = CARTESIAN_POINT('',(-0.776,-0.376,0.));
#751 = DIRECTION('',(0.,0.,1.));
#752 = DIRECTION('',(-1.,-0.,0.));
#753 = ADVANCED_FACE('',(#754),#781,.T.);
#754 = FACE_BOUND('',#755,.F.);
#755 = EDGE_LOOP('',(#756,#765,#773,#780));
#756 = ORIENTED_EDGE('',*,*,#757,.F.);
#757 = EDGE_CURVE('',#758,#685,#760,.T.);
#758 = VERTEX_POINT('',#759);
#759 = CARTESIAN_POINT('',(-0.776,-0.376,0.));
#760 = CIRCLE('',#761,2.4E-02);
#761 = AXIS2_PLACEMENT_3D('',#762,#763,#764);
#762 = CARTESIAN_POINT('',(-0.776,-0.376,2.4E-02));
#763 = DIRECTION('',(0.,1.,-0.));
#764 = DIRECTION('',(-1.,0.,0.));
#765 = ORIENTED_EDGE('',*,*,#766,.T.);
#766 = EDGE_CURVE('',#758,#767,#769,.T.);
#767 = VERTEX_POINT('',#768);
#768 = CARTESIAN_POINT('',(-0.776,0.376,0.));
#769 = LINE('',#770,#771);
#770 = CARTESIAN_POINT('',(-0.776,-0.4,-3.469446951954E-18));
#771 = VECTOR('',#772,1.);
#772 = DIRECTION('',(-0.,1.,0.));
#773 = ORIENTED_EDGE('',*,*,#774,.T.);
#774 = EDGE_CURVE('',#767,#695,#775,.T.);
#775 = CIRCLE('',#776,2.4E-02);
#776 = AXIS2_PLACEMENT_3D('',#777,#778,#779);
#777 = CARTESIAN_POINT('',(-0.776,0.376,2.4E-02));
#778 = DIRECTION('',(0.,1.,-0.));
#779 = DIRECTION('',(-1.,0.,0.));
#780 = ORIENTED_EDGE('',*,*,#694,.F.);
#781 = CYLINDRICAL_SURFACE('',#782,2.4E-02);
#782 = AXIS2_PLACEMENT_3D('',#783,#784,#785);
#783 = CARTESIAN_POINT('',(-0.776,-0.4,2.4E-02));
#784 = DIRECTION('',(-0.,1.,0.));
#785 = DIRECTION('',(-1.,-0.,0.));
#786 = ADVANCED_FACE('',(#787),#814,.T.);
#787 = FACE_BOUND('',#788,.T.);
#788 = EDGE_LOOP('',(#789,#798,#806,#813));
#789 = ORIENTED_EDGE('',*,*,#790,.F.);
#790 = EDGE_CURVE('',#791,#687,#793,.T.);
#791 = VERTEX_POINT('',#792);
#792 = CARTESIAN_POINT('',(-0.776,-0.376,0.8));
#793 = CIRCLE('',#794,2.4E-02);
#794 = AXIS2_PLACEMENT_3D('',#795,#796,#797);
#795 = CARTESIAN_POINT('',(-0.776,-0.376,0.776));
#796 = DIRECTION('',(0.,-1.,0.));
#797 = DIRECTION('',(-1.,0.,0.));
#798 = ORIENTED_EDGE('',*,*,#799,.T.);
#799 = EDGE_CURVE('',#791,#800,#802,.T.);
#800 = VERTEX_POINT('',#801);
#801 = CARTESIAN_POINT('',(-0.776,0.376,0.8));
#802 = LINE('',#803,#804);
#803 = CARTESIAN_POINT('',(-0.776,-0.4,0.8));
#804 = VECTOR('',#805,1.);
#805 = DIRECTION('',(-0.,1.,0.));
#806 = ORIENTED_EDGE('',*,*,#807,.F.);
#807 = EDGE_CURVE('',#703,#800,#808,.T.);
#808 = CIRCLE('',#809,2.4E-02);
#809 = AXIS2_PLACEMENT_3D('',#810,#811,#812);
#810 = CARTESIAN_POINT('',(-0.776,0.376,0.776));
#811 = DIRECTION('',(-0.,1.,0.));
#812 = DIRECTION('',(-1.,-0.,0.));
#813 = ORIENTED_EDGE('',*,*,#710,.F.);
#814 = CYLINDRICAL_SURFACE('',#815,2.4E-02);
#815 = AXIS2_PLACEMENT_3D('',#816,#817,#818);
#816 = CARTESIAN_POINT('',(-0.776,-0.4,0.776));
#817 = DIRECTION('',(-0.,1.,0.));
#818 = DIRECTION('',(-1.,-0.,0.));
#819 = ADVANCED_FACE('',(#820),#847,.T.);
#820 = FACE_BOUND('',#821,.F.);
#821 = EDGE_LOOP('',(#822,#823,#832,#840));
#822 = ORIENTED_EDGE('',*,*,#702,.F.);
#823 = ORIENTED_EDGE('',*,*,#824,.T.);
#824 = EDGE_CURVE('',#695,#825,#827,.T.);
#825 = VERTEX_POINT('',#826);
#826 = CARTESIAN_POINT('',(-0.776,0.4,2.4E-02));
#827 = CIRCLE('',#828,2.4E-02);
#828 = AXIS2_PLACEMENT_3D('',#829,#830,#831);
#829 = CARTESIAN_POINT('',(-0.776,0.376,2.4E-02));
#830 = DIRECTION('',(-0.,0.,-1.));
#831 = DIRECTION('',(-1.,0.,0.));
#832 = ORIENTED_EDGE('',*,*,#833,.T.);
#833 = EDGE_CURVE('',#825,#834,#836,.T.);
#834 = VERTEX_POINT('',#835);
#835 = CARTESIAN_POINT('',(-0.776,0.4,0.776));
#836 = LINE('',#837,#838);
#837 = CARTESIAN_POINT('',(-0.776,0.4,0.));
#838 = VECTOR('',#839,1.);
#839 = DIRECTION('',(0.,0.,1.));
#840 = ORIENTED_EDGE('',*,*,#841,.T.);
#841 = EDGE_CURVE('',#834,#703,#842,.T.);
#842 = CIRCLE('',#843,2.4E-02);
#843 = AXIS2_PLACEMENT_3D('',#844,#845,#846);
#844 = CARTESIAN_POINT('',(-0.776,0.376,0.776));
#845 = DIRECTION('',(0.,0.,1.));
#846 = DIRECTION('',(-1.,-0.,0.));
#847 = CYLINDRICAL_SURFACE('',#848,2.4E-02);
#848 = AXIS2_PLACEMENT_3D('',#849,#850,#851);
#849 = CARTESIAN_POINT('',(-0.776,0.376,0.));
#850 = DIRECTION('',(0.,0.,1.));
#851 = DIRECTION('',(-1.,-0.,0.));
#852 = ADVANCED_FACE('',(#853),#864,.T.);
#853 = FACE_BOUND('',#854,.T.);
#854 = EDGE_LOOP('',(#855,#856,#863));
#855 = ORIENTED_EDGE('',*,*,#757,.F.);
#856 = ORIENTED_EDGE('',*,*,#857,.T.);
#857 = EDGE_CURVE('',#758,#726,#858,.T.);
#858 = CIRCLE('',#859,2.4E-02);
#859 = AXIS2_PLACEMENT_3D('',#860,#861,#862);
#860 = CARTESIAN_POINT('',(-0.776,-0.376,2.4E-02));
#861 = DIRECTION('',(-1.,6.123233995737E-17,0.));
#862 = DIRECTION('',(-6.123233995737E-17,-1.,0.));
#863 = ORIENTED_EDGE('',*,*,#725,.F.);
#864 = SPHERICAL_SURFACE('',#865,2.4E-02);
#865 = AXIS2_PLACEMENT_3D('',#866,#867,#868);
#866 = CARTESIAN_POINT('',(-0.776,-0.376,2.4E-02));
#867 = DIRECTION('',(0.,0.,1.));
#868 = DIRECTION('',(-1.,0.,0.));
#869 = ADVANCED_FACE('',(#870),#881,.T.);
#870 = FACE_BOUND('',#871,.F.);
#871 = EDGE_LOOP('',(#872,#873,#880));
#872 = ORIENTED_EDGE('',*,*,#790,.F.);
#873 = ORIENTED_EDGE('',*,*,#874,.T.);
#874 = EDGE_CURVE('',#791,#735,#875,.T.);
#875 = CIRCLE('',#876,2.4E-02);
#876 = AXIS2_PLACEMENT_3D('',#877,#878,#879);
#877 = CARTESIAN_POINT('',(-0.776,-0.376,0.776));
#878 = DIRECTION('',(1.,-6.123233995737E-17,0.));
#879 = DIRECTION('',(-6.123233995737E-17,-1.,0.));
#880 = ORIENTED_EDGE('',*,*,#742,.F.);
#881 = SPHERICAL_SURFACE('',#882,2.4E-02);
#882 = AXIS2_PLACEMENT_3D('',#883,#884,#885);
#883 = CARTESIAN_POINT('',(-0.776,-0.376,0.776));
#884 = DIRECTION('',(-0.,-0.,-1.));
#885 = DIRECTION('',(-1.,0.,0.));
#886 = ADVANCED_FACE('',(#887),#912,.F.);
#887 = FACE_BOUND('',#888,.F.);
#888 = EDGE_LOOP('',(#889,#890,#898,#906));
#889 = ORIENTED_EDGE('',*,*,#734,.T.);
#890 = ORIENTED_EDGE('',*,*,#891,.T.);
#891 = EDGE_CURVE('',#735,#892,#894,.T.);
#892 = VERTEX_POINT('',#893);
#893 = CARTESIAN_POINT('',(-0.524,-0.4,0.776));
#894 = LINE('',#895,#896);
#895 = CARTESIAN_POINT('',(-0.8,-0.4,0.776));
#896 = VECTOR('',#897,1.);
#897 = DIRECTION('',(1.,0.,-0.));
#898 = ORIENTED_EDGE('',*,*,#899,.F.);
#899 = EDGE_CURVE('',#900,#892,#902,.T.);
#900 = VERTEX_POINT('',#901);
#901 = CARTESIAN_POINT('',(-0.524,-0.4,2.4E-02));
#902 = LINE('',#903,#904);
#903 = CARTESIAN_POINT('',(-0.524,-0.4,0.));
#904 = VECTOR('',#905,1.);
#905 = DIRECTION('',(0.,0.,1.));
#906 = ORIENTED_EDGE('',*,*,#907,.F.);
#907 = EDGE_CURVE('',#726,#900,#908,.T.);
#908 = LINE('',#909,#910);
#909 = CARTESIAN_POINT('',(-0.8,-0.4,2.4E-02));
#910 = VECTOR('',#911,1.);
#911 = DIRECTION('',(1.,0.,-0.));
#912 = PLANE('',#913);
#913 = AXIS2_PLACEMENT_3D('',#914,#915,#916);
#914 = CARTESIAN_POINT('',(-0.8,-0.4,0.));
#915 = DIRECTION('',(-0.,1.,0.));
#916 = DIRECTION('',(0.,0.,1.));
#917 = ADVANCED_FACE('',(#918),#943,.F.);
#918 = FACE_BOUND('',#919,.F.);
#919 = EDGE_LOOP('',(#920,#921,#929,#937));
#920 = ORIENTED_EDGE('',*,*,#766,.F.);
#921 = ORIENTED_EDGE('',*,*,#922,.T.);
#922 = EDGE_CURVE('',#758,#923,#925,.T.);
#923 = VERTEX_POINT('',#924);
#924 = CARTESIAN_POINT('',(-0.524,-0.376,0.));
#925 = LINE('',#926,#927);
#926 = CARTESIAN_POINT('',(-0.8,-0.376,-3.469446951954E-18));
#927 = VECTOR('',#928,1.);
#928 = DIRECTION('',(1.,0.,-0.));
#929 = ORIENTED_EDGE('',*,*,#930,.T.);
#930 = EDGE_CURVE('',#923,#931,#933,.T.);
#931 = VERTEX_POINT('',#932);
#932 = CARTESIAN_POINT('',(-0.524,0.376,0.));
#933 = LINE('',#934,#935);
#934 = CARTESIAN_POINT('',(-0.524,-0.4,-3.469446951954E-18));
#935 = VECTOR('',#936,1.);
#936 = DIRECTION('',(-0.,1.,0.));
#937 = ORIENTED_EDGE('',*,*,#938,.F.);
#938 = EDGE_CURVE('',#767,#931,#939,.T.);
#939 = LINE('',#940,#941);
#940 = CARTESIAN_POINT('',(-0.8,0.376,-3.469446951954E-18));
#941 = VECTOR('',#942,1.);
#942 = DIRECTION('',(1.,0.,-0.));
#943 = PLANE('',#944);
#944 = AXIS2_PLACEMENT_3D('',#945,#946,#947);
#945 = CARTESIAN_POINT('',(-0.8,-0.4,0.));
#946 = DIRECTION('',(0.,0.,1.));
#947 = DIRECTION('',(1.,0.,-0.));
#948 = ADVANCED_FACE('',(#949),#960,.T.);
#949 = FACE_BOUND('',#950,.F.);
#950 = EDGE_LOOP('',(#951,#952,#959));
#951 = ORIENTED_EDGE('',*,*,#774,.F.);
#952 = ORIENTED_EDGE('',*,*,#953,.T.);
#953 = EDGE_CURVE('',#767,#825,#954,.T.);
#954 = CIRCLE('',#955,2.4E-02);
#955 = AXIS2_PLACEMENT_3D('',#956,#957,#958);
#956 = CARTESIAN_POINT('',(-0.776,0.376,2.4E-02));
#957 = DIRECTION('',(1.,6.123233995737E-17,-0.));
#958 = DIRECTION('',(-6.123233995737E-17,1.,0.));
#959 = ORIENTED_EDGE('',*,*,#824,.F.);
#960 = SPHERICAL_SURFACE('',#961,2.4E-02);
#961 = AXIS2_PLACEMENT_3D('',#962,#963,#964);
#962 = CARTESIAN_POINT('',(-0.776,0.376,2.4E-02));
#963 = DIRECTION('',(0.,0.,1.));
#964 = DIRECTION('',(-1.,0.,0.));
#965 = ADVANCED_FACE('',(#966),#991,.T.);
#966 = FACE_BOUND('',#967,.T.);
#967 = EDGE_LOOP('',(#968,#969,#977,#985));
#968 = ORIENTED_EDGE('',*,*,#799,.F.);
#969 = ORIENTED_EDGE('',*,*,#970,.T.);
#970 = EDGE_CURVE('',#791,#971,#973,.T.);
#971 = VERTEX_POINT('',#972);
#972 = CARTESIAN_POINT('',(-0.524,-0.376,0.8));
#973 = LINE('',#974,#975);
#974 = CARTESIAN_POINT('',(-0.8,-0.376,0.8));
#975 = VECTOR('',#976,1.);
#976 = DIRECTION('',(1.,0.,-0.));
#977 = ORIENTED_EDGE('',*,*,#978,.T.);
#978 = EDGE_CURVE('',#971,#979,#981,.T.);
#979 = VERTEX_POINT('',#980);
#980 = CARTESIAN_POINT('',(-0.524,0.376,0.8));
#981 = LINE('',#982,#983);
#982 = CARTESIAN_POINT('',(-0.524,-0.4,0.8));
#983 = VECTOR('',#984,1.);
#984 = DIRECTION('',(-0.,1.,0.));
#985 = ORIENTED_EDGE('',*,*,#986,.F.);
#986 = EDGE_CURVE('',#800,#979,#987,.T.);
#987 = LINE('',#988,#989);
#988 = CARTESIAN_POINT('',(-0.8,0.376,0.8));
#989 = VECTOR('',#990,1.);
#990 = DIRECTION('',(1.,0.,-0.));
#991 = PLANE('',#992);
#992 = AXIS2_PLACEMENT_3D('',#993,#994,#995);
#993 = CARTESIAN_POINT('',(-0.8,-0.4,0.8));
#994 = DIRECTION('',(0.,0.,1.));
#995 = DIRECTION('',(1.,0.,-0.));
#996 = ADVANCED_FACE('',(#997),#1008,.T.);
#997 = FACE_BOUND('',#998,.F.);
#998 = EDGE_LOOP('',(#999,#1000,#1007));
#999 = ORIENTED_EDGE('',*,*,#841,.F.);
#1000 = ORIENTED_EDGE('',*,*,#1001,.T.);
#1001 = EDGE_CURVE('',#834,#800,#1002,.T.);
#1002 = CIRCLE('',#1003,2.4E-02);
#1003 = AXIS2_PLACEMENT_3D('',#1004,#1005,#1006);
#1004 = CARTESIAN_POINT('',(-0.776,0.376,0.776));
#1005 = DIRECTION('',(1.,0.,6.123233995737E-17));
#1006 = DIRECTION('',(-6.123233995737E-17,-0.,1.));
#1007 = ORIENTED_EDGE('',*,*,#807,.F.);
#1008 = SPHERICAL_SURFACE('',#1009,2.4E-02);
#1009 = AXIS2_PLACEMENT_3D('',#1010,#1011,#1012);
#1010 = CARTESIAN_POINT('',(-0.776,0.376,0.776));
#1011 = DIRECTION('',(0.,-1.,-0.));
#1012 = DIRECTION('',(-1.,-0.,0.));
#1013 = ADVANCED_FACE('',(#1014),#1039,.T.);
#1014 = FACE_BOUND('',#1015,.T.);
#1015 = EDGE_LOOP('',(#1016,#1017,#1025,#1033));
#1016 = ORIENTED_EDGE('',*,*,#833,.T.);
#1017 = ORIENTED_EDGE('',*,*,#1018,.T.);
#1018 = EDGE_CURVE('',#834,#1019,#1021,.T.);
#1019 = VERTEX_POINT('',#1020);
#1020 = CARTESIAN_POINT('',(-0.524,0.4,0.776));
#1021 = LINE('',#1022,#1023);
#1022 = CARTESIAN_POINT('',(-0.8,0.4,0.776));
#1023 = VECTOR('',#1024,1.);
#1024 = DIRECTION('',(1.,0.,-0.));
#1025 = ORIENTED_EDGE('',*,*,#1026,.F.);
#1026 = EDGE_CURVE('',#1027,#1019,#1029,.T.);
#1027 = VERTEX_POINT('',#1028);
#1028 = CARTESIAN_POINT('',(-0.524,0.4,2.4E-02));
#1029 = LINE('',#1030,#1031);
#1030 = CARTESIAN_POINT('',(-0.524,0.4,0.));
#1031 = VECTOR('',#1032,1.);
#1032 = DIRECTION('',(0.,0.,1.));
#1033 = ORIENTED_EDGE('',*,*,#1034,.F.);
#1034 = EDGE_CURVE('',#825,#1027,#1035,.T.);
#1035 = LINE('',#1036,#1037);
#1036 = CARTESIAN_POINT('',(-0.8,0.4,2.4E-02));
#1037 = VECTOR('',#1038,1.);
#1038 = DIRECTION('',(1.,0.,-0.));
#1039 = PLANE('',#1040);
#1040 = AXIS2_PLACEMENT_3D('',#1041,#1042,#1043);
#1041 = CARTESIAN_POINT('',(-0.8,0.4,0.));
#1042 = DIRECTION('',(-0.,1.,0.));
#1043 = DIRECTION('',(0.,0.,1.));
#1044 = ADVANCED_FACE('',(#1045),#1057,.T.);
#1045 = FACE_BOUND('',#1046,.T.);
#1046 = EDGE_LOOP('',(#1047,#1048,#1049,#1056));
#1047 = ORIENTED_EDGE('',*,*,#857,.F.);
#1048 = ORIENTED_EDGE('',*,*,#922,.T.);
#1049 = ORIENTED_EDGE('',*,*,#1050,.T.);
#1050 = EDGE_CURVE('',#923,#900,#1051,.T.);
#1051 = CIRCLE('',#1052,2.4E-02);
#1052 = AXIS2_PLACEMENT_3D('',#1053,#1054,#1055);
#1053 = CARTESIAN_POINT('',(-0.524,-0.376,2.4E-02));
#1054 = DIRECTION('',(-1.,-6.123233995737E-17,0.));
#1055 = DIRECTION('',(6.123233995737E-17,-1.,-0.));
#1056 = ORIENTED_EDGE('',*,*,#907,.F.);
#1057 = CYLINDRICAL_SURFACE('',#1058,2.4E-02);
#1058 = AXIS2_PLACEMENT_3D('',#1059,#1060,#1061);
#1059 = CARTESIAN_POINT('',(-0.8,-0.376,2.4E-02));
#1060 = DIRECTION('',(1.,0.,-0.));
#1061 = DIRECTION('',(0.,-1.,0.));
#1062 = ADVANCED_FACE('',(#1063),#1075,.T.);
#1063 = FACE_BOUND('',#1064,.F.);
#1064 = EDGE_LOOP('',(#1065,#1066,#1067,#1074));
#1065 = ORIENTED_EDGE('',*,*,#874,.F.);
#1066 = ORIENTED_EDGE('',*,*,#970,.T.);
#1067 = ORIENTED_EDGE('',*,*,#1068,.T.);
#1068 = EDGE_CURVE('',#971,#892,#1069,.T.);
#1069 = CIRCLE('',#1070,2.4E-02);
#1070 = AXIS2_PLACEMENT_3D('',#1071,#1072,#1073);
#1071 = CARTESIAN_POINT('',(-0.524,-0.376,0.776));
#1072 = DIRECTION('',(1.,6.123233995737E-17,0.));
#1073 = DIRECTION('',(6.123233995737E-17,-1.,0.));
#1074 = ORIENTED_EDGE('',*,*,#891,.F.);
#1075 = CYLINDRICAL_SURFACE('',#1076,2.4E-02);
#1076 = AXIS2_PLACEMENT_3D('',#1077,#1078,#1079);
#1077 = CARTESIAN_POINT('',(-0.8,-0.376,0.776));
#1078 = DIRECTION('',(1.,0.,-0.));
#1079 = DIRECTION('',(0.,-1.,0.));
#1080 = ADVANCED_FACE('',(#1081),#1108,.T.);
#1081 = FACE_BOUND('',#1082,.F.);
#1082 = EDGE_LOOP('',(#1083,#1093,#1100,#1101));
#1083 = ORIENTED_EDGE('',*,*,#1084,.F.);
#1084 = EDGE_CURVE('',#1085,#1087,#1089,.T.);
#1085 = VERTEX_POINT('',#1086);
#1086 = CARTESIAN_POINT('',(-0.5,-0.376,2.4E-02));
#1087 = VERTEX_POINT('',#1088);
#1088 = CARTESIAN_POINT('',(-0.5,-0.376,0.776));
#1089 = LINE('',#1090,#1091);
#1090 = CARTESIAN_POINT('',(-0.5,-0.376,0.));
#1091 = VECTOR('',#1092,1.);
#1092 = DIRECTION('',(0.,0.,1.));
#1093 = ORIENTED_EDGE('',*,*,#1094,.T.);
#1094 = EDGE_CURVE('',#1085,#900,#1095,.T.);
#1095 = CIRCLE('',#1096,2.4E-02);
#1096 = AXIS2_PLACEMENT_3D('',#1097,#1098,#1099);
#1097 = CARTESIAN_POINT('',(-0.524,-0.376,2.4E-02));
#1098 = DIRECTION('',(0.,-0.,-1.));
#1099 = DIRECTION('',(1.,0.,-0.));
#1100 = ORIENTED_EDGE('',*,*,#899,.T.);
#1101 = ORIENTED_EDGE('',*,*,#1102,.F.);
#1102 = EDGE_CURVE('',#1087,#892,#1103,.T.);
#1103 = CIRCLE('',#1104,2.4E-02);
#1104 = AXIS2_PLACEMENT_3D('',#1105,#1106,#1107);
#1105 = CARTESIAN_POINT('',(-0.524,-0.376,0.776));
#1106 = DIRECTION('',(0.,0.,-1.));
#1107 = DIRECTION('',(1.,0.,0.));
#1108 = CYLINDRICAL_SURFACE('',#1109,2.4E-02);
#1109 = AXIS2_PLACEMENT_3D('',#1110,#1111,#1112);
#1110 = CARTESIAN_POINT('',(-0.524,-0.376,0.));
#1111 = DIRECTION('',(0.,0.,1.));
#1112 = DIRECTION('',(1.,0.,-0.));
#1113 = ADVANCED_FACE('',(#1114),#1126,.T.);
#1114 = FACE_BOUND('',#1115,.F.);
#1115 = EDGE_LOOP('',(#1116,#1117,#1118,#1125));
#1116 = ORIENTED_EDGE('',*,*,#953,.F.);
#1117 = ORIENTED_EDGE('',*,*,#938,.T.);
#1118 = ORIENTED_EDGE('',*,*,#1119,.T.);
#1119 = EDGE_CURVE('',#931,#1027,#1120,.T.);
#1120 = CIRCLE('',#1121,2.4E-02);
#1121 = AXIS2_PLACEMENT_3D('',#1122,#1123,#1124);
#1122 = CARTESIAN_POINT('',(-0.524,0.376,2.4E-02));
#1123 = DIRECTION('',(1.,-6.123233995737E-17,0.));
#1124 = DIRECTION('',(6.123233995737E-17,1.,0.));
#1125 = ORIENTED_EDGE('',*,*,#1034,.F.);
#1126 = CYLINDRICAL_SURFACE('',#1127,2.4E-02);
#1127 = AXIS2_PLACEMENT_3D('',#1128,#1129,#1130);
#1128 = CARTESIAN_POINT('',(-0.8,0.376,2.4E-02));
#1129 = DIRECTION('',(1.,0.,-0.));
#1130 = DIRECTION('',(0.,1.,0.));
#1131 = ADVANCED_FACE('',(#1132),#1157,.T.);
#1132 = FACE_BOUND('',#1133,.T.);
#1133 = EDGE_LOOP('',(#1134,#1141,#1142,#1151));
#1134 = ORIENTED_EDGE('',*,*,#1135,.F.);
#1135 = EDGE_CURVE('',#923,#1085,#1136,.T.);
#1136 = CIRCLE('',#1137,2.4E-02);
#1137 = AXIS2_PLACEMENT_3D('',#1138,#1139,#1140);
#1138 = CARTESIAN_POINT('',(-0.524,-0.376,2.4E-02));
#1139 = DIRECTION('',(0.,-1.,0.));
#1140 = DIRECTION('',(1.,0.,0.));
#1141 = ORIENTED_EDGE('',*,*,#930,.T.);
#1142 = ORIENTED_EDGE('',*,*,#1143,.T.);
#1143 = EDGE_CURVE('',#931,#1144,#1146,.T.);
#1144 = VERTEX_POINT('',#1145);
#1145 = CARTESIAN_POINT('',(-0.5,0.376,2.4E-02));
#1146 = CIRCLE('',#1147,2.4E-02);
#1147 = AXIS2_PLACEMENT_3D('',#1148,#1149,#1150);
#1148 = CARTESIAN_POINT('',(-0.524,0.376,2.4E-02));
#1149 = DIRECTION('',(0.,-1.,0.));
#1150 = DIRECTION('',(1.,0.,0.));
#1151 = ORIENTED_EDGE('',*,*,#1152,.F.);
#1152 = EDGE_CURVE('',#1085,#1144,#1153,.T.);
#1153 = LINE('',#1154,#1155);
#1154 = CARTESIAN_POINT('',(-0.5,-0.4,2.4E-02));
#1155 = VECTOR('',#1156,1.);
#1156 = DIRECTION('',(-0.,1.,0.));
#1157 = CYLINDRICAL_SURFACE('',#1158,2.4E-02);
#1158 = AXIS2_PLACEMENT_3D('',#1159,#1160,#1161);
#1159 = CARTESIAN_POINT('',(-0.524,-0.4,2.4E-02));
#1160 = DIRECTION('',(-0.,1.,0.));
#1161 = DIRECTION('',(1.,0.,-0.));
#1162 = ADVANCED_FACE('',(#1163),#1175,.T.);
#1163 = FACE_BOUND('',#1164,.T.);
#1164 = EDGE_LOOP('',(#1165,#1166,#1167,#1174));
#1165 = ORIENTED_EDGE('',*,*,#1001,.T.);
#1166 = ORIENTED_EDGE('',*,*,#986,.T.);
#1167 = ORIENTED_EDGE('',*,*,#1168,.F.);
#1168 = EDGE_CURVE('',#1019,#979,#1169,.T.);
#1169 = CIRCLE('',#1170,2.4E-02);
#1170 = AXIS2_PLACEMENT_3D('',#1171,#1172,#1173);
#1171 = CARTESIAN_POINT('',(-0.524,0.376,0.776));
#1172 = DIRECTION('',(1.,0.,-6.123233995737E-17));
#1173 = DIRECTION('',(6.123233995737E-17,0.,1.));
#1174 = ORIENTED_EDGE('',*,*,#1018,.F.);
#1175 = CYLINDRICAL_SURFACE('',#1176,2.4E-02);
#1176 = AXIS2_PLACEMENT_3D('',#1177,#1178,#1179);
#1177 = CARTESIAN_POINT('',(-0.8,0.376,0.776));
#1178 = DIRECTION('',(1.,0.,-0.));
#1179 = DIRECTION('',(0.,1.,0.));
#1180 = ADVANCED_FACE('',(#1181),#1206,.T.);
#1181 = FACE_BOUND('',#1182,.F.);
#1182 = EDGE_LOOP('',(#1183,#1190,#1191,#1200));
#1183 = ORIENTED_EDGE('',*,*,#1184,.F.);
#1184 = EDGE_CURVE('',#971,#1087,#1185,.T.);
#1185 = CIRCLE('',#1186,2.4E-02);
#1186 = AXIS2_PLACEMENT_3D('',#1187,#1188,#1189);
#1187 = CARTESIAN_POINT('',(-0.524,-0.376,0.776));
#1188 = DIRECTION('',(-0.,1.,0.));
#1189 = DIRECTION('',(1.,0.,0.));
#1190 = ORIENTED_EDGE('',*,*,#978,.T.);
#1191 = ORIENTED_EDGE('',*,*,#1192,.F.);
#1192 = EDGE_CURVE('',#1193,#979,#1195,.T.);
#1193 = VERTEX_POINT('',#1194);
#1194 = CARTESIAN_POINT('',(-0.5,0.376,0.776));
#1195 = CIRCLE('',#1196,2.4E-02);
#1196 = AXIS2_PLACEMENT_3D('',#1197,#1198,#1199);
#1197 = CARTESIAN_POINT('',(-0.524,0.376,0.776));
#1198 = DIRECTION('',(0.,-1.,-0.));
#1199 = DIRECTION('',(1.,0.,0.));
#1200 = ORIENTED_EDGE('',*,*,#1201,.F.);
#1201 = EDGE_CURVE('',#1087,#1193,#1202,.T.);
#1202 = LINE('',#1203,#1204);
#1203 = CARTESIAN_POINT('',(-0.5,-0.4,0.776));
#1204 = VECTOR('',#1205,1.);
#1205 = DIRECTION('',(-0.,1.,0.));
#1206 = CYLINDRICAL_SURFACE('',#1207,2.4E-02);
#1207 = AXIS2_PLACEMENT_3D('',#1208,#1209,#1210);
#1208 = CARTESIAN_POINT('',(-0.524,-0.4,0.776));
#1209 = DIRECTION('',(-0.,1.,0.));
#1210 = DIRECTION('',(1.,0.,-0.));
#1211 = ADVANCED_FACE('',(#1212),#1235,.T.);
#1212 = FACE_BOUND('',#1213,.T.);
#1213 = EDGE_LOOP('',(#1214,#1220,#1227,#1228));
#1214 = ORIENTED_EDGE('',*,*,#1215,.F.);
#1215 = EDGE_CURVE('',#1144,#1193,#1216,.T.);
#1216 = LINE('',#1217,#1218);
#1217 = CARTESIAN_POINT('',(-0.5,0.376,0.));
#1218 = VECTOR('',#1219,1.);
#1219 = DIRECTION('',(0.,0.,1.));
#1220 = ORIENTED_EDGE('',*,*,#1221,.T.);
#1221 = EDGE_CURVE('',#1144,#1027,#1222,.T.);
#1222 = CIRCLE('',#1223,2.4E-02);
#1223 = AXIS2_PLACEMENT_3D('',#1224,#1225,#1226);
#1224 = CARTESIAN_POINT('',(-0.524,0.376,2.4E-02));
#1225 = DIRECTION('',(0.,0.,1.));
#1226 = DIRECTION('',(1.,0.,-0.));
#1227 = ORIENTED_EDGE('',*,*,#1026,.T.);
#1228 = ORIENTED_EDGE('',*,*,#1229,.T.);
#1229 = EDGE_CURVE('',#1019,#1193,#1230,.T.);
#1230 = CIRCLE('',#1231,2.4E-02);
#1231 = AXIS2_PLACEMENT_3D('',#1232,#1233,#1234);
#1232 = CARTESIAN_POINT('',(-0.524,0.376,0.776));
#1233 = DIRECTION('',(0.,0.,-1.));
#1234 = DIRECTION('',(1.,0.,0.));
#1235 = CYLINDRICAL_SURFACE('',#1236,2.4E-02);
#1236 = AXIS2_PLACEMENT_3D('',#1237,#1238,#1239);
#1237 = CARTESIAN_POINT('',(-0.524,0.376,0.));
#1238 = DIRECTION('',(0.,0.,1.));
#1239 = DIRECTION('',(1.,0.,-0.));
#1240 = ADVANCED_FACE('',(#1241),#1246,.T.);
#1241 = FACE_BOUND('',#1242,.F.);
#1242 = EDGE_LOOP('',(#1243,#1244,#1245));
#1243 = ORIENTED_EDGE('',*,*,#1135,.F.);
#1244 = ORIENTED_EDGE('',*,*,#1050,.T.);
#1245 = ORIENTED_EDGE('',*,*,#1094,.F.);
#1246 = SPHERICAL_SURFACE('',#1247,2.4E-02);
#1247 = AXIS2_PLACEMENT_3D('',#1248,#1249,#1250);
#1248 = CARTESIAN_POINT('',(-0.524,-0.376,2.4E-02));
#1249 = DIRECTION('',(0.,0.,1.));
#1250 = DIRECTION('',(1.,0.,-0.));
#1251 = ADVANCED_FACE('',(#1252),#1257,.T.);
#1252 = FACE_BOUND('',#1253,.T.);
#1253 = EDGE_LOOP('',(#1254,#1255,#1256));
#1254 = ORIENTED_EDGE('',*,*,#1184,.F.);
#1255 = ORIENTED_EDGE('',*,*,#1068,.T.);
#1256 = ORIENTED_EDGE('',*,*,#1102,.F.);
#1257 = SPHERICAL_SURFACE('',#1258,2.4E-02);
#1258 = AXIS2_PLACEMENT_3D('',#1259,#1260,#1261);
#1259 = CARTESIAN_POINT('',(-0.524,-0.376,0.776));
#1260 = DIRECTION('',(-0.,-0.,-1.));
#1261 = DIRECTION('',(1.,0.,0.));
#1262 = ADVANCED_FACE('',(#1263),#1269,.T.);
#1263 = FACE_BOUND('',#1264,.T.);
#1264 = EDGE_LOOP('',(#1265,#1266,#1267,#1268));
#1265 = ORIENTED_EDGE('',*,*,#1084,.F.);
#1266 = ORIENTED_EDGE('',*,*,#1152,.T.);
#1267 = ORIENTED_EDGE('',*,*,#1215,.T.);
#1268 = ORIENTED_EDGE('',*,*,#1201,.F.);
#1269 = PLANE('',#1270);
#1270 = AXIS2_PLACEMENT_3D('',#1271,#1272,#1273);
#1271 = CARTESIAN_POINT('',(-0.5,-0.4,0.));
#1272 = DIRECTION('',(1.,0.,-0.));
#1273 = DIRECTION('',(0.,0.,1.));
#1274 = ADVANCED_FACE('',(#1275),#1280,.T.);
#1275 = FACE_BOUND('',#1276,.T.);
#1276 = EDGE_LOOP('',(#1277,#1278,#1279));
#1277 = ORIENTED_EDGE('',*,*,#1143,.F.);
#1278 = ORIENTED_EDGE('',*,*,#1119,.T.);
#1279 = ORIENTED_EDGE('',*,*,#1221,.F.);
#1280 = SPHERICAL_SURFACE('',#1281,2.4E-02);
#1281 = AXIS2_PLACEMENT_3D('',#1282,#1283,#1284);
#1282 = CARTESIAN_POINT('',(-0.524,0.376,2.4E-02));
#1283 = DIRECTION('',(0.,0.,1.));
#1284 = DIRECTION('',(1.,0.,-0.));
#1285 = ADVANCED_FACE('',(#1286),#1291,.T.);
#1286 = FACE_BOUND('',#1287,.T.);
#1287 = EDGE_LOOP('',(#1288,#1289,#1290));
#1288 = ORIENTED_EDGE('',*,*,#1229,.F.);
#1289 = ORIENTED_EDGE('',*,*,#1168,.T.);
#1290 = ORIENTED_EDGE('',*,*,#1192,.F.);
#1291 = SPHERICAL_SURFACE('',#1292,2.4E-02);
#1292 = AXIS2_PLACEMENT_3D('',#1293,#1294,#1295);
#1293 = CARTESIAN_POINT('',(-0.524,0.376,0.776));
#1294 = DIRECTION('',(0.,-1.,-0.));
#1295 = DIRECTION('',(1.,0.,0.));
#1296 = ( GEOMETRIC_REPRESENTATION_CONTEXT(3) 
GLOBAL_UNCERTAINTY_ASSIGNED_CONTEXT((#1300)) 
GLOBAL_UNIT_ASSIGNED_CONTEXT((#1297,#1298,#1299)) REPRESENTATION_CONTEXT
('Context #1','3D Context with UNIT and UNCERTAINTY') );
#1297 = ( LENGTH_UNIT() NAMED_UNIT(*) SI_UNIT(.MILLI.,.METRE.) );
#1298 = ( NAMED_UNIT(*) PLANE_ANGLE_UNIT() SI_UNIT($,.RADIAN.) );
#1299 = ( NAMED_UNIT(*) SI_UNIT($,.STERADIAN.) SOLID_ANGLE_UNIT() );
#1300 = UNCERTAINTY_MEASURE_WITH_UNIT(LENGTH_MEASURE(1.E-07),#1297,
  'distance_accuracy_value','confusion accuracy');
#1301 = CONTEXT_DEPENDENT_SHAPE_REPRESENTATION(#1302,#1304);
#1302 = ( REPRESENTATION_RELATIONSHIP('','',#677,#10) 
REPRESENTATION_RELATIONSHIP_WITH_TRANSFORMATION(#1303) 
SHAPE_REPRESENTATION_RELATIONSHIP() );
#1303 = ITEM_DEFINED_TRANSFORMATION('','',#11,#19);
#1304 = PRODUCT_DEFINITION_SHAPE('Placement','Placement of an item',
  #1305);
#1305 = NEXT_ASSEMBLY_USAGE_OCCURRENCE('8','Termination_1','',#5,#672,$
  );
#1306 = PRODUCT_RELATED_PRODUCT_CATEGORY('part',$,(#674));
#1307 = SHAPE_DEFINITION_REPRESENTATION(#1308,#1314);
#1308 = PRODUCT_DEFINITION_SHAPE('','',#1309);
#1309 = PRODUCT_DEFINITION('design','',#1310,#1313);
#1310 = PRODUCT_DEFINITION_FORMATION('','',#1311);
#1311 = PRODUCT('Termination_2','Termination_2','',(#1312));
#1312 = PRODUCT_CONTEXT('',#2,'mechanical');
#1313 = PRODUCT_DEFINITION_CONTEXT('part definition',#2,'design');
#1314 = ADVANCED_BREP_SHAPE_REPRESENTATION('',(#11,#1315),#1933);
#1315 = MANIFOLD_SOLID_BREP('',#1316);
#1316 = CLOSED_SHELL('',(#1317,#1357,#1390,#1423,#1456,#1489,#1506,#1523
    ,#1554,#1585,#1602,#1633,#1650,#1681,#1699,#1717,#1750,#1768,#1799,
    #1817,#1848,#1877,#1888,#1899,#1911,#1922));
#1317 = ADVANCED_FACE('',(#1318),#1352,.F.);
#1318 = FACE_BOUND('',#1319,.F.);
#1319 = EDGE_LOOP('',(#1320,#1330,#1338,#1346));
#1320 = ORIENTED_EDGE('',*,*,#1321,.F.);
#1321 = EDGE_CURVE('',#1322,#1324,#1326,.T.);
#1322 = VERTEX_POINT('',#1323);
#1323 = CARTESIAN_POINT('',(0.5,-0.376,2.4E-02));
#1324 = VERTEX_POINT('',#1325);
#1325 = CARTESIAN_POINT('',(0.5,-0.376,0.776));
#1326 = LINE('',#1327,#1328);
#1327 = CARTESIAN_POINT('',(0.5,-0.376,0.));
#1328 = VECTOR('',#1329,1.);
#1329 = DIRECTION('',(0.,0.,1.));
#1330 = ORIENTED_EDGE('',*,*,#1331,.T.);
#1331 = EDGE_CURVE('',#1322,#1332,#1334,.T.);
#1332 = VERTEX_POINT('',#1333);
#1333 = CARTESIAN_POINT('',(0.5,0.376,2.4E-02));
#1334 = LINE('',#1335,#1336);
#1335 = CARTESIAN_POINT('',(0.5,-0.4,2.4E-02));
#1336 = VECTOR('',#1337,1.);
#1337 = DIRECTION('',(-0.,1.,0.));
#1338 = ORIENTED_EDGE('',*,*,#1339,.T.);
#1339 = EDGE_CURVE('',#1332,#1340,#1342,.T.);
#1340 = VERTEX_POINT('',#1341);
#1341 = CARTESIAN_POINT('',(0.5,0.376,0.776));
#1342 = LINE('',#1343,#1344);
#1343 = CARTESIAN_POINT('',(0.5,0.376,0.));
#1344 = VECTOR('',#1345,1.);
#1345 = DIRECTION('',(0.,0.,1.));
#1346 = ORIENTED_EDGE('',*,*,#1347,.F.);
#1347 = EDGE_CURVE('',#1324,#1340,#1348,.T.);
#1348 = LINE('',#1349,#1350);
#1349 = CARTESIAN_POINT('',(0.5,-0.4,0.776));
#1350 = VECTOR('',#1351,1.);
#1351 = DIRECTION('',(-0.,1.,0.));
#1352 = PLANE('',#1353);
#1353 = AXIS2_PLACEMENT_3D('',#1354,#1355,#1356);
#1354 = CARTESIAN_POINT('',(0.5,-0.4,0.));
#1355 = DIRECTION('',(1.,0.,-0.));
#1356 = DIRECTION('',(0.,0.,1.));
#1357 = ADVANCED_FACE('',(#1358),#1385,.T.);
#1358 = FACE_BOUND('',#1359,.T.);
#1359 = EDGE_LOOP('',(#1360,#1361,#1370,#1378));
#1360 = ORIENTED_EDGE('',*,*,#1321,.F.);
#1361 = ORIENTED_EDGE('',*,*,#1362,.T.);
#1362 = EDGE_CURVE('',#1322,#1363,#1365,.T.);
#1363 = VERTEX_POINT('',#1364);
#1364 = CARTESIAN_POINT('',(0.524,-0.4,2.4E-02));
#1365 = CIRCLE('',#1366,2.4E-02);
#1366 = AXIS2_PLACEMENT_3D('',#1367,#1368,#1369);
#1367 = CARTESIAN_POINT('',(0.524,-0.376,2.4E-02));
#1368 = DIRECTION('',(0.,0.,1.));
#1369 = DIRECTION('',(-1.,0.,0.));
#1370 = ORIENTED_EDGE('',*,*,#1371,.T.);
#1371 = EDGE_CURVE('',#1363,#1372,#1374,.T.);
#1372 = VERTEX_POINT('',#1373);
#1373 = CARTESIAN_POINT('',(0.524,-0.4,0.776));
#1374 = LINE('',#1375,#1376);
#1375 = CARTESIAN_POINT('',(0.524,-0.4,0.));
#1376 = VECTOR('',#1377,1.);
#1377 = DIRECTION('',(0.,0.,1.));
#1378 = ORIENTED_EDGE('',*,*,#1379,.F.);
#1379 = EDGE_CURVE('',#1324,#1372,#1380,.T.);
#1380 = CIRCLE('',#1381,2.4E-02);
#1381 = AXIS2_PLACEMENT_3D('',#1382,#1383,#1384);
#1382 = CARTESIAN_POINT('',(0.524,-0.376,0.776));
#1383 = DIRECTION('',(0.,0.,1.));
#1384 = DIRECTION('',(-1.,0.,0.));
#1385 = CYLINDRICAL_SURFACE('',#1386,2.4E-02);
#1386 = AXIS2_PLACEMENT_3D('',#1387,#1388,#1389);
#1387 = CARTESIAN_POINT('',(0.524,-0.376,0.));
#1388 = DIRECTION('',(0.,0.,1.));
#1389 = DIRECTION('',(-1.,-0.,0.));
#1390 = ADVANCED_FACE('',(#1391),#1418,.T.);
#1391 = FACE_BOUND('',#1392,.F.);
#1392 = EDGE_LOOP('',(#1393,#1402,#1410,#1417));
#1393 = ORIENTED_EDGE('',*,*,#1394,.F.);
#1394 = EDGE_CURVE('',#1395,#1322,#1397,.T.);
#1395 = VERTEX_POINT('',#1396);
#1396 = CARTESIAN_POINT('',(0.524,-0.376,0.));
#1397 = CIRCLE('',#1398,2.4E-02);
#1398 = AXIS2_PLACEMENT_3D('',#1399,#1400,#1401);
#1399 = CARTESIAN_POINT('',(0.524,-0.376,2.4E-02));
#1400 = DIRECTION('',(0.,1.,-0.));
#1401 = DIRECTION('',(-1.,0.,0.));
#1402 = ORIENTED_EDGE('',*,*,#1403,.T.);
#1403 = EDGE_CURVE('',#1395,#1404,#1406,.T.);
#1404 = VERTEX_POINT('',#1405);
#1405 = CARTESIAN_POINT('',(0.524,0.376,0.));
#1406 = LINE('',#1407,#1408);
#1407 = CARTESIAN_POINT('',(0.524,-0.4,-3.469446951954E-18));
#1408 = VECTOR('',#1409,1.);
#1409 = DIRECTION('',(-0.,1.,0.));
#1410 = ORIENTED_EDGE('',*,*,#1411,.T.);
#1411 = EDGE_CURVE('',#1404,#1332,#1412,.T.);
#1412 = CIRCLE('',#1413,2.4E-02);
#1413 = AXIS2_PLACEMENT_3D('',#1414,#1415,#1416);
#1414 = CARTESIAN_POINT('',(0.524,0.376,2.4E-02));
#1415 = DIRECTION('',(0.,1.,-0.));
#1416 = DIRECTION('',(-1.,0.,0.));
#1417 = ORIENTED_EDGE('',*,*,#1331,.F.);
#1418 = CYLINDRICAL_SURFACE('',#1419,2.4E-02);
#1419 = AXIS2_PLACEMENT_3D('',#1420,#1421,#1422);
#1420 = CARTESIAN_POINT('',(0.524,-0.4,2.4E-02));
#1421 = DIRECTION('',(-0.,1.,0.));
#1422 = DIRECTION('',(-1.,-0.,0.));
#1423 = ADVANCED_FACE('',(#1424),#1451,.T.);
#1424 = FACE_BOUND('',#1425,.T.);
#1425 = EDGE_LOOP('',(#1426,#1435,#1443,#1450));
#1426 = ORIENTED_EDGE('',*,*,#1427,.F.);
#1427 = EDGE_CURVE('',#1428,#1324,#1430,.T.);
#1428 = VERTEX_POINT('',#1429);
#1429 = CARTESIAN_POINT('',(0.524,-0.376,0.8));
#1430 = CIRCLE('',#1431,2.4E-02);
#1431 = AXIS2_PLACEMENT_3D('',#1432,#1433,#1434);
#1432 = CARTESIAN_POINT('',(0.524,-0.376,0.776));
#1433 = DIRECTION('',(0.,-1.,0.));
#1434 = DIRECTION('',(-1.,0.,0.));
#1435 = ORIENTED_EDGE('',*,*,#1436,.T.);
#1436 = EDGE_CURVE('',#1428,#1437,#1439,.T.);
#1437 = VERTEX_POINT('',#1438);
#1438 = CARTESIAN_POINT('',(0.524,0.376,0.8));
#1439 = LINE('',#1440,#1441);
#1440 = CARTESIAN_POINT('',(0.524,-0.4,0.8));
#1441 = VECTOR('',#1442,1.);
#1442 = DIRECTION('',(-0.,1.,0.));
#1443 = ORIENTED_EDGE('',*,*,#1444,.F.);
#1444 = EDGE_CURVE('',#1340,#1437,#1445,.T.);
#1445 = CIRCLE('',#1446,2.4E-02);
#1446 = AXIS2_PLACEMENT_3D('',#1447,#1448,#1449);
#1447 = CARTESIAN_POINT('',(0.524,0.376,0.776));
#1448 = DIRECTION('',(-0.,1.,0.));
#1449 = DIRECTION('',(-1.,-0.,0.));
#1450 = ORIENTED_EDGE('',*,*,#1347,.F.);
#1451 = CYLINDRICAL_SURFACE('',#1452,2.4E-02);
#1452 = AXIS2_PLACEMENT_3D('',#1453,#1454,#1455);
#1453 = CARTESIAN_POINT('',(0.524,-0.4,0.776));
#1454 = DIRECTION('',(-0.,1.,0.));
#1455 = DIRECTION('',(-1.,-0.,0.));
#1456 = ADVANCED_FACE('',(#1457),#1484,.T.);
#1457 = FACE_BOUND('',#1458,.F.);
#1458 = EDGE_LOOP('',(#1459,#1460,#1469,#1477));
#1459 = ORIENTED_EDGE('',*,*,#1339,.F.);
#1460 = ORIENTED_EDGE('',*,*,#1461,.T.);
#1461 = EDGE_CURVE('',#1332,#1462,#1464,.T.);
#1462 = VERTEX_POINT('',#1463);
#1463 = CARTESIAN_POINT('',(0.524,0.4,2.4E-02));
#1464 = CIRCLE('',#1465,2.4E-02);
#1465 = AXIS2_PLACEMENT_3D('',#1466,#1467,#1468);
#1466 = CARTESIAN_POINT('',(0.524,0.376,2.4E-02));
#1467 = DIRECTION('',(-0.,0.,-1.));
#1468 = DIRECTION('',(-1.,0.,0.));
#1469 = ORIENTED_EDGE('',*,*,#1470,.T.);
#1470 = EDGE_CURVE('',#1462,#1471,#1473,.T.);
#1471 = VERTEX_POINT('',#1472);
#1472 = CARTESIAN_POINT('',(0.524,0.4,0.776));
#1473 = LINE('',#1474,#1475);
#1474 = CARTESIAN_POINT('',(0.524,0.4,0.));
#1475 = VECTOR('',#1476,1.);
#1476 = DIRECTION('',(0.,0.,1.));
#1477 = ORIENTED_EDGE('',*,*,#1478,.T.);
#1478 = EDGE_CURVE('',#1471,#1340,#1479,.T.);
#1479 = CIRCLE('',#1480,2.4E-02);
#1480 = AXIS2_PLACEMENT_3D('',#1481,#1482,#1483);
#1481 = CARTESIAN_POINT('',(0.524,0.376,0.776));
#1482 = DIRECTION('',(0.,0.,1.));
#1483 = DIRECTION('',(-1.,-0.,0.));
#1484 = CYLINDRICAL_SURFACE('',#1485,2.4E-02);
#1485 = AXIS2_PLACEMENT_3D('',#1486,#1487,#1488);
#1486 = CARTESIAN_POINT('',(0.524,0.376,0.));
#1487 = DIRECTION('',(0.,0.,1.));
#1488 = DIRECTION('',(-1.,-0.,0.));
#1489 = ADVANCED_FACE('',(#1490),#1501,.T.);
#1490 = FACE_BOUND('',#1491,.T.);
#1491 = EDGE_LOOP('',(#1492,#1493,#1500));
#1492 = ORIENTED_EDGE('',*,*,#1394,.F.);
#1493 = ORIENTED_EDGE('',*,*,#1494,.T.);
#1494 = EDGE_CURVE('',#1395,#1363,#1495,.T.);
#1495 = CIRCLE('',#1496,2.4E-02);
#1496 = AXIS2_PLACEMENT_3D('',#1497,#1498,#1499);
#1497 = CARTESIAN_POINT('',(0.524,-0.376,2.4E-02));
#1498 = DIRECTION('',(-1.,6.123233995737E-17,0.));
#1499 = DIRECTION('',(-6.123233995737E-17,-1.,0.));
#1500 = ORIENTED_EDGE('',*,*,#1362,.F.);
#1501 = SPHERICAL_SURFACE('',#1502,2.4E-02);
#1502 = AXIS2_PLACEMENT_3D('',#1503,#1504,#1505);
#1503 = CARTESIAN_POINT('',(0.524,-0.376,2.4E-02));
#1504 = DIRECTION('',(0.,0.,1.));
#1505 = DIRECTION('',(-1.,0.,0.));
#1506 = ADVANCED_FACE('',(#1507),#1518,.T.);
#1507 = FACE_BOUND('',#1508,.F.);
#1508 = EDGE_LOOP('',(#1509,#1510,#1517));
#1509 = ORIENTED_EDGE('',*,*,#1427,.F.);
#1510 = ORIENTED_EDGE('',*,*,#1511,.T.);
#1511 = EDGE_CURVE('',#1428,#1372,#1512,.T.);
#1512 = CIRCLE('',#1513,2.4E-02);
#1513 = AXIS2_PLACEMENT_3D('',#1514,#1515,#1516);
#1514 = CARTESIAN_POINT('',(0.524,-0.376,0.776));
#1515 = DIRECTION('',(1.,-6.123233995737E-17,0.));
#1516 = DIRECTION('',(-6.123233995737E-17,-1.,0.));
#1517 = ORIENTED_EDGE('',*,*,#1379,.F.);
#1518 = SPHERICAL_SURFACE('',#1519,2.4E-02);
#1519 = AXIS2_PLACEMENT_3D('',#1520,#1521,#1522);
#1520 = CARTESIAN_POINT('',(0.524,-0.376,0.776));
#1521 = DIRECTION('',(-0.,-0.,-1.));
#1522 = DIRECTION('',(-1.,0.,0.));
#1523 = ADVANCED_FACE('',(#1524),#1549,.F.);
#1524 = FACE_BOUND('',#1525,.F.);
#1525 = EDGE_LOOP('',(#1526,#1527,#1535,#1543));
#1526 = ORIENTED_EDGE('',*,*,#1371,.T.);
#1527 = ORIENTED_EDGE('',*,*,#1528,.T.);
#1528 = EDGE_CURVE('',#1372,#1529,#1531,.T.);
#1529 = VERTEX_POINT('',#1530);
#1530 = CARTESIAN_POINT('',(0.776,-0.4,0.776));
#1531 = LINE('',#1532,#1533);
#1532 = CARTESIAN_POINT('',(0.5,-0.4,0.776));
#1533 = VECTOR('',#1534,1.);
#1534 = DIRECTION('',(1.,0.,-0.));
#1535 = ORIENTED_EDGE('',*,*,#1536,.F.);
#1536 = EDGE_CURVE('',#1537,#1529,#1539,.T.);
#1537 = VERTEX_POINT('',#1538);
#1538 = CARTESIAN_POINT('',(0.776,-0.4,2.4E-02));
#1539 = LINE('',#1540,#1541);
#1540 = CARTESIAN_POINT('',(0.776,-0.4,0.));
#1541 = VECTOR('',#1542,1.);
#1542 = DIRECTION('',(0.,0.,1.));
#1543 = ORIENTED_EDGE('',*,*,#1544,.F.);
#1544 = EDGE_CURVE('',#1363,#1537,#1545,.T.);
#1545 = LINE('',#1546,#1547);
#1546 = CARTESIAN_POINT('',(0.5,-0.4,2.4E-02));
#1547 = VECTOR('',#1548,1.);
#1548 = DIRECTION('',(1.,0.,-0.));
#1549 = PLANE('',#1550);
#1550 = AXIS2_PLACEMENT_3D('',#1551,#1552,#1553);
#1551 = CARTESIAN_POINT('',(0.5,-0.4,0.));
#1552 = DIRECTION('',(-0.,1.,0.));
#1553 = DIRECTION('',(0.,0.,1.));
#1554 = ADVANCED_FACE('',(#1555),#1580,.F.);
#1555 = FACE_BOUND('',#1556,.F.);
#1556 = EDGE_LOOP('',(#1557,#1558,#1566,#1574));
#1557 = ORIENTED_EDGE('',*,*,#1403,.F.);
#1558 = ORIENTED_EDGE('',*,*,#1559,.T.);
#1559 = EDGE_CURVE('',#1395,#1560,#1562,.T.);
#1560 = VERTEX_POINT('',#1561);
#1561 = CARTESIAN_POINT('',(0.776,-0.376,0.));
#1562 = LINE('',#1563,#1564);
#1563 = CARTESIAN_POINT('',(0.5,-0.376,-3.469446951954E-18));
#1564 = VECTOR('',#1565,1.);
#1565 = DIRECTION('',(1.,0.,-0.));
#1566 = ORIENTED_EDGE('',*,*,#1567,.T.);
#1567 = EDGE_CURVE('',#1560,#1568,#1570,.T.);
#1568 = VERTEX_POINT('',#1569);
#1569 = CARTESIAN_POINT('',(0.776,0.376,0.));
#1570 = LINE('',#1571,#1572);
#1571 = CARTESIAN_POINT('',(0.776,-0.4,-3.469446951954E-18));
#1572 = VECTOR('',#1573,1.);
#1573 = DIRECTION('',(-0.,1.,0.));
#1574 = ORIENTED_EDGE('',*,*,#1575,.F.);
#1575 = EDGE_CURVE('',#1404,#1568,#1576,.T.);
#1576 = LINE('',#1577,#1578);
#1577 = CARTESIAN_POINT('',(0.5,0.376,-3.469446951954E-18));
#1578 = VECTOR('',#1579,1.);
#1579 = DIRECTION('',(1.,0.,-0.));
#1580 = PLANE('',#1581);
#1581 = AXIS2_PLACEMENT_3D('',#1582,#1583,#1584);
#1582 = CARTESIAN_POINT('',(0.5,-0.4,0.));
#1583 = DIRECTION('',(0.,0.,1.));
#1584 = DIRECTION('',(1.,0.,-0.));
#1585 = ADVANCED_FACE('',(#1586),#1597,.T.);
#1586 = FACE_BOUND('',#1587,.F.);
#1587 = EDGE_LOOP('',(#1588,#1589,#1596));
#1588 = ORIENTED_EDGE('',*,*,#1411,.F.);
#1589 = ORIENTED_EDGE('',*,*,#1590,.T.);
#1590 = EDGE_CURVE('',#1404,#1462,#1591,.T.);
#1591 = CIRCLE('',#1592,2.4E-02);
#1592 = AXIS2_PLACEMENT_3D('',#1593,#1594,#1595);
#1593 = CARTESIAN_POINT('',(0.524,0.376,2.4E-02));
#1594 = DIRECTION('',(1.,6.123233995737E-17,-0.));
#1595 = DIRECTION('',(-6.123233995737E-17,1.,0.));
#1596 = ORIENTED_EDGE('',*,*,#1461,.F.);
#1597 = SPHERICAL_SURFACE('',#1598,2.4E-02);
#1598 = AXIS2_PLACEMENT_3D('',#1599,#1600,#1601);
#1599 = CARTESIAN_POINT('',(0.524,0.376,2.4E-02));
#1600 = DIRECTION('',(0.,0.,1.));
#1601 = DIRECTION('',(-1.,0.,0.));
#1602 = ADVANCED_FACE('',(#1603),#1628,.T.);
#1603 = FACE_BOUND('',#1604,.T.);
#1604 = EDGE_LOOP('',(#1605,#1606,#1614,#1622));
#1605 = ORIENTED_EDGE('',*,*,#1436,.F.);
#1606 = ORIENTED_EDGE('',*,*,#1607,.T.);
#1607 = EDGE_CURVE('',#1428,#1608,#1610,.T.);
#1608 = VERTEX_POINT('',#1609);
#1609 = CARTESIAN_POINT('',(0.776,-0.376,0.8));
#1610 = LINE('',#1611,#1612);
#1611 = CARTESIAN_POINT('',(0.5,-0.376,0.8));
#1612 = VECTOR('',#1613,1.);
#1613 = DIRECTION('',(1.,0.,-0.));
#1614 = ORIENTED_EDGE('',*,*,#1615,.T.);
#1615 = EDGE_CURVE('',#1608,#1616,#1618,.T.);
#1616 = VERTEX_POINT('',#1617);
#1617 = CARTESIAN_POINT('',(0.776,0.376,0.8));
#1618 = LINE('',#1619,#1620);
#1619 = CARTESIAN_POINT('',(0.776,-0.4,0.8));
#1620 = VECTOR('',#1621,1.);
#1621 = DIRECTION('',(-0.,1.,0.));
#1622 = ORIENTED_EDGE('',*,*,#1623,.F.);
#1623 = EDGE_CURVE('',#1437,#1616,#1624,.T.);
#1624 = LINE('',#1625,#1626);
#1625 = CARTESIAN_POINT('',(0.5,0.376,0.8));
#1626 = VECTOR('',#1627,1.);
#1627 = DIRECTION('',(1.,0.,-0.));
#1628 = PLANE('',#1629);
#1629 = AXIS2_PLACEMENT_3D('',#1630,#1631,#1632);
#1630 = CARTESIAN_POINT('',(0.5,-0.4,0.8));
#1631 = DIRECTION('',(0.,0.,1.));
#1632 = DIRECTION('',(1.,0.,-0.));
#1633 = ADVANCED_FACE('',(#1634),#1645,.T.);
#1634 = FACE_BOUND('',#1635,.F.);
#1635 = EDGE_LOOP('',(#1636,#1637,#1644));
#1636 = ORIENTED_EDGE('',*,*,#1478,.F.);
#1637 = ORIENTED_EDGE('',*,*,#1638,.T.);
#1638 = EDGE_CURVE('',#1471,#1437,#1639,.T.);
#1639 = CIRCLE('',#1640,2.4E-02);
#1640 = AXIS2_PLACEMENT_3D('',#1641,#1642,#1643);
#1641 = CARTESIAN_POINT('',(0.524,0.376,0.776));
#1642 = DIRECTION('',(1.,0.,6.123233995737E-17));
#1643 = DIRECTION('',(-6.123233995737E-17,-0.,1.));
#1644 = ORIENTED_EDGE('',*,*,#1444,.F.);
#1645 = SPHERICAL_SURFACE('',#1646,2.4E-02);
#1646 = AXIS2_PLACEMENT_3D('',#1647,#1648,#1649);
#1647 = CARTESIAN_POINT('',(0.524,0.376,0.776));
#1648 = DIRECTION('',(0.,-1.,-0.));
#1649 = DIRECTION('',(-1.,-0.,0.));
#1650 = ADVANCED_FACE('',(#1651),#1676,.T.);
#1651 = FACE_BOUND('',#1652,.T.);
#1652 = EDGE_LOOP('',(#1653,#1654,#1662,#1670));
#1653 = ORIENTED_EDGE('',*,*,#1470,.T.);
#1654 = ORIENTED_EDGE('',*,*,#1655,.T.);
#1655 = EDGE_CURVE('',#1471,#1656,#1658,.T.);
#1656 = VERTEX_POINT('',#1657);
#1657 = CARTESIAN_POINT('',(0.776,0.4,0.776));
#1658 = LINE('',#1659,#1660);
#1659 = CARTESIAN_POINT('',(0.5,0.4,0.776));
#1660 = VECTOR('',#1661,1.);
#1661 = DIRECTION('',(1.,0.,-0.));
#1662 = ORIENTED_EDGE('',*,*,#1663,.F.);
#1663 = EDGE_CURVE('',#1664,#1656,#1666,.T.);
#1664 = VERTEX_POINT('',#1665);
#1665 = CARTESIAN_POINT('',(0.776,0.4,2.4E-02));
#1666 = LINE('',#1667,#1668);
#1667 = CARTESIAN_POINT('',(0.776,0.4,0.));
#1668 = VECTOR('',#1669,1.);
#1669 = DIRECTION('',(0.,0.,1.));
#1670 = ORIENTED_EDGE('',*,*,#1671,.F.);
#1671 = EDGE_CURVE('',#1462,#1664,#1672,.T.);
#1672 = LINE('',#1673,#1674);
#1673 = CARTESIAN_POINT('',(0.5,0.4,2.4E-02));
#1674 = VECTOR('',#1675,1.);
#1675 = DIRECTION('',(1.,0.,-0.));
#1676 = PLANE('',#1677);
#1677 = AXIS2_PLACEMENT_3D('',#1678,#1679,#1680);
#1678 = CARTESIAN_POINT('',(0.5,0.4,0.));
#1679 = DIRECTION('',(-0.,1.,0.));
#1680 = DIRECTION('',(0.,0.,1.));
#1681 = ADVANCED_FACE('',(#1682),#1694,.T.);
#1682 = FACE_BOUND('',#1683,.T.);
#1683 = EDGE_LOOP('',(#1684,#1685,#1686,#1693));
#1684 = ORIENTED_EDGE('',*,*,#1494,.F.);
#1685 = ORIENTED_EDGE('',*,*,#1559,.T.);
#1686 = ORIENTED_EDGE('',*,*,#1687,.T.);
#1687 = EDGE_CURVE('',#1560,#1537,#1688,.T.);
#1688 = CIRCLE('',#1689,2.4E-02);
#1689 = AXIS2_PLACEMENT_3D('',#1690,#1691,#1692);
#1690 = CARTESIAN_POINT('',(0.776,-0.376,2.4E-02));
#1691 = DIRECTION('',(-1.,-6.123233995737E-17,0.));
#1692 = DIRECTION('',(6.123233995737E-17,-1.,-0.));
#1693 = ORIENTED_EDGE('',*,*,#1544,.F.);
#1694 = CYLINDRICAL_SURFACE('',#1695,2.4E-02);
#1695 = AXIS2_PLACEMENT_3D('',#1696,#1697,#1698);
#1696 = CARTESIAN_POINT('',(0.5,-0.376,2.4E-02));
#1697 = DIRECTION('',(1.,0.,-0.));
#1698 = DIRECTION('',(0.,-1.,0.));
#1699 = ADVANCED_FACE('',(#1700),#1712,.T.);
#1700 = FACE_BOUND('',#1701,.F.);
#1701 = EDGE_LOOP('',(#1702,#1703,#1704,#1711));
#1702 = ORIENTED_EDGE('',*,*,#1511,.F.);
#1703 = ORIENTED_EDGE('',*,*,#1607,.T.);
#1704 = ORIENTED_EDGE('',*,*,#1705,.T.);
#1705 = EDGE_CURVE('',#1608,#1529,#1706,.T.);
#1706 = CIRCLE('',#1707,2.4E-02);
#1707 = AXIS2_PLACEMENT_3D('',#1708,#1709,#1710);
#1708 = CARTESIAN_POINT('',(0.776,-0.376,0.776));
#1709 = DIRECTION('',(1.,6.123233995737E-17,0.));
#1710 = DIRECTION('',(6.123233995737E-17,-1.,0.));
#1711 = ORIENTED_EDGE('',*,*,#1528,.F.);
#1712 = CYLINDRICAL_SURFACE('',#1713,2.4E-02);
#1713 = AXIS2_PLACEMENT_3D('',#1714,#1715,#1716);
#1714 = CARTESIAN_POINT('',(0.5,-0.376,0.776));
#1715 = DIRECTION('',(1.,0.,-0.));
#1716 = DIRECTION('',(0.,-1.,0.));
#1717 = ADVANCED_FACE('',(#1718),#1745,.T.);
#1718 = FACE_BOUND('',#1719,.F.);
#1719 = EDGE_LOOP('',(#1720,#1730,#1737,#1738));
#1720 = ORIENTED_EDGE('',*,*,#1721,.F.);
#1721 = EDGE_CURVE('',#1722,#1724,#1726,.T.);
#1722 = VERTEX_POINT('',#1723);
#1723 = CARTESIAN_POINT('',(0.8,-0.376,2.4E-02));
#1724 = VERTEX_POINT('',#1725);
#1725 = CARTESIAN_POINT('',(0.8,-0.376,0.776));
#1726 = LINE('',#1727,#1728);
#1727 = CARTESIAN_POINT('',(0.8,-0.376,0.));
#1728 = VECTOR('',#1729,1.);
#1729 = DIRECTION('',(0.,0.,1.));
#1730 = ORIENTED_EDGE('',*,*,#1731,.T.);
#1731 = EDGE_CURVE('',#1722,#1537,#1732,.T.);
#1732 = CIRCLE('',#1733,2.4E-02);
#1733 = AXIS2_PLACEMENT_3D('',#1734,#1735,#1736);
#1734 = CARTESIAN_POINT('',(0.776,-0.376,2.4E-02));
#1735 = DIRECTION('',(0.,-0.,-1.));
#1736 = DIRECTION('',(1.,0.,-0.));
#1737 = ORIENTED_EDGE('',*,*,#1536,.T.);
#1738 = ORIENTED_EDGE('',*,*,#1739,.F.);
#1739 = EDGE_CURVE('',#1724,#1529,#1740,.T.);
#1740 = CIRCLE('',#1741,2.4E-02);
#1741 = AXIS2_PLACEMENT_3D('',#1742,#1743,#1744);
#1742 = CARTESIAN_POINT('',(0.776,-0.376,0.776));
#1743 = DIRECTION('',(0.,0.,-1.));
#1744 = DIRECTION('',(1.,0.,0.));
#1745 = CYLINDRICAL_SURFACE('',#1746,2.4E-02);
#1746 = AXIS2_PLACEMENT_3D('',#1747,#1748,#1749);
#1747 = CARTESIAN_POINT('',(0.776,-0.376,0.));
#1748 = DIRECTION('',(0.,0.,1.));
#1749 = DIRECTION('',(1.,0.,-0.));
#1750 = ADVANCED_FACE('',(#1751),#1763,.T.);
#1751 = FACE_BOUND('',#1752,.F.);
#1752 = EDGE_LOOP('',(#1753,#1754,#1755,#1762));
#1753 = ORIENTED_EDGE('',*,*,#1590,.F.);
#1754 = ORIENTED_EDGE('',*,*,#1575,.T.);
#1755 = ORIENTED_EDGE('',*,*,#1756,.T.);
#1756 = EDGE_CURVE('',#1568,#1664,#1757,.T.);
#1757 = CIRCLE('',#1758,2.4E-02);
#1758 = AXIS2_PLACEMENT_3D('',#1759,#1760,#1761);
#1759 = CARTESIAN_POINT('',(0.776,0.376,2.4E-02));
#1760 = DIRECTION('',(1.,-6.123233995737E-17,0.));
#1761 = DIRECTION('',(6.123233995737E-17,1.,0.));
#1762 = ORIENTED_EDGE('',*,*,#1671,.F.);
#1763 = CYLINDRICAL_SURFACE('',#1764,2.4E-02);
#1764 = AXIS2_PLACEMENT_3D('',#1765,#1766,#1767);
#1765 = CARTESIAN_POINT('',(0.5,0.376,2.4E-02));
#1766 = DIRECTION('',(1.,0.,-0.));
#1767 = DIRECTION('',(0.,1.,0.));
#1768 = ADVANCED_FACE('',(#1769),#1794,.T.);
#1769 = FACE_BOUND('',#1770,.T.);
#1770 = EDGE_LOOP('',(#1771,#1778,#1779,#1788));
#1771 = ORIENTED_EDGE('',*,*,#1772,.F.);
#1772 = EDGE_CURVE('',#1560,#1722,#1773,.T.);
#1773 = CIRCLE('',#1774,2.4E-02);
#1774 = AXIS2_PLACEMENT_3D('',#1775,#1776,#1777);
#1775 = CARTESIAN_POINT('',(0.776,-0.376,2.4E-02));
#1776 = DIRECTION('',(0.,-1.,0.));
#1777 = DIRECTION('',(1.,0.,0.));
#1778 = ORIENTED_EDGE('',*,*,#1567,.T.);
#1779 = ORIENTED_EDGE('',*,*,#1780,.T.);
#1780 = EDGE_CURVE('',#1568,#1781,#1783,.T.);
#1781 = VERTEX_POINT('',#1782);
#1782 = CARTESIAN_POINT('',(0.8,0.376,2.4E-02));
#1783 = CIRCLE('',#1784,2.4E-02);
#1784 = AXIS2_PLACEMENT_3D('',#1785,#1786,#1787);
#1785 = CARTESIAN_POINT('',(0.776,0.376,2.4E-02));
#1786 = DIRECTION('',(0.,-1.,0.));
#1787 = DIRECTION('',(1.,0.,0.));
#1788 = ORIENTED_EDGE('',*,*,#1789,.F.);
#1789 = EDGE_CURVE('',#1722,#1781,#1790,.T.);
#1790 = LINE('',#1791,#1792);
#1791 = CARTESIAN_POINT('',(0.8,-0.4,2.4E-02));
#1792 = VECTOR('',#1793,1.);
#1793 = DIRECTION('',(-0.,1.,0.));
#1794 = CYLINDRICAL_SURFACE('',#1795,2.4E-02);
#1795 = AXIS2_PLACEMENT_3D('',#1796,#1797,#1798);
#1796 = CARTESIAN_POINT('',(0.776,-0.4,2.4E-02));
#1797 = DIRECTION('',(-0.,1.,0.));
#1798 = DIRECTION('',(1.,0.,-0.));
#1799 = ADVANCED_FACE('',(#1800),#1812,.T.);
#1800 = FACE_BOUND('',#1801,.T.);
#1801 = EDGE_LOOP('',(#1802,#1803,#1804,#1811));
#1802 = ORIENTED_EDGE('',*,*,#1638,.T.);
#1803 = ORIENTED_EDGE('',*,*,#1623,.T.);
#1804 = ORIENTED_EDGE('',*,*,#1805,.F.);
#1805 = EDGE_CURVE('',#1656,#1616,#1806,.T.);
#1806 = CIRCLE('',#1807,2.4E-02);
#1807 = AXIS2_PLACEMENT_3D('',#1808,#1809,#1810);
#1808 = CARTESIAN_POINT('',(0.776,0.376,0.776));
#1809 = DIRECTION('',(1.,0.,-6.123233995737E-17));
#1810 = DIRECTION('',(6.123233995737E-17,0.,1.));
#1811 = ORIENTED_EDGE('',*,*,#1655,.F.);
#1812 = CYLINDRICAL_SURFACE('',#1813,2.4E-02);
#1813 = AXIS2_PLACEMENT_3D('',#1814,#1815,#1816);
#1814 = CARTESIAN_POINT('',(0.5,0.376,0.776));
#1815 = DIRECTION('',(1.,0.,-0.));
#1816 = DIRECTION('',(0.,1.,0.));
#1817 = ADVANCED_FACE('',(#1818),#1843,.T.);
#1818 = FACE_BOUND('',#1819,.F.);
#1819 = EDGE_LOOP('',(#1820,#1827,#1828,#1837));
#1820 = ORIENTED_EDGE('',*,*,#1821,.F.);
#1821 = EDGE_CURVE('',#1608,#1724,#1822,.T.);
#1822 = CIRCLE('',#1823,2.4E-02);
#1823 = AXIS2_PLACEMENT_3D('',#1824,#1825,#1826);
#1824 = CARTESIAN_POINT('',(0.776,-0.376,0.776));
#1825 = DIRECTION('',(-0.,1.,0.));
#1826 = DIRECTION('',(1.,0.,0.));
#1827 = ORIENTED_EDGE('',*,*,#1615,.T.);
#1828 = ORIENTED_EDGE('',*,*,#1829,.F.);
#1829 = EDGE_CURVE('',#1830,#1616,#1832,.T.);
#1830 = VERTEX_POINT('',#1831);
#1831 = CARTESIAN_POINT('',(0.8,0.376,0.776));
#1832 = CIRCLE('',#1833,2.4E-02);
#1833 = AXIS2_PLACEMENT_3D('',#1834,#1835,#1836);
#1834 = CARTESIAN_POINT('',(0.776,0.376,0.776));
#1835 = DIRECTION('',(0.,-1.,-0.));
#1836 = DIRECTION('',(1.,0.,0.));
#1837 = ORIENTED_EDGE('',*,*,#1838,.F.);
#1838 = EDGE_CURVE('',#1724,#1830,#1839,.T.);
#1839 = LINE('',#1840,#1841);
#1840 = CARTESIAN_POINT('',(0.8,-0.4,0.776));
#1841 = VECTOR('',#1842,1.);
#1842 = DIRECTION('',(-0.,1.,0.));
#1843 = CYLINDRICAL_SURFACE('',#1844,2.4E-02);
#1844 = AXIS2_PLACEMENT_3D('',#1845,#1846,#1847);
#1845 = CARTESIAN_POINT('',(0.776,-0.4,0.776));
#1846 = DIRECTION('',(-0.,1.,0.));
#1847 = DIRECTION('',(1.,0.,-0.));
#1848 = ADVANCED_FACE('',(#1849),#1872,.T.);
#1849 = FACE_BOUND('',#1850,.T.);
#1850 = EDGE_LOOP('',(#1851,#1857,#1864,#1865));
#1851 = ORIENTED_EDGE('',*,*,#1852,.F.);
#1852 = EDGE_CURVE('',#1781,#1830,#1853,.T.);
#1853 = LINE('',#1854,#1855);
#1854 = CARTESIAN_POINT('',(0.8,0.376,0.));
#1855 = VECTOR('',#1856,1.);
#1856 = DIRECTION('',(0.,0.,1.));
#1857 = ORIENTED_EDGE('',*,*,#1858,.T.);
#1858 = EDGE_CURVE('',#1781,#1664,#1859,.T.);
#1859 = CIRCLE('',#1860,2.4E-02);
#1860 = AXIS2_PLACEMENT_3D('',#1861,#1862,#1863);
#1861 = CARTESIAN_POINT('',(0.776,0.376,2.4E-02));
#1862 = DIRECTION('',(0.,0.,1.));
#1863 = DIRECTION('',(1.,0.,-0.));
#1864 = ORIENTED_EDGE('',*,*,#1663,.T.);
#1865 = ORIENTED_EDGE('',*,*,#1866,.T.);
#1866 = EDGE_CURVE('',#1656,#1830,#1867,.T.);
#1867 = CIRCLE('',#1868,2.4E-02);
#1868 = AXIS2_PLACEMENT_3D('',#1869,#1870,#1871);
#1869 = CARTESIAN_POINT('',(0.776,0.376,0.776));
#1870 = DIRECTION('',(0.,0.,-1.));
#1871 = DIRECTION('',(1.,0.,0.));
#1872 = CYLINDRICAL_SURFACE('',#1873,2.4E-02);
#1873 = AXIS2_PLACEMENT_3D('',#1874,#1875,#1876);
#1874 = CARTESIAN_POINT('',(0.776,0.376,0.));
#1875 = DIRECTION('',(0.,0.,1.));
#1876 = DIRECTION('',(1.,0.,-0.));
#1877 = ADVANCED_FACE('',(#1878),#1883,.T.);
#1878 = FACE_BOUND('',#1879,.F.);
#1879 = EDGE_LOOP('',(#1880,#1881,#1882));
#1880 = ORIENTED_EDGE('',*,*,#1772,.F.);
#1881 = ORIENTED_EDGE('',*,*,#1687,.T.);
#1882 = ORIENTED_EDGE('',*,*,#1731,.F.);
#1883 = SPHERICAL_SURFACE('',#1884,2.4E-02);
#1884 = AXIS2_PLACEMENT_3D('',#1885,#1886,#1887);
#1885 = CARTESIAN_POINT('',(0.776,-0.376,2.4E-02));
#1886 = DIRECTION('',(0.,0.,1.));
#1887 = DIRECTION('',(1.,0.,-0.));
#1888 = ADVANCED_FACE('',(#1889),#1894,.T.);
#1889 = FACE_BOUND('',#1890,.T.);
#1890 = EDGE_LOOP('',(#1891,#1892,#1893));
#1891 = ORIENTED_EDGE('',*,*,#1821,.F.);
#1892 = ORIENTED_EDGE('',*,*,#1705,.T.);
#1893 = ORIENTED_EDGE('',*,*,#1739,.F.);
#1894 = SPHERICAL_SURFACE('',#1895,2.4E-02);
#1895 = AXIS2_PLACEMENT_3D('',#1896,#1897,#1898);
#1896 = CARTESIAN_POINT('',(0.776,-0.376,0.776));
#1897 = DIRECTION('',(-0.,-0.,-1.));
#1898 = DIRECTION('',(1.,0.,0.));
#1899 = ADVANCED_FACE('',(#1900),#1906,.T.);
#1900 = FACE_BOUND('',#1901,.T.);
#1901 = EDGE_LOOP('',(#1902,#1903,#1904,#1905));
#1902 = ORIENTED_EDGE('',*,*,#1721,.F.);
#1903 = ORIENTED_EDGE('',*,*,#1789,.T.);
#1904 = ORIENTED_EDGE('',*,*,#1852,.T.);
#1905 = ORIENTED_EDGE('',*,*,#1838,.F.);
#1906 = PLANE('',#1907);
#1907 = AXIS2_PLACEMENT_3D('',#1908,#1909,#1910);
#1908 = CARTESIAN_POINT('',(0.8,-0.4,0.));
#1909 = DIRECTION('',(1.,0.,-0.));
#1910 = DIRECTION('',(0.,0.,1.));
#1911 = ADVANCED_FACE('',(#1912),#1917,.T.);
#1912 = FACE_BOUND('',#1913,.T.);
#1913 = EDGE_LOOP('',(#1914,#1915,#1916));
#1914 = ORIENTED_EDGE('',*,*,#1780,.F.);
#1915 = ORIENTED_EDGE('',*,*,#1756,.T.);
#1916 = ORIENTED_EDGE('',*,*,#1858,.F.);
#1917 = SPHERICAL_SURFACE('',#1918,2.4E-02);
#1918 = AXIS2_PLACEMENT_3D('',#1919,#1920,#1921);
#1919 = CARTESIAN_POINT('',(0.776,0.376,2.4E-02));
#1920 = DIRECTION('',(0.,0.,1.));
#1921 = DIRECTION('',(1.,0.,-0.));
#1922 = ADVANCED_FACE('',(#1923),#1928,.T.);
#1923 = FACE_BOUND('',#1924,.T.);
#1924 = EDGE_LOOP('',(#1925,#1926,#1927));
#1925 = ORIENTED_EDGE('',*,*,#1866,.F.);
#1926 = ORIENTED_EDGE('',*,*,#1805,.T.);
#1927 = ORIENTED_EDGE('',*,*,#1829,.F.);
#1928 = SPHERICAL_SURFACE('',#1929,2.4E-02);
#1929 = AXIS2_PLACEMENT_3D('',#1930,#1931,#1932);
#1930 = CARTESIAN_POINT('',(0.776,0.376,0.776));
#1931 = DIRECTION('',(0.,-1.,-0.));
#1932 = DIRECTION('',(1.,0.,0.));
#1933 = ( GEOMETRIC_REPRESENTATION_CONTEXT(3) 
GLOBAL_UNCERTAINTY_ASSIGNED_CONTEXT((#1937)) 
GLOBAL_UNIT_ASSIGNED_CONTEXT((#1934,#1935,#1936)) REPRESENTATION_CONTEXT
('Context #1','3D Context with UNIT and UNCERTAINTY') );
#1934 = ( LENGTH_UNIT() NAMED_UNIT(*) SI_UNIT(.MILLI.,.METRE.) );
#1935 = ( NAMED_UNIT(*) PLANE_ANGLE_UNIT() SI_UNIT($,.RADIAN.) );
#1936 = ( NAMED_UNIT(*) SI_UNIT($,.STERADIAN.) SOLID_ANGLE_UNIT() );
#1937 = UNCERTAINTY_MEASURE_WITH_UNIT(LENGTH_MEASURE(1.E-07),#1934,
  'distance_accuracy_value','confusion accuracy');
#1938 = CONTEXT_DEPENDENT_SHAPE_REPRESENTATION(#1939,#1941);
#1939 = ( REPRESENTATION_RELATIONSHIP('','',#1314,#10) 
REPRESENTATION_RELATIONSHIP_WITH_TRANSFORMATION(#1940) 
SHAPE_REPRESENTATION_RELATIONSHIP() );
#1940 = ITEM_DEFINED_TRANSFORMATION('','',#11,#23);
#1941 = PRODUCT_DEFINITION_SHAPE('Placement','Placement of an item',
  #1942);
#1942 = NEXT_ASSEMBLY_USAGE_OCCURRENCE('9','Termination_2','',#5,#1309,$
  );
#1943 = PRODUCT_RELATED_PRODUCT_CATEGORY('part',$,(#1311));
#1944 = MECHANICAL_DESIGN_GEOMETRIC_PRESENTATION_REPRESENTATION('',(
    #1945),#1933);
#1945 = STYLED_ITEM('color',(#1946),#1315);
#1946 = PRESENTATION_STYLE_ASSIGNMENT((#1947,#1953));
#1947 = SURFACE_STYLE_USAGE(.BOTH.,#1948);
#1948 = SURFACE_SIDE_STYLE('',(#1949));
#1949 = SURFACE_STYLE_FILL_AREA(#1950);
#1950 = FILL_AREA_STYLE('',(#1951));
#1951 = FILL_AREA_STYLE_COLOUR('',#1952);
#1952 = COLOUR_RGB('',0.699999984889,0.720000023499,0.750000000934);
#1953 = CURVE_STYLE('',#1954,POSITIVE_LENGTH_MEASURE(0.1),#1952);
#1954 = DRAUGHTING_PRE_DEFINED_CURVE_FONT('continuous');
#1955 = MECHANICAL_DESIGN_GEOMETRIC_PRESENTATION_REPRESENTATION('',(
    #1956),#1296);
#1956 = STYLED_ITEM('color',(#1957),#678);
#1957 = PRESENTATION_STYLE_ASSIGNMENT((#1958,#1963));
#1958 = SURFACE_STYLE_USAGE(.BOTH.,#1959);
#1959 = SURFACE_SIDE_STYLE('',(#1960));
#1960 = SURFACE_STYLE_FILL_AREA(#1961);
#1961 = FILL_AREA_STYLE('',(#1962));
#1962 = FILL_AREA_STYLE_COLOUR('',#1952);
#1963 = CURVE_STYLE('',#1964,POSITIVE_LENGTH_MEASURE(0.1),#1952);
#1964 = DRAUGHTING_PRE_DEFINED_CURVE_FONT('continuous');
#1965 = MECHANICAL_DESIGN_GEOMETRIC_PRESENTATION_REPRESENTATION('',(
    #1966),#659);
#1966 = STYLED_ITEM('color',(#1967),#41);
#1967 = PRESENTATION_STYLE_ASSIGNMENT((#1968,#1974));
#1968 = SURFACE_STYLE_USAGE(.BOTH.,#1969);
#1969 = SURFACE_SIDE_STYLE('',(#1970));
#1970 = SURFACE_STYLE_FILL_AREA(#1971);
#1971 = FILL_AREA_STYLE('',(#1972));
#1972 = FILL_AREA_STYLE_COLOUR('',#1973);
#1973 = COLOUR_RGB('',0.720000023499,0.610000008801,0.430000007837);
#1974 = CURVE_STYLE('',#1975,POSITIVE_LENGTH_MEASURE(0.1),#1973);
#1975 = DRAUGHTING_PRE_DEFINED_CURVE_FONT('continuous');
ENDSEC;
END-ISO-10303-21;
