ISO-10303-21;
HEADER;
FILE_DESCRIPTION(('FreeCAD Model'),'2;1');
FILE_NAME('Open CASCADE Shape Model','2026-10-03T19:11:30',('Author'),(
    ''),'Open CASCADE STEP processor 7.8','FreeCAD','Unknown');
FILE_SCHEMA(('AUTOMOTIVE_DESIGN { 1 0 10303 214 1 1 1 1 }'));
ENDSEC;
DATA;
#1 = APPLICATION_PROTOCOL_DEFINITION('international standard',
  'automotive_design',2000,#2);
#2 = APPLICATION_CONTEXT(
  'core data for automotive mechanical design processes');
#3 = SHAPE_DEFINITION_REPRESENTATION(#4,#10);
#4 = PRODUCT_DEFINITION_SHAPE('','',#5);
#5 = PRODUCT_DEFINITION('design','',#6,#9);
#6 = PRODUCT_DEFINITION_FORMATION('','',#7);
#7 = PRODUCT('Passive9','Passive9','',(#8));
#8 = PRODUCT_CONTEXT('',#2,'mechanical');
#9 = PRODUCT_DEFINITION_CONTEXT('part definition',#2,'design');
#10 = SHAPE_REPRESENTATION('',(#11,#15,#19,#23,#27,#31,#35),#39);
#11 = AXIS2_PLACEMENT_3D('',#12,#13,#14);
#12 = CARTESIAN_POINT('',(0.,0.,0.));
#13 = DIRECTION('',(0.,0.,1.));
#14 = DIRECTION('',(1.,0.,-0.));
#15 = AXIS2_PLACEMENT_3D('',#16,#17,#18);
#16 = CARTESIAN_POINT('',(0.,0.,0.));
#17 = DIRECTION('',(0.,0.,1.));
#18 = DIRECTION('',(1.,0.,0.));
#19 = AXIS2_PLACEMENT_3D('',#20,#21,#22);
#20 = CARTESIAN_POINT('',(0.,0.,0.));
#21 = DIRECTION('',(0.,0.,1.));
#22 = DIRECTION('',(1.,0.,0.));
#23 = AXIS2_PLACEMENT_3D('',#24,#25,#26);
#24 = CARTESIAN_POINT('',(0.,0.,0.));
#25 = DIRECTION('',(0.,0.,1.));
#26 = DIRECTION('',(1.,0.,0.));
#27 = AXIS2_PLACEMENT_3D('',#28,#29,#30);
#28 = CARTESIAN_POINT('',(0.,0.,0.));
#29 = DIRECTION('',(0.,0.,1.));
#30 = DIRECTION('',(1.,0.,0.));
#31 = AXIS2_PLACEMENT_3D('',#32,#33,#34);
#32 = CARTESIAN_POINT('',(0.,0.,0.));
#33 = DIRECTION('',(0.,0.,1.));
#34 = DIRECTION('',(1.,0.,0.));
#35 = AXIS2_PLACEMENT_3D('',#36,#37,#38);
#36 = CARTESIAN_POINT('',(0.,0.,0.));
#37 = DIRECTION('',(0.,0.,1.));
#38 = DIRECTION('',(1.,0.,0.));
#39 = ( GEOMETRIC_REPRESENTATION_CONTEXT(3) 
GLOBAL_UNCERTAINTY_ASSIGNED_CONTEXT((#43)) GLOBAL_UNIT_ASSIGNED_CONTEXT(
(#40,#41,#42)) REPRESENTATION_CONTEXT('Context #1',
  '3D Context with UNIT and UNCERTAINTY') );
#40 = ( LENGTH_UNIT() NAMED_UNIT(*) SI_UNIT(.MILLI.,.METRE.) );
#41 = ( NAMED_UNIT(*) PLANE_ANGLE_UNIT() SI_UNIT($,.RADIAN.) );
#42 = ( NAMED_UNIT(*) SI_UNIT($,.STERADIAN.) SOLID_ANGLE_UNIT() );
#43 = UNCERTAINTY_MEASURE_WITH_UNIT(LENGTH_MEASURE(1.E-07),#40,
  'distance_accuracy_value','confusion accuracy');
#44 = PRODUCT_RELATED_PRODUCT_CATEGORY('part',$,(#7));
#45 = SHAPE_DEFINITION_REPRESENTATION(#46,#52);
#46 = PRODUCT_DEFINITION_SHAPE('','',#47);
#47 = PRODUCT_DEFINITION('design','',#48,#51);
#48 = PRODUCT_DEFINITION_FORMATION('','',#49);
#49 = PRODUCT('Violet_sleeved_can','Violet_sleeved_can','',(#50));
#50 = PRODUCT_CONTEXT('',#2,'mechanical');
#51 = PRODUCT_DEFINITION_CONTEXT('part definition',#2,'design');
#52 = ADVANCED_BREP_SHAPE_REPRESENTATION('',(#11,#53),#402);
#53 = MANIFOLD_SOLID_BREP('',#54);
#54 = CLOSED_SHELL('',(#55,#147,#167,#209,#233,#268,#277,#294,#319,#336,
    #348,#368,#393));
#55 = ADVANCED_FACE('',(#56),#142,.T.);
#56 = FACE_BOUND('',#57,.T.);
#57 = EDGE_LOOP('',(#58,#67,#75,#84,#92,#101,#109,#116,#117,#126,#134,
    #141));
#58 = ORIENTED_EDGE('',*,*,#59,.T.);
#59 = EDGE_CURVE('',#60,#60,#62,.T.);
#60 = VERTEX_POINT('',#61);
#61 = CARTESIAN_POINT('',(4.4,-7.715274834628E-16,0.85));
#62 = CIRCLE('',#63,3.15);
#63 = AXIS2_PLACEMENT_3D('',#64,#65,#66);
#64 = CARTESIAN_POINT('',(1.25,0.,0.85));
#65 = DIRECTION('',(0.,0.,1.));
#66 = DIRECTION('',(1.,0.,-0.));
#67 = ORIENTED_EDGE('',*,*,#68,.T.);
#68 = EDGE_CURVE('',#60,#69,#71,.T.);
#69 = VERTEX_POINT('',#70);
#70 = CARTESIAN_POINT('',(4.4,7.955029403128E-14,1.1));
#71 = LINE('',#72,#73);
#72 = CARTESIAN_POINT('',(4.4,-7.715274834628E-16,0.1));
#73 = VECTOR('',#74,1.);
#74 = DIRECTION('',(0.,0.,1.));
#75 = ORIENTED_EDGE('',*,*,#76,.F.);
#76 = EDGE_CURVE('',#77,#69,#79,.T.);
#77 = VERTEX_POINT('',#78);
#78 = CARTESIAN_POINT('',(3.977980021921,-1.575,1.1));
#79 = CIRCLE('',#80,3.15);
#80 = AXIS2_PLACEMENT_3D('',#81,#82,#83);
#81 = CARTESIAN_POINT('',(1.25,0.,1.1));
#82 = DIRECTION('',(-0.,0.,1.));
#83 = DIRECTION('',(0.866025403784,-0.5,0.));
#84 = ORIENTED_EDGE('',*,*,#85,.T.);
#85 = EDGE_CURVE('',#77,#86,#88,.T.);
#86 = VERTEX_POINT('',#87);
#87 = CARTESIAN_POINT('',(3.977980021921,-1.575,9.9));
#88 = LINE('',#89,#90);
#89 = CARTESIAN_POINT('',(3.977980021921,-1.575,1.1));
#90 = VECTOR('',#91,1.);
#91 = DIRECTION('',(0.,0.,1.));
#92 = ORIENTED_EDGE('',*,*,#93,.T.);
#93 = EDGE_CURVE('',#86,#94,#96,.T.);
#94 = VERTEX_POINT('',#95);
#95 = CARTESIAN_POINT('',(4.4,7.955029403128E-14,9.9));
#96 = CIRCLE('',#97,3.15);
#97 = AXIS2_PLACEMENT_3D('',#98,#99,#100);
#98 = CARTESIAN_POINT('',(1.25,0.,9.9));
#99 = DIRECTION('',(-0.,0.,1.));
#100 = DIRECTION('',(0.866025403784,-0.5,0.));
#101 = ORIENTED_EDGE('',*,*,#102,.T.);
#102 = EDGE_CURVE('',#94,#103,#105,.T.);
#103 = VERTEX_POINT('',#104);
#104 = CARTESIAN_POINT('',(4.4,-7.715274834628E-16,10.9));
#105 = LINE('',#106,#107);
#106 = CARTESIAN_POINT('',(4.4,-7.715274834628E-16,0.1));
#107 = VECTOR('',#108,1.);
#108 = DIRECTION('',(0.,0.,1.));
#109 = ORIENTED_EDGE('',*,*,#110,.F.);
#110 = EDGE_CURVE('',#103,#103,#111,.T.);
#111 = CIRCLE('',#112,3.15);
#112 = AXIS2_PLACEMENT_3D('',#113,#114,#115);
#113 = CARTESIAN_POINT('',(1.25,0.,10.9));
#114 = DIRECTION('',(0.,0.,1.));
#115 = DIRECTION('',(1.,0.,-0.));
#116 = ORIENTED_EDGE('',*,*,#102,.F.);
#117 = ORIENTED_EDGE('',*,*,#118,.T.);
#118 = EDGE_CURVE('',#94,#119,#121,.T.);
#119 = VERTEX_POINT('',#120);
#120 = CARTESIAN_POINT('',(3.977980021921,1.575,9.9));
#121 = CIRCLE('',#122,3.15);
#122 = AXIS2_PLACEMENT_3D('',#123,#124,#125);
#123 = CARTESIAN_POINT('',(1.25,0.,9.9));
#124 = DIRECTION('',(-0.,0.,1.));
#125 = DIRECTION('',(0.866025403784,-0.5,0.));
#126 = ORIENTED_EDGE('',*,*,#127,.F.);
#127 = EDGE_CURVE('',#128,#119,#130,.T.);
#128 = VERTEX_POINT('',#129);
#129 = CARTESIAN_POINT('',(3.977980021921,1.575,1.1));
#130 = LINE('',#131,#132);
#131 = CARTESIAN_POINT('',(3.977980021921,1.575,1.1));
#132 = VECTOR('',#133,1.);
#133 = DIRECTION('',(0.,0.,1.));
#134 = ORIENTED_EDGE('',*,*,#135,.F.);
#135 = EDGE_CURVE('',#69,#128,#136,.T.);
#136 = CIRCLE('',#137,3.15);
#137 = AXIS2_PLACEMENT_3D('',#138,#139,#140);
#138 = CARTESIAN_POINT('',(1.25,0.,1.1));
#139 = DIRECTION('',(-0.,0.,1.));
#140 = DIRECTION('',(0.866025403784,-0.5,0.));
#141 = ORIENTED_EDGE('',*,*,#68,.F.);
#142 = CYLINDRICAL_SURFACE('',#143,3.15);
#143 = AXIS2_PLACEMENT_3D('',#144,#145,#146);
#144 = CARTESIAN_POINT('',(1.25,0.,0.1));
#145 = DIRECTION('',(0.,0.,1.));
#146 = DIRECTION('',(1.,0.,-0.));
#147 = ADVANCED_FACE('',(#148,#151),#162,.F.);
#148 = FACE_BOUND('',#149,.F.);
#149 = EDGE_LOOP('',(#150));
#150 = ORIENTED_EDGE('',*,*,#59,.T.);
#151 = FACE_BOUND('',#152,.F.);
#152 = EDGE_LOOP('',(#153));
#153 = ORIENTED_EDGE('',*,*,#154,.F.);
#154 = EDGE_CURVE('',#155,#155,#157,.T.);
#155 = VERTEX_POINT('',#156);
#156 = CARTESIAN_POINT('',(4.26,-7.372373730867E-16,0.85));
#157 = CIRCLE('',#158,3.01);
#158 = AXIS2_PLACEMENT_3D('',#159,#160,#161);
#159 = CARTESIAN_POINT('',(1.25,0.,0.85));
#160 = DIRECTION('',(0.,0.,1.));
#161 = DIRECTION('',(1.,0.,-0.));
#162 = PLANE('',#163);
#163 = AXIS2_PLACEMENT_3D('',#164,#165,#166);
#164 = CARTESIAN_POINT('',(1.25,0.,0.85));
#165 = DIRECTION('',(0.,0.,1.));
#166 = DIRECTION('',(1.,0.,-0.));
#167 = ADVANCED_FACE('',(#168),#204,.T.);
#168 = FACE_BOUND('',#169,.T.);
#169 = EDGE_LOOP('',(#170,#171,#172,#180,#189,#198));
#170 = ORIENTED_EDGE('',*,*,#76,.T.);
#171 = ORIENTED_EDGE('',*,*,#135,.T.);
#172 = ORIENTED_EDGE('',*,*,#173,.F.);
#173 = EDGE_CURVE('',#174,#128,#176,.T.);
#174 = VERTEX_POINT('',#175);
#175 = CARTESIAN_POINT('',(3.967587717076,1.569,1.1));
#176 = LINE('',#177,#178);
#177 = CARTESIAN_POINT('',(1.25,0.,1.1));
#178 = VECTOR('',#179,1.);
#179 = DIRECTION('',(0.866025403784,0.5,0.));
#180 = ORIENTED_EDGE('',*,*,#181,.F.);
#181 = EDGE_CURVE('',#182,#174,#184,.T.);
#182 = VERTEX_POINT('',#183);
#183 = CARTESIAN_POINT('',(4.388,-7.685883311449E-16,1.1));
#184 = CIRCLE('',#185,3.138);
#185 = AXIS2_PLACEMENT_3D('',#186,#187,#188);
#186 = CARTESIAN_POINT('',(1.25,0.,1.1));
#187 = DIRECTION('',(0.,0.,1.));
#188 = DIRECTION('',(1.,0.,-0.));
#189 = ORIENTED_EDGE('',*,*,#190,.F.);
#190 = EDGE_CURVE('',#191,#182,#193,.T.);
#191 = VERTEX_POINT('',#192);
#192 = CARTESIAN_POINT('',(3.967587717076,-1.569,1.1));
#193 = CIRCLE('',#194,3.138);
#194 = AXIS2_PLACEMENT_3D('',#195,#196,#197);
#195 = CARTESIAN_POINT('',(1.25,0.,1.1));
#196 = DIRECTION('',(0.,0.,1.));
#197 = DIRECTION('',(1.,0.,-0.));
#198 = ORIENTED_EDGE('',*,*,#199,.T.);
#199 = EDGE_CURVE('',#191,#77,#200,.T.);
#200 = LINE('',#201,#202);
#201 = CARTESIAN_POINT('',(1.25,0.,1.1));
#202 = VECTOR('',#203,1.);
#203 = DIRECTION('',(0.866025403784,-0.5,0.));
#204 = PLANE('',#205);
#205 = AXIS2_PLACEMENT_3D('',#206,#207,#208);
#206 = CARTESIAN_POINT('',(1.25,0.,1.1));
#207 = DIRECTION('',(0.,0.,1.));
#208 = DIRECTION('',(0.866025403784,-0.5,0.));
#209 = ADVANCED_FACE('',(#210),#228,.T.);
#210 = FACE_BOUND('',#211,.T.);
#211 = EDGE_LOOP('',(#212,#220,#226,#227));
#212 = ORIENTED_EDGE('',*,*,#213,.F.);
#213 = EDGE_CURVE('',#214,#119,#216,.T.);
#214 = VERTEX_POINT('',#215);
#215 = CARTESIAN_POINT('',(3.967587717076,1.569,9.9));
#216 = LINE('',#217,#218);
#217 = CARTESIAN_POINT('',(1.25,0.,9.9));
#218 = VECTOR('',#219,1.);
#219 = DIRECTION('',(0.866025403784,0.5,0.));
#220 = ORIENTED_EDGE('',*,*,#221,.F.);
#221 = EDGE_CURVE('',#174,#214,#222,.T.);
#222 = LINE('',#223,#224);
#223 = CARTESIAN_POINT('',(3.967587717076,1.569,1.1));
#224 = VECTOR('',#225,1.);
#225 = DIRECTION('',(0.,0.,1.));
#226 = ORIENTED_EDGE('',*,*,#173,.T.);
#227 = ORIENTED_EDGE('',*,*,#127,.T.);
#228 = PLANE('',#229);
#229 = AXIS2_PLACEMENT_3D('',#230,#231,#232);
#230 = CARTESIAN_POINT('',(1.25,0.,1.1));
#231 = DIRECTION('',(0.5,-0.866025403784,0.));
#232 = DIRECTION('',(0.866025403784,0.5,0.));
#233 = ADVANCED_FACE('',(#234),#263,.F.);
#234 = FACE_BOUND('',#235,.F.);
#235 = EDGE_LOOP('',(#236,#237,#238,#239,#248,#257));
#236 = ORIENTED_EDGE('',*,*,#93,.T.);
#237 = ORIENTED_EDGE('',*,*,#118,.T.);
#238 = ORIENTED_EDGE('',*,*,#213,.F.);
#239 = ORIENTED_EDGE('',*,*,#240,.F.);
#240 = EDGE_CURVE('',#241,#214,#243,.T.);
#241 = VERTEX_POINT('',#242);
#242 = CARTESIAN_POINT('',(4.388,-7.685883311449E-16,9.9));
#243 = CIRCLE('',#244,3.138);
#244 = AXIS2_PLACEMENT_3D('',#245,#246,#247);
#245 = CARTESIAN_POINT('',(1.25,0.,9.9));
#246 = DIRECTION('',(0.,0.,1.));
#247 = DIRECTION('',(1.,0.,-0.));
#248 = ORIENTED_EDGE('',*,*,#249,.F.);
#249 = EDGE_CURVE('',#250,#241,#252,.T.);
#250 = VERTEX_POINT('',#251);
#251 = CARTESIAN_POINT('',(3.967587717076,-1.569,9.9));
#252 = CIRCLE('',#253,3.138);
#253 = AXIS2_PLACEMENT_3D('',#254,#255,#256);
#254 = CARTESIAN_POINT('',(1.25,0.,9.9));
#255 = DIRECTION('',(0.,0.,1.));
#256 = DIRECTION('',(1.,0.,-0.));
#257 = ORIENTED_EDGE('',*,*,#258,.T.);
#258 = EDGE_CURVE('',#250,#86,#259,.T.);
#259 = LINE('',#260,#261);
#260 = CARTESIAN_POINT('',(1.25,0.,9.9));
#261 = VECTOR('',#262,1.);
#262 = DIRECTION('',(0.866025403784,-0.5,0.));
#263 = PLANE('',#264);
#264 = AXIS2_PLACEMENT_3D('',#265,#266,#267);
#265 = CARTESIAN_POINT('',(1.25,0.,9.9));
#266 = DIRECTION('',(0.,0.,1.));
#267 = DIRECTION('',(0.866025403784,-0.5,0.));
#268 = ADVANCED_FACE('',(#269),#272,.T.);
#269 = FACE_BOUND('',#270,.T.);
#270 = EDGE_LOOP('',(#271));
#271 = ORIENTED_EDGE('',*,*,#110,.T.);
#272 = PLANE('',#273);
#273 = AXIS2_PLACEMENT_3D('',#274,#275,#276);
#274 = CARTESIAN_POINT('',(1.25,0.,10.9));
#275 = DIRECTION('',(0.,0.,1.));
#276 = DIRECTION('',(1.,0.,-0.));
#277 = ADVANCED_FACE('',(#278),#289,.F.);
#278 = FACE_BOUND('',#279,.F.);
#279 = EDGE_LOOP('',(#280,#286,#287,#288));
#280 = ORIENTED_EDGE('',*,*,#281,.F.);
#281 = EDGE_CURVE('',#191,#250,#282,.T.);
#282 = LINE('',#283,#284);
#283 = CARTESIAN_POINT('',(3.967587717076,-1.569,1.1));
#284 = VECTOR('',#285,1.);
#285 = DIRECTION('',(0.,0.,1.));
#286 = ORIENTED_EDGE('',*,*,#199,.T.);
#287 = ORIENTED_EDGE('',*,*,#85,.T.);
#288 = ORIENTED_EDGE('',*,*,#258,.F.);
#289 = PLANE('',#290);
#290 = AXIS2_PLACEMENT_3D('',#291,#292,#293);
#291 = CARTESIAN_POINT('',(1.25,0.,1.1));
#292 = DIRECTION('',(-0.5,-0.866025403784,0.));
#293 = DIRECTION('',(0.866025403784,-0.5,0.));
#294 = ADVANCED_FACE('',(#295),#314,.T.);
#295 = FACE_BOUND('',#296,.T.);
#296 = EDGE_LOOP('',(#297,#298,#306,#313));
#297 = ORIENTED_EDGE('',*,*,#154,.F.);
#298 = ORIENTED_EDGE('',*,*,#299,.F.);
#299 = EDGE_CURVE('',#300,#155,#302,.T.);
#300 = VERTEX_POINT('',#301);
#301 = CARTESIAN_POINT('',(4.26,-7.372373730867E-16,0.55));
#302 = LINE('',#303,#304);
#303 = CARTESIAN_POINT('',(4.26,-7.372373730867E-16,0.55));
#304 = VECTOR('',#305,1.);
#305 = DIRECTION('',(0.,0.,1.));
#306 = ORIENTED_EDGE('',*,*,#307,.T.);
#307 = EDGE_CURVE('',#300,#300,#308,.T.);
#308 = CIRCLE('',#309,3.01);
#309 = AXIS2_PLACEMENT_3D('',#310,#311,#312);
#310 = CARTESIAN_POINT('',(1.25,0.,0.55));
#311 = DIRECTION('',(0.,0.,1.));
#312 = DIRECTION('',(1.,0.,-0.));
#313 = ORIENTED_EDGE('',*,*,#299,.T.);
#314 = CYLINDRICAL_SURFACE('',#315,3.01);
#315 = AXIS2_PLACEMENT_3D('',#316,#317,#318);
#316 = CARTESIAN_POINT('',(1.25,0.,0.55));
#317 = DIRECTION('',(0.,0.,1.));
#318 = DIRECTION('',(1.,0.,-0.));
#319 = ADVANCED_FACE('',(#320),#331,.T.);
#320 = FACE_BOUND('',#321,.T.);
#321 = EDGE_LOOP('',(#322,#328,#329,#330));
#322 = ORIENTED_EDGE('',*,*,#323,.T.);
#323 = EDGE_CURVE('',#182,#241,#324,.T.);
#324 = LINE('',#325,#326);
#325 = CARTESIAN_POINT('',(4.388,-7.685883311449E-16,1.1));
#326 = VECTOR('',#327,1.);
#327 = DIRECTION('',(0.,0.,1.));
#328 = ORIENTED_EDGE('',*,*,#249,.F.);
#329 = ORIENTED_EDGE('',*,*,#281,.F.);
#330 = ORIENTED_EDGE('',*,*,#190,.T.);
#331 = CYLINDRICAL_SURFACE('',#332,3.138);
#332 = AXIS2_PLACEMENT_3D('',#333,#334,#335);
#333 = CARTESIAN_POINT('',(1.25,0.,1.1));
#334 = DIRECTION('',(0.,0.,1.));
#335 = DIRECTION('',(1.,0.,-0.));
#336 = ADVANCED_FACE('',(#337),#343,.T.);
#337 = FACE_BOUND('',#338,.T.);
#338 = EDGE_LOOP('',(#339,#340,#341,#342));
#339 = ORIENTED_EDGE('',*,*,#240,.F.);
#340 = ORIENTED_EDGE('',*,*,#323,.F.);
#341 = ORIENTED_EDGE('',*,*,#181,.T.);
#342 = ORIENTED_EDGE('',*,*,#221,.T.);
#343 = CYLINDRICAL_SURFACE('',#344,3.138);
#344 = AXIS2_PLACEMENT_3D('',#345,#346,#347);
#345 = CARTESIAN_POINT('',(1.25,0.,1.1));
#346 = DIRECTION('',(0.,0.,1.));
#347 = DIRECTION('',(1.,0.,-0.));
#348 = ADVANCED_FACE('',(#349,#360),#363,.T.);
#349 = FACE_BOUND('',#350,.T.);
#350 = EDGE_LOOP('',(#351));
#351 = ORIENTED_EDGE('',*,*,#352,.T.);
#352 = EDGE_CURVE('',#353,#353,#355,.T.);
#353 = VERTEX_POINT('',#354);
#354 = CARTESIAN_POINT('',(4.4,-7.715274834628E-16,0.55));
#355 = CIRCLE('',#356,3.15);
#356 = AXIS2_PLACEMENT_3D('',#357,#358,#359);
#357 = CARTESIAN_POINT('',(1.25,0.,0.55));
#358 = DIRECTION('',(0.,0.,1.));
#359 = DIRECTION('',(1.,0.,-0.));
#360 = FACE_BOUND('',#361,.T.);
#361 = EDGE_LOOP('',(#362));
#362 = ORIENTED_EDGE('',*,*,#307,.F.);
#363 = PLANE('',#364);
#364 = AXIS2_PLACEMENT_3D('',#365,#366,#367);
#365 = CARTESIAN_POINT('',(1.25,0.,0.55));
#366 = DIRECTION('',(0.,0.,1.));
#367 = DIRECTION('',(1.,0.,-0.));
#368 = ADVANCED_FACE('',(#369),#388,.T.);
#369 = FACE_BOUND('',#370,.T.);
#370 = EDGE_LOOP('',(#371,#372,#380,#387));
#371 = ORIENTED_EDGE('',*,*,#352,.F.);
#372 = ORIENTED_EDGE('',*,*,#373,.F.);
#373 = EDGE_CURVE('',#374,#353,#376,.T.);
#374 = VERTEX_POINT('',#375);
#375 = CARTESIAN_POINT('',(4.4,-7.715274834628E-16,0.1));
#376 = LINE('',#377,#378);
#377 = CARTESIAN_POINT('',(4.4,-7.715274834628E-16,0.1));
#378 = VECTOR('',#379,1.);
#379 = DIRECTION('',(0.,0.,1.));
#380 = ORIENTED_EDGE('',*,*,#381,.T.);
#381 = EDGE_CURVE('',#374,#374,#382,.T.);
#382 = CIRCLE('',#383,3.15);
#383 = AXIS2_PLACEMENT_3D('',#384,#385,#386);
#384 = CARTESIAN_POINT('',(1.25,0.,0.1));
#385 = DIRECTION('',(0.,0.,1.));
#386 = DIRECTION('',(1.,0.,-0.));
#387 = ORIENTED_EDGE('',*,*,#373,.T.);
#388 = CYLINDRICAL_SURFACE('',#389,3.15);
#389 = AXIS2_PLACEMENT_3D('',#390,#391,#392);
#390 = CARTESIAN_POINT('',(1.25,0.,0.1));
#391 = DIRECTION('',(0.,0.,1.));
#392 = DIRECTION('',(1.,0.,-0.));
#393 = ADVANCED_FACE('',(#394),#397,.F.);
#394 = FACE_BOUND('',#395,.T.);
#395 = EDGE_LOOP('',(#396));
#396 = ORIENTED_EDGE('',*,*,#381,.F.);
#397 = PLANE('',#398);
#398 = AXIS2_PLACEMENT_3D('',#399,#400,#401);
#399 = CARTESIAN_POINT('',(1.25,0.,0.1));
#400 = DIRECTION('',(0.,0.,1.));
#401 = DIRECTION('',(1.,0.,-0.));
#402 = ( GEOMETRIC_REPRESENTATION_CONTEXT(3) 
GLOBAL_UNCERTAINTY_ASSIGNED_CONTEXT((#406)) GLOBAL_UNIT_ASSIGNED_CONTEXT
((#403,#404,#405)) REPRESENTATION_CONTEXT('Context #1',
  '3D Context with UNIT and UNCERTAINTY') );
#403 = ( LENGTH_UNIT() NAMED_UNIT(*) SI_UNIT(.MILLI.,.METRE.) );
#404 = ( NAMED_UNIT(*) PLANE_ANGLE_UNIT() SI_UNIT($,.RADIAN.) );
#405 = ( NAMED_UNIT(*) SI_UNIT($,.STERADIAN.) SOLID_ANGLE_UNIT() );
#406 = UNCERTAINTY_MEASURE_WITH_UNIT(LENGTH_MEASURE(1.E-07),#403,
  'distance_accuracy_value','confusion accuracy');
#407 = CONTEXT_DEPENDENT_SHAPE_REPRESENTATION(#408,#410);
#408 = ( REPRESENTATION_RELATIONSHIP('','',#52,#10) 
REPRESENTATION_RELATIONSHIP_WITH_TRANSFORMATION(#409) 
SHAPE_REPRESENTATION_RELATIONSHIP() );
#409 = ITEM_DEFINED_TRANSFORMATION('','',#11,#15);
#410 = PRODUCT_DEFINITION_SHAPE('Placement','Placement of an item',#411
  );
#411 = NEXT_ASSEMBLY_USAGE_OCCURRENCE('34','Violet_sleeved_can','',#5,
  #47,$);
#412 = PRODUCT_RELATED_PRODUCT_CATEGORY('part',$,(#49));
#413 = SHAPE_DEFINITION_REPRESENTATION(#414,#420);
#414 = PRODUCT_DEFINITION_SHAPE('','',#415);
#415 = PRODUCT_DEFINITION('design','',#416,#419);
#416 = PRODUCT_DEFINITION_FORMATION('','',#417);
#417 = PRODUCT('Bottom_bung','Bottom_bung','',(#418));
#418 = PRODUCT_CONTEXT('',#2,'mechanical');
#419 = PRODUCT_DEFINITION_CONTEXT('part definition',#2,'design');
#420 = ADVANCED_BREP_SHAPE_REPRESENTATION('',(#11,#421),#474);
#421 = MANIFOLD_SOLID_BREP('',#422);
#422 = CLOSED_SHELL('',(#423,#456,#465));
#423 = ADVANCED_FACE('',(#424),#451,.T.);
#424 = FACE_BOUND('',#425,.T.);
#425 = EDGE_LOOP('',(#426,#435,#443,#450));
#426 = ORIENTED_EDGE('',*,*,#427,.F.);
#427 = EDGE_CURVE('',#428,#428,#430,.T.);
#428 = VERTEX_POINT('',#429);
#429 = CARTESIAN_POINT('',(4.28,-7.421359602833E-16,0.1));
#430 = CIRCLE('',#431,3.03);
#431 = AXIS2_PLACEMENT_3D('',#432,#433,#434);
#432 = CARTESIAN_POINT('',(1.25,0.,0.1));
#433 = DIRECTION('',(0.,0.,1.));
#434 = DIRECTION('',(1.,0.,-0.));
#435 = ORIENTED_EDGE('',*,*,#436,.F.);
#436 = EDGE_CURVE('',#437,#428,#439,.T.);
#437 = VERTEX_POINT('',#438);
#438 = CARTESIAN_POINT('',(4.28,-7.421359602833E-16,0.));
#439 = LINE('',#440,#441);
#440 = CARTESIAN_POINT('',(4.28,-7.421359602833E-16,0.));
#441 = VECTOR('',#442,1.);
#442 = DIRECTION('',(0.,0.,1.));
#443 = ORIENTED_EDGE('',*,*,#444,.T.);
#444 = EDGE_CURVE('',#437,#437,#445,.T.);
#445 = CIRCLE('',#446,3.03);
#446 = AXIS2_PLACEMENT_3D('',#447,#448,#449);
#447 = CARTESIAN_POINT('',(1.25,0.,0.));
#448 = DIRECTION('',(0.,0.,1.));
#449 = DIRECTION('',(1.,0.,-0.));
#450 = ORIENTED_EDGE('',*,*,#436,.T.);
#451 = CYLINDRICAL_SURFACE('',#452,3.03);
#452 = AXIS2_PLACEMENT_3D('',#453,#454,#455);
#453 = CARTESIAN_POINT('',(1.25,0.,0.));
#454 = DIRECTION('',(0.,0.,1.));
#455 = DIRECTION('',(1.,0.,-0.));
#456 = ADVANCED_FACE('',(#457),#460,.T.);
#457 = FACE_BOUND('',#458,.T.);
#458 = EDGE_LOOP('',(#459));
#459 = ORIENTED_EDGE('',*,*,#427,.T.);
#460 = PLANE('',#461);
#461 = AXIS2_PLACEMENT_3D('',#462,#463,#464);
#462 = CARTESIAN_POINT('',(1.25,0.,0.1));
#463 = DIRECTION('',(0.,0.,1.));
#464 = DIRECTION('',(1.,0.,-0.));
#465 = ADVANCED_FACE('',(#466),#469,.F.);
#466 = FACE_BOUND('',#467,.T.);
#467 = EDGE_LOOP('',(#468));
#468 = ORIENTED_EDGE('',*,*,#444,.F.);
#469 = PLANE('',#470);
#470 = AXIS2_PLACEMENT_3D('',#471,#472,#473);
#471 = CARTESIAN_POINT('',(1.25,0.,0.));
#472 = DIRECTION('',(0.,0.,1.));
#473 = DIRECTION('',(1.,0.,-0.));
#474 = ( GEOMETRIC_REPRESENTATION_CONTEXT(3) 
GLOBAL_UNCERTAINTY_ASSIGNED_CONTEXT((#478)) GLOBAL_UNIT_ASSIGNED_CONTEXT
((#475,#476,#477)) REPRESENTATION_CONTEXT('Context #1',
  '3D Context with UNIT and UNCERTAINTY') );
#475 = ( LENGTH_UNIT() NAMED_UNIT(*) SI_UNIT(.MILLI.,.METRE.) );
#476 = ( NAMED_UNIT(*) PLANE_ANGLE_UNIT() SI_UNIT($,.RADIAN.) );
#477 = ( NAMED_UNIT(*) SI_UNIT($,.STERADIAN.) SOLID_ANGLE_UNIT() );
#478 = UNCERTAINTY_MEASURE_WITH_UNIT(LENGTH_MEASURE(1.E-07),#475,
  'distance_accuracy_value','confusion accuracy');
#479 = CONTEXT_DEPENDENT_SHAPE_REPRESENTATION(#480,#482);
#480 = ( REPRESENTATION_RELATIONSHIP('','',#420,#10) 
REPRESENTATION_RELATIONSHIP_WITH_TRANSFORMATION(#481) 
SHAPE_REPRESENTATION_RELATIONSHIP() );
#481 = ITEM_DEFINED_TRANSFORMATION('','',#11,#19);
#482 = PRODUCT_DEFINITION_SHAPE('Placement','Placement of an item',#483
  );
#483 = NEXT_ASSEMBLY_USAGE_OCCURRENCE('35','Bottom_bung','',#5,#415,$);
#484 = PRODUCT_RELATED_PRODUCT_CATEGORY('part',$,(#417));
#485 = SHAPE_DEFINITION_REPRESENTATION(#486,#492);
#486 = PRODUCT_DEFINITION_SHAPE('','',#487);
#487 = PRODUCT_DEFINITION('design','',#488,#491);
#488 = PRODUCT_DEFINITION_FORMATION('','',#489);
#489 = PRODUCT('Top_lid','Top_lid','',(#490));
#490 = PRODUCT_CONTEXT('',#2,'mechanical');
#491 = PRODUCT_DEFINITION_CONTEXT('part definition',#2,'design');
#492 = ADVANCED_BREP_SHAPE_REPRESENTATION('',(#11,#493),#1012);
#493 = MANIFOLD_SOLID_BREP('',#494);
#494 = CLOSED_SHELL('',(#495,#528,#635,#644,#675,#699,#723,#747,#771,
    #795,#819,#843,#867,#891,#915,#932,#949,#966,#983,#1000));
#495 = ADVANCED_FACE('',(#496),#523,.T.);
#496 = FACE_BOUND('',#497,.T.);
#497 = EDGE_LOOP('',(#498,#507,#515,#522));
#498 = ORIENTED_EDGE('',*,*,#499,.F.);
#499 = EDGE_CURVE('',#500,#500,#502,.T.);
#500 = VERTEX_POINT('',#501);
#501 = CARTESIAN_POINT('',(4.28,-7.421359602833E-16,11.));
#502 = CIRCLE('',#503,3.03);
#503 = AXIS2_PLACEMENT_3D('',#504,#505,#506);
#504 = CARTESIAN_POINT('',(1.25,0.,11.));
#505 = DIRECTION('',(0.,0.,1.));
#506 = DIRECTION('',(1.,0.,-0.));
#507 = ORIENTED_EDGE('',*,*,#508,.F.);
#508 = EDGE_CURVE('',#509,#500,#511,.T.);
#509 = VERTEX_POINT('',#510);
#510 = CARTESIAN_POINT('',(4.28,-7.421359602833E-16,10.9));
#511 = LINE('',#512,#513);
#512 = CARTESIAN_POINT('',(4.28,-7.421359602833E-16,10.9));
#513 = VECTOR('',#514,1.);
#514 = DIRECTION('',(0.,0.,1.));
#515 = ORIENTED_EDGE('',*,*,#516,.T.);
#516 = EDGE_CURVE('',#509,#509,#517,.T.);
#517 = CIRCLE('',#518,3.03);
#518 = AXIS2_PLACEMENT_3D('',#519,#520,#521);
#519 = CARTESIAN_POINT('',(1.25,0.,10.9));
#520 = DIRECTION('',(0.,0.,1.));
#521 = DIRECTION('',(1.,0.,-0.));
#522 = ORIENTED_EDGE('',*,*,#508,.T.);
#523 = CYLINDRICAL_SURFACE('',#524,3.03);
#524 = AXIS2_PLACEMENT_3D('',#525,#526,#527);
#525 = CARTESIAN_POINT('',(1.25,0.,10.9));
#526 = DIRECTION('',(0.,0.,1.));
#527 = DIRECTION('',(1.,0.,-0.));
#528 = ADVANCED_FACE('',(#529,#532),#630,.T.);
#529 = FACE_BOUND('',#530,.T.);
#530 = EDGE_LOOP('',(#531));
#531 = ORIENTED_EDGE('',*,*,#499,.T.);
#532 = FACE_BOUND('',#533,.T.);
#533 = EDGE_LOOP('',(#534,#544,#552,#560,#568,#576,#584,#592,#600,#608,
    #616,#624));
#534 = ORIENTED_EDGE('',*,*,#535,.F.);
#535 = EDGE_CURVE('',#536,#538,#540,.T.);
#536 = VERTEX_POINT('',#537);
#537 = CARTESIAN_POINT('',(-0.64,-2.75E-02,11.));
#538 = VERTEX_POINT('',#539);
#539 = CARTESIAN_POINT('',(1.2225,-2.75E-02,11.));
#540 = LINE('',#541,#542);
#541 = CARTESIAN_POINT('',(-0.64,-2.75E-02,11.));
#542 = VECTOR('',#543,1.);
#543 = DIRECTION('',(1.,0.,-0.));
#544 = ORIENTED_EDGE('',*,*,#545,.T.);
#545 = EDGE_CURVE('',#536,#546,#548,.T.);
#546 = VERTEX_POINT('',#547);
#547 = CARTESIAN_POINT('',(-0.64,2.75E-02,11.));
#548 = LINE('',#549,#550);
#549 = CARTESIAN_POINT('',(-0.64,-2.75E-02,11.));
#550 = VECTOR('',#551,1.);
#551 = DIRECTION('',(-0.,1.,0.));
#552 = ORIENTED_EDGE('',*,*,#553,.T.);
#553 = EDGE_CURVE('',#546,#554,#556,.T.);
#554 = VERTEX_POINT('',#555);
#555 = CARTESIAN_POINT('',(1.2225,2.75E-02,11.));
#556 = LINE('',#557,#558);
#557 = CARTESIAN_POINT('',(-0.64,2.75E-02,11.));
#558 = VECTOR('',#559,1.);
#559 = DIRECTION('',(1.,0.,-0.));
#560 = ORIENTED_EDGE('',*,*,#561,.T.);
#561 = EDGE_CURVE('',#554,#562,#564,.T.);
#562 = VERTEX_POINT('',#563);
#563 = CARTESIAN_POINT('',(1.2225,1.89,11.));
#564 = LINE('',#565,#566);
#565 = CARTESIAN_POINT('',(1.2225,-1.89,11.));
#566 = VECTOR('',#567,1.);
#567 = DIRECTION('',(-0.,1.,0.));
#568 = ORIENTED_EDGE('',*,*,#569,.T.);
#569 = EDGE_CURVE('',#562,#570,#572,.T.);
#570 = VERTEX_POINT('',#571);
#571 = CARTESIAN_POINT('',(1.2775,1.89,11.));
#572 = LINE('',#573,#574);
#573 = CARTESIAN_POINT('',(1.2225,1.89,11.));
#574 = VECTOR('',#575,1.);
#575 = DIRECTION('',(1.,0.,-0.));
#576 = ORIENTED_EDGE('',*,*,#577,.F.);
#577 = EDGE_CURVE('',#578,#570,#580,.T.);
#578 = VERTEX_POINT('',#579);
#579 = CARTESIAN_POINT('',(1.2775,2.75E-02,11.));
#580 = LINE('',#581,#582);
#581 = CARTESIAN_POINT('',(1.2775,-1.89,11.));
#582 = VECTOR('',#583,1.);
#583 = DIRECTION('',(-0.,1.,0.));
#584 = ORIENTED_EDGE('',*,*,#585,.T.);
#585 = EDGE_CURVE('',#578,#586,#588,.T.);
#586 = VERTEX_POINT('',#587);
#587 = CARTESIAN_POINT('',(3.14,2.75E-02,11.));
#588 = LINE('',#589,#590);
#589 = CARTESIAN_POINT('',(-0.64,2.75E-02,11.));
#590 = VECTOR('',#591,1.);
#591 = DIRECTION('',(1.,0.,-0.));
#592 = ORIENTED_EDGE('',*,*,#593,.F.);
#593 = EDGE_CURVE('',#594,#586,#596,.T.);
#594 = VERTEX_POINT('',#595);
#595 = CARTESIAN_POINT('',(3.14,-2.75E-02,11.));
#596 = LINE('',#597,#598);
#597 = CARTESIAN_POINT('',(3.14,-2.75E-02,11.));
#598 = VECTOR('',#599,1.);
#599 = DIRECTION('',(-0.,1.,0.));
#600 = ORIENTED_EDGE('',*,*,#601,.F.);
#601 = EDGE_CURVE('',#602,#594,#604,.T.);
#602 = VERTEX_POINT('',#603);
#603 = CARTESIAN_POINT('',(1.2775,-2.75E-02,11.));
#604 = LINE('',#605,#606);
#605 = CARTESIAN_POINT('',(-0.64,-2.75E-02,11.));
#606 = VECTOR('',#607,1.);
#607 = DIRECTION('',(1.,0.,-0.));
#608 = ORIENTED_EDGE('',*,*,#609,.F.);
#609 = EDGE_CURVE('',#610,#602,#612,.T.);
#610 = VERTEX_POINT('',#611);
#611 = CARTESIAN_POINT('',(1.2775,-1.89,11.));
#612 = LINE('',#613,#614);
#613 = CARTESIAN_POINT('',(1.2775,-1.89,11.));
#614 = VECTOR('',#615,1.);
#615 = DIRECTION('',(-0.,1.,0.));
#616 = ORIENTED_EDGE('',*,*,#617,.F.);
#617 = EDGE_CURVE('',#618,#610,#620,.T.);
#618 = VERTEX_POINT('',#619);
#619 = CARTESIAN_POINT('',(1.2225,-1.89,11.));
#620 = LINE('',#621,#622);
#621 = CARTESIAN_POINT('',(1.2225,-1.89,11.));
#622 = VECTOR('',#623,1.);
#623 = DIRECTION('',(1.,0.,-0.));
#624 = ORIENTED_EDGE('',*,*,#625,.T.);
#625 = EDGE_CURVE('',#618,#538,#626,.T.);
#626 = LINE('',#627,#628);
#627 = CARTESIAN_POINT('',(1.2225,-1.89,11.));
#628 = VECTOR('',#629,1.);
#629 = DIRECTION('',(-0.,1.,0.));
#630 = PLANE('',#631);
#631 = AXIS2_PLACEMENT_3D('',#632,#633,#634);
#632 = CARTESIAN_POINT('',(1.25,0.,11.));
#633 = DIRECTION('',(0.,0.,1.));
#634 = DIRECTION('',(1.,0.,-0.));
#635 = ADVANCED_FACE('',(#636),#639,.F.);
#636 = FACE_BOUND('',#637,.T.);
#637 = EDGE_LOOP('',(#638));
#638 = ORIENTED_EDGE('',*,*,#516,.F.);
#639 = PLANE('',#640);
#640 = AXIS2_PLACEMENT_3D('',#641,#642,#643);
#641 = CARTESIAN_POINT('',(1.25,0.,10.9));
#642 = DIRECTION('',(0.,0.,1.));
#643 = DIRECTION('',(1.,0.,-0.));
#644 = ADVANCED_FACE('',(#645),#670,.T.);
#645 = FACE_BOUND('',#646,.T.);
#646 = EDGE_LOOP('',(#647,#657,#663,#664));
#647 = ORIENTED_EDGE('',*,*,#648,.F.);
#648 = EDGE_CURVE('',#649,#651,#653,.T.);
#649 = VERTEX_POINT('',#650);
#650 = CARTESIAN_POINT('',(-0.64,-2.75E-02,10.965));
#651 = VERTEX_POINT('',#652);
#652 = CARTESIAN_POINT('',(1.2225,-2.75E-02,10.965));
#653 = LINE('',#654,#655);
#654 = CARTESIAN_POINT('',(-0.64,-2.75E-02,10.965));
#655 = VECTOR('',#656,1.);
#656 = DIRECTION('',(1.,0.,-0.));
#657 = ORIENTED_EDGE('',*,*,#658,.T.);
#658 = EDGE_CURVE('',#649,#536,#659,.T.);
#659 = LINE('',#660,#661);
#660 = CARTESIAN_POINT('',(-0.64,-2.75E-02,10.965));
#661 = VECTOR('',#662,1.);
#662 = DIRECTION('',(0.,0.,1.));
#663 = ORIENTED_EDGE('',*,*,#535,.T.);
#664 = ORIENTED_EDGE('',*,*,#665,.T.);
#665 = EDGE_CURVE('',#538,#651,#666,.T.);
#666 = LINE('',#667,#668);
#667 = CARTESIAN_POINT('',(1.2225,-2.75E-02,10.965));
#668 = VECTOR('',#669,1.);
#669 = DIRECTION('',(-0.,0.,-1.));
#670 = PLANE('',#671);
#671 = AXIS2_PLACEMENT_3D('',#672,#673,#674);
#672 = CARTESIAN_POINT('',(-0.64,-2.75E-02,10.965));
#673 = DIRECTION('',(-0.,1.,0.));
#674 = DIRECTION('',(0.,0.,1.));
#675 = ADVANCED_FACE('',(#676),#694,.T.);
#676 = FACE_BOUND('',#677,.T.);
#677 = EDGE_LOOP('',(#678,#679,#687,#693));
#678 = ORIENTED_EDGE('',*,*,#625,.F.);
#679 = ORIENTED_EDGE('',*,*,#680,.F.);
#680 = EDGE_CURVE('',#681,#618,#683,.T.);
#681 = VERTEX_POINT('',#682);
#682 = CARTESIAN_POINT('',(1.2225,-1.89,10.965));
#683 = LINE('',#684,#685);
#684 = CARTESIAN_POINT('',(1.2225,-1.89,10.965));
#685 = VECTOR('',#686,1.);
#686 = DIRECTION('',(0.,0.,1.));
#687 = ORIENTED_EDGE('',*,*,#688,.T.);
#688 = EDGE_CURVE('',#681,#651,#689,.T.);
#689 = LINE('',#690,#691);
#690 = CARTESIAN_POINT('',(1.2225,-1.89,10.965));
#691 = VECTOR('',#692,1.);
#692 = DIRECTION('',(-0.,1.,0.));
#693 = ORIENTED_EDGE('',*,*,#665,.F.);
#694 = PLANE('',#695);
#695 = AXIS2_PLACEMENT_3D('',#696,#697,#698);
#696 = CARTESIAN_POINT('',(1.2225,-1.89,10.965));
#697 = DIRECTION('',(1.,0.,-0.));
#698 = DIRECTION('',(0.,0.,1.));
#699 = ADVANCED_FACE('',(#700),#718,.T.);
#700 = FACE_BOUND('',#701,.T.);
#701 = EDGE_LOOP('',(#702,#710,#711,#712));
#702 = ORIENTED_EDGE('',*,*,#703,.F.);
#703 = EDGE_CURVE('',#681,#704,#706,.T.);
#704 = VERTEX_POINT('',#705);
#705 = CARTESIAN_POINT('',(1.2775,-1.89,10.965));
#706 = LINE('',#707,#708);
#707 = CARTESIAN_POINT('',(1.2225,-1.89,10.965));
#708 = VECTOR('',#709,1.);
#709 = DIRECTION('',(1.,0.,-0.));
#710 = ORIENTED_EDGE('',*,*,#680,.T.);
#711 = ORIENTED_EDGE('',*,*,#617,.T.);
#712 = ORIENTED_EDGE('',*,*,#713,.F.);
#713 = EDGE_CURVE('',#704,#610,#714,.T.);
#714 = LINE('',#715,#716);
#715 = CARTESIAN_POINT('',(1.2775,-1.89,10.965));
#716 = VECTOR('',#717,1.);
#717 = DIRECTION('',(0.,0.,1.));
#718 = PLANE('',#719);
#719 = AXIS2_PLACEMENT_3D('',#720,#721,#722);
#720 = CARTESIAN_POINT('',(1.2225,-1.89,10.965));
#721 = DIRECTION('',(-0.,1.,0.));
#722 = DIRECTION('',(0.,0.,1.));
#723 = ADVANCED_FACE('',(#724),#742,.F.);
#724 = FACE_BOUND('',#725,.F.);
#725 = EDGE_LOOP('',(#726,#727,#728,#736));
#726 = ORIENTED_EDGE('',*,*,#609,.F.);
#727 = ORIENTED_EDGE('',*,*,#713,.F.);
#728 = ORIENTED_EDGE('',*,*,#729,.T.);
#729 = EDGE_CURVE('',#704,#730,#732,.T.);
#730 = VERTEX_POINT('',#731);
#731 = CARTESIAN_POINT('',(1.2775,-2.75E-02,10.965));
#732 = LINE('',#733,#734);
#733 = CARTESIAN_POINT('',(1.2775,-1.89,10.965));
#734 = VECTOR('',#735,1.);
#735 = DIRECTION('',(-0.,1.,0.));
#736 = ORIENTED_EDGE('',*,*,#737,.F.);
#737 = EDGE_CURVE('',#602,#730,#738,.T.);
#738 = LINE('',#739,#740);
#739 = CARTESIAN_POINT('',(1.2775,-2.75E-02,10.965));
#740 = VECTOR('',#741,1.);
#741 = DIRECTION('',(-0.,0.,-1.));
#742 = PLANE('',#743);
#743 = AXIS2_PLACEMENT_3D('',#744,#745,#746);
#744 = CARTESIAN_POINT('',(1.2775,-1.89,10.965));
#745 = DIRECTION('',(1.,0.,-0.));
#746 = DIRECTION('',(0.,0.,1.));
#747 = ADVANCED_FACE('',(#748),#766,.T.);
#748 = FACE_BOUND('',#749,.T.);
#749 = EDGE_LOOP('',(#750,#758,#759,#760));
#750 = ORIENTED_EDGE('',*,*,#751,.F.);
#751 = EDGE_CURVE('',#730,#752,#754,.T.);
#752 = VERTEX_POINT('',#753);
#753 = CARTESIAN_POINT('',(3.14,-2.75E-02,10.965));
#754 = LINE('',#755,#756);
#755 = CARTESIAN_POINT('',(-0.64,-2.75E-02,10.965));
#756 = VECTOR('',#757,1.);
#757 = DIRECTION('',(1.,0.,-0.));
#758 = ORIENTED_EDGE('',*,*,#737,.F.);
#759 = ORIENTED_EDGE('',*,*,#601,.T.);
#760 = ORIENTED_EDGE('',*,*,#761,.F.);
#761 = EDGE_CURVE('',#752,#594,#762,.T.);
#762 = LINE('',#763,#764);
#763 = CARTESIAN_POINT('',(3.14,-2.75E-02,10.965));
#764 = VECTOR('',#765,1.);
#765 = DIRECTION('',(0.,0.,1.));
#766 = PLANE('',#767);
#767 = AXIS2_PLACEMENT_3D('',#768,#769,#770);
#768 = CARTESIAN_POINT('',(-0.64,-2.75E-02,10.965));
#769 = DIRECTION('',(-0.,1.,0.));
#770 = DIRECTION('',(0.,0.,1.));
#771 = ADVANCED_FACE('',(#772),#790,.F.);
#772 = FACE_BOUND('',#773,.F.);
#773 = EDGE_LOOP('',(#774,#775,#783,#789));
#774 = ORIENTED_EDGE('',*,*,#761,.F.);
#775 = ORIENTED_EDGE('',*,*,#776,.T.);
#776 = EDGE_CURVE('',#752,#777,#779,.T.);
#777 = VERTEX_POINT('',#778);
#778 = CARTESIAN_POINT('',(3.14,2.75E-02,10.965));
#779 = LINE('',#780,#781);
#780 = CARTESIAN_POINT('',(3.14,-2.75E-02,10.965));
#781 = VECTOR('',#782,1.);
#782 = DIRECTION('',(-0.,1.,0.));
#783 = ORIENTED_EDGE('',*,*,#784,.T.);
#784 = EDGE_CURVE('',#777,#586,#785,.T.);
#785 = LINE('',#786,#787);
#786 = CARTESIAN_POINT('',(3.14,2.75E-02,10.965));
#787 = VECTOR('',#788,1.);
#788 = DIRECTION('',(0.,0.,1.));
#789 = ORIENTED_EDGE('',*,*,#593,.F.);
#790 = PLANE('',#791);
#791 = AXIS2_PLACEMENT_3D('',#792,#793,#794);
#792 = CARTESIAN_POINT('',(3.14,-2.75E-02,10.965));
#793 = DIRECTION('',(1.,0.,-0.));
#794 = DIRECTION('',(0.,0.,1.));
#795 = ADVANCED_FACE('',(#796),#814,.F.);
#796 = FACE_BOUND('',#797,.F.);
#797 = EDGE_LOOP('',(#798,#806,#812,#813));
#798 = ORIENTED_EDGE('',*,*,#799,.F.);
#799 = EDGE_CURVE('',#800,#777,#802,.T.);
#800 = VERTEX_POINT('',#801);
#801 = CARTESIAN_POINT('',(1.2775,2.75E-02,10.965));
#802 = LINE('',#803,#804);
#803 = CARTESIAN_POINT('',(-0.64,2.75E-02,10.965));
#804 = VECTOR('',#805,1.);
#805 = DIRECTION('',(1.,0.,-0.));
#806 = ORIENTED_EDGE('',*,*,#807,.F.);
#807 = EDGE_CURVE('',#578,#800,#808,.T.);
#808 = LINE('',#809,#810);
#809 = CARTESIAN_POINT('',(1.2775,2.75E-02,10.965));
#810 = VECTOR('',#811,1.);
#811 = DIRECTION('',(-0.,0.,-1.));
#812 = ORIENTED_EDGE('',*,*,#585,.T.);
#813 = ORIENTED_EDGE('',*,*,#784,.F.);
#814 = PLANE('',#815);
#815 = AXIS2_PLACEMENT_3D('',#816,#817,#818);
#816 = CARTESIAN_POINT('',(-0.64,2.75E-02,10.965));
#817 = DIRECTION('',(-0.,1.,0.));
#818 = DIRECTION('',(0.,0.,1.));
#819 = ADVANCED_FACE('',(#820),#838,.F.);
#820 = FACE_BOUND('',#821,.F.);
#821 = EDGE_LOOP('',(#822,#823,#824,#832));
#822 = ORIENTED_EDGE('',*,*,#577,.F.);
#823 = ORIENTED_EDGE('',*,*,#807,.T.);
#824 = ORIENTED_EDGE('',*,*,#825,.T.);
#825 = EDGE_CURVE('',#800,#826,#828,.T.);
#826 = VERTEX_POINT('',#827);
#827 = CARTESIAN_POINT('',(1.2775,1.89,10.965));
#828 = LINE('',#829,#830);
#829 = CARTESIAN_POINT('',(1.2775,-1.89,10.965));
#830 = VECTOR('',#831,1.);
#831 = DIRECTION('',(-0.,1.,0.));
#832 = ORIENTED_EDGE('',*,*,#833,.T.);
#833 = EDGE_CURVE('',#826,#570,#834,.T.);
#834 = LINE('',#835,#836);
#835 = CARTESIAN_POINT('',(1.2775,1.89,10.965));
#836 = VECTOR('',#837,1.);
#837 = DIRECTION('',(0.,0.,1.));
#838 = PLANE('',#839);
#839 = AXIS2_PLACEMENT_3D('',#840,#841,#842);
#840 = CARTESIAN_POINT('',(1.2775,-1.89,10.965));
#841 = DIRECTION('',(1.,0.,-0.));
#842 = DIRECTION('',(0.,0.,1.));
#843 = ADVANCED_FACE('',(#844),#862,.F.);
#844 = FACE_BOUND('',#845,.F.);
#845 = EDGE_LOOP('',(#846,#854,#860,#861));
#846 = ORIENTED_EDGE('',*,*,#847,.F.);
#847 = EDGE_CURVE('',#848,#826,#850,.T.);
#848 = VERTEX_POINT('',#849);
#849 = CARTESIAN_POINT('',(1.2225,1.89,10.965));
#850 = LINE('',#851,#852);
#851 = CARTESIAN_POINT('',(1.2225,1.89,10.965));
#852 = VECTOR('',#853,1.);
#853 = DIRECTION('',(1.,0.,-0.));
#854 = ORIENTED_EDGE('',*,*,#855,.T.);
#855 = EDGE_CURVE('',#848,#562,#856,.T.);
#856 = LINE('',#857,#858);
#857 = CARTESIAN_POINT('',(1.2225,1.89,10.965));
#858 = VECTOR('',#859,1.);
#859 = DIRECTION('',(0.,0.,1.));
#860 = ORIENTED_EDGE('',*,*,#569,.T.);
#861 = ORIENTED_EDGE('',*,*,#833,.F.);
#862 = PLANE('',#863);
#863 = AXIS2_PLACEMENT_3D('',#864,#865,#866);
#864 = CARTESIAN_POINT('',(1.2225,1.89,10.965));
#865 = DIRECTION('',(-0.,1.,0.));
#866 = DIRECTION('',(0.,0.,1.));
#867 = ADVANCED_FACE('',(#868),#886,.T.);
#868 = FACE_BOUND('',#869,.T.);
#869 = EDGE_LOOP('',(#870,#871,#879,#885));
#870 = ORIENTED_EDGE('',*,*,#561,.F.);
#871 = ORIENTED_EDGE('',*,*,#872,.T.);
#872 = EDGE_CURVE('',#554,#873,#875,.T.);
#873 = VERTEX_POINT('',#874);
#874 = CARTESIAN_POINT('',(1.2225,2.75E-02,10.965));
#875 = LINE('',#876,#877);
#876 = CARTESIAN_POINT('',(1.2225,2.75E-02,10.965));
#877 = VECTOR('',#878,1.);
#878 = DIRECTION('',(-0.,0.,-1.));
#879 = ORIENTED_EDGE('',*,*,#880,.T.);
#880 = EDGE_CURVE('',#873,#848,#881,.T.);
#881 = LINE('',#882,#883);
#882 = CARTESIAN_POINT('',(1.2225,-1.89,10.965));
#883 = VECTOR('',#884,1.);
#884 = DIRECTION('',(-0.,1.,0.));
#885 = ORIENTED_EDGE('',*,*,#855,.T.);
#886 = PLANE('',#887);
#887 = AXIS2_PLACEMENT_3D('',#888,#889,#890);
#888 = CARTESIAN_POINT('',(1.2225,-1.89,10.965));
#889 = DIRECTION('',(1.,0.,-0.));
#890 = DIRECTION('',(0.,0.,1.));
#891 = ADVANCED_FACE('',(#892),#910,.F.);
#892 = FACE_BOUND('',#893,.F.);
#893 = EDGE_LOOP('',(#894,#902,#908,#909));
#894 = ORIENTED_EDGE('',*,*,#895,.F.);
#895 = EDGE_CURVE('',#896,#873,#898,.T.);
#896 = VERTEX_POINT('',#897);
#897 = CARTESIAN_POINT('',(-0.64,2.75E-02,10.965));
#898 = LINE('',#899,#900);
#899 = CARTESIAN_POINT('',(-0.64,2.75E-02,10.965));
#900 = VECTOR('',#901,1.);
#901 = DIRECTION('',(1.,0.,-0.));
#902 = ORIENTED_EDGE('',*,*,#903,.T.);
#903 = EDGE_CURVE('',#896,#546,#904,.T.);
#904 = LINE('',#905,#906);
#905 = CARTESIAN_POINT('',(-0.64,2.75E-02,10.965));
#906 = VECTOR('',#907,1.);
#907 = DIRECTION('',(0.,0.,1.));
#908 = ORIENTED_EDGE('',*,*,#553,.T.);
#909 = ORIENTED_EDGE('',*,*,#872,.T.);
#910 = PLANE('',#911);
#911 = AXIS2_PLACEMENT_3D('',#912,#913,#914);
#912 = CARTESIAN_POINT('',(-0.64,2.75E-02,10.965));
#913 = DIRECTION('',(-0.,1.,0.));
#914 = DIRECTION('',(0.,0.,1.));
#915 = ADVANCED_FACE('',(#916),#927,.T.);
#916 = FACE_BOUND('',#917,.T.);
#917 = EDGE_LOOP('',(#918,#919,#925,#926));
#918 = ORIENTED_EDGE('',*,*,#658,.F.);
#919 = ORIENTED_EDGE('',*,*,#920,.T.);
#920 = EDGE_CURVE('',#649,#896,#921,.T.);
#921 = LINE('',#922,#923);
#922 = CARTESIAN_POINT('',(-0.64,-2.75E-02,10.965));
#923 = VECTOR('',#924,1.);
#924 = DIRECTION('',(-0.,1.,0.));
#925 = ORIENTED_EDGE('',*,*,#903,.T.);
#926 = ORIENTED_EDGE('',*,*,#545,.F.);
#927 = PLANE('',#928);
#928 = AXIS2_PLACEMENT_3D('',#929,#930,#931);
#929 = CARTESIAN_POINT('',(-0.64,-2.75E-02,10.965));
#930 = DIRECTION('',(1.,0.,-0.));
#931 = DIRECTION('',(0.,0.,1.));
#932 = ADVANCED_FACE('',(#933),#944,.T.);
#933 = FACE_BOUND('',#934,.T.);
#934 = EDGE_LOOP('',(#935,#936,#937,#938));
#935 = ORIENTED_EDGE('',*,*,#895,.F.);
#936 = ORIENTED_EDGE('',*,*,#920,.F.);
#937 = ORIENTED_EDGE('',*,*,#648,.T.);
#938 = ORIENTED_EDGE('',*,*,#939,.T.);
#939 = EDGE_CURVE('',#651,#873,#940,.T.);
#940 = LINE('',#941,#942);
#941 = CARTESIAN_POINT('',(1.2225,-1.89,10.965));
#942 = VECTOR('',#943,1.);
#943 = DIRECTION('',(-0.,1.,0.));
#944 = PLANE('',#945);
#945 = AXIS2_PLACEMENT_3D('',#946,#947,#948);
#946 = CARTESIAN_POINT('',(-0.64,-2.75E-02,10.965));
#947 = DIRECTION('',(0.,0.,1.));
#948 = DIRECTION('',(1.,0.,-0.));
#949 = ADVANCED_FACE('',(#950),#961,.T.);
#950 = FACE_BOUND('',#951,.T.);
#951 = EDGE_LOOP('',(#952,#953,#954,#955));
#952 = ORIENTED_EDGE('',*,*,#688,.F.);
#953 = ORIENTED_EDGE('',*,*,#703,.T.);
#954 = ORIENTED_EDGE('',*,*,#729,.T.);
#955 = ORIENTED_EDGE('',*,*,#956,.F.);
#956 = EDGE_CURVE('',#651,#730,#957,.T.);
#957 = LINE('',#958,#959);
#958 = CARTESIAN_POINT('',(-0.64,-2.75E-02,10.965));
#959 = VECTOR('',#960,1.);
#960 = DIRECTION('',(1.,0.,-0.));
#961 = PLANE('',#962);
#962 = AXIS2_PLACEMENT_3D('',#963,#964,#965);
#963 = CARTESIAN_POINT('',(1.2225,-1.89,10.965));
#964 = DIRECTION('',(0.,0.,1.));
#965 = DIRECTION('',(1.,0.,-0.));
#966 = ADVANCED_FACE('',(#967),#978,.T.);
#967 = FACE_BOUND('',#968,.T.);
#968 = EDGE_LOOP('',(#969,#970,#976,#977));
#969 = ORIENTED_EDGE('',*,*,#799,.F.);
#970 = ORIENTED_EDGE('',*,*,#971,.F.);
#971 = EDGE_CURVE('',#730,#800,#972,.T.);
#972 = LINE('',#973,#974);
#973 = CARTESIAN_POINT('',(1.2775,-1.89,10.965));
#974 = VECTOR('',#975,1.);
#975 = DIRECTION('',(-0.,1.,0.));
#976 = ORIENTED_EDGE('',*,*,#751,.T.);
#977 = ORIENTED_EDGE('',*,*,#776,.T.);
#978 = PLANE('',#979);
#979 = AXIS2_PLACEMENT_3D('',#980,#981,#982);
#980 = CARTESIAN_POINT('',(-0.64,-2.75E-02,10.965));
#981 = DIRECTION('',(0.,0.,1.));
#982 = DIRECTION('',(1.,0.,-0.));
#983 = ADVANCED_FACE('',(#984),#995,.T.);
#984 = FACE_BOUND('',#985,.T.);
#985 = EDGE_LOOP('',(#986,#987,#993,#994));
#986 = ORIENTED_EDGE('',*,*,#880,.F.);
#987 = ORIENTED_EDGE('',*,*,#988,.T.);
#988 = EDGE_CURVE('',#873,#800,#989,.T.);
#989 = LINE('',#990,#991);
#990 = CARTESIAN_POINT('',(-0.64,2.75E-02,10.965));
#991 = VECTOR('',#992,1.);
#992 = DIRECTION('',(1.,0.,-0.));
#993 = ORIENTED_EDGE('',*,*,#825,.T.);
#994 = ORIENTED_EDGE('',*,*,#847,.F.);
#995 = PLANE('',#996);
#996 = AXIS2_PLACEMENT_3D('',#997,#998,#999);
#997 = CARTESIAN_POINT('',(1.2225,-1.89,10.965));
#998 = DIRECTION('',(0.,0.,1.));
#999 = DIRECTION('',(1.,0.,-0.));
#1000 = ADVANCED_FACE('',(#1001),#1007,.T.);
#1001 = FACE_BOUND('',#1002,.T.);
#1002 = EDGE_LOOP('',(#1003,#1004,#1005,#1006));
#1003 = ORIENTED_EDGE('',*,*,#988,.F.);
#1004 = ORIENTED_EDGE('',*,*,#939,.F.);
#1005 = ORIENTED_EDGE('',*,*,#956,.T.);
#1006 = ORIENTED_EDGE('',*,*,#971,.T.);
#1007 = PLANE('',#1008);
#1008 = AXIS2_PLACEMENT_3D('',#1009,#1010,#1011);
#1009 = CARTESIAN_POINT('',(-0.64,-2.75E-02,10.965));
#1010 = DIRECTION('',(0.,0.,1.));
#1011 = DIRECTION('',(1.,0.,-0.));
#1012 = ( GEOMETRIC_REPRESENTATION_CONTEXT(3) 
GLOBAL_UNCERTAINTY_ASSIGNED_CONTEXT((#1016)) 
GLOBAL_UNIT_ASSIGNED_CONTEXT((#1013,#1014,#1015)) REPRESENTATION_CONTEXT
('Context #1','3D Context with UNIT and UNCERTAINTY') );
#1013 = ( LENGTH_UNIT() NAMED_UNIT(*) SI_UNIT(.MILLI.,.METRE.) );
#1014 = ( NAMED_UNIT(*) PLANE_ANGLE_UNIT() SI_UNIT($,.RADIAN.) );
#1015 = ( NAMED_UNIT(*) SI_UNIT($,.STERADIAN.) SOLID_ANGLE_UNIT() );
#1016 = UNCERTAINTY_MEASURE_WITH_UNIT(LENGTH_MEASURE(1.E-07),#1013,
  'distance_accuracy_value','confusion accuracy');
#1017 = CONTEXT_DEPENDENT_SHAPE_REPRESENTATION(#1018,#1020);
#1018 = ( REPRESENTATION_RELATIONSHIP('','',#492,#10) 
REPRESENTATION_RELATIONSHIP_WITH_TRANSFORMATION(#1019) 
SHAPE_REPRESENTATION_RELATIONSHIP() );
#1019 = ITEM_DEFINED_TRANSFORMATION('','',#11,#23);
#1020 = PRODUCT_DEFINITION_SHAPE('Placement','Placement of an item',
  #1021);
#1021 = NEXT_ASSEMBLY_USAGE_OCCURRENCE('36','Top_lid','',#5,#487,$);
#1022 = PRODUCT_RELATED_PRODUCT_CATEGORY('part',$,(#489));
#1023 = SHAPE_DEFINITION_REPRESENTATION(#1024,#1030);
#1024 = PRODUCT_DEFINITION_SHAPE('','',#1025);
#1025 = PRODUCT_DEFINITION('design','',#1026,#1029);
#1026 = PRODUCT_DEFINITION_FORMATION('','',#1027);
#1027 = PRODUCT('Negative_polarity_stripe','Negative_polarity_stripe',''
  ,(#1028));
#1028 = PRODUCT_CONTEXT('',#2,'mechanical');
#1029 = PRODUCT_DEFINITION_CONTEXT('part definition',#2,'design');
#1030 = ADVANCED_BREP_SHAPE_REPRESENTATION('',(#11,#1031),#1220);
#1031 = MANIFOLD_SOLID_BREP('',#1032);
#1032 = CLOSED_SHELL('',(#1033,#1075,#1116,#1140,#1174,#1191,#1208));
#1033 = ADVANCED_FACE('',(#1034),#1070,.T.);
#1034 = FACE_BOUND('',#1035,.T.);
#1035 = EDGE_LOOP('',(#1036,#1047,#1055,#1064));
#1036 = ORIENTED_EDGE('',*,*,#1037,.F.);
#1037 = EDGE_CURVE('',#1038,#1040,#1042,.T.);
#1038 = VERTEX_POINT('',#1039);
#1039 = CARTESIAN_POINT('',(3.977980021921,-1.575,9.9));
#1040 = VERTEX_POINT('',#1041);
#1041 = CARTESIAN_POINT('',(3.977980021921,1.575,9.9));
#1042 = CIRCLE('',#1043,3.15);
#1043 = AXIS2_PLACEMENT_3D('',#1044,#1045,#1046);
#1044 = CARTESIAN_POINT('',(1.25,0.,9.9));
#1045 = DIRECTION('',(-0.,0.,1.));
#1046 = DIRECTION('',(0.866025403784,-0.5,0.));
#1047 = ORIENTED_EDGE('',*,*,#1048,.F.);
#1048 = EDGE_CURVE('',#1049,#1038,#1051,.T.);
#1049 = VERTEX_POINT('',#1050);
#1050 = CARTESIAN_POINT('',(3.977980021921,-1.575,1.1));
#1051 = LINE('',#1052,#1053);
#1052 = CARTESIAN_POINT('',(3.977980021921,-1.575,1.1));
#1053 = VECTOR('',#1054,1.);
#1054 = DIRECTION('',(0.,0.,1.));
#1055 = ORIENTED_EDGE('',*,*,#1056,.T.);
#1056 = EDGE_CURVE('',#1049,#1057,#1059,.T.);
#1057 = VERTEX_POINT('',#1058);
#1058 = CARTESIAN_POINT('',(3.977980021921,1.575,1.1));
#1059 = CIRCLE('',#1060,3.15);
#1060 = AXIS2_PLACEMENT_3D('',#1061,#1062,#1063);
#1061 = CARTESIAN_POINT('',(1.25,0.,1.1));
#1062 = DIRECTION('',(-0.,0.,1.));
#1063 = DIRECTION('',(0.866025403784,-0.5,0.));
#1064 = ORIENTED_EDGE('',*,*,#1065,.T.);
#1065 = EDGE_CURVE('',#1057,#1040,#1066,.T.);
#1066 = LINE('',#1067,#1068);
#1067 = CARTESIAN_POINT('',(3.977980021921,1.575,1.1));
#1068 = VECTOR('',#1069,1.);
#1069 = DIRECTION('',(0.,0.,1.));
#1070 = CYLINDRICAL_SURFACE('',#1071,3.15);
#1071 = AXIS2_PLACEMENT_3D('',#1072,#1073,#1074);
#1072 = CARTESIAN_POINT('',(1.25,0.,1.1));
#1073 = DIRECTION('',(0.,0.,1.));
#1074 = DIRECTION('',(0.866025403784,-0.5,0.));
#1075 = ADVANCED_FACE('',(#1076),#1111,.T.);
#1076 = FACE_BOUND('',#1077,.T.);
#1077 = EDGE_LOOP('',(#1078,#1079,#1087,#1096,#1105));
#1078 = ORIENTED_EDGE('',*,*,#1037,.T.);
#1079 = ORIENTED_EDGE('',*,*,#1080,.F.);
#1080 = EDGE_CURVE('',#1081,#1040,#1083,.T.);
#1081 = VERTEX_POINT('',#1082);
#1082 = CARTESIAN_POINT('',(3.967587717076,1.569,9.9));
#1083 = LINE('',#1084,#1085);
#1084 = CARTESIAN_POINT('',(1.25,0.,9.9));
#1085 = VECTOR('',#1086,1.);
#1086 = DIRECTION('',(0.866025403784,0.5,0.));
#1087 = ORIENTED_EDGE('',*,*,#1088,.F.);
#1088 = EDGE_CURVE('',#1089,#1081,#1091,.T.);
#1089 = VERTEX_POINT('',#1090);
#1090 = CARTESIAN_POINT('',(4.388,-7.685883311449E-16,9.9));
#1091 = CIRCLE('',#1092,3.138);
#1092 = AXIS2_PLACEMENT_3D('',#1093,#1094,#1095);
#1093 = CARTESIAN_POINT('',(1.25,0.,9.9));
#1094 = DIRECTION('',(0.,0.,1.));
#1095 = DIRECTION('',(1.,0.,-0.));
#1096 = ORIENTED_EDGE('',*,*,#1097,.F.);
#1097 = EDGE_CURVE('',#1098,#1089,#1100,.T.);
#1098 = VERTEX_POINT('',#1099);
#1099 = CARTESIAN_POINT('',(3.967587717076,-1.569,9.9));
#1100 = CIRCLE('',#1101,3.138);
#1101 = AXIS2_PLACEMENT_3D('',#1102,#1103,#1104);
#1102 = CARTESIAN_POINT('',(1.25,0.,9.9));
#1103 = DIRECTION('',(0.,0.,1.));
#1104 = DIRECTION('',(1.,0.,-0.));
#1105 = ORIENTED_EDGE('',*,*,#1106,.T.);
#1106 = EDGE_CURVE('',#1098,#1038,#1107,.T.);
#1107 = LINE('',#1108,#1109);
#1108 = CARTESIAN_POINT('',(1.25,0.,9.9));
#1109 = VECTOR('',#1110,1.);
#1110 = DIRECTION('',(0.866025403784,-0.5,0.));
#1111 = PLANE('',#1112);
#1112 = AXIS2_PLACEMENT_3D('',#1113,#1114,#1115);
#1113 = CARTESIAN_POINT('',(1.25,0.,9.9));
#1114 = DIRECTION('',(0.,0.,1.));
#1115 = DIRECTION('',(0.866025403784,-0.5,0.));
#1116 = ADVANCED_FACE('',(#1117),#1135,.F.);
#1117 = FACE_BOUND('',#1118,.F.);
#1118 = EDGE_LOOP('',(#1119,#1120,#1128,#1134));
#1119 = ORIENTED_EDGE('',*,*,#1080,.F.);
#1120 = ORIENTED_EDGE('',*,*,#1121,.F.);
#1121 = EDGE_CURVE('',#1122,#1081,#1124,.T.);
#1122 = VERTEX_POINT('',#1123);
#1123 = CARTESIAN_POINT('',(3.967587717076,1.569,1.1));
#1124 = LINE('',#1125,#1126);
#1125 = CARTESIAN_POINT('',(3.967587717076,1.569,1.1));
#1126 = VECTOR('',#1127,1.);
#1127 = DIRECTION('',(0.,0.,1.));
#1128 = ORIENTED_EDGE('',*,*,#1129,.T.);
#1129 = EDGE_CURVE('',#1122,#1057,#1130,.T.);
#1130 = LINE('',#1131,#1132);
#1131 = CARTESIAN_POINT('',(1.25,0.,1.1));
#1132 = VECTOR('',#1133,1.);
#1133 = DIRECTION('',(0.866025403784,0.5,0.));
#1134 = ORIENTED_EDGE('',*,*,#1065,.T.);
#1135 = PLANE('',#1136);
#1136 = AXIS2_PLACEMENT_3D('',#1137,#1138,#1139);
#1137 = CARTESIAN_POINT('',(1.25,0.,1.1));
#1138 = DIRECTION('',(0.5,-0.866025403784,0.));
#1139 = DIRECTION('',(0.866025403784,0.5,0.));
#1140 = ADVANCED_FACE('',(#1141),#1169,.F.);
#1141 = FACE_BOUND('',#1142,.F.);
#1142 = EDGE_LOOP('',(#1143,#1144,#1145,#1154,#1163));
#1143 = ORIENTED_EDGE('',*,*,#1056,.T.);
#1144 = ORIENTED_EDGE('',*,*,#1129,.F.);
#1145 = ORIENTED_EDGE('',*,*,#1146,.F.);
#1146 = EDGE_CURVE('',#1147,#1122,#1149,.T.);
#1147 = VERTEX_POINT('',#1148);
#1148 = CARTESIAN_POINT('',(4.388,-7.685883311449E-16,1.1));
#1149 = CIRCLE('',#1150,3.138);
#1150 = AXIS2_PLACEMENT_3D('',#1151,#1152,#1153);
#1151 = CARTESIAN_POINT('',(1.25,0.,1.1));
#1152 = DIRECTION('',(0.,0.,1.));
#1153 = DIRECTION('',(1.,0.,-0.));
#1154 = ORIENTED_EDGE('',*,*,#1155,.F.);
#1155 = EDGE_CURVE('',#1156,#1147,#1158,.T.);
#1156 = VERTEX_POINT('',#1157);
#1157 = CARTESIAN_POINT('',(3.967587717076,-1.569,1.1));
#1158 = CIRCLE('',#1159,3.138);
#1159 = AXIS2_PLACEMENT_3D('',#1160,#1161,#1162);
#1160 = CARTESIAN_POINT('',(1.25,0.,1.1));
#1161 = DIRECTION('',(0.,0.,1.));
#1162 = DIRECTION('',(1.,0.,-0.));
#1163 = ORIENTED_EDGE('',*,*,#1164,.T.);
#1164 = EDGE_CURVE('',#1156,#1049,#1165,.T.);
#1165 = LINE('',#1166,#1167);
#1166 = CARTESIAN_POINT('',(1.25,0.,1.1));
#1167 = VECTOR('',#1168,1.);
#1168 = DIRECTION('',(0.866025403784,-0.5,0.));
#1169 = PLANE('',#1170);
#1170 = AXIS2_PLACEMENT_3D('',#1171,#1172,#1173);
#1171 = CARTESIAN_POINT('',(1.25,0.,1.1));
#1172 = DIRECTION('',(0.,0.,1.));
#1173 = DIRECTION('',(0.866025403784,-0.5,0.));
#1174 = ADVANCED_FACE('',(#1175),#1186,.T.);
#1175 = FACE_BOUND('',#1176,.T.);
#1176 = EDGE_LOOP('',(#1177,#1183,#1184,#1185));
#1177 = ORIENTED_EDGE('',*,*,#1178,.F.);
#1178 = EDGE_CURVE('',#1156,#1098,#1179,.T.);
#1179 = LINE('',#1180,#1181);
#1180 = CARTESIAN_POINT('',(3.967587717076,-1.569,1.1));
#1181 = VECTOR('',#1182,1.);
#1182 = DIRECTION('',(0.,0.,1.));
#1183 = ORIENTED_EDGE('',*,*,#1164,.T.);
#1184 = ORIENTED_EDGE('',*,*,#1048,.T.);
#1185 = ORIENTED_EDGE('',*,*,#1106,.F.);
#1186 = PLANE('',#1187);
#1187 = AXIS2_PLACEMENT_3D('',#1188,#1189,#1190);
#1188 = CARTESIAN_POINT('',(1.25,0.,1.1));
#1189 = DIRECTION('',(-0.5,-0.866025403784,0.));
#1190 = DIRECTION('',(0.866025403784,-0.5,0.));
#1191 = ADVANCED_FACE('',(#1192),#1203,.F.);
#1192 = FACE_BOUND('',#1193,.F.);
#1193 = EDGE_LOOP('',(#1194,#1200,#1201,#1202));
#1194 = ORIENTED_EDGE('',*,*,#1195,.T.);
#1195 = EDGE_CURVE('',#1147,#1089,#1196,.T.);
#1196 = LINE('',#1197,#1198);
#1197 = CARTESIAN_POINT('',(4.388,-7.685883311449E-16,1.1));
#1198 = VECTOR('',#1199,1.);
#1199 = DIRECTION('',(0.,0.,1.));
#1200 = ORIENTED_EDGE('',*,*,#1097,.F.);
#1201 = ORIENTED_EDGE('',*,*,#1178,.F.);
#1202 = ORIENTED_EDGE('',*,*,#1155,.T.);
#1203 = CYLINDRICAL_SURFACE('',#1204,3.138);
#1204 = AXIS2_PLACEMENT_3D('',#1205,#1206,#1207);
#1205 = CARTESIAN_POINT('',(1.25,0.,1.1));
#1206 = DIRECTION('',(0.,0.,1.));
#1207 = DIRECTION('',(1.,0.,-0.));
#1208 = ADVANCED_FACE('',(#1209),#1215,.F.);
#1209 = FACE_BOUND('',#1210,.F.);
#1210 = EDGE_LOOP('',(#1211,#1212,#1213,#1214));
#1211 = ORIENTED_EDGE('',*,*,#1088,.F.);
#1212 = ORIENTED_EDGE('',*,*,#1195,.F.);
#1213 = ORIENTED_EDGE('',*,*,#1146,.T.);
#1214 = ORIENTED_EDGE('',*,*,#1121,.T.);
#1215 = CYLINDRICAL_SURFACE('',#1216,3.138);
#1216 = AXIS2_PLACEMENT_3D('',#1217,#1218,#1219);
#1217 = CARTESIAN_POINT('',(1.25,0.,1.1));
#1218 = DIRECTION('',(0.,0.,1.));
#1219 = DIRECTION('',(1.,0.,-0.));
#1220 = ( GEOMETRIC_REPRESENTATION_CONTEXT(3) 
GLOBAL_UNCERTAINTY_ASSIGNED_CONTEXT((#1224)) 
GLOBAL_UNIT_ASSIGNED_CONTEXT((#1221,#1222,#1223)) REPRESENTATION_CONTEXT
('Context #1','3D Context with UNIT and UNCERTAINTY') );
#1221 = ( LENGTH_UNIT() NAMED_UNIT(*) SI_UNIT(.MILLI.,.METRE.) );
#1222 = ( NAMED_UNIT(*) PLANE_ANGLE_UNIT() SI_UNIT($,.RADIAN.) );
#1223 = ( NAMED_UNIT(*) SI_UNIT($,.STERADIAN.) SOLID_ANGLE_UNIT() );
#1224 = UNCERTAINTY_MEASURE_WITH_UNIT(LENGTH_MEASURE(1.E-07),#1221,
  'distance_accuracy_value','confusion accuracy');
#1225 = CONTEXT_DEPENDENT_SHAPE_REPRESENTATION(#1226,#1228);
#1226 = ( REPRESENTATION_RELATIONSHIP('','',#1030,#10) 
REPRESENTATION_RELATIONSHIP_WITH_TRANSFORMATION(#1227) 
SHAPE_REPRESENTATION_RELATIONSHIP() );
#1227 = ITEM_DEFINED_TRANSFORMATION('','',#11,#27);
#1228 = PRODUCT_DEFINITION_SHAPE('Placement','Placement of an item',
  #1229);
#1229 = NEXT_ASSEMBLY_USAGE_OCCURRENCE('37','Negative_polarity_stripe',
  '',#5,#1025,$);
#1230 = PRODUCT_RELATED_PRODUCT_CATEGORY('part',$,(#1027));
#1231 = SHAPE_DEFINITION_REPRESENTATION(#1232,#1238);
#1232 = PRODUCT_DEFINITION_SHAPE('','',#1233);
#1233 = PRODUCT_DEFINITION('design','',#1234,#1237);
#1234 = PRODUCT_DEFINITION_FORMATION('','',#1235);
#1235 = PRODUCT('Lead_1_positive','Lead_1_positive','',(#1236));
#1236 = PRODUCT_CONTEXT('',#2,'mechanical');
#1237 = PRODUCT_DEFINITION_CONTEXT('part definition',#2,'design');
#1238 = ADVANCED_BREP_SHAPE_REPRESENTATION('',(#11,#1239),#1292);
#1239 = MANIFOLD_SOLID_BREP('',#1240);
#1240 = CLOSED_SHELL('',(#1241,#1274,#1283));
#1241 = ADVANCED_FACE('',(#1242),#1269,.T.);
#1242 = FACE_BOUND('',#1243,.T.);
#1243 = EDGE_LOOP('',(#1244,#1253,#1261,#1268));
#1244 = ORIENTED_EDGE('',*,*,#1245,.F.);
#1245 = EDGE_CURVE('',#1246,#1246,#1248,.T.);
#1246 = VERTEX_POINT('',#1247);
#1247 = CARTESIAN_POINT('',(0.25,-6.123233995737E-17,0.));
#1248 = CIRCLE('',#1249,0.25);
#1249 = AXIS2_PLACEMENT_3D('',#1250,#1251,#1252);
#1250 = CARTESIAN_POINT('',(0.,0.,0.));
#1251 = DIRECTION('',(0.,0.,1.));
#1252 = DIRECTION('',(1.,0.,-0.));
#1253 = ORIENTED_EDGE('',*,*,#1254,.F.);
#1254 = EDGE_CURVE('',#1255,#1246,#1257,.T.);
#1255 = VERTEX_POINT('',#1256);
#1256 = CARTESIAN_POINT('',(0.25,-6.123233995737E-17,-2.8));
#1257 = LINE('',#1258,#1259);
#1258 = CARTESIAN_POINT('',(0.25,-6.123233995737E-17,-2.8));
#1259 = VECTOR('',#1260,1.);
#1260 = DIRECTION('',(0.,0.,1.));
#1261 = ORIENTED_EDGE('',*,*,#1262,.T.);
#1262 = EDGE_CURVE('',#1255,#1255,#1263,.T.);
#1263 = CIRCLE('',#1264,0.25);
#1264 = AXIS2_PLACEMENT_3D('',#1265,#1266,#1267);
#1265 = CARTESIAN_POINT('',(0.,0.,-2.8));
#1266 = DIRECTION('',(0.,0.,1.));
#1267 = DIRECTION('',(1.,0.,-0.));
#1268 = ORIENTED_EDGE('',*,*,#1254,.T.);
#1269 = CYLINDRICAL_SURFACE('',#1270,0.25);
#1270 = AXIS2_PLACEMENT_3D('',#1271,#1272,#1273);
#1271 = CARTESIAN_POINT('',(0.,0.,-2.8));
#1272 = DIRECTION('',(0.,0.,1.));
#1273 = DIRECTION('',(1.,0.,-0.));
#1274 = ADVANCED_FACE('',(#1275),#1278,.T.);
#1275 = FACE_BOUND('',#1276,.T.);
#1276 = EDGE_LOOP('',(#1277));
#1277 = ORIENTED_EDGE('',*,*,#1245,.T.);
#1278 = PLANE('',#1279);
#1279 = AXIS2_PLACEMENT_3D('',#1280,#1281,#1282);
#1280 = CARTESIAN_POINT('',(0.,0.,0.));
#1281 = DIRECTION('',(0.,0.,1.));
#1282 = DIRECTION('',(1.,0.,-0.));
#1283 = ADVANCED_FACE('',(#1284),#1287,.F.);
#1284 = FACE_BOUND('',#1285,.T.);
#1285 = EDGE_LOOP('',(#1286));
#1286 = ORIENTED_EDGE('',*,*,#1262,.F.);
#1287 = PLANE('',#1288);
#1288 = AXIS2_PLACEMENT_3D('',#1289,#1290,#1291);
#1289 = CARTESIAN_POINT('',(0.,0.,-2.8));
#1290 = DIRECTION('',(0.,0.,1.));
#1291 = DIRECTION('',(1.,0.,-0.));
#1292 = ( GEOMETRIC_REPRESENTATION_CONTEXT(3) 
GLOBAL_UNCERTAINTY_ASSIGNED_CONTEXT((#1296)) 
GLOBAL_UNIT_ASSIGNED_CONTEXT((#1293,#1294,#1295)) REPRESENTATION_CONTEXT
('Context #1','3D Context with UNIT and UNCERTAINTY') );
#1293 = ( LENGTH_UNIT() NAMED_UNIT(*) SI_UNIT(.MILLI.,.METRE.) );
#1294 = ( NAMED_UNIT(*) PLANE_ANGLE_UNIT() SI_UNIT($,.RADIAN.) );
#1295 = ( NAMED_UNIT(*) SI_UNIT($,.STERADIAN.) SOLID_ANGLE_UNIT() );
#1296 = UNCERTAINTY_MEASURE_WITH_UNIT(LENGTH_MEASURE(1.E-07),#1293,
  'distance_accuracy_value','confusion accuracy');
#1297 = CONTEXT_DEPENDENT_SHAPE_REPRESENTATION(#1298,#1300);
#1298 = ( REPRESENTATION_RELATIONSHIP('','',#1238,#10) 
REPRESENTATION_RELATIONSHIP_WITH_TRANSFORMATION(#1299) 
SHAPE_REPRESENTATION_RELATIONSHIP() );
#1299 = ITEM_DEFINED_TRANSFORMATION('','',#11,#31);
#1300 = PRODUCT_DEFINITION_SHAPE('Placement','Placement of an item',
  #1301);
#1301 = NEXT_ASSEMBLY_USAGE_OCCURRENCE('38','Lead_1_positive','',#5,
  #1233,$);
#1302 = PRODUCT_RELATED_PRODUCT_CATEGORY('part',$,(#1235));
#1303 = SHAPE_DEFINITION_REPRESENTATION(#1304,#1310);
#1304 = PRODUCT_DEFINITION_SHAPE('','',#1305);
#1305 = PRODUCT_DEFINITION('design','',#1306,#1309);
#1306 = PRODUCT_DEFINITION_FORMATION('','',#1307);
#1307 = PRODUCT('Lead_2_negative','Lead_2_negative','',(#1308));
#1308 = PRODUCT_CONTEXT('',#2,'mechanical');
#1309 = PRODUCT_DEFINITION_CONTEXT('part definition',#2,'design');
#1310 = ADVANCED_BREP_SHAPE_REPRESENTATION('',(#11,#1311),#1364);
#1311 = MANIFOLD_SOLID_BREP('',#1312);
#1312 = CLOSED_SHELL('',(#1313,#1346,#1355));
#1313 = ADVANCED_FACE('',(#1314),#1341,.T.);
#1314 = FACE_BOUND('',#1315,.T.);
#1315 = EDGE_LOOP('',(#1316,#1325,#1333,#1340));
#1316 = ORIENTED_EDGE('',*,*,#1317,.F.);
#1317 = EDGE_CURVE('',#1318,#1318,#1320,.T.);
#1318 = VERTEX_POINT('',#1319);
#1319 = CARTESIAN_POINT('',(2.75,-6.123233995737E-17,0.));
#1320 = CIRCLE('',#1321,0.25);
#1321 = AXIS2_PLACEMENT_3D('',#1322,#1323,#1324);
#1322 = CARTESIAN_POINT('',(2.5,0.,0.));
#1323 = DIRECTION('',(0.,0.,1.));
#1324 = DIRECTION('',(1.,0.,-0.));
#1325 = ORIENTED_EDGE('',*,*,#1326,.F.);
#1326 = EDGE_CURVE('',#1327,#1318,#1329,.T.);
#1327 = VERTEX_POINT('',#1328);
#1328 = CARTESIAN_POINT('',(2.75,-6.123233995737E-17,-2.8));
#1329 = LINE('',#1330,#1331);
#1330 = CARTESIAN_POINT('',(2.75,-6.123233995737E-17,-2.8));
#1331 = VECTOR('',#1332,1.);
#1332 = DIRECTION('',(0.,0.,1.));
#1333 = ORIENTED_EDGE('',*,*,#1334,.T.);
#1334 = EDGE_CURVE('',#1327,#1327,#1335,.T.);
#1335 = CIRCLE('',#1336,0.25);
#1336 = AXIS2_PLACEMENT_3D('',#1337,#1338,#1339);
#1337 = CARTESIAN_POINT('',(2.5,0.,-2.8));
#1338 = DIRECTION('',(0.,0.,1.));
#1339 = DIRECTION('',(1.,0.,-0.));
#1340 = ORIENTED_EDGE('',*,*,#1326,.T.);
#1341 = CYLINDRICAL_SURFACE('',#1342,0.25);
#1342 = AXIS2_PLACEMENT_3D('',#1343,#1344,#1345);
#1343 = CARTESIAN_POINT('',(2.5,0.,-2.8));
#1344 = DIRECTION('',(0.,0.,1.));
#1345 = DIRECTION('',(1.,0.,-0.));
#1346 = ADVANCED_FACE('',(#1347),#1350,.T.);
#1347 = FACE_BOUND('',#1348,.T.);
#1348 = EDGE_LOOP('',(#1349));
#1349 = ORIENTED_EDGE('',*,*,#1317,.T.);
#1350 = PLANE('',#1351);
#1351 = AXIS2_PLACEMENT_3D('',#1352,#1353,#1354);
#1352 = CARTESIAN_POINT('',(2.5,0.,0.));
#1353 = DIRECTION('',(0.,0.,1.));
#1354 = DIRECTION('',(1.,0.,-0.));
#1355 = ADVANCED_FACE('',(#1356),#1359,.F.);
#1356 = FACE_BOUND('',#1357,.T.);
#1357 = EDGE_LOOP('',(#1358));
#1358 = ORIENTED_EDGE('',*,*,#1334,.F.);
#1359 = PLANE('',#1360);
#1360 = AXIS2_PLACEMENT_3D('',#1361,#1362,#1363);
#1361 = CARTESIAN_POINT('',(2.5,0.,-2.8));
#1362 = DIRECTION('',(0.,0.,1.));
#1363 = DIRECTION('',(1.,0.,-0.));
#1364 = ( GEOMETRIC_REPRESENTATION_CONTEXT(3) 
GLOBAL_UNCERTAINTY_ASSIGNED_CONTEXT((#1368)) 
GLOBAL_UNIT_ASSIGNED_CONTEXT((#1365,#1366,#1367)) REPRESENTATION_CONTEXT
('Context #1','3D Context with UNIT and UNCERTAINTY') );
#1365 = ( LENGTH_UNIT() NAMED_UNIT(*) SI_UNIT(.MILLI.,.METRE.) );
#1366 = ( NAMED_UNIT(*) PLANE_ANGLE_UNIT() SI_UNIT($,.RADIAN.) );
#1367 = ( NAMED_UNIT(*) SI_UNIT($,.STERADIAN.) SOLID_ANGLE_UNIT() );
#1368 = UNCERTAINTY_MEASURE_WITH_UNIT(LENGTH_MEASURE(1.E-07),#1365,
  'distance_accuracy_value','confusion accuracy');
#1369 = CONTEXT_DEPENDENT_SHAPE_REPRESENTATION(#1370,#1372);
#1370 = ( REPRESENTATION_RELATIONSHIP('','',#1310,#10) 
REPRESENTATION_RELATIONSHIP_WITH_TRANSFORMATION(#1371) 
SHAPE_REPRESENTATION_RELATIONSHIP() );
#1371 = ITEM_DEFINED_TRANSFORMATION('','',#11,#35);
#1372 = PRODUCT_DEFINITION_SHAPE('Placement','Placement of an item',
  #1373);
#1373 = NEXT_ASSEMBLY_USAGE_OCCURRENCE('39','Lead_2_negative','',#5,
  #1305,$);
#1374 = PRODUCT_RELATED_PRODUCT_CATEGORY('part',$,(#1307));
#1375 = MECHANICAL_DESIGN_GEOMETRIC_PRESENTATION_REPRESENTATION('',(
    #1376),#474);
#1376 = STYLED_ITEM('color',(#1377),#421);
#1377 = PRESENTATION_STYLE_ASSIGNMENT((#1378,#1384));
#1378 = SURFACE_STYLE_USAGE(.BOTH.,#1379);
#1379 = SURFACE_SIDE_STYLE('',(#1380));
#1380 = SURFACE_STYLE_FILL_AREA(#1381);
#1381 = FILL_AREA_STYLE('',(#1382));
#1382 = FILL_AREA_STYLE_COLOUR('',#1383);
#1383 = COLOUR_RGB('',5.500000063064E-02,6.000000074816E-02,
  6.499999653404E-02);
#1384 = CURVE_STYLE('',#1385,POSITIVE_LENGTH_MEASURE(0.1),#1383);
#1385 = DRAUGHTING_PRE_DEFINED_CURVE_FONT('continuous');
#1386 = MECHANICAL_DESIGN_GEOMETRIC_PRESENTATION_REPRESENTATION('',(
    #1387),#1220);
#1387 = STYLED_ITEM('color',(#1388),#1031);
#1388 = PRESENTATION_STYLE_ASSIGNMENT((#1389,#1395));
#1389 = SURFACE_STYLE_USAGE(.BOTH.,#1390);
#1390 = SURFACE_SIDE_STYLE('',(#1391));
#1391 = SURFACE_STYLE_FILL_AREA(#1392);
#1392 = FILL_AREA_STYLE('',(#1393));
#1393 = FILL_AREA_STYLE_COLOUR('',#1394);
#1394 = COLOUR_RGB('',0.790000031657,0.779999965419,0.82999997502);
#1395 = CURVE_STYLE('',#1396,POSITIVE_LENGTH_MEASURE(0.1),#1394);
#1396 = DRAUGHTING_PRE_DEFINED_CURVE_FONT('continuous');
#1397 = MECHANICAL_DESIGN_GEOMETRIC_PRESENTATION_REPRESENTATION('',(
    #1398),#1364);
#1398 = STYLED_ITEM('color',(#1399),#1311);
#1399 = PRESENTATION_STYLE_ASSIGNMENT((#1400,#1406));
#1400 = SURFACE_STYLE_USAGE(.BOTH.,#1401);
#1401 = SURFACE_SIDE_STYLE('',(#1402));
#1402 = SURFACE_STYLE_FILL_AREA(#1403);
#1403 = FILL_AREA_STYLE('',(#1404));
#1404 = FILL_AREA_STYLE_COLOUR('',#1405);
#1405 = COLOUR_RGB('',0.699999984889,0.720000023499,0.750000000934);
#1406 = CURVE_STYLE('',#1407,POSITIVE_LENGTH_MEASURE(0.1),#1405);
#1407 = DRAUGHTING_PRE_DEFINED_CURVE_FONT('continuous');
#1408 = MECHANICAL_DESIGN_GEOMETRIC_PRESENTATION_REPRESENTATION('',(
    #1409),#1012);
#1409 = STYLED_ITEM('color',(#1410),#493);
#1410 = PRESENTATION_STYLE_ASSIGNMENT((#1411,#1417));
#1411 = SURFACE_STYLE_USAGE(.BOTH.,#1412);
#1412 = SURFACE_SIDE_STYLE('',(#1413));
#1413 = SURFACE_STYLE_FILL_AREA(#1414);
#1414 = FILL_AREA_STYLE('',(#1415));
#1415 = FILL_AREA_STYLE_COLOUR('',#1416);
#1416 = COLOUR_RGB('',0.730000014984,0.750000000934,0.779999965419);
#1417 = CURVE_STYLE('',#1418,POSITIVE_LENGTH_MEASURE(0.1),#1416);
#1418 = DRAUGHTING_PRE_DEFINED_CURVE_FONT('continuous');
#1419 = MECHANICAL_DESIGN_GEOMETRIC_PRESENTATION_REPRESENTATION('',(
    #1420),#402);
#1420 = STYLED_ITEM('color',(#1421),#53);
#1421 = PRESENTATION_STYLE_ASSIGNMENT((#1422,#1428));
#1422 = SURFACE_STYLE_USAGE(.BOTH.,#1423);
#1423 = SURFACE_SIDE_STYLE('',(#1424));
#1424 = SURFACE_STYLE_FILL_AREA(#1425);
#1425 = FILL_AREA_STYLE('',(#1426));
#1426 = FILL_AREA_STYLE_COLOUR('',#1427);
#1427 = COLOUR_RGB('',0.230000002338,0.150000005922,0.399999997426);
#1428 = CURVE_STYLE('',#1429,POSITIVE_LENGTH_MEASURE(0.1),#1427);
#1429 = DRAUGHTING_PRE_DEFINED_CURVE_FONT('continuous');
#1430 = MECHANICAL_DESIGN_GEOMETRIC_PRESENTATION_REPRESENTATION('',(
    #1431),#1292);
#1431 = STYLED_ITEM('color',(#1432),#1239);
#1432 = PRESENTATION_STYLE_ASSIGNMENT((#1433,#1438));
#1433 = SURFACE_STYLE_USAGE(.BOTH.,#1434);
#1434 = SURFACE_SIDE_STYLE('',(#1435));
#1435 = SURFACE_STYLE_FILL_AREA(#1436);
#1436 = FILL_AREA_STYLE('',(#1437));
#1437 = FILL_AREA_STYLE_COLOUR('',#1405);
#1438 = CURVE_STYLE('',#1439,POSITIVE_LENGTH_MEASURE(0.1),#1405);
#1439 = DRAUGHTING_PRE_DEFINED_CURVE_FONT('continuous');
ENDSEC;
END-ISO-10303-21;
