ISO-10303-21;
HEADER;
FILE_DESCRIPTION(('FreeCAD Model'),'2;1');
FILE_NAME('Open CASCADE Shape Model','2026-10-03T19:15:16',('Author'),(
    ''),'Open CASCADE STEP processor 7.8','FreeCAD','Unknown');
FILE_SCHEMA(('AUTOMOTIVE_DESIGN { 1 0 10303 214 1 1 1 1 }'));
ENDSEC;
DATA;
#1 = APPLICATION_PROTOCOL_DEFINITION('international standard',
  'automotive_design',2000,#2);
#2 = APPLICATION_CONTEXT(
  'core data for automotive mechanical design processes');
#3 = SHAPE_DEFINITION_REPRESENTATION(#4,#10);
#4 = PRODUCT_DEFINITION_SHAPE('','',#5);
#5 = PRODUCT_DEFINITION('design','',#6,#9);
#6 = PRODUCT_DEFINITION_FORMATION('','',#7);
#7 = PRODUCT('MMBT3904LT1G_nominal','MMBT3904LT1G_nominal','',(#8));
#8 = PRODUCT_CONTEXT('',#2,'mechanical');
#9 = PRODUCT_DEFINITION_CONTEXT('part definition',#2,'design');
#10 = SHAPE_REPRESENTATION('',(#11,#15,#19,#23,#27,#31),#35);
#11 = AXIS2_PLACEMENT_3D('',#12,#13,#14);
#12 = CARTESIAN_POINT('',(0.,0.,0.));
#13 = DIRECTION('',(0.,0.,1.));
#14 = DIRECTION('',(1.,0.,-0.));
#15 = AXIS2_PLACEMENT_3D('',#16,#17,#18);
#16 = CARTESIAN_POINT('',(0.,0.,0.));
#17 = DIRECTION('',(0.,0.,1.));
#18 = DIRECTION('',(1.,0.,0.));
#19 = AXIS2_PLACEMENT_3D('',#20,#21,#22);
#20 = CARTESIAN_POINT('',(0.,0.,0.));
#21 = DIRECTION('',(0.,0.,1.));
#22 = DIRECTION('',(1.,0.,0.));
#23 = AXIS2_PLACEMENT_3D('',#24,#25,#26);
#24 = CARTESIAN_POINT('',(0.,0.,0.));
#25 = DIRECTION('',(0.,0.,1.));
#26 = DIRECTION('',(1.,0.,0.));
#27 = AXIS2_PLACEMENT_3D('',#28,#29,#30);
#28 = CARTESIAN_POINT('',(0.,0.,0.));
#29 = DIRECTION('',(0.,0.,1.));
#30 = DIRECTION('',(1.,0.,0.));
#31 = AXIS2_PLACEMENT_3D('',#32,#33,#34);
#32 = CARTESIAN_POINT('',(0.,0.,0.));
#33 = DIRECTION('',(0.,0.,1.));
#34 = DIRECTION('',(1.,0.,0.));
#35 = ( GEOMETRIC_REPRESENTATION_CONTEXT(3) 
GLOBAL_UNCERTAINTY_ASSIGNED_CONTEXT((#39)) GLOBAL_UNIT_ASSIGNED_CONTEXT(
(#36,#37,#38)) REPRESENTATION_CONTEXT('Context #1',
  '3D Context with UNIT and UNCERTAINTY') );
#36 = ( LENGTH_UNIT() NAMED_UNIT(*) SI_UNIT(.MILLI.,.METRE.) );
#37 = ( NAMED_UNIT(*) PLANE_ANGLE_UNIT() SI_UNIT($,.RADIAN.) );
#38 = ( NAMED_UNIT(*) SI_UNIT($,.STERADIAN.) SOLID_ANGLE_UNIT() );
#39 = UNCERTAINTY_MEASURE_WITH_UNIT(LENGTH_MEASURE(1.E-07),#36,
  'distance_accuracy_value','confusion accuracy');
#40 = PRODUCT_RELATED_PRODUCT_CATEGORY('part',$,(#7));
#41 = SHAPE_DEFINITION_REPRESENTATION(#42,#48);
#42 = PRODUCT_DEFINITION_SHAPE('','',#43);
#43 = PRODUCT_DEFINITION('design','',#44,#47);
#44 = PRODUCT_DEFINITION_FORMATION('','',#45);
#45 = PRODUCT('Pin1_orientation_dot_schematic',
  'Pin1_orientation_dot_schematic','',(#46));
#46 = PRODUCT_CONTEXT('',#2,'mechanical');
#47 = PRODUCT_DEFINITION_CONTEXT('part definition',#2,'design');
#48 = ADVANCED_BREP_SHAPE_REPRESENTATION('',(#11,#49),#102);
#49 = MANIFOLD_SOLID_BREP('',#50);
#50 = CLOSED_SHELL('',(#51,#84,#93));
#51 = ADVANCED_FACE('',(#52),#79,.T.);
#52 = FACE_BOUND('',#53,.T.);
#53 = EDGE_LOOP('',(#54,#63,#71,#78));
#54 = ORIENTED_EDGE('',*,*,#55,.F.);
#55 = EDGE_CURVE('',#56,#56,#58,.T.);
#56 = VERTEX_POINT('',#57);
#57 = CARTESIAN_POINT('',(-0.282,1.11,1.));
#58 = CIRCLE('',#59,8.8E-02);
#59 = AXIS2_PLACEMENT_3D('',#60,#61,#62);
#60 = CARTESIAN_POINT('',(-0.37,1.11,1.));
#61 = DIRECTION('',(0.,0.,1.));
#62 = DIRECTION('',(1.,0.,-0.));
#63 = ORIENTED_EDGE('',*,*,#64,.F.);
#64 = EDGE_CURVE('',#65,#56,#67,.T.);
#65 = VERTEX_POINT('',#66);
#66 = CARTESIAN_POINT('',(-0.282,1.11,0.986));
#67 = LINE('',#68,#69);
#68 = CARTESIAN_POINT('',(-0.282,1.11,0.986));
#69 = VECTOR('',#70,1.);
#70 = DIRECTION('',(0.,0.,1.));
#71 = ORIENTED_EDGE('',*,*,#72,.T.);
#72 = EDGE_CURVE('',#65,#65,#73,.T.);
#73 = CIRCLE('',#74,8.8E-02);
#74 = AXIS2_PLACEMENT_3D('',#75,#76,#77);
#75 = CARTESIAN_POINT('',(-0.37,1.11,0.986));
#76 = DIRECTION('',(0.,0.,1.));
#77 = DIRECTION('',(1.,0.,-0.));
#78 = ORIENTED_EDGE('',*,*,#64,.T.);
#79 = CYLINDRICAL_SURFACE('',#80,8.8E-02);
#80 = AXIS2_PLACEMENT_3D('',#81,#82,#83);
#81 = CARTESIAN_POINT('',(-0.37,1.11,0.986));
#82 = DIRECTION('',(0.,0.,1.));
#83 = DIRECTION('',(1.,0.,-0.));
#84 = ADVANCED_FACE('',(#85),#88,.T.);
#85 = FACE_BOUND('',#86,.T.);
#86 = EDGE_LOOP('',(#87));
#87 = ORIENTED_EDGE('',*,*,#55,.T.);
#88 = PLANE('',#89);
#89 = AXIS2_PLACEMENT_3D('',#90,#91,#92);
#90 = CARTESIAN_POINT('',(-0.37,1.11,1.));
#91 = DIRECTION('',(0.,0.,1.));
#92 = DIRECTION('',(1.,0.,-0.));
#93 = ADVANCED_FACE('',(#94),#97,.F.);
#94 = FACE_BOUND('',#95,.T.);
#95 = EDGE_LOOP('',(#96));
#96 = ORIENTED_EDGE('',*,*,#72,.F.);
#97 = PLANE('',#98);
#98 = AXIS2_PLACEMENT_3D('',#99,#100,#101);
#99 = CARTESIAN_POINT('',(-0.37,1.11,0.986));
#100 = DIRECTION('',(0.,0.,1.));
#101 = DIRECTION('',(1.,0.,-0.));
#102 = ( GEOMETRIC_REPRESENTATION_CONTEXT(3) 
GLOBAL_UNCERTAINTY_ASSIGNED_CONTEXT((#106)) GLOBAL_UNIT_ASSIGNED_CONTEXT
((#103,#104,#105)) REPRESENTATION_CONTEXT('Context #1',
  '3D Context with UNIT and UNCERTAINTY') );
#103 = ( LENGTH_UNIT() NAMED_UNIT(*) SI_UNIT(.MILLI.,.METRE.) );
#104 = ( NAMED_UNIT(*) PLANE_ANGLE_UNIT() SI_UNIT($,.RADIAN.) );
#105 = ( NAMED_UNIT(*) SI_UNIT($,.STERADIAN.) SOLID_ANGLE_UNIT() );
#106 = UNCERTAINTY_MEASURE_WITH_UNIT(LENGTH_MEASURE(1.E-07),#103,
  'distance_accuracy_value','confusion accuracy');
#107 = CONTEXT_DEPENDENT_SHAPE_REPRESENTATION(#108,#110);
#108 = ( REPRESENTATION_RELATIONSHIP('','',#48,#10) 
REPRESENTATION_RELATIONSHIP_WITH_TRANSFORMATION(#109) 
SHAPE_REPRESENTATION_RELATIONSHIP() );
#109 = ITEM_DEFINED_TRANSFORMATION('','',#11,#15);
#110 = PRODUCT_DEFINITION_SHAPE('Placement','Placement of an item',#111
  );
#111 = NEXT_ASSEMBLY_USAGE_OCCURRENCE('1',
  'Pin1_orientation_dot_schematic','',#5,#43,$);
#112 = PRODUCT_RELATED_PRODUCT_CATEGORY('part',$,(#45));
#113 = SHAPE_DEFINITION_REPRESENTATION(#114,#120);
#114 = PRODUCT_DEFINITION_SHAPE('','',#115);
#115 = PRODUCT_DEFINITION('design','',#116,#119);
#116 = PRODUCT_DEFINITION_FORMATION('','',#117);
#117 = PRODUCT('Molded_body','Molded_body','',(#118));
#118 = PRODUCT_CONTEXT('',#2,'mechanical');
#119 = PRODUCT_DEFINITION_CONTEXT('part definition',#2,'design');
#120 = ADVANCED_BREP_SHAPE_REPRESENTATION('',(#11,#121),#404);
#121 = MANIFOLD_SOLID_BREP('',#122);
#122 = CLOSED_SHELL('',(#123,#161,#192,#215,#244,#267,#284,#307,#342,
    #358,#370,#395));
#123 = ADVANCED_FACE('',(#124),#156,.T.);
#124 = FACE_BOUND('',#125,.T.);
#125 = EDGE_LOOP('',(#126,#136,#143,#151));
#126 = ORIENTED_EDGE('',*,*,#127,.T.);
#127 = EDGE_CURVE('',#128,#130,#132,.T.);
#128 = VERTEX_POINT('',#129);
#129 = CARTESIAN_POINT('',(-0.6045,-1.4045,6.E-02));
#130 = VERTEX_POINT('',#131);
#131 = CARTESIAN_POINT('',(0.6045,-1.4045,6.E-02));
#132 = LINE('',#133,#134);
#133 = CARTESIAN_POINT('',(-0.6045,-1.4045,6.E-02));
#134 = VECTOR('',#135,1.);
#135 = DIRECTION('',(1.,0.,0.));
#136 = ORIENTED_EDGE('',*,*,#137,.T.);
#137 = EDGE_CURVE('',#130,#138,#140,.T.);
#138 = VERTEX_POINT('',#139);
#139 = CARTESIAN_POINT('',(0.65,-1.45,0.389));
#140 = B_SPLINE_CURVE_WITH_KNOTS('',1,(#141,#142),.UNSPECIFIED.,.F.,.F.,
  (2,2),(0.,1.),.PIECEWISE_BEZIER_KNOTS.);
#141 = CARTESIAN_POINT('',(0.6045,-1.4045,6.E-02));
#142 = CARTESIAN_POINT('',(0.65,-1.45,0.389));
#143 = ORIENTED_EDGE('',*,*,#144,.F.);
#144 = EDGE_CURVE('',#145,#138,#147,.T.);
#145 = VERTEX_POINT('',#146);
#146 = CARTESIAN_POINT('',(-0.65,-1.45,0.389));
#147 = LINE('',#148,#149);
#148 = CARTESIAN_POINT('',(-0.65,-1.45,0.389));
#149 = VECTOR('',#150,1.);
#150 = DIRECTION('',(1.,0.,0.));
#151 = ORIENTED_EDGE('',*,*,#152,.F.);
#152 = EDGE_CURVE('',#128,#145,#153,.T.);
#153 = B_SPLINE_CURVE_WITH_KNOTS('',1,(#154,#155),.UNSPECIFIED.,.F.,.F.,
  (2,2),(0.,1.),.PIECEWISE_BEZIER_KNOTS.);
#154 = CARTESIAN_POINT('',(-0.6045,-1.4045,6.E-02));
#155 = CARTESIAN_POINT('',(-0.65,-1.45,0.389));
#156 = B_SPLINE_SURFACE_WITH_KNOTS('',1,1,(
    (#157,#158)
    ,(#159,#160
  )),.UNSPECIFIED.,.F.,.F.,.F.,(2,2),(2,2),(0.,1.3),(0.,1.),
  .PIECEWISE_BEZIER_KNOTS.);
#157 = CARTESIAN_POINT('',(-0.6045,-1.4045,6.E-02));
#158 = CARTESIAN_POINT('',(-0.65,-1.45,0.389));
#159 = CARTESIAN_POINT('',(0.6045,-1.4045,6.E-02));
#160 = CARTESIAN_POINT('',(0.65,-1.45,0.389));
#161 = ADVANCED_FACE('',(#162),#187,.T.);
#162 = FACE_BOUND('',#163,.F.);
#163 = EDGE_LOOP('',(#164,#165,#173,#181));
#164 = ORIENTED_EDGE('',*,*,#127,.T.);
#165 = ORIENTED_EDGE('',*,*,#166,.T.);
#166 = EDGE_CURVE('',#130,#167,#169,.T.);
#167 = VERTEX_POINT('',#168);
#168 = CARTESIAN_POINT('',(0.6045,1.4045,6.E-02));
#169 = LINE('',#170,#171);
#170 = CARTESIAN_POINT('',(0.6045,-1.4045,6.E-02));
#171 = VECTOR('',#172,1.);
#172 = DIRECTION('',(0.,1.,0.));
#173 = ORIENTED_EDGE('',*,*,#174,.T.);
#174 = EDGE_CURVE('',#167,#175,#177,.T.);
#175 = VERTEX_POINT('',#176);
#176 = CARTESIAN_POINT('',(-0.6045,1.4045,6.E-02));
#177 = LINE('',#178,#179);
#178 = CARTESIAN_POINT('',(0.6045,1.4045,6.E-02));
#179 = VECTOR('',#180,1.);
#180 = DIRECTION('',(-1.,0.,0.));
#181 = ORIENTED_EDGE('',*,*,#182,.T.);
#182 = EDGE_CURVE('',#175,#128,#183,.T.);
#183 = LINE('',#184,#185);
#184 = CARTESIAN_POINT('',(-0.6045,1.4045,6.E-02));
#185 = VECTOR('',#186,1.);
#186 = DIRECTION('',(0.,-1.,0.));
#187 = PLANE('',#188);
#188 = AXIS2_PLACEMENT_3D('',#189,#190,#191);
#189 = CARTESIAN_POINT('',(-0.6045,-1.4045,6.E-02));
#190 = DIRECTION('',(0.,0.,-1.));
#191 = DIRECTION('',(0.395339574299,0.9185350407,0.));
#192 = ADVANCED_FACE('',(#193),#210,.T.);
#193 = FACE_BOUND('',#194,.T.);
#194 = EDGE_LOOP('',(#195,#196,#203,#209));
#195 = ORIENTED_EDGE('',*,*,#166,.T.);
#196 = ORIENTED_EDGE('',*,*,#197,.T.);
#197 = EDGE_CURVE('',#167,#198,#200,.T.);
#198 = VERTEX_POINT('',#199);
#199 = CARTESIAN_POINT('',(0.65,1.45,0.389));
#200 = B_SPLINE_CURVE_WITH_KNOTS('',1,(#201,#202),.UNSPECIFIED.,.F.,.F.,
  (2,2),(0.,1.),.PIECEWISE_BEZIER_KNOTS.);
#201 = CARTESIAN_POINT('',(0.6045,1.4045,6.E-02));
#202 = CARTESIAN_POINT('',(0.65,1.45,0.389));
#203 = ORIENTED_EDGE('',*,*,#204,.F.);
#204 = EDGE_CURVE('',#138,#198,#205,.T.);
#205 = LINE('',#206,#207);
#206 = CARTESIAN_POINT('',(0.65,-1.45,0.389));
#207 = VECTOR('',#208,1.);
#208 = DIRECTION('',(0.,1.,0.));
#209 = ORIENTED_EDGE('',*,*,#137,.F.);
#210 = B_SPLINE_SURFACE_WITH_KNOTS('',1,1,(
    (#211,#212)
    ,(#213,#214
  )),.UNSPECIFIED.,.F.,.F.,.F.,(2,2),(2,2),(0.,2.9),(0.,1.),
  .PIECEWISE_BEZIER_KNOTS.);
#211 = CARTESIAN_POINT('',(0.6045,-1.4045,6.E-02));
#212 = CARTESIAN_POINT('',(0.65,-1.45,0.389));
#213 = CARTESIAN_POINT('',(0.6045,1.4045,6.E-02));
#214 = CARTESIAN_POINT('',(0.65,1.45,0.389));
#215 = ADVANCED_FACE('',(#216),#239,.T.);
#216 = FACE_BOUND('',#217,.T.);
#217 = EDGE_LOOP('',(#218,#219,#226,#234));
#218 = ORIENTED_EDGE('',*,*,#144,.T.);
#219 = ORIENTED_EDGE('',*,*,#220,.T.);
#220 = EDGE_CURVE('',#138,#221,#223,.T.);
#221 = VERTEX_POINT('',#222);
#222 = CARTESIAN_POINT('',(0.6045,-1.4045,1.));
#223 = B_SPLINE_CURVE_WITH_KNOTS('',1,(#224,#225),.UNSPECIFIED.,.F.,.F.,
  (2,2),(0.,1.),.PIECEWISE_BEZIER_KNOTS.);
#224 = CARTESIAN_POINT('',(0.65,-1.45,0.389));
#225 = CARTESIAN_POINT('',(0.6045,-1.4045,1.));
#226 = ORIENTED_EDGE('',*,*,#227,.F.);
#227 = EDGE_CURVE('',#228,#221,#230,.T.);
#228 = VERTEX_POINT('',#229);
#229 = CARTESIAN_POINT('',(-0.6045,-1.4045,1.));
#230 = LINE('',#231,#232);
#231 = CARTESIAN_POINT('',(-0.6045,-1.4045,1.));
#232 = VECTOR('',#233,1.);
#233 = DIRECTION('',(1.,0.,0.));
#234 = ORIENTED_EDGE('',*,*,#235,.F.);
#235 = EDGE_CURVE('',#145,#228,#236,.T.);
#236 = B_SPLINE_CURVE_WITH_KNOTS('',1,(#237,#238),.UNSPECIFIED.,.F.,.F.,
  (2,2),(0.,1.),.PIECEWISE_BEZIER_KNOTS.);
#237 = CARTESIAN_POINT('',(-0.65,-1.45,0.389));
#238 = CARTESIAN_POINT('',(-0.6045,-1.4045,1.));
#239 = B_SPLINE_SURFACE_WITH_KNOTS('',1,1,(
    (#240,#241)
    ,(#242,#243
  )),.UNSPECIFIED.,.F.,.F.,.F.,(2,2),(2,2),(0.,1.3),(0.,1.),
  .PIECEWISE_BEZIER_KNOTS.);
#240 = CARTESIAN_POINT('',(-0.65,-1.45,0.389));
#241 = CARTESIAN_POINT('',(-0.6045,-1.4045,1.));
#242 = CARTESIAN_POINT('',(0.65,-1.45,0.389));
#243 = CARTESIAN_POINT('',(0.6045,-1.4045,1.));
#244 = ADVANCED_FACE('',(#245),#262,.T.);
#245 = FACE_BOUND('',#246,.T.);
#246 = EDGE_LOOP('',(#247,#248,#249,#257));
#247 = ORIENTED_EDGE('',*,*,#182,.T.);
#248 = ORIENTED_EDGE('',*,*,#152,.T.);
#249 = ORIENTED_EDGE('',*,*,#250,.F.);
#250 = EDGE_CURVE('',#251,#145,#253,.T.);
#251 = VERTEX_POINT('',#252);
#252 = CARTESIAN_POINT('',(-0.65,1.45,0.389));
#253 = LINE('',#254,#255);
#254 = CARTESIAN_POINT('',(-0.65,1.45,0.389));
#255 = VECTOR('',#256,1.);
#256 = DIRECTION('',(0.,-1.,0.));
#257 = ORIENTED_EDGE('',*,*,#258,.F.);
#258 = EDGE_CURVE('',#175,#251,#259,.T.);
#259 = B_SPLINE_CURVE_WITH_KNOTS('',1,(#260,#261),.UNSPECIFIED.,.F.,.F.,
  (2,2),(0.,1.),.PIECEWISE_BEZIER_KNOTS.);
#260 = CARTESIAN_POINT('',(-0.6045,1.4045,6.E-02));
#261 = CARTESIAN_POINT('',(-0.65,1.45,0.389));
#262 = B_SPLINE_SURFACE_WITH_KNOTS('',1,1,(
    (#263,#264)
    ,(#265,#266
  )),.UNSPECIFIED.,.F.,.F.,.F.,(2,2),(2,2),(0.,2.9),(0.,1.),
  .PIECEWISE_BEZIER_KNOTS.);
#263 = CARTESIAN_POINT('',(-0.6045,1.4045,6.E-02));
#264 = CARTESIAN_POINT('',(-0.65,1.45,0.389));
#265 = CARTESIAN_POINT('',(-0.6045,-1.4045,6.E-02));
#266 = CARTESIAN_POINT('',(-0.65,-1.45,0.389));
#267 = ADVANCED_FACE('',(#268),#279,.T.);
#268 = FACE_BOUND('',#269,.T.);
#269 = EDGE_LOOP('',(#270,#271,#272,#278));
#270 = ORIENTED_EDGE('',*,*,#174,.T.);
#271 = ORIENTED_EDGE('',*,*,#258,.T.);
#272 = ORIENTED_EDGE('',*,*,#273,.F.);
#273 = EDGE_CURVE('',#198,#251,#274,.T.);
#274 = LINE('',#275,#276);
#275 = CARTESIAN_POINT('',(0.65,1.45,0.389));
#276 = VECTOR('',#277,1.);
#277 = DIRECTION('',(-1.,0.,0.));
#278 = ORIENTED_EDGE('',*,*,#197,.F.);
#279 = B_SPLINE_SURFACE_WITH_KNOTS('',1,1,(
    (#280,#281)
    ,(#282,#283
  )),.UNSPECIFIED.,.F.,.F.,.F.,(2,2),(2,2),(0.,1.3),(0.,1.),
  .PIECEWISE_BEZIER_KNOTS.);
#280 = CARTESIAN_POINT('',(0.6045,1.4045,6.E-02));
#281 = CARTESIAN_POINT('',(0.65,1.45,0.389));
#282 = CARTESIAN_POINT('',(-0.6045,1.4045,6.E-02));
#283 = CARTESIAN_POINT('',(-0.65,1.45,0.389));
#284 = ADVANCED_FACE('',(#285),#302,.T.);
#285 = FACE_BOUND('',#286,.T.);
#286 = EDGE_LOOP('',(#287,#288,#295,#301));
#287 = ORIENTED_EDGE('',*,*,#204,.T.);
#288 = ORIENTED_EDGE('',*,*,#289,.T.);
#289 = EDGE_CURVE('',#198,#290,#292,.T.);
#290 = VERTEX_POINT('',#291);
#291 = CARTESIAN_POINT('',(0.6045,1.4045,1.));
#292 = B_SPLINE_CURVE_WITH_KNOTS('',1,(#293,#294),.UNSPECIFIED.,.F.,.F.,
  (2,2),(0.,1.),.PIECEWISE_BEZIER_KNOTS.);
#293 = CARTESIAN_POINT('',(0.65,1.45,0.389));
#294 = CARTESIAN_POINT('',(0.6045,1.4045,1.));
#295 = ORIENTED_EDGE('',*,*,#296,.F.);
#296 = EDGE_CURVE('',#221,#290,#297,.T.);
#297 = LINE('',#298,#299);
#298 = CARTESIAN_POINT('',(0.6045,-1.4045,1.));
#299 = VECTOR('',#300,1.);
#300 = DIRECTION('',(0.,1.,0.));
#301 = ORIENTED_EDGE('',*,*,#220,.F.);
#302 = B_SPLINE_SURFACE_WITH_KNOTS('',1,1,(
    (#303,#304)
    ,(#305,#306
  )),.UNSPECIFIED.,.F.,.F.,.F.,(2,2),(2,2),(0.,2.9),(0.,1.),
  .PIECEWISE_BEZIER_KNOTS.);
#303 = CARTESIAN_POINT('',(0.65,-1.45,0.389));
#304 = CARTESIAN_POINT('',(0.6045,-1.4045,1.));
#305 = CARTESIAN_POINT('',(0.65,1.45,0.389));
#306 = CARTESIAN_POINT('',(0.6045,1.4045,1.));
#307 = ADVANCED_FACE('',(#308,#326),#337,.F.);
#308 = FACE_BOUND('',#309,.F.);
#309 = EDGE_LOOP('',(#310,#311,#319,#325));
#310 = ORIENTED_EDGE('',*,*,#227,.F.);
#311 = ORIENTED_EDGE('',*,*,#312,.F.);
#312 = EDGE_CURVE('',#313,#228,#315,.T.);
#313 = VERTEX_POINT('',#314);
#314 = CARTESIAN_POINT('',(-0.6045,1.4045,1.));
#315 = LINE('',#316,#317);
#316 = CARTESIAN_POINT('',(-0.6045,1.4045,1.));
#317 = VECTOR('',#318,1.);
#318 = DIRECTION('',(0.,-1.,0.));
#319 = ORIENTED_EDGE('',*,*,#320,.F.);
#320 = EDGE_CURVE('',#290,#313,#321,.T.);
#321 = LINE('',#322,#323);
#322 = CARTESIAN_POINT('',(0.6045,1.4045,1.));
#323 = VECTOR('',#324,1.);
#324 = DIRECTION('',(-1.,0.,0.));
#325 = ORIENTED_EDGE('',*,*,#296,.F.);
#326 = FACE_BOUND('',#327,.F.);
#327 = EDGE_LOOP('',(#328));
#328 = ORIENTED_EDGE('',*,*,#329,.T.);
#329 = EDGE_CURVE('',#330,#330,#332,.T.);
#330 = VERTEX_POINT('',#331);
#331 = CARTESIAN_POINT('',(-0.27,1.11,1.));
#332 = CIRCLE('',#333,0.1);
#333 = AXIS2_PLACEMENT_3D('',#334,#335,#336);
#334 = CARTESIAN_POINT('',(-0.37,1.11,1.));
#335 = DIRECTION('',(0.,0.,1.));
#336 = DIRECTION('',(1.,0.,-0.));
#337 = PLANE('',#338);
#338 = AXIS2_PLACEMENT_3D('',#339,#340,#341);
#339 = CARTESIAN_POINT('',(-0.6045,-1.4045,1.));
#340 = DIRECTION('',(0.,0.,-1.));
#341 = DIRECTION('',(0.395339574299,0.9185350407,0.));
#342 = ADVANCED_FACE('',(#343),#353,.T.);
#343 = FACE_BOUND('',#344,.T.);
#344 = EDGE_LOOP('',(#345,#346,#347,#348));
#345 = ORIENTED_EDGE('',*,*,#250,.T.);
#346 = ORIENTED_EDGE('',*,*,#235,.T.);
#347 = ORIENTED_EDGE('',*,*,#312,.F.);
#348 = ORIENTED_EDGE('',*,*,#349,.F.);
#349 = EDGE_CURVE('',#251,#313,#350,.T.);
#350 = B_SPLINE_CURVE_WITH_KNOTS('',1,(#351,#352),.UNSPECIFIED.,.F.,.F.,
  (2,2),(0.,1.),.PIECEWISE_BEZIER_KNOTS.);
#351 = CARTESIAN_POINT('',(-0.65,1.45,0.389));
#352 = CARTESIAN_POINT('',(-0.6045,1.4045,1.));
#353 = B_SPLINE_SURFACE_WITH_KNOTS('',1,1,(
    (#354,#355)
    ,(#356,#357
  )),.UNSPECIFIED.,.F.,.F.,.F.,(2,2),(2,2),(0.,2.9),(0.,1.),
  .PIECEWISE_BEZIER_KNOTS.);
#354 = CARTESIAN_POINT('',(-0.65,1.45,0.389));
#355 = CARTESIAN_POINT('',(-0.6045,1.4045,1.));
#356 = CARTESIAN_POINT('',(-0.65,-1.45,0.389));
#357 = CARTESIAN_POINT('',(-0.6045,-1.4045,1.));
#358 = ADVANCED_FACE('',(#359),#365,.T.);
#359 = FACE_BOUND('',#360,.T.);
#360 = EDGE_LOOP('',(#361,#362,#363,#364));
#361 = ORIENTED_EDGE('',*,*,#273,.T.);
#362 = ORIENTED_EDGE('',*,*,#349,.T.);
#363 = ORIENTED_EDGE('',*,*,#320,.F.);
#364 = ORIENTED_EDGE('',*,*,#289,.F.);
#365 = B_SPLINE_SURFACE_WITH_KNOTS('',1,1,(
    (#366,#367)
    ,(#368,#369
  )),.UNSPECIFIED.,.F.,.F.,.F.,(2,2),(2,2),(0.,1.3),(0.,1.),
  .PIECEWISE_BEZIER_KNOTS.);
#366 = CARTESIAN_POINT('',(0.65,1.45,0.389));
#367 = CARTESIAN_POINT('',(0.6045,1.4045,1.));
#368 = CARTESIAN_POINT('',(-0.65,1.45,0.389));
#369 = CARTESIAN_POINT('',(-0.6045,1.4045,1.));
#370 = ADVANCED_FACE('',(#371),#390,.F.);
#371 = FACE_BOUND('',#372,.F.);
#372 = EDGE_LOOP('',(#373,#374,#382,#389));
#373 = ORIENTED_EDGE('',*,*,#329,.F.);
#374 = ORIENTED_EDGE('',*,*,#375,.F.);
#375 = EDGE_CURVE('',#376,#330,#378,.T.);
#376 = VERTEX_POINT('',#377);
#377 = CARTESIAN_POINT('',(-0.27,1.11,0.975));
#378 = LINE('',#379,#380);
#379 = CARTESIAN_POINT('',(-0.27,1.11,0.975));
#380 = VECTOR('',#381,1.);
#381 = DIRECTION('',(0.,0.,1.));
#382 = ORIENTED_EDGE('',*,*,#383,.T.);
#383 = EDGE_CURVE('',#376,#376,#384,.T.);
#384 = CIRCLE('',#385,0.1);
#385 = AXIS2_PLACEMENT_3D('',#386,#387,#388);
#386 = CARTESIAN_POINT('',(-0.37,1.11,0.975));
#387 = DIRECTION('',(0.,0.,1.));
#388 = DIRECTION('',(1.,0.,-0.));
#389 = ORIENTED_EDGE('',*,*,#375,.T.);
#390 = CYLINDRICAL_SURFACE('',#391,0.1);
#391 = AXIS2_PLACEMENT_3D('',#392,#393,#394);
#392 = CARTESIAN_POINT('',(-0.37,1.11,0.975));
#393 = DIRECTION('',(0.,0.,1.));
#394 = DIRECTION('',(1.,0.,-0.));
#395 = ADVANCED_FACE('',(#396),#399,.T.);
#396 = FACE_BOUND('',#397,.F.);
#397 = EDGE_LOOP('',(#398));
#398 = ORIENTED_EDGE('',*,*,#383,.F.);
#399 = PLANE('',#400);
#400 = AXIS2_PLACEMENT_3D('',#401,#402,#403);
#401 = CARTESIAN_POINT('',(-0.37,1.11,0.975));
#402 = DIRECTION('',(0.,0.,1.));
#403 = DIRECTION('',(1.,0.,-0.));
#404 = ( GEOMETRIC_REPRESENTATION_CONTEXT(3) 
GLOBAL_UNCERTAINTY_ASSIGNED_CONTEXT((#408)) GLOBAL_UNIT_ASSIGNED_CONTEXT
((#405,#406,#407)) REPRESENTATION_CONTEXT('Context #1',
  '3D Context with UNIT and UNCERTAINTY') );
#405 = ( LENGTH_UNIT() NAMED_UNIT(*) SI_UNIT(.MILLI.,.METRE.) );
#406 = ( NAMED_UNIT(*) PLANE_ANGLE_UNIT() SI_UNIT($,.RADIAN.) );
#407 = ( NAMED_UNIT(*) SI_UNIT($,.STERADIAN.) SOLID_ANGLE_UNIT() );
#408 = UNCERTAINTY_MEASURE_WITH_UNIT(LENGTH_MEASURE(1.E-07),#405,
  'distance_accuracy_value','confusion accuracy');
#409 = CONTEXT_DEPENDENT_SHAPE_REPRESENTATION(#410,#412);
#410 = ( REPRESENTATION_RELATIONSHIP('','',#120,#10) 
REPRESENTATION_RELATIONSHIP_WITH_TRANSFORMATION(#411) 
SHAPE_REPRESENTATION_RELATIONSHIP() );
#411 = ITEM_DEFINED_TRANSFORMATION('','',#11,#19);
#412 = PRODUCT_DEFINITION_SHAPE('Placement','Placement of an item',#413
  );
#413 = NEXT_ASSEMBLY_USAGE_OCCURRENCE('2','Molded_body','',#5,#115,$);
#414 = PRODUCT_RELATED_PRODUCT_CATEGORY('part',$,(#117));
#415 = SHAPE_DEFINITION_REPRESENTATION(#416,#422);
#416 = PRODUCT_DEFINITION_SHAPE('','',#417);
#417 = PRODUCT_DEFINITION('design','',#418,#421);
#418 = PRODUCT_DEFINITION_FORMATION('','',#419);
#419 = PRODUCT('Lead_1','Lead_1','',(#420));
#420 = PRODUCT_CONTEXT('',#2,'mechanical');
#421 = PRODUCT_DEFINITION_CONTEXT('part definition',#2,'design');
#422 = ADVANCED_BREP_SHAPE_REPRESENTATION('',(#11,#423),#705);
#423 = MANIFOLD_SOLID_BREP('',#424);
#424 = CLOSED_SHELL('',(#425,#465,#496,#527,#558,#589,#620,#651,#673,
    #689));
#425 = ADVANCED_FACE('',(#426),#460,.T.);
#426 = FACE_BOUND('',#427,.T.);
#427 = EDGE_LOOP('',(#428,#438,#446,#454));
#428 = ORIENTED_EDGE('',*,*,#429,.T.);
#429 = EDGE_CURVE('',#430,#432,#434,.T.);
#430 = VERTEX_POINT('',#431);
#431 = CARTESIAN_POINT('',(-0.59,0.73,0.57));
#432 = VERTEX_POINT('',#433);
#433 = CARTESIAN_POINT('',(-0.59,1.17,0.57));
#434 = LINE('',#435,#436);
#435 = CARTESIAN_POINT('',(-0.59,0.73,0.57));
#436 = VECTOR('',#437,1.);
#437 = DIRECTION('',(0.,1.,0.));
#438 = ORIENTED_EDGE('',*,*,#439,.T.);
#439 = EDGE_CURVE('',#432,#440,#442,.T.);
#440 = VERTEX_POINT('',#441);
#441 = CARTESIAN_POINT('',(-0.67,1.17,0.57));
#442 = LINE('',#443,#444);
#443 = CARTESIAN_POINT('',(-0.59,1.17,0.57));
#444 = VECTOR('',#445,1.);
#445 = DIRECTION('',(-1.,0.,0.));
#446 = ORIENTED_EDGE('',*,*,#447,.F.);
#447 = EDGE_CURVE('',#448,#440,#450,.T.);
#448 = VERTEX_POINT('',#449);
#449 = CARTESIAN_POINT('',(-0.67,0.73,0.57));
#450 = LINE('',#451,#452);
#451 = CARTESIAN_POINT('',(-0.67,0.73,0.57));
#452 = VECTOR('',#453,1.);
#453 = DIRECTION('',(0.,1.,0.));
#454 = ORIENTED_EDGE('',*,*,#455,.F.);
#455 = EDGE_CURVE('',#430,#448,#456,.T.);
#456 = LINE('',#457,#458);
#457 = CARTESIAN_POINT('',(-0.59,0.73,0.57));
#458 = VECTOR('',#459,1.);
#459 = DIRECTION('',(-1.,0.,0.));
#460 = PLANE('',#461);
#461 = AXIS2_PLACEMENT_3D('',#462,#463,#464);
#462 = CARTESIAN_POINT('',(-0.59,0.73,0.57));
#463 = DIRECTION('',(0.,-0.,1.));
#464 = DIRECTION('',(-1.,0.,0.));
#465 = ADVANCED_FACE('',(#466),#491,.T.);
#466 = FACE_BOUND('',#467,.T.);
#467 = EDGE_LOOP('',(#468,#469,#477,#485));
#468 = ORIENTED_EDGE('',*,*,#447,.T.);
#469 = ORIENTED_EDGE('',*,*,#470,.T.);
#470 = EDGE_CURVE('',#440,#471,#473,.T.);
#471 = VERTEX_POINT('',#472);
#472 = CARTESIAN_POINT('',(-0.77,1.17,0.14));
#473 = LINE('',#474,#475);
#474 = CARTESIAN_POINT('',(-0.67,1.17,0.57));
#475 = VECTOR('',#476,1.);
#476 = DIRECTION('',(-0.22651349466,0.,-0.974008027039));
#477 = ORIENTED_EDGE('',*,*,#478,.F.);
#478 = EDGE_CURVE('',#479,#471,#481,.T.);
#479 = VERTEX_POINT('',#480);
#480 = CARTESIAN_POINT('',(-0.77,0.73,0.14));
#481 = LINE('',#482,#483);
#482 = CARTESIAN_POINT('',(-0.77,0.73,0.14));
#483 = VECTOR('',#484,1.);
#484 = DIRECTION('',(0.,1.,0.));
#485 = ORIENTED_EDGE('',*,*,#486,.F.);
#486 = EDGE_CURVE('',#448,#479,#487,.T.);
#487 = LINE('',#488,#489);
#488 = CARTESIAN_POINT('',(-0.67,0.73,0.57));
#489 = VECTOR('',#490,1.);
#490 = DIRECTION('',(-0.22651349466,0.,-0.974008027039));
#491 = PLANE('',#492);
#492 = AXIS2_PLACEMENT_3D('',#493,#494,#495);
#493 = CARTESIAN_POINT('',(-0.67,0.73,0.57));
#494 = DIRECTION('',(-0.974008027039,0.,0.22651349466));
#495 = DIRECTION('',(-0.22651349466,0.,-0.974008027039));
#496 = ADVANCED_FACE('',(#497),#522,.T.);
#497 = FACE_BOUND('',#498,.T.);
#498 = EDGE_LOOP('',(#499,#500,#508,#516));
#499 = ORIENTED_EDGE('',*,*,#478,.T.);
#500 = ORIENTED_EDGE('',*,*,#501,.T.);
#501 = EDGE_CURVE('',#471,#502,#504,.T.);
#502 = VERTEX_POINT('',#503);
#503 = CARTESIAN_POINT('',(-1.2,1.17,0.14));
#504 = LINE('',#505,#506);
#505 = CARTESIAN_POINT('',(-0.77,1.17,0.14));
#506 = VECTOR('',#507,1.);
#507 = DIRECTION('',(-1.,0.,0.));
#508 = ORIENTED_EDGE('',*,*,#509,.F.);
#509 = EDGE_CURVE('',#510,#502,#512,.T.);
#510 = VERTEX_POINT('',#511);
#511 = CARTESIAN_POINT('',(-1.2,0.73,0.14));
#512 = LINE('',#513,#514);
#513 = CARTESIAN_POINT('',(-1.2,0.73,0.14));
#514 = VECTOR('',#515,1.);
#515 = DIRECTION('',(0.,1.,0.));
#516 = ORIENTED_EDGE('',*,*,#517,.F.);
#517 = EDGE_CURVE('',#479,#510,#518,.T.);
#518 = LINE('',#519,#520);
#519 = CARTESIAN_POINT('',(-0.77,0.73,0.14));
#520 = VECTOR('',#521,1.);
#521 = DIRECTION('',(-1.,0.,0.));
#522 = PLANE('',#523);
#523 = AXIS2_PLACEMENT_3D('',#524,#525,#526);
#524 = CARTESIAN_POINT('',(-0.77,0.73,0.14));
#525 = DIRECTION('',(0.,-0.,1.));
#526 = DIRECTION('',(-1.,0.,0.));
#527 = ADVANCED_FACE('',(#528),#553,.T.);
#528 = FACE_BOUND('',#529,.T.);
#529 = EDGE_LOOP('',(#530,#531,#539,#547));
#530 = ORIENTED_EDGE('',*,*,#509,.T.);
#531 = ORIENTED_EDGE('',*,*,#532,.T.);
#532 = EDGE_CURVE('',#502,#533,#535,.T.);
#533 = VERTEX_POINT('',#534);
#534 = CARTESIAN_POINT('',(-1.2,1.17,0.));
#535 = LINE('',#536,#537);
#536 = CARTESIAN_POINT('',(-1.2,1.17,0.14));
#537 = VECTOR('',#538,1.);
#538 = DIRECTION('',(0.,0.,-1.));
#539 = ORIENTED_EDGE('',*,*,#540,.F.);
#540 = EDGE_CURVE('',#541,#533,#543,.T.);
#541 = VERTEX_POINT('',#542);
#542 = CARTESIAN_POINT('',(-1.2,0.73,0.));
#543 = LINE('',#544,#545);
#544 = CARTESIAN_POINT('',(-1.2,0.73,0.));
#545 = VECTOR('',#546,1.);
#546 = DIRECTION('',(0.,1.,0.));
#547 = ORIENTED_EDGE('',*,*,#548,.F.);
#548 = EDGE_CURVE('',#510,#541,#549,.T.);
#549 = LINE('',#550,#551);
#550 = CARTESIAN_POINT('',(-1.2,0.73,0.14));
#551 = VECTOR('',#552,1.);
#552 = DIRECTION('',(0.,0.,-1.));
#553 = PLANE('',#554);
#554 = AXIS2_PLACEMENT_3D('',#555,#556,#557);
#555 = CARTESIAN_POINT('',(-1.2,0.73,0.14));
#556 = DIRECTION('',(-1.,0.,0.));
#557 = DIRECTION('',(0.,0.,-1.));
#558 = ADVANCED_FACE('',(#559),#584,.T.);
#559 = FACE_BOUND('',#560,.T.);
#560 = EDGE_LOOP('',(#561,#562,#570,#578));
#561 = ORIENTED_EDGE('',*,*,#540,.T.);
#562 = ORIENTED_EDGE('',*,*,#563,.T.);
#563 = EDGE_CURVE('',#533,#564,#566,.T.);
#564 = VERTEX_POINT('',#565);
#565 = CARTESIAN_POINT('',(-0.69,1.17,0.));
#566 = LINE('',#567,#568);
#567 = CARTESIAN_POINT('',(-1.2,1.17,0.));
#568 = VECTOR('',#569,1.);
#569 = DIRECTION('',(1.,0.,0.));
#570 = ORIENTED_EDGE('',*,*,#571,.F.);
#571 = EDGE_CURVE('',#572,#564,#574,.T.);
#572 = VERTEX_POINT('',#573);
#573 = CARTESIAN_POINT('',(-0.69,0.73,0.));
#574 = LINE('',#575,#576);
#575 = CARTESIAN_POINT('',(-0.69,0.73,0.));
#576 = VECTOR('',#577,1.);
#577 = DIRECTION('',(0.,1.,0.));
#578 = ORIENTED_EDGE('',*,*,#579,.F.);
#579 = EDGE_CURVE('',#541,#572,#580,.T.);
#580 = LINE('',#581,#582);
#581 = CARTESIAN_POINT('',(-1.2,0.73,0.));
#582 = VECTOR('',#583,1.);
#583 = DIRECTION('',(1.,0.,0.));
#584 = PLANE('',#585);
#585 = AXIS2_PLACEMENT_3D('',#586,#587,#588);
#586 = CARTESIAN_POINT('',(-1.2,0.73,0.));
#587 = DIRECTION('',(0.,0.,-1.));
#588 = DIRECTION('',(1.,0.,0.));
#589 = ADVANCED_FACE('',(#590),#615,.T.);
#590 = FACE_BOUND('',#591,.T.);
#591 = EDGE_LOOP('',(#592,#593,#601,#609));
#592 = ORIENTED_EDGE('',*,*,#571,.T.);
#593 = ORIENTED_EDGE('',*,*,#594,.T.);
#594 = EDGE_CURVE('',#564,#595,#597,.T.);
#595 = VERTEX_POINT('',#596);
#596 = CARTESIAN_POINT('',(-0.62,1.17,0.43));
#597 = LINE('',#598,#599);
#598 = CARTESIAN_POINT('',(-0.69,1.17,0.));
#599 = VECTOR('',#600,1.);
#600 = DIRECTION('',(0.160675602082,0.,0.987007269931));
#601 = ORIENTED_EDGE('',*,*,#602,.F.);
#602 = EDGE_CURVE('',#603,#595,#605,.T.);
#603 = VERTEX_POINT('',#604);
#604 = CARTESIAN_POINT('',(-0.62,0.73,0.43));
#605 = LINE('',#606,#607);
#606 = CARTESIAN_POINT('',(-0.62,0.73,0.43));
#607 = VECTOR('',#608,1.);
#608 = DIRECTION('',(0.,1.,0.));
#609 = ORIENTED_EDGE('',*,*,#610,.F.);
#610 = EDGE_CURVE('',#572,#603,#611,.T.);
#611 = LINE('',#612,#613);
#612 = CARTESIAN_POINT('',(-0.69,0.73,0.));
#613 = VECTOR('',#614,1.);
#614 = DIRECTION('',(0.160675602082,0.,0.987007269931));
#615 = PLANE('',#616);
#616 = AXIS2_PLACEMENT_3D('',#617,#618,#619);
#617 = CARTESIAN_POINT('',(-0.69,0.73,0.));
#618 = DIRECTION('',(0.987007269931,0.,-0.160675602082));
#619 = DIRECTION('',(0.160675602082,0.,0.987007269931));
#620 = ADVANCED_FACE('',(#621),#646,.T.);
#621 = FACE_BOUND('',#622,.T.);
#622 = EDGE_LOOP('',(#623,#624,#632,#640));
#623 = ORIENTED_EDGE('',*,*,#602,.T.);
#624 = ORIENTED_EDGE('',*,*,#625,.T.);
#625 = EDGE_CURVE('',#595,#626,#628,.T.);
#626 = VERTEX_POINT('',#627);
#627 = CARTESIAN_POINT('',(-0.59,1.17,0.43));
#628 = LINE('',#629,#630);
#629 = CARTESIAN_POINT('',(-0.62,1.17,0.43));
#630 = VECTOR('',#631,1.);
#631 = DIRECTION('',(1.,0.,0.));
#632 = ORIENTED_EDGE('',*,*,#633,.F.);
#633 = EDGE_CURVE('',#634,#626,#636,.T.);
#634 = VERTEX_POINT('',#635);
#635 = CARTESIAN_POINT('',(-0.59,0.73,0.43));
#636 = LINE('',#637,#638);
#637 = CARTESIAN_POINT('',(-0.59,0.73,0.43));
#638 = VECTOR('',#639,1.);
#639 = DIRECTION('',(0.,1.,0.));
#640 = ORIENTED_EDGE('',*,*,#641,.F.);
#641 = EDGE_CURVE('',#603,#634,#642,.T.);
#642 = LINE('',#643,#644);
#643 = CARTESIAN_POINT('',(-0.62,0.73,0.43));
#644 = VECTOR('',#645,1.);
#645 = DIRECTION('',(1.,0.,0.));
#646 = PLANE('',#647);
#647 = AXIS2_PLACEMENT_3D('',#648,#649,#650);
#648 = CARTESIAN_POINT('',(-0.62,0.73,0.43));
#649 = DIRECTION('',(0.,0.,-1.));
#650 = DIRECTION('',(1.,0.,0.));
#651 = ADVANCED_FACE('',(#652),#668,.T.);
#652 = FACE_BOUND('',#653,.T.);
#653 = EDGE_LOOP('',(#654,#655,#661,#662));
#654 = ORIENTED_EDGE('',*,*,#633,.T.);
#655 = ORIENTED_EDGE('',*,*,#656,.T.);
#656 = EDGE_CURVE('',#626,#432,#657,.T.);
#657 = LINE('',#658,#659);
#658 = CARTESIAN_POINT('',(-0.59,1.17,0.43));
#659 = VECTOR('',#660,1.);
#660 = DIRECTION('',(0.,0.,1.));
#661 = ORIENTED_EDGE('',*,*,#429,.F.);
#662 = ORIENTED_EDGE('',*,*,#663,.F.);
#663 = EDGE_CURVE('',#634,#430,#664,.T.);
#664 = LINE('',#665,#666);
#665 = CARTESIAN_POINT('',(-0.59,0.73,0.43));
#666 = VECTOR('',#667,1.);
#667 = DIRECTION('',(0.,0.,1.));
#668 = PLANE('',#669);
#669 = AXIS2_PLACEMENT_3D('',#670,#671,#672);
#670 = CARTESIAN_POINT('',(-0.59,0.73,0.43));
#671 = DIRECTION('',(1.,0.,0.));
#672 = DIRECTION('',(0.,0.,1.));
#673 = ADVANCED_FACE('',(#674),#684,.T.);
#674 = FACE_BOUND('',#675,.T.);
#675 = EDGE_LOOP('',(#676,#677,#678,#679,#680,#681,#682,#683));
#676 = ORIENTED_EDGE('',*,*,#455,.T.);
#677 = ORIENTED_EDGE('',*,*,#486,.T.);
#678 = ORIENTED_EDGE('',*,*,#517,.T.);
#679 = ORIENTED_EDGE('',*,*,#548,.T.);
#680 = ORIENTED_EDGE('',*,*,#579,.T.);
#681 = ORIENTED_EDGE('',*,*,#610,.T.);
#682 = ORIENTED_EDGE('',*,*,#641,.T.);
#683 = ORIENTED_EDGE('',*,*,#663,.T.);
#684 = PLANE('',#685);
#685 = AXIS2_PLACEMENT_3D('',#686,#687,#688);
#686 = CARTESIAN_POINT('',(-0.828163772988,0.73,0.203381532938));
#687 = DIRECTION('',(-0.,-1.,-0.));
#688 = DIRECTION('',(0.,0.,-1.));
#689 = ADVANCED_FACE('',(#690),#700,.F.);
#690 = FACE_BOUND('',#691,.F.);
#691 = EDGE_LOOP('',(#692,#693,#694,#695,#696,#697,#698,#699));
#692 = ORIENTED_EDGE('',*,*,#439,.T.);
#693 = ORIENTED_EDGE('',*,*,#470,.T.);
#694 = ORIENTED_EDGE('',*,*,#501,.T.);
#695 = ORIENTED_EDGE('',*,*,#532,.T.);
#696 = ORIENTED_EDGE('',*,*,#563,.T.);
#697 = ORIENTED_EDGE('',*,*,#594,.T.);
#698 = ORIENTED_EDGE('',*,*,#625,.T.);
#699 = ORIENTED_EDGE('',*,*,#656,.T.);
#700 = PLANE('',#701);
#701 = AXIS2_PLACEMENT_3D('',#702,#703,#704);
#702 = CARTESIAN_POINT('',(-0.828163772988,1.17,0.203381532938));
#703 = DIRECTION('',(-0.,-1.,-0.));
#704 = DIRECTION('',(0.,0.,-1.));
#705 = ( GEOMETRIC_REPRESENTATION_CONTEXT(3) 
GLOBAL_UNCERTAINTY_ASSIGNED_CONTEXT((#709)) GLOBAL_UNIT_ASSIGNED_CONTEXT
((#706,#707,#708)) REPRESENTATION_CONTEXT('Context #1',
  '3D Context with UNIT and UNCERTAINTY') );
#706 = ( LENGTH_UNIT() NAMED_UNIT(*) SI_UNIT(.MILLI.,.METRE.) );
#707 = ( NAMED_UNIT(*) PLANE_ANGLE_UNIT() SI_UNIT($,.RADIAN.) );
#708 = ( NAMED_UNIT(*) SI_UNIT($,.STERADIAN.) SOLID_ANGLE_UNIT() );
#709 = UNCERTAINTY_MEASURE_WITH_UNIT(LENGTH_MEASURE(1.E-07),#706,
  'distance_accuracy_value','confusion accuracy');
#710 = CONTEXT_DEPENDENT_SHAPE_REPRESENTATION(#711,#713);
#711 = ( REPRESENTATION_RELATIONSHIP('','',#422,#10) 
REPRESENTATION_RELATIONSHIP_WITH_TRANSFORMATION(#712) 
SHAPE_REPRESENTATION_RELATIONSHIP() );
#712 = ITEM_DEFINED_TRANSFORMATION('','',#11,#23);
#713 = PRODUCT_DEFINITION_SHAPE('Placement','Placement of an item',#714
  );
#714 = NEXT_ASSEMBLY_USAGE_OCCURRENCE('3','Lead_1','',#5,#417,$);
#715 = PRODUCT_RELATED_PRODUCT_CATEGORY('part',$,(#419));
#716 = SHAPE_DEFINITION_REPRESENTATION(#717,#723);
#717 = PRODUCT_DEFINITION_SHAPE('','',#718);
#718 = PRODUCT_DEFINITION('design','',#719,#722);
#719 = PRODUCT_DEFINITION_FORMATION('','',#720);
#720 = PRODUCT('Lead_2','Lead_2','',(#721));
#721 = PRODUCT_CONTEXT('',#2,'mechanical');
#722 = PRODUCT_DEFINITION_CONTEXT('part definition',#2,'design');
#723 = ADVANCED_BREP_SHAPE_REPRESENTATION('',(#11,#724),#1006);
#724 = MANIFOLD_SOLID_BREP('',#725);
#725 = CLOSED_SHELL('',(#726,#766,#797,#828,#859,#890,#921,#952,#974,
    #990));
#726 = ADVANCED_FACE('',(#727),#761,.T.);
#727 = FACE_BOUND('',#728,.T.);
#728 = EDGE_LOOP('',(#729,#739,#747,#755));
#729 = ORIENTED_EDGE('',*,*,#730,.T.);
#730 = EDGE_CURVE('',#731,#733,#735,.T.);
#731 = VERTEX_POINT('',#732);
#732 = CARTESIAN_POINT('',(-0.59,-1.17,0.57));
#733 = VERTEX_POINT('',#734);
#734 = CARTESIAN_POINT('',(-0.59,-0.73,0.57));
#735 = LINE('',#736,#737);
#736 = CARTESIAN_POINT('',(-0.59,-1.17,0.57));
#737 = VECTOR('',#738,1.);
#738 = DIRECTION('',(0.,1.,0.));
#739 = ORIENTED_EDGE('',*,*,#740,.T.);
#740 = EDGE_CURVE('',#733,#741,#743,.T.);
#741 = VERTEX_POINT('',#742);
#742 = CARTESIAN_POINT('',(-0.67,-0.73,0.57));
#743 = LINE('',#744,#745);
#744 = CARTESIAN_POINT('',(-0.59,-0.73,0.57));
#745 = VECTOR('',#746,1.);
#746 = DIRECTION('',(-1.,0.,0.));
#747 = ORIENTED_EDGE('',*,*,#748,.F.);
#748 = EDGE_CURVE('',#749,#741,#751,.T.);
#749 = VERTEX_POINT('',#750);
#750 = CARTESIAN_POINT('',(-0.67,-1.17,0.57));
#751 = LINE('',#752,#753);
#752 = CARTESIAN_POINT('',(-0.67,-1.17,0.57));
#753 = VECTOR('',#754,1.);
#754 = DIRECTION('',(0.,1.,0.));
#755 = ORIENTED_EDGE('',*,*,#756,.F.);
#756 = EDGE_CURVE('',#731,#749,#757,.T.);
#757 = LINE('',#758,#759);
#758 = CARTESIAN_POINT('',(-0.59,-1.17,0.57));
#759 = VECTOR('',#760,1.);
#760 = DIRECTION('',(-1.,0.,0.));
#761 = PLANE('',#762);
#762 = AXIS2_PLACEMENT_3D('',#763,#764,#765);
#763 = CARTESIAN_POINT('',(-0.59,-1.17,0.57));
#764 = DIRECTION('',(0.,-0.,1.));
#765 = DIRECTION('',(-1.,0.,0.));
#766 = ADVANCED_FACE('',(#767),#792,.T.);
#767 = FACE_BOUND('',#768,.T.);
#768 = EDGE_LOOP('',(#769,#770,#778,#786));
#769 = ORIENTED_EDGE('',*,*,#748,.T.);
#770 = ORIENTED_EDGE('',*,*,#771,.T.);
#771 = EDGE_CURVE('',#741,#772,#774,.T.);
#772 = VERTEX_POINT('',#773);
#773 = CARTESIAN_POINT('',(-0.77,-0.73,0.14));
#774 = LINE('',#775,#776);
#775 = CARTESIAN_POINT('',(-0.67,-0.73,0.57));
#776 = VECTOR('',#777,1.);
#777 = DIRECTION('',(-0.22651349466,0.,-0.974008027039));
#778 = ORIENTED_EDGE('',*,*,#779,.F.);
#779 = EDGE_CURVE('',#780,#772,#782,.T.);
#780 = VERTEX_POINT('',#781);
#781 = CARTESIAN_POINT('',(-0.77,-1.17,0.14));
#782 = LINE('',#783,#784);
#783 = CARTESIAN_POINT('',(-0.77,-1.17,0.14));
#784 = VECTOR('',#785,1.);
#785 = DIRECTION('',(0.,1.,0.));
#786 = ORIENTED_EDGE('',*,*,#787,.F.);
#787 = EDGE_CURVE('',#749,#780,#788,.T.);
#788 = LINE('',#789,#790);
#789 = CARTESIAN_POINT('',(-0.67,-1.17,0.57));
#790 = VECTOR('',#791,1.);
#791 = DIRECTION('',(-0.22651349466,0.,-0.974008027039));
#792 = PLANE('',#793);
#793 = AXIS2_PLACEMENT_3D('',#794,#795,#796);
#794 = CARTESIAN_POINT('',(-0.67,-1.17,0.57));
#795 = DIRECTION('',(-0.974008027039,0.,0.22651349466));
#796 = DIRECTION('',(-0.22651349466,0.,-0.974008027039));
#797 = ADVANCED_FACE('',(#798),#823,.T.);
#798 = FACE_BOUND('',#799,.T.);
#799 = EDGE_LOOP('',(#800,#801,#809,#817));
#800 = ORIENTED_EDGE('',*,*,#779,.T.);
#801 = ORIENTED_EDGE('',*,*,#802,.T.);
#802 = EDGE_CURVE('',#772,#803,#805,.T.);
#803 = VERTEX_POINT('',#804);
#804 = CARTESIAN_POINT('',(-1.2,-0.73,0.14));
#805 = LINE('',#806,#807);
#806 = CARTESIAN_POINT('',(-0.77,-0.73,0.14));
#807 = VECTOR('',#808,1.);
#808 = DIRECTION('',(-1.,0.,0.));
#809 = ORIENTED_EDGE('',*,*,#810,.F.);
#810 = EDGE_CURVE('',#811,#803,#813,.T.);
#811 = VERTEX_POINT('',#812);
#812 = CARTESIAN_POINT('',(-1.2,-1.17,0.14));
#813 = LINE('',#814,#815);
#814 = CARTESIAN_POINT('',(-1.2,-1.17,0.14));
#815 = VECTOR('',#816,1.);
#816 = DIRECTION('',(0.,1.,0.));
#817 = ORIENTED_EDGE('',*,*,#818,.F.);
#818 = EDGE_CURVE('',#780,#811,#819,.T.);
#819 = LINE('',#820,#821);
#820 = CARTESIAN_POINT('',(-0.77,-1.17,0.14));
#821 = VECTOR('',#822,1.);
#822 = DIRECTION('',(-1.,0.,0.));
#823 = PLANE('',#824);
#824 = AXIS2_PLACEMENT_3D('',#825,#826,#827);
#825 = CARTESIAN_POINT('',(-0.77,-1.17,0.14));
#826 = DIRECTION('',(0.,-0.,1.));
#827 = DIRECTION('',(-1.,0.,0.));
#828 = ADVANCED_FACE('',(#829),#854,.T.);
#829 = FACE_BOUND('',#830,.T.);
#830 = EDGE_LOOP('',(#831,#832,#840,#848));
#831 = ORIENTED_EDGE('',*,*,#810,.T.);
#832 = ORIENTED_EDGE('',*,*,#833,.T.);
#833 = EDGE_CURVE('',#803,#834,#836,.T.);
#834 = VERTEX_POINT('',#835);
#835 = CARTESIAN_POINT('',(-1.2,-0.73,0.));
#836 = LINE('',#837,#838);
#837 = CARTESIAN_POINT('',(-1.2,-0.73,0.14));
#838 = VECTOR('',#839,1.);
#839 = DIRECTION('',(0.,0.,-1.));
#840 = ORIENTED_EDGE('',*,*,#841,.F.);
#841 = EDGE_CURVE('',#842,#834,#844,.T.);
#842 = VERTEX_POINT('',#843);
#843 = CARTESIAN_POINT('',(-1.2,-1.17,0.));
#844 = LINE('',#845,#846);
#845 = CARTESIAN_POINT('',(-1.2,-1.17,0.));
#846 = VECTOR('',#847,1.);
#847 = DIRECTION('',(0.,1.,0.));
#848 = ORIENTED_EDGE('',*,*,#849,.F.);
#849 = EDGE_CURVE('',#811,#842,#850,.T.);
#850 = LINE('',#851,#852);
#851 = CARTESIAN_POINT('',(-1.2,-1.17,0.14));
#852 = VECTOR('',#853,1.);
#853 = DIRECTION('',(0.,0.,-1.));
#854 = PLANE('',#855);
#855 = AXIS2_PLACEMENT_3D('',#856,#857,#858);
#856 = CARTESIAN_POINT('',(-1.2,-1.17,0.14));
#857 = DIRECTION('',(-1.,0.,0.));
#858 = DIRECTION('',(0.,0.,-1.));
#859 = ADVANCED_FACE('',(#860),#885,.T.);
#860 = FACE_BOUND('',#861,.T.);
#861 = EDGE_LOOP('',(#862,#863,#871,#879));
#862 = ORIENTED_EDGE('',*,*,#841,.T.);
#863 = ORIENTED_EDGE('',*,*,#864,.T.);
#864 = EDGE_CURVE('',#834,#865,#867,.T.);
#865 = VERTEX_POINT('',#866);
#866 = CARTESIAN_POINT('',(-0.69,-0.73,0.));
#867 = LINE('',#868,#869);
#868 = CARTESIAN_POINT('',(-1.2,-0.73,0.));
#869 = VECTOR('',#870,1.);
#870 = DIRECTION('',(1.,0.,0.));
#871 = ORIENTED_EDGE('',*,*,#872,.F.);
#872 = EDGE_CURVE('',#873,#865,#875,.T.);
#873 = VERTEX_POINT('',#874);
#874 = CARTESIAN_POINT('',(-0.69,-1.17,0.));
#875 = LINE('',#876,#877);
#876 = CARTESIAN_POINT('',(-0.69,-1.17,0.));
#877 = VECTOR('',#878,1.);
#878 = DIRECTION('',(0.,1.,0.));
#879 = ORIENTED_EDGE('',*,*,#880,.F.);
#880 = EDGE_CURVE('',#842,#873,#881,.T.);
#881 = LINE('',#882,#883);
#882 = CARTESIAN_POINT('',(-1.2,-1.17,0.));
#883 = VECTOR('',#884,1.);
#884 = DIRECTION('',(1.,0.,0.));
#885 = PLANE('',#886);
#886 = AXIS2_PLACEMENT_3D('',#887,#888,#889);
#887 = CARTESIAN_POINT('',(-1.2,-1.17,0.));
#888 = DIRECTION('',(0.,0.,-1.));
#889 = DIRECTION('',(1.,0.,0.));
#890 = ADVANCED_FACE('',(#891),#916,.T.);
#891 = FACE_BOUND('',#892,.T.);
#892 = EDGE_LOOP('',(#893,#894,#902,#910));
#893 = ORIENTED_EDGE('',*,*,#872,.T.);
#894 = ORIENTED_EDGE('',*,*,#895,.T.);
#895 = EDGE_CURVE('',#865,#896,#898,.T.);
#896 = VERTEX_POINT('',#897);
#897 = CARTESIAN_POINT('',(-0.62,-0.73,0.43));
#898 = LINE('',#899,#900);
#899 = CARTESIAN_POINT('',(-0.69,-0.73,0.));
#900 = VECTOR('',#901,1.);
#901 = DIRECTION('',(0.160675602082,0.,0.987007269931));
#902 = ORIENTED_EDGE('',*,*,#903,.F.);
#903 = EDGE_CURVE('',#904,#896,#906,.T.);
#904 = VERTEX_POINT('',#905);
#905 = CARTESIAN_POINT('',(-0.62,-1.17,0.43));
#906 = LINE('',#907,#908);
#907 = CARTESIAN_POINT('',(-0.62,-1.17,0.43));
#908 = VECTOR('',#909,1.);
#909 = DIRECTION('',(0.,1.,0.));
#910 = ORIENTED_EDGE('',*,*,#911,.F.);
#911 = EDGE_CURVE('',#873,#904,#912,.T.);
#912 = LINE('',#913,#914);
#913 = CARTESIAN_POINT('',(-0.69,-1.17,0.));
#914 = VECTOR('',#915,1.);
#915 = DIRECTION('',(0.160675602082,0.,0.987007269931));
#916 = PLANE('',#917);
#917 = AXIS2_PLACEMENT_3D('',#918,#919,#920);
#918 = CARTESIAN_POINT('',(-0.69,-1.17,0.));
#919 = DIRECTION('',(0.987007269931,0.,-0.160675602082));
#920 = DIRECTION('',(0.160675602082,0.,0.987007269931));
#921 = ADVANCED_FACE('',(#922),#947,.T.);
#922 = FACE_BOUND('',#923,.T.);
#923 = EDGE_LOOP('',(#924,#925,#933,#941));
#924 = ORIENTED_EDGE('',*,*,#903,.T.);
#925 = ORIENTED_EDGE('',*,*,#926,.T.);
#926 = EDGE_CURVE('',#896,#927,#929,.T.);
#927 = VERTEX_POINT('',#928);
#928 = CARTESIAN_POINT('',(-0.59,-0.73,0.43));
#929 = LINE('',#930,#931);
#930 = CARTESIAN_POINT('',(-0.62,-0.73,0.43));
#931 = VECTOR('',#932,1.);
#932 = DIRECTION('',(1.,0.,0.));
#933 = ORIENTED_EDGE('',*,*,#934,.F.);
#934 = EDGE_CURVE('',#935,#927,#937,.T.);
#935 = VERTEX_POINT('',#936);
#936 = CARTESIAN_POINT('',(-0.59,-1.17,0.43));
#937 = LINE('',#938,#939);
#938 = CARTESIAN_POINT('',(-0.59,-1.17,0.43));
#939 = VECTOR('',#940,1.);
#940 = DIRECTION('',(0.,1.,0.));
#941 = ORIENTED_EDGE('',*,*,#942,.F.);
#942 = EDGE_CURVE('',#904,#935,#943,.T.);
#943 = LINE('',#944,#945);
#944 = CARTESIAN_POINT('',(-0.62,-1.17,0.43));
#945 = VECTOR('',#946,1.);
#946 = DIRECTION('',(1.,0.,0.));
#947 = PLANE('',#948);
#948 = AXIS2_PLACEMENT_3D('',#949,#950,#951);
#949 = CARTESIAN_POINT('',(-0.62,-1.17,0.43));
#950 = DIRECTION('',(0.,0.,-1.));
#951 = DIRECTION('',(1.,0.,0.));
#952 = ADVANCED_FACE('',(#953),#969,.T.);
#953 = FACE_BOUND('',#954,.T.);
#954 = EDGE_LOOP('',(#955,#956,#962,#963));
#955 = ORIENTED_EDGE('',*,*,#934,.T.);
#956 = ORIENTED_EDGE('',*,*,#957,.T.);
#957 = EDGE_CURVE('',#927,#733,#958,.T.);
#958 = LINE('',#959,#960);
#959 = CARTESIAN_POINT('',(-0.59,-0.73,0.43));
#960 = VECTOR('',#961,1.);
#961 = DIRECTION('',(0.,0.,1.));
#962 = ORIENTED_EDGE('',*,*,#730,.F.);
#963 = ORIENTED_EDGE('',*,*,#964,.F.);
#964 = EDGE_CURVE('',#935,#731,#965,.T.);
#965 = LINE('',#966,#967);
#966 = CARTESIAN_POINT('',(-0.59,-1.17,0.43));
#967 = VECTOR('',#968,1.);
#968 = DIRECTION('',(0.,0.,1.));
#969 = PLANE('',#970);
#970 = AXIS2_PLACEMENT_3D('',#971,#972,#973);
#971 = CARTESIAN_POINT('',(-0.59,-1.17,0.43));
#972 = DIRECTION('',(1.,0.,0.));
#973 = DIRECTION('',(0.,0.,1.));
#974 = ADVANCED_FACE('',(#975),#985,.T.);
#975 = FACE_BOUND('',#976,.T.);
#976 = EDGE_LOOP('',(#977,#978,#979,#980,#981,#982,#983,#984));
#977 = ORIENTED_EDGE('',*,*,#756,.T.);
#978 = ORIENTED_EDGE('',*,*,#787,.T.);
#979 = ORIENTED_EDGE('',*,*,#818,.T.);
#980 = ORIENTED_EDGE('',*,*,#849,.T.);
#981 = ORIENTED_EDGE('',*,*,#880,.T.);
#982 = ORIENTED_EDGE('',*,*,#911,.T.);
#983 = ORIENTED_EDGE('',*,*,#942,.T.);
#984 = ORIENTED_EDGE('',*,*,#964,.T.);
#985 = PLANE('',#986);
#986 = AXIS2_PLACEMENT_3D('',#987,#988,#989);
#987 = CARTESIAN_POINT('',(-0.828163772988,-1.17,0.203381532938));
#988 = DIRECTION('',(-0.,-1.,-0.));
#989 = DIRECTION('',(0.,0.,-1.));
#990 = ADVANCED_FACE('',(#991),#1001,.F.);
#991 = FACE_BOUND('',#992,.F.);
#992 = EDGE_LOOP('',(#993,#994,#995,#996,#997,#998,#999,#1000));
#993 = ORIENTED_EDGE('',*,*,#740,.T.);
#994 = ORIENTED_EDGE('',*,*,#771,.T.);
#995 = ORIENTED_EDGE('',*,*,#802,.T.);
#996 = ORIENTED_EDGE('',*,*,#833,.T.);
#997 = ORIENTED_EDGE('',*,*,#864,.T.);
#998 = ORIENTED_EDGE('',*,*,#895,.T.);
#999 = ORIENTED_EDGE('',*,*,#926,.T.);
#1000 = ORIENTED_EDGE('',*,*,#957,.T.);
#1001 = PLANE('',#1002);
#1002 = AXIS2_PLACEMENT_3D('',#1003,#1004,#1005);
#1003 = CARTESIAN_POINT('',(-0.828163772988,-0.73,0.203381532938));
#1004 = DIRECTION('',(-0.,-1.,-0.));
#1005 = DIRECTION('',(0.,0.,-1.));
#1006 = ( GEOMETRIC_REPRESENTATION_CONTEXT(3) 
GLOBAL_UNCERTAINTY_ASSIGNED_CONTEXT((#1010)) 
GLOBAL_UNIT_ASSIGNED_CONTEXT((#1007,#1008,#1009)) REPRESENTATION_CONTEXT
('Context #1','3D Context with UNIT and UNCERTAINTY') );
#1007 = ( LENGTH_UNIT() NAMED_UNIT(*) SI_UNIT(.MILLI.,.METRE.) );
#1008 = ( NAMED_UNIT(*) PLANE_ANGLE_UNIT() SI_UNIT($,.RADIAN.) );
#1009 = ( NAMED_UNIT(*) SI_UNIT($,.STERADIAN.) SOLID_ANGLE_UNIT() );
#1010 = UNCERTAINTY_MEASURE_WITH_UNIT(LENGTH_MEASURE(1.E-07),#1007,
  'distance_accuracy_value','confusion accuracy');
#1011 = CONTEXT_DEPENDENT_SHAPE_REPRESENTATION(#1012,#1014);
#1012 = ( REPRESENTATION_RELATIONSHIP('','',#723,#10) 
REPRESENTATION_RELATIONSHIP_WITH_TRANSFORMATION(#1013) 
SHAPE_REPRESENTATION_RELATIONSHIP() );
#1013 = ITEM_DEFINED_TRANSFORMATION('','',#11,#27);
#1014 = PRODUCT_DEFINITION_SHAPE('Placement','Placement of an item',
  #1015);
#1015 = NEXT_ASSEMBLY_USAGE_OCCURRENCE('4','Lead_2','',#5,#718,$);
#1016 = PRODUCT_RELATED_PRODUCT_CATEGORY('part',$,(#720));
#1017 = SHAPE_DEFINITION_REPRESENTATION(#1018,#1024);
#1018 = PRODUCT_DEFINITION_SHAPE('','',#1019);
#1019 = PRODUCT_DEFINITION('design','',#1020,#1023);
#1020 = PRODUCT_DEFINITION_FORMATION('','',#1021);
#1021 = PRODUCT('Lead_3','Lead_3','',(#1022));
#1022 = PRODUCT_CONTEXT('',#2,'mechanical');
#1023 = PRODUCT_DEFINITION_CONTEXT('part definition',#2,'design');
#1024 = ADVANCED_BREP_SHAPE_REPRESENTATION('',(#11,#1025),#1307);
#1025 = MANIFOLD_SOLID_BREP('',#1026);
#1026 = CLOSED_SHELL('',(#1027,#1067,#1098,#1129,#1160,#1191,#1222,#1253
    ,#1275,#1291));
#1027 = ADVANCED_FACE('',(#1028),#1062,.F.);
#1028 = FACE_BOUND('',#1029,.F.);
#1029 = EDGE_LOOP('',(#1030,#1040,#1048,#1056));
#1030 = ORIENTED_EDGE('',*,*,#1031,.T.);
#1031 = EDGE_CURVE('',#1032,#1034,#1036,.T.);
#1032 = VERTEX_POINT('',#1033);
#1033 = CARTESIAN_POINT('',(0.59,-0.22,0.57));
#1034 = VERTEX_POINT('',#1035);
#1035 = CARTESIAN_POINT('',(0.59,0.22,0.57));
#1036 = LINE('',#1037,#1038);
#1037 = CARTESIAN_POINT('',(0.59,-0.22,0.57));
#1038 = VECTOR('',#1039,1.);
#1039 = DIRECTION('',(0.,1.,0.));
#1040 = ORIENTED_EDGE('',*,*,#1041,.T.);
#1041 = EDGE_CURVE('',#1034,#1042,#1044,.T.);
#1042 = VERTEX_POINT('',#1043);
#1043 = CARTESIAN_POINT('',(0.67,0.22,0.57));
#1044 = LINE('',#1045,#1046);
#1045 = CARTESIAN_POINT('',(0.59,0.22,0.57));
#1046 = VECTOR('',#1047,1.);
#1047 = DIRECTION('',(1.,0.,0.));
#1048 = ORIENTED_EDGE('',*,*,#1049,.F.);
#1049 = EDGE_CURVE('',#1050,#1042,#1052,.T.);
#1050 = VERTEX_POINT('',#1051);
#1051 = CARTESIAN_POINT('',(0.67,-0.22,0.57));
#1052 = LINE('',#1053,#1054);
#1053 = CARTESIAN_POINT('',(0.67,-0.22,0.57));
#1054 = VECTOR('',#1055,1.);
#1055 = DIRECTION('',(0.,1.,0.));
#1056 = ORIENTED_EDGE('',*,*,#1057,.F.);
#1057 = EDGE_CURVE('',#1032,#1050,#1058,.T.);
#1058 = LINE('',#1059,#1060);
#1059 = CARTESIAN_POINT('',(0.59,-0.22,0.57));
#1060 = VECTOR('',#1061,1.);
#1061 = DIRECTION('',(1.,0.,0.));
#1062 = PLANE('',#1063);
#1063 = AXIS2_PLACEMENT_3D('',#1064,#1065,#1066);
#1064 = CARTESIAN_POINT('',(0.59,-0.22,0.57));
#1065 = DIRECTION('',(0.,0.,-1.));
#1066 = DIRECTION('',(1.,0.,0.));
#1067 = ADVANCED_FACE('',(#1068),#1093,.F.);
#1068 = FACE_BOUND('',#1069,.F.);
#1069 = EDGE_LOOP('',(#1070,#1071,#1079,#1087));
#1070 = ORIENTED_EDGE('',*,*,#1049,.T.);
#1071 = ORIENTED_EDGE('',*,*,#1072,.T.);
#1072 = EDGE_CURVE('',#1042,#1073,#1075,.T.);
#1073 = VERTEX_POINT('',#1074);
#1074 = CARTESIAN_POINT('',(0.77,0.22,0.14));
#1075 = LINE('',#1076,#1077);
#1076 = CARTESIAN_POINT('',(0.67,0.22,0.57));
#1077 = VECTOR('',#1078,1.);
#1078 = DIRECTION('',(0.22651349466,0.,-0.974008027039));
#1079 = ORIENTED_EDGE('',*,*,#1080,.F.);
#1080 = EDGE_CURVE('',#1081,#1073,#1083,.T.);
#1081 = VERTEX_POINT('',#1082);
#1082 = CARTESIAN_POINT('',(0.77,-0.22,0.14));
#1083 = LINE('',#1084,#1085);
#1084 = CARTESIAN_POINT('',(0.77,-0.22,0.14));
#1085 = VECTOR('',#1086,1.);
#1086 = DIRECTION('',(0.,1.,0.));
#1087 = ORIENTED_EDGE('',*,*,#1088,.F.);
#1088 = EDGE_CURVE('',#1050,#1081,#1089,.T.);
#1089 = LINE('',#1090,#1091);
#1090 = CARTESIAN_POINT('',(0.67,-0.22,0.57));
#1091 = VECTOR('',#1092,1.);
#1092 = DIRECTION('',(0.22651349466,0.,-0.974008027039));
#1093 = PLANE('',#1094);
#1094 = AXIS2_PLACEMENT_3D('',#1095,#1096,#1097);
#1095 = CARTESIAN_POINT('',(0.67,-0.22,0.57));
#1096 = DIRECTION('',(-0.974008027039,0.,-0.22651349466));
#1097 = DIRECTION('',(0.22651349466,0.,-0.974008027039));
#1098 = ADVANCED_FACE('',(#1099),#1124,.F.);
#1099 = FACE_BOUND('',#1100,.F.);
#1100 = EDGE_LOOP('',(#1101,#1102,#1110,#1118));
#1101 = ORIENTED_EDGE('',*,*,#1080,.T.);
#1102 = ORIENTED_EDGE('',*,*,#1103,.T.);
#1103 = EDGE_CURVE('',#1073,#1104,#1106,.T.);
#1104 = VERTEX_POINT('',#1105);
#1105 = CARTESIAN_POINT('',(1.2,0.22,0.14));
#1106 = LINE('',#1107,#1108);
#1107 = CARTESIAN_POINT('',(0.77,0.22,0.14));
#1108 = VECTOR('',#1109,1.);
#1109 = DIRECTION('',(1.,0.,0.));
#1110 = ORIENTED_EDGE('',*,*,#1111,.F.);
#1111 = EDGE_CURVE('',#1112,#1104,#1114,.T.);
#1112 = VERTEX_POINT('',#1113);
#1113 = CARTESIAN_POINT('',(1.2,-0.22,0.14));
#1114 = LINE('',#1115,#1116);
#1115 = CARTESIAN_POINT('',(1.2,-0.22,0.14));
#1116 = VECTOR('',#1117,1.);
#1117 = DIRECTION('',(0.,1.,0.));
#1118 = ORIENTED_EDGE('',*,*,#1119,.F.);
#1119 = EDGE_CURVE('',#1081,#1112,#1120,.T.);
#1120 = LINE('',#1121,#1122);
#1121 = CARTESIAN_POINT('',(0.77,-0.22,0.14));
#1122 = VECTOR('',#1123,1.);
#1123 = DIRECTION('',(1.,0.,0.));
#1124 = PLANE('',#1125);
#1125 = AXIS2_PLACEMENT_3D('',#1126,#1127,#1128);
#1126 = CARTESIAN_POINT('',(0.77,-0.22,0.14));
#1127 = DIRECTION('',(0.,0.,-1.));
#1128 = DIRECTION('',(1.,0.,0.));
#1129 = ADVANCED_FACE('',(#1130),#1155,.F.);
#1130 = FACE_BOUND('',#1131,.F.);
#1131 = EDGE_LOOP('',(#1132,#1133,#1141,#1149));
#1132 = ORIENTED_EDGE('',*,*,#1111,.T.);
#1133 = ORIENTED_EDGE('',*,*,#1134,.T.);
#1134 = EDGE_CURVE('',#1104,#1135,#1137,.T.);
#1135 = VERTEX_POINT('',#1136);
#1136 = CARTESIAN_POINT('',(1.2,0.22,0.));
#1137 = LINE('',#1138,#1139);
#1138 = CARTESIAN_POINT('',(1.2,0.22,0.14));
#1139 = VECTOR('',#1140,1.);
#1140 = DIRECTION('',(0.,0.,-1.));
#1141 = ORIENTED_EDGE('',*,*,#1142,.F.);
#1142 = EDGE_CURVE('',#1143,#1135,#1145,.T.);
#1143 = VERTEX_POINT('',#1144);
#1144 = CARTESIAN_POINT('',(1.2,-0.22,0.));
#1145 = LINE('',#1146,#1147);
#1146 = CARTESIAN_POINT('',(1.2,-0.22,0.));
#1147 = VECTOR('',#1148,1.);
#1148 = DIRECTION('',(0.,1.,0.));
#1149 = ORIENTED_EDGE('',*,*,#1150,.F.);
#1150 = EDGE_CURVE('',#1112,#1143,#1151,.T.);
#1151 = LINE('',#1152,#1153);
#1152 = CARTESIAN_POINT('',(1.2,-0.22,0.14));
#1153 = VECTOR('',#1154,1.);
#1154 = DIRECTION('',(0.,0.,-1.));
#1155 = PLANE('',#1156);
#1156 = AXIS2_PLACEMENT_3D('',#1157,#1158,#1159);
#1157 = CARTESIAN_POINT('',(1.2,-0.22,0.14));
#1158 = DIRECTION('',(-1.,0.,0.));
#1159 = DIRECTION('',(0.,0.,-1.));
#1160 = ADVANCED_FACE('',(#1161),#1186,.F.);
#1161 = FACE_BOUND('',#1162,.F.);
#1162 = EDGE_LOOP('',(#1163,#1164,#1172,#1180));
#1163 = ORIENTED_EDGE('',*,*,#1142,.T.);
#1164 = ORIENTED_EDGE('',*,*,#1165,.T.);
#1165 = EDGE_CURVE('',#1135,#1166,#1168,.T.);
#1166 = VERTEX_POINT('',#1167);
#1167 = CARTESIAN_POINT('',(0.69,0.22,0.));
#1168 = LINE('',#1169,#1170);
#1169 = CARTESIAN_POINT('',(1.2,0.22,0.));
#1170 = VECTOR('',#1171,1.);
#1171 = DIRECTION('',(-1.,0.,0.));
#1172 = ORIENTED_EDGE('',*,*,#1173,.F.);
#1173 = EDGE_CURVE('',#1174,#1166,#1176,.T.);
#1174 = VERTEX_POINT('',#1175);
#1175 = CARTESIAN_POINT('',(0.69,-0.22,0.));
#1176 = LINE('',#1177,#1178);
#1177 = CARTESIAN_POINT('',(0.69,-0.22,0.));
#1178 = VECTOR('',#1179,1.);
#1179 = DIRECTION('',(0.,1.,0.));
#1180 = ORIENTED_EDGE('',*,*,#1181,.F.);
#1181 = EDGE_CURVE('',#1143,#1174,#1182,.T.);
#1182 = LINE('',#1183,#1184);
#1183 = CARTESIAN_POINT('',(1.2,-0.22,0.));
#1184 = VECTOR('',#1185,1.);
#1185 = DIRECTION('',(-1.,0.,0.));
#1186 = PLANE('',#1187);
#1187 = AXIS2_PLACEMENT_3D('',#1188,#1189,#1190);
#1188 = CARTESIAN_POINT('',(1.2,-0.22,0.));
#1189 = DIRECTION('',(0.,-0.,1.));
#1190 = DIRECTION('',(-1.,0.,0.));
#1191 = ADVANCED_FACE('',(#1192),#1217,.F.);
#1192 = FACE_BOUND('',#1193,.F.);
#1193 = EDGE_LOOP('',(#1194,#1195,#1203,#1211));
#1194 = ORIENTED_EDGE('',*,*,#1173,.T.);
#1195 = ORIENTED_EDGE('',*,*,#1196,.T.);
#1196 = EDGE_CURVE('',#1166,#1197,#1199,.T.);
#1197 = VERTEX_POINT('',#1198);
#1198 = CARTESIAN_POINT('',(0.62,0.22,0.43));
#1199 = LINE('',#1200,#1201);
#1200 = CARTESIAN_POINT('',(0.69,0.22,0.));
#1201 = VECTOR('',#1202,1.);
#1202 = DIRECTION('',(-0.160675602082,0.,0.987007269931));
#1203 = ORIENTED_EDGE('',*,*,#1204,.F.);
#1204 = EDGE_CURVE('',#1205,#1197,#1207,.T.);
#1205 = VERTEX_POINT('',#1206);
#1206 = CARTESIAN_POINT('',(0.62,-0.22,0.43));
#1207 = LINE('',#1208,#1209);
#1208 = CARTESIAN_POINT('',(0.62,-0.22,0.43));
#1209 = VECTOR('',#1210,1.);
#1210 = DIRECTION('',(0.,1.,0.));
#1211 = ORIENTED_EDGE('',*,*,#1212,.F.);
#1212 = EDGE_CURVE('',#1174,#1205,#1213,.T.);
#1213 = LINE('',#1214,#1215);
#1214 = CARTESIAN_POINT('',(0.69,-0.22,0.));
#1215 = VECTOR('',#1216,1.);
#1216 = DIRECTION('',(-0.160675602082,0.,0.987007269931));
#1217 = PLANE('',#1218);
#1218 = AXIS2_PLACEMENT_3D('',#1219,#1220,#1221);
#1219 = CARTESIAN_POINT('',(0.69,-0.22,0.));
#1220 = DIRECTION('',(0.987007269931,-0.,0.160675602082));
#1221 = DIRECTION('',(-0.160675602082,0.,0.987007269931));
#1222 = ADVANCED_FACE('',(#1223),#1248,.F.);
#1223 = FACE_BOUND('',#1224,.F.);
#1224 = EDGE_LOOP('',(#1225,#1226,#1234,#1242));
#1225 = ORIENTED_EDGE('',*,*,#1204,.T.);
#1226 = ORIENTED_EDGE('',*,*,#1227,.T.);
#1227 = EDGE_CURVE('',#1197,#1228,#1230,.T.);
#1228 = VERTEX_POINT('',#1229);
#1229 = CARTESIAN_POINT('',(0.59,0.22,0.43));
#1230 = LINE('',#1231,#1232);
#1231 = CARTESIAN_POINT('',(0.62,0.22,0.43));
#1232 = VECTOR('',#1233,1.);
#1233 = DIRECTION('',(-1.,0.,0.));
#1234 = ORIENTED_EDGE('',*,*,#1235,.F.);
#1235 = EDGE_CURVE('',#1236,#1228,#1238,.T.);
#1236 = VERTEX_POINT('',#1237);
#1237 = CARTESIAN_POINT('',(0.59,-0.22,0.43));
#1238 = LINE('',#1239,#1240);
#1239 = CARTESIAN_POINT('',(0.59,-0.22,0.43));
#1240 = VECTOR('',#1241,1.);
#1241 = DIRECTION('',(0.,1.,0.));
#1242 = ORIENTED_EDGE('',*,*,#1243,.F.);
#1243 = EDGE_CURVE('',#1205,#1236,#1244,.T.);
#1244 = LINE('',#1245,#1246);
#1245 = CARTESIAN_POINT('',(0.62,-0.22,0.43));
#1246 = VECTOR('',#1247,1.);
#1247 = DIRECTION('',(-1.,0.,0.));
#1248 = PLANE('',#1249);
#1249 = AXIS2_PLACEMENT_3D('',#1250,#1251,#1252);
#1250 = CARTESIAN_POINT('',(0.62,-0.22,0.43));
#1251 = DIRECTION('',(0.,-0.,1.));
#1252 = DIRECTION('',(-1.,0.,0.));
#1253 = ADVANCED_FACE('',(#1254),#1270,.F.);
#1254 = FACE_BOUND('',#1255,.F.);
#1255 = EDGE_LOOP('',(#1256,#1257,#1263,#1264));
#1256 = ORIENTED_EDGE('',*,*,#1235,.T.);
#1257 = ORIENTED_EDGE('',*,*,#1258,.T.);
#1258 = EDGE_CURVE('',#1228,#1034,#1259,.T.);
#1259 = LINE('',#1260,#1261);
#1260 = CARTESIAN_POINT('',(0.59,0.22,0.43));
#1261 = VECTOR('',#1262,1.);
#1262 = DIRECTION('',(0.,0.,1.));
#1263 = ORIENTED_EDGE('',*,*,#1031,.F.);
#1264 = ORIENTED_EDGE('',*,*,#1265,.F.);
#1265 = EDGE_CURVE('',#1236,#1032,#1266,.T.);
#1266 = LINE('',#1267,#1268);
#1267 = CARTESIAN_POINT('',(0.59,-0.22,0.43));
#1268 = VECTOR('',#1269,1.);
#1269 = DIRECTION('',(0.,0.,1.));
#1270 = PLANE('',#1271);
#1271 = AXIS2_PLACEMENT_3D('',#1272,#1273,#1274);
#1272 = CARTESIAN_POINT('',(0.59,-0.22,0.43));
#1273 = DIRECTION('',(1.,0.,0.));
#1274 = DIRECTION('',(0.,0.,1.));
#1275 = ADVANCED_FACE('',(#1276),#1286,.F.);
#1276 = FACE_BOUND('',#1277,.F.);
#1277 = EDGE_LOOP('',(#1278,#1279,#1280,#1281,#1282,#1283,#1284,#1285));
#1278 = ORIENTED_EDGE('',*,*,#1057,.T.);
#1279 = ORIENTED_EDGE('',*,*,#1088,.T.);
#1280 = ORIENTED_EDGE('',*,*,#1119,.T.);
#1281 = ORIENTED_EDGE('',*,*,#1150,.T.);
#1282 = ORIENTED_EDGE('',*,*,#1181,.T.);
#1283 = ORIENTED_EDGE('',*,*,#1212,.T.);
#1284 = ORIENTED_EDGE('',*,*,#1243,.T.);
#1285 = ORIENTED_EDGE('',*,*,#1265,.T.);
#1286 = PLANE('',#1287);
#1287 = AXIS2_PLACEMENT_3D('',#1288,#1289,#1290);
#1288 = CARTESIAN_POINT('',(0.828163772988,-0.22,0.203381532938));
#1289 = DIRECTION('',(0.,1.,0.));
#1290 = DIRECTION('',(0.,-0.,1.));
#1291 = ADVANCED_FACE('',(#1292),#1302,.T.);
#1292 = FACE_BOUND('',#1293,.T.);
#1293 = EDGE_LOOP('',(#1294,#1295,#1296,#1297,#1298,#1299,#1300,#1301));
#1294 = ORIENTED_EDGE('',*,*,#1041,.T.);
#1295 = ORIENTED_EDGE('',*,*,#1072,.T.);
#1296 = ORIENTED_EDGE('',*,*,#1103,.T.);
#1297 = ORIENTED_EDGE('',*,*,#1134,.T.);
#1298 = ORIENTED_EDGE('',*,*,#1165,.T.);
#1299 = ORIENTED_EDGE('',*,*,#1196,.T.);
#1300 = ORIENTED_EDGE('',*,*,#1227,.T.);
#1301 = ORIENTED_EDGE('',*,*,#1258,.T.);
#1302 = PLANE('',#1303);
#1303 = AXIS2_PLACEMENT_3D('',#1304,#1305,#1306);
#1304 = CARTESIAN_POINT('',(0.828163772988,0.22,0.203381532938));
#1305 = DIRECTION('',(0.,1.,0.));
#1306 = DIRECTION('',(0.,-0.,1.));
#1307 = ( GEOMETRIC_REPRESENTATION_CONTEXT(3) 
GLOBAL_UNCERTAINTY_ASSIGNED_CONTEXT((#1311)) 
GLOBAL_UNIT_ASSIGNED_CONTEXT((#1308,#1309,#1310)) REPRESENTATION_CONTEXT
('Context #1','3D Context with UNIT and UNCERTAINTY') );
#1308 = ( LENGTH_UNIT() NAMED_UNIT(*) SI_UNIT(.MILLI.,.METRE.) );
#1309 = ( NAMED_UNIT(*) PLANE_ANGLE_UNIT() SI_UNIT($,.RADIAN.) );
#1310 = ( NAMED_UNIT(*) SI_UNIT($,.STERADIAN.) SOLID_ANGLE_UNIT() );
#1311 = UNCERTAINTY_MEASURE_WITH_UNIT(LENGTH_MEASURE(1.E-07),#1308,
  'distance_accuracy_value','confusion accuracy');
#1312 = CONTEXT_DEPENDENT_SHAPE_REPRESENTATION(#1313,#1315);
#1313 = ( REPRESENTATION_RELATIONSHIP('','',#1024,#10) 
REPRESENTATION_RELATIONSHIP_WITH_TRANSFORMATION(#1314) 
SHAPE_REPRESENTATION_RELATIONSHIP() );
#1314 = ITEM_DEFINED_TRANSFORMATION('','',#11,#31);
#1315 = PRODUCT_DEFINITION_SHAPE('Placement','Placement of an item',
  #1316);
#1316 = NEXT_ASSEMBLY_USAGE_OCCURRENCE('5','Lead_3','',#5,#1019,$);
#1317 = PRODUCT_RELATED_PRODUCT_CATEGORY('part',$,(#1021));
#1318 = MECHANICAL_DESIGN_GEOMETRIC_PRESENTATION_REPRESENTATION('',(
    #1319),#404);
#1319 = STYLED_ITEM('color',(#1320),#121);
#1320 = PRESENTATION_STYLE_ASSIGNMENT((#1321,#1327));
#1321 = SURFACE_STYLE_USAGE(.BOTH.,#1322);
#1322 = SURFACE_SIDE_STYLE('',(#1323));
#1323 = SURFACE_STYLE_FILL_AREA(#1324);
#1324 = FILL_AREA_STYLE('',(#1325));
#1325 = FILL_AREA_STYLE_COLOUR('',#1326);
#1326 = COLOUR_RGB('',0.104999995596,0.115000003281,0.125000001743);
#1327 = CURVE_STYLE('',#1328,POSITIVE_LENGTH_MEASURE(0.1),#1326);
#1328 = DRAUGHTING_PRE_DEFINED_CURVE_FONT('continuous');
#1329 = MECHANICAL_DESIGN_GEOMETRIC_PRESENTATION_REPRESENTATION('',(
    #1330),#1006);
#1330 = STYLED_ITEM('color',(#1331),#724);
#1331 = PRESENTATION_STYLE_ASSIGNMENT((#1332,#1338));
#1332 = SURFACE_STYLE_USAGE(.BOTH.,#1333);
#1333 = SURFACE_SIDE_STYLE('',(#1334));
#1334 = SURFACE_STYLE_FILL_AREA(#1335);
#1335 = FILL_AREA_STYLE('',(#1336));
#1336 = FILL_AREA_STYLE_COLOUR('',#1337);
#1337 = COLOUR_RGB('',0.759999975995,0.779999965419,0.800000010877);
#1338 = CURVE_STYLE('',#1339,POSITIVE_LENGTH_MEASURE(0.1),#1337);
#1339 = DRAUGHTING_PRE_DEFINED_CURVE_FONT('continuous');
#1340 = MECHANICAL_DESIGN_GEOMETRIC_PRESENTATION_REPRESENTATION('',(
    #1341),#102);
#1341 = STYLED_ITEM('color',(#1342),#49);
#1342 = PRESENTATION_STYLE_ASSIGNMENT((#1343,#1349));
#1343 = SURFACE_STYLE_USAGE(.BOTH.,#1344);
#1344 = SURFACE_SIDE_STYLE('',(#1345));
#1345 = SURFACE_STYLE_FILL_AREA(#1346);
#1346 = FILL_AREA_STYLE('',(#1347));
#1347 = FILL_AREA_STYLE_COLOUR('',#1348);
#1348 = COLOUR_RGB('',0.479999987737,0.490000003723,0.460000000054);
#1349 = CURVE_STYLE('',#1350,POSITIVE_LENGTH_MEASURE(0.1),#1348);
#1350 = DRAUGHTING_PRE_DEFINED_CURVE_FONT('continuous');
#1351 = MECHANICAL_DESIGN_GEOMETRIC_PRESENTATION_REPRESENTATION('',(
    #1352),#705);
#1352 = STYLED_ITEM('color',(#1353),#423);
#1353 = PRESENTATION_STYLE_ASSIGNMENT((#1354,#1359));
#1354 = SURFACE_STYLE_USAGE(.BOTH.,#1355);
#1355 = SURFACE_SIDE_STYLE('',(#1356));
#1356 = SURFACE_STYLE_FILL_AREA(#1357);
#1357 = FILL_AREA_STYLE('',(#1358));
#1358 = FILL_AREA_STYLE_COLOUR('',#1337);
#1359 = CURVE_STYLE('',#1360,POSITIVE_LENGTH_MEASURE(0.1),#1337);
#1360 = DRAUGHTING_PRE_DEFINED_CURVE_FONT('continuous');
#1361 = MECHANICAL_DESIGN_GEOMETRIC_PRESENTATION_REPRESENTATION('',(
    #1362),#1307);
#1362 = STYLED_ITEM('color',(#1363),#1025);
#1363 = PRESENTATION_STYLE_ASSIGNMENT((#1364,#1369));
#1364 = SURFACE_STYLE_USAGE(.BOTH.,#1365);
#1365 = SURFACE_SIDE_STYLE('',(#1366));
#1366 = SURFACE_STYLE_FILL_AREA(#1367);
#1367 = FILL_AREA_STYLE('',(#1368));
#1368 = FILL_AREA_STYLE_COLOUR('',#1337);
#1369 = CURVE_STYLE('',#1370,POSITIVE_LENGTH_MEASURE(0.1),#1337);
#1370 = DRAUGHTING_PRE_DEFINED_CURVE_FONT('continuous');
ENDSEC;
END-ISO-10303-21;
