ISO-10303-21;
HEADER;
FILE_DESCRIPTION(('FreeCAD Model'),'2;1');
FILE_NAME('Open CASCADE Shape Model','2026-10-03T19:11:31',('Author'),(
    ''),'Open CASCADE STEP processor 7.8','FreeCAD','Unknown');
FILE_SCHEMA(('AUTOMOTIVE_DESIGN { 1 0 10303 214 1 1 1 1 }'));
ENDSEC;
DATA;
#1 = APPLICATION_PROTOCOL_DEFINITION('international standard',
  'automotive_design',2000,#2);
#2 = APPLICATION_CONTEXT(
  'core data for automotive mechanical design processes');
#3 = SHAPE_DEFINITION_REPRESENTATION(#4,#10);
#4 = PRODUCT_DEFINITION_SHAPE('','',#5);
#5 = PRODUCT_DEFINITION('design','',#6,#9);
#6 = PRODUCT_DEFINITION_FORMATION('','',#7);
#7 = PRODUCT('Passive15','Passive15','',(#8));
#8 = PRODUCT_CONTEXT('',#2,'mechanical');
#9 = PRODUCT_DEFINITION_CONTEXT('part definition',#2,'design');
#10 = SHAPE_REPRESENTATION('',(#11,#15,#19,#23,#27),#31);
#11 = AXIS2_PLACEMENT_3D('',#12,#13,#14);
#12 = CARTESIAN_POINT('',(0.,0.,0.));
#13 = DIRECTION('',(0.,0.,1.));
#14 = DIRECTION('',(1.,0.,-0.));
#15 = AXIS2_PLACEMENT_3D('',#16,#17,#18);
#16 = CARTESIAN_POINT('',(0.,0.,0.));
#17 = DIRECTION('',(0.,0.,1.));
#18 = DIRECTION('',(1.,0.,0.));
#19 = AXIS2_PLACEMENT_3D('',#20,#21,#22);
#20 = CARTESIAN_POINT('',(0.,0.,0.));
#21 = DIRECTION('',(0.,0.,1.));
#22 = DIRECTION('',(1.,0.,0.));
#23 = AXIS2_PLACEMENT_3D('',#24,#25,#26);
#24 = CARTESIAN_POINT('',(0.,0.,0.));
#25 = DIRECTION('',(0.,0.,1.));
#26 = DIRECTION('',(1.,0.,0.));
#27 = AXIS2_PLACEMENT_3D('',#28,#29,#30);
#28 = CARTESIAN_POINT('',(0.,0.,0.));
#29 = DIRECTION('',(0.,0.,1.));
#30 = DIRECTION('',(1.,0.,0.));
#31 = ( GEOMETRIC_REPRESENTATION_CONTEXT(3) 
GLOBAL_UNCERTAINTY_ASSIGNED_CONTEXT((#35)) GLOBAL_UNIT_ASSIGNED_CONTEXT(
(#32,#33,#34)) REPRESENTATION_CONTEXT('Context #1',
  '3D Context with UNIT and UNCERTAINTY') );
#32 = ( LENGTH_UNIT() NAMED_UNIT(*) SI_UNIT(.MILLI.,.METRE.) );
#33 = ( NAMED_UNIT(*) PLANE_ANGLE_UNIT() SI_UNIT($,.RADIAN.) );
#34 = ( NAMED_UNIT(*) SI_UNIT($,.STERADIAN.) SOLID_ANGLE_UNIT() );
#35 = UNCERTAINTY_MEASURE_WITH_UNIT(LENGTH_MEASURE(1.E-07),#32,
  'distance_accuracy_value','confusion accuracy');
#36 = PRODUCT_RELATED_PRODUCT_CATEGORY('part',$,(#7));
#37 = SHAPE_DEFINITION_REPRESENTATION(#38,#44);
#38 = PRODUCT_DEFINITION_SHAPE('','',#39);
#39 = PRODUCT_DEFINITION('design','',#40,#43);
#40 = PRODUCT_DEFINITION_FORMATION('','',#41);
#41 = PRODUCT('Magnetic_resin_body_nominal_XY_max_H',
  'Magnetic_resin_body_nominal_XY_max_H','',(#42));
#42 = PRODUCT_CONTEXT('',#2,'mechanical');
#43 = PRODUCT_DEFINITION_CONTEXT('part definition',#2,'design');
#44 = ADVANCED_BREP_SHAPE_REPRESENTATION('',(#11,#45),#327);
#45 = MANIFOLD_SOLID_BREP('',#46);
#46 = CLOSED_SHELL('',(#47,#87,#150,#174,#230,#247,#264,#281,#298,#315)
  );
#47 = ADVANCED_FACE('',(#48),#82,.F.);
#48 = FACE_BOUND('',#49,.F.);
#49 = EDGE_LOOP('',(#50,#60,#68,#76));
#50 = ORIENTED_EDGE('',*,*,#51,.F.);
#51 = EDGE_CURVE('',#52,#54,#56,.T.);
#52 = VERTEX_POINT('',#53);
#53 = CARTESIAN_POINT('',(-4.,-3.4,0.12));
#54 = VERTEX_POINT('',#55);
#55 = CARTESIAN_POINT('',(-3.4,-4.,0.12));
#56 = LINE('',#57,#58);
#57 = CARTESIAN_POINT('',(-4.,-3.4,0.12));
#58 = VECTOR('',#59,1.);
#59 = DIRECTION('',(0.707106781187,-0.707106781187,0.));
#60 = ORIENTED_EDGE('',*,*,#61,.T.);
#61 = EDGE_CURVE('',#52,#62,#64,.T.);
#62 = VERTEX_POINT('',#63);
#63 = CARTESIAN_POINT('',(-4.,-3.4,6.32));
#64 = LINE('',#65,#66);
#65 = CARTESIAN_POINT('',(-4.,-3.4,0.12));
#66 = VECTOR('',#67,1.);
#67 = DIRECTION('',(0.,0.,1.));
#68 = ORIENTED_EDGE('',*,*,#69,.T.);
#69 = EDGE_CURVE('',#62,#70,#72,.T.);
#70 = VERTEX_POINT('',#71);
#71 = CARTESIAN_POINT('',(-3.4,-4.,6.32));
#72 = LINE('',#73,#74);
#73 = CARTESIAN_POINT('',(-4.,-3.4,6.32));
#74 = VECTOR('',#75,1.);
#75 = DIRECTION('',(0.707106781187,-0.707106781187,0.));
#76 = ORIENTED_EDGE('',*,*,#77,.F.);
#77 = EDGE_CURVE('',#54,#70,#78,.T.);
#78 = LINE('',#79,#80);
#79 = CARTESIAN_POINT('',(-3.4,-4.,0.12));
#80 = VECTOR('',#81,1.);
#81 = DIRECTION('',(0.,0.,1.));
#82 = PLANE('',#83);
#83 = AXIS2_PLACEMENT_3D('',#84,#85,#86);
#84 = CARTESIAN_POINT('',(-4.,-3.4,0.12));
#85 = DIRECTION('',(0.707106781187,0.707106781187,-0.));
#86 = DIRECTION('',(0.707106781187,-0.707106781187,0.));
#87 = ADVANCED_FACE('',(#88),#145,.F.);
#88 = FACE_BOUND('',#89,.F.);
#89 = EDGE_LOOP('',(#90,#91,#99,#107,#115,#123,#131,#139));
#90 = ORIENTED_EDGE('',*,*,#51,.T.);
#91 = ORIENTED_EDGE('',*,*,#92,.T.);
#92 = EDGE_CURVE('',#54,#93,#95,.T.);
#93 = VERTEX_POINT('',#94);
#94 = CARTESIAN_POINT('',(3.4,-4.,0.12));
#95 = LINE('',#96,#97);
#96 = CARTESIAN_POINT('',(-3.4,-4.,0.12));
#97 = VECTOR('',#98,1.);
#98 = DIRECTION('',(1.,0.,0.));
#99 = ORIENTED_EDGE('',*,*,#100,.T.);
#100 = EDGE_CURVE('',#93,#101,#103,.T.);
#101 = VERTEX_POINT('',#102);
#102 = CARTESIAN_POINT('',(4.,-3.4,0.12));
#103 = LINE('',#104,#105);
#104 = CARTESIAN_POINT('',(3.4,-4.,0.12));
#105 = VECTOR('',#106,1.);
#106 = DIRECTION('',(0.707106781187,0.707106781187,0.));
#107 = ORIENTED_EDGE('',*,*,#108,.T.);
#108 = EDGE_CURVE('',#101,#109,#111,.T.);
#109 = VERTEX_POINT('',#110);
#110 = CARTESIAN_POINT('',(4.,3.4,0.12));
#111 = LINE('',#112,#113);
#112 = CARTESIAN_POINT('',(4.,-3.4,0.12));
#113 = VECTOR('',#114,1.);
#114 = DIRECTION('',(0.,1.,0.));
#115 = ORIENTED_EDGE('',*,*,#116,.T.);
#116 = EDGE_CURVE('',#109,#117,#119,.T.);
#117 = VERTEX_POINT('',#118);
#118 = CARTESIAN_POINT('',(3.4,4.,0.12));
#119 = LINE('',#120,#121);
#120 = CARTESIAN_POINT('',(4.,3.4,0.12));
#121 = VECTOR('',#122,1.);
#122 = DIRECTION('',(-0.707106781187,0.707106781187,0.));
#123 = ORIENTED_EDGE('',*,*,#124,.T.);
#124 = EDGE_CURVE('',#117,#125,#127,.T.);
#125 = VERTEX_POINT('',#126);
#126 = CARTESIAN_POINT('',(-3.4,4.,0.12));
#127 = LINE('',#128,#129);
#128 = CARTESIAN_POINT('',(3.4,4.,0.12));
#129 = VECTOR('',#130,1.);
#130 = DIRECTION('',(-1.,0.,0.));
#131 = ORIENTED_EDGE('',*,*,#132,.T.);
#132 = EDGE_CURVE('',#125,#133,#135,.T.);
#133 = VERTEX_POINT('',#134);
#134 = CARTESIAN_POINT('',(-4.,3.4,0.12));
#135 = LINE('',#136,#137);
#136 = CARTESIAN_POINT('',(-3.4,4.,0.12));
#137 = VECTOR('',#138,1.);
#138 = DIRECTION('',(-0.707106781187,-0.707106781187,0.));
#139 = ORIENTED_EDGE('',*,*,#140,.T.);
#140 = EDGE_CURVE('',#133,#52,#141,.T.);
#141 = LINE('',#142,#143);
#142 = CARTESIAN_POINT('',(-4.,3.4,0.12));
#143 = VECTOR('',#144,1.);
#144 = DIRECTION('',(0.,-1.,0.));
#145 = PLANE('',#146);
#146 = AXIS2_PLACEMENT_3D('',#147,#148,#149);
#147 = CARTESIAN_POINT('',(-1.161240965244E-16,5.806204826222E-17,0.12)
  );
#148 = DIRECTION('',(0.,0.,1.));
#149 = DIRECTION('',(1.,0.,-0.));
#150 = ADVANCED_FACE('',(#151),#169,.F.);
#151 = FACE_BOUND('',#152,.F.);
#152 = EDGE_LOOP('',(#153,#154,#155,#163));
#153 = ORIENTED_EDGE('',*,*,#92,.F.);
#154 = ORIENTED_EDGE('',*,*,#77,.T.);
#155 = ORIENTED_EDGE('',*,*,#156,.T.);
#156 = EDGE_CURVE('',#70,#157,#159,.T.);
#157 = VERTEX_POINT('',#158);
#158 = CARTESIAN_POINT('',(3.4,-4.,6.32));
#159 = LINE('',#160,#161);
#160 = CARTESIAN_POINT('',(-3.4,-4.,6.32));
#161 = VECTOR('',#162,1.);
#162 = DIRECTION('',(1.,0.,0.));
#163 = ORIENTED_EDGE('',*,*,#164,.F.);
#164 = EDGE_CURVE('',#93,#157,#165,.T.);
#165 = LINE('',#166,#167);
#166 = CARTESIAN_POINT('',(3.4,-4.,0.12));
#167 = VECTOR('',#168,1.);
#168 = DIRECTION('',(0.,0.,1.));
#169 = PLANE('',#170);
#170 = AXIS2_PLACEMENT_3D('',#171,#172,#173);
#171 = CARTESIAN_POINT('',(-3.4,-4.,0.12));
#172 = DIRECTION('',(0.,1.,0.));
#173 = DIRECTION('',(1.,0.,0.));
#174 = ADVANCED_FACE('',(#175),#225,.T.);
#175 = FACE_BOUND('',#176,.T.);
#176 = EDGE_LOOP('',(#177,#178,#179,#187,#195,#203,#211,#219));
#177 = ORIENTED_EDGE('',*,*,#69,.T.);
#178 = ORIENTED_EDGE('',*,*,#156,.T.);
#179 = ORIENTED_EDGE('',*,*,#180,.T.);
#180 = EDGE_CURVE('',#157,#181,#183,.T.);
#181 = VERTEX_POINT('',#182);
#182 = CARTESIAN_POINT('',(4.,-3.4,6.32));
#183 = LINE('',#184,#185);
#184 = CARTESIAN_POINT('',(3.4,-4.,6.32));
#185 = VECTOR('',#186,1.);
#186 = DIRECTION('',(0.707106781187,0.707106781187,0.));
#187 = ORIENTED_EDGE('',*,*,#188,.T.);
#188 = EDGE_CURVE('',#181,#189,#191,.T.);
#189 = VERTEX_POINT('',#190);
#190 = CARTESIAN_POINT('',(4.,3.4,6.32));
#191 = LINE('',#192,#193);
#192 = CARTESIAN_POINT('',(4.,-3.4,6.32));
#193 = VECTOR('',#194,1.);
#194 = DIRECTION('',(0.,1.,0.));
#195 = ORIENTED_EDGE('',*,*,#196,.T.);
#196 = EDGE_CURVE('',#189,#197,#199,.T.);
#197 = VERTEX_POINT('',#198);
#198 = CARTESIAN_POINT('',(3.4,4.,6.32));
#199 = LINE('',#200,#201);
#200 = CARTESIAN_POINT('',(4.,3.4,6.32));
#201 = VECTOR('',#202,1.);
#202 = DIRECTION('',(-0.707106781187,0.707106781187,0.));
#203 = ORIENTED_EDGE('',*,*,#204,.T.);
#204 = EDGE_CURVE('',#197,#205,#207,.T.);
#205 = VERTEX_POINT('',#206);
#206 = CARTESIAN_POINT('',(-3.4,4.,6.32));
#207 = LINE('',#208,#209);
#208 = CARTESIAN_POINT('',(3.4,4.,6.32));
#209 = VECTOR('',#210,1.);
#210 = DIRECTION('',(-1.,0.,0.));
#211 = ORIENTED_EDGE('',*,*,#212,.T.);
#212 = EDGE_CURVE('',#205,#213,#215,.T.);
#213 = VERTEX_POINT('',#214);
#214 = CARTESIAN_POINT('',(-4.,3.4,6.32));
#215 = LINE('',#216,#217);
#216 = CARTESIAN_POINT('',(-3.4,4.,6.32));
#217 = VECTOR('',#218,1.);
#218 = DIRECTION('',(-0.707106781187,-0.707106781187,0.));
#219 = ORIENTED_EDGE('',*,*,#220,.T.);
#220 = EDGE_CURVE('',#213,#62,#221,.T.);
#221 = LINE('',#222,#223);
#222 = CARTESIAN_POINT('',(-4.,3.4,6.32));
#223 = VECTOR('',#224,1.);
#224 = DIRECTION('',(0.,-1.,0.));
#225 = PLANE('',#226);
#226 = AXIS2_PLACEMENT_3D('',#227,#228,#229);
#227 = CARTESIAN_POINT('',(-1.161240965244E-16,5.806204826222E-17,6.32)
  );
#228 = DIRECTION('',(0.,0.,1.));
#229 = DIRECTION('',(1.,0.,-0.));
#230 = ADVANCED_FACE('',(#231),#242,.F.);
#231 = FACE_BOUND('',#232,.F.);
#232 = EDGE_LOOP('',(#233,#234,#240,#241));
#233 = ORIENTED_EDGE('',*,*,#140,.F.);
#234 = ORIENTED_EDGE('',*,*,#235,.T.);
#235 = EDGE_CURVE('',#133,#213,#236,.T.);
#236 = LINE('',#237,#238);
#237 = CARTESIAN_POINT('',(-4.,3.4,0.12));
#238 = VECTOR('',#239,1.);
#239 = DIRECTION('',(0.,0.,1.));
#240 = ORIENTED_EDGE('',*,*,#220,.T.);
#241 = ORIENTED_EDGE('',*,*,#61,.F.);
#242 = PLANE('',#243);
#243 = AXIS2_PLACEMENT_3D('',#244,#245,#246);
#244 = CARTESIAN_POINT('',(-4.,3.4,0.12));
#245 = DIRECTION('',(1.,0.,-0.));
#246 = DIRECTION('',(0.,-1.,0.));
#247 = ADVANCED_FACE('',(#248),#259,.F.);
#248 = FACE_BOUND('',#249,.F.);
#249 = EDGE_LOOP('',(#250,#251,#252,#253));
#250 = ORIENTED_EDGE('',*,*,#100,.F.);
#251 = ORIENTED_EDGE('',*,*,#164,.T.);
#252 = ORIENTED_EDGE('',*,*,#180,.T.);
#253 = ORIENTED_EDGE('',*,*,#254,.F.);
#254 = EDGE_CURVE('',#101,#181,#255,.T.);
#255 = LINE('',#256,#257);
#256 = CARTESIAN_POINT('',(4.,-3.4,0.12));
#257 = VECTOR('',#258,1.);
#258 = DIRECTION('',(0.,0.,1.));
#259 = PLANE('',#260);
#260 = AXIS2_PLACEMENT_3D('',#261,#262,#263);
#261 = CARTESIAN_POINT('',(3.4,-4.,0.12));
#262 = DIRECTION('',(-0.707106781187,0.707106781187,0.));
#263 = DIRECTION('',(0.707106781187,0.707106781187,0.));
#264 = ADVANCED_FACE('',(#265),#276,.F.);
#265 = FACE_BOUND('',#266,.F.);
#266 = EDGE_LOOP('',(#267,#268,#269,#270));
#267 = ORIENTED_EDGE('',*,*,#108,.F.);
#268 = ORIENTED_EDGE('',*,*,#254,.T.);
#269 = ORIENTED_EDGE('',*,*,#188,.T.);
#270 = ORIENTED_EDGE('',*,*,#271,.F.);
#271 = EDGE_CURVE('',#109,#189,#272,.T.);
#272 = LINE('',#273,#274);
#273 = CARTESIAN_POINT('',(4.,3.4,0.12));
#274 = VECTOR('',#275,1.);
#275 = DIRECTION('',(0.,0.,1.));
#276 = PLANE('',#277);
#277 = AXIS2_PLACEMENT_3D('',#278,#279,#280);
#278 = CARTESIAN_POINT('',(4.,-3.4,0.12));
#279 = DIRECTION('',(-1.,0.,0.));
#280 = DIRECTION('',(0.,1.,0.));
#281 = ADVANCED_FACE('',(#282),#293,.F.);
#282 = FACE_BOUND('',#283,.F.);
#283 = EDGE_LOOP('',(#284,#285,#286,#287));
#284 = ORIENTED_EDGE('',*,*,#116,.F.);
#285 = ORIENTED_EDGE('',*,*,#271,.T.);
#286 = ORIENTED_EDGE('',*,*,#196,.T.);
#287 = ORIENTED_EDGE('',*,*,#288,.F.);
#288 = EDGE_CURVE('',#117,#197,#289,.T.);
#289 = LINE('',#290,#291);
#290 = CARTESIAN_POINT('',(3.4,4.,0.12));
#291 = VECTOR('',#292,1.);
#292 = DIRECTION('',(0.,0.,1.));
#293 = PLANE('',#294);
#294 = AXIS2_PLACEMENT_3D('',#295,#296,#297);
#295 = CARTESIAN_POINT('',(4.,3.4,0.12));
#296 = DIRECTION('',(-0.707106781187,-0.707106781187,0.));
#297 = DIRECTION('',(-0.707106781187,0.707106781187,0.));
#298 = ADVANCED_FACE('',(#299),#310,.F.);
#299 = FACE_BOUND('',#300,.F.);
#300 = EDGE_LOOP('',(#301,#302,#303,#304));
#301 = ORIENTED_EDGE('',*,*,#124,.F.);
#302 = ORIENTED_EDGE('',*,*,#288,.T.);
#303 = ORIENTED_EDGE('',*,*,#204,.T.);
#304 = ORIENTED_EDGE('',*,*,#305,.F.);
#305 = EDGE_CURVE('',#125,#205,#306,.T.);
#306 = LINE('',#307,#308);
#307 = CARTESIAN_POINT('',(-3.4,4.,0.12));
#308 = VECTOR('',#309,1.);
#309 = DIRECTION('',(0.,0.,1.));
#310 = PLANE('',#311);
#311 = AXIS2_PLACEMENT_3D('',#312,#313,#314);
#312 = CARTESIAN_POINT('',(3.4,4.,0.12));
#313 = DIRECTION('',(0.,-1.,0.));
#314 = DIRECTION('',(-1.,0.,0.));
#315 = ADVANCED_FACE('',(#316),#322,.F.);
#316 = FACE_BOUND('',#317,.F.);
#317 = EDGE_LOOP('',(#318,#319,#320,#321));
#318 = ORIENTED_EDGE('',*,*,#132,.F.);
#319 = ORIENTED_EDGE('',*,*,#305,.T.);
#320 = ORIENTED_EDGE('',*,*,#212,.T.);
#321 = ORIENTED_EDGE('',*,*,#235,.F.);
#322 = PLANE('',#323);
#323 = AXIS2_PLACEMENT_3D('',#324,#325,#326);
#324 = CARTESIAN_POINT('',(-3.4,4.,0.12));
#325 = DIRECTION('',(0.707106781187,-0.707106781187,0.));
#326 = DIRECTION('',(-0.707106781187,-0.707106781187,0.));
#327 = ( GEOMETRIC_REPRESENTATION_CONTEXT(3) 
GLOBAL_UNCERTAINTY_ASSIGNED_CONTEXT((#331)) GLOBAL_UNIT_ASSIGNED_CONTEXT
((#328,#329,#330)) REPRESENTATION_CONTEXT('Context #1',
  '3D Context with UNIT and UNCERTAINTY') );
#328 = ( LENGTH_UNIT() NAMED_UNIT(*) SI_UNIT(.MILLI.,.METRE.) );
#329 = ( NAMED_UNIT(*) PLANE_ANGLE_UNIT() SI_UNIT($,.RADIAN.) );
#330 = ( NAMED_UNIT(*) SI_UNIT($,.STERADIAN.) SOLID_ANGLE_UNIT() );
#331 = UNCERTAINTY_MEASURE_WITH_UNIT(LENGTH_MEASURE(1.E-07),#328,
  'distance_accuracy_value','confusion accuracy');
#332 = CONTEXT_DEPENDENT_SHAPE_REPRESENTATION(#333,#335);
#333 = ( REPRESENTATION_RELATIONSHIP('','',#44,#10) 
REPRESENTATION_RELATIONSHIP_WITH_TRANSFORMATION(#334) 
SHAPE_REPRESENTATION_RELATIONSHIP() );
#334 = ITEM_DEFINED_TRANSFORMATION('','',#11,#15);
#335 = PRODUCT_DEFINITION_SHAPE('Placement','Placement of an item',#336
  );
#336 = NEXT_ASSEMBLY_USAGE_OCCURRENCE('60',
  'Magnetic_resin_body_nominal_XY_max_H','',#5,#39,$);
#337 = PRODUCT_RELATED_PRODUCT_CATEGORY('part',$,(#41));
#338 = SHAPE_DEFINITION_REPRESENTATION(#339,#345);
#339 = PRODUCT_DEFINITION_SHAPE('','',#340);
#340 = PRODUCT_DEFINITION('design','',#341,#344);
#341 = PRODUCT_DEFINITION_FORMATION('','',#342);
#342 = PRODUCT('Ferrite_top_face','Ferrite_top_face','',(#343));
#343 = PRODUCT_CONTEXT('',#2,'mechanical');
#344 = PRODUCT_DEFINITION_CONTEXT('part definition',#2,'design');
#345 = ADVANCED_BREP_SHAPE_REPRESENTATION('',(#11,#346),#628);
#346 = MANIFOLD_SOLID_BREP('',#347);
#347 = CLOSED_SHELL('',(#348,#388,#419,#450,#481,#512,#543,#574,#596,
    #612));
#348 = ADVANCED_FACE('',(#349),#383,.F.);
#349 = FACE_BOUND('',#350,.F.);
#350 = EDGE_LOOP('',(#351,#361,#369,#377));
#351 = ORIENTED_EDGE('',*,*,#352,.T.);
#352 = EDGE_CURVE('',#353,#355,#357,.T.);
#353 = VERTEX_POINT('',#354);
#354 = CARTESIAN_POINT('',(-4.,-3.4,6.32));
#355 = VERTEX_POINT('',#356);
#356 = CARTESIAN_POINT('',(-4.,-3.4,6.5));
#357 = LINE('',#358,#359);
#358 = CARTESIAN_POINT('',(-4.,-3.4,6.32));
#359 = VECTOR('',#360,1.);
#360 = DIRECTION('',(0.,0.,1.));
#361 = ORIENTED_EDGE('',*,*,#362,.T.);
#362 = EDGE_CURVE('',#355,#363,#365,.T.);
#363 = VERTEX_POINT('',#364);
#364 = CARTESIAN_POINT('',(-3.4,-4.,6.5));
#365 = LINE('',#366,#367);
#366 = CARTESIAN_POINT('',(-4.,-3.4,6.5));
#367 = VECTOR('',#368,1.);
#368 = DIRECTION('',(0.707106781187,-0.707106781187,0.));
#369 = ORIENTED_EDGE('',*,*,#370,.F.);
#370 = EDGE_CURVE('',#371,#363,#373,.T.);
#371 = VERTEX_POINT('',#372);
#372 = CARTESIAN_POINT('',(-3.4,-4.,6.32));
#373 = LINE('',#374,#375);
#374 = CARTESIAN_POINT('',(-3.4,-4.,6.32));
#375 = VECTOR('',#376,1.);
#376 = DIRECTION('',(0.,0.,1.));
#377 = ORIENTED_EDGE('',*,*,#378,.F.);
#378 = EDGE_CURVE('',#353,#371,#379,.T.);
#379 = LINE('',#380,#381);
#380 = CARTESIAN_POINT('',(-4.,-3.4,6.32));
#381 = VECTOR('',#382,1.);
#382 = DIRECTION('',(0.707106781187,-0.707106781187,0.));
#383 = PLANE('',#384);
#384 = AXIS2_PLACEMENT_3D('',#385,#386,#387);
#385 = CARTESIAN_POINT('',(-4.,-3.4,6.32));
#386 = DIRECTION('',(0.707106781187,0.707106781187,-0.));
#387 = DIRECTION('',(0.707106781187,-0.707106781187,0.));
#388 = ADVANCED_FACE('',(#389),#414,.F.);
#389 = FACE_BOUND('',#390,.F.);
#390 = EDGE_LOOP('',(#391,#392,#400,#408));
#391 = ORIENTED_EDGE('',*,*,#370,.T.);
#392 = ORIENTED_EDGE('',*,*,#393,.T.);
#393 = EDGE_CURVE('',#363,#394,#396,.T.);
#394 = VERTEX_POINT('',#395);
#395 = CARTESIAN_POINT('',(3.4,-4.,6.5));
#396 = LINE('',#397,#398);
#397 = CARTESIAN_POINT('',(-3.4,-4.,6.5));
#398 = VECTOR('',#399,1.);
#399 = DIRECTION('',(1.,0.,0.));
#400 = ORIENTED_EDGE('',*,*,#401,.F.);
#401 = EDGE_CURVE('',#402,#394,#404,.T.);
#402 = VERTEX_POINT('',#403);
#403 = CARTESIAN_POINT('',(3.4,-4.,6.32));
#404 = LINE('',#405,#406);
#405 = CARTESIAN_POINT('',(3.4,-4.,6.32));
#406 = VECTOR('',#407,1.);
#407 = DIRECTION('',(0.,0.,1.));
#408 = ORIENTED_EDGE('',*,*,#409,.F.);
#409 = EDGE_CURVE('',#371,#402,#410,.T.);
#410 = LINE('',#411,#412);
#411 = CARTESIAN_POINT('',(-3.4,-4.,6.32));
#412 = VECTOR('',#413,1.);
#413 = DIRECTION('',(1.,0.,0.));
#414 = PLANE('',#415);
#415 = AXIS2_PLACEMENT_3D('',#416,#417,#418);
#416 = CARTESIAN_POINT('',(-3.4,-4.,6.32));
#417 = DIRECTION('',(0.,1.,0.));
#418 = DIRECTION('',(1.,0.,0.));
#419 = ADVANCED_FACE('',(#420),#445,.F.);
#420 = FACE_BOUND('',#421,.F.);
#421 = EDGE_LOOP('',(#422,#423,#431,#439));
#422 = ORIENTED_EDGE('',*,*,#401,.T.);
#423 = ORIENTED_EDGE('',*,*,#424,.T.);
#424 = EDGE_CURVE('',#394,#425,#427,.T.);
#425 = VERTEX_POINT('',#426);
#426 = CARTESIAN_POINT('',(4.,-3.4,6.5));
#427 = LINE('',#428,#429);
#428 = CARTESIAN_POINT('',(3.4,-4.,6.5));
#429 = VECTOR('',#430,1.);
#430 = DIRECTION('',(0.707106781187,0.707106781187,0.));
#431 = ORIENTED_EDGE('',*,*,#432,.F.);
#432 = EDGE_CURVE('',#433,#425,#435,.T.);
#433 = VERTEX_POINT('',#434);
#434 = CARTESIAN_POINT('',(4.,-3.4,6.32));
#435 = LINE('',#436,#437);
#436 = CARTESIAN_POINT('',(4.,-3.4,6.32));
#437 = VECTOR('',#438,1.);
#438 = DIRECTION('',(0.,0.,1.));
#439 = ORIENTED_EDGE('',*,*,#440,.F.);
#440 = EDGE_CURVE('',#402,#433,#441,.T.);
#441 = LINE('',#442,#443);
#442 = CARTESIAN_POINT('',(3.4,-4.,6.32));
#443 = VECTOR('',#444,1.);
#444 = DIRECTION('',(0.707106781187,0.707106781187,0.));
#445 = PLANE('',#446);
#446 = AXIS2_PLACEMENT_3D('',#447,#448,#449);
#447 = CARTESIAN_POINT('',(3.4,-4.,6.32));
#448 = DIRECTION('',(-0.707106781187,0.707106781187,0.));
#449 = DIRECTION('',(0.707106781187,0.707106781187,0.));
#450 = ADVANCED_FACE('',(#451),#476,.F.);
#451 = FACE_BOUND('',#452,.F.);
#452 = EDGE_LOOP('',(#453,#454,#462,#470));
#453 = ORIENTED_EDGE('',*,*,#432,.T.);
#454 = ORIENTED_EDGE('',*,*,#455,.T.);
#455 = EDGE_CURVE('',#425,#456,#458,.T.);
#456 = VERTEX_POINT('',#457);
#457 = CARTESIAN_POINT('',(4.,3.4,6.5));
#458 = LINE('',#459,#460);
#459 = CARTESIAN_POINT('',(4.,-3.4,6.5));
#460 = VECTOR('',#461,1.);
#461 = DIRECTION('',(0.,1.,0.));
#462 = ORIENTED_EDGE('',*,*,#463,.F.);
#463 = EDGE_CURVE('',#464,#456,#466,.T.);
#464 = VERTEX_POINT('',#465);
#465 = CARTESIAN_POINT('',(4.,3.4,6.32));
#466 = LINE('',#467,#468);
#467 = CARTESIAN_POINT('',(4.,3.4,6.32));
#468 = VECTOR('',#469,1.);
#469 = DIRECTION('',(0.,0.,1.));
#470 = ORIENTED_EDGE('',*,*,#471,.F.);
#471 = EDGE_CURVE('',#433,#464,#472,.T.);
#472 = LINE('',#473,#474);
#473 = CARTESIAN_POINT('',(4.,-3.4,6.32));
#474 = VECTOR('',#475,1.);
#475 = DIRECTION('',(0.,1.,0.));
#476 = PLANE('',#477);
#477 = AXIS2_PLACEMENT_3D('',#478,#479,#480);
#478 = CARTESIAN_POINT('',(4.,-3.4,6.32));
#479 = DIRECTION('',(-1.,0.,0.));
#480 = DIRECTION('',(0.,1.,0.));
#481 = ADVANCED_FACE('',(#482),#507,.F.);
#482 = FACE_BOUND('',#483,.F.);
#483 = EDGE_LOOP('',(#484,#485,#493,#501));
#484 = ORIENTED_EDGE('',*,*,#463,.T.);
#485 = ORIENTED_EDGE('',*,*,#486,.T.);
#486 = EDGE_CURVE('',#456,#487,#489,.T.);
#487 = VERTEX_POINT('',#488);
#488 = CARTESIAN_POINT('',(3.4,4.,6.5));
#489 = LINE('',#490,#491);
#490 = CARTESIAN_POINT('',(4.,3.4,6.5));
#491 = VECTOR('',#492,1.);
#492 = DIRECTION('',(-0.707106781187,0.707106781187,0.));
#493 = ORIENTED_EDGE('',*,*,#494,.F.);
#494 = EDGE_CURVE('',#495,#487,#497,.T.);
#495 = VERTEX_POINT('',#496);
#496 = CARTESIAN_POINT('',(3.4,4.,6.32));
#497 = LINE('',#498,#499);
#498 = CARTESIAN_POINT('',(3.4,4.,6.32));
#499 = VECTOR('',#500,1.);
#500 = DIRECTION('',(0.,0.,1.));
#501 = ORIENTED_EDGE('',*,*,#502,.F.);
#502 = EDGE_CURVE('',#464,#495,#503,.T.);
#503 = LINE('',#504,#505);
#504 = CARTESIAN_POINT('',(4.,3.4,6.32));
#505 = VECTOR('',#506,1.);
#506 = DIRECTION('',(-0.707106781187,0.707106781187,0.));
#507 = PLANE('',#508);
#508 = AXIS2_PLACEMENT_3D('',#509,#510,#511);
#509 = CARTESIAN_POINT('',(4.,3.4,6.32));
#510 = DIRECTION('',(-0.707106781187,-0.707106781187,0.));
#511 = DIRECTION('',(-0.707106781187,0.707106781187,0.));
#512 = ADVANCED_FACE('',(#513),#538,.F.);
#513 = FACE_BOUND('',#514,.F.);
#514 = EDGE_LOOP('',(#515,#516,#524,#532));
#515 = ORIENTED_EDGE('',*,*,#494,.T.);
#516 = ORIENTED_EDGE('',*,*,#517,.T.);
#517 = EDGE_CURVE('',#487,#518,#520,.T.);
#518 = VERTEX_POINT('',#519);
#519 = CARTESIAN_POINT('',(-3.4,4.,6.5));
#520 = LINE('',#521,#522);
#521 = CARTESIAN_POINT('',(3.4,4.,6.5));
#522 = VECTOR('',#523,1.);
#523 = DIRECTION('',(-1.,0.,0.));
#524 = ORIENTED_EDGE('',*,*,#525,.F.);
#525 = EDGE_CURVE('',#526,#518,#528,.T.);
#526 = VERTEX_POINT('',#527);
#527 = CARTESIAN_POINT('',(-3.4,4.,6.32));
#528 = LINE('',#529,#530);
#529 = CARTESIAN_POINT('',(-3.4,4.,6.32));
#530 = VECTOR('',#531,1.);
#531 = DIRECTION('',(0.,0.,1.));
#532 = ORIENTED_EDGE('',*,*,#533,.F.);
#533 = EDGE_CURVE('',#495,#526,#534,.T.);
#534 = LINE('',#535,#536);
#535 = CARTESIAN_POINT('',(3.4,4.,6.32));
#536 = VECTOR('',#537,1.);
#537 = DIRECTION('',(-1.,0.,0.));
#538 = PLANE('',#539);
#539 = AXIS2_PLACEMENT_3D('',#540,#541,#542);
#540 = CARTESIAN_POINT('',(3.4,4.,6.32));
#541 = DIRECTION('',(0.,-1.,0.));
#542 = DIRECTION('',(-1.,0.,0.));
#543 = ADVANCED_FACE('',(#544),#569,.F.);
#544 = FACE_BOUND('',#545,.F.);
#545 = EDGE_LOOP('',(#546,#547,#555,#563));
#546 = ORIENTED_EDGE('',*,*,#525,.T.);
#547 = ORIENTED_EDGE('',*,*,#548,.T.);
#548 = EDGE_CURVE('',#518,#549,#551,.T.);
#549 = VERTEX_POINT('',#550);
#550 = CARTESIAN_POINT('',(-4.,3.4,6.5));
#551 = LINE('',#552,#553);
#552 = CARTESIAN_POINT('',(-3.4,4.,6.5));
#553 = VECTOR('',#554,1.);
#554 = DIRECTION('',(-0.707106781187,-0.707106781187,0.));
#555 = ORIENTED_EDGE('',*,*,#556,.F.);
#556 = EDGE_CURVE('',#557,#549,#559,.T.);
#557 = VERTEX_POINT('',#558);
#558 = CARTESIAN_POINT('',(-4.,3.4,6.32));
#559 = LINE('',#560,#561);
#560 = CARTESIAN_POINT('',(-4.,3.4,6.32));
#561 = VECTOR('',#562,1.);
#562 = DIRECTION('',(0.,0.,1.));
#563 = ORIENTED_EDGE('',*,*,#564,.F.);
#564 = EDGE_CURVE('',#526,#557,#565,.T.);
#565 = LINE('',#566,#567);
#566 = CARTESIAN_POINT('',(-3.4,4.,6.32));
#567 = VECTOR('',#568,1.);
#568 = DIRECTION('',(-0.707106781187,-0.707106781187,0.));
#569 = PLANE('',#570);
#570 = AXIS2_PLACEMENT_3D('',#571,#572,#573);
#571 = CARTESIAN_POINT('',(-3.4,4.,6.32));
#572 = DIRECTION('',(0.707106781187,-0.707106781187,0.));
#573 = DIRECTION('',(-0.707106781187,-0.707106781187,0.));
#574 = ADVANCED_FACE('',(#575),#591,.F.);
#575 = FACE_BOUND('',#576,.F.);
#576 = EDGE_LOOP('',(#577,#578,#584,#585));
#577 = ORIENTED_EDGE('',*,*,#556,.T.);
#578 = ORIENTED_EDGE('',*,*,#579,.T.);
#579 = EDGE_CURVE('',#549,#355,#580,.T.);
#580 = LINE('',#581,#582);
#581 = CARTESIAN_POINT('',(-4.,3.4,6.5));
#582 = VECTOR('',#583,1.);
#583 = DIRECTION('',(0.,-1.,0.));
#584 = ORIENTED_EDGE('',*,*,#352,.F.);
#585 = ORIENTED_EDGE('',*,*,#586,.F.);
#586 = EDGE_CURVE('',#557,#353,#587,.T.);
#587 = LINE('',#588,#589);
#588 = CARTESIAN_POINT('',(-4.,3.4,6.32));
#589 = VECTOR('',#590,1.);
#590 = DIRECTION('',(0.,-1.,0.));
#591 = PLANE('',#592);
#592 = AXIS2_PLACEMENT_3D('',#593,#594,#595);
#593 = CARTESIAN_POINT('',(-4.,3.4,6.32));
#594 = DIRECTION('',(1.,0.,-0.));
#595 = DIRECTION('',(0.,-1.,0.));
#596 = ADVANCED_FACE('',(#597),#607,.F.);
#597 = FACE_BOUND('',#598,.F.);
#598 = EDGE_LOOP('',(#599,#600,#601,#602,#603,#604,#605,#606));
#599 = ORIENTED_EDGE('',*,*,#378,.T.);
#600 = ORIENTED_EDGE('',*,*,#409,.T.);
#601 = ORIENTED_EDGE('',*,*,#440,.T.);
#602 = ORIENTED_EDGE('',*,*,#471,.T.);
#603 = ORIENTED_EDGE('',*,*,#502,.T.);
#604 = ORIENTED_EDGE('',*,*,#533,.T.);
#605 = ORIENTED_EDGE('',*,*,#564,.T.);
#606 = ORIENTED_EDGE('',*,*,#586,.T.);
#607 = PLANE('',#608);
#608 = AXIS2_PLACEMENT_3D('',#609,#610,#611);
#609 = CARTESIAN_POINT('',(-1.161240965244E-16,5.806204826222E-17,6.32)
  );
#610 = DIRECTION('',(0.,0.,1.));
#611 = DIRECTION('',(1.,0.,-0.));
#612 = ADVANCED_FACE('',(#613),#623,.T.);
#613 = FACE_BOUND('',#614,.T.);
#614 = EDGE_LOOP('',(#615,#616,#617,#618,#619,#620,#621,#622));
#615 = ORIENTED_EDGE('',*,*,#362,.T.);
#616 = ORIENTED_EDGE('',*,*,#393,.T.);
#617 = ORIENTED_EDGE('',*,*,#424,.T.);
#618 = ORIENTED_EDGE('',*,*,#455,.T.);
#619 = ORIENTED_EDGE('',*,*,#486,.T.);
#620 = ORIENTED_EDGE('',*,*,#517,.T.);
#621 = ORIENTED_EDGE('',*,*,#548,.T.);
#622 = ORIENTED_EDGE('',*,*,#579,.T.);
#623 = PLANE('',#624);
#624 = AXIS2_PLACEMENT_3D('',#625,#626,#627);
#625 = CARTESIAN_POINT('',(-1.161240965244E-16,5.806204826222E-17,6.5));
#626 = DIRECTION('',(0.,0.,1.));
#627 = DIRECTION('',(1.,0.,-0.));
#628 = ( GEOMETRIC_REPRESENTATION_CONTEXT(3) 
GLOBAL_UNCERTAINTY_ASSIGNED_CONTEXT((#632)) GLOBAL_UNIT_ASSIGNED_CONTEXT
((#629,#630,#631)) REPRESENTATION_CONTEXT('Context #1',
  '3D Context with UNIT and UNCERTAINTY') );
#629 = ( LENGTH_UNIT() NAMED_UNIT(*) SI_UNIT(.MILLI.,.METRE.) );
#630 = ( NAMED_UNIT(*) PLANE_ANGLE_UNIT() SI_UNIT($,.RADIAN.) );
#631 = ( NAMED_UNIT(*) SI_UNIT($,.STERADIAN.) SOLID_ANGLE_UNIT() );
#632 = UNCERTAINTY_MEASURE_WITH_UNIT(LENGTH_MEASURE(1.E-07),#629,
  'distance_accuracy_value','confusion accuracy');
#633 = CONTEXT_DEPENDENT_SHAPE_REPRESENTATION(#634,#636);
#634 = ( REPRESENTATION_RELATIONSHIP('','',#345,#10) 
REPRESENTATION_RELATIONSHIP_WITH_TRANSFORMATION(#635) 
SHAPE_REPRESENTATION_RELATIONSHIP() );
#635 = ITEM_DEFINED_TRANSFORMATION('','',#11,#19);
#636 = PRODUCT_DEFINITION_SHAPE('Placement','Placement of an item',#637
  );
#637 = NEXT_ASSEMBLY_USAGE_OCCURRENCE('61','Ferrite_top_face','',#5,#340
  ,$);
#638 = PRODUCT_RELATED_PRODUCT_CATEGORY('part',$,(#342));
#639 = SHAPE_DEFINITION_REPRESENTATION(#640,#646);
#640 = PRODUCT_DEFINITION_SHAPE('','',#641);
#641 = PRODUCT_DEFINITION('design','',#642,#645);
#642 = PRODUCT_DEFINITION_FORMATION('','',#643);
#643 = PRODUCT('Tin_terminal_1','Tin_terminal_1','',(#644));
#644 = PRODUCT_CONTEXT('',#2,'mechanical');
#645 = PRODUCT_DEFINITION_CONTEXT('part definition',#2,'design');
#646 = ADVANCED_BREP_SHAPE_REPRESENTATION('',(#11,#647),#797);
#647 = MANIFOLD_SOLID_BREP('',#648);
#648 = CLOSED_SHELL('',(#649,#689,#729,#751,#773,#785));
#649 = ADVANCED_FACE('',(#650),#684,.F.);
#650 = FACE_BOUND('',#651,.F.);
#651 = EDGE_LOOP('',(#652,#662,#670,#678));
#652 = ORIENTED_EDGE('',*,*,#653,.F.);
#653 = EDGE_CURVE('',#654,#656,#658,.T.);
#654 = VERTEX_POINT('',#655);
#655 = CARTESIAN_POINT('',(-4.,-3.15,0.));
#656 = VERTEX_POINT('',#657);
#657 = CARTESIAN_POINT('',(-4.,-3.15,0.12));
#658 = LINE('',#659,#660);
#659 = CARTESIAN_POINT('',(-4.,-3.15,0.));
#660 = VECTOR('',#661,1.);
#661 = DIRECTION('',(0.,0.,1.));
#662 = ORIENTED_EDGE('',*,*,#663,.T.);
#663 = EDGE_CURVE('',#654,#664,#666,.T.);
#664 = VERTEX_POINT('',#665);
#665 = CARTESIAN_POINT('',(-4.,3.15,0.));
#666 = LINE('',#667,#668);
#667 = CARTESIAN_POINT('',(-4.,-3.15,0.));
#668 = VECTOR('',#669,1.);
#669 = DIRECTION('',(-0.,1.,0.));
#670 = ORIENTED_EDGE('',*,*,#671,.T.);
#671 = EDGE_CURVE('',#664,#672,#674,.T.);
#672 = VERTEX_POINT('',#673);
#673 = CARTESIAN_POINT('',(-4.,3.15,0.12));
#674 = LINE('',#675,#676);
#675 = CARTESIAN_POINT('',(-4.,3.15,0.));
#676 = VECTOR('',#677,1.);
#677 = DIRECTION('',(0.,0.,1.));
#678 = ORIENTED_EDGE('',*,*,#679,.F.);
#679 = EDGE_CURVE('',#656,#672,#680,.T.);
#680 = LINE('',#681,#682);
#681 = CARTESIAN_POINT('',(-4.,-3.15,0.12));
#682 = VECTOR('',#683,1.);
#683 = DIRECTION('',(-0.,1.,0.));
#684 = PLANE('',#685);
#685 = AXIS2_PLACEMENT_3D('',#686,#687,#688);
#686 = CARTESIAN_POINT('',(-4.,-3.15,0.));
#687 = DIRECTION('',(1.,0.,-0.));
#688 = DIRECTION('',(0.,0.,1.));
#689 = ADVANCED_FACE('',(#690),#724,.T.);
#690 = FACE_BOUND('',#691,.T.);
#691 = EDGE_LOOP('',(#692,#702,#710,#718));
#692 = ORIENTED_EDGE('',*,*,#693,.F.);
#693 = EDGE_CURVE('',#694,#696,#698,.T.);
#694 = VERTEX_POINT('',#695);
#695 = CARTESIAN_POINT('',(-2.,-3.15,0.));
#696 = VERTEX_POINT('',#697);
#697 = CARTESIAN_POINT('',(-2.,-3.15,0.12));
#698 = LINE('',#699,#700);
#699 = CARTESIAN_POINT('',(-2.,-3.15,0.));
#700 = VECTOR('',#701,1.);
#701 = DIRECTION('',(0.,0.,1.));
#702 = ORIENTED_EDGE('',*,*,#703,.T.);
#703 = EDGE_CURVE('',#694,#704,#706,.T.);
#704 = VERTEX_POINT('',#705);
#705 = CARTESIAN_POINT('',(-2.,3.15,0.));
#706 = LINE('',#707,#708);
#707 = CARTESIAN_POINT('',(-2.,-3.15,0.));
#708 = VECTOR('',#709,1.);
#709 = DIRECTION('',(-0.,1.,0.));
#710 = ORIENTED_EDGE('',*,*,#711,.T.);
#711 = EDGE_CURVE('',#704,#712,#714,.T.);
#712 = VERTEX_POINT('',#713);
#713 = CARTESIAN_POINT('',(-2.,3.15,0.12));
#714 = LINE('',#715,#716);
#715 = CARTESIAN_POINT('',(-2.,3.15,0.));
#716 = VECTOR('',#717,1.);
#717 = DIRECTION('',(0.,0.,1.));
#718 = ORIENTED_EDGE('',*,*,#719,.F.);
#719 = EDGE_CURVE('',#696,#712,#720,.T.);
#720 = LINE('',#721,#722);
#721 = CARTESIAN_POINT('',(-2.,-3.15,0.12));
#722 = VECTOR('',#723,1.);
#723 = DIRECTION('',(-0.,1.,0.));
#724 = PLANE('',#725);
#725 = AXIS2_PLACEMENT_3D('',#726,#727,#728);
#726 = CARTESIAN_POINT('',(-2.,-3.15,0.));
#727 = DIRECTION('',(1.,0.,-0.));
#728 = DIRECTION('',(0.,0.,1.));
#729 = ADVANCED_FACE('',(#730),#746,.F.);
#730 = FACE_BOUND('',#731,.F.);
#731 = EDGE_LOOP('',(#732,#738,#739,#745));
#732 = ORIENTED_EDGE('',*,*,#733,.F.);
#733 = EDGE_CURVE('',#654,#694,#734,.T.);
#734 = LINE('',#735,#736);
#735 = CARTESIAN_POINT('',(-4.,-3.15,0.));
#736 = VECTOR('',#737,1.);
#737 = DIRECTION('',(1.,0.,-0.));
#738 = ORIENTED_EDGE('',*,*,#653,.T.);
#739 = ORIENTED_EDGE('',*,*,#740,.T.);
#740 = EDGE_CURVE('',#656,#696,#741,.T.);
#741 = LINE('',#742,#743);
#742 = CARTESIAN_POINT('',(-4.,-3.15,0.12));
#743 = VECTOR('',#744,1.);
#744 = DIRECTION('',(1.,0.,-0.));
#745 = ORIENTED_EDGE('',*,*,#693,.F.);
#746 = PLANE('',#747);
#747 = AXIS2_PLACEMENT_3D('',#748,#749,#750);
#748 = CARTESIAN_POINT('',(-4.,-3.15,0.));
#749 = DIRECTION('',(-0.,1.,0.));
#750 = DIRECTION('',(0.,0.,1.));
#751 = ADVANCED_FACE('',(#752),#768,.T.);
#752 = FACE_BOUND('',#753,.T.);
#753 = EDGE_LOOP('',(#754,#760,#761,#767));
#754 = ORIENTED_EDGE('',*,*,#755,.F.);
#755 = EDGE_CURVE('',#664,#704,#756,.T.);
#756 = LINE('',#757,#758);
#757 = CARTESIAN_POINT('',(-4.,3.15,0.));
#758 = VECTOR('',#759,1.);
#759 = DIRECTION('',(1.,0.,-0.));
#760 = ORIENTED_EDGE('',*,*,#671,.T.);
#761 = ORIENTED_EDGE('',*,*,#762,.T.);
#762 = EDGE_CURVE('',#672,#712,#763,.T.);
#763 = LINE('',#764,#765);
#764 = CARTESIAN_POINT('',(-4.,3.15,0.12));
#765 = VECTOR('',#766,1.);
#766 = DIRECTION('',(1.,0.,-0.));
#767 = ORIENTED_EDGE('',*,*,#711,.F.);
#768 = PLANE('',#769);
#769 = AXIS2_PLACEMENT_3D('',#770,#771,#772);
#770 = CARTESIAN_POINT('',(-4.,3.15,0.));
#771 = DIRECTION('',(-0.,1.,0.));
#772 = DIRECTION('',(0.,0.,1.));
#773 = ADVANCED_FACE('',(#774),#780,.F.);
#774 = FACE_BOUND('',#775,.F.);
#775 = EDGE_LOOP('',(#776,#777,#778,#779));
#776 = ORIENTED_EDGE('',*,*,#663,.F.);
#777 = ORIENTED_EDGE('',*,*,#733,.T.);
#778 = ORIENTED_EDGE('',*,*,#703,.T.);
#779 = ORIENTED_EDGE('',*,*,#755,.F.);
#780 = PLANE('',#781);
#781 = AXIS2_PLACEMENT_3D('',#782,#783,#784);
#782 = CARTESIAN_POINT('',(-4.,-3.15,0.));
#783 = DIRECTION('',(0.,0.,1.));
#784 = DIRECTION('',(1.,0.,-0.));
#785 = ADVANCED_FACE('',(#786),#792,.T.);
#786 = FACE_BOUND('',#787,.T.);
#787 = EDGE_LOOP('',(#788,#789,#790,#791));
#788 = ORIENTED_EDGE('',*,*,#679,.F.);
#789 = ORIENTED_EDGE('',*,*,#740,.T.);
#790 = ORIENTED_EDGE('',*,*,#719,.T.);
#791 = ORIENTED_EDGE('',*,*,#762,.F.);
#792 = PLANE('',#793);
#793 = AXIS2_PLACEMENT_3D('',#794,#795,#796);
#794 = CARTESIAN_POINT('',(-4.,-3.15,0.12));
#795 = DIRECTION('',(0.,0.,1.));
#796 = DIRECTION('',(1.,0.,-0.));
#797 = ( GEOMETRIC_REPRESENTATION_CONTEXT(3) 
GLOBAL_UNCERTAINTY_ASSIGNED_CONTEXT((#801)) GLOBAL_UNIT_ASSIGNED_CONTEXT
((#798,#799,#800)) REPRESENTATION_CONTEXT('Context #1',
  '3D Context with UNIT and UNCERTAINTY') );
#798 = ( LENGTH_UNIT() NAMED_UNIT(*) SI_UNIT(.MILLI.,.METRE.) );
#799 = ( NAMED_UNIT(*) PLANE_ANGLE_UNIT() SI_UNIT($,.RADIAN.) );
#800 = ( NAMED_UNIT(*) SI_UNIT($,.STERADIAN.) SOLID_ANGLE_UNIT() );
#801 = UNCERTAINTY_MEASURE_WITH_UNIT(LENGTH_MEASURE(1.E-07),#798,
  'distance_accuracy_value','confusion accuracy');
#802 = CONTEXT_DEPENDENT_SHAPE_REPRESENTATION(#803,#805);
#803 = ( REPRESENTATION_RELATIONSHIP('','',#646,#10) 
REPRESENTATION_RELATIONSHIP_WITH_TRANSFORMATION(#804) 
SHAPE_REPRESENTATION_RELATIONSHIP() );
#804 = ITEM_DEFINED_TRANSFORMATION('','',#11,#23);
#805 = PRODUCT_DEFINITION_SHAPE('Placement','Placement of an item',#806
  );
#806 = NEXT_ASSEMBLY_USAGE_OCCURRENCE('62','Tin_terminal_1','',#5,#641,$
  );
#807 = PRODUCT_RELATED_PRODUCT_CATEGORY('part',$,(#643));
#808 = SHAPE_DEFINITION_REPRESENTATION(#809,#815);
#809 = PRODUCT_DEFINITION_SHAPE('','',#810);
#810 = PRODUCT_DEFINITION('design','',#811,#814);
#811 = PRODUCT_DEFINITION_FORMATION('','',#812);
#812 = PRODUCT('Tin_terminal_2','Tin_terminal_2','',(#813));
#813 = PRODUCT_CONTEXT('',#2,'mechanical');
#814 = PRODUCT_DEFINITION_CONTEXT('part definition',#2,'design');
#815 = ADVANCED_BREP_SHAPE_REPRESENTATION('',(#11,#816),#966);
#816 = MANIFOLD_SOLID_BREP('',#817);
#817 = CLOSED_SHELL('',(#818,#858,#898,#920,#942,#954));
#818 = ADVANCED_FACE('',(#819),#853,.F.);
#819 = FACE_BOUND('',#820,.F.);
#820 = EDGE_LOOP('',(#821,#831,#839,#847));
#821 = ORIENTED_EDGE('',*,*,#822,.F.);
#822 = EDGE_CURVE('',#823,#825,#827,.T.);
#823 = VERTEX_POINT('',#824);
#824 = CARTESIAN_POINT('',(2.,-3.15,0.));
#825 = VERTEX_POINT('',#826);
#826 = CARTESIAN_POINT('',(2.,-3.15,0.12));
#827 = LINE('',#828,#829);
#828 = CARTESIAN_POINT('',(2.,-3.15,0.));
#829 = VECTOR('',#830,1.);
#830 = DIRECTION('',(0.,0.,1.));
#831 = ORIENTED_EDGE('',*,*,#832,.T.);
#832 = EDGE_CURVE('',#823,#833,#835,.T.);
#833 = VERTEX_POINT('',#834);
#834 = CARTESIAN_POINT('',(2.,3.15,0.));
#835 = LINE('',#836,#837);
#836 = CARTESIAN_POINT('',(2.,-3.15,0.));
#837 = VECTOR('',#838,1.);
#838 = DIRECTION('',(-0.,1.,0.));
#839 = ORIENTED_EDGE('',*,*,#840,.T.);
#840 = EDGE_CURVE('',#833,#841,#843,.T.);
#841 = VERTEX_POINT('',#842);
#842 = CARTESIAN_POINT('',(2.,3.15,0.12));
#843 = LINE('',#844,#845);
#844 = CARTESIAN_POINT('',(2.,3.15,0.));
#845 = VECTOR('',#846,1.);
#846 = DIRECTION('',(0.,0.,1.));
#847 = ORIENTED_EDGE('',*,*,#848,.F.);
#848 = EDGE_CURVE('',#825,#841,#849,.T.);
#849 = LINE('',#850,#851);
#850 = CARTESIAN_POINT('',(2.,-3.15,0.12));
#851 = VECTOR('',#852,1.);
#852 = DIRECTION('',(-0.,1.,0.));
#853 = PLANE('',#854);
#854 = AXIS2_PLACEMENT_3D('',#855,#856,#857);
#855 = CARTESIAN_POINT('',(2.,-3.15,0.));
#856 = DIRECTION('',(1.,0.,-0.));
#857 = DIRECTION('',(0.,0.,1.));
#858 = ADVANCED_FACE('',(#859),#893,.T.);
#859 = FACE_BOUND('',#860,.T.);
#860 = EDGE_LOOP('',(#861,#871,#879,#887));
#861 = ORIENTED_EDGE('',*,*,#862,.F.);
#862 = EDGE_CURVE('',#863,#865,#867,.T.);
#863 = VERTEX_POINT('',#864);
#864 = CARTESIAN_POINT('',(4.,-3.15,0.));
#865 = VERTEX_POINT('',#866);
#866 = CARTESIAN_POINT('',(4.,-3.15,0.12));
#867 = LINE('',#868,#869);
#868 = CARTESIAN_POINT('',(4.,-3.15,0.));
#869 = VECTOR('',#870,1.);
#870 = DIRECTION('',(0.,0.,1.));
#871 = ORIENTED_EDGE('',*,*,#872,.T.);
#872 = EDGE_CURVE('',#863,#873,#875,.T.);
#873 = VERTEX_POINT('',#874);
#874 = CARTESIAN_POINT('',(4.,3.15,0.));
#875 = LINE('',#876,#877);
#876 = CARTESIAN_POINT('',(4.,-3.15,0.));
#877 = VECTOR('',#878,1.);
#878 = DIRECTION('',(-0.,1.,0.));
#879 = ORIENTED_EDGE('',*,*,#880,.T.);
#880 = EDGE_CURVE('',#873,#881,#883,.T.);
#881 = VERTEX_POINT('',#882);
#882 = CARTESIAN_POINT('',(4.,3.15,0.12));
#883 = LINE('',#884,#885);
#884 = CARTESIAN_POINT('',(4.,3.15,0.));
#885 = VECTOR('',#886,1.);
#886 = DIRECTION('',(0.,0.,1.));
#887 = ORIENTED_EDGE('',*,*,#888,.F.);
#888 = EDGE_CURVE('',#865,#881,#889,.T.);
#889 = LINE('',#890,#891);
#890 = CARTESIAN_POINT('',(4.,-3.15,0.12));
#891 = VECTOR('',#892,1.);
#892 = DIRECTION('',(-0.,1.,0.));
#893 = PLANE('',#894);
#894 = AXIS2_PLACEMENT_3D('',#895,#896,#897);
#895 = CARTESIAN_POINT('',(4.,-3.15,0.));
#896 = DIRECTION('',(1.,0.,-0.));
#897 = DIRECTION('',(0.,0.,1.));
#898 = ADVANCED_FACE('',(#899),#915,.F.);
#899 = FACE_BOUND('',#900,.F.);
#900 = EDGE_LOOP('',(#901,#907,#908,#914));
#901 = ORIENTED_EDGE('',*,*,#902,.F.);
#902 = EDGE_CURVE('',#823,#863,#903,.T.);
#903 = LINE('',#904,#905);
#904 = CARTESIAN_POINT('',(2.,-3.15,0.));
#905 = VECTOR('',#906,1.);
#906 = DIRECTION('',(1.,0.,-0.));
#907 = ORIENTED_EDGE('',*,*,#822,.T.);
#908 = ORIENTED_EDGE('',*,*,#909,.T.);
#909 = EDGE_CURVE('',#825,#865,#910,.T.);
#910 = LINE('',#911,#912);
#911 = CARTESIAN_POINT('',(2.,-3.15,0.12));
#912 = VECTOR('',#913,1.);
#913 = DIRECTION('',(1.,0.,-0.));
#914 = ORIENTED_EDGE('',*,*,#862,.F.);
#915 = PLANE('',#916);
#916 = AXIS2_PLACEMENT_3D('',#917,#918,#919);
#917 = CARTESIAN_POINT('',(2.,-3.15,0.));
#918 = DIRECTION('',(-0.,1.,0.));
#919 = DIRECTION('',(0.,0.,1.));
#920 = ADVANCED_FACE('',(#921),#937,.T.);
#921 = FACE_BOUND('',#922,.T.);
#922 = EDGE_LOOP('',(#923,#929,#930,#936));
#923 = ORIENTED_EDGE('',*,*,#924,.F.);
#924 = EDGE_CURVE('',#833,#873,#925,.T.);
#925 = LINE('',#926,#927);
#926 = CARTESIAN_POINT('',(2.,3.15,0.));
#927 = VECTOR('',#928,1.);
#928 = DIRECTION('',(1.,0.,-0.));
#929 = ORIENTED_EDGE('',*,*,#840,.T.);
#930 = ORIENTED_EDGE('',*,*,#931,.T.);
#931 = EDGE_CURVE('',#841,#881,#932,.T.);
#932 = LINE('',#933,#934);
#933 = CARTESIAN_POINT('',(2.,3.15,0.12));
#934 = VECTOR('',#935,1.);
#935 = DIRECTION('',(1.,0.,-0.));
#936 = ORIENTED_EDGE('',*,*,#880,.F.);
#937 = PLANE('',#938);
#938 = AXIS2_PLACEMENT_3D('',#939,#940,#941);
#939 = CARTESIAN_POINT('',(2.,3.15,0.));
#940 = DIRECTION('',(-0.,1.,0.));
#941 = DIRECTION('',(0.,0.,1.));
#942 = ADVANCED_FACE('',(#943),#949,.F.);
#943 = FACE_BOUND('',#944,.F.);
#944 = EDGE_LOOP('',(#945,#946,#947,#948));
#945 = ORIENTED_EDGE('',*,*,#832,.F.);
#946 = ORIENTED_EDGE('',*,*,#902,.T.);
#947 = ORIENTED_EDGE('',*,*,#872,.T.);
#948 = ORIENTED_EDGE('',*,*,#924,.F.);
#949 = PLANE('',#950);
#950 = AXIS2_PLACEMENT_3D('',#951,#952,#953);
#951 = CARTESIAN_POINT('',(2.,-3.15,0.));
#952 = DIRECTION('',(0.,0.,1.));
#953 = DIRECTION('',(1.,0.,-0.));
#954 = ADVANCED_FACE('',(#955),#961,.T.);
#955 = FACE_BOUND('',#956,.T.);
#956 = EDGE_LOOP('',(#957,#958,#959,#960));
#957 = ORIENTED_EDGE('',*,*,#848,.F.);
#958 = ORIENTED_EDGE('',*,*,#909,.T.);
#959 = ORIENTED_EDGE('',*,*,#888,.T.);
#960 = ORIENTED_EDGE('',*,*,#931,.F.);
#961 = PLANE('',#962);
#962 = AXIS2_PLACEMENT_3D('',#963,#964,#965);
#963 = CARTESIAN_POINT('',(2.,-3.15,0.12));
#964 = DIRECTION('',(0.,0.,1.));
#965 = DIRECTION('',(1.,0.,-0.));
#966 = ( GEOMETRIC_REPRESENTATION_CONTEXT(3) 
GLOBAL_UNCERTAINTY_ASSIGNED_CONTEXT((#970)) GLOBAL_UNIT_ASSIGNED_CONTEXT
((#967,#968,#969)) REPRESENTATION_CONTEXT('Context #1',
  '3D Context with UNIT and UNCERTAINTY') );
#967 = ( LENGTH_UNIT() NAMED_UNIT(*) SI_UNIT(.MILLI.,.METRE.) );
#968 = ( NAMED_UNIT(*) PLANE_ANGLE_UNIT() SI_UNIT($,.RADIAN.) );
#969 = ( NAMED_UNIT(*) SI_UNIT($,.STERADIAN.) SOLID_ANGLE_UNIT() );
#970 = UNCERTAINTY_MEASURE_WITH_UNIT(LENGTH_MEASURE(1.E-07),#967,
  'distance_accuracy_value','confusion accuracy');
#971 = CONTEXT_DEPENDENT_SHAPE_REPRESENTATION(#972,#974);
#972 = ( REPRESENTATION_RELATIONSHIP('','',#815,#10) 
REPRESENTATION_RELATIONSHIP_WITH_TRANSFORMATION(#973) 
SHAPE_REPRESENTATION_RELATIONSHIP() );
#973 = ITEM_DEFINED_TRANSFORMATION('','',#11,#27);
#974 = PRODUCT_DEFINITION_SHAPE('Placement','Placement of an item',#975
  );
#975 = NEXT_ASSEMBLY_USAGE_OCCURRENCE('63','Tin_terminal_2','',#5,#810,$
  );
#976 = PRODUCT_RELATED_PRODUCT_CATEGORY('part',$,(#812));
#977 = MECHANICAL_DESIGN_GEOMETRIC_PRESENTATION_REPRESENTATION('',(#978)
  ,#327);
#978 = STYLED_ITEM('color',(#979),#45);
#979 = PRESENTATION_STYLE_ASSIGNMENT((#980,#986));
#980 = SURFACE_STYLE_USAGE(.BOTH.,#981);
#981 = SURFACE_SIDE_STYLE('',(#982));
#982 = SURFACE_STYLE_FILL_AREA(#983);
#983 = FILL_AREA_STYLE('',(#984));
#984 = FILL_AREA_STYLE_COLOUR('',#985);
#985 = COLOUR_RGB('',0.199999998682,0.205000002122,0.214999999939);
#986 = CURVE_STYLE('',#987,POSITIVE_LENGTH_MEASURE(0.1),#985);
#987 = DRAUGHTING_PRE_DEFINED_CURVE_FONT('continuous');
#988 = MECHANICAL_DESIGN_GEOMETRIC_PRESENTATION_REPRESENTATION('',(#989)
  ,#966);
#989 = STYLED_ITEM('color',(#990),#816);
#990 = PRESENTATION_STYLE_ASSIGNMENT((#991,#997));
#991 = SURFACE_STYLE_USAGE(.BOTH.,#992);
#992 = SURFACE_SIDE_STYLE('',(#993));
#993 = SURFACE_STYLE_FILL_AREA(#994);
#994 = FILL_AREA_STYLE('',(#995));
#995 = FILL_AREA_STYLE_COLOUR('',#996);
#996 = COLOUR_RGB('',0.699999984889,0.720000023499,0.750000000934);
#997 = CURVE_STYLE('',#998,POSITIVE_LENGTH_MEASURE(0.1),#996);
#998 = DRAUGHTING_PRE_DEFINED_CURVE_FONT('continuous');
#999 = MECHANICAL_DESIGN_GEOMETRIC_PRESENTATION_REPRESENTATION('',(#1000
    ),#628);
#1000 = STYLED_ITEM('color',(#1001),#346);
#1001 = PRESENTATION_STYLE_ASSIGNMENT((#1002,#1008));
#1002 = SURFACE_STYLE_USAGE(.BOTH.,#1003);
#1003 = SURFACE_SIDE_STYLE('',(#1004));
#1004 = SURFACE_STYLE_FILL_AREA(#1005);
#1005 = FILL_AREA_STYLE('',(#1006));
#1006 = FILL_AREA_STYLE_COLOUR('',#1007);
#1007 = COLOUR_RGB('',0.310000008817,0.319999985907,0.330000010676);
#1008 = CURVE_STYLE('',#1009,POSITIVE_LENGTH_MEASURE(0.1),#1007);
#1009 = DRAUGHTING_PRE_DEFINED_CURVE_FONT('continuous');
#1010 = MECHANICAL_DESIGN_GEOMETRIC_PRESENTATION_REPRESENTATION('',(
    #1011),#797);
#1011 = STYLED_ITEM('color',(#1012),#647);
#1012 = PRESENTATION_STYLE_ASSIGNMENT((#1013,#1018));
#1013 = SURFACE_STYLE_USAGE(.BOTH.,#1014);
#1014 = SURFACE_SIDE_STYLE('',(#1015));
#1015 = SURFACE_STYLE_FILL_AREA(#1016);
#1016 = FILL_AREA_STYLE('',(#1017));
#1017 = FILL_AREA_STYLE_COLOUR('',#996);
#1018 = CURVE_STYLE('',#1019,POSITIVE_LENGTH_MEASURE(0.1),#996);
#1019 = DRAUGHTING_PRE_DEFINED_CURVE_FONT('continuous');
ENDSEC;
END-ISO-10303-21;
