ISO-10303-21;
HEADER;
FILE_DESCRIPTION(('FreeCAD Model'),'2;1');
FILE_NAME('Open CASCADE Shape Model','2026-10-03T19:15:17',('Author'),(
    ''),'Open CASCADE STEP processor 7.8','FreeCAD','Unknown');
FILE_SCHEMA(('AUTOMOTIVE_DESIGN { 1 0 10303 214 1 1 1 1 }'));
ENDSEC;
DATA;
#1 = APPLICATION_PROTOCOL_DEFINITION('international standard',
  'automotive_design',2000,#2);
#2 = APPLICATION_CONTEXT(
  'core data for automotive mechanical design processes');
#3 = SHAPE_DEFINITION_REPRESENTATION(#4,#10);
#4 = PRODUCT_DEFINITION_SHAPE('','',#5);
#5 = PRODUCT_DEFINITION('design','',#6,#9);
#6 = PRODUCT_DEFINITION_FORMATION('','',#7);
#7 = PRODUCT('SMCJ24CA_bidir_nominal','SMCJ24CA_bidir_nominal','',(#8));
#8 = PRODUCT_CONTEXT('',#2,'mechanical');
#9 = PRODUCT_DEFINITION_CONTEXT('part definition',#2,'design');
#10 = SHAPE_REPRESENTATION('',(#11,#15,#19,#23),#27);
#11 = AXIS2_PLACEMENT_3D('',#12,#13,#14);
#12 = CARTESIAN_POINT('',(0.,0.,0.));
#13 = DIRECTION('',(0.,0.,1.));
#14 = DIRECTION('',(1.,0.,-0.));
#15 = AXIS2_PLACEMENT_3D('',#16,#17,#18);
#16 = CARTESIAN_POINT('',(0.,0.,0.));
#17 = DIRECTION('',(0.,0.,1.));
#18 = DIRECTION('',(1.,0.,0.));
#19 = AXIS2_PLACEMENT_3D('',#20,#21,#22);
#20 = CARTESIAN_POINT('',(0.,0.,0.));
#21 = DIRECTION('',(0.,0.,1.));
#22 = DIRECTION('',(1.,0.,0.));
#23 = AXIS2_PLACEMENT_3D('',#24,#25,#26);
#24 = CARTESIAN_POINT('',(0.,0.,0.));
#25 = DIRECTION('',(0.,0.,1.));
#26 = DIRECTION('',(1.,0.,0.));
#27 = ( GEOMETRIC_REPRESENTATION_CONTEXT(3) 
GLOBAL_UNCERTAINTY_ASSIGNED_CONTEXT((#31)) GLOBAL_UNIT_ASSIGNED_CONTEXT(
(#28,#29,#30)) REPRESENTATION_CONTEXT('Context #1',
  '3D Context with UNIT and UNCERTAINTY') );
#28 = ( LENGTH_UNIT() NAMED_UNIT(*) SI_UNIT(.MILLI.,.METRE.) );
#29 = ( NAMED_UNIT(*) PLANE_ANGLE_UNIT() SI_UNIT($,.RADIAN.) );
#30 = ( NAMED_UNIT(*) SI_UNIT($,.STERADIAN.) SOLID_ANGLE_UNIT() );
#31 = UNCERTAINTY_MEASURE_WITH_UNIT(LENGTH_MEASURE(1.E-07),#28,
  'distance_accuracy_value','confusion accuracy');
#32 = PRODUCT_RELATED_PRODUCT_CATEGORY('part',$,(#7));
#33 = SHAPE_DEFINITION_REPRESENTATION(#34,#40);
#34 = PRODUCT_DEFINITION_SHAPE('','',#35);
#35 = PRODUCT_DEFINITION('design','',#36,#39);
#36 = PRODUCT_DEFINITION_FORMATION('','',#37);
#37 = PRODUCT('Molded_body_no_polarity_band',
  'Molded_body_no_polarity_band','',(#38));
#38 = PRODUCT_CONTEXT('',#2,'mechanical');
#39 = PRODUCT_DEFINITION_CONTEXT('part definition',#2,'design');
#40 = ADVANCED_BREP_SHAPE_REPRESENTATION('',(#11,#41),#279);
#41 = MANIFOLD_SOLID_BREP('',#42);
#42 = CLOSED_SHELL('',(#43,#81,#111,#141,#163,#192,#215,#238,#255,#267)
  );
#43 = ADVANCED_FACE('',(#44),#76,.T.);
#44 = FACE_BOUND('',#45,.T.);
#45 = EDGE_LOOP('',(#46,#56,#63,#71));
#46 = ORIENTED_EDGE('',*,*,#47,.T.);
#47 = EDGE_CURVE('',#48,#50,#52,.T.);
#48 = VERTEX_POINT('',#49);
#49 = CARTESIAN_POINT('',(-3.3375,-2.8625,0.15));
#50 = VERTEX_POINT('',#51);
#51 = CARTESIAN_POINT('',(3.3375,-2.8625,0.15));
#52 = LINE('',#53,#54);
#53 = CARTESIAN_POINT('',(-3.3375,-2.8625,0.15));
#54 = VECTOR('',#55,1.);
#55 = DIRECTION('',(1.,0.,0.));
#56 = ORIENTED_EDGE('',*,*,#57,.T.);
#57 = EDGE_CURVE('',#50,#58,#60,.T.);
#58 = VERTEX_POINT('',#59);
#59 = CARTESIAN_POINT('',(3.4275,-2.9525,0.885));
#60 = B_SPLINE_CURVE_WITH_KNOTS('',1,(#61,#62),.UNSPECIFIED.,.F.,.F.,(2,
    2),(0.,1.),.PIECEWISE_BEZIER_KNOTS.);
#61 = CARTESIAN_POINT('',(3.3375,-2.8625,0.15));
#62 = CARTESIAN_POINT('',(3.4275,-2.9525,0.885));
#63 = ORIENTED_EDGE('',*,*,#64,.F.);
#64 = EDGE_CURVE('',#65,#58,#67,.T.);
#65 = VERTEX_POINT('',#66);
#66 = CARTESIAN_POINT('',(-3.4275,-2.9525,0.885));
#67 = LINE('',#68,#69);
#68 = CARTESIAN_POINT('',(-3.4275,-2.9525,0.885));
#69 = VECTOR('',#70,1.);
#70 = DIRECTION('',(1.,0.,0.));
#71 = ORIENTED_EDGE('',*,*,#72,.F.);
#72 = EDGE_CURVE('',#48,#65,#73,.T.);
#73 = B_SPLINE_CURVE_WITH_KNOTS('',1,(#74,#75),.UNSPECIFIED.,.F.,.F.,(2,
    2),(0.,1.),.PIECEWISE_BEZIER_KNOTS.);
#74 = CARTESIAN_POINT('',(-3.3375,-2.8625,0.15));
#75 = CARTESIAN_POINT('',(-3.4275,-2.9525,0.885));
#76 = B_SPLINE_SURFACE_WITH_KNOTS('',1,1,(
    (#77,#78)
    ,(#79,#80
  )),.UNSPECIFIED.,.F.,.F.,.F.,(2,2),(2,2),(0.,6.855),(0.,1.),
  .PIECEWISE_BEZIER_KNOTS.);
#77 = CARTESIAN_POINT('',(-3.3375,-2.8625,0.15));
#78 = CARTESIAN_POINT('',(-3.4275,-2.9525,0.885));
#79 = CARTESIAN_POINT('',(3.3375,-2.8625,0.15));
#80 = CARTESIAN_POINT('',(3.4275,-2.9525,0.885));
#81 = ADVANCED_FACE('',(#82),#106,.T.);
#82 = FACE_BOUND('',#83,.T.);
#83 = EDGE_LOOP('',(#84,#92,#99,#105));
#84 = ORIENTED_EDGE('',*,*,#85,.T.);
#85 = EDGE_CURVE('',#50,#86,#88,.T.);
#86 = VERTEX_POINT('',#87);
#87 = CARTESIAN_POINT('',(3.3375,2.8625,0.15));
#88 = LINE('',#89,#90);
#89 = CARTESIAN_POINT('',(3.3375,-2.8625,0.15));
#90 = VECTOR('',#91,1.);
#91 = DIRECTION('',(0.,1.,0.));
#92 = ORIENTED_EDGE('',*,*,#93,.T.);
#93 = EDGE_CURVE('',#86,#94,#96,.T.);
#94 = VERTEX_POINT('',#95);
#95 = CARTESIAN_POINT('',(3.4275,2.9525,0.885));
#96 = B_SPLINE_CURVE_WITH_KNOTS('',1,(#97,#98),.UNSPECIFIED.,.F.,.F.,(2,
    2),(0.,1.),.PIECEWISE_BEZIER_KNOTS.);
#97 = CARTESIAN_POINT('',(3.3375,2.8625,0.15));
#98 = CARTESIAN_POINT('',(3.4275,2.9525,0.885));
#99 = ORIENTED_EDGE('',*,*,#100,.F.);
#100 = EDGE_CURVE('',#58,#94,#101,.T.);
#101 = LINE('',#102,#103);
#102 = CARTESIAN_POINT('',(3.4275,-2.9525,0.885));
#103 = VECTOR('',#104,1.);
#104 = DIRECTION('',(0.,1.,0.));
#105 = ORIENTED_EDGE('',*,*,#57,.F.);
#106 = B_SPLINE_SURFACE_WITH_KNOTS('',1,1,(
    (#107,#108)
    ,(#109,#110
    )),.UNSPECIFIED.,.F.,.F.,.F.,(2,2),(2,2),(0.,5.905),(0.,1.),
  .PIECEWISE_BEZIER_KNOTS.);
#107 = CARTESIAN_POINT('',(3.3375,-2.8625,0.15));
#108 = CARTESIAN_POINT('',(3.4275,-2.9525,0.885));
#109 = CARTESIAN_POINT('',(3.3375,2.8625,0.15));
#110 = CARTESIAN_POINT('',(3.4275,2.9525,0.885));
#111 = ADVANCED_FACE('',(#112),#136,.T.);
#112 = FACE_BOUND('',#113,.T.);
#113 = EDGE_LOOP('',(#114,#122,#129,#135));
#114 = ORIENTED_EDGE('',*,*,#115,.T.);
#115 = EDGE_CURVE('',#86,#116,#118,.T.);
#116 = VERTEX_POINT('',#117);
#117 = CARTESIAN_POINT('',(-3.3375,2.8625,0.15));
#118 = LINE('',#119,#120);
#119 = CARTESIAN_POINT('',(3.3375,2.8625,0.15));
#120 = VECTOR('',#121,1.);
#121 = DIRECTION('',(-1.,0.,0.));
#122 = ORIENTED_EDGE('',*,*,#123,.T.);
#123 = EDGE_CURVE('',#116,#124,#126,.T.);
#124 = VERTEX_POINT('',#125);
#125 = CARTESIAN_POINT('',(-3.4275,2.9525,0.885));
#126 = B_SPLINE_CURVE_WITH_KNOTS('',1,(#127,#128),.UNSPECIFIED.,.F.,.F.,
  (2,2),(0.,1.),.PIECEWISE_BEZIER_KNOTS.);
#127 = CARTESIAN_POINT('',(-3.3375,2.8625,0.15));
#128 = CARTESIAN_POINT('',(-3.4275,2.9525,0.885));
#129 = ORIENTED_EDGE('',*,*,#130,.F.);
#130 = EDGE_CURVE('',#94,#124,#131,.T.);
#131 = LINE('',#132,#133);
#132 = CARTESIAN_POINT('',(3.4275,2.9525,0.885));
#133 = VECTOR('',#134,1.);
#134 = DIRECTION('',(-1.,0.,0.));
#135 = ORIENTED_EDGE('',*,*,#93,.F.);
#136 = B_SPLINE_SURFACE_WITH_KNOTS('',1,1,(
    (#137,#138)
    ,(#139,#140
    )),.UNSPECIFIED.,.F.,.F.,.F.,(2,2),(2,2),(0.,6.855),(0.,1.),
  .PIECEWISE_BEZIER_KNOTS.);
#137 = CARTESIAN_POINT('',(3.3375,2.8625,0.15));
#138 = CARTESIAN_POINT('',(3.4275,2.9525,0.885));
#139 = CARTESIAN_POINT('',(-3.3375,2.8625,0.15));
#140 = CARTESIAN_POINT('',(-3.4275,2.9525,0.885));
#141 = ADVANCED_FACE('',(#142),#158,.T.);
#142 = FACE_BOUND('',#143,.T.);
#143 = EDGE_LOOP('',(#144,#150,#151,#157));
#144 = ORIENTED_EDGE('',*,*,#145,.T.);
#145 = EDGE_CURVE('',#116,#48,#146,.T.);
#146 = LINE('',#147,#148);
#147 = CARTESIAN_POINT('',(-3.3375,2.8625,0.15));
#148 = VECTOR('',#149,1.);
#149 = DIRECTION('',(0.,-1.,0.));
#150 = ORIENTED_EDGE('',*,*,#72,.T.);
#151 = ORIENTED_EDGE('',*,*,#152,.F.);
#152 = EDGE_CURVE('',#124,#65,#153,.T.);
#153 = LINE('',#154,#155);
#154 = CARTESIAN_POINT('',(-3.4275,2.9525,0.885));
#155 = VECTOR('',#156,1.);
#156 = DIRECTION('',(0.,-1.,0.));
#157 = ORIENTED_EDGE('',*,*,#123,.F.);
#158 = B_SPLINE_SURFACE_WITH_KNOTS('',1,1,(
    (#159,#160)
    ,(#161,#162
    )),.UNSPECIFIED.,.F.,.F.,.F.,(2,2),(2,2),(0.,5.905),(0.,1.),
  .PIECEWISE_BEZIER_KNOTS.);
#159 = CARTESIAN_POINT('',(-3.3375,2.8625,0.15));
#160 = CARTESIAN_POINT('',(-3.4275,2.9525,0.885));
#161 = CARTESIAN_POINT('',(-3.3375,-2.8625,0.15));
#162 = CARTESIAN_POINT('',(-3.4275,-2.9525,0.885));
#163 = ADVANCED_FACE('',(#164),#187,.T.);
#164 = FACE_BOUND('',#165,.T.);
#165 = EDGE_LOOP('',(#166,#167,#174,#182));
#166 = ORIENTED_EDGE('',*,*,#64,.T.);
#167 = ORIENTED_EDGE('',*,*,#168,.T.);
#168 = EDGE_CURVE('',#58,#169,#171,.T.);
#169 = VERTEX_POINT('',#170);
#170 = CARTESIAN_POINT('',(3.3375,-2.8625,2.25));
#171 = B_SPLINE_CURVE_WITH_KNOTS('',1,(#172,#173),.UNSPECIFIED.,.F.,.F.,
  (2,2),(0.,1.),.PIECEWISE_BEZIER_KNOTS.);
#172 = CARTESIAN_POINT('',(3.4275,-2.9525,0.885));
#173 = CARTESIAN_POINT('',(3.3375,-2.8625,2.25));
#174 = ORIENTED_EDGE('',*,*,#175,.F.);
#175 = EDGE_CURVE('',#176,#169,#178,.T.);
#176 = VERTEX_POINT('',#177);
#177 = CARTESIAN_POINT('',(-3.3375,-2.8625,2.25));
#178 = LINE('',#179,#180);
#179 = CARTESIAN_POINT('',(-3.3375,-2.8625,2.25));
#180 = VECTOR('',#181,1.);
#181 = DIRECTION('',(1.,0.,0.));
#182 = ORIENTED_EDGE('',*,*,#183,.F.);
#183 = EDGE_CURVE('',#65,#176,#184,.T.);
#184 = B_SPLINE_CURVE_WITH_KNOTS('',1,(#185,#186),.UNSPECIFIED.,.F.,.F.,
  (2,2),(0.,1.),.PIECEWISE_BEZIER_KNOTS.);
#185 = CARTESIAN_POINT('',(-3.4275,-2.9525,0.885));
#186 = CARTESIAN_POINT('',(-3.3375,-2.8625,2.25));
#187 = B_SPLINE_SURFACE_WITH_KNOTS('',1,1,(
    (#188,#189)
    ,(#190,#191
    )),.UNSPECIFIED.,.F.,.F.,.F.,(2,2),(2,2),(0.,6.855),(0.,1.),
  .PIECEWISE_BEZIER_KNOTS.);
#188 = CARTESIAN_POINT('',(-3.4275,-2.9525,0.885));
#189 = CARTESIAN_POINT('',(-3.3375,-2.8625,2.25));
#190 = CARTESIAN_POINT('',(3.4275,-2.9525,0.885));
#191 = CARTESIAN_POINT('',(3.3375,-2.8625,2.25));
#192 = ADVANCED_FACE('',(#193),#210,.T.);
#193 = FACE_BOUND('',#194,.T.);
#194 = EDGE_LOOP('',(#195,#196,#203,#209));
#195 = ORIENTED_EDGE('',*,*,#100,.T.);
#196 = ORIENTED_EDGE('',*,*,#197,.T.);
#197 = EDGE_CURVE('',#94,#198,#200,.T.);
#198 = VERTEX_POINT('',#199);
#199 = CARTESIAN_POINT('',(3.3375,2.8625,2.25));
#200 = B_SPLINE_CURVE_WITH_KNOTS('',1,(#201,#202),.UNSPECIFIED.,.F.,.F.,
  (2,2),(0.,1.),.PIECEWISE_BEZIER_KNOTS.);
#201 = CARTESIAN_POINT('',(3.4275,2.9525,0.885));
#202 = CARTESIAN_POINT('',(3.3375,2.8625,2.25));
#203 = ORIENTED_EDGE('',*,*,#204,.F.);
#204 = EDGE_CURVE('',#169,#198,#205,.T.);
#205 = LINE('',#206,#207);
#206 = CARTESIAN_POINT('',(3.3375,-2.8625,2.25));
#207 = VECTOR('',#208,1.);
#208 = DIRECTION('',(0.,1.,0.));
#209 = ORIENTED_EDGE('',*,*,#168,.F.);
#210 = B_SPLINE_SURFACE_WITH_KNOTS('',1,1,(
    (#211,#212)
    ,(#213,#214
    )),.UNSPECIFIED.,.F.,.F.,.F.,(2,2),(2,2),(0.,5.905),(0.,1.),
  .PIECEWISE_BEZIER_KNOTS.);
#211 = CARTESIAN_POINT('',(3.4275,-2.9525,0.885));
#212 = CARTESIAN_POINT('',(3.3375,-2.8625,2.25));
#213 = CARTESIAN_POINT('',(3.4275,2.9525,0.885));
#214 = CARTESIAN_POINT('',(3.3375,2.8625,2.25));
#215 = ADVANCED_FACE('',(#216),#233,.T.);
#216 = FACE_BOUND('',#217,.T.);
#217 = EDGE_LOOP('',(#218,#219,#226,#232));
#218 = ORIENTED_EDGE('',*,*,#130,.T.);
#219 = ORIENTED_EDGE('',*,*,#220,.T.);
#220 = EDGE_CURVE('',#124,#221,#223,.T.);
#221 = VERTEX_POINT('',#222);
#222 = CARTESIAN_POINT('',(-3.3375,2.8625,2.25));
#223 = B_SPLINE_CURVE_WITH_KNOTS('',1,(#224,#225),.UNSPECIFIED.,.F.,.F.,
  (2,2),(0.,1.),.PIECEWISE_BEZIER_KNOTS.);
#224 = CARTESIAN_POINT('',(-3.4275,2.9525,0.885));
#225 = CARTESIAN_POINT('',(-3.3375,2.8625,2.25));
#226 = ORIENTED_EDGE('',*,*,#227,.F.);
#227 = EDGE_CURVE('',#198,#221,#228,.T.);
#228 = LINE('',#229,#230);
#229 = CARTESIAN_POINT('',(3.3375,2.8625,2.25));
#230 = VECTOR('',#231,1.);
#231 = DIRECTION('',(-1.,0.,0.));
#232 = ORIENTED_EDGE('',*,*,#197,.F.);
#233 = B_SPLINE_SURFACE_WITH_KNOTS('',1,1,(
    (#234,#235)
    ,(#236,#237
    )),.UNSPECIFIED.,.F.,.F.,.F.,(2,2),(2,2),(0.,6.855),(0.,1.),
  .PIECEWISE_BEZIER_KNOTS.);
#234 = CARTESIAN_POINT('',(3.4275,2.9525,0.885));
#235 = CARTESIAN_POINT('',(3.3375,2.8625,2.25));
#236 = CARTESIAN_POINT('',(-3.4275,2.9525,0.885));
#237 = CARTESIAN_POINT('',(-3.3375,2.8625,2.25));
#238 = ADVANCED_FACE('',(#239),#250,.T.);
#239 = FACE_BOUND('',#240,.T.);
#240 = EDGE_LOOP('',(#241,#242,#243,#249));
#241 = ORIENTED_EDGE('',*,*,#152,.T.);
#242 = ORIENTED_EDGE('',*,*,#183,.T.);
#243 = ORIENTED_EDGE('',*,*,#244,.F.);
#244 = EDGE_CURVE('',#221,#176,#245,.T.);
#245 = LINE('',#246,#247);
#246 = CARTESIAN_POINT('',(-3.3375,2.8625,2.25));
#247 = VECTOR('',#248,1.);
#248 = DIRECTION('',(0.,-1.,0.));
#249 = ORIENTED_EDGE('',*,*,#220,.F.);
#250 = B_SPLINE_SURFACE_WITH_KNOTS('',1,1,(
    (#251,#252)
    ,(#253,#254
    )),.UNSPECIFIED.,.F.,.F.,.F.,(2,2),(2,2),(0.,5.905),(0.,1.),
  .PIECEWISE_BEZIER_KNOTS.);
#251 = CARTESIAN_POINT('',(-3.4275,2.9525,0.885));
#252 = CARTESIAN_POINT('',(-3.3375,2.8625,2.25));
#253 = CARTESIAN_POINT('',(-3.4275,-2.9525,0.885));
#254 = CARTESIAN_POINT('',(-3.3375,-2.8625,2.25));
#255 = ADVANCED_FACE('',(#256),#262,.T.);
#256 = FACE_BOUND('',#257,.F.);
#257 = EDGE_LOOP('',(#258,#259,#260,#261));
#258 = ORIENTED_EDGE('',*,*,#47,.T.);
#259 = ORIENTED_EDGE('',*,*,#85,.T.);
#260 = ORIENTED_EDGE('',*,*,#115,.T.);
#261 = ORIENTED_EDGE('',*,*,#145,.T.);
#262 = PLANE('',#263);
#263 = AXIS2_PLACEMENT_3D('',#264,#265,#266);
#264 = CARTESIAN_POINT('',(-3.3375,-2.8625,0.15));
#265 = DIRECTION('',(0.,0.,-1.));
#266 = DIRECTION('',(0.759055890554,0.651025464183,0.));
#267 = ADVANCED_FACE('',(#268),#274,.F.);
#268 = FACE_BOUND('',#269,.T.);
#269 = EDGE_LOOP('',(#270,#271,#272,#273));
#270 = ORIENTED_EDGE('',*,*,#175,.T.);
#271 = ORIENTED_EDGE('',*,*,#204,.T.);
#272 = ORIENTED_EDGE('',*,*,#227,.T.);
#273 = ORIENTED_EDGE('',*,*,#244,.T.);
#274 = PLANE('',#275);
#275 = AXIS2_PLACEMENT_3D('',#276,#277,#278);
#276 = CARTESIAN_POINT('',(-3.3375,-2.8625,2.25));
#277 = DIRECTION('',(0.,0.,-1.));
#278 = DIRECTION('',(0.759055890554,0.651025464183,0.));
#279 = ( GEOMETRIC_REPRESENTATION_CONTEXT(3) 
GLOBAL_UNCERTAINTY_ASSIGNED_CONTEXT((#283)) GLOBAL_UNIT_ASSIGNED_CONTEXT
((#280,#281,#282)) REPRESENTATION_CONTEXT('Context #1',
  '3D Context with UNIT and UNCERTAINTY') );
#280 = ( LENGTH_UNIT() NAMED_UNIT(*) SI_UNIT(.MILLI.,.METRE.) );
#281 = ( NAMED_UNIT(*) PLANE_ANGLE_UNIT() SI_UNIT($,.RADIAN.) );
#282 = ( NAMED_UNIT(*) SI_UNIT($,.STERADIAN.) SOLID_ANGLE_UNIT() );
#283 = UNCERTAINTY_MEASURE_WITH_UNIT(LENGTH_MEASURE(1.E-07),#280,
  'distance_accuracy_value','confusion accuracy');
#284 = CONTEXT_DEPENDENT_SHAPE_REPRESENTATION(#285,#287);
#285 = ( REPRESENTATION_RELATIONSHIP('','',#40,#10) 
REPRESENTATION_RELATIONSHIP_WITH_TRANSFORMATION(#286) 
SHAPE_REPRESENTATION_RELATIONSHIP() );
#286 = ITEM_DEFINED_TRANSFORMATION('','',#11,#15);
#287 = PRODUCT_DEFINITION_SHAPE('Placement','Placement of an item',#288
  );
#288 = NEXT_ASSEMBLY_USAGE_OCCURRENCE('92',
  'Molded_body_no_polarity_band','',#5,#35,$);
#289 = PRODUCT_RELATED_PRODUCT_CATEGORY('part',$,(#37));
#290 = SHAPE_DEFINITION_REPRESENTATION(#291,#297);
#291 = PRODUCT_DEFINITION_SHAPE('','',#292);
#292 = PRODUCT_DEFINITION('design','',#293,#296);
#293 = PRODUCT_DEFINITION_FORMATION('','',#294);
#294 = PRODUCT('Terminal_1','Terminal_1','',(#295));
#295 = PRODUCT_CONTEXT('',#2,'mechanical');
#296 = PRODUCT_DEFINITION_CONTEXT('part definition',#2,'design');
#297 = ADVANCED_BREP_SHAPE_REPRESENTATION('',(#11,#298),#580);
#298 = MANIFOLD_SOLID_BREP('',#299);
#299 = CLOSED_SHELL('',(#300,#340,#371,#402,#433,#464,#495,#526,#548,
    #564));
#300 = ADVANCED_FACE('',(#301),#335,.F.);
#301 = FACE_BOUND('',#302,.F.);
#302 = EDGE_LOOP('',(#303,#313,#321,#329));
#303 = ORIENTED_EDGE('',*,*,#304,.T.);
#304 = EDGE_CURVE('',#305,#307,#309,.T.);
#305 = VERTEX_POINT('',#306);
#306 = CARTESIAN_POINT('',(-2.83,-1.4825,0.));
#307 = VERTEX_POINT('',#308);
#308 = CARTESIAN_POINT('',(-2.83,1.4825,0.));
#309 = LINE('',#310,#311);
#310 = CARTESIAN_POINT('',(-2.83,-1.4825,0.));
#311 = VECTOR('',#312,1.);
#312 = DIRECTION('',(0.,1.,0.));
#313 = ORIENTED_EDGE('',*,*,#314,.T.);
#314 = EDGE_CURVE('',#307,#315,#317,.T.);
#315 = VERTEX_POINT('',#316);
#316 = CARTESIAN_POINT('',(-3.97,1.4825,0.));
#317 = LINE('',#318,#319);
#318 = CARTESIAN_POINT('',(-2.83,1.4825,0.));
#319 = VECTOR('',#320,1.);
#320 = DIRECTION('',(-1.,0.,0.));
#321 = ORIENTED_EDGE('',*,*,#322,.F.);
#322 = EDGE_CURVE('',#323,#315,#325,.T.);
#323 = VERTEX_POINT('',#324);
#324 = CARTESIAN_POINT('',(-3.97,-1.4825,0.));
#325 = LINE('',#326,#327);
#326 = CARTESIAN_POINT('',(-3.97,-1.4825,0.));
#327 = VECTOR('',#328,1.);
#328 = DIRECTION('',(0.,1.,0.));
#329 = ORIENTED_EDGE('',*,*,#330,.F.);
#330 = EDGE_CURVE('',#305,#323,#331,.T.);
#331 = LINE('',#332,#333);
#332 = CARTESIAN_POINT('',(-2.83,-1.4825,0.));
#333 = VECTOR('',#334,1.);
#334 = DIRECTION('',(-1.,0.,0.));
#335 = PLANE('',#336);
#336 = AXIS2_PLACEMENT_3D('',#337,#338,#339);
#337 = CARTESIAN_POINT('',(-2.83,-1.4825,0.));
#338 = DIRECTION('',(0.,-0.,1.));
#339 = DIRECTION('',(-1.,0.,0.));
#340 = ADVANCED_FACE('',(#341),#366,.F.);
#341 = FACE_BOUND('',#342,.F.);
#342 = EDGE_LOOP('',(#343,#344,#352,#360));
#343 = ORIENTED_EDGE('',*,*,#322,.T.);
#344 = ORIENTED_EDGE('',*,*,#345,.T.);
#345 = EDGE_CURVE('',#315,#346,#348,.T.);
#346 = VERTEX_POINT('',#347);
#347 = CARTESIAN_POINT('',(-3.97,1.4825,1.18));
#348 = LINE('',#349,#350);
#349 = CARTESIAN_POINT('',(-3.97,1.4825,0.));
#350 = VECTOR('',#351,1.);
#351 = DIRECTION('',(0.,0.,1.));
#352 = ORIENTED_EDGE('',*,*,#353,.F.);
#353 = EDGE_CURVE('',#354,#346,#356,.T.);
#354 = VERTEX_POINT('',#355);
#355 = CARTESIAN_POINT('',(-3.97,-1.4825,1.18));
#356 = LINE('',#357,#358);
#357 = CARTESIAN_POINT('',(-3.97,-1.4825,1.18));
#358 = VECTOR('',#359,1.);
#359 = DIRECTION('',(0.,1.,0.));
#360 = ORIENTED_EDGE('',*,*,#361,.F.);
#361 = EDGE_CURVE('',#323,#354,#362,.T.);
#362 = LINE('',#363,#364);
#363 = CARTESIAN_POINT('',(-3.97,-1.4825,0.));
#364 = VECTOR('',#365,1.);
#365 = DIRECTION('',(0.,0.,1.));
#366 = PLANE('',#367);
#367 = AXIS2_PLACEMENT_3D('',#368,#369,#370);
#368 = CARTESIAN_POINT('',(-3.97,-1.4825,0.));
#369 = DIRECTION('',(1.,0.,0.));
#370 = DIRECTION('',(0.,0.,1.));
#371 = ADVANCED_FACE('',(#372),#397,.F.);
#372 = FACE_BOUND('',#373,.F.);
#373 = EDGE_LOOP('',(#374,#375,#383,#391));
#374 = ORIENTED_EDGE('',*,*,#353,.T.);
#375 = ORIENTED_EDGE('',*,*,#376,.T.);
#376 = EDGE_CURVE('',#346,#377,#379,.T.);
#377 = VERTEX_POINT('',#378);
#378 = CARTESIAN_POINT('',(-3.3475,1.4825,1.18));
#379 = LINE('',#380,#381);
#380 = CARTESIAN_POINT('',(-3.97,1.4825,1.18));
#381 = VECTOR('',#382,1.);
#382 = DIRECTION('',(1.,0.,0.));
#383 = ORIENTED_EDGE('',*,*,#384,.F.);
#384 = EDGE_CURVE('',#385,#377,#387,.T.);
#385 = VERTEX_POINT('',#386);
#386 = CARTESIAN_POINT('',(-3.3475,-1.4825,1.18));
#387 = LINE('',#388,#389);
#388 = CARTESIAN_POINT('',(-3.3475,-1.4825,1.18));
#389 = VECTOR('',#390,1.);
#390 = DIRECTION('',(0.,1.,0.));
#391 = ORIENTED_EDGE('',*,*,#392,.F.);
#392 = EDGE_CURVE('',#354,#385,#393,.T.);
#393 = LINE('',#394,#395);
#394 = CARTESIAN_POINT('',(-3.97,-1.4825,1.18));
#395 = VECTOR('',#396,1.);
#396 = DIRECTION('',(1.,0.,0.));
#397 = PLANE('',#398);
#398 = AXIS2_PLACEMENT_3D('',#399,#400,#401);
#399 = CARTESIAN_POINT('',(-3.97,-1.4825,1.18));
#400 = DIRECTION('',(0.,0.,-1.));
#401 = DIRECTION('',(1.,0.,0.));
#402 = ADVANCED_FACE('',(#403),#428,.F.);
#403 = FACE_BOUND('',#404,.F.);
#404 = EDGE_LOOP('',(#405,#406,#414,#422));
#405 = ORIENTED_EDGE('',*,*,#384,.T.);
#406 = ORIENTED_EDGE('',*,*,#407,.T.);
#407 = EDGE_CURVE('',#377,#408,#410,.T.);
#408 = VERTEX_POINT('',#409);
#409 = CARTESIAN_POINT('',(-3.3475,1.4825,0.95));
#410 = LINE('',#411,#412);
#411 = CARTESIAN_POINT('',(-3.3475,1.4825,1.18));
#412 = VECTOR('',#413,1.);
#413 = DIRECTION('',(0.,0.,-1.));
#414 = ORIENTED_EDGE('',*,*,#415,.F.);
#415 = EDGE_CURVE('',#416,#408,#418,.T.);
#416 = VERTEX_POINT('',#417);
#417 = CARTESIAN_POINT('',(-3.3475,-1.4825,0.95));
#418 = LINE('',#419,#420);
#419 = CARTESIAN_POINT('',(-3.3475,-1.4825,0.95));
#420 = VECTOR('',#421,1.);
#421 = DIRECTION('',(0.,1.,0.));
#422 = ORIENTED_EDGE('',*,*,#423,.F.);
#423 = EDGE_CURVE('',#385,#416,#424,.T.);
#424 = LINE('',#425,#426);
#425 = CARTESIAN_POINT('',(-3.3475,-1.4825,1.18));
#426 = VECTOR('',#427,1.);
#427 = DIRECTION('',(0.,0.,-1.));
#428 = PLANE('',#429);
#429 = AXIS2_PLACEMENT_3D('',#430,#431,#432);
#430 = CARTESIAN_POINT('',(-3.3475,-1.4825,1.18));
#431 = DIRECTION('',(-1.,0.,0.));
#432 = DIRECTION('',(0.,0.,-1.));
#433 = ADVANCED_FACE('',(#434),#459,.F.);
#434 = FACE_BOUND('',#435,.F.);
#435 = EDGE_LOOP('',(#436,#437,#445,#453));
#436 = ORIENTED_EDGE('',*,*,#415,.T.);
#437 = ORIENTED_EDGE('',*,*,#438,.T.);
#438 = EDGE_CURVE('',#408,#439,#441,.T.);
#439 = VERTEX_POINT('',#440);
#440 = CARTESIAN_POINT('',(-3.74,1.4825,0.95));
#441 = LINE('',#442,#443);
#442 = CARTESIAN_POINT('',(-3.3475,1.4825,0.95));
#443 = VECTOR('',#444,1.);
#444 = DIRECTION('',(-1.,0.,0.));
#445 = ORIENTED_EDGE('',*,*,#446,.F.);
#446 = EDGE_CURVE('',#447,#439,#449,.T.);
#447 = VERTEX_POINT('',#448);
#448 = CARTESIAN_POINT('',(-3.74,-1.4825,0.95));
#449 = LINE('',#450,#451);
#450 = CARTESIAN_POINT('',(-3.74,-1.4825,0.95));
#451 = VECTOR('',#452,1.);
#452 = DIRECTION('',(0.,1.,0.));
#453 = ORIENTED_EDGE('',*,*,#454,.F.);
#454 = EDGE_CURVE('',#416,#447,#455,.T.);
#455 = LINE('',#456,#457);
#456 = CARTESIAN_POINT('',(-3.3475,-1.4825,0.95));
#457 = VECTOR('',#458,1.);
#458 = DIRECTION('',(-1.,0.,0.));
#459 = PLANE('',#460);
#460 = AXIS2_PLACEMENT_3D('',#461,#462,#463);
#461 = CARTESIAN_POINT('',(-3.3475,-1.4825,0.95));
#462 = DIRECTION('',(0.,-0.,1.));
#463 = DIRECTION('',(-1.,0.,0.));
#464 = ADVANCED_FACE('',(#465),#490,.F.);
#465 = FACE_BOUND('',#466,.F.);
#466 = EDGE_LOOP('',(#467,#468,#476,#484));
#467 = ORIENTED_EDGE('',*,*,#446,.T.);
#468 = ORIENTED_EDGE('',*,*,#469,.T.);
#469 = EDGE_CURVE('',#439,#470,#472,.T.);
#470 = VERTEX_POINT('',#471);
#471 = CARTESIAN_POINT('',(-3.74,1.4825,0.23));
#472 = LINE('',#473,#474);
#473 = CARTESIAN_POINT('',(-3.74,1.4825,0.95));
#474 = VECTOR('',#475,1.);
#475 = DIRECTION('',(0.,0.,-1.));
#476 = ORIENTED_EDGE('',*,*,#477,.F.);
#477 = EDGE_CURVE('',#478,#470,#480,.T.);
#478 = VERTEX_POINT('',#479);
#479 = CARTESIAN_POINT('',(-3.74,-1.4825,0.23));
#480 = LINE('',#481,#482);
#481 = CARTESIAN_POINT('',(-3.74,-1.4825,0.23));
#482 = VECTOR('',#483,1.);
#483 = DIRECTION('',(0.,1.,0.));
#484 = ORIENTED_EDGE('',*,*,#485,.F.);
#485 = EDGE_CURVE('',#447,#478,#486,.T.);
#486 = LINE('',#487,#488);
#487 = CARTESIAN_POINT('',(-3.74,-1.4825,0.95));
#488 = VECTOR('',#489,1.);
#489 = DIRECTION('',(0.,0.,-1.));
#490 = PLANE('',#491);
#491 = AXIS2_PLACEMENT_3D('',#492,#493,#494);
#492 = CARTESIAN_POINT('',(-3.74,-1.4825,0.95));
#493 = DIRECTION('',(-1.,0.,0.));
#494 = DIRECTION('',(0.,0.,-1.));
#495 = ADVANCED_FACE('',(#496),#521,.F.);
#496 = FACE_BOUND('',#497,.F.);
#497 = EDGE_LOOP('',(#498,#499,#507,#515));
#498 = ORIENTED_EDGE('',*,*,#477,.T.);
#499 = ORIENTED_EDGE('',*,*,#500,.T.);
#500 = EDGE_CURVE('',#470,#501,#503,.T.);
#501 = VERTEX_POINT('',#502);
#502 = CARTESIAN_POINT('',(-2.83,1.4825,0.23));
#503 = LINE('',#504,#505);
#504 = CARTESIAN_POINT('',(-3.74,1.4825,0.23));
#505 = VECTOR('',#506,1.);
#506 = DIRECTION('',(1.,0.,0.));
#507 = ORIENTED_EDGE('',*,*,#508,.F.);
#508 = EDGE_CURVE('',#509,#501,#511,.T.);
#509 = VERTEX_POINT('',#510);
#510 = CARTESIAN_POINT('',(-2.83,-1.4825,0.23));
#511 = LINE('',#512,#513);
#512 = CARTESIAN_POINT('',(-2.83,-1.4825,0.23));
#513 = VECTOR('',#514,1.);
#514 = DIRECTION('',(0.,1.,0.));
#515 = ORIENTED_EDGE('',*,*,#516,.F.);
#516 = EDGE_CURVE('',#478,#509,#517,.T.);
#517 = LINE('',#518,#519);
#518 = CARTESIAN_POINT('',(-3.74,-1.4825,0.23));
#519 = VECTOR('',#520,1.);
#520 = DIRECTION('',(1.,0.,0.));
#521 = PLANE('',#522);
#522 = AXIS2_PLACEMENT_3D('',#523,#524,#525);
#523 = CARTESIAN_POINT('',(-3.74,-1.4825,0.23));
#524 = DIRECTION('',(0.,0.,-1.));
#525 = DIRECTION('',(1.,0.,0.));
#526 = ADVANCED_FACE('',(#527),#543,.F.);
#527 = FACE_BOUND('',#528,.F.);
#528 = EDGE_LOOP('',(#529,#530,#536,#537));
#529 = ORIENTED_EDGE('',*,*,#508,.T.);
#530 = ORIENTED_EDGE('',*,*,#531,.T.);
#531 = EDGE_CURVE('',#501,#307,#532,.T.);
#532 = LINE('',#533,#534);
#533 = CARTESIAN_POINT('',(-2.83,1.4825,0.23));
#534 = VECTOR('',#535,1.);
#535 = DIRECTION('',(0.,0.,-1.));
#536 = ORIENTED_EDGE('',*,*,#304,.F.);
#537 = ORIENTED_EDGE('',*,*,#538,.F.);
#538 = EDGE_CURVE('',#509,#305,#539,.T.);
#539 = LINE('',#540,#541);
#540 = CARTESIAN_POINT('',(-2.83,-1.4825,0.23));
#541 = VECTOR('',#542,1.);
#542 = DIRECTION('',(0.,0.,-1.));
#543 = PLANE('',#544);
#544 = AXIS2_PLACEMENT_3D('',#545,#546,#547);
#545 = CARTESIAN_POINT('',(-2.83,-1.4825,0.23));
#546 = DIRECTION('',(-1.,0.,0.));
#547 = DIRECTION('',(0.,0.,-1.));
#548 = ADVANCED_FACE('',(#549),#559,.F.);
#549 = FACE_BOUND('',#550,.F.);
#550 = EDGE_LOOP('',(#551,#552,#553,#554,#555,#556,#557,#558));
#551 = ORIENTED_EDGE('',*,*,#330,.T.);
#552 = ORIENTED_EDGE('',*,*,#361,.T.);
#553 = ORIENTED_EDGE('',*,*,#392,.T.);
#554 = ORIENTED_EDGE('',*,*,#423,.T.);
#555 = ORIENTED_EDGE('',*,*,#454,.T.);
#556 = ORIENTED_EDGE('',*,*,#485,.T.);
#557 = ORIENTED_EDGE('',*,*,#516,.T.);
#558 = ORIENTED_EDGE('',*,*,#538,.T.);
#559 = PLANE('',#560);
#560 = AXIS2_PLACEMENT_3D('',#561,#562,#563);
#561 = CARTESIAN_POINT('',(-3.563514976959,-1.4825,0.499377880184));
#562 = DIRECTION('',(0.,1.,0.));
#563 = DIRECTION('',(0.,-0.,1.));
#564 = ADVANCED_FACE('',(#565),#575,.T.);
#565 = FACE_BOUND('',#566,.T.);
#566 = EDGE_LOOP('',(#567,#568,#569,#570,#571,#572,#573,#574));
#567 = ORIENTED_EDGE('',*,*,#314,.T.);
#568 = ORIENTED_EDGE('',*,*,#345,.T.);
#569 = ORIENTED_EDGE('',*,*,#376,.T.);
#570 = ORIENTED_EDGE('',*,*,#407,.T.);
#571 = ORIENTED_EDGE('',*,*,#438,.T.);
#572 = ORIENTED_EDGE('',*,*,#469,.T.);
#573 = ORIENTED_EDGE('',*,*,#500,.T.);
#574 = ORIENTED_EDGE('',*,*,#531,.T.);
#575 = PLANE('',#576);
#576 = AXIS2_PLACEMENT_3D('',#577,#578,#579);
#577 = CARTESIAN_POINT('',(-3.563514976959,1.4825,0.499377880184));
#578 = DIRECTION('',(0.,1.,0.));
#579 = DIRECTION('',(0.,-0.,1.));
#580 = ( GEOMETRIC_REPRESENTATION_CONTEXT(3) 
GLOBAL_UNCERTAINTY_ASSIGNED_CONTEXT((#584)) GLOBAL_UNIT_ASSIGNED_CONTEXT
((#581,#582,#583)) REPRESENTATION_CONTEXT('Context #1',
  '3D Context with UNIT and UNCERTAINTY') );
#581 = ( LENGTH_UNIT() NAMED_UNIT(*) SI_UNIT(.MILLI.,.METRE.) );
#582 = ( NAMED_UNIT(*) PLANE_ANGLE_UNIT() SI_UNIT($,.RADIAN.) );
#583 = ( NAMED_UNIT(*) SI_UNIT($,.STERADIAN.) SOLID_ANGLE_UNIT() );
#584 = UNCERTAINTY_MEASURE_WITH_UNIT(LENGTH_MEASURE(1.E-07),#581,
  'distance_accuracy_value','confusion accuracy');
#585 = CONTEXT_DEPENDENT_SHAPE_REPRESENTATION(#586,#588);
#586 = ( REPRESENTATION_RELATIONSHIP('','',#297,#10) 
REPRESENTATION_RELATIONSHIP_WITH_TRANSFORMATION(#587) 
SHAPE_REPRESENTATION_RELATIONSHIP() );
#587 = ITEM_DEFINED_TRANSFORMATION('','',#11,#19);
#588 = PRODUCT_DEFINITION_SHAPE('Placement','Placement of an item',#589
  );
#589 = NEXT_ASSEMBLY_USAGE_OCCURRENCE('93','Terminal_1','',#5,#292,$);
#590 = PRODUCT_RELATED_PRODUCT_CATEGORY('part',$,(#294));
#591 = SHAPE_DEFINITION_REPRESENTATION(#592,#598);
#592 = PRODUCT_DEFINITION_SHAPE('','',#593);
#593 = PRODUCT_DEFINITION('design','',#594,#597);
#594 = PRODUCT_DEFINITION_FORMATION('','',#595);
#595 = PRODUCT('Terminal_2','Terminal_2','',(#596));
#596 = PRODUCT_CONTEXT('',#2,'mechanical');
#597 = PRODUCT_DEFINITION_CONTEXT('part definition',#2,'design');
#598 = ADVANCED_BREP_SHAPE_REPRESENTATION('',(#11,#599),#881);
#599 = MANIFOLD_SOLID_BREP('',#600);
#600 = CLOSED_SHELL('',(#601,#641,#672,#703,#734,#765,#796,#827,#849,
    #865));
#601 = ADVANCED_FACE('',(#602),#636,.T.);
#602 = FACE_BOUND('',#603,.T.);
#603 = EDGE_LOOP('',(#604,#614,#622,#630));
#604 = ORIENTED_EDGE('',*,*,#605,.T.);
#605 = EDGE_CURVE('',#606,#608,#610,.T.);
#606 = VERTEX_POINT('',#607);
#607 = CARTESIAN_POINT('',(2.83,-1.4825,0.));
#608 = VERTEX_POINT('',#609);
#609 = CARTESIAN_POINT('',(2.83,1.4825,0.));
#610 = LINE('',#611,#612);
#611 = CARTESIAN_POINT('',(2.83,-1.4825,0.));
#612 = VECTOR('',#613,1.);
#613 = DIRECTION('',(0.,1.,0.));
#614 = ORIENTED_EDGE('',*,*,#615,.T.);
#615 = EDGE_CURVE('',#608,#616,#618,.T.);
#616 = VERTEX_POINT('',#617);
#617 = CARTESIAN_POINT('',(3.97,1.4825,0.));
#618 = LINE('',#619,#620);
#619 = CARTESIAN_POINT('',(2.83,1.4825,0.));
#620 = VECTOR('',#621,1.);
#621 = DIRECTION('',(1.,0.,0.));
#622 = ORIENTED_EDGE('',*,*,#623,.F.);
#623 = EDGE_CURVE('',#624,#616,#626,.T.);
#624 = VERTEX_POINT('',#625);
#625 = CARTESIAN_POINT('',(3.97,-1.4825,0.));
#626 = LINE('',#627,#628);
#627 = CARTESIAN_POINT('',(3.97,-1.4825,0.));
#628 = VECTOR('',#629,1.);
#629 = DIRECTION('',(0.,1.,0.));
#630 = ORIENTED_EDGE('',*,*,#631,.F.);
#631 = EDGE_CURVE('',#606,#624,#632,.T.);
#632 = LINE('',#633,#634);
#633 = CARTESIAN_POINT('',(2.83,-1.4825,0.));
#634 = VECTOR('',#635,1.);
#635 = DIRECTION('',(1.,0.,0.));
#636 = PLANE('',#637);
#637 = AXIS2_PLACEMENT_3D('',#638,#639,#640);
#638 = CARTESIAN_POINT('',(2.83,-1.4825,0.));
#639 = DIRECTION('',(0.,0.,-1.));
#640 = DIRECTION('',(1.,0.,0.));
#641 = ADVANCED_FACE('',(#642),#667,.T.);
#642 = FACE_BOUND('',#643,.T.);
#643 = EDGE_LOOP('',(#644,#645,#653,#661));
#644 = ORIENTED_EDGE('',*,*,#623,.T.);
#645 = ORIENTED_EDGE('',*,*,#646,.T.);
#646 = EDGE_CURVE('',#616,#647,#649,.T.);
#647 = VERTEX_POINT('',#648);
#648 = CARTESIAN_POINT('',(3.97,1.4825,1.18));
#649 = LINE('',#650,#651);
#650 = CARTESIAN_POINT('',(3.97,1.4825,0.));
#651 = VECTOR('',#652,1.);
#652 = DIRECTION('',(0.,0.,1.));
#653 = ORIENTED_EDGE('',*,*,#654,.F.);
#654 = EDGE_CURVE('',#655,#647,#657,.T.);
#655 = VERTEX_POINT('',#656);
#656 = CARTESIAN_POINT('',(3.97,-1.4825,1.18));
#657 = LINE('',#658,#659);
#658 = CARTESIAN_POINT('',(3.97,-1.4825,1.18));
#659 = VECTOR('',#660,1.);
#660 = DIRECTION('',(0.,1.,0.));
#661 = ORIENTED_EDGE('',*,*,#662,.F.);
#662 = EDGE_CURVE('',#624,#655,#663,.T.);
#663 = LINE('',#664,#665);
#664 = CARTESIAN_POINT('',(3.97,-1.4825,0.));
#665 = VECTOR('',#666,1.);
#666 = DIRECTION('',(0.,0.,1.));
#667 = PLANE('',#668);
#668 = AXIS2_PLACEMENT_3D('',#669,#670,#671);
#669 = CARTESIAN_POINT('',(3.97,-1.4825,0.));
#670 = DIRECTION('',(1.,0.,0.));
#671 = DIRECTION('',(0.,0.,1.));
#672 = ADVANCED_FACE('',(#673),#698,.T.);
#673 = FACE_BOUND('',#674,.T.);
#674 = EDGE_LOOP('',(#675,#676,#684,#692));
#675 = ORIENTED_EDGE('',*,*,#654,.T.);
#676 = ORIENTED_EDGE('',*,*,#677,.T.);
#677 = EDGE_CURVE('',#647,#678,#680,.T.);
#678 = VERTEX_POINT('',#679);
#679 = CARTESIAN_POINT('',(3.3475,1.4825,1.18));
#680 = LINE('',#681,#682);
#681 = CARTESIAN_POINT('',(3.97,1.4825,1.18));
#682 = VECTOR('',#683,1.);
#683 = DIRECTION('',(-1.,0.,0.));
#684 = ORIENTED_EDGE('',*,*,#685,.F.);
#685 = EDGE_CURVE('',#686,#678,#688,.T.);
#686 = VERTEX_POINT('',#687);
#687 = CARTESIAN_POINT('',(3.3475,-1.4825,1.18));
#688 = LINE('',#689,#690);
#689 = CARTESIAN_POINT('',(3.3475,-1.4825,1.18));
#690 = VECTOR('',#691,1.);
#691 = DIRECTION('',(0.,1.,0.));
#692 = ORIENTED_EDGE('',*,*,#693,.F.);
#693 = EDGE_CURVE('',#655,#686,#694,.T.);
#694 = LINE('',#695,#696);
#695 = CARTESIAN_POINT('',(3.97,-1.4825,1.18));
#696 = VECTOR('',#697,1.);
#697 = DIRECTION('',(-1.,0.,0.));
#698 = PLANE('',#699);
#699 = AXIS2_PLACEMENT_3D('',#700,#701,#702);
#700 = CARTESIAN_POINT('',(3.97,-1.4825,1.18));
#701 = DIRECTION('',(0.,-0.,1.));
#702 = DIRECTION('',(-1.,0.,0.));
#703 = ADVANCED_FACE('',(#704),#729,.T.);
#704 = FACE_BOUND('',#705,.T.);
#705 = EDGE_LOOP('',(#706,#707,#715,#723));
#706 = ORIENTED_EDGE('',*,*,#685,.T.);
#707 = ORIENTED_EDGE('',*,*,#708,.T.);
#708 = EDGE_CURVE('',#678,#709,#711,.T.);
#709 = VERTEX_POINT('',#710);
#710 = CARTESIAN_POINT('',(3.3475,1.4825,0.95));
#711 = LINE('',#712,#713);
#712 = CARTESIAN_POINT('',(3.3475,1.4825,1.18));
#713 = VECTOR('',#714,1.);
#714 = DIRECTION('',(0.,0.,-1.));
#715 = ORIENTED_EDGE('',*,*,#716,.F.);
#716 = EDGE_CURVE('',#717,#709,#719,.T.);
#717 = VERTEX_POINT('',#718);
#718 = CARTESIAN_POINT('',(3.3475,-1.4825,0.95));
#719 = LINE('',#720,#721);
#720 = CARTESIAN_POINT('',(3.3475,-1.4825,0.95));
#721 = VECTOR('',#722,1.);
#722 = DIRECTION('',(0.,1.,0.));
#723 = ORIENTED_EDGE('',*,*,#724,.F.);
#724 = EDGE_CURVE('',#686,#717,#725,.T.);
#725 = LINE('',#726,#727);
#726 = CARTESIAN_POINT('',(3.3475,-1.4825,1.18));
#727 = VECTOR('',#728,1.);
#728 = DIRECTION('',(0.,0.,-1.));
#729 = PLANE('',#730);
#730 = AXIS2_PLACEMENT_3D('',#731,#732,#733);
#731 = CARTESIAN_POINT('',(3.3475,-1.4825,1.18));
#732 = DIRECTION('',(-1.,0.,0.));
#733 = DIRECTION('',(0.,0.,-1.));
#734 = ADVANCED_FACE('',(#735),#760,.T.);
#735 = FACE_BOUND('',#736,.T.);
#736 = EDGE_LOOP('',(#737,#738,#746,#754));
#737 = ORIENTED_EDGE('',*,*,#716,.T.);
#738 = ORIENTED_EDGE('',*,*,#739,.T.);
#739 = EDGE_CURVE('',#709,#740,#742,.T.);
#740 = VERTEX_POINT('',#741);
#741 = CARTESIAN_POINT('',(3.74,1.4825,0.95));
#742 = LINE('',#743,#744);
#743 = CARTESIAN_POINT('',(3.3475,1.4825,0.95));
#744 = VECTOR('',#745,1.);
#745 = DIRECTION('',(1.,0.,0.));
#746 = ORIENTED_EDGE('',*,*,#747,.F.);
#747 = EDGE_CURVE('',#748,#740,#750,.T.);
#748 = VERTEX_POINT('',#749);
#749 = CARTESIAN_POINT('',(3.74,-1.4825,0.95));
#750 = LINE('',#751,#752);
#751 = CARTESIAN_POINT('',(3.74,-1.4825,0.95));
#752 = VECTOR('',#753,1.);
#753 = DIRECTION('',(0.,1.,0.));
#754 = ORIENTED_EDGE('',*,*,#755,.F.);
#755 = EDGE_CURVE('',#717,#748,#756,.T.);
#756 = LINE('',#757,#758);
#757 = CARTESIAN_POINT('',(3.3475,-1.4825,0.95));
#758 = VECTOR('',#759,1.);
#759 = DIRECTION('',(1.,0.,0.));
#760 = PLANE('',#761);
#761 = AXIS2_PLACEMENT_3D('',#762,#763,#764);
#762 = CARTESIAN_POINT('',(3.3475,-1.4825,0.95));
#763 = DIRECTION('',(0.,0.,-1.));
#764 = DIRECTION('',(1.,0.,0.));
#765 = ADVANCED_FACE('',(#766),#791,.T.);
#766 = FACE_BOUND('',#767,.T.);
#767 = EDGE_LOOP('',(#768,#769,#777,#785));
#768 = ORIENTED_EDGE('',*,*,#747,.T.);
#769 = ORIENTED_EDGE('',*,*,#770,.T.);
#770 = EDGE_CURVE('',#740,#771,#773,.T.);
#771 = VERTEX_POINT('',#772);
#772 = CARTESIAN_POINT('',(3.74,1.4825,0.23));
#773 = LINE('',#774,#775);
#774 = CARTESIAN_POINT('',(3.74,1.4825,0.95));
#775 = VECTOR('',#776,1.);
#776 = DIRECTION('',(0.,0.,-1.));
#777 = ORIENTED_EDGE('',*,*,#778,.F.);
#778 = EDGE_CURVE('',#779,#771,#781,.T.);
#779 = VERTEX_POINT('',#780);
#780 = CARTESIAN_POINT('',(3.74,-1.4825,0.23));
#781 = LINE('',#782,#783);
#782 = CARTESIAN_POINT('',(3.74,-1.4825,0.23));
#783 = VECTOR('',#784,1.);
#784 = DIRECTION('',(0.,1.,0.));
#785 = ORIENTED_EDGE('',*,*,#786,.F.);
#786 = EDGE_CURVE('',#748,#779,#787,.T.);
#787 = LINE('',#788,#789);
#788 = CARTESIAN_POINT('',(3.74,-1.4825,0.95));
#789 = VECTOR('',#790,1.);
#790 = DIRECTION('',(0.,0.,-1.));
#791 = PLANE('',#792);
#792 = AXIS2_PLACEMENT_3D('',#793,#794,#795);
#793 = CARTESIAN_POINT('',(3.74,-1.4825,0.95));
#794 = DIRECTION('',(-1.,0.,0.));
#795 = DIRECTION('',(0.,0.,-1.));
#796 = ADVANCED_FACE('',(#797),#822,.T.);
#797 = FACE_BOUND('',#798,.T.);
#798 = EDGE_LOOP('',(#799,#800,#808,#816));
#799 = ORIENTED_EDGE('',*,*,#778,.T.);
#800 = ORIENTED_EDGE('',*,*,#801,.T.);
#801 = EDGE_CURVE('',#771,#802,#804,.T.);
#802 = VERTEX_POINT('',#803);
#803 = CARTESIAN_POINT('',(2.83,1.4825,0.23));
#804 = LINE('',#805,#806);
#805 = CARTESIAN_POINT('',(3.74,1.4825,0.23));
#806 = VECTOR('',#807,1.);
#807 = DIRECTION('',(-1.,0.,0.));
#808 = ORIENTED_EDGE('',*,*,#809,.F.);
#809 = EDGE_CURVE('',#810,#802,#812,.T.);
#810 = VERTEX_POINT('',#811);
#811 = CARTESIAN_POINT('',(2.83,-1.4825,0.23));
#812 = LINE('',#813,#814);
#813 = CARTESIAN_POINT('',(2.83,-1.4825,0.23));
#814 = VECTOR('',#815,1.);
#815 = DIRECTION('',(0.,1.,0.));
#816 = ORIENTED_EDGE('',*,*,#817,.F.);
#817 = EDGE_CURVE('',#779,#810,#818,.T.);
#818 = LINE('',#819,#820);
#819 = CARTESIAN_POINT('',(3.74,-1.4825,0.23));
#820 = VECTOR('',#821,1.);
#821 = DIRECTION('',(-1.,0.,0.));
#822 = PLANE('',#823);
#823 = AXIS2_PLACEMENT_3D('',#824,#825,#826);
#824 = CARTESIAN_POINT('',(3.74,-1.4825,0.23));
#825 = DIRECTION('',(0.,-0.,1.));
#826 = DIRECTION('',(-1.,0.,0.));
#827 = ADVANCED_FACE('',(#828),#844,.T.);
#828 = FACE_BOUND('',#829,.T.);
#829 = EDGE_LOOP('',(#830,#831,#837,#838));
#830 = ORIENTED_EDGE('',*,*,#809,.T.);
#831 = ORIENTED_EDGE('',*,*,#832,.T.);
#832 = EDGE_CURVE('',#802,#608,#833,.T.);
#833 = LINE('',#834,#835);
#834 = CARTESIAN_POINT('',(2.83,1.4825,0.23));
#835 = VECTOR('',#836,1.);
#836 = DIRECTION('',(0.,0.,-1.));
#837 = ORIENTED_EDGE('',*,*,#605,.F.);
#838 = ORIENTED_EDGE('',*,*,#839,.F.);
#839 = EDGE_CURVE('',#810,#606,#840,.T.);
#840 = LINE('',#841,#842);
#841 = CARTESIAN_POINT('',(2.83,-1.4825,0.23));
#842 = VECTOR('',#843,1.);
#843 = DIRECTION('',(0.,0.,-1.));
#844 = PLANE('',#845);
#845 = AXIS2_PLACEMENT_3D('',#846,#847,#848);
#846 = CARTESIAN_POINT('',(2.83,-1.4825,0.23));
#847 = DIRECTION('',(-1.,0.,0.));
#848 = DIRECTION('',(0.,0.,-1.));
#849 = ADVANCED_FACE('',(#850),#860,.T.);
#850 = FACE_BOUND('',#851,.T.);
#851 = EDGE_LOOP('',(#852,#853,#854,#855,#856,#857,#858,#859));
#852 = ORIENTED_EDGE('',*,*,#631,.T.);
#853 = ORIENTED_EDGE('',*,*,#662,.T.);
#854 = ORIENTED_EDGE('',*,*,#693,.T.);
#855 = ORIENTED_EDGE('',*,*,#724,.T.);
#856 = ORIENTED_EDGE('',*,*,#755,.T.);
#857 = ORIENTED_EDGE('',*,*,#786,.T.);
#858 = ORIENTED_EDGE('',*,*,#817,.T.);
#859 = ORIENTED_EDGE('',*,*,#839,.T.);
#860 = PLANE('',#861);
#861 = AXIS2_PLACEMENT_3D('',#862,#863,#864);
#862 = CARTESIAN_POINT('',(3.563514976959,-1.4825,0.499377880184));
#863 = DIRECTION('',(-0.,-1.,-0.));
#864 = DIRECTION('',(0.,0.,-1.));
#865 = ADVANCED_FACE('',(#866),#876,.F.);
#866 = FACE_BOUND('',#867,.F.);
#867 = EDGE_LOOP('',(#868,#869,#870,#871,#872,#873,#874,#875));
#868 = ORIENTED_EDGE('',*,*,#615,.T.);
#869 = ORIENTED_EDGE('',*,*,#646,.T.);
#870 = ORIENTED_EDGE('',*,*,#677,.T.);
#871 = ORIENTED_EDGE('',*,*,#708,.T.);
#872 = ORIENTED_EDGE('',*,*,#739,.T.);
#873 = ORIENTED_EDGE('',*,*,#770,.T.);
#874 = ORIENTED_EDGE('',*,*,#801,.T.);
#875 = ORIENTED_EDGE('',*,*,#832,.T.);
#876 = PLANE('',#877);
#877 = AXIS2_PLACEMENT_3D('',#878,#879,#880);
#878 = CARTESIAN_POINT('',(3.563514976959,1.4825,0.499377880184));
#879 = DIRECTION('',(-0.,-1.,-0.));
#880 = DIRECTION('',(0.,0.,-1.));
#881 = ( GEOMETRIC_REPRESENTATION_CONTEXT(3) 
GLOBAL_UNCERTAINTY_ASSIGNED_CONTEXT((#885)) GLOBAL_UNIT_ASSIGNED_CONTEXT
((#882,#883,#884)) REPRESENTATION_CONTEXT('Context #1',
  '3D Context with UNIT and UNCERTAINTY') );
#882 = ( LENGTH_UNIT() NAMED_UNIT(*) SI_UNIT(.MILLI.,.METRE.) );
#883 = ( NAMED_UNIT(*) PLANE_ANGLE_UNIT() SI_UNIT($,.RADIAN.) );
#884 = ( NAMED_UNIT(*) SI_UNIT($,.STERADIAN.) SOLID_ANGLE_UNIT() );
#885 = UNCERTAINTY_MEASURE_WITH_UNIT(LENGTH_MEASURE(1.E-07),#882,
  'distance_accuracy_value','confusion accuracy');
#886 = CONTEXT_DEPENDENT_SHAPE_REPRESENTATION(#887,#889);
#887 = ( REPRESENTATION_RELATIONSHIP('','',#598,#10) 
REPRESENTATION_RELATIONSHIP_WITH_TRANSFORMATION(#888) 
SHAPE_REPRESENTATION_RELATIONSHIP() );
#888 = ITEM_DEFINED_TRANSFORMATION('','',#11,#23);
#889 = PRODUCT_DEFINITION_SHAPE('Placement','Placement of an item',#890
  );
#890 = NEXT_ASSEMBLY_USAGE_OCCURRENCE('94','Terminal_2','',#5,#593,$);
#891 = PRODUCT_RELATED_PRODUCT_CATEGORY('part',$,(#595));
#892 = MECHANICAL_DESIGN_GEOMETRIC_PRESENTATION_REPRESENTATION('',(#893)
  ,#881);
#893 = STYLED_ITEM('color',(#894),#599);
#894 = PRESENTATION_STYLE_ASSIGNMENT((#895,#901));
#895 = SURFACE_STYLE_USAGE(.BOTH.,#896);
#896 = SURFACE_SIDE_STYLE('',(#897));
#897 = SURFACE_STYLE_FILL_AREA(#898);
#898 = FILL_AREA_STYLE('',(#899));
#899 = FILL_AREA_STYLE_COLOUR('',#900);
#900 = COLOUR_RGB('',0.759999975995,0.779999965419,0.800000010877);
#901 = CURVE_STYLE('',#902,POSITIVE_LENGTH_MEASURE(0.1),#900);
#902 = DRAUGHTING_PRE_DEFINED_CURVE_FONT('continuous');
#903 = MECHANICAL_DESIGN_GEOMETRIC_PRESENTATION_REPRESENTATION('',(#904)
  ,#580);
#904 = STYLED_ITEM('color',(#905),#298);
#905 = PRESENTATION_STYLE_ASSIGNMENT((#906,#911));
#906 = SURFACE_STYLE_USAGE(.BOTH.,#907);
#907 = SURFACE_SIDE_STYLE('',(#908));
#908 = SURFACE_STYLE_FILL_AREA(#909);
#909 = FILL_AREA_STYLE('',(#910));
#910 = FILL_AREA_STYLE_COLOUR('',#900);
#911 = CURVE_STYLE('',#912,POSITIVE_LENGTH_MEASURE(0.1),#900);
#912 = DRAUGHTING_PRE_DEFINED_CURVE_FONT('continuous');
#913 = MECHANICAL_DESIGN_GEOMETRIC_PRESENTATION_REPRESENTATION('',(#914)
  ,#279);
#914 = STYLED_ITEM('color',(#915),#41);
#915 = PRESENTATION_STYLE_ASSIGNMENT((#916,#922));
#916 = SURFACE_STYLE_USAGE(.BOTH.,#917);
#917 = SURFACE_SIDE_STYLE('',(#918));
#918 = SURFACE_STYLE_FILL_AREA(#919);
#919 = FILL_AREA_STYLE('',(#920));
#920 = FILL_AREA_STYLE_COLOUR('',#921);
#921 = COLOUR_RGB('',0.104999995596,0.115000003281,0.125000001743);
#922 = CURVE_STYLE('',#923,POSITIVE_LENGTH_MEASURE(0.1),#921);
#923 = DRAUGHTING_PRE_DEFINED_CURVE_FONT('continuous');
ENDSEC;
END-ISO-10303-21;
