ISO-10303-21;
HEADER;
FILE_DESCRIPTION(('FreeCAD Model'),'2;1');
FILE_NAME('Open CASCADE Shape Model','2026-10-03T19:11:30',('Author'),(
    ''),'Open CASCADE STEP processor 7.8','FreeCAD','Unknown');
FILE_SCHEMA(('AUTOMOTIVE_DESIGN { 1 0 10303 214 1 1 1 1 }'));
ENDSEC;
DATA;
#1 = APPLICATION_PROTOCOL_DEFINITION('international standard',
  'automotive_design',2000,#2);
#2 = APPLICATION_CONTEXT(
  'core data for automotive mechanical design processes');
#3 = SHAPE_DEFINITION_REPRESENTATION(#4,#10);
#4 = PRODUCT_DEFINITION_SHAPE('','',#5);
#5 = PRODUCT_DEFINITION('design','',#6,#9);
#6 = PRODUCT_DEFINITION_FORMATION('','',#7);
#7 = PRODUCT('Passive8','Passive8','',(#8));
#8 = PRODUCT_CONTEXT('',#2,'mechanical');
#9 = PRODUCT_DEFINITION_CONTEXT('part definition',#2,'design');
#10 = SHAPE_REPRESENTATION('',(#11,#15,#19,#23,#27,#31,#35),#39);
#11 = AXIS2_PLACEMENT_3D('',#12,#13,#14);
#12 = CARTESIAN_POINT('',(0.,0.,0.));
#13 = DIRECTION('',(0.,0.,1.));
#14 = DIRECTION('',(1.,0.,-0.));
#15 = AXIS2_PLACEMENT_3D('',#16,#17,#18);
#16 = CARTESIAN_POINT('',(0.,0.,0.));
#17 = DIRECTION('',(0.,0.,1.));
#18 = DIRECTION('',(1.,0.,0.));
#19 = AXIS2_PLACEMENT_3D('',#20,#21,#22);
#20 = CARTESIAN_POINT('',(0.,0.,0.));
#21 = DIRECTION('',(0.,0.,1.));
#22 = DIRECTION('',(1.,0.,0.));
#23 = AXIS2_PLACEMENT_3D('',#24,#25,#26);
#24 = CARTESIAN_POINT('',(0.,0.,0.));
#25 = DIRECTION('',(0.,0.,1.));
#26 = DIRECTION('',(1.,0.,0.));
#27 = AXIS2_PLACEMENT_3D('',#28,#29,#30);
#28 = CARTESIAN_POINT('',(0.,0.,0.));
#29 = DIRECTION('',(0.,0.,1.));
#30 = DIRECTION('',(1.,0.,0.));
#31 = AXIS2_PLACEMENT_3D('',#32,#33,#34);
#32 = CARTESIAN_POINT('',(0.,0.,0.));
#33 = DIRECTION('',(0.,0.,1.));
#34 = DIRECTION('',(1.,0.,0.));
#35 = AXIS2_PLACEMENT_3D('',#36,#37,#38);
#36 = CARTESIAN_POINT('',(0.,0.,0.));
#37 = DIRECTION('',(0.,0.,1.));
#38 = DIRECTION('',(1.,0.,0.));
#39 = ( GEOMETRIC_REPRESENTATION_CONTEXT(3) 
GLOBAL_UNCERTAINTY_ASSIGNED_CONTEXT((#43)) GLOBAL_UNIT_ASSIGNED_CONTEXT(
(#40,#41,#42)) REPRESENTATION_CONTEXT('Context #1',
  '3D Context with UNIT and UNCERTAINTY') );
#40 = ( LENGTH_UNIT() NAMED_UNIT(*) SI_UNIT(.MILLI.,.METRE.) );
#41 = ( NAMED_UNIT(*) PLANE_ANGLE_UNIT() SI_UNIT($,.RADIAN.) );
#42 = ( NAMED_UNIT(*) SI_UNIT($,.STERADIAN.) SOLID_ANGLE_UNIT() );
#43 = UNCERTAINTY_MEASURE_WITH_UNIT(LENGTH_MEASURE(1.E-07),#40,
  'distance_accuracy_value','confusion accuracy');
#44 = PRODUCT_RELATED_PRODUCT_CATEGORY('part',$,(#7));
#45 = SHAPE_DEFINITION_REPRESENTATION(#46,#52);
#46 = PRODUCT_DEFINITION_SHAPE('','',#47);
#47 = PRODUCT_DEFINITION('design','',#48,#51);
#48 = PRODUCT_DEFINITION_FORMATION('','',#49);
#49 = PRODUCT('Aluminum_can','Aluminum_can','',(#50));
#50 = PRODUCT_CONTEXT('',#2,'mechanical');
#51 = PRODUCT_DEFINITION_CONTEXT('part definition',#2,'design');
#52 = ADVANCED_BREP_SHAPE_REPRESENTATION('',(#11,#53),#196);
#53 = MANIFOLD_SOLID_BREP('',#54);
#54 = CLOSED_SHELL('',(#55,#88,#108,#117,#142,#162,#187));
#55 = ADVANCED_FACE('',(#56),#83,.T.);
#56 = FACE_BOUND('',#57,.T.);
#57 = EDGE_LOOP('',(#58,#68,#75,#76));
#58 = ORIENTED_EDGE('',*,*,#59,.T.);
#59 = EDGE_CURVE('',#60,#62,#64,.T.);
#60 = VERTEX_POINT('',#61);
#61 = CARTESIAN_POINT('',(7.5,-1.224646799147E-15,0.85));
#62 = VERTEX_POINT('',#63);
#63 = CARTESIAN_POINT('',(7.5,-1.224646799147E-15,11.9));
#64 = LINE('',#65,#66);
#65 = CARTESIAN_POINT('',(7.5,-1.224646799147E-15,0.1));
#66 = VECTOR('',#67,1.);
#67 = DIRECTION('',(0.,0.,1.));
#68 = ORIENTED_EDGE('',*,*,#69,.F.);
#69 = EDGE_CURVE('',#62,#62,#70,.T.);
#70 = CIRCLE('',#71,5.);
#71 = AXIS2_PLACEMENT_3D('',#72,#73,#74);
#72 = CARTESIAN_POINT('',(2.5,0.,11.9));
#73 = DIRECTION('',(0.,0.,1.));
#74 = DIRECTION('',(1.,0.,-0.));
#75 = ORIENTED_EDGE('',*,*,#59,.F.);
#76 = ORIENTED_EDGE('',*,*,#77,.T.);
#77 = EDGE_CURVE('',#60,#60,#78,.T.);
#78 = CIRCLE('',#79,5.);
#79 = AXIS2_PLACEMENT_3D('',#80,#81,#82);
#80 = CARTESIAN_POINT('',(2.5,0.,0.85));
#81 = DIRECTION('',(0.,0.,1.));
#82 = DIRECTION('',(1.,0.,-0.));
#83 = CYLINDRICAL_SURFACE('',#84,5.);
#84 = AXIS2_PLACEMENT_3D('',#85,#86,#87);
#85 = CARTESIAN_POINT('',(2.5,0.,0.1));
#86 = DIRECTION('',(0.,0.,1.));
#87 = DIRECTION('',(1.,0.,-0.));
#88 = ADVANCED_FACE('',(#89,#92),#103,.F.);
#89 = FACE_BOUND('',#90,.F.);
#90 = EDGE_LOOP('',(#91));
#91 = ORIENTED_EDGE('',*,*,#77,.T.);
#92 = FACE_BOUND('',#93,.F.);
#93 = EDGE_LOOP('',(#94));
#94 = ORIENTED_EDGE('',*,*,#95,.F.);
#95 = EDGE_CURVE('',#96,#96,#98,.T.);
#96 = VERTEX_POINT('',#97);
#97 = CARTESIAN_POINT('',(7.36,-1.190356688771E-15,0.85));
#98 = CIRCLE('',#99,4.86);
#99 = AXIS2_PLACEMENT_3D('',#100,#101,#102);
#100 = CARTESIAN_POINT('',(2.5,0.,0.85));
#101 = DIRECTION('',(0.,0.,1.));
#102 = DIRECTION('',(1.,0.,-0.));
#103 = PLANE('',#104);
#104 = AXIS2_PLACEMENT_3D('',#105,#106,#107);
#105 = CARTESIAN_POINT('',(2.5,0.,0.85));
#106 = DIRECTION('',(0.,0.,1.));
#107 = DIRECTION('',(1.,0.,-0.));
#108 = ADVANCED_FACE('',(#109),#112,.T.);
#109 = FACE_BOUND('',#110,.T.);
#110 = EDGE_LOOP('',(#111));
#111 = ORIENTED_EDGE('',*,*,#69,.T.);
#112 = PLANE('',#113);
#113 = AXIS2_PLACEMENT_3D('',#114,#115,#116);
#114 = CARTESIAN_POINT('',(2.5,0.,11.9));
#115 = DIRECTION('',(0.,0.,1.));
#116 = DIRECTION('',(1.,0.,-0.));
#117 = ADVANCED_FACE('',(#118),#137,.T.);
#118 = FACE_BOUND('',#119,.T.);
#119 = EDGE_LOOP('',(#120,#121,#129,#136));
#120 = ORIENTED_EDGE('',*,*,#95,.F.);
#121 = ORIENTED_EDGE('',*,*,#122,.F.);
#122 = EDGE_CURVE('',#123,#96,#125,.T.);
#123 = VERTEX_POINT('',#124);
#124 = CARTESIAN_POINT('',(7.36,-1.190356688771E-15,0.55));
#125 = LINE('',#126,#127);
#126 = CARTESIAN_POINT('',(7.36,-1.190356688771E-15,0.55));
#127 = VECTOR('',#128,1.);
#128 = DIRECTION('',(0.,0.,1.));
#129 = ORIENTED_EDGE('',*,*,#130,.T.);
#130 = EDGE_CURVE('',#123,#123,#131,.T.);
#131 = CIRCLE('',#132,4.86);
#132 = AXIS2_PLACEMENT_3D('',#133,#134,#135);
#133 = CARTESIAN_POINT('',(2.5,0.,0.55));
#134 = DIRECTION('',(0.,0.,1.));
#135 = DIRECTION('',(1.,0.,-0.));
#136 = ORIENTED_EDGE('',*,*,#122,.T.);
#137 = CYLINDRICAL_SURFACE('',#138,4.86);
#138 = AXIS2_PLACEMENT_3D('',#139,#140,#141);
#139 = CARTESIAN_POINT('',(2.5,0.,0.55));
#140 = DIRECTION('',(0.,0.,1.));
#141 = DIRECTION('',(1.,0.,-0.));
#142 = ADVANCED_FACE('',(#143,#154),#157,.T.);
#143 = FACE_BOUND('',#144,.T.);
#144 = EDGE_LOOP('',(#145));
#145 = ORIENTED_EDGE('',*,*,#146,.T.);
#146 = EDGE_CURVE('',#147,#147,#149,.T.);
#147 = VERTEX_POINT('',#148);
#148 = CARTESIAN_POINT('',(7.5,-1.224646799147E-15,0.55));
#149 = CIRCLE('',#150,5.);
#150 = AXIS2_PLACEMENT_3D('',#151,#152,#153);
#151 = CARTESIAN_POINT('',(2.5,0.,0.55));
#152 = DIRECTION('',(0.,0.,1.));
#153 = DIRECTION('',(1.,0.,-0.));
#154 = FACE_BOUND('',#155,.T.);
#155 = EDGE_LOOP('',(#156));
#156 = ORIENTED_EDGE('',*,*,#130,.F.);
#157 = PLANE('',#158);
#158 = AXIS2_PLACEMENT_3D('',#159,#160,#161);
#159 = CARTESIAN_POINT('',(2.5,0.,0.55));
#160 = DIRECTION('',(0.,0.,1.));
#161 = DIRECTION('',(1.,0.,-0.));
#162 = ADVANCED_FACE('',(#163),#182,.T.);
#163 = FACE_BOUND('',#164,.T.);
#164 = EDGE_LOOP('',(#165,#166,#174,#181));
#165 = ORIENTED_EDGE('',*,*,#146,.F.);
#166 = ORIENTED_EDGE('',*,*,#167,.F.);
#167 = EDGE_CURVE('',#168,#147,#170,.T.);
#168 = VERTEX_POINT('',#169);
#169 = CARTESIAN_POINT('',(7.5,-1.224646799147E-15,0.1));
#170 = LINE('',#171,#172);
#171 = CARTESIAN_POINT('',(7.5,-1.224646799147E-15,0.1));
#172 = VECTOR('',#173,1.);
#173 = DIRECTION('',(0.,0.,1.));
#174 = ORIENTED_EDGE('',*,*,#175,.T.);
#175 = EDGE_CURVE('',#168,#168,#176,.T.);
#176 = CIRCLE('',#177,5.);
#177 = AXIS2_PLACEMENT_3D('',#178,#179,#180);
#178 = CARTESIAN_POINT('',(2.5,0.,0.1));
#179 = DIRECTION('',(0.,0.,1.));
#180 = DIRECTION('',(1.,0.,-0.));
#181 = ORIENTED_EDGE('',*,*,#167,.T.);
#182 = CYLINDRICAL_SURFACE('',#183,5.);
#183 = AXIS2_PLACEMENT_3D('',#184,#185,#186);
#184 = CARTESIAN_POINT('',(2.5,0.,0.1));
#185 = DIRECTION('',(0.,0.,1.));
#186 = DIRECTION('',(1.,0.,-0.));
#187 = ADVANCED_FACE('',(#188),#191,.F.);
#188 = FACE_BOUND('',#189,.T.);
#189 = EDGE_LOOP('',(#190));
#190 = ORIENTED_EDGE('',*,*,#175,.F.);
#191 = PLANE('',#192);
#192 = AXIS2_PLACEMENT_3D('',#193,#194,#195);
#193 = CARTESIAN_POINT('',(2.5,0.,0.1));
#194 = DIRECTION('',(0.,0.,1.));
#195 = DIRECTION('',(1.,0.,-0.));
#196 = ( GEOMETRIC_REPRESENTATION_CONTEXT(3) 
GLOBAL_UNCERTAINTY_ASSIGNED_CONTEXT((#200)) GLOBAL_UNIT_ASSIGNED_CONTEXT
((#197,#198,#199)) REPRESENTATION_CONTEXT('Context #1',
  '3D Context with UNIT and UNCERTAINTY') );
#197 = ( LENGTH_UNIT() NAMED_UNIT(*) SI_UNIT(.MILLI.,.METRE.) );
#198 = ( NAMED_UNIT(*) PLANE_ANGLE_UNIT() SI_UNIT($,.RADIAN.) );
#199 = ( NAMED_UNIT(*) SI_UNIT($,.STERADIAN.) SOLID_ANGLE_UNIT() );
#200 = UNCERTAINTY_MEASURE_WITH_UNIT(LENGTH_MEASURE(1.E-07),#197,
  'distance_accuracy_value','confusion accuracy');
#201 = CONTEXT_DEPENDENT_SHAPE_REPRESENTATION(#202,#204);
#202 = ( REPRESENTATION_RELATIONSHIP('','',#52,#10) 
REPRESENTATION_RELATIONSHIP_WITH_TRANSFORMATION(#203) 
SHAPE_REPRESENTATION_RELATIONSHIP() );
#203 = ITEM_DEFINED_TRANSFORMATION('','',#11,#15);
#204 = PRODUCT_DEFINITION_SHAPE('Placement','Placement of an item',#205
  );
#205 = NEXT_ASSEMBLY_USAGE_OCCURRENCE('28','Aluminum_can','',#5,#47,$);
#206 = PRODUCT_RELATED_PRODUCT_CATEGORY('part',$,(#49));
#207 = SHAPE_DEFINITION_REPRESENTATION(#208,#214);
#208 = PRODUCT_DEFINITION_SHAPE('','',#209);
#209 = PRODUCT_DEFINITION('design','',#210,#213);
#210 = PRODUCT_DEFINITION_FORMATION('','',#211);
#211 = PRODUCT('Bottom_bung','Bottom_bung','',(#212));
#212 = PRODUCT_CONTEXT('',#2,'mechanical');
#213 = PRODUCT_DEFINITION_CONTEXT('part definition',#2,'design');
#214 = ADVANCED_BREP_SHAPE_REPRESENTATION('',(#11,#215),#268);
#215 = MANIFOLD_SOLID_BREP('',#216);
#216 = CLOSED_SHELL('',(#217,#250,#259));
#217 = ADVANCED_FACE('',(#218),#245,.T.);
#218 = FACE_BOUND('',#219,.T.);
#219 = EDGE_LOOP('',(#220,#229,#237,#244));
#220 = ORIENTED_EDGE('',*,*,#221,.F.);
#221 = EDGE_CURVE('',#222,#222,#224,.T.);
#222 = VERTEX_POINT('',#223);
#223 = CARTESIAN_POINT('',(7.38,-1.195255275968E-15,0.1));
#224 = CIRCLE('',#225,4.88);
#225 = AXIS2_PLACEMENT_3D('',#226,#227,#228);
#226 = CARTESIAN_POINT('',(2.5,0.,0.1));
#227 = DIRECTION('',(0.,0.,1.));
#228 = DIRECTION('',(1.,0.,-0.));
#229 = ORIENTED_EDGE('',*,*,#230,.F.);
#230 = EDGE_CURVE('',#231,#222,#233,.T.);
#231 = VERTEX_POINT('',#232);
#232 = CARTESIAN_POINT('',(7.38,-1.195255275968E-15,0.));
#233 = LINE('',#234,#235);
#234 = CARTESIAN_POINT('',(7.38,-1.195255275968E-15,0.));
#235 = VECTOR('',#236,1.);
#236 = DIRECTION('',(0.,0.,1.));
#237 = ORIENTED_EDGE('',*,*,#238,.T.);
#238 = EDGE_CURVE('',#231,#231,#239,.T.);
#239 = CIRCLE('',#240,4.88);
#240 = AXIS2_PLACEMENT_3D('',#241,#242,#243);
#241 = CARTESIAN_POINT('',(2.5,0.,0.));
#242 = DIRECTION('',(0.,0.,1.));
#243 = DIRECTION('',(1.,0.,-0.));
#244 = ORIENTED_EDGE('',*,*,#230,.T.);
#245 = CYLINDRICAL_SURFACE('',#246,4.88);
#246 = AXIS2_PLACEMENT_3D('',#247,#248,#249);
#247 = CARTESIAN_POINT('',(2.5,0.,0.));
#248 = DIRECTION('',(0.,0.,1.));
#249 = DIRECTION('',(1.,0.,-0.));
#250 = ADVANCED_FACE('',(#251),#254,.T.);
#251 = FACE_BOUND('',#252,.T.);
#252 = EDGE_LOOP('',(#253));
#253 = ORIENTED_EDGE('',*,*,#221,.T.);
#254 = PLANE('',#255);
#255 = AXIS2_PLACEMENT_3D('',#256,#257,#258);
#256 = CARTESIAN_POINT('',(2.5,0.,0.1));
#257 = DIRECTION('',(0.,0.,1.));
#258 = DIRECTION('',(1.,0.,-0.));
#259 = ADVANCED_FACE('',(#260),#263,.F.);
#260 = FACE_BOUND('',#261,.T.);
#261 = EDGE_LOOP('',(#262));
#262 = ORIENTED_EDGE('',*,*,#238,.F.);
#263 = PLANE('',#264);
#264 = AXIS2_PLACEMENT_3D('',#265,#266,#267);
#265 = CARTESIAN_POINT('',(2.5,0.,0.));
#266 = DIRECTION('',(0.,0.,1.));
#267 = DIRECTION('',(1.,0.,-0.));
#268 = ( GEOMETRIC_REPRESENTATION_CONTEXT(3) 
GLOBAL_UNCERTAINTY_ASSIGNED_CONTEXT((#272)) GLOBAL_UNIT_ASSIGNED_CONTEXT
((#269,#270,#271)) REPRESENTATION_CONTEXT('Context #1',
  '3D Context with UNIT and UNCERTAINTY') );
#269 = ( LENGTH_UNIT() NAMED_UNIT(*) SI_UNIT(.MILLI.,.METRE.) );
#270 = ( NAMED_UNIT(*) PLANE_ANGLE_UNIT() SI_UNIT($,.RADIAN.) );
#271 = ( NAMED_UNIT(*) SI_UNIT($,.STERADIAN.) SOLID_ANGLE_UNIT() );
#272 = UNCERTAINTY_MEASURE_WITH_UNIT(LENGTH_MEASURE(1.E-07),#269,
  'distance_accuracy_value','confusion accuracy');
#273 = CONTEXT_DEPENDENT_SHAPE_REPRESENTATION(#274,#276);
#274 = ( REPRESENTATION_RELATIONSHIP('','',#214,#10) 
REPRESENTATION_RELATIONSHIP_WITH_TRANSFORMATION(#275) 
SHAPE_REPRESENTATION_RELATIONSHIP() );
#275 = ITEM_DEFINED_TRANSFORMATION('','',#11,#19);
#276 = PRODUCT_DEFINITION_SHAPE('Placement','Placement of an item',#277
  );
#277 = NEXT_ASSEMBLY_USAGE_OCCURRENCE('29','Bottom_bung','',#5,#209,$);
#278 = PRODUCT_RELATED_PRODUCT_CATEGORY('part',$,(#211));
#279 = SHAPE_DEFINITION_REPRESENTATION(#280,#286);
#280 = PRODUCT_DEFINITION_SHAPE('','',#281);
#281 = PRODUCT_DEFINITION('design','',#282,#285);
#282 = PRODUCT_DEFINITION_FORMATION('','',#283);
#283 = PRODUCT('Top_lid','Top_lid','',(#284));
#284 = PRODUCT_CONTEXT('',#2,'mechanical');
#285 = PRODUCT_DEFINITION_CONTEXT('part definition',#2,'design');
#286 = ADVANCED_BREP_SHAPE_REPRESENTATION('',(#11,#287),#453);
#287 = MANIFOLD_SOLID_BREP('',#288);
#288 = CLOSED_SHELL('',(#289,#322,#359,#368,#400,#425,#442));
#289 = ADVANCED_FACE('',(#290),#317,.T.);
#290 = FACE_BOUND('',#291,.T.);
#291 = EDGE_LOOP('',(#292,#301,#309,#316));
#292 = ORIENTED_EDGE('',*,*,#293,.F.);
#293 = EDGE_CURVE('',#294,#294,#296,.T.);
#294 = VERTEX_POINT('',#295);
#295 = CARTESIAN_POINT('',(7.38,-1.195255275968E-15,12.));
#296 = CIRCLE('',#297,4.88);
#297 = AXIS2_PLACEMENT_3D('',#298,#299,#300);
#298 = CARTESIAN_POINT('',(2.5,0.,12.));
#299 = DIRECTION('',(0.,0.,1.));
#300 = DIRECTION('',(1.,0.,-0.));
#301 = ORIENTED_EDGE('',*,*,#302,.F.);
#302 = EDGE_CURVE('',#303,#294,#305,.T.);
#303 = VERTEX_POINT('',#304);
#304 = CARTESIAN_POINT('',(7.38,-1.195255275968E-15,11.9));
#305 = LINE('',#306,#307);
#306 = CARTESIAN_POINT('',(7.38,-1.195255275968E-15,11.9));
#307 = VECTOR('',#308,1.);
#308 = DIRECTION('',(0.,0.,1.));
#309 = ORIENTED_EDGE('',*,*,#310,.T.);
#310 = EDGE_CURVE('',#303,#303,#311,.T.);
#311 = CIRCLE('',#312,4.88);
#312 = AXIS2_PLACEMENT_3D('',#313,#314,#315);
#313 = CARTESIAN_POINT('',(2.5,0.,11.9));
#314 = DIRECTION('',(0.,0.,1.));
#315 = DIRECTION('',(1.,0.,-0.));
#316 = ORIENTED_EDGE('',*,*,#302,.T.);
#317 = CYLINDRICAL_SURFACE('',#318,4.88);
#318 = AXIS2_PLACEMENT_3D('',#319,#320,#321);
#319 = CARTESIAN_POINT('',(2.5,0.,11.9));
#320 = DIRECTION('',(0.,0.,1.));
#321 = DIRECTION('',(1.,0.,-0.));
#322 = ADVANCED_FACE('',(#323,#326),#354,.T.);
#323 = FACE_BOUND('',#324,.T.);
#324 = EDGE_LOOP('',(#325));
#325 = ORIENTED_EDGE('',*,*,#293,.T.);
#326 = FACE_BOUND('',#327,.T.);
#327 = EDGE_LOOP('',(#328,#339,#347));
#328 = ORIENTED_EDGE('',*,*,#329,.F.);
#329 = EDGE_CURVE('',#330,#332,#334,.T.);
#330 = VERTEX_POINT('',#331);
#331 = CARTESIAN_POINT('',(4.9,-4.237558259187,12.));
#332 = VERTEX_POINT('',#333);
#333 = CARTESIAN_POINT('',(7.37,-1.19280598237E-15,12.));
#334 = CIRCLE('',#335,4.87);
#335 = AXIS2_PLACEMENT_3D('',#336,#337,#338);
#336 = CARTESIAN_POINT('',(2.5,0.,12.));
#337 = DIRECTION('',(0.,0.,1.));
#338 = DIRECTION('',(1.,0.,-0.));
#339 = ORIENTED_EDGE('',*,*,#340,.T.);
#340 = EDGE_CURVE('',#330,#341,#343,.T.);
#341 = VERTEX_POINT('',#342);
#342 = CARTESIAN_POINT('',(4.9,4.237558259187,12.));
#343 = LINE('',#344,#345);
#344 = CARTESIAN_POINT('',(4.9,-5.,12.));
#345 = VECTOR('',#346,1.);
#346 = DIRECTION('',(-0.,1.,0.));
#347 = ORIENTED_EDGE('',*,*,#348,.F.);
#348 = EDGE_CURVE('',#332,#341,#349,.T.);
#349 = CIRCLE('',#350,4.87);
#350 = AXIS2_PLACEMENT_3D('',#351,#352,#353);
#351 = CARTESIAN_POINT('',(2.5,0.,12.));
#352 = DIRECTION('',(0.,0.,1.));
#353 = DIRECTION('',(1.,0.,-0.));
#354 = PLANE('',#355);
#355 = AXIS2_PLACEMENT_3D('',#356,#357,#358);
#356 = CARTESIAN_POINT('',(2.5,0.,12.));
#357 = DIRECTION('',(0.,0.,1.));
#358 = DIRECTION('',(1.,0.,-0.));
#359 = ADVANCED_FACE('',(#360),#363,.F.);
#360 = FACE_BOUND('',#361,.T.);
#361 = EDGE_LOOP('',(#362));
#362 = ORIENTED_EDGE('',*,*,#310,.F.);
#363 = PLANE('',#364);
#364 = AXIS2_PLACEMENT_3D('',#365,#366,#367);
#365 = CARTESIAN_POINT('',(2.5,0.,11.9));
#366 = DIRECTION('',(0.,0.,1.));
#367 = DIRECTION('',(1.,0.,-0.));
#368 = ADVANCED_FACE('',(#369),#395,.F.);
#369 = FACE_BOUND('',#370,.F.);
#370 = EDGE_LOOP('',(#371,#379,#380,#388));
#371 = ORIENTED_EDGE('',*,*,#372,.T.);
#372 = EDGE_CURVE('',#373,#332,#375,.T.);
#373 = VERTEX_POINT('',#374);
#374 = CARTESIAN_POINT('',(7.37,-1.19280598237E-15,11.994));
#375 = LINE('',#376,#377);
#376 = CARTESIAN_POINT('',(7.37,-1.19280598237E-15,11.994));
#377 = VECTOR('',#378,1.);
#378 = DIRECTION('',(0.,0.,1.));
#379 = ORIENTED_EDGE('',*,*,#329,.F.);
#380 = ORIENTED_EDGE('',*,*,#381,.F.);
#381 = EDGE_CURVE('',#382,#330,#384,.T.);
#382 = VERTEX_POINT('',#383);
#383 = CARTESIAN_POINT('',(4.9,-4.237558259187,11.994));
#384 = LINE('',#385,#386);
#385 = CARTESIAN_POINT('',(4.9,-4.237558259187,11.994));
#386 = VECTOR('',#387,1.);
#387 = DIRECTION('',(0.,0.,1.));
#388 = ORIENTED_EDGE('',*,*,#389,.T.);
#389 = EDGE_CURVE('',#382,#373,#390,.T.);
#390 = CIRCLE('',#391,4.87);
#391 = AXIS2_PLACEMENT_3D('',#392,#393,#394);
#392 = CARTESIAN_POINT('',(2.5,0.,11.994));
#393 = DIRECTION('',(0.,0.,1.));
#394 = DIRECTION('',(1.,0.,-0.));
#395 = CYLINDRICAL_SURFACE('',#396,4.87);
#396 = AXIS2_PLACEMENT_3D('',#397,#398,#399);
#397 = CARTESIAN_POINT('',(2.5,0.,11.994));
#398 = DIRECTION('',(0.,0.,1.));
#399 = DIRECTION('',(1.,0.,-0.));
#400 = ADVANCED_FACE('',(#401),#420,.F.);
#401 = FACE_BOUND('',#402,.F.);
#402 = EDGE_LOOP('',(#403,#404,#405,#414));
#403 = ORIENTED_EDGE('',*,*,#348,.F.);
#404 = ORIENTED_EDGE('',*,*,#372,.F.);
#405 = ORIENTED_EDGE('',*,*,#406,.T.);
#406 = EDGE_CURVE('',#373,#407,#409,.T.);
#407 = VERTEX_POINT('',#408);
#408 = CARTESIAN_POINT('',(4.9,4.237558259187,11.994));
#409 = CIRCLE('',#410,4.87);
#410 = AXIS2_PLACEMENT_3D('',#411,#412,#413);
#411 = CARTESIAN_POINT('',(2.5,0.,11.994));
#412 = DIRECTION('',(0.,0.,1.));
#413 = DIRECTION('',(1.,0.,-0.));
#414 = ORIENTED_EDGE('',*,*,#415,.T.);
#415 = EDGE_CURVE('',#407,#341,#416,.T.);
#416 = LINE('',#417,#418);
#417 = CARTESIAN_POINT('',(4.9,4.237558259187,11.994));
#418 = VECTOR('',#419,1.);
#419 = DIRECTION('',(0.,0.,1.));
#420 = CYLINDRICAL_SURFACE('',#421,4.87);
#421 = AXIS2_PLACEMENT_3D('',#422,#423,#424);
#422 = CARTESIAN_POINT('',(2.5,0.,11.994));
#423 = DIRECTION('',(0.,0.,1.));
#424 = DIRECTION('',(1.,0.,-0.));
#425 = ADVANCED_FACE('',(#426),#437,.T.);
#426 = FACE_BOUND('',#427,.T.);
#427 = EDGE_LOOP('',(#428,#429,#430,#436));
#428 = ORIENTED_EDGE('',*,*,#340,.F.);
#429 = ORIENTED_EDGE('',*,*,#381,.F.);
#430 = ORIENTED_EDGE('',*,*,#431,.T.);
#431 = EDGE_CURVE('',#382,#407,#432,.T.);
#432 = LINE('',#433,#434);
#433 = CARTESIAN_POINT('',(4.9,-5.,11.994));
#434 = VECTOR('',#435,1.);
#435 = DIRECTION('',(-0.,1.,0.));
#436 = ORIENTED_EDGE('',*,*,#415,.T.);
#437 = PLANE('',#438);
#438 = AXIS2_PLACEMENT_3D('',#439,#440,#441);
#439 = CARTESIAN_POINT('',(4.9,-5.,11.994));
#440 = DIRECTION('',(1.,0.,-0.));
#441 = DIRECTION('',(0.,0.,1.));
#442 = ADVANCED_FACE('',(#443),#448,.T.);
#443 = FACE_BOUND('',#444,.T.);
#444 = EDGE_LOOP('',(#445,#446,#447));
#445 = ORIENTED_EDGE('',*,*,#389,.T.);
#446 = ORIENTED_EDGE('',*,*,#406,.T.);
#447 = ORIENTED_EDGE('',*,*,#431,.F.);
#448 = PLANE('',#449);
#449 = AXIS2_PLACEMENT_3D('',#450,#451,#452);
#450 = CARTESIAN_POINT('',(2.5,0.,11.994));
#451 = DIRECTION('',(0.,0.,1.));
#452 = DIRECTION('',(1.,0.,-0.));
#453 = ( GEOMETRIC_REPRESENTATION_CONTEXT(3) 
GLOBAL_UNCERTAINTY_ASSIGNED_CONTEXT((#457)) GLOBAL_UNIT_ASSIGNED_CONTEXT
((#454,#455,#456)) REPRESENTATION_CONTEXT('Context #1',
  '3D Context with UNIT and UNCERTAINTY') );
#454 = ( LENGTH_UNIT() NAMED_UNIT(*) SI_UNIT(.MILLI.,.METRE.) );
#455 = ( NAMED_UNIT(*) PLANE_ANGLE_UNIT() SI_UNIT($,.RADIAN.) );
#456 = ( NAMED_UNIT(*) SI_UNIT($,.STERADIAN.) SOLID_ANGLE_UNIT() );
#457 = UNCERTAINTY_MEASURE_WITH_UNIT(LENGTH_MEASURE(1.E-07),#454,
  'distance_accuracy_value','confusion accuracy');
#458 = CONTEXT_DEPENDENT_SHAPE_REPRESENTATION(#459,#461);
#459 = ( REPRESENTATION_RELATIONSHIP('','',#286,#10) 
REPRESENTATION_RELATIONSHIP_WITH_TRANSFORMATION(#460) 
SHAPE_REPRESENTATION_RELATIONSHIP() );
#460 = ITEM_DEFINED_TRANSFORMATION('','',#11,#23);
#461 = PRODUCT_DEFINITION_SHAPE('Placement','Placement of an item',#462
  );
#462 = NEXT_ASSEMBLY_USAGE_OCCURRENCE('30','Top_lid','',#5,#281,$);
#463 = PRODUCT_RELATED_PRODUCT_CATEGORY('part',$,(#283));
#464 = SHAPE_DEFINITION_REPRESENTATION(#465,#471);
#465 = PRODUCT_DEFINITION_SHAPE('','',#466);
#466 = PRODUCT_DEFINITION('design','',#467,#470);
#467 = PRODUCT_DEFINITION_FORMATION('','',#468);
#468 = PRODUCT('Negative_polarity_red_sector',
  'Negative_polarity_red_sector','',(#469));
#469 = PRODUCT_CONTEXT('',#2,'mechanical');
#470 = PRODUCT_DEFINITION_CONTEXT('part definition',#2,'design');
#471 = ADVANCED_BREP_SHAPE_REPRESENTATION('',(#11,#472),#593);
#472 = MANIFOLD_SOLID_BREP('',#473);
#473 = CLOSED_SHELL('',(#474,#516,#549,#565,#582));
#474 = ADVANCED_FACE('',(#475),#511,.T.);
#475 = FACE_BOUND('',#476,.T.);
#476 = EDGE_LOOP('',(#477,#487,#496,#504));
#477 = ORIENTED_EDGE('',*,*,#478,.T.);
#478 = EDGE_CURVE('',#479,#481,#483,.T.);
#479 = VERTEX_POINT('',#480);
#480 = CARTESIAN_POINT('',(7.37,-1.19280598237E-15,11.994));
#481 = VERTEX_POINT('',#482);
#482 = CARTESIAN_POINT('',(7.37,-1.19280598237E-15,12.));
#483 = LINE('',#484,#485);
#484 = CARTESIAN_POINT('',(7.37,-1.19280598237E-15,11.994));
#485 = VECTOR('',#486,1.);
#486 = DIRECTION('',(0.,0.,1.));
#487 = ORIENTED_EDGE('',*,*,#488,.F.);
#488 = EDGE_CURVE('',#489,#481,#491,.T.);
#489 = VERTEX_POINT('',#490);
#490 = CARTESIAN_POINT('',(4.9,-4.237558259187,12.));
#491 = CIRCLE('',#492,4.87);
#492 = AXIS2_PLACEMENT_3D('',#493,#494,#495);
#493 = CARTESIAN_POINT('',(2.5,0.,12.));
#494 = DIRECTION('',(0.,0.,1.));
#495 = DIRECTION('',(1.,0.,-0.));
#496 = ORIENTED_EDGE('',*,*,#497,.F.);
#497 = EDGE_CURVE('',#498,#489,#500,.T.);
#498 = VERTEX_POINT('',#499);
#499 = CARTESIAN_POINT('',(4.9,-4.237558259187,11.994));
#500 = LINE('',#501,#502);
#501 = CARTESIAN_POINT('',(4.9,-4.237558259187,11.994));
#502 = VECTOR('',#503,1.);
#503 = DIRECTION('',(0.,0.,1.));
#504 = ORIENTED_EDGE('',*,*,#505,.T.);
#505 = EDGE_CURVE('',#498,#479,#506,.T.);
#506 = CIRCLE('',#507,4.87);
#507 = AXIS2_PLACEMENT_3D('',#508,#509,#510);
#508 = CARTESIAN_POINT('',(2.5,0.,11.994));
#509 = DIRECTION('',(0.,0.,1.));
#510 = DIRECTION('',(1.,0.,-0.));
#511 = CYLINDRICAL_SURFACE('',#512,4.87);
#512 = AXIS2_PLACEMENT_3D('',#513,#514,#515);
#513 = CARTESIAN_POINT('',(2.5,0.,11.994));
#514 = DIRECTION('',(0.,0.,1.));
#515 = DIRECTION('',(1.,0.,-0.));
#516 = ADVANCED_FACE('',(#517),#544,.T.);
#517 = FACE_BOUND('',#518,.T.);
#518 = EDGE_LOOP('',(#519,#528,#529,#538));
#519 = ORIENTED_EDGE('',*,*,#520,.F.);
#520 = EDGE_CURVE('',#481,#521,#523,.T.);
#521 = VERTEX_POINT('',#522);
#522 = CARTESIAN_POINT('',(4.9,4.237558259187,12.));
#523 = CIRCLE('',#524,4.87);
#524 = AXIS2_PLACEMENT_3D('',#525,#526,#527);
#525 = CARTESIAN_POINT('',(2.5,0.,12.));
#526 = DIRECTION('',(0.,0.,1.));
#527 = DIRECTION('',(1.,0.,-0.));
#528 = ORIENTED_EDGE('',*,*,#478,.F.);
#529 = ORIENTED_EDGE('',*,*,#530,.T.);
#530 = EDGE_CURVE('',#479,#531,#533,.T.);
#531 = VERTEX_POINT('',#532);
#532 = CARTESIAN_POINT('',(4.9,4.237558259187,11.994));
#533 = CIRCLE('',#534,4.87);
#534 = AXIS2_PLACEMENT_3D('',#535,#536,#537);
#535 = CARTESIAN_POINT('',(2.5,0.,11.994));
#536 = DIRECTION('',(0.,0.,1.));
#537 = DIRECTION('',(1.,0.,-0.));
#538 = ORIENTED_EDGE('',*,*,#539,.T.);
#539 = EDGE_CURVE('',#531,#521,#540,.T.);
#540 = LINE('',#541,#542);
#541 = CARTESIAN_POINT('',(4.9,4.237558259187,11.994));
#542 = VECTOR('',#543,1.);
#543 = DIRECTION('',(0.,0.,1.));
#544 = CYLINDRICAL_SURFACE('',#545,4.87);
#545 = AXIS2_PLACEMENT_3D('',#546,#547,#548);
#546 = CARTESIAN_POINT('',(2.5,0.,11.994));
#547 = DIRECTION('',(0.,0.,1.));
#548 = DIRECTION('',(1.,0.,-0.));
#549 = ADVANCED_FACE('',(#550),#560,.F.);
#550 = FACE_BOUND('',#551,.F.);
#551 = EDGE_LOOP('',(#552,#553,#554));
#552 = ORIENTED_EDGE('',*,*,#505,.T.);
#553 = ORIENTED_EDGE('',*,*,#530,.T.);
#554 = ORIENTED_EDGE('',*,*,#555,.F.);
#555 = EDGE_CURVE('',#498,#531,#556,.T.);
#556 = LINE('',#557,#558);
#557 = CARTESIAN_POINT('',(4.9,-5.,11.994));
#558 = VECTOR('',#559,1.);
#559 = DIRECTION('',(-0.,1.,0.));
#560 = PLANE('',#561);
#561 = AXIS2_PLACEMENT_3D('',#562,#563,#564);
#562 = CARTESIAN_POINT('',(2.5,0.,11.994));
#563 = DIRECTION('',(0.,0.,1.));
#564 = DIRECTION('',(1.,0.,-0.));
#565 = ADVANCED_FACE('',(#566),#577,.F.);
#566 = FACE_BOUND('',#567,.F.);
#567 = EDGE_LOOP('',(#568,#574,#575,#576));
#568 = ORIENTED_EDGE('',*,*,#569,.F.);
#569 = EDGE_CURVE('',#489,#521,#570,.T.);
#570 = LINE('',#571,#572);
#571 = CARTESIAN_POINT('',(4.9,-5.,12.));
#572 = VECTOR('',#573,1.);
#573 = DIRECTION('',(-0.,1.,0.));
#574 = ORIENTED_EDGE('',*,*,#497,.F.);
#575 = ORIENTED_EDGE('',*,*,#555,.T.);
#576 = ORIENTED_EDGE('',*,*,#539,.T.);
#577 = PLANE('',#578);
#578 = AXIS2_PLACEMENT_3D('',#579,#580,#581);
#579 = CARTESIAN_POINT('',(4.9,-5.,11.994));
#580 = DIRECTION('',(1.,0.,-0.));
#581 = DIRECTION('',(0.,0.,1.));
#582 = ADVANCED_FACE('',(#583),#588,.T.);
#583 = FACE_BOUND('',#584,.T.);
#584 = EDGE_LOOP('',(#585,#586,#587));
#585 = ORIENTED_EDGE('',*,*,#488,.T.);
#586 = ORIENTED_EDGE('',*,*,#520,.T.);
#587 = ORIENTED_EDGE('',*,*,#569,.F.);
#588 = PLANE('',#589);
#589 = AXIS2_PLACEMENT_3D('',#590,#591,#592);
#590 = CARTESIAN_POINT('',(2.5,0.,12.));
#591 = DIRECTION('',(0.,0.,1.));
#592 = DIRECTION('',(1.,0.,-0.));
#593 = ( GEOMETRIC_REPRESENTATION_CONTEXT(3) 
GLOBAL_UNCERTAINTY_ASSIGNED_CONTEXT((#597)) GLOBAL_UNIT_ASSIGNED_CONTEXT
((#594,#595,#596)) REPRESENTATION_CONTEXT('Context #1',
  '3D Context with UNIT and UNCERTAINTY') );
#594 = ( LENGTH_UNIT() NAMED_UNIT(*) SI_UNIT(.MILLI.,.METRE.) );
#595 = ( NAMED_UNIT(*) PLANE_ANGLE_UNIT() SI_UNIT($,.RADIAN.) );
#596 = ( NAMED_UNIT(*) SI_UNIT($,.STERADIAN.) SOLID_ANGLE_UNIT() );
#597 = UNCERTAINTY_MEASURE_WITH_UNIT(LENGTH_MEASURE(1.E-07),#594,
  'distance_accuracy_value','confusion accuracy');
#598 = CONTEXT_DEPENDENT_SHAPE_REPRESENTATION(#599,#601);
#599 = ( REPRESENTATION_RELATIONSHIP('','',#471,#10) 
REPRESENTATION_RELATIONSHIP_WITH_TRANSFORMATION(#600) 
SHAPE_REPRESENTATION_RELATIONSHIP() );
#600 = ITEM_DEFINED_TRANSFORMATION('','',#11,#27);
#601 = PRODUCT_DEFINITION_SHAPE('Placement','Placement of an item',#602
  );
#602 = NEXT_ASSEMBLY_USAGE_OCCURRENCE('31',
  'Negative_polarity_red_sector','',#5,#466,$);
#603 = PRODUCT_RELATED_PRODUCT_CATEGORY('part',$,(#468));
#604 = SHAPE_DEFINITION_REPRESENTATION(#605,#611);
#605 = PRODUCT_DEFINITION_SHAPE('','',#606);
#606 = PRODUCT_DEFINITION('design','',#607,#610);
#607 = PRODUCT_DEFINITION_FORMATION('','',#608);
#608 = PRODUCT('Lead_1_positive','Lead_1_positive','',(#609));
#609 = PRODUCT_CONTEXT('',#2,'mechanical');
#610 = PRODUCT_DEFINITION_CONTEXT('part definition',#2,'design');
#611 = ADVANCED_BREP_SHAPE_REPRESENTATION('',(#11,#612),#665);
#612 = MANIFOLD_SOLID_BREP('',#613);
#613 = CLOSED_SHELL('',(#614,#647,#656));
#614 = ADVANCED_FACE('',(#615),#642,.T.);
#615 = FACE_BOUND('',#616,.T.);
#616 = EDGE_LOOP('',(#617,#626,#634,#641));
#617 = ORIENTED_EDGE('',*,*,#618,.F.);
#618 = EDGE_CURVE('',#619,#619,#621,.T.);
#619 = VERTEX_POINT('',#620);
#620 = CARTESIAN_POINT('',(0.3,-7.347880794884E-17,0.));
#621 = CIRCLE('',#622,0.3);
#622 = AXIS2_PLACEMENT_3D('',#623,#624,#625);
#623 = CARTESIAN_POINT('',(0.,0.,0.));
#624 = DIRECTION('',(0.,0.,1.));
#625 = DIRECTION('',(1.,0.,-0.));
#626 = ORIENTED_EDGE('',*,*,#627,.F.);
#627 = EDGE_CURVE('',#628,#619,#630,.T.);
#628 = VERTEX_POINT('',#629);
#629 = CARTESIAN_POINT('',(0.3,-7.347880794884E-17,-2.8));
#630 = LINE('',#631,#632);
#631 = CARTESIAN_POINT('',(0.3,-7.347880794884E-17,-2.8));
#632 = VECTOR('',#633,1.);
#633 = DIRECTION('',(0.,0.,1.));
#634 = ORIENTED_EDGE('',*,*,#635,.T.);
#635 = EDGE_CURVE('',#628,#628,#636,.T.);
#636 = CIRCLE('',#637,0.3);
#637 = AXIS2_PLACEMENT_3D('',#638,#639,#640);
#638 = CARTESIAN_POINT('',(0.,0.,-2.8));
#639 = DIRECTION('',(0.,0.,1.));
#640 = DIRECTION('',(1.,0.,-0.));
#641 = ORIENTED_EDGE('',*,*,#627,.T.);
#642 = CYLINDRICAL_SURFACE('',#643,0.3);
#643 = AXIS2_PLACEMENT_3D('',#644,#645,#646);
#644 = CARTESIAN_POINT('',(0.,0.,-2.8));
#645 = DIRECTION('',(0.,0.,1.));
#646 = DIRECTION('',(1.,0.,-0.));
#647 = ADVANCED_FACE('',(#648),#651,.T.);
#648 = FACE_BOUND('',#649,.T.);
#649 = EDGE_LOOP('',(#650));
#650 = ORIENTED_EDGE('',*,*,#618,.T.);
#651 = PLANE('',#652);
#652 = AXIS2_PLACEMENT_3D('',#653,#654,#655);
#653 = CARTESIAN_POINT('',(0.,0.,0.));
#654 = DIRECTION('',(0.,0.,1.));
#655 = DIRECTION('',(1.,0.,-0.));
#656 = ADVANCED_FACE('',(#657),#660,.F.);
#657 = FACE_BOUND('',#658,.T.);
#658 = EDGE_LOOP('',(#659));
#659 = ORIENTED_EDGE('',*,*,#635,.F.);
#660 = PLANE('',#661);
#661 = AXIS2_PLACEMENT_3D('',#662,#663,#664);
#662 = CARTESIAN_POINT('',(0.,0.,-2.8));
#663 = DIRECTION('',(0.,0.,1.));
#664 = DIRECTION('',(1.,0.,-0.));
#665 = ( GEOMETRIC_REPRESENTATION_CONTEXT(3) 
GLOBAL_UNCERTAINTY_ASSIGNED_CONTEXT((#669)) GLOBAL_UNIT_ASSIGNED_CONTEXT
((#666,#667,#668)) REPRESENTATION_CONTEXT('Context #1',
  '3D Context with UNIT and UNCERTAINTY') );
#666 = ( LENGTH_UNIT() NAMED_UNIT(*) SI_UNIT(.MILLI.,.METRE.) );
#667 = ( NAMED_UNIT(*) PLANE_ANGLE_UNIT() SI_UNIT($,.RADIAN.) );
#668 = ( NAMED_UNIT(*) SI_UNIT($,.STERADIAN.) SOLID_ANGLE_UNIT() );
#669 = UNCERTAINTY_MEASURE_WITH_UNIT(LENGTH_MEASURE(1.E-07),#666,
  'distance_accuracy_value','confusion accuracy');
#670 = CONTEXT_DEPENDENT_SHAPE_REPRESENTATION(#671,#673);
#671 = ( REPRESENTATION_RELATIONSHIP('','',#611,#10) 
REPRESENTATION_RELATIONSHIP_WITH_TRANSFORMATION(#672) 
SHAPE_REPRESENTATION_RELATIONSHIP() );
#672 = ITEM_DEFINED_TRANSFORMATION('','',#11,#31);
#673 = PRODUCT_DEFINITION_SHAPE('Placement','Placement of an item',#674
  );
#674 = NEXT_ASSEMBLY_USAGE_OCCURRENCE('32','Lead_1_positive','',#5,#606,
  $);
#675 = PRODUCT_RELATED_PRODUCT_CATEGORY('part',$,(#608));
#676 = SHAPE_DEFINITION_REPRESENTATION(#677,#683);
#677 = PRODUCT_DEFINITION_SHAPE('','',#678);
#678 = PRODUCT_DEFINITION('design','',#679,#682);
#679 = PRODUCT_DEFINITION_FORMATION('','',#680);
#680 = PRODUCT('Lead_2_negative','Lead_2_negative','',(#681));
#681 = PRODUCT_CONTEXT('',#2,'mechanical');
#682 = PRODUCT_DEFINITION_CONTEXT('part definition',#2,'design');
#683 = ADVANCED_BREP_SHAPE_REPRESENTATION('',(#11,#684),#737);
#684 = MANIFOLD_SOLID_BREP('',#685);
#685 = CLOSED_SHELL('',(#686,#719,#728));
#686 = ADVANCED_FACE('',(#687),#714,.T.);
#687 = FACE_BOUND('',#688,.T.);
#688 = EDGE_LOOP('',(#689,#698,#706,#713));
#689 = ORIENTED_EDGE('',*,*,#690,.F.);
#690 = EDGE_CURVE('',#691,#691,#693,.T.);
#691 = VERTEX_POINT('',#692);
#692 = CARTESIAN_POINT('',(5.3,-7.347880794884E-17,0.));
#693 = CIRCLE('',#694,0.3);
#694 = AXIS2_PLACEMENT_3D('',#695,#696,#697);
#695 = CARTESIAN_POINT('',(5.,0.,0.));
#696 = DIRECTION('',(0.,0.,1.));
#697 = DIRECTION('',(1.,0.,-0.));
#698 = ORIENTED_EDGE('',*,*,#699,.F.);
#699 = EDGE_CURVE('',#700,#691,#702,.T.);
#700 = VERTEX_POINT('',#701);
#701 = CARTESIAN_POINT('',(5.3,-7.347880794884E-17,-2.8));
#702 = LINE('',#703,#704);
#703 = CARTESIAN_POINT('',(5.3,-7.347880794884E-17,-2.8));
#704 = VECTOR('',#705,1.);
#705 = DIRECTION('',(0.,0.,1.));
#706 = ORIENTED_EDGE('',*,*,#707,.T.);
#707 = EDGE_CURVE('',#700,#700,#708,.T.);
#708 = CIRCLE('',#709,0.3);
#709 = AXIS2_PLACEMENT_3D('',#710,#711,#712);
#710 = CARTESIAN_POINT('',(5.,0.,-2.8));
#711 = DIRECTION('',(0.,0.,1.));
#712 = DIRECTION('',(1.,0.,-0.));
#713 = ORIENTED_EDGE('',*,*,#699,.T.);
#714 = CYLINDRICAL_SURFACE('',#715,0.3);
#715 = AXIS2_PLACEMENT_3D('',#716,#717,#718);
#716 = CARTESIAN_POINT('',(5.,0.,-2.8));
#717 = DIRECTION('',(0.,0.,1.));
#718 = DIRECTION('',(1.,0.,-0.));
#719 = ADVANCED_FACE('',(#720),#723,.T.);
#720 = FACE_BOUND('',#721,.T.);
#721 = EDGE_LOOP('',(#722));
#722 = ORIENTED_EDGE('',*,*,#690,.T.);
#723 = PLANE('',#724);
#724 = AXIS2_PLACEMENT_3D('',#725,#726,#727);
#725 = CARTESIAN_POINT('',(5.,0.,0.));
#726 = DIRECTION('',(0.,0.,1.));
#727 = DIRECTION('',(1.,0.,-0.));
#728 = ADVANCED_FACE('',(#729),#732,.F.);
#729 = FACE_BOUND('',#730,.T.);
#730 = EDGE_LOOP('',(#731));
#731 = ORIENTED_EDGE('',*,*,#707,.F.);
#732 = PLANE('',#733);
#733 = AXIS2_PLACEMENT_3D('',#734,#735,#736);
#734 = CARTESIAN_POINT('',(5.,0.,-2.8));
#735 = DIRECTION('',(0.,0.,1.));
#736 = DIRECTION('',(1.,0.,-0.));
#737 = ( GEOMETRIC_REPRESENTATION_CONTEXT(3) 
GLOBAL_UNCERTAINTY_ASSIGNED_CONTEXT((#741)) GLOBAL_UNIT_ASSIGNED_CONTEXT
((#738,#739,#740)) REPRESENTATION_CONTEXT('Context #1',
  '3D Context with UNIT and UNCERTAINTY') );
#738 = ( LENGTH_UNIT() NAMED_UNIT(*) SI_UNIT(.MILLI.,.METRE.) );
#739 = ( NAMED_UNIT(*) PLANE_ANGLE_UNIT() SI_UNIT($,.RADIAN.) );
#740 = ( NAMED_UNIT(*) SI_UNIT($,.STERADIAN.) SOLID_ANGLE_UNIT() );
#741 = UNCERTAINTY_MEASURE_WITH_UNIT(LENGTH_MEASURE(1.E-07),#738,
  'distance_accuracy_value','confusion accuracy');
#742 = CONTEXT_DEPENDENT_SHAPE_REPRESENTATION(#743,#745);
#743 = ( REPRESENTATION_RELATIONSHIP('','',#683,#10) 
REPRESENTATION_RELATIONSHIP_WITH_TRANSFORMATION(#744) 
SHAPE_REPRESENTATION_RELATIONSHIP() );
#744 = ITEM_DEFINED_TRANSFORMATION('','',#11,#35);
#745 = PRODUCT_DEFINITION_SHAPE('Placement','Placement of an item',#746
  );
#746 = NEXT_ASSEMBLY_USAGE_OCCURRENCE('33','Lead_2_negative','',#5,#678,
  $);
#747 = PRODUCT_RELATED_PRODUCT_CATEGORY('part',$,(#680));
#748 = MECHANICAL_DESIGN_GEOMETRIC_PRESENTATION_REPRESENTATION('',(#749)
  ,#665);
#749 = STYLED_ITEM('color',(#750),#612);
#750 = PRESENTATION_STYLE_ASSIGNMENT((#751,#757));
#751 = SURFACE_STYLE_USAGE(.BOTH.,#752);
#752 = SURFACE_SIDE_STYLE('',(#753));
#753 = SURFACE_STYLE_FILL_AREA(#754);
#754 = FILL_AREA_STYLE('',(#755));
#755 = FILL_AREA_STYLE_COLOUR('',#756);
#756 = COLOUR_RGB('',0.699999984889,0.720000023499,0.750000000934);
#757 = CURVE_STYLE('',#758,POSITIVE_LENGTH_MEASURE(0.1),#756);
#758 = DRAUGHTING_PRE_DEFINED_CURVE_FONT('continuous');
#759 = MECHANICAL_DESIGN_GEOMETRIC_PRESENTATION_REPRESENTATION('',(#760)
  ,#196);
#760 = STYLED_ITEM('color',(#761),#53);
#761 = PRESENTATION_STYLE_ASSIGNMENT((#762,#768));
#762 = SURFACE_STYLE_USAGE(.BOTH.,#763);
#763 = SURFACE_SIDE_STYLE('',(#764));
#764 = SURFACE_STYLE_FILL_AREA(#765);
#765 = FILL_AREA_STYLE('',(#766));
#766 = FILL_AREA_STYLE_COLOUR('',#767);
#767 = COLOUR_RGB('',0.730000014984,0.750000000934,0.779999965419);
#768 = CURVE_STYLE('',#769,POSITIVE_LENGTH_MEASURE(0.1),#767);
#769 = DRAUGHTING_PRE_DEFINED_CURVE_FONT('continuous');
#770 = MECHANICAL_DESIGN_GEOMETRIC_PRESENTATION_REPRESENTATION('',(#771)
  ,#593);
#771 = STYLED_ITEM('color',(#772),#472);
#772 = PRESENTATION_STYLE_ASSIGNMENT((#773,#779));
#773 = SURFACE_STYLE_USAGE(.BOTH.,#774);
#774 = SURFACE_SIDE_STYLE('',(#775));
#775 = SURFACE_STYLE_FILL_AREA(#776);
#776 = FILL_AREA_STYLE('',(#777));
#777 = FILL_AREA_STYLE_COLOUR('',#778);
#778 = COLOUR_RGB('',0.55000000909,7.000000150072E-02,6.499999653404E-02
  );
#779 = CURVE_STYLE('',#780,POSITIVE_LENGTH_MEASURE(0.1),#778);
#780 = DRAUGHTING_PRE_DEFINED_CURVE_FONT('continuous');
#781 = MECHANICAL_DESIGN_GEOMETRIC_PRESENTATION_REPRESENTATION('',(#782)
  ,#453);
#782 = STYLED_ITEM('color',(#783),#287);
#783 = PRESENTATION_STYLE_ASSIGNMENT((#784,#789));
#784 = SURFACE_STYLE_USAGE(.BOTH.,#785);
#785 = SURFACE_SIDE_STYLE('',(#786));
#786 = SURFACE_STYLE_FILL_AREA(#787);
#787 = FILL_AREA_STYLE('',(#788));
#788 = FILL_AREA_STYLE_COLOUR('',#767);
#789 = CURVE_STYLE('',#790,POSITIVE_LENGTH_MEASURE(0.1),#767);
#790 = DRAUGHTING_PRE_DEFINED_CURVE_FONT('continuous');
#791 = MECHANICAL_DESIGN_GEOMETRIC_PRESENTATION_REPRESENTATION('',(#792)
  ,#737);
#792 = STYLED_ITEM('color',(#793),#684);
#793 = PRESENTATION_STYLE_ASSIGNMENT((#794,#799));
#794 = SURFACE_STYLE_USAGE(.BOTH.,#795);
#795 = SURFACE_SIDE_STYLE('',(#796));
#796 = SURFACE_STYLE_FILL_AREA(#797);
#797 = FILL_AREA_STYLE('',(#798));
#798 = FILL_AREA_STYLE_COLOUR('',#756);
#799 = CURVE_STYLE('',#800,POSITIVE_LENGTH_MEASURE(0.1),#756);
#800 = DRAUGHTING_PRE_DEFINED_CURVE_FONT('continuous');
#801 = MECHANICAL_DESIGN_GEOMETRIC_PRESENTATION_REPRESENTATION('',(#802)
  ,#268);
#802 = STYLED_ITEM('color',(#803),#215);
#803 = PRESENTATION_STYLE_ASSIGNMENT((#804,#810));
#804 = SURFACE_STYLE_USAGE(.BOTH.,#805);
#805 = SURFACE_SIDE_STYLE('',(#806));
#806 = SURFACE_STYLE_FILL_AREA(#807);
#807 = FILL_AREA_STYLE('',(#808));
#808 = FILL_AREA_STYLE_COLOUR('',#809);
#809 = COLOUR_RGB('',5.500000063064E-02,6.000000074816E-02,
  6.499999653404E-02);
#810 = CURVE_STYLE('',#811,POSITIVE_LENGTH_MEASURE(0.1),#809);
#811 = DRAUGHTING_PRE_DEFINED_CURVE_FONT('continuous');
ENDSEC;
END-ISO-10303-21;
